<?xml version="1.0" encoding="utf-8" standalone="no"?>
<!DOCTYPE svg PUBLIC "-//W3C//DTD SVG 1.1//EN"
  "http://www.w3.org/Graphics/SVG/1.1/DTD/svg11.dtd">
<svg xmlns:xlink="http://www.w3.org/1999/xlink" width="360pt" height="360pt" viewBox="0 0 360 360" xmlns="http://www.w3.org/2000/svg" version="1.1">
 <metadata>
  <rdf:RDF xmlns:dc="http://purl.org/dc/elements/1.1/" xmlns:cc="http://creativecommons.org/ns#" xmlns:rdf="http://www.w3.org/1999/02/22-rdf-syntax-ns#">
   <cc:Work>
    <dc:type rdf:resource="http://purl.org/dc/dcmitype/StillImage"/>
    <dc:date>2022-05-04T16:05:33.976072</dc:date>
    <dc:format>image/svg+xml</dc:format>
    <dc:creator>
     <cc:Agent>
      <dc:title>Matplotlib v3.5.1, https://matplotlib.org/</dc:title>
     </cc:Agent>
    </dc:creator>
   </cc:Work>
  </rdf:RDF>
 </metadata>
 <defs>
  <style type="text/css">*{stroke-linejoin: round; stroke-linecap: butt}</style>
 </defs>
 <g id="figure_1">
  <g id="patch_1">
   <path d="M 0 360 
L 360 360 
L 360 0 
L 0 0 
z
" style="fill: #ffffff"/>
  </g>
  <g id="axes_1">
   <g id="patch_2">
    <path d="M 44.630358 317.244044 
L 349.2 317.244044 
L 349.2 10.8 
L 44.630358 10.8 
z
" style="fill: #ffffff"/>
   </g>
   <g id="matplotlib.axis_1">
    <g id="xtick_1">
     <g id="line2d_1">
      <defs>
       <path id="mc0296e6c22" d="M 0 0 
L 0 5 
" style="stroke: #000000; stroke-width: 0.8"/>
      </defs>
      <g>
       <use xlink:href="#mc0296e6c22" x="55.979441" y="317.244044" style="stroke: #000000; stroke-width: 0.8"/>
      </g>
     </g>
     <g id="text_1">
      <!-- $\mathdefault{0.0}$ -->
      <g transform="translate(49.614401 332.662543)scale(0.1 -0.1)">
       <defs>
        <path id="CMR17-30" d="M 2688 2025 
C 2688 2416 2682 3080 2413 3591 
C 2176 4039 1798 4198 1466 4198 
C 1158 4198 768 4058 525 3597 
C 269 3118 243 2524 243 2025 
C 243 1661 250 1106 448 619 
C 723 -39 1216 -128 1466 -128 
C 1760 -128 2208 -7 2470 600 
C 2662 1042 2688 1559 2688 2025 
z
M 1466 -26 
C 1056 -26 813 325 723 812 
C 653 1188 653 1738 653 2096 
C 653 2588 653 2997 736 3387 
C 858 3929 1216 4096 1466 4096 
C 1728 4096 2067 3923 2189 3400 
C 2272 3036 2278 2607 2278 2096 
C 2278 1680 2278 1169 2202 792 
C 2067 95 1690 -26 1466 -26 
z
" transform="scale(0.015625)"/>
        <path id="CMMI12-3a" d="M 1178 307 
C 1178 492 1024 619 870 619 
C 685 619 557 466 557 313 
C 557 128 710 0 864 0 
C 1050 0 1178 153 1178 307 
z
" transform="scale(0.015625)"/>
       </defs>
       <use xlink:href="#CMR17-30" transform="scale(0.996264)"/>
       <use xlink:href="#CMMI12-3a" transform="translate(45.690477 0)scale(0.996264)"/>
       <use xlink:href="#CMR17-30" transform="translate(72.787654 0)scale(0.996264)"/>
      </g>
     </g>
    </g>
    <g id="xtick_2">
     <g id="line2d_2">
      <g>
       <use xlink:href="#mc0296e6c22" x="123.117444" y="317.244044" style="stroke: #000000; stroke-width: 0.8"/>
      </g>
     </g>
     <g id="text_2">
      <!-- $\mathdefault{0.5}$ -->
      <g transform="translate(116.752405 332.662543)scale(0.1 -0.1)">
       <defs>
        <path id="CMR17-35" d="M 730 3692 
C 794 3666 1056 3584 1325 3584 
C 1920 3584 2246 3911 2432 4100 
C 2432 4157 2432 4192 2394 4192 
C 2387 4192 2374 4192 2323 4163 
C 2099 4058 1837 3973 1517 3973 
C 1325 3973 1037 3999 723 4139 
C 653 4171 640 4171 634 4171 
C 602 4171 595 4164 595 4037 
L 595 2203 
C 595 2089 595 2057 659 2057 
C 691 2057 704 2070 736 2114 
C 941 2401 1222 2522 1542 2522 
C 1766 2522 2246 2382 2246 1289 
C 2246 1085 2246 715 2054 421 
C 1894 159 1645 25 1370 25 
C 947 25 518 320 403 814 
C 429 807 480 795 506 795 
C 589 795 749 840 749 1038 
C 749 1210 627 1280 506 1280 
C 358 1280 262 1190 262 1011 
C 262 454 704 -128 1382 -128 
C 2042 -128 2669 440 2669 1264 
C 2669 2030 2170 2624 1549 2624 
C 1222 2624 947 2503 730 2274 
L 730 3692 
z
" transform="scale(0.015625)"/>
       </defs>
       <use xlink:href="#CMR17-30" transform="scale(0.996264)"/>
       <use xlink:href="#CMMI12-3a" transform="translate(45.690477 0)scale(0.996264)"/>
       <use xlink:href="#CMR17-35" transform="translate(72.787654 0)scale(0.996264)"/>
      </g>
     </g>
    </g>
    <g id="xtick_3">
     <g id="line2d_3">
      <g>
       <use xlink:href="#mc0296e6c22" x="190.255448" y="317.244044" style="stroke: #000000; stroke-width: 0.8"/>
      </g>
     </g>
     <g id="text_3">
      <!-- $\mathdefault{1.0}$ -->
      <g transform="translate(183.890409 332.662543)scale(0.1 -0.1)">
       <defs>
        <path id="CMR17-31" d="M 1702 4058 
C 1702 4192 1696 4192 1606 4192 
C 1357 3916 979 3827 621 3827 
C 602 3827 570 3827 563 3808 
C 557 3795 557 3782 557 3648 
C 755 3648 1088 3686 1344 3839 
L 1344 461 
C 1344 236 1331 160 781 160 
L 589 160 
L 589 0 
C 896 0 1216 0 1523 0 
C 1830 0 2150 0 2458 0 
L 2458 160 
L 2266 160 
C 1715 160 1702 230 1702 458 
L 1702 4058 
z
" transform="scale(0.015625)"/>
       </defs>
       <use xlink:href="#CMR17-31" transform="scale(0.996264)"/>
       <use xlink:href="#CMMI12-3a" transform="translate(45.690477 0)scale(0.996264)"/>
       <use xlink:href="#CMR17-30" transform="translate(72.787654 0)scale(0.996264)"/>
      </g>
     </g>
    </g>
    <g id="xtick_4">
     <g id="line2d_4">
      <g>
       <use xlink:href="#mc0296e6c22" x="257.393452" y="317.244044" style="stroke: #000000; stroke-width: 0.8"/>
      </g>
     </g>
     <g id="text_4">
      <!-- $\mathdefault{1.5}$ -->
      <g transform="translate(251.028412 332.662543)scale(0.1 -0.1)">
       <use xlink:href="#CMR17-31" transform="scale(0.996264)"/>
       <use xlink:href="#CMMI12-3a" transform="translate(45.690477 0)scale(0.996264)"/>
       <use xlink:href="#CMR17-35" transform="translate(72.787654 0)scale(0.996264)"/>
      </g>
     </g>
    </g>
    <g id="xtick_5">
     <g id="line2d_5">
      <g>
       <use xlink:href="#mc0296e6c22" x="324.531455" y="317.244044" style="stroke: #000000; stroke-width: 0.8"/>
      </g>
     </g>
     <g id="text_5">
      <!-- $\mathdefault{2.0}$ -->
      <g transform="translate(318.166416 332.662543)scale(0.1 -0.1)">
       <defs>
        <path id="CMR17-32" d="M 2669 989 
L 2554 989 
C 2490 536 2438 459 2413 420 
C 2381 369 1920 369 1830 369 
L 602 369 
C 832 619 1280 1072 1824 1597 
C 2214 1967 2669 2402 2669 3035 
C 2669 3790 2067 4224 1395 4224 
C 691 4224 262 3604 262 3030 
C 262 2780 448 2748 525 2748 
C 589 2748 781 2787 781 3010 
C 781 3207 614 3264 525 3264 
C 486 3264 448 3258 422 3245 
C 544 3790 915 4058 1306 4058 
C 1862 4058 2227 3617 2227 3035 
C 2227 2479 1901 2000 1536 1584 
L 262 146 
L 262 0 
L 2515 0 
L 2669 989 
z
" transform="scale(0.015625)"/>
       </defs>
       <use xlink:href="#CMR17-32" transform="scale(0.996264)"/>
       <use xlink:href="#CMMI12-3a" transform="translate(45.690477 0)scale(0.996264)"/>
       <use xlink:href="#CMR17-30" transform="translate(72.787654 0)scale(0.996264)"/>
      </g>
     </g>
    </g>
    <g id="text_6">
     <!-- This study ($tCO^2eq/capita$) -->
     <g transform="translate(136.960444 346.70934)scale(0.1 -0.1)">
      <defs>
       <path id="CMSS17-54" d="M 2317 3968 
L 2848 3968 
C 2925 3968 3002 3968 3078 3968 
L 3878 3968 
L 3878 4376 
L 218 4376 
L 218 3968 
L 1018 3968 
C 1094 3968 1171 3968 1248 3968 
L 1779 3968 
L 1779 -32 
L 2317 -32 
L 2317 3968 
z
" transform="scale(0.015625)"/>
       <path id="CMSS17-68" d="M 2618 1891 
C 2618 2292 2522 2820 1798 2820 
C 1395 2820 1133 2623 947 2407 
L 947 4448 
L 474 4448 
L 474 32 
L 960 32 
L 960 1573 
C 960 1973 1114 2432 1549 2432 
C 2112 2432 2131 2056 2131 1839 
L 2131 32 
L 2618 32 
L 2618 1891 
z
" transform="scale(0.015625)"/>
       <path id="CMSS17-69" d="M 979 4183 
L 442 4183 
L 442 3648 
L 979 3648 
L 979 4183 
z
M 947 2739 
L 474 2739 
L 474 0 
L 947 0 
L 947 2739 
z
" transform="scale(0.015625)"/>
       <path id="CMSS17-73" d="M 2061 2627 
C 1683 2807 1389 2807 1197 2807 
C 742 2807 198 2648 198 2003 
C 198 1359 902 1218 1094 1179 
C 1389 1122 1715 1058 1715 740 
C 1715 337 1254 337 1171 337 
C 915 337 563 407 243 638 
L 166 210 
C 531 0 883 -64 1178 -64 
C 1965 -64 2163 416 2163 781 
C 2163 1094 1984 1305 1862 1401 
C 1651 1568 1574 1587 1050 1696 
C 960 1709 646 1779 646 2066 
C 646 2432 1050 2432 1139 2432 
C 1555 2432 1811 2303 1984 2208 
L 2061 2627 
z
" transform="scale(0.015625)"/>
       <path id="CMSS17-74" d="M 1069 2368 
L 1901 2368 
L 1901 2737 
L 1069 2737 
L 1069 3520 
L 614 3520 
L 614 2737 
L 109 2737 
L 109 2368 
L 602 2368 
L 602 749 
C 602 384 685 -64 1107 -64 
C 1427 -64 1722 25 2003 172 
L 1901 548 
C 1747 414 1562 337 1363 337 
C 1082 337 1069 696 1069 856 
L 1069 2368 
z
" transform="scale(0.015625)"/>
       <path id="CMSS17-75" d="M 2618 2739 
L 2131 2739 
L 2131 972 
C 2131 498 1786 306 1421 306 
C 998 306 960 447 960 709 
L 960 2739 
L 474 2739 
L 474 678 
C 474 179 646 -64 1088 -64 
C 1306 -64 1798 -13 2144 306 
L 2144 0 
L 2618 0 
L 2618 2739 
z
" transform="scale(0.015625)"/>
       <path id="CMSS17-64" d="M 2611 4416 
L 2138 4416 
L 2138 2438 
C 1939 2603 1613 2756 1254 2756 
C 672 2756 211 2131 211 1347 
C 211 562 666 -64 1235 -64 
C 1677 -64 1971 172 2125 306 
L 2125 -13 
L 2611 -13 
L 2611 4416 
z
M 2125 836 
C 2125 747 2125 653 1926 482 
C 1798 375 1645 325 1498 325 
C 1152 325 698 576 698 1340 
C 698 2134 1210 2368 1562 2368 
C 1798 2368 1990 2254 2125 2065 
L 2125 836 
z
" transform="scale(0.015625)"/>
       <path id="CMSS17-79" d="M 2675 2752 
L 2176 2752 
C 1632 1294 1446 702 1434 383 
L 1427 383 
C 1408 696 1126 1460 902 2007 
L 602 2752 
L 83 2752 
L 1216 13 
C 1146 -178 1043 -465 1011 -529 
C 870 -885 774 -885 672 -885 
C 646 -885 442 -885 211 -809 
L 250 -1229 
C 410 -1261 570 -1280 685 -1280 
C 845 -1280 1165 -1280 1459 -497 
L 2675 2752 
z
" transform="scale(0.015625)"/>
       <path id="CMSS17-28" d="M 1613 4768 
C 1267 4417 474 3601 474 1588 
C 474 -433 1267 -1243 1613 -1600 
L 2003 -1600 
C 1216 -784 960 357 960 1581 
C 960 2798 1203 3946 2003 4768 
L 1613 4768 
z
" transform="scale(0.015625)"/>
       <path id="CMMI12-74" d="M 1286 2566 
L 1875 2566 
C 1997 2566 2061 2566 2061 2681 
C 2061 2752 2022 2752 1894 2752 
L 1331 2752 
L 1568 3692 
C 1594 3781 1594 3794 1594 3840 
C 1594 3943 1510 4000 1427 4000 
C 1376 4000 1229 3981 1178 3775 
L 928 2752 
L 326 2752 
C 198 2752 141 2752 141 2630 
C 141 2566 186 2566 307 2566 
L 877 2566 
L 454 881 
C 403 658 384 594 384 511 
C 384 211 595 -64 954 -64 
C 1600 -64 1946 868 1946 912 
C 1946 951 1920 970 1882 970 
C 1869 970 1843 970 1830 944 
C 1824 938 1818 931 1773 829 
C 1638 511 1344 64 973 64 
C 781 64 768 224 768 364 
C 768 370 768 492 787 568 
L 1286 2566 
z
" transform="scale(0.015625)"/>
       <path id="CMMI12-43" d="M 4781 4423 
C 4781 4480 4736 4480 4723 4480 
C 4710 4480 4685 4480 4634 4416 
L 4192 3882 
C 3968 4264 3616 4480 3136 4480 
C 1754 4480 320 3088 320 1595 
C 320 533 1069 -128 2003 -128 
C 2515 -128 2963 88 3334 400 
C 3891 863 4058 1481 4058 1531 
C 4058 1588 4006 1588 3987 1588 
C 3930 1588 3923 1550 3910 1524 
C 3616 534 2752 57 2112 57 
C 1434 57 845 489 845 1391 
C 845 1595 909 2700 1632 3532 
C 1984 3939 2586 4295 3194 4295 
C 3898 4295 4211 3717 4211 3068 
C 4211 2903 4192 2764 4192 2738 
C 4192 2681 4256 2681 4275 2681 
C 4346 2681 4352 2687 4378 2801 
L 4781 4423 
z
" transform="scale(0.015625)"/>
       <path id="CMMI12-4f" d="M 4646 2797 
C 4646 3848 3955 4492 3059 4492 
C 1690 4492 307 3026 307 1554 
C 307 554 973 -128 1901 -128 
C 3245 -128 4646 1268 4646 2797 
z
M 1939 19 
C 1414 19 858 401 858 1395 
C 858 1974 1069 2924 1594 3562 
C 2061 4123 2598 4352 3027 4352 
C 3590 4352 4134 3944 4134 3026 
C 4134 2459 3891 1573 3462 968 
C 2995 318 2413 19 1939 19 
z
" transform="scale(0.015625)"/>
       <path id="CMMI12-65" d="M 1146 1479 
C 1318 1479 1754 1479 2061 1595 
C 2547 1783 2592 2158 2592 2274 
C 2592 2558 2349 2816 1926 2816 
C 1254 2816 288 2210 288 1073 
C 288 402 672 -64 1254 -64 
C 2125 -64 2675 609 2675 692 
C 2675 730 2637 762 2611 762 
C 2592 762 2586 756 2528 699 
C 2118 159 1510 64 1267 64 
C 902 64 710 350 710 822 
C 710 911 710 1071 806 1479 
L 1146 1479 
z
M 838 1600 
C 1114 2592 1722 2689 1926 2689 
C 2208 2689 2400 2522 2400 2277 
C 2400 1600 1376 1600 1107 1600 
L 838 1600 
z
" transform="scale(0.015625)"/>
       <path id="CMMI12-71" d="M 2822 2759 
C 2822 2790 2797 2816 2765 2816 
C 2714 2816 2464 2585 2342 2362 
C 2227 2646 2029 2816 1754 2816 
C 1030 2816 250 1884 250 939 
C 250 307 621 -64 1056 -64 
C 1395 -64 1677 193 1811 339 
L 1818 333 
L 1574 -615 
L 1517 -842 
C 1459 -1031 1363 -1031 1062 -1031 
C 992 -1031 928 -1031 928 -1152 
C 928 -1197 966 -1216 1011 -1216 
C 1101 -1216 1216 -1216 1306 -1216 
L 1958 -1216 
C 2054 -1216 2163 -1216 2259 -1216 
C 2298 -1216 2374 -1216 2374 -1095 
C 2374 -1031 2323 -1031 2227 -1031 
C 1926 -1031 1907 -986 1907 -935 
C 1907 -904 1914 -898 1933 -815 
L 2822 2759 
z
M 1920 762 
C 1888 652 1888 640 1798 518 
C 1658 339 1376 64 1075 64 
C 813 64 666 301 666 678 
C 666 1030 864 1747 986 2016 
C 1203 2464 1504 2695 1754 2695 
C 2176 2695 2259 2170 2259 2119 
C 2259 2113 2240 2028 2234 2016 
L 1920 762 
z
" transform="scale(0.015625)"/>
       <path id="CMMI12-3d" d="M 2746 4562 
C 2746 4569 2784 4666 2784 4678 
C 2784 4755 2720 4800 2669 4800 
C 2637 4800 2579 4800 2528 4659 
L 384 -1363 
C 384 -1370 346 -1465 346 -1478 
C 346 -1555 410 -1600 461 -1600 
C 499 -1600 557 -1593 602 -1459 
L 2746 4562 
z
" transform="scale(0.015625)"/>
       <path id="CMMI12-63" d="M 2502 2431 
C 2381 2431 2323 2431 2234 2355 
C 2195 2323 2125 2227 2125 2125 
C 2125 1997 2221 1920 2342 1920 
C 2496 1920 2669 2044 2669 2292 
C 2669 2588 2374 2816 1933 2816 
C 1094 2816 256 1903 256 996 
C 256 441 602 -64 1254 -64 
C 2125 -64 2675 622 2675 706 
C 2675 744 2637 776 2611 776 
C 2592 776 2586 770 2528 713 
C 2118 162 1510 64 1267 64 
C 826 64 685 446 685 764 
C 685 988 794 1605 1024 2039 
C 1190 2338 1536 2682 1939 2682 
C 2022 2682 2374 2682 2502 2431 
z
" transform="scale(0.015625)"/>
       <path id="CMMI12-61" d="M 1926 760 
C 1894 651 1894 639 1805 517 
C 1664 338 1382 64 1082 64 
C 819 64 672 300 672 677 
C 672 1028 870 1743 992 2012 
C 1210 2459 1510 2689 1760 2689 
C 2182 2689 2266 2165 2266 2114 
C 2266 2108 2246 2024 2240 2012 
L 1926 760 
z
M 2336 2395 
C 2266 2561 2093 2816 1760 2816 
C 1037 2816 256 1884 256 939 
C 256 307 627 -64 1062 -64 
C 1414 -64 1715 211 1894 422 
C 1958 45 2259 -64 2451 -64 
C 2643 -64 2797 51 2912 281 
C 3014 498 3104 888 3104 913 
C 3104 945 3078 971 3040 971 
C 2982 971 2976 939 2950 843 
C 2854 466 2733 64 2470 64 
C 2285 64 2272 230 2272 358 
C 2272 505 2291 575 2349 824 
C 2394 984 2426 1124 2477 1309 
C 2714 2267 2771 2497 2771 2535 
C 2771 2625 2701 2695 2605 2695 
C 2400 2695 2349 2472 2336 2395 
z
" transform="scale(0.015625)"/>
       <path id="CMMI12-70" d="M 275 -789 
C 230 -980 205 -1031 -58 -1031 
C -134 -1031 -198 -1031 -198 -1152 
C -198 -1165 -192 -1216 -122 -1216 
C -38 -1216 51 -1216 134 -1216 
L 410 -1216 
C 544 -1216 870 -1216 1005 -1216 
C 1043 -1216 1120 -1216 1120 -1101 
C 1120 -1031 1075 -1031 966 -1031 
C 672 -1031 653 -987 653 -937 
C 653 -861 941 219 979 364 
C 1050 185 1222 -64 1555 -64 
C 2278 -64 3059 875 3059 1814 
C 3059 2401 2726 2816 2246 2816 
C 1837 2816 1491 2420 1421 2331 
C 1370 2650 1120 2816 864 2816 
C 678 2816 531 2727 410 2484 
C 294 2254 205 1865 205 1839 
C 205 1814 230 1782 275 1782 
C 326 1782 333 1788 371 1935 
C 467 2312 589 2689 845 2689 
C 992 2689 1043 2587 1043 2397 
C 1043 2245 1024 2181 998 2067 
L 275 -789 
z
M 1382 1993 
C 1427 2171 1606 2357 1709 2446 
C 1779 2510 1990 2689 2234 2689 
C 2515 2689 2643 2408 2643 2076 
C 2643 1769 2464 1047 2304 715 
C 2144 370 1850 64 1555 64 
C 1120 64 1050 613 1050 639 
C 1050 658 1062 709 1069 741 
L 1382 1993 
z
" transform="scale(0.015625)"/>
       <path id="CMMI12-69" d="M 1811 913 
C 1811 945 1786 971 1747 971 
C 1690 971 1683 952 1651 843 
C 1485 262 1222 64 1011 64 
C 934 64 845 83 845 275 
C 845 447 922 639 992 830 
L 1440 2018 
C 1459 2069 1504 2184 1504 2305 
C 1504 2574 1312 2816 998 2816 
C 410 2816 173 1890 173 1839 
C 173 1814 198 1782 243 1782 
C 301 1782 307 1807 333 1896 
C 486 2428 730 2682 979 2682 
C 1037 2682 1146 2682 1146 2478 
C 1146 2312 1062 2101 1011 1961 
L 563 773 
C 525 671 486 568 486 453 
C 486 166 685 -64 992 -64 
C 1581 -64 1811 869 1811 913 
z
M 1760 4013 
C 1760 4109 1683 4224 1542 4224 
C 1395 4224 1229 4083 1229 3917 
C 1229 3758 1363 3707 1440 3707 
C 1613 3707 1760 3873 1760 4013 
z
" transform="scale(0.015625)"/>
       <path id="CMSS17-29" d="M 723 -1600 
C 1069 -1249 1862 -433 1862 1581 
C 1862 3601 1069 4411 723 4768 
L 333 4768 
C 1120 3952 1376 2811 1376 1588 
C 1376 370 1133 -778 333 -1600 
L 723 -1600 
z
" transform="scale(0.015625)"/>
      </defs>
      <use xlink:href="#CMSS17-54" transform="scale(0.996264)"/>
      <use xlink:href="#CMSS17-68" transform="translate(63.819454 0)scale(0.996264)"/>
      <use xlink:href="#CMSS17-69" transform="translate(112.024397 0)scale(0.996264)"/>
      <use xlink:href="#CMSS17-73" transform="translate(134.20512 0)scale(0.996264)"/>
      <use xlink:href="#CMSS17-73" transform="translate(201.347775 0)scale(0.996264)"/>
      <use xlink:href="#CMSS17-74" transform="translate(237.261317 0)scale(0.996264)"/>
      <use xlink:href="#CMSS17-75" transform="translate(271.092883 0)scale(0.996264)"/>
      <use xlink:href="#CMSS17-64" transform="translate(319.297827 0)scale(0.996264)"/>
      <use xlink:href="#CMSS17-79" transform="translate(367.50277 0)scale(0.996264)"/>
      <use xlink:href="#CMSS17-28" transform="translate(441.732024 0)scale(0.996264)"/>
      <use xlink:href="#CMMI12-74" transform="translate(478.165938 0)scale(0.996264)"/>
      <use xlink:href="#CMMI12-43" transform="translate(513.392269 0)scale(0.996264)"/>
      <use xlink:href="#CMMI12-4f" transform="translate(590.339115 0)scale(0.996264)"/>
      <use xlink:href="#CMR17-32" transform="translate(667.599514 36.153639)scale(0.697382)"/>
      <use xlink:href="#CMMI12-65" transform="translate(700.080828 0)scale(0.996264)"/>
      <use xlink:href="#CMMI12-71" transform="translate(745.292829 0)scale(0.996264)"/>
      <use xlink:href="#CMMI12-3d" transform="translate(792.119153 0)scale(0.996264)"/>
      <use xlink:href="#CMMI12-63" transform="translate(840.894072 0)scale(0.996264)"/>
      <use xlink:href="#CMMI12-61" transform="translate(882.877305 0)scale(0.996264)"/>
      <use xlink:href="#CMMI12-70" transform="translate(934.085163 0)scale(0.996264)"/>
      <use xlink:href="#CMMI12-69" transform="translate(983.044677 0)scale(0.996264)"/>
      <use xlink:href="#CMMI12-74" transform="translate(1016.323279 0)scale(0.996264)"/>
      <use xlink:href="#CMMI12-61" transform="translate(1051.549609 0)scale(0.996264)"/>
      <use xlink:href="#CMSS17-29" transform="translate(1102.757467 0)scale(0.996264)"/>
     </g>
    </g>
   </g>
   <g id="matplotlib.axis_2">
    <g id="ytick_1">
     <g id="line2d_6">
      <defs>
       <path id="m9ece94efb0" d="M 0 0 
L -3 0 
" style="stroke: #000000; stroke-width: 0.8"/>
      </defs>
      <g>
       <use xlink:href="#m9ece94efb0" x="44.630358" y="305.825116" style="stroke: #000000; stroke-width: 0.8"/>
      </g>
     </g>
     <g id="text_7">
      <!-- $\mathdefault{0.0}$ -->
      <g transform="translate(25.400279 309.284366)scale(0.1 -0.1)">
       <use xlink:href="#CMR17-30" transform="scale(0.996264)"/>
       <use xlink:href="#CMMI12-3a" transform="translate(45.690477 0)scale(0.996264)"/>
       <use xlink:href="#CMR17-30" transform="translate(72.787654 0)scale(0.996264)"/>
      </g>
     </g>
    </g>
    <g id="ytick_2">
     <g id="line2d_7">
      <g>
       <use xlink:href="#m9ece94efb0" x="44.630358" y="238.273928" style="stroke: #000000; stroke-width: 0.8"/>
      </g>
     </g>
     <g id="text_8">
      <!-- $\mathdefault{0.5}$ -->
      <g transform="translate(25.400279 241.733177)scale(0.1 -0.1)">
       <use xlink:href="#CMR17-30" transform="scale(0.996264)"/>
       <use xlink:href="#CMMI12-3a" transform="translate(45.690477 0)scale(0.996264)"/>
       <use xlink:href="#CMR17-35" transform="translate(72.787654 0)scale(0.996264)"/>
      </g>
     </g>
    </g>
    <g id="ytick_3">
     <g id="line2d_8">
      <g>
       <use xlink:href="#m9ece94efb0" x="44.630358" y="170.722739" style="stroke: #000000; stroke-width: 0.8"/>
      </g>
     </g>
     <g id="text_9">
      <!-- $\mathdefault{1.0}$ -->
      <g transform="translate(25.400279 174.181988)scale(0.1 -0.1)">
       <use xlink:href="#CMR17-31" transform="scale(0.996264)"/>
       <use xlink:href="#CMMI12-3a" transform="translate(45.690477 0)scale(0.996264)"/>
       <use xlink:href="#CMR17-30" transform="translate(72.787654 0)scale(0.996264)"/>
      </g>
     </g>
    </g>
    <g id="ytick_4">
     <g id="line2d_9">
      <g>
       <use xlink:href="#m9ece94efb0" x="44.630358" y="103.17155" style="stroke: #000000; stroke-width: 0.8"/>
      </g>
     </g>
     <g id="text_10">
      <!-- $\mathdefault{1.5}$ -->
      <g transform="translate(25.400279 106.630799)scale(0.1 -0.1)">
       <use xlink:href="#CMR17-31" transform="scale(0.996264)"/>
       <use xlink:href="#CMMI12-3a" transform="translate(45.690477 0)scale(0.996264)"/>
       <use xlink:href="#CMR17-35" transform="translate(72.787654 0)scale(0.996264)"/>
      </g>
     </g>
    </g>
    <g id="ytick_5">
     <g id="line2d_10">
      <g>
       <use xlink:href="#m9ece94efb0" x="44.630358" y="35.620361" style="stroke: #000000; stroke-width: 0.8"/>
      </g>
     </g>
     <g id="text_11">
      <!-- $\mathdefault{2.0}$ -->
      <g transform="translate(25.400279 39.07961)scale(0.1 -0.1)">
       <use xlink:href="#CMR17-32" transform="scale(0.996264)"/>
       <use xlink:href="#CMMI12-3a" transform="translate(45.690477 0)scale(0.996264)"/>
       <use xlink:href="#CMR17-30" transform="translate(72.787654 0)scale(0.996264)"/>
      </g>
     </g>
    </g>
    <g id="text_12">
     <!-- Health Care Without Harm ($tCO^2eq/capita$) -->
     <g transform="translate(18.909619 258.707722)rotate(-90)scale(0.1 -0.1)">
      <defs>
       <path id="CMSS17-48" d="M 3674 4416 
L 3136 4416 
L 3136 2501 
L 1101 2501 
L 1101 4416 
L 563 4416 
L 563 0 
L 1101 0 
L 1101 2112 
L 3136 2112 
L 3136 0 
L 3674 0 
L 3674 4416 
z
" transform="scale(0.015625)"/>
       <path id="CMSS17-65" d="M 2502 1377 
C 2502 1590 2490 2003 2285 2345 
C 2061 2713 1696 2816 1421 2816 
C 755 2816 192 2188 192 1375 
C 192 582 774 -64 1510 -64 
C 1798 -64 2150 19 2470 248 
C 2470 274 2458 414 2451 420 
C 2451 433 2432 630 2432 656 
C 2125 407 1773 325 1517 325 
C 1107 325 666 667 646 1377 
L 2502 1377 
z
M 698 1728 
C 781 2084 1062 2421 1421 2421 
C 1517 2421 1965 2421 2080 1728 
L 698 1728 
z
" transform="scale(0.015625)"/>
       <path id="CMSS17-61" d="M 2406 1791 
C 2406 2392 1978 2808 1402 2808 
C 1120 2808 813 2757 461 2553 
L 499 2135 
C 659 2248 934 2432 1395 2432 
C 1722 2432 1920 2180 1920 1782 
L 1920 1536 
C 896 1536 256 1238 256 726 
C 256 461 416 -64 947 -64 
C 1043 -64 1562 -64 1933 217 
L 1933 -19 
L 2406 -19 
L 2406 1791 
z
M 1920 816 
C 1920 701 1920 548 1728 434 
C 1562 325 1350 325 1261 325 
C 941 325 723 511 723 744 
C 723 1211 1722 1211 1920 1211 
L 1920 816 
z
" transform="scale(0.015625)"/>
       <path id="CMSS17-6c" d="M 947 4416 
L 474 4416 
L 474 0 
L 947 0 
L 947 4416 
z
" transform="scale(0.015625)"/>
       <path id="CMSS17-43" d="M 3501 714 
C 3072 427 2874 344 2355 344 
C 1459 344 934 1303 934 2179 
C 934 3112 1472 4032 2381 4032 
C 2790 4032 3059 3918 3386 3715 
L 3475 4217 
C 3168 4370 2778 4440 2387 4440 
C 1158 4440 397 3316 397 2179 
C 397 927 1299 -64 2323 -64 
C 2874 -64 3066 -19 3539 280 
L 3501 714 
z
" transform="scale(0.015625)"/>
       <path id="CMSS17-72" d="M 954 1363 
C 954 1965 1395 2368 1958 2368 
L 1958 2789 
C 1549 2789 1165 2585 934 2253 
L 934 2758 
L 480 2758 
L 480 0 
L 954 0 
L 954 1363 
z
" transform="scale(0.015625)"/>
       <path id="CMSS17-57" d="M 5581 4416 
L 5094 4416 
L 4557 2437 
C 4474 2118 4397 1801 4320 1482 
C 4205 1011 4122 681 4109 515 
L 4102 515 
C 4090 687 4006 1049 3904 1457 
C 3827 1795 3744 2131 3654 2462 
L 3123 4416 
L 2586 4416 
L 2080 2562 
L 1824 1549 
C 1632 747 1626 632 1613 505 
L 1606 505 
C 1606 543 1581 753 1402 1498 
C 1312 1868 1222 2244 1126 2601 
L 634 4416 
L 83 4416 
L 1299 0 
L 1830 0 
L 2336 1839 
L 2592 2851 
C 2765 3564 2803 3742 2816 3901 
L 2822 3901 
C 2822 3876 2880 3474 3130 2545 
L 3808 0 
L 4365 0 
L 5581 4416 
z
" transform="scale(0.015625)"/>
       <path id="CMSS17-6f" d="M 2829 1356 
C 2829 2176 2221 2816 1504 2816 
C 768 2816 173 2157 173 1356 
C 173 544 787 -64 1498 -64 
C 2227 -64 2829 563 2829 1356 
z
M 1504 337 
C 1050 337 659 709 659 1408 
C 659 2151 1114 2427 1498 2427 
C 1914 2427 2342 2126 2342 1408 
C 2342 683 1926 337 1504 337 
z
" transform="scale(0.015625)"/>
       <path id="CMSS17-6d" d="M 4288 1877 
C 4288 2308 4179 2816 3462 2816 
C 2982 2816 2694 2516 2566 2331 
C 2451 2670 2182 2816 1798 2816 
C 1363 2816 1088 2568 941 2389 
L 941 2758 
L 474 2758 
L 474 0 
L 960 0 
L 960 1559 
C 960 1939 1101 2428 1555 2428 
C 2138 2428 2138 2016 2138 1829 
L 2138 0 
L 2624 0 
L 2624 1559 
C 2624 1939 2765 2428 3219 2428 
C 3802 2428 3802 2016 3802 1829 
L 3802 0 
L 4288 0 
L 4288 1877 
z
" transform="scale(0.015625)"/>
      </defs>
      <use xlink:href="#CMSS17-48" transform="scale(0.996264)"/>
      <use xlink:href="#CMSS17-65" transform="translate(66.061519 0)scale(0.996264)"/>
      <use xlink:href="#CMSS17-61" transform="translate(107.700341 0)scale(0.996264)"/>
      <use xlink:href="#CMSS17-6c" transform="translate(152.622262 0)scale(0.996264)"/>
      <use xlink:href="#CMSS17-74" transform="translate(174.802985 0)scale(0.996264)"/>
      <use xlink:href="#CMSS17-68" transform="translate(208.634552 0)scale(0.996264)"/>
      <use xlink:href="#CMSS17-43" transform="translate(288.068607 0)scale(0.996264)"/>
      <use xlink:href="#CMSS17-61" transform="translate(347.924379 0)scale(0.996264)"/>
      <use xlink:href="#CMSS17-72" transform="translate(390.243846 0)scale(0.996264)"/>
      <use xlink:href="#CMSS17-65" transform="translate(422.153618 0)scale(0.996264)"/>
      <use xlink:href="#CMSS17-57" transform="translate(495.021553 0)scale(0.996264)"/>
      <use xlink:href="#CMSS17-69" transform="translate(583.263719 0)scale(0.996264)"/>
      <use xlink:href="#CMSS17-74" transform="translate(605.444442 0)scale(0.996264)"/>
      <use xlink:href="#CMSS17-68" transform="translate(639.276009 0)scale(0.996264)"/>
      <use xlink:href="#CMSS17-6f" transform="translate(687.480952 0)scale(0.996264)"/>
      <use xlink:href="#CMSS17-75" transform="translate(734.324576 0)scale(0.996264)"/>
      <use xlink:href="#CMSS17-74" transform="translate(782.529519 0)scale(0.996264)"/>
      <use xlink:href="#CMSS17-48" transform="translate(847.590198 0)scale(0.996264)"/>
      <use xlink:href="#CMSS17-61" transform="translate(913.651717 0)scale(0.996264)"/>
      <use xlink:href="#CMSS17-72" transform="translate(955.971184 0)scale(0.996264)"/>
      <use xlink:href="#CMSS17-6d" transform="translate(987.880957 0)scale(0.996264)"/>
      <use xlink:href="#CMSS17-28" transform="translate(1093.339324 0)scale(0.996264)"/>
      <use xlink:href="#CMMI12-74" transform="translate(1129.773238 0)scale(0.996264)"/>
      <use xlink:href="#CMMI12-43" transform="translate(1164.999568 0)scale(0.996264)"/>
      <use xlink:href="#CMMI12-4f" transform="translate(1241.946415 0)scale(0.996264)"/>
      <use xlink:href="#CMR17-32" transform="translate(1319.206814 36.153639)scale(0.697382)"/>
      <use xlink:href="#CMMI12-65" transform="translate(1351.688128 0)scale(0.996264)"/>
      <use xlink:href="#CMMI12-71" transform="translate(1396.900129 0)scale(0.996264)"/>
      <use xlink:href="#CMMI12-3d" transform="translate(1443.726452 0)scale(0.996264)"/>
      <use xlink:href="#CMMI12-63" transform="translate(1492.501371 0)scale(0.996264)"/>
      <use xlink:href="#CMMI12-61" transform="translate(1534.484605 0)scale(0.996264)"/>
      <use xlink:href="#CMMI12-70" transform="translate(1585.692462 0)scale(0.996264)"/>
      <use xlink:href="#CMMI12-69" transform="translate(1634.651976 0)scale(0.996264)"/>
      <use xlink:href="#CMMI12-74" transform="translate(1667.930578 0)scale(0.996264)"/>
      <use xlink:href="#CMMI12-61" transform="translate(1703.156909 0)scale(0.996264)"/>
      <use xlink:href="#CMSS17-29" transform="translate(1754.364766 0)scale(0.996264)"/>
     </g>
    </g>
   </g>
   <g id="PathCollection_1">
    <defs>
     <path id="m12714b92e4" d="M 0 3 
C 0.795609 3 1.55874 2.683901 2.12132 2.12132 
C 2.683901 1.55874 3 0.795609 3 0 
C 3 -0.795609 2.683901 -1.55874 2.12132 -2.12132 
C 1.55874 -2.683901 0.795609 -3 0 -3 
C -0.795609 -3 -1.55874 -2.683901 -2.12132 -2.12132 
C -2.683901 -1.55874 -3 -0.795609 -3 0 
C -3 0.795609 -2.683901 1.55874 -2.12132 2.12132 
C -1.55874 2.683901 -0.795609 3 0 3 
z
" style="stroke: #1f77b4"/>
    </defs>
    <g clip-path="url(#p0081be891a)">
     <use xlink:href="#m12714b92e4" x="325.835686" y="74.118145" style="fill: #1f77b4; stroke: #1f77b4"/>
     <use xlink:href="#m12714b92e4" x="109.826647" y="272.204647" style="fill: #1f77b4; stroke: #1f77b4"/>
     <use xlink:href="#m12714b92e4" x="159.167396" y="196.673203" style="fill: #1f77b4; stroke: #1f77b4"/>
     <use xlink:href="#m12714b92e4" x="80.170036" y="234.419182" style="fill: #1f77b4; stroke: #1f77b4"/>
     <use xlink:href="#m12714b92e4" x="148.418499" y="210.432821" style="fill: #1f77b4; stroke: #1f77b4"/>
     <use xlink:href="#m12714b92e4" x="77.029387" y="276.614331" style="fill: #1f77b4; stroke: #1f77b4"/>
     <use xlink:href="#m12714b92e4" x="147.097309" y="218.060159" style="fill: #1f77b4; stroke: #1f77b4"/>
     <use xlink:href="#m12714b92e4" x="58.474432" y="301.779138" style="fill: #1f77b4; stroke: #1f77b4"/>
     <use xlink:href="#m12714b92e4" x="164.169951" y="206.356176" style="fill: #1f77b4; stroke: #1f77b4"/>
     <use xlink:href="#m12714b92e4" x="175.762919" y="169.602723" style="fill: #1f77b4; stroke: #1f77b4"/>
     <use xlink:href="#m12714b92e4" x="188.320515" y="133.085451" style="fill: #1f77b4; stroke: #1f77b4"/>
     <use xlink:href="#m12714b92e4" x="113.019445" y="244.833523" style="fill: #1f77b4; stroke: #1f77b4"/>
     <use xlink:href="#m12714b92e4" x="86.067473" y="280.534492" style="fill: #1f77b4; stroke: #1f77b4"/>
     <use xlink:href="#m12714b92e4" x="121.6588" y="258.166621" style="fill: #1f77b4; stroke: #1f77b4"/>
     <use xlink:href="#m12714b92e4" x="115.733322" y="257.534995" style="fill: #1f77b4; stroke: #1f77b4"/>
     <use xlink:href="#m12714b92e4" x="87.993302" y="279.881993" style="fill: #1f77b4; stroke: #1f77b4"/>
     <use xlink:href="#m12714b92e4" x="74.004762" y="298.628569" style="fill: #1f77b4; stroke: #1f77b4"/>
     <use xlink:href="#m12714b92e4" x="181.947546" y="199.294889" style="fill: #1f77b4; stroke: #1f77b4"/>
     <use xlink:href="#m12714b92e4" x="90.190653" y="259.645479" style="fill: #1f77b4; stroke: #1f77b4"/>
     <use xlink:href="#m12714b92e4" x="80.611143" y="234.659149" style="fill: #1f77b4; stroke: #1f77b4"/>
     <use xlink:href="#m12714b92e4" x="192.911791" y="193.854087" style="fill: #1f77b4; stroke: #1f77b4"/>
     <use xlink:href="#m12714b92e4" x="189.187492" y="168.84591" style="fill: #1f77b4; stroke: #1f77b4"/>
     <use xlink:href="#m12714b92e4" x="149.603405" y="226.788578" style="fill: #1f77b4; stroke: #1f77b4"/>
     <use xlink:href="#m12714b92e4" x="114.371542" y="243.097908" style="fill: #1f77b4; stroke: #1f77b4"/>
     <use xlink:href="#m12714b92e4" x="206.559481" y="200.876392" style="fill: #1f77b4; stroke: #1f77b4"/>
     <use xlink:href="#m12714b92e4" x="121.731996" y="253.432745" style="fill: #1f77b4; stroke: #1f77b4"/>
     <use xlink:href="#m12714b92e4" x="152.443441" y="258.499566" style="fill: #1f77b4; stroke: #1f77b4"/>
     <use xlink:href="#m12714b92e4" x="92.6988" y="259.011035" style="fill: #1f77b4; stroke: #1f77b4"/>
     <use xlink:href="#m12714b92e4" x="139.235804" y="218.996011" style="fill: #1f77b4; stroke: #1f77b4"/>
     <use xlink:href="#m12714b92e4" x="69.736656" y="285.056659" style="fill: #1f77b4; stroke: #1f77b4"/>
     <use xlink:href="#m12714b92e4" x="131.267314" y="224.904549" style="fill: #1f77b4; stroke: #1f77b4"/>
     <use xlink:href="#m12714b92e4" x="150.739288" y="223.190157" style="fill: #1f77b4; stroke: #1f77b4"/>
     <use xlink:href="#m12714b92e4" x="94.348321" y="255.480907" style="fill: #1f77b4; stroke: #1f77b4"/>
     <use xlink:href="#m12714b92e4" x="98.008696" y="270.688821" style="fill: #1f77b4; stroke: #1f77b4"/>
     <use xlink:href="#m12714b92e4" x="113.344688" y="276.210489" style="fill: #1f77b4; stroke: #1f77b4"/>
     <use xlink:href="#m12714b92e4" x="133.571816" y="245.053198" style="fill: #1f77b4; stroke: #1f77b4"/>
     <use xlink:href="#m12714b92e4" x="130.15393" y="217.55464" style="fill: #1f77b4; stroke: #1f77b4"/>
     <use xlink:href="#m12714b92e4" x="76.642615" y="283.092074" style="fill: #1f77b4; stroke: #1f77b4"/>
     <use xlink:href="#m12714b92e4" x="89.815239" y="272.404119" style="fill: #1f77b4; stroke: #1f77b4"/>
     <use xlink:href="#m12714b92e4" x="335.355925" y="191.313406" style="fill: #1f77b4; stroke: #1f77b4"/>
     <use xlink:href="#m12714b92e4" x="114.320036" y="265.961428" style="fill: #1f77b4; stroke: #1f77b4"/>
     <use xlink:href="#m12714b92e4" x="318.200049" y="243.014555" style="fill: #1f77b4; stroke: #1f77b4"/>
    </g>
   </g>
   <g id="line2d_11">
    <path d="M 325.835686 34.308104 
L 109.826647 251.64652 
L 159.167396 202.002115 
L 80.170036 281.485646 
L 148.418499 212.817164 
L 77.029387 284.645623 
L 147.097309 214.146485 
L 58.474432 303.31477 
L 164.169951 196.968773 
L 175.762919 185.304458 
L 188.320515 172.66958 
L 113.019445 248.434073 
L 86.067473 275.551915 
L 121.6588 239.741549 
L 115.733322 245.703494 
L 87.993302 273.614234 
L 74.004762 287.688863 
L 181.947546 179.08177 
L 90.190653 271.40336 
L 80.611143 281.041824 
L 192.911791 168.050048 
L 189.187492 171.797267 
L 149.603405 211.624966 
L 114.371542 247.073654 
L 206.559481 154.318367 
L 121.731996 239.667902 
L 152.443441 208.767451 
L 92.6988 268.879777 
L 139.235804 222.056371 
L 69.736656 291.983235 
L 131.267314 230.073901 
L 150.739288 210.482092 
L 94.348321 267.220104 
L 98.008696 263.537202 
L 113.344688 248.106829 
L 133.571816 227.755217 
L 130.15393 231.194137 
L 76.642615 285.034776 
L 89.815239 271.781084 
L 335.355925 24.729275 
L 114.320036 247.125478 
L 318.200049 41.990733 
" clip-path="url(#p0081be891a)" style="fill: none; stroke: #1f77b4; stroke-width: 1.5; stroke-linecap: square"/>
   </g>
   <g id="patch_3">
    <path d="M 44.630358 317.244044 
L 44.630358 10.8 
" style="fill: none; stroke: #000000; stroke-width: 0.8; stroke-linejoin: miter; stroke-linecap: square"/>
   </g>
   <g id="patch_4">
    <path d="M 349.2 317.244044 
L 349.2 10.8 
" style="fill: none; stroke: #000000; stroke-width: 0.8; stroke-linejoin: miter; stroke-linecap: square"/>
   </g>
   <g id="patch_5">
    <path d="M 44.630358 317.244044 
L 349.2 317.244044 
" style="fill: none; stroke: #000000; stroke-width: 0.8; stroke-linejoin: miter; stroke-linecap: square"/>
   </g>
   <g id="patch_6">
    <path d="M 44.630358 10.8 
L 349.2 10.8 
" style="fill: none; stroke: #000000; stroke-width: 0.8; stroke-linejoin: miter; stroke-linecap: square"/>
   </g>
   <g id="text_13">
    <!-- US -->
    <g transform="translate(325.835686 74.118145)scale(0.1 -0.1)">
     <defs>
      <path id="CMSS17-55" d="M 3552 4384 
L 3066 4384 
L 3066 1449 
C 3066 604 2547 229 2074 229 
C 1587 229 1101 623 1101 1443 
L 1101 4384 
L 563 4384 
L 563 1454 
C 563 539 1274 -128 2067 -128 
C 2861 -128 3552 539 3552 1454 
L 3552 4384 
z
" transform="scale(0.015625)"/>
      <path id="CMSS17-53" d="M 2797 4169 
C 2515 4334 2208 4480 1690 4480 
C 864 4480 333 3879 333 3266 
C 333 3025 403 2753 653 2475 
C 902 2196 1184 2121 1542 2033 
C 1690 1994 1939 1924 1984 1906 
C 2342 1767 2515 1444 2515 1140 
C 2515 742 2202 318 1645 318 
C 1453 318 890 318 358 819 
L 269 318 
C 794 -64 1363 -128 1651 -128 
C 2438 -128 3002 488 3002 1186 
C 3002 1440 2925 1763 2656 2061 
C 2394 2347 2163 2410 1638 2549 
C 1338 2626 1146 2677 986 2873 
C 877 3013 819 3146 819 3317 
C 819 3673 1126 4060 1690 4060 
C 1971 4060 2336 4002 2707 3660 
L 2797 4169 
z
" transform="scale(0.015625)"/>
     </defs>
     <use xlink:href="#CMSS17-55" transform="scale(0.996264)"/>
     <use xlink:href="#CMSS17-53" transform="translate(64.13974 0)scale(0.996264)"/>
    </g>
   </g>
   <g id="text_14">
    <!-- CN -->
    <g transform="translate(109.826647 272.204647)scale(0.1 -0.1)">
     <defs>
      <path id="CMSS17-4e" d="M 1466 4180 
L 1350 4416 
L 563 4416 
L 563 0 
L 1062 0 
L 1062 3926 
L 1069 3932 
C 1114 3817 1139 3760 1402 3194 
L 2771 236 
L 2886 0 
L 3674 0 
L 3674 4416 
L 3174 4416 
L 3174 490 
L 3168 483 
C 3123 598 3098 655 2835 1221 
L 1466 4180 
z
" transform="scale(0.015625)"/>
     </defs>
     <use xlink:href="#CMSS17-43" transform="scale(0.996264)"/>
     <use xlink:href="#CMSS17-4e" transform="translate(59.855772 0)scale(0.996264)"/>
    </g>
   </g>
   <g id="text_15">
    <!-- JP -->
    <g transform="translate(159.167396 196.673203)scale(0.1 -0.1)">
     <defs>
      <path id="CMSS17-4a" d="M 2336 4384 
L 1811 4384 
L 1811 940 
C 1811 636 1683 261 1107 261 
C 781 261 506 414 333 604 
L 250 140 
C 646 -71 1011 -128 1280 -128 
C 1901 -128 2336 228 2336 920 
L 2336 4384 
z
" transform="scale(0.015625)"/>
      <path id="CMSS17-50" d="M 2106 1856 
C 2874 1856 3501 2453 3501 3158 
C 3501 3850 2899 4453 2067 4453 
L 570 4453 
L 570 0 
L 1107 0 
L 1107 1856 
L 2106 1856 
z
M 1926 4096 
C 2669 4096 2995 3627 2995 3157 
C 2995 2720 2694 2226 1926 2226 
L 1094 2226 
L 1094 4096 
L 1926 4096 
z
" transform="scale(0.015625)"/>
     </defs>
     <use xlink:href="#CMSS17-4a" transform="scale(0.996264)"/>
     <use xlink:href="#CMSS17-50" transform="translate(44.121076 0)scale(0.996264)"/>
    </g>
   </g>
   <g id="text_16">
    <!-- RU -->
    <g transform="translate(80.170036 234.419182)scale(0.1 -0.1)">
     <defs>
      <path id="CMSS17-52" d="M 2522 2109 
L 2534 2115 
C 3533 2459 3539 3147 3539 3268 
C 3539 3873 2925 4453 2003 4453 
L 570 4453 
L 570 32 
L 1094 32 
L 1094 2048 
L 2035 2048 
L 3168 32 
L 3706 32 
L 2522 2109 
z
M 1094 2437 
L 1094 4096 
L 1933 4096 
C 2746 4096 3034 3637 3034 3267 
C 3034 2922 2778 2437 1933 2437 
L 1094 2437 
z
" transform="scale(0.015625)"/>
     </defs>
     <use xlink:href="#CMSS17-52" transform="scale(0.996264)"/>
     <use xlink:href="#CMSS17-55" transform="translate(60.416155 0)scale(0.996264)"/>
    </g>
   </g>
   <g id="text_17">
    <!-- DE -->
    <g transform="translate(148.418499 210.432821)scale(0.1 -0.1)">
     <defs>
      <path id="CMSS17-44" d="M 570 4416 
L 570 0 
L 2144 0 
C 3194 0 4000 980 4000 2170 
C 4000 3398 3194 4416 2144 4416 
L 570 4416 
z
M 1094 357 
L 1094 4059 
L 2003 4059 
C 2861 4059 3475 3277 3475 2170 
C 3475 1107 2867 357 2003 357 
L 1094 357 
z
" transform="scale(0.015625)"/>
      <path id="CMSS17-45" d="M 1958 433 
C 1446 433 1216 433 1101 433 
L 1101 2107 
L 3085 2107 
L 3085 2496 
L 1101 2496 
L 1101 4009 
L 1926 4009 
C 2003 4009 2080 4009 2157 4009 
L 3251 4009 
L 3251 4416 
L 563 4416 
L 563 0 
L 3334 0 
L 3334 433 
L 1958 433 
z
" transform="scale(0.015625)"/>
     </defs>
     <use xlink:href="#CMSS17-44" transform="scale(0.996264)"/>
     <use xlink:href="#CMSS17-45" transform="translate(67.542842 0)scale(0.996264)"/>
    </g>
   </g>
   <g id="text_18">
    <!-- BR -->
    <g transform="translate(77.029387 276.614331)scale(0.1 -0.1)">
     <defs>
      <path id="CMSS17-42" d="M 570 4416 
L 570 0 
L 2163 0 
C 3034 0 3667 574 3667 1200 
C 3667 1685 3251 2176 2502 2317 
C 3334 2558 3501 3040 3501 3313 
C 3501 3883 2874 4416 1997 4416 
L 570 4416 
z
M 1088 2496 
L 1088 4059 
L 1824 4059 
C 2483 4059 3002 3724 3002 3306 
C 3002 2926 2592 2496 1766 2496 
L 1088 2496 
z
M 1088 357 
L 1088 2107 
L 1939 2107 
C 2630 2107 3162 1679 3162 1206 
C 3162 772 2694 357 1984 357 
L 1088 357 
z
" transform="scale(0.015625)"/>
     </defs>
     <use xlink:href="#CMSS17-42" transform="scale(0.996264)"/>
     <use xlink:href="#CMSS17-52" transform="translate(62.33804 0)scale(0.996264)"/>
    </g>
   </g>
   <g id="text_19">
    <!-- GB -->
    <g transform="translate(147.097309 218.060159)scale(0.1 -0.1)">
     <defs>
      <path id="CMSS17-47" d="M 3610 1856 
L 2336 1856 
L 2336 1461 
L 3123 1461 
L 3123 471 
C 2874 401 2618 350 2362 350 
C 1466 350 934 1301 934 2200 
C 934 3095 1491 4032 2362 4032 
C 2854 4032 3130 3881 3469 3627 
L 3552 4134 
C 3130 4351 2867 4440 2387 4440 
C 1146 4440 397 3324 397 2182 
C 397 1090 1152 -64 2349 -64 
C 2797 -64 3213 51 3610 248 
L 3610 1856 
z
" transform="scale(0.015625)"/>
     </defs>
     <use xlink:href="#CMSS17-47" transform="scale(0.996264)"/>
     <use xlink:href="#CMSS17-42" transform="translate(62.458226 0)scale(0.996264)"/>
    </g>
   </g>
   <g id="text_20">
    <!-- IN -->
    <g transform="translate(58.474432 301.779138)scale(0.1 -0.1)">
     <defs>
      <path id="CMSS17-49" d="M 1094 4416 
L 557 4416 
L 557 0 
L 1094 0 
L 1094 4416 
z
" transform="scale(0.015625)"/>
     </defs>
     <use xlink:href="#CMSS17-49" transform="scale(0.996264)"/>
     <use xlink:href="#CMSS17-4e" transform="translate(25.783926 0)scale(0.996264)"/>
    </g>
   </g>
   <g id="text_21">
    <!-- KR -->
    <g transform="translate(164.169951 206.356176)scale(0.1 -0.1)">
     <defs>
      <path id="CMSS17-4b" d="M 2234 2666 
L 3827 4416 
L 3213 4416 
L 1101 2106 
L 1101 4416 
L 563 4416 
L 563 0 
L 1101 0 
L 1101 1432 
L 1875 2278 
L 3315 0 
L 3910 0 
L 2234 2666 
z
" transform="scale(0.015625)"/>
     </defs>
     <use xlink:href="#CMSS17-4b" transform="scale(0.996264)"/>
     <use xlink:href="#CMSS17-52" transform="translate(64.820294 0)scale(0.996264)"/>
    </g>
   </g>
   <g id="text_22">
    <!-- CA -->
    <g transform="translate(175.762919 169.602723)scale(0.1 -0.1)">
     <defs>
      <path id="CMSS17-41" d="M 2272 4416 
L 1722 4416 
L 166 0 
L 653 0 
L 1101 1280 
L 2816 1280 
L 3270 0 
L 3827 0 
L 2272 4416 
z
M 2694 1637 
L 1222 1637 
C 1530 2528 1914 3638 1958 3925 
L 1965 3925 
C 2010 3663 2138 3281 2246 2956 
L 2694 1637 
z
" transform="scale(0.015625)"/>
     </defs>
     <use xlink:href="#CMSS17-43" transform="scale(0.996264)"/>
     <use xlink:href="#CMSS17-41" transform="translate(59.855772 0)scale(0.996264)"/>
    </g>
   </g>
   <g id="text_23">
    <!-- AU -->
    <g transform="translate(188.320515 133.085451)scale(0.1 -0.1)">
     <use xlink:href="#CMSS17-41" transform="scale(0.996264)"/>
     <use xlink:href="#CMSS17-55" transform="translate(59.615401 0)scale(0.996264)"/>
    </g>
   </g>
   <g id="text_24">
    <!-- FR -->
    <g transform="translate(113.019445 244.833523)scale(0.1 -0.1)">
     <defs>
      <path id="CMSS17-46" d="M 2918 1984 
L 2918 2373 
L 1101 2373 
L 1101 3968 
L 1882 3968 
C 1958 3968 2035 3968 2112 3968 
L 3168 3968 
L 3168 4375 
L 563 4375 
L 563 -32 
L 1101 -32 
L 1101 1984 
L 2918 1984 
z
" transform="scale(0.015625)"/>
     </defs>
     <use xlink:href="#CMSS17-46" transform="scale(0.996264)"/>
     <use xlink:href="#CMSS17-52" transform="translate(53.289559 0)scale(0.996264)"/>
    </g>
   </g>
   <g id="text_25">
    <!-- MX -->
    <g transform="translate(86.067473 280.534492)scale(0.1 -0.1)">
     <defs>
      <path id="CMSS17-4d" d="M 3194 2371 
L 2886 1473 
C 2835 1307 2662 791 2624 587 
L 2618 587 
C 2598 715 2560 849 2458 1174 
C 2400 1365 2336 1562 2272 1741 
L 1325 4416 
L 576 4416 
L 576 0 
L 1075 0 
L 1075 3900 
L 1082 3900 
C 1082 3894 1139 3613 1530 2499 
L 2374 96 
L 2848 96 
L 3610 2231 
C 3661 2378 3821 2843 3891 3066 
C 3955 3257 4115 3728 4154 3913 
L 4160 3913 
L 4160 0 
L 4666 0 
L 4666 4416 
L 3923 4416 
L 3194 2371 
z
" transform="scale(0.015625)"/>
      <path id="CMSS17-58" d="M 2214 2329 
L 3661 4416 
L 3072 4416 
L 1952 2762 
L 800 4416 
L 166 4416 
L 1690 2329 
L 83 0 
L 672 0 
L 1952 1941 
L 3277 0 
L 3910 0 
L 2214 2329 
z
" transform="scale(0.015625)"/>
     </defs>
     <use xlink:href="#CMSS17-4d" transform="scale(0.996264)"/>
     <use xlink:href="#CMSS17-58" transform="translate(81.67603 0)scale(0.996264)"/>
    </g>
   </g>
   <g id="text_26">
    <!-- IT -->
    <g transform="translate(121.6588 258.166621)scale(0.1 -0.1)">
     <use xlink:href="#CMSS17-49" transform="scale(0.996264)"/>
     <use xlink:href="#CMSS17-54" transform="translate(25.783926 0)scale(0.996264)"/>
    </g>
   </g>
   <g id="text_27">
    <!-- ES -->
    <g transform="translate(115.733322 257.534995)scale(0.1 -0.1)">
     <use xlink:href="#CMSS17-45" transform="scale(0.996264)"/>
     <use xlink:href="#CMSS17-53" transform="translate(55.892013 0)scale(0.996264)"/>
    </g>
   </g>
   <g id="text_28">
    <!-- TR -->
    <g transform="translate(87.993302 279.881993)scale(0.1 -0.1)">
     <use xlink:href="#CMSS17-54" transform="scale(0.996264)"/>
     <use xlink:href="#CMSS17-52" transform="translate(63.819454 0)scale(0.996264)"/>
    </g>
   </g>
   <g id="text_29">
    <!-- ID -->
    <g transform="translate(74.004762 298.628569)scale(0.1 -0.1)">
     <use xlink:href="#CMSS17-49" transform="scale(0.996264)"/>
     <use xlink:href="#CMSS17-44" transform="translate(25.783926 0)scale(0.996264)"/>
    </g>
   </g>
   <g id="text_30">
    <!-- NL -->
    <g transform="translate(181.947546 199.294889)scale(0.1 -0.1)">
     <defs>
      <path id="CMSS17-4c" d="M 1670 414 
C 1594 414 1517 414 1440 414 
L 1101 414 
L 1101 4416 
L 563 4416 
L 563 0 
L 3002 0 
L 3002 414 
L 1670 414 
z
" transform="scale(0.015625)"/>
     </defs>
     <use xlink:href="#CMSS17-4e" transform="scale(0.996264)"/>
     <use xlink:href="#CMSS17-4c" transform="translate(66.061519 0)scale(0.996264)"/>
    </g>
   </g>
   <g id="text_31">
    <!-- PL -->
    <g transform="translate(90.190653 259.645479)scale(0.1 -0.1)">
     <use xlink:href="#CMSS17-50" transform="scale(0.996264)"/>
     <use xlink:href="#CMSS17-4c" transform="translate(59.735586 0)scale(0.996264)"/>
    </g>
   </g>
   <g id="text_32">
    <!-- TW -->
    <g transform="translate(80.611143 234.659149)scale(0.1 -0.1)">
     <use xlink:href="#CMSS17-54" transform="scale(0.996264)"/>
     <use xlink:href="#CMSS17-57" transform="translate(63.819454 0)scale(0.996264)"/>
    </g>
   </g>
   <g id="text_33">
    <!-- BE -->
    <g transform="translate(192.911791 193.854087)scale(0.1 -0.1)">
     <use xlink:href="#CMSS17-42" transform="scale(0.996264)"/>
     <use xlink:href="#CMSS17-45" transform="translate(62.33804 0)scale(0.996264)"/>
    </g>
   </g>
   <g id="text_34">
    <!-- CH -->
    <g transform="translate(189.187492 168.84591)scale(0.1 -0.1)">
     <use xlink:href="#CMSS17-43" transform="scale(0.996264)"/>
     <use xlink:href="#CMSS17-48" transform="translate(59.855772 0)scale(0.996264)"/>
    </g>
   </g>
   <g id="text_35">
    <!-- AT -->
    <g transform="translate(149.603405 226.788578)scale(0.1 -0.1)">
     <use xlink:href="#CMSS17-41" transform="scale(0.996264)"/>
     <use xlink:href="#CMSS17-54" transform="translate(54.4106 0)scale(0.996264)"/>
    </g>
   </g>
   <g id="text_36">
    <!-- SE -->
    <g transform="translate(114.371542 243.097908)scale(0.1 -0.1)">
     <use xlink:href="#CMSS17-53" transform="scale(0.996264)"/>
     <use xlink:href="#CMSS17-45" transform="translate(52.048516 0)scale(0.996264)"/>
    </g>
   </g>
   <g id="text_37">
    <!-- DK -->
    <g transform="translate(206.559481 200.876392)scale(0.1 -0.1)">
     <use xlink:href="#CMSS17-44" transform="scale(0.996264)"/>
     <use xlink:href="#CMSS17-4b" transform="translate(67.542842 0)scale(0.996264)"/>
    </g>
   </g>
   <g id="text_38">
    <!-- GR -->
    <g transform="translate(121.731996 253.432745)scale(0.1 -0.1)">
     <use xlink:href="#CMSS17-47" transform="scale(0.996264)"/>
     <use xlink:href="#CMSS17-52" transform="translate(62.458226 0)scale(0.996264)"/>
    </g>
   </g>
   <g id="text_39">
    <!-- CZ -->
    <g transform="translate(152.443441 258.499566)scale(0.1 -0.1)">
     <defs>
      <path id="CMSS17-5a" d="M 3341 4155 
L 3341 4416 
L 416 4416 
L 416 4015 
L 1613 4015 
C 1690 4015 1766 4015 1843 4015 
L 2662 4015 
L 333 274 
L 333 0 
L 3373 0 
L 3373 414 
L 2803 414 
C 2272 414 1734 414 1203 414 
L 1011 414 
L 3341 4155 
z
" transform="scale(0.015625)"/>
     </defs>
     <use xlink:href="#CMSS17-43" transform="scale(0.996264)"/>
     <use xlink:href="#CMSS17-5a" transform="translate(59.855772 0)scale(0.996264)"/>
    </g>
   </g>
   <g id="text_40">
    <!-- PT -->
    <g transform="translate(92.6988 259.011035)scale(0.1 -0.1)">
     <use xlink:href="#CMSS17-50" transform="scale(0.996264)"/>
     <use xlink:href="#CMSS17-54" transform="translate(59.735586 0)scale(0.996264)"/>
    </g>
   </g>
   <g id="text_41">
    <!-- FI -->
    <g transform="translate(139.235804 218.996011)scale(0.1 -0.1)">
     <use xlink:href="#CMSS17-46" transform="scale(0.996264)"/>
     <use xlink:href="#CMSS17-49" transform="translate(53.289559 0)scale(0.996264)"/>
    </g>
   </g>
   <g id="text_42">
    <!-- RO -->
    <g transform="translate(69.736656 285.056659)scale(0.1 -0.1)">
     <defs>
      <path id="CMSS17-4f" d="M 4096 2178 
C 4096 3503 3219 4497 2214 4497 
C 1210 4497 333 3497 333 2178 
C 333 847 1222 -128 2214 -128 
C 3206 -128 4096 847 4096 2178 
z
M 2214 273 
C 1510 273 870 1057 870 2261 
C 870 3433 1549 4096 2214 4096 
C 2880 4096 3558 3433 3558 2261 
C 3558 1051 2912 273 2214 273 
z
" transform="scale(0.015625)"/>
     </defs>
     <use xlink:href="#CMSS17-52" transform="scale(0.996264)"/>
     <use xlink:href="#CMSS17-4f" transform="translate(60.416155 0)scale(0.996264)"/>
    </g>
   </g>
   <g id="text_43">
    <!-- NO -->
    <g transform="translate(131.267314 224.904549)scale(0.1 -0.1)">
     <use xlink:href="#CMSS17-4e" transform="scale(0.996264)"/>
     <use xlink:href="#CMSS17-4f" transform="translate(66.061519 0)scale(0.996264)"/>
    </g>
   </g>
   <g id="text_44">
    <!-- IE -->
    <g transform="translate(150.739288 223.190157)scale(0.1 -0.1)">
     <use xlink:href="#CMSS17-49" transform="scale(0.996264)"/>
     <use xlink:href="#CMSS17-45" transform="translate(25.783926 0)scale(0.996264)"/>
    </g>
   </g>
   <g id="text_45">
    <!-- BG -->
    <g transform="translate(94.348321 255.480907)scale(0.1 -0.1)">
     <use xlink:href="#CMSS17-42" transform="scale(0.996264)"/>
     <use xlink:href="#CMSS17-47" transform="translate(62.33804 0)scale(0.996264)"/>
    </g>
   </g>
   <g id="text_46">
    <!-- HU -->
    <g transform="translate(98.008696 270.688821)scale(0.1 -0.1)">
     <use xlink:href="#CMSS17-48" transform="scale(0.996264)"/>
     <use xlink:href="#CMSS17-55" transform="translate(66.061519 0)scale(0.996264)"/>
    </g>
   </g>
   <g id="text_47">
    <!-- SK -->
    <g transform="translate(113.344688 276.210489)scale(0.1 -0.1)">
     <use xlink:href="#CMSS17-53" transform="scale(0.996264)"/>
     <use xlink:href="#CMSS17-4b" transform="translate(52.048516 0)scale(0.996264)"/>
    </g>
   </g>
   <g id="text_48">
    <!-- SI -->
    <g transform="translate(133.571816 245.053198)scale(0.1 -0.1)">
     <use xlink:href="#CMSS17-53" transform="scale(0.996264)"/>
     <use xlink:href="#CMSS17-49" transform="translate(52.048516 0)scale(0.996264)"/>
    </g>
   </g>
   <g id="text_49">
    <!-- EE -->
    <g transform="translate(130.15393 217.55464)scale(0.1 -0.1)">
     <use xlink:href="#CMSS17-45" transform="scale(0.996264)"/>
     <use xlink:href="#CMSS17-45" transform="translate(55.892013 0)scale(0.996264)"/>
    </g>
   </g>
   <g id="text_50">
    <!-- LT -->
    <g transform="translate(76.642615 283.092074)scale(0.1 -0.1)">
     <use xlink:href="#CMSS17-4c" transform="scale(0.996264)"/>
     <use xlink:href="#CMSS17-54" transform="translate(42.87985 0)scale(0.996264)"/>
    </g>
   </g>
   <g id="text_51">
    <!-- LV -->
    <g transform="translate(89.815239 272.404119)scale(0.1 -0.1)">
     <defs>
      <path id="CMSS17-56" d="M 3910 4416 
L 3411 4416 
L 2304 1362 
C 2272 1273 2074 688 2035 484 
L 2029 484 
C 1978 726 1773 1292 1664 1604 
L 922 3672 
L 646 4416 
L 83 4416 
L 1715 0 
L 2278 0 
L 3910 4416 
z
" transform="scale(0.015625)"/>
     </defs>
     <use xlink:href="#CMSS17-4c" transform="scale(0.996264)"/>
     <use xlink:href="#CMSS17-56" transform="translate(40.277396 0)scale(0.996264)"/>
    </g>
   </g>
   <g id="text_52">
    <!-- LU -->
    <g transform="translate(335.355925 191.313406)scale(0.1 -0.1)">
     <use xlink:href="#CMSS17-4c" transform="scale(0.996264)"/>
     <use xlink:href="#CMSS17-55" transform="translate(50.687105 0)scale(0.996264)"/>
    </g>
   </g>
   <g id="text_53">
    <!-- CY -->
    <g transform="translate(114.320036 265.961428)scale(0.1 -0.1)">
     <defs>
      <path id="CMSS17-59" d="M 3974 4416 
L 3424 4416 
L 2432 2877 
C 2355 2755 2138 2425 2035 2240 
L 1722 2743 
L 646 4416 
L 19 4416 
L 1734 1769 
L 1734 0 
L 2259 0 
L 2259 1763 
L 3974 4416 
z
" transform="scale(0.015625)"/>
     </defs>
     <use xlink:href="#CMSS17-43" transform="scale(0.996264)"/>
     <use xlink:href="#CMSS17-59" transform="translate(59.855772 0)scale(0.996264)"/>
    </g>
   </g>
   <g id="text_54">
    <!-- MT -->
    <g transform="translate(318.200049 243.014555)scale(0.1 -0.1)">
     <use xlink:href="#CMSS17-4d" transform="scale(0.996264)"/>
     <use xlink:href="#CMSS17-54" transform="translate(81.67603 0)scale(0.996264)"/>
    </g>
   </g>
  </g>
 </g>
 <defs>
  <clipPath id="p0081be891a">
   <rect x="44.630358" y="10.8" width="304.569642" height="306.444044"/>
  </clipPath>
 </defs>
</svg>
