<?xml version="1.0" encoding="utf-8" standalone="no"?>
<!DOCTYPE svg PUBLIC "-//W3C//DTD SVG 1.1//EN"
  "http://www.w3.org/Graphics/SVG/1.1/DTD/svg11.dtd">
<svg xmlns:xlink="http://www.w3.org/1999/xlink" width="576pt" height="576pt" viewBox="0 0 576 576" xmlns="http://www.w3.org/2000/svg" version="1.1">
 <metadata>
  <rdf:RDF xmlns:dc="http://purl.org/dc/elements/1.1/" xmlns:cc="http://creativecommons.org/ns#" xmlns:rdf="http://www.w3.org/1999/02/22-rdf-syntax-ns#">
   <cc:Work>
    <dc:type rdf:resource="http://purl.org/dc/dcmitype/StillImage"/>
    <dc:date>2022-04-21T20:49:14.160039</dc:date>
    <dc:format>image/svg+xml</dc:format>
    <dc:creator>
     <cc:Agent>
      <dc:title>Matplotlib v3.5.1, https://matplotlib.org/</dc:title>
     </cc:Agent>
    </dc:creator>
   </cc:Work>
  </rdf:RDF>
 </metadata>
 <defs>
  <style type="text/css">*{stroke-linejoin: round; stroke-linecap: butt}</style>
 </defs>
 <g id="figure_1">
  <g id="patch_1">
   <path d="M 0 576 
L 576 576 
L 576 0 
L 0 0 
z
" style="fill: #ffffff"/>
  </g>
  <g id="axes_1">
   <g id="patch_2">
    <path d="M 46.206646 528.900318 
L 565.2 528.900318 
L 565.2 10.8 
L 46.206646 10.8 
z
" style="fill: #ffffff"/>
   </g>
   <g id="matplotlib.axis_1">
    <g id="xtick_1">
     <g id="line2d_1">
      <defs>
       <path id="mbaec5e7a04" d="M 0 0 
L 0 5 
" style="stroke: #000000; stroke-width: 0.8"/>
      </defs>
      <g>
       <use xlink:href="#mbaec5e7a04" x="83.2776" y="528.900318" style="stroke: #000000; stroke-width: 0.8"/>
      </g>
     </g>
     <g id="text_1">
      <!-- 44 -->
      <g transform="translate(85.76826 547.362988)rotate(-90)scale(0.1 -0.1)">
       <defs>
        <path id="CMSS17-34" d="M 2253 1088 
L 2835 1088 
L 2835 1477 
L 2253 1477 
L 2253 4192 
L 1690 4192 
L 166 1477 
L 166 1088 
L 1747 1088 
L 1747 0 
L 2253 0 
L 2253 1088 
z
M 659 1477 
C 1030 2127 1766 3439 1766 3885 
L 1766 1477 
L 659 1477 
z
" transform="scale(0.015625)"/>
       </defs>
       <use xlink:href="#CMSS17-34" transform="scale(0.996264)"/>
       <use xlink:href="#CMSS17-34" transform="translate(46.843624 0)scale(0.996264)"/>
      </g>
     </g>
    </g>
    <g id="xtick_2">
     <g id="line2d_2">
      <g>
       <use xlink:href="#mbaec5e7a04" x="157.419507" y="528.900318" style="stroke: #000000; stroke-width: 0.8"/>
      </g>
     </g>
     <g id="text_2">
      <!-- 50 -->
      <g transform="translate(159.910167 547.362988)rotate(-90)scale(0.1 -0.1)">
       <defs>
        <path id="CMSS17-35" d="M 934 3752 
L 2502 3752 
L 2502 4160 
L 467 4160 
L 467 1781 
L 896 1781 
C 1011 2046 1248 2240 1555 2240 
C 1843 2240 2163 1989 2163 1266 
C 2163 493 1709 267 1376 267 
C 966 267 589 512 422 851 
L 218 499 
C 512 49 992 -128 1376 -128 
C 2118 -128 2701 497 2701 1253 
C 2701 2030 2182 2629 1562 2629 
C 1338 2629 1120 2553 934 2399 
L 934 3752 
z
" transform="scale(0.015625)"/>
        <path id="CMSS17-30" d="M 2758 2044 
C 2758 2405 2752 3077 2490 3596 
C 2227 4096 1805 4229 1504 4229 
C 1069 4229 698 3975 506 3570 
C 301 3146 243 2709 243 2044 
C 243 1589 262 1031 493 543 
C 755 5 1197 -128 1498 -128 
C 1894 -128 2278 81 2496 518 
C 2720 974 2758 1474 2758 2044 
z
M 1498 261 
C 1011 261 864 811 819 995 
C 742 1310 730 1614 730 2114 
C 730 2506 730 2948 851 3297 
C 998 3701 1254 3840 1498 3840 
C 1971 3840 2125 3372 2176 3208 
C 2272 2873 2272 2481 2272 2114 
C 2272 1526 2272 261 1498 261 
z
" transform="scale(0.015625)"/>
       </defs>
       <use xlink:href="#CMSS17-35" transform="scale(0.996264)"/>
       <use xlink:href="#CMSS17-30" transform="translate(46.843624 0)scale(0.996264)"/>
      </g>
     </g>
    </g>
    <g id="xtick_3">
     <g id="line2d_3">
      <g>
       <use xlink:href="#mbaec5e7a04" x="231.561415" y="528.900318" style="stroke: #000000; stroke-width: 0.8"/>
      </g>
     </g>
     <g id="text_3">
      <!-- 60 -->
      <g transform="translate(234.052075 547.362988)rotate(-90)scale(0.1 -0.1)">
       <defs>
        <path id="CMSS17-36" d="M 2496 4101 
C 2227 4210 2035 4229 1856 4229 
C 1024 4229 250 3368 250 2006 
C 250 265 986 -128 1510 -128 
C 1798 -128 2086 -39 2362 280 
C 2643 617 2752 898 2752 1389 
C 2752 2179 2362 2880 1779 2880 
C 1357 2880 992 2657 768 2376 
C 832 3258 1254 3840 1862 3840 
C 2029 3840 2246 3816 2496 3710 
L 2496 4101 
z
M 774 1369 
C 774 1420 774 1452 781 1548 
C 781 2045 1069 2491 1536 2491 
C 1837 2491 1990 2332 2106 2135 
C 2240 1886 2246 1650 2246 1388 
C 2246 1140 2246 891 2099 637 
C 1978 439 1818 267 1510 267 
C 902 267 800 1114 774 1369 
z
" transform="scale(0.015625)"/>
       </defs>
       <use xlink:href="#CMSS17-36" transform="scale(0.996264)"/>
       <use xlink:href="#CMSS17-30" transform="translate(46.843624 0)scale(0.996264)"/>
      </g>
     </g>
    </g>
    <g id="xtick_4">
     <g id="line2d_4">
      <g>
       <use xlink:href="#mbaec5e7a04" x="305.703323" y="528.900318" style="stroke: #000000; stroke-width: 0.8"/>
      </g>
     </g>
     <g id="text_4">
      <!-- 70 -->
      <g transform="translate(308.193983 547.362988)rotate(-90)scale(0.1 -0.1)">
       <defs>
        <path id="CMSS17-37" d="M 1389 3776 
C 1466 3776 1542 3776 1619 3776 
L 2355 3776 
C 1440 2711 915 1365 915 -32 
L 1427 -32 
C 1427 1323 1875 2696 2752 3795 
L 2752 4209 
L 250 4209 
L 250 3776 
L 1389 3776 
z
" transform="scale(0.015625)"/>
       </defs>
       <use xlink:href="#CMSS17-37" transform="scale(0.996264)"/>
       <use xlink:href="#CMSS17-30" transform="translate(46.843624 0)scale(0.996264)"/>
      </g>
     </g>
    </g>
    <g id="xtick_5">
     <g id="line2d_5">
      <g>
       <use xlink:href="#mbaec5e7a04" x="379.845231" y="528.900318" style="stroke: #000000; stroke-width: 0.8"/>
      </g>
     </g>
     <g id="text_5">
      <!-- 80 -->
      <g transform="translate(382.335891 547.362988)rotate(-90)scale(0.1 -0.1)">
       <defs>
        <path id="CMSS17-38" d="M 1933 2222 
C 2419 2380 2669 2760 2669 3134 
C 2669 3722 2157 4229 1504 4229 
C 826 4229 333 3708 333 3144 
C 333 2780 576 2403 1069 2241 
C 442 1997 250 1512 250 1149 
C 250 446 819 -128 1498 -128 
C 2202 -128 2752 455 2752 1138 
C 2752 1557 2502 2000 1933 2222 
z
M 1504 2432 
C 1075 2432 787 2712 787 3136 
C 787 3566 1075 3840 1504 3840 
C 1901 3840 2214 3591 2214 3136 
C 2214 2687 1907 2432 1504 2432 
z
M 1504 267 
C 1139 267 749 517 749 1156 
C 749 1813 1184 2043 1498 2043 
C 1843 2043 2253 1800 2253 1156 
C 2253 491 1830 267 1504 267 
z
" transform="scale(0.015625)"/>
       </defs>
       <use xlink:href="#CMSS17-38" transform="scale(0.996264)"/>
       <use xlink:href="#CMSS17-30" transform="translate(46.843624 0)scale(0.996264)"/>
      </g>
     </g>
    </g>
    <g id="xtick_6">
     <g id="line2d_6">
      <g>
       <use xlink:href="#mbaec5e7a04" x="453.987138" y="528.900318" style="stroke: #000000; stroke-width: 0.8"/>
      </g>
     </g>
     <g id="text_6">
      <!-- 90 -->
      <g transform="translate(456.477798 547.362988)rotate(-90)scale(0.1 -0.1)">
       <defs>
        <path id="CMSS17-39" d="M 435 174 
C 614 21 845 -128 1235 -128 
C 2010 -128 2752 721 2752 2095 
C 2752 3932 1952 4229 1523 4229 
C 1094 4229 819 4041 582 3741 
C 301 3397 250 3090 250 2733 
C 250 2307 326 2045 506 1745 
C 749 1357 973 1275 1222 1275 
C 1600 1275 1978 1459 2234 1776 
C 2189 902 1798 267 1235 267 
C 1005 267 819 339 634 516 
L 435 174 
z
M 2214 2746 
C 2221 2703 2221 2622 2221 2596 
C 2221 2074 1914 1664 1466 1664 
C 1171 1664 1018 1813 902 2006 
C 762 2249 755 2485 755 2733 
C 755 2976 755 3244 934 3511 
C 1069 3703 1235 3840 1523 3840 
C 2112 3840 2208 3000 2214 2746 
z
" transform="scale(0.015625)"/>
       </defs>
       <use xlink:href="#CMSS17-39" transform="scale(0.996264)"/>
       <use xlink:href="#CMSS17-30" transform="translate(46.843624 0)scale(0.996264)"/>
      </g>
     </g>
    </g>
    <g id="xtick_7">
     <g id="line2d_7">
      <g>
       <use xlink:href="#mbaec5e7a04" x="528.129046" y="528.900318" style="stroke: #000000; stroke-width: 0.8"/>
      </g>
     </g>
     <g id="text_7">
      <!-- 100 -->
      <g transform="translate(530.619706 552.344323)rotate(-90)scale(0.1 -0.1)">
       <defs>
        <path id="CMSS17-31" d="M 1818 4288 
L 1696 4288 
C 1350 3940 947 3890 538 3890 
L 538 3520 
C 723 3520 1024 3520 1325 3667 
L 1325 369 
L 570 369 
L 570 0 
L 2573 0 
L 2573 369 
L 1818 369 
L 1818 4288 
z
" transform="scale(0.015625)"/>
       </defs>
       <use xlink:href="#CMSS17-31" transform="scale(0.996264)"/>
       <use xlink:href="#CMSS17-30" transform="translate(46.843624 0)scale(0.996264)"/>
       <use xlink:href="#CMSS17-30" transform="translate(93.687247 0)scale(0.996264)"/>
      </g>
     </g>
    </g>
    <g id="text_8">
     <!-- World minimum Healthcare Access and Quality Index -->
     <g transform="translate(194.536732 563.262822)scale(0.1 -0.1)">
      <defs>
       <path id="CMSS17-57" d="M 5581 4416 
L 5094 4416 
L 4557 2437 
C 4474 2118 4397 1801 4320 1482 
C 4205 1011 4122 681 4109 515 
L 4102 515 
C 4090 687 4006 1049 3904 1457 
C 3827 1795 3744 2131 3654 2462 
L 3123 4416 
L 2586 4416 
L 2080 2562 
L 1824 1549 
C 1632 747 1626 632 1613 505 
L 1606 505 
C 1606 543 1581 753 1402 1498 
C 1312 1868 1222 2244 1126 2601 
L 634 4416 
L 83 4416 
L 1299 0 
L 1830 0 
L 2336 1839 
L 2592 2851 
C 2765 3564 2803 3742 2816 3901 
L 2822 3901 
C 2822 3876 2880 3474 3130 2545 
L 3808 0 
L 4365 0 
L 5581 4416 
z
" transform="scale(0.015625)"/>
       <path id="CMSS17-6f" d="M 2829 1356 
C 2829 2176 2221 2816 1504 2816 
C 768 2816 173 2157 173 1356 
C 173 544 787 -64 1498 -64 
C 2227 -64 2829 563 2829 1356 
z
M 1504 337 
C 1050 337 659 709 659 1408 
C 659 2151 1114 2427 1498 2427 
C 1914 2427 2342 2126 2342 1408 
C 2342 683 1926 337 1504 337 
z
" transform="scale(0.015625)"/>
       <path id="CMSS17-72" d="M 954 1363 
C 954 1965 1395 2368 1958 2368 
L 1958 2789 
C 1549 2789 1165 2585 934 2253 
L 934 2758 
L 480 2758 
L 480 0 
L 954 0 
L 954 1363 
z
" transform="scale(0.015625)"/>
       <path id="CMSS17-6c" d="M 947 4416 
L 474 4416 
L 474 0 
L 947 0 
L 947 4416 
z
" transform="scale(0.015625)"/>
       <path id="CMSS17-64" d="M 2611 4416 
L 2138 4416 
L 2138 2438 
C 1939 2603 1613 2756 1254 2756 
C 672 2756 211 2131 211 1347 
C 211 562 666 -64 1235 -64 
C 1677 -64 1971 172 2125 306 
L 2125 -13 
L 2611 -13 
L 2611 4416 
z
M 2125 836 
C 2125 747 2125 653 1926 482 
C 1798 375 1645 325 1498 325 
C 1152 325 698 576 698 1340 
C 698 2134 1210 2368 1562 2368 
C 1798 2368 1990 2254 2125 2065 
L 2125 836 
z
" transform="scale(0.015625)"/>
       <path id="CMSS17-6d" d="M 4288 1877 
C 4288 2308 4179 2816 3462 2816 
C 2982 2816 2694 2516 2566 2331 
C 2451 2670 2182 2816 1798 2816 
C 1363 2816 1088 2568 941 2389 
L 941 2758 
L 474 2758 
L 474 0 
L 960 0 
L 960 1559 
C 960 1939 1101 2428 1555 2428 
C 2138 2428 2138 2016 2138 1829 
L 2138 0 
L 2624 0 
L 2624 1559 
C 2624 1939 2765 2428 3219 2428 
C 3802 2428 3802 2016 3802 1829 
L 3802 0 
L 4288 0 
L 4288 1877 
z
" transform="scale(0.015625)"/>
       <path id="CMSS17-69" d="M 979 4183 
L 442 4183 
L 442 3648 
L 979 3648 
L 979 4183 
z
M 947 2739 
L 474 2739 
L 474 0 
L 947 0 
L 947 2739 
z
" transform="scale(0.015625)"/>
       <path id="CMSS17-6e" d="M 2618 1877 
C 2618 2283 2522 2816 1798 2816 
C 1389 2816 1120 2606 941 2389 
L 941 2758 
L 474 2758 
L 474 0 
L 960 0 
L 960 1559 
C 960 1964 1114 2428 1549 2428 
C 2112 2428 2131 2048 2131 1829 
L 2131 0 
L 2618 0 
L 2618 1877 
z
" transform="scale(0.015625)"/>
       <path id="CMSS17-75" d="M 2618 2739 
L 2131 2739 
L 2131 972 
C 2131 498 1786 306 1421 306 
C 998 306 960 447 960 709 
L 960 2739 
L 474 2739 
L 474 678 
C 474 179 646 -64 1088 -64 
C 1306 -64 1798 -13 2144 306 
L 2144 0 
L 2618 0 
L 2618 2739 
z
" transform="scale(0.015625)"/>
       <path id="CMSS17-48" d="M 3674 4416 
L 3136 4416 
L 3136 2501 
L 1101 2501 
L 1101 4416 
L 563 4416 
L 563 0 
L 1101 0 
L 1101 2112 
L 3136 2112 
L 3136 0 
L 3674 0 
L 3674 4416 
z
" transform="scale(0.015625)"/>
       <path id="CMSS17-65" d="M 2502 1377 
C 2502 1590 2490 2003 2285 2345 
C 2061 2713 1696 2816 1421 2816 
C 755 2816 192 2188 192 1375 
C 192 582 774 -64 1510 -64 
C 1798 -64 2150 19 2470 248 
C 2470 274 2458 414 2451 420 
C 2451 433 2432 630 2432 656 
C 2125 407 1773 325 1517 325 
C 1107 325 666 667 646 1377 
L 2502 1377 
z
M 698 1728 
C 781 2084 1062 2421 1421 2421 
C 1517 2421 1965 2421 2080 1728 
L 698 1728 
z
" transform="scale(0.015625)"/>
       <path id="CMSS17-61" d="M 2406 1791 
C 2406 2392 1978 2808 1402 2808 
C 1120 2808 813 2757 461 2553 
L 499 2135 
C 659 2248 934 2432 1395 2432 
C 1722 2432 1920 2180 1920 1782 
L 1920 1536 
C 896 1536 256 1238 256 726 
C 256 461 416 -64 947 -64 
C 1043 -64 1562 -64 1933 217 
L 1933 -19 
L 2406 -19 
L 2406 1791 
z
M 1920 816 
C 1920 701 1920 548 1728 434 
C 1562 325 1350 325 1261 325 
C 941 325 723 511 723 744 
C 723 1211 1722 1211 1920 1211 
L 1920 816 
z
" transform="scale(0.015625)"/>
       <path id="CMSS17-74" d="M 1069 2368 
L 1901 2368 
L 1901 2737 
L 1069 2737 
L 1069 3520 
L 614 3520 
L 614 2737 
L 109 2737 
L 109 2368 
L 602 2368 
L 602 749 
C 602 384 685 -64 1107 -64 
C 1427 -64 1722 25 2003 172 
L 1901 548 
C 1747 414 1562 337 1363 337 
C 1082 337 1069 696 1069 856 
L 1069 2368 
z
" transform="scale(0.015625)"/>
       <path id="CMSS17-68" d="M 2618 1891 
C 2618 2292 2522 2820 1798 2820 
C 1395 2820 1133 2623 947 2407 
L 947 4448 
L 474 4448 
L 474 32 
L 960 32 
L 960 1573 
C 960 1973 1114 2432 1549 2432 
C 2112 2432 2131 2056 2131 1839 
L 2131 32 
L 2618 32 
L 2618 1891 
z
" transform="scale(0.015625)"/>
       <path id="CMSS17-63" d="M 2464 2541 
C 2464 2585 2170 2714 2093 2739 
C 1882 2816 1613 2816 1542 2816 
C 710 2816 211 2093 211 1363 
C 211 595 768 -64 1517 -64 
C 1946 -64 2253 76 2502 242 
L 2464 664 
C 2189 453 1869 337 1523 337 
C 1024 337 698 774 698 1369 
C 698 1831 909 2414 1549 2414 
C 1901 2414 2099 2343 2394 2145 
L 2464 2541 
z
" transform="scale(0.015625)"/>
       <path id="CMSS17-41" d="M 2272 4416 
L 1722 4416 
L 166 0 
L 653 0 
L 1101 1280 
L 2816 1280 
L 3270 0 
L 3827 0 
L 2272 4416 
z
M 2694 1637 
L 1222 1637 
C 1530 2528 1914 3638 1958 3925 
L 1965 3925 
C 2010 3663 2138 3281 2246 2956 
L 2694 1637 
z
" transform="scale(0.015625)"/>
       <path id="CMSS17-73" d="M 2061 2627 
C 1683 2807 1389 2807 1197 2807 
C 742 2807 198 2648 198 2003 
C 198 1359 902 1218 1094 1179 
C 1389 1122 1715 1058 1715 740 
C 1715 337 1254 337 1171 337 
C 915 337 563 407 243 638 
L 166 210 
C 531 0 883 -64 1178 -64 
C 1965 -64 2163 416 2163 781 
C 2163 1094 1984 1305 1862 1401 
C 1651 1568 1574 1587 1050 1696 
C 960 1709 646 1779 646 2066 
C 646 2432 1050 2432 1139 2432 
C 1555 2432 1811 2303 1984 2208 
L 2061 2627 
z
" transform="scale(0.015625)"/>
       <path id="CMSS17-51" d="M 3200 202 
C 3981 833 4096 1689 4096 2174 
C 4096 3501 3219 4497 2214 4497 
C 1210 4497 333 3497 333 2178 
C 333 847 1222 -128 2214 -128 
C 2438 -128 2630 -77 2765 -26 
L 3302 -832 
L 3930 -832 
L 3200 202 
z
M 2528 324 
C 2438 293 2330 273 2214 273 
C 1523 273 858 993 858 2178 
C 858 3357 1517 4096 2214 4096 
C 2918 4096 3571 3350 3571 2178 
C 3571 1771 3507 1089 2950 566 
L 2490 1210 
L 1939 1210 
L 2528 324 
z
" transform="scale(0.015625)"/>
       <path id="CMSS17-79" d="M 2675 2752 
L 2176 2752 
C 1632 1294 1446 702 1434 383 
L 1427 383 
C 1408 696 1126 1460 902 2007 
L 602 2752 
L 83 2752 
L 1216 13 
C 1146 -178 1043 -465 1011 -529 
C 870 -885 774 -885 672 -885 
C 646 -885 442 -885 211 -809 
L 250 -1229 
C 410 -1261 570 -1280 685 -1280 
C 845 -1280 1165 -1280 1459 -497 
L 2675 2752 
z
" transform="scale(0.015625)"/>
       <path id="CMSS17-49" d="M 1094 4416 
L 557 4416 
L 557 0 
L 1094 0 
L 1094 4416 
z
" transform="scale(0.015625)"/>
       <path id="CMSS17-78" d="M 1587 1414 
L 2656 2739 
L 2099 2739 
L 1363 1777 
L 602 2739 
L 32 2739 
L 1139 1414 
L 0 0 
L 563 0 
L 1363 1121 
L 2195 0 
L 2758 0 
L 1587 1414 
z
" transform="scale(0.015625)"/>
      </defs>
      <use xlink:href="#CMSS17-57" transform="scale(0.996264)"/>
      <use xlink:href="#CMSS17-6f" transform="translate(85.639712 0)scale(0.996264)"/>
      <use xlink:href="#CMSS17-72" transform="translate(129.880882 0)scale(0.996264)"/>
      <use xlink:href="#CMSS17-6c" transform="translate(161.790654 0)scale(0.996264)"/>
      <use xlink:href="#CMSS17-64" transform="translate(183.971377 0)scale(0.996264)"/>
      <use xlink:href="#CMSS17-6d" transform="translate(263.405433 0)scale(0.996264)"/>
      <use xlink:href="#CMSS17-69" transform="translate(337.634688 0)scale(0.996264)"/>
      <use xlink:href="#CMSS17-6e" transform="translate(359.815411 0)scale(0.996264)"/>
      <use xlink:href="#CMSS17-69" transform="translate(408.020354 0)scale(0.996264)"/>
      <use xlink:href="#CMSS17-6d" transform="translate(430.201077 0)scale(0.996264)"/>
      <use xlink:href="#CMSS17-75" transform="translate(504.430331 0)scale(0.996264)"/>
      <use xlink:href="#CMSS17-6d" transform="translate(552.635275 0)scale(0.996264)"/>
      <use xlink:href="#CMSS17-48" transform="translate(658.093642 0)scale(0.996264)"/>
      <use xlink:href="#CMSS17-65" transform="translate(724.155161 0)scale(0.996264)"/>
      <use xlink:href="#CMSS17-61" transform="translate(765.793983 0)scale(0.996264)"/>
      <use xlink:href="#CMSS17-6c" transform="translate(810.715904 0)scale(0.996264)"/>
      <use xlink:href="#CMSS17-74" transform="translate(832.896627 0)scale(0.996264)"/>
      <use xlink:href="#CMSS17-68" transform="translate(866.728193 0)scale(0.996264)"/>
      <use xlink:href="#CMSS17-63" transform="translate(914.933136 0)scale(0.996264)"/>
      <use xlink:href="#CMSS17-61" transform="translate(956.571959 0)scale(0.996264)"/>
      <use xlink:href="#CMSS17-72" transform="translate(998.891425 0)scale(0.996264)"/>
      <use xlink:href="#CMSS17-65" transform="translate(1030.801198 0)scale(0.996264)"/>
      <use xlink:href="#CMSS17-41" transform="translate(1103.669133 0)scale(0.996264)"/>
      <use xlink:href="#CMSS17-63" transform="translate(1165.886988 0)scale(0.996264)"/>
      <use xlink:href="#CMSS17-63" transform="translate(1207.52581 0)scale(0.996264)"/>
      <use xlink:href="#CMSS17-65" transform="translate(1249.164632 0)scale(0.996264)"/>
      <use xlink:href="#CMSS17-73" transform="translate(1290.803454 0)scale(0.996264)"/>
      <use xlink:href="#CMSS17-73" transform="translate(1326.716996 0)scale(0.996264)"/>
      <use xlink:href="#CMSS17-61" transform="translate(1393.85965 0)scale(0.996264)"/>
      <use xlink:href="#CMSS17-6e" transform="translate(1438.781571 0)scale(0.996264)"/>
      <use xlink:href="#CMSS17-64" transform="translate(1486.986514 0)scale(0.996264)"/>
      <use xlink:href="#CMSS17-51" transform="translate(1566.42057 0)scale(0.996264)"/>
      <use xlink:href="#CMSS17-75" transform="translate(1635.444825 0)scale(0.996264)"/>
      <use xlink:href="#CMSS17-61" transform="translate(1683.649769 0)scale(0.996264)"/>
      <use xlink:href="#CMSS17-6c" transform="translate(1728.571689 0)scale(0.996264)"/>
      <use xlink:href="#CMSS17-69" transform="translate(1750.752412 0)scale(0.996264)"/>
      <use xlink:href="#CMSS17-74" transform="translate(1772.933135 0)scale(0.996264)"/>
      <use xlink:href="#CMSS17-79" transform="translate(1804.162248 0)scale(0.996264)"/>
      <use xlink:href="#CMSS17-49" transform="translate(1878.391502 0)scale(0.996264)"/>
      <use xlink:href="#CMSS17-6e" transform="translate(1904.175428 0)scale(0.996264)"/>
      <use xlink:href="#CMSS17-64" transform="translate(1952.380371 0)scale(0.996264)"/>
      <use xlink:href="#CMSS17-65" transform="translate(2000.585314 0)scale(0.996264)"/>
      <use xlink:href="#CMSS17-78" transform="translate(2042.224136 0)scale(0.996264)"/>
     </g>
    </g>
   </g>
   <g id="matplotlib.axis_2">
    <g id="ytick_1">
     <g id="line2d_8">
      <defs>
       <path id="maaca279dfe" d="M 0 0 
L -3 0 
" style="stroke: #000000; stroke-width: 0.8"/>
      </defs>
      <g>
       <use xlink:href="#maaca279dfe" x="46.206646" y="528.900318" style="stroke: #000000; stroke-width: 0.8"/>
      </g>
     </g>
     <g id="text_9">
      <!-- $\mathdefault{0}$ -->
      <g transform="translate(34.725311 532.359567)scale(0.1 -0.1)">
       <defs>
        <path id="CMR17-30" d="M 2688 2025 
C 2688 2416 2682 3080 2413 3591 
C 2176 4039 1798 4198 1466 4198 
C 1158 4198 768 4058 525 3597 
C 269 3118 243 2524 243 2025 
C 243 1661 250 1106 448 619 
C 723 -39 1216 -128 1466 -128 
C 1760 -128 2208 -7 2470 600 
C 2662 1042 2688 1559 2688 2025 
z
M 1466 -26 
C 1056 -26 813 325 723 812 
C 653 1188 653 1738 653 2096 
C 653 2588 653 2997 736 3387 
C 858 3929 1216 4096 1466 4096 
C 1728 4096 2067 3923 2189 3400 
C 2272 3036 2278 2607 2278 2096 
C 2278 1680 2278 1169 2202 792 
C 2067 95 1690 -26 1466 -26 
z
" transform="scale(0.015625)"/>
       </defs>
       <use xlink:href="#CMR17-30" transform="scale(0.996264)"/>
      </g>
     </g>
    </g>
    <g id="ytick_2">
     <g id="line2d_9">
      <g>
       <use xlink:href="#maaca279dfe" x="46.206646" y="455.680664" style="stroke: #000000; stroke-width: 0.8"/>
      </g>
     </g>
     <g id="text_10">
      <!-- $\mathdefault{20}$ -->
      <g transform="translate(29.743975 459.139914)scale(0.1 -0.1)">
       <defs>
        <path id="CMR17-32" d="M 2669 989 
L 2554 989 
C 2490 536 2438 459 2413 420 
C 2381 369 1920 369 1830 369 
L 602 369 
C 832 619 1280 1072 1824 1597 
C 2214 1967 2669 2402 2669 3035 
C 2669 3790 2067 4224 1395 4224 
C 691 4224 262 3604 262 3030 
C 262 2780 448 2748 525 2748 
C 589 2748 781 2787 781 3010 
C 781 3207 614 3264 525 3264 
C 486 3264 448 3258 422 3245 
C 544 3790 915 4058 1306 4058 
C 1862 4058 2227 3617 2227 3035 
C 2227 2479 1901 2000 1536 1584 
L 262 146 
L 262 0 
L 2515 0 
L 2669 989 
z
" transform="scale(0.015625)"/>
       </defs>
       <use xlink:href="#CMR17-32" transform="scale(0.996264)"/>
       <use xlink:href="#CMR17-30" transform="translate(45.690477 0)scale(0.996264)"/>
      </g>
     </g>
    </g>
    <g id="ytick_3">
     <g id="line2d_10">
      <g>
       <use xlink:href="#maaca279dfe" x="46.206646" y="382.461011" style="stroke: #000000; stroke-width: 0.8"/>
      </g>
     </g>
     <g id="text_11">
      <!-- $\mathdefault{40}$ -->
      <g transform="translate(29.743975 385.92026)scale(0.1 -0.1)">
       <defs>
        <path id="CMR17-34" d="M 2150 4122 
C 2150 4256 2144 4256 2029 4256 
L 128 1254 
L 128 1088 
L 1779 1088 
L 1779 457 
C 1779 224 1766 160 1318 160 
L 1197 160 
L 1197 0 
C 1402 0 1747 0 1965 0 
C 2182 0 2528 0 2733 0 
L 2733 160 
L 2611 160 
C 2163 160 2150 224 2150 457 
L 2150 1088 
L 2803 1088 
L 2803 1254 
L 2150 1254 
L 2150 4122 
z
M 1798 3703 
L 1798 1254 
L 256 1254 
L 1798 3703 
z
" transform="scale(0.015625)"/>
       </defs>
       <use xlink:href="#CMR17-34" transform="scale(0.996264)"/>
       <use xlink:href="#CMR17-30" transform="translate(45.690477 0)scale(0.996264)"/>
      </g>
     </g>
    </g>
    <g id="ytick_4">
     <g id="line2d_11">
      <g>
       <use xlink:href="#maaca279dfe" x="46.206646" y="309.241358" style="stroke: #000000; stroke-width: 0.8"/>
      </g>
     </g>
     <g id="text_12">
      <!-- $\mathdefault{60}$ -->
      <g transform="translate(29.743975 312.700607)scale(0.1 -0.1)">
       <defs>
        <path id="CMR17-36" d="M 678 2176 
C 678 3690 1395 4032 1811 4032 
C 1946 4032 2272 4009 2400 3776 
C 2298 3776 2106 3776 2106 3553 
C 2106 3381 2246 3323 2336 3323 
C 2394 3323 2566 3348 2566 3560 
C 2566 3954 2246 4179 1805 4179 
C 1043 4179 243 3390 243 1984 
C 243 253 966 -128 1478 -128 
C 2099 -128 2688 427 2688 1283 
C 2688 2081 2170 2662 1517 2662 
C 1126 2662 838 2407 678 1960 
L 678 2176 
z
M 1478 25 
C 691 25 691 1200 691 1436 
C 691 1896 909 2560 1504 2560 
C 1613 2560 1926 2560 2138 2120 
C 2253 1870 2253 1609 2253 1289 
C 2253 944 2253 690 2118 434 
C 1978 171 1773 25 1478 25 
z
" transform="scale(0.015625)"/>
       </defs>
       <use xlink:href="#CMR17-36" transform="scale(0.996264)"/>
       <use xlink:href="#CMR17-30" transform="translate(45.690477 0)scale(0.996264)"/>
      </g>
     </g>
    </g>
    <g id="ytick_5">
     <g id="line2d_12">
      <g>
       <use xlink:href="#maaca279dfe" x="46.206646" y="236.021705" style="stroke: #000000; stroke-width: 0.8"/>
      </g>
     </g>
     <g id="text_13">
      <!-- $\mathdefault{80}$ -->
      <g transform="translate(29.743975 239.480954)scale(0.1 -0.1)">
       <defs>
        <path id="CMR17-38" d="M 1741 2264 
C 2144 2467 2554 2773 2554 3263 
C 2554 3841 1990 4179 1472 4179 
C 890 4179 378 3759 378 3180 
C 378 3021 416 2747 666 2505 
C 730 2442 998 2251 1171 2130 
C 883 1983 211 1634 211 934 
C 211 279 838 -128 1459 -128 
C 2144 -128 2720 362 2720 1010 
C 2720 1590 2330 1857 2074 2029 
L 1741 2264 
z
M 902 2822 
C 851 2854 595 3051 595 3351 
C 595 3739 998 4032 1459 4032 
C 1965 4032 2336 3676 2336 3262 
C 2336 2669 1670 2331 1638 2331 
C 1632 2331 1626 2331 1574 2370 
L 902 2822 
z
M 2080 1519 
C 2176 1449 2483 1240 2483 851 
C 2483 381 2010 25 1472 25 
C 890 25 448 438 448 940 
C 448 1443 838 1862 1280 2060 
L 2080 1519 
z
" transform="scale(0.015625)"/>
       </defs>
       <use xlink:href="#CMR17-38" transform="scale(0.996264)"/>
       <use xlink:href="#CMR17-30" transform="translate(45.690477 0)scale(0.996264)"/>
      </g>
     </g>
    </g>
    <g id="ytick_6">
     <g id="line2d_13">
      <g>
       <use xlink:href="#maaca279dfe" x="46.206646" y="162.802051" style="stroke: #000000; stroke-width: 0.8"/>
      </g>
     </g>
     <g id="text_14">
      <!-- $\mathdefault{100}$ -->
      <g transform="translate(24.76264 166.261301)scale(0.1 -0.1)">
       <defs>
        <path id="CMR17-31" d="M 1702 4058 
C 1702 4192 1696 4192 1606 4192 
C 1357 3916 979 3827 621 3827 
C 602 3827 570 3827 563 3808 
C 557 3795 557 3782 557 3648 
C 755 3648 1088 3686 1344 3839 
L 1344 461 
C 1344 236 1331 160 781 160 
L 589 160 
L 589 0 
C 896 0 1216 0 1523 0 
C 1830 0 2150 0 2458 0 
L 2458 160 
L 2266 160 
C 1715 160 1702 230 1702 458 
L 1702 4058 
z
" transform="scale(0.015625)"/>
       </defs>
       <use xlink:href="#CMR17-31" transform="scale(0.996264)"/>
       <use xlink:href="#CMR17-30" transform="translate(45.690477 0)scale(0.996264)"/>
       <use xlink:href="#CMR17-30" transform="translate(91.380954 0)scale(0.996264)"/>
      </g>
     </g>
    </g>
    <g id="ytick_7">
     <g id="line2d_14">
      <g>
       <use xlink:href="#maaca279dfe" x="46.206646" y="89.582398" style="stroke: #000000; stroke-width: 0.8"/>
      </g>
     </g>
     <g id="text_15">
      <!-- $\mathdefault{120}$ -->
      <g transform="translate(24.76264 93.041647)scale(0.1 -0.1)">
       <use xlink:href="#CMR17-31" transform="scale(0.996264)"/>
       <use xlink:href="#CMR17-32" transform="translate(45.690477 0)scale(0.996264)"/>
       <use xlink:href="#CMR17-30" transform="translate(91.380954 0)scale(0.996264)"/>
      </g>
     </g>
    </g>
    <g id="ytick_8">
     <g id="line2d_15">
      <g>
       <use xlink:href="#maaca279dfe" x="46.206646" y="16.362745" style="stroke: #000000; stroke-width: 0.8"/>
      </g>
     </g>
     <g id="text_16">
      <!-- $\mathdefault{140}$ -->
      <g transform="translate(24.76264 19.821994)scale(0.1 -0.1)">
       <use xlink:href="#CMR17-31" transform="scale(0.996264)"/>
       <use xlink:href="#CMR17-34" transform="translate(45.690477 0)scale(0.996264)"/>
       <use xlink:href="#CMR17-30" transform="translate(91.380954 0)scale(0.996264)"/>
      </g>
     </g>
    </g>
    <g id="text_17">
     <!-- Energy required (EJ) -->
     <g transform="translate(18.27198 313.367594)rotate(-90)scale(0.1 -0.1)">
      <defs>
       <path id="CMSS17-45" d="M 1958 433 
C 1446 433 1216 433 1101 433 
L 1101 2107 
L 3085 2107 
L 3085 2496 
L 1101 2496 
L 1101 4009 
L 1926 4009 
C 2003 4009 2080 4009 2157 4009 
L 3251 4009 
L 3251 4416 
L 563 4416 
L 563 0 
L 3334 0 
L 3334 433 
L 1958 433 
z
" transform="scale(0.015625)"/>
       <path id="CMSS17-67" d="M 2848 2808 
C 2483 2808 2170 2738 1914 2617 
C 1702 2777 1485 2808 1338 2808 
C 781 2808 358 2349 358 1814 
C 358 1468 550 1207 563 1195 
C 448 1035 384 863 384 672 
C 384 448 474 289 544 200 
C 211 -3 166 -314 166 -435 
C 166 -898 749 -1280 1498 -1280 
C 2253 -1280 2835 -898 2835 -428 
C 2835 448 1856 448 1587 448 
L 1069 448 
C 973 448 717 448 717 791 
C 717 921 774 1004 781 1010 
C 877 940 1075 832 1338 832 
C 1869 832 2310 1278 2310 1827 
C 2310 2132 2170 2355 2112 2432 
L 2131 2432 
C 2150 2432 2419 2432 2515 2432 
C 2720 2432 2739 2429 2918 2419 
L 2848 2808 
z
M 1338 1182 
C 1120 1182 813 1315 813 1823 
C 813 2375 1165 2464 1331 2464 
C 1549 2464 1856 2331 1856 1823 
C 1856 1271 1504 1182 1338 1182 
z
M 1581 -10 
C 1734 -10 2381 -10 2381 -442 
C 2381 -714 1984 -929 1504 -929 
C 1018 -929 621 -720 621 -435 
C 621 -403 621 -10 1062 -10 
L 1581 -10 
z
" transform="scale(0.015625)"/>
       <path id="CMSS17-71" d="M 2611 2816 
L 2138 2816 
L 2138 2428 
C 2112 2460 1818 2816 1318 2816 
C 736 2816 211 2228 211 1399 
C 211 633 653 -5 1229 -5 
C 1498 -5 1837 91 2125 365 
L 2125 -1216 
L 2611 -1216 
L 2611 2816 
z
M 2138 914 
C 2138 832 2138 718 1939 554 
C 1888 510 1747 384 1504 384 
C 1050 384 698 850 698 1399 
C 698 2011 1126 2415 1562 2415 
C 1926 2415 2138 2061 2138 1797 
L 2138 914 
z
" transform="scale(0.015625)"/>
       <path id="CMSS17-28" d="M 1613 4768 
C 1267 4417 474 3601 474 1588 
C 474 -433 1267 -1243 1613 -1600 
L 2003 -1600 
C 1216 -784 960 357 960 1581 
C 960 2798 1203 3946 2003 4768 
L 1613 4768 
z
" transform="scale(0.015625)"/>
       <path id="CMSS17-4a" d="M 2336 4384 
L 1811 4384 
L 1811 940 
C 1811 636 1683 261 1107 261 
C 781 261 506 414 333 604 
L 250 140 
C 646 -71 1011 -128 1280 -128 
C 1901 -128 2336 228 2336 920 
L 2336 4384 
z
" transform="scale(0.015625)"/>
       <path id="CMSS17-29" d="M 723 -1600 
C 1069 -1249 1862 -433 1862 1581 
C 1862 3601 1069 4411 723 4768 
L 333 4768 
C 1120 3952 1376 2811 1376 1588 
C 1376 370 1133 -778 333 -1600 
L 723 -1600 
z
" transform="scale(0.015625)"/>
      </defs>
      <use xlink:href="#CMSS17-45" transform="scale(0.996264)"/>
      <use xlink:href="#CMSS17-6e" transform="translate(55.892013 0)scale(0.996264)"/>
      <use xlink:href="#CMSS17-65" transform="translate(104.096956 0)scale(0.996264)"/>
      <use xlink:href="#CMSS17-72" transform="translate(145.735778 0)scale(0.996264)"/>
      <use xlink:href="#CMSS17-67" transform="translate(177.645551 0)scale(0.996264)"/>
      <use xlink:href="#CMSS17-79" transform="translate(224.489175 0)scale(0.996264)"/>
      <use xlink:href="#CMSS17-72" transform="translate(298.718429 0)scale(0.996264)"/>
      <use xlink:href="#CMSS17-65" transform="translate(330.628201 0)scale(0.996264)"/>
      <use xlink:href="#CMSS17-71" transform="translate(372.267024 0)scale(0.996264)"/>
      <use xlink:href="#CMSS17-75" transform="translate(420.471967 0)scale(0.996264)"/>
      <use xlink:href="#CMSS17-69" transform="translate(468.67691 0)scale(0.996264)"/>
      <use xlink:href="#CMSS17-72" transform="translate(490.857633 0)scale(0.996264)"/>
      <use xlink:href="#CMSS17-65" transform="translate(522.767405 0)scale(0.996264)"/>
      <use xlink:href="#CMSS17-64" transform="translate(564.406228 0)scale(0.996264)"/>
      <use xlink:href="#CMSS17-28" transform="translate(643.840283 0)scale(0.996264)"/>
      <use xlink:href="#CMSS17-45" transform="translate(680.274198 0)scale(0.996264)"/>
      <use xlink:href="#CMSS17-4a" transform="translate(736.166211 0)scale(0.996264)"/>
      <use xlink:href="#CMSS17-29" transform="translate(780.287286 0)scale(0.996264)"/>
     </g>
    </g>
   </g>
   <g id="patch_3">
    <path d="M 64.742123 528.900318 
L 101.813077 528.900318 
L 101.813077 527.774262 
L 64.742123 527.774262 
z
" clip-path="url(#p36b77f426c)" style="fill: #0173b2"/>
   </g>
   <g id="patch_4">
    <path d="M 138.884031 528.900318 
L 175.954984 528.900318 
L 175.954984 527.286897 
L 138.884031 527.286897 
z
" clip-path="url(#p36b77f426c)" style="fill: #0173b2"/>
   </g>
   <g id="patch_5">
    <path d="M 213.025938 528.900318 
L 250.096892 528.900318 
L 250.096892 525.722013 
L 213.025938 525.722013 
z
" clip-path="url(#p36b77f426c)" style="fill: #0173b2"/>
   </g>
   <g id="patch_6">
    <path d="M 287.167846 528.900318 
L 324.2388 528.900318 
L 324.2388 522.239014 
L 287.167846 522.239014 
z
" clip-path="url(#p36b77f426c)" style="fill: #0173b2"/>
   </g>
   <g id="patch_7">
    <path d="M 361.309754 528.900318 
L 398.380708 528.900318 
L 398.380708 514.096704 
L 361.309754 514.096704 
z
" clip-path="url(#p36b77f426c)" style="fill: #0173b2"/>
   </g>
   <g id="patch_8">
    <path d="M 435.451661 528.900318 
L 472.522615 528.900318 
L 472.522615 496.001806 
L 435.451661 496.001806 
z
" clip-path="url(#p36b77f426c)" style="fill: #0173b2"/>
   </g>
   <g id="patch_9">
    <path d="M 509.593569 528.900318 
L 546.664523 528.900318 
L 546.664523 455.788971 
L 509.593569 455.788971 
z
" clip-path="url(#p36b77f426c)" style="fill: #0173b2"/>
   </g>
   <g id="patch_10">
    <path d="M 64.742123 527.774262 
L 101.813077 527.774262 
L 101.813077 526.950164 
L 64.742123 526.950164 
z
" clip-path="url(#p36b77f426c)" style="fill: #de8f05"/>
   </g>
   <g id="patch_11">
    <path d="M 138.884031 527.286897 
L 175.954984 527.286897 
L 175.954984 526.462799 
L 138.884031 526.462799 
z
" clip-path="url(#p36b77f426c)" style="fill: #de8f05"/>
   </g>
   <g id="patch_12">
    <path d="M 213.025938 525.722013 
L 250.096892 525.722013 
L 250.096892 524.897915 
L 213.025938 524.897915 
z
" clip-path="url(#p36b77f426c)" style="fill: #de8f05"/>
   </g>
   <g id="patch_13">
    <path d="M 287.167846 522.239014 
L 324.2388 522.239014 
L 324.2388 521.414917 
L 287.167846 521.414917 
z
" clip-path="url(#p36b77f426c)" style="fill: #de8f05"/>
   </g>
   <g id="patch_14">
    <path d="M 361.309754 514.096704 
L 398.380708 514.096704 
L 398.380708 513.272607 
L 361.309754 513.272607 
z
" clip-path="url(#p36b77f426c)" style="fill: #de8f05"/>
   </g>
   <g id="patch_15">
    <path d="M 435.451661 496.001806 
L 472.522615 496.001806 
L 472.522615 495.177708 
L 435.451661 495.177708 
z
" clip-path="url(#p36b77f426c)" style="fill: #de8f05"/>
   </g>
   <g id="patch_16">
    <path d="M 509.593569 455.788971 
L 546.664523 455.788971 
L 546.664523 454.183702 
L 509.593569 454.183702 
z
" clip-path="url(#p36b77f426c)" style="fill: #de8f05"/>
   </g>
   <g id="patch_17">
    <path d="M 64.742123 526.950164 
L 101.813077 526.950164 
L 101.813077 512.206732 
L 64.742123 512.206732 
z
" clip-path="url(#p36b77f426c)" style="fill: #029e73"/>
   </g>
   <g id="patch_18">
    <path d="M 138.884031 526.462799 
L 175.954984 526.462799 
L 175.954984 511.719367 
L 138.884031 511.719367 
z
" clip-path="url(#p36b77f426c)" style="fill: #029e73"/>
   </g>
   <g id="patch_19">
    <path d="M 213.025938 524.897915 
L 250.096892 524.897915 
L 250.096892 510.154483 
L 213.025938 510.154483 
z
" clip-path="url(#p36b77f426c)" style="fill: #029e73"/>
   </g>
   <g id="patch_20">
    <path d="M 287.167846 521.414917 
L 324.2388 521.414917 
L 324.2388 506.671485 
L 287.167846 506.671485 
z
" clip-path="url(#p36b77f426c)" style="fill: #029e73"/>
   </g>
   <g id="patch_21">
    <path d="M 361.309754 513.272607 
L 398.380708 513.272607 
L 398.380708 494.482803 
L 361.309754 494.482803 
z
" clip-path="url(#p36b77f426c)" style="fill: #029e73"/>
   </g>
   <g id="patch_22">
    <path d="M 435.451661 495.177708 
L 472.522615 495.177708 
L 472.522615 453.420566 
L 435.451661 453.420566 
z
" clip-path="url(#p36b77f426c)" style="fill: #029e73"/>
   </g>
   <g id="patch_23">
    <path d="M 509.593569 454.183702 
L 546.664523 454.183702 
L 546.664523 361.385557 
L 509.593569 361.385557 
z
" clip-path="url(#p36b77f426c)" style="fill: #029e73"/>
   </g>
   <g id="patch_24">
    <path d="M 64.742123 512.206732 
L 101.813077 512.206732 
L 101.813077 500.4149 
L 64.742123 500.4149 
z
" clip-path="url(#p36b77f426c)" style="fill: #d55e00"/>
   </g>
   <g id="patch_25">
    <path d="M 138.884031 511.719367 
L 175.954984 511.719367 
L 175.954984 499.927535 
L 138.884031 499.927535 
z
" clip-path="url(#p36b77f426c)" style="fill: #d55e00"/>
   </g>
   <g id="patch_26">
    <path d="M 213.025938 510.154483 
L 250.096892 510.154483 
L 250.096892 498.350907 
L 213.025938 498.350907 
z
" clip-path="url(#p36b77f426c)" style="fill: #d55e00"/>
   </g>
   <g id="patch_27">
    <path d="M 287.167846 506.671485 
L 324.2388 506.671485 
L 324.2388 494.502705 
L 287.167846 494.502705 
z
" clip-path="url(#p36b77f426c)" style="fill: #d55e00"/>
   </g>
   <g id="patch_28">
    <path d="M 361.309754 494.482803 
L 398.380708 494.482803 
L 398.380708 480.297988 
L 361.309754 480.297988 
z
" clip-path="url(#p36b77f426c)" style="fill: #d55e00"/>
   </g>
   <g id="patch_29">
    <path d="M 435.451661 453.420566 
L 472.522615 453.420566 
L 472.522615 430.521654 
L 435.451661 430.521654 
z
" clip-path="url(#p36b77f426c)" style="fill: #d55e00"/>
   </g>
   <g id="patch_30">
    <path d="M 509.593569 361.385557 
L 546.664523 361.385557 
L 546.664523 311.531785 
L 509.593569 311.531785 
z
" clip-path="url(#p36b77f426c)" style="fill: #d55e00"/>
   </g>
   <g id="patch_31">
    <path d="M 64.742123 500.4149 
L 101.813077 500.4149 
L 101.813077 499.410853 
L 64.742123 499.410853 
z
" clip-path="url(#p36b77f426c)" style="fill: #cc78bc"/>
   </g>
   <g id="patch_32">
    <path d="M 138.884031 499.927535 
L 175.954984 499.927535 
L 175.954984 498.306326 
L 138.884031 498.306326 
z
" clip-path="url(#p36b77f426c)" style="fill: #cc78bc"/>
   </g>
   <g id="patch_33">
    <path d="M 213.025938 498.350907 
L 250.096892 498.350907 
L 250.096892 494.748046 
L 213.025938 494.748046 
z
" clip-path="url(#p36b77f426c)" style="fill: #cc78bc"/>
   </g>
   <g id="patch_34">
    <path d="M 287.167846 494.502705 
L 324.2388 494.502705 
L 324.2388 486.495959 
L 287.167846 486.495959 
z
" clip-path="url(#p36b77f426c)" style="fill: #cc78bc"/>
   </g>
   <g id="patch_35">
    <path d="M 361.309754 480.297988 
L 398.380708 480.297988 
L 398.380708 462.504359 
L 361.309754 462.504359 
z
" clip-path="url(#p36b77f426c)" style="fill: #cc78bc"/>
   </g>
   <g id="patch_36">
    <path d="M 435.451661 430.521654 
L 472.522615 430.521654 
L 472.522615 390.97834 
L 435.451661 390.97834 
z
" clip-path="url(#p36b77f426c)" style="fill: #cc78bc"/>
   </g>
   <g id="patch_37">
    <path d="M 509.593569 311.531785 
L 546.664523 311.531785 
L 546.664523 223.653497 
L 509.593569 223.653497 
z
" clip-path="url(#p36b77f426c)" style="fill: #cc78bc"/>
   </g>
   <g id="patch_38">
    <path d="M 64.742123 499.410853 
L 101.813077 499.410853 
L 101.813077 493.824729 
L 64.742123 493.824729 
z
" clip-path="url(#p36b77f426c)" style="fill: #ca9161"/>
   </g>
   <g id="patch_39">
    <path d="M 138.884031 498.306326 
L 175.954984 498.306326 
L 175.954984 492.720202 
L 138.884031 492.720202 
z
" clip-path="url(#p36b77f426c)" style="fill: #ca9161"/>
   </g>
   <g id="patch_40">
    <path d="M 213.025938 494.748046 
L 250.096892 494.748046 
L 250.096892 489.161922 
L 213.025938 489.161922 
z
" clip-path="url(#p36b77f426c)" style="fill: #ca9161"/>
   </g>
   <g id="patch_41">
    <path d="M 287.167846 486.495959 
L 324.2388 486.495959 
L 324.2388 480.909835 
L 287.167846 480.909835 
z
" clip-path="url(#p36b77f426c)" style="fill: #ca9161"/>
   </g>
   <g id="patch_42">
    <path d="M 361.309754 462.504359 
L 398.380708 462.504359 
L 398.380708 456.918235 
L 361.309754 456.918235 
z
" clip-path="url(#p36b77f426c)" style="fill: #ca9161"/>
   </g>
   <g id="patch_43">
    <path d="M 435.451661 390.97834 
L 472.522615 390.97834 
L 472.522615 385.085369 
L 435.451661 385.085369 
z
" clip-path="url(#p36b77f426c)" style="fill: #ca9161"/>
   </g>
   <g id="patch_44">
    <path d="M 509.593569 223.653497 
L 546.664523 223.653497 
L 546.664523 211.65996 
L 509.593569 211.65996 
z
" clip-path="url(#p36b77f426c)" style="fill: #ca9161"/>
   </g>
   <g id="patch_45">
    <path d="M 64.742123 493.824729 
L 101.813077 493.824729 
L 101.813077 491.101036 
L 64.742123 491.101036 
z
" clip-path="url(#p36b77f426c)" style="fill: #fbafe4"/>
   </g>
   <g id="patch_46">
    <path d="M 138.884031 492.720202 
L 175.954984 492.720202 
L 175.954984 489.996509 
L 138.884031 489.996509 
z
" clip-path="url(#p36b77f426c)" style="fill: #fbafe4"/>
   </g>
   <g id="patch_47">
    <path d="M 213.025938 489.161922 
L 250.096892 489.161922 
L 250.096892 486.412147 
L 213.025938 486.412147 
z
" clip-path="url(#p36b77f426c)" style="fill: #fbafe4"/>
   </g>
   <g id="patch_48">
    <path d="M 287.167846 480.909835 
L 324.2388 480.909835 
L 324.2388 477.096289 
L 287.167846 477.096289 
z
" clip-path="url(#p36b77f426c)" style="fill: #fbafe4"/>
   </g>
   <g id="patch_49">
    <path d="M 361.309754 456.918235 
L 398.380708 456.918235 
L 398.380708 448.443278 
L 361.309754 448.443278 
z
" clip-path="url(#p36b77f426c)" style="fill: #fbafe4"/>
   </g>
   <g id="patch_50">
    <path d="M 435.451661 385.085369 
L 472.522615 385.085369 
L 472.522615 366.251219 
L 435.451661 366.251219 
z
" clip-path="url(#p36b77f426c)" style="fill: #fbafe4"/>
   </g>
   <g id="patch_51">
    <path d="M 509.593569 211.65996 
L 546.664523 211.65996 
L 546.664523 169.804266 
L 509.593569 169.804266 
z
" clip-path="url(#p36b77f426c)" style="fill: #fbafe4"/>
   </g>
   <g id="patch_52">
    <path d="M 64.742123 491.101036 
L 101.813077 491.101036 
L 101.813077 489.260269 
L 64.742123 489.260269 
z
" clip-path="url(#p36b77f426c)" style="fill: #949494"/>
   </g>
   <g id="patch_53">
    <path d="M 138.884031 489.996509 
L 175.954984 489.996509 
L 175.954984 488.155742 
L 138.884031 488.155742 
z
" clip-path="url(#p36b77f426c)" style="fill: #949494"/>
   </g>
   <g id="patch_54">
    <path d="M 213.025938 486.412147 
L 250.096892 486.412147 
L 250.096892 484.57138 
L 213.025938 484.57138 
z
" clip-path="url(#p36b77f426c)" style="fill: #949494"/>
   </g>
   <g id="patch_55">
    <path d="M 287.167846 477.096289 
L 324.2388 477.096289 
L 324.2388 475.065316 
L 287.167846 475.065316 
z
" clip-path="url(#p36b77f426c)" style="fill: #949494"/>
   </g>
   <g id="patch_56">
    <path d="M 361.309754 448.443278 
L 398.380708 448.443278 
L 398.380708 443.929786 
L 361.309754 443.929786 
z
" clip-path="url(#p36b77f426c)" style="fill: #949494"/>
   </g>
   <g id="patch_57">
    <path d="M 435.451661 366.251219 
L 472.522615 366.251219 
L 472.522615 356.220752 
L 435.451661 356.220752 
z
" clip-path="url(#p36b77f426c)" style="fill: #949494"/>
   </g>
   <g id="patch_58">
    <path d="M 509.593569 169.804266 
L 546.664523 169.804266 
L 546.664523 147.513258 
L 509.593569 147.513258 
z
" clip-path="url(#p36b77f426c)" style="fill: #949494"/>
   </g>
   <g id="patch_59">
    <path d="M 64.742123 489.260269 
L 101.813077 489.260269 
L 101.813077 486.581673 
L 64.742123 486.581673 
z
" clip-path="url(#p36b77f426c)" style="fill: #ece133"/>
   </g>
   <g id="patch_60">
    <path d="M 138.884031 488.155742 
L 175.954984 488.155742 
L 175.954984 485.477146 
L 138.884031 485.477146 
z
" clip-path="url(#p36b77f426c)" style="fill: #ece133"/>
   </g>
   <g id="patch_61">
    <path d="M 213.025938 484.57138 
L 250.096892 484.57138 
L 250.096892 480.449826 
L 213.025938 480.449826 
z
" clip-path="url(#p36b77f426c)" style="fill: #ece133"/>
   </g>
   <g id="patch_62">
    <path d="M 287.167846 475.065316 
L 324.2388 475.065316 
L 324.2388 466.874988 
L 287.167846 466.874988 
z
" clip-path="url(#p36b77f426c)" style="fill: #ece133"/>
   </g>
   <g id="patch_63">
    <path d="M 361.309754 443.929786 
L 398.380708 443.929786 
L 398.380708 426.090766 
L 361.309754 426.090766 
z
" clip-path="url(#p36b77f426c)" style="fill: #ece133"/>
   </g>
   <g id="patch_64">
    <path d="M 435.451661 356.220752 
L 472.522615 356.220752 
L 472.522615 316.576565 
L 435.451661 316.576565 
z
" clip-path="url(#p36b77f426c)" style="fill: #ece133"/>
   </g>
   <g id="patch_65">
    <path d="M 509.593569 147.513258 
L 546.664523 147.513258 
L 546.664523 59.410795 
L 509.593569 59.410795 
z
" clip-path="url(#p36b77f426c)" style="fill: #ece133"/>
   </g>
   <g id="patch_66">
    <path d="M 64.742123 486.581673 
L 101.813077 486.581673 
L 101.813077 469.692653 
L 64.742123 469.692653 
z
" clip-path="url(#p36b77f426c)" style="fill: #56b4e9"/>
   </g>
   <g id="patch_67">
    <path d="M 138.884031 485.477146 
L 175.954984 485.477146 
L 175.954984 468.588126 
L 138.884031 468.588126 
z
" clip-path="url(#p36b77f426c)" style="fill: #56b4e9"/>
   </g>
   <g id="patch_68">
    <path d="M 213.025938 480.449826 
L 250.096892 480.449826 
L 250.096892 463.560806 
L 213.025938 463.560806 
z
" clip-path="url(#p36b77f426c)" style="fill: #56b4e9"/>
   </g>
   <g id="patch_69">
    <path d="M 287.167846 466.874988 
L 324.2388 466.874988 
L 324.2388 449.985968 
L 287.167846 449.985968 
z
" clip-path="url(#p36b77f426c)" style="fill: #56b4e9"/>
   </g>
   <g id="patch_70">
    <path d="M 361.309754 426.090766 
L 398.380708 426.090766 
L 398.380708 409.201746 
L 361.309754 409.201746 
z
" clip-path="url(#p36b77f426c)" style="fill: #56b4e9"/>
   </g>
   <g id="patch_71">
    <path d="M 435.451661 316.576565 
L 472.522615 316.576565 
L 472.522615 299.687545 
L 435.451661 299.687545 
z
" clip-path="url(#p36b77f426c)" style="fill: #56b4e9"/>
   </g>
   <g id="patch_72">
    <path d="M 509.593569 59.410795 
L 546.664523 59.410795 
L 546.664523 35.471444 
L 509.593569 35.471444 
z
" clip-path="url(#p36b77f426c)" style="fill: #56b4e9"/>
   </g>
   <g id="line2d_16">
    <path d="M 64.742123 469.692653 
L 577 469.692653 
" clip-path="url(#p36b77f426c)" style="fill: none; stroke-dasharray: 5.55,2.4; stroke-dashoffset: 0; stroke: #808080; stroke-width: 1.5"/>
   </g>
   <g id="patch_73">
    <path d="M 46.206646 528.900318 
L 46.206646 10.8 
" style="fill: none; stroke: #000000; stroke-width: 0.8; stroke-linejoin: miter; stroke-linecap: square"/>
   </g>
   <g id="patch_74">
    <path d="M 565.2 528.900318 
L 565.2 10.8 
" style="fill: none; stroke: #000000; stroke-width: 0.8; stroke-linejoin: miter; stroke-linecap: square"/>
   </g>
   <g id="patch_75">
    <path d="M 46.206646 528.900318 
L 565.2 528.900318 
" style="fill: none; stroke: #000000; stroke-width: 0.8; stroke-linejoin: miter; stroke-linecap: square"/>
   </g>
   <g id="patch_76">
    <path d="M 46.206646 10.8 
L 565.2 10.8 
" style="fill: none; stroke: #000000; stroke-width: 0.8; stroke-linejoin: miter; stroke-linecap: square"/>
   </g>
   <g id="patch_77">
    <path d="M 179.66208 469.70616 
Q 179.66208 469.14039 179.66208 468.574619 
" style="fill: none; stroke: #000000; stroke-linecap: round"/>
    <path d="M 177.66208 473.70616 
L 179.66208 469.70616 
L 181.66208 473.70616 
" style="fill: none; stroke: #000000; stroke-linecap: round"/>
    <path d="M 181.66208 464.574619 
L 179.66208 468.574619 
L 177.66208 464.574619 
" style="fill: none; stroke: #000000; stroke-linecap: round"/>
   </g>
   <g id="text_18">
    <!-- + 1.87 \% -->
    <g transform="translate(135.176935 466.574586)scale(0.1 -0.1)">
     <defs>
      <path id="CMSS17-2b" d="M 2451 1505 
L 4141 1505 
C 4230 1505 4339 1505 4339 1613 
C 4339 1728 4237 1728 4141 1728 
L 2451 1728 
L 2451 3413 
C 2451 3502 2451 3611 2342 3611 
C 2227 3611 2227 3509 2227 3413 
L 2227 1728 
L 531 1728 
C 442 1728 333 1728 333 1620 
C 333 1505 435 1505 531 1505 
L 2227 1505 
L 2227 -186 
C 2227 -275 2227 -384 2336 -384 
C 2451 -384 2451 -282 2451 -186 
L 2451 1505 
z
" transform="scale(0.015625)"/>
      <path id="CMSS17-2e" d="M 1088 510 
L 576 510 
L 576 0 
L 1088 0 
L 1088 510 
z
" transform="scale(0.015625)"/>
      <path id="CMSS17-25" d="M 3923 4583 
C 3962 4647 3962 4679 3962 4685 
C 3962 4755 3904 4800 3853 4800 
C 3782 4800 3750 4749 3718 4685 
L 1101 -104 
C 1088 -129 1062 -167 1062 -206 
C 1062 -276 1120 -320 1178 -320 
C 1235 -320 1248 -295 1299 -206 
L 3923 4583 
z
M 4678 959 
C 4678 1698 4282 2240 3846 2240 
C 3418 2240 3008 1711 3008 959 
C 3008 208 3418 -320 3846 -320 
C 4288 -320 4678 221 4678 959 
z
M 3846 68 
C 3712 68 3494 189 3494 959 
C 3494 1724 3712 1851 3846 1851 
C 4083 1851 4211 1386 4211 959 
C 4211 533 4083 68 3846 68 
z
M 2003 3519 
C 2003 4258 1606 4800 1171 4800 
C 742 4800 333 4271 333 3519 
C 333 2768 742 2240 1171 2240 
C 1613 2240 2003 2781 2003 3519 
z
M 1171 2628 
C 1037 2628 819 2749 819 3519 
C 819 4284 1037 4411 1171 4411 
C 1408 4411 1536 3946 1536 3519 
C 1536 3093 1408 2628 1171 2628 
z
" transform="scale(0.015625)"/>
     </defs>
     <use xlink:href="#CMSS17-2b" transform="scale(0.996264)"/>
     <use xlink:href="#CMSS17-31" transform="translate(104.097048 0)scale(0.996264)"/>
     <use xlink:href="#CMSS17-2e" transform="translate(150.940671 0)scale(0.996264)"/>
     <use xlink:href="#CMSS17-38" transform="translate(176.964876 0)scale(0.996264)"/>
     <use xlink:href="#CMSS17-37" transform="translate(223.808499 0)scale(0.996264)"/>
     <use xlink:href="#CMSS17-25" transform="translate(301.881236 0)scale(0.996264)"/>
    </g>
   </g>
   <g id="patch_78">
    <path d="M 253.803988 466.675882 
Q 253.803988 466.625871 253.803988 466.575861 
" style="fill: none; stroke: #000000; stroke-linecap: round"/>
    <path d="M 251.803988 470.675882 
L 253.803988 466.675882 
L 255.803988 470.675882 
" style="fill: none; stroke: #000000; stroke-linecap: round"/>
    <path d="M 255.803988 462.575861 
L 253.803988 466.575861 
L 251.803988 462.575861 
" style="fill: none; stroke: #000000; stroke-linecap: round"/>
   </g>
   <g id="text_19">
    <!-- + 10.36 \% -->
    <g transform="translate(209.318843 461.547265)scale(0.1 -0.1)">
     <defs>
      <path id="CMSS17-33" d="M 1005 2025 
L 1440 2025 
C 2042 2025 2214 1507 2214 1146 
C 2214 653 1933 267 1472 267 
C 1114 267 608 444 320 912 
C 275 691 275 678 250 526 
C 550 88 1037 -128 1485 -128 
C 2214 -128 2752 473 2752 1138 
C 2752 1638 2400 2057 1920 2215 
C 2304 2424 2586 2816 2586 3273 
C 2586 3805 2093 4229 1491 4229 
C 941 4229 512 3892 333 3530 
C 378 3468 493 3284 550 3189 
C 691 3562 1056 3840 1485 3840 
C 1843 3840 2080 3607 2080 3271 
C 2080 2923 1856 2543 1478 2455 
C 1453 2455 1056 2417 1005 2411 
L 1005 2025 
z
" transform="scale(0.015625)"/>
     </defs>
     <use xlink:href="#CMSS17-2b" transform="scale(0.996264)"/>
     <use xlink:href="#CMSS17-31" transform="translate(104.097048 0)scale(0.996264)"/>
     <use xlink:href="#CMSS17-30" transform="translate(150.940671 0)scale(0.996264)"/>
     <use xlink:href="#CMSS17-2e" transform="translate(197.784295 0)scale(0.996264)"/>
     <use xlink:href="#CMSS17-33" transform="translate(223.808499 0)scale(0.996264)"/>
     <use xlink:href="#CMSS17-36" transform="translate(270.652123 0)scale(0.996264)"/>
     <use xlink:href="#CMSS17-25" transform="translate(348.724859 0)scale(0.996264)"/>
    </g>
   </g>
   <g id="patch_79">
    <path d="M 327.945895 453.100651 
Q 327.945895 459.83669 327.945895 466.572728 
" style="fill: none; stroke: #000000; stroke-linecap: round"/>
    <path d="M 325.945895 457.100651 
L 327.945895 453.100651 
L 329.945895 457.100651 
" style="fill: none; stroke: #000000; stroke-linecap: round"/>
    <path d="M 329.945895 462.572728 
L 327.945895 466.572728 
L 325.945895 462.572728 
" style="fill: none; stroke: #000000; stroke-linecap: round"/>
   </g>
   <g id="text_20">
    <!-- + 33.28 \% -->
    <g transform="translate(283.460751 447.972428)scale(0.1 -0.1)">
     <defs>
      <path id="CMSS17-32" d="M 1651 1357 
C 1830 1541 2099 1764 2285 1987 
C 2464 2204 2701 2511 2701 2957 
C 2701 3657 2227 4288 1421 4288 
C 787 4288 422 3893 250 3274 
L 499 2929 
C 640 3510 838 3880 1338 3880 
C 1888 3880 2195 3433 2195 2942 
C 2195 2355 1747 1901 1408 1563 
C 1030 1187 659 804 301 408 
L 301 0 
L 2701 0 
L 2701 433 
L 1613 433 
C 1536 433 1459 433 1382 433 
L 742 433 
L 742 439 
L 1651 1357 
z
" transform="scale(0.015625)"/>
     </defs>
     <use xlink:href="#CMSS17-2b" transform="scale(0.996264)"/>
     <use xlink:href="#CMSS17-33" transform="translate(104.097048 0)scale(0.996264)"/>
     <use xlink:href="#CMSS17-33" transform="translate(150.940671 0)scale(0.996264)"/>
     <use xlink:href="#CMSS17-2e" transform="translate(197.784295 0)scale(0.996264)"/>
     <use xlink:href="#CMSS17-32" transform="translate(223.808499 0)scale(0.996264)"/>
     <use xlink:href="#CMSS17-38" transform="translate(270.652123 0)scale(0.996264)"/>
     <use xlink:href="#CMSS17-25" transform="translate(348.724859 0)scale(0.996264)"/>
    </g>
   </g>
   <g id="patch_80">
    <path d="M 402.087803 412.317191 
Q 402.087803 439.444476 402.087803 466.57176 
" style="fill: none; stroke: #000000; stroke-linecap: round"/>
    <path d="M 400.087803 416.317191 
L 402.087803 412.317191 
L 404.087803 416.317191 
" style="fill: none; stroke: #000000; stroke-linecap: round"/>
    <path d="M 404.087803 462.57176 
L 402.087803 466.57176 
L 400.087803 462.57176 
" style="fill: none; stroke: #000000; stroke-linecap: round"/>
   </g>
   <g id="text_21">
    <!-- + 102.17 \% -->
    <g transform="translate(357.602658 407.188206)scale(0.1 -0.1)">
     <use xlink:href="#CMSS17-2b" transform="scale(0.996264)"/>
     <use xlink:href="#CMSS17-31" transform="translate(104.097048 0)scale(0.996264)"/>
     <use xlink:href="#CMSS17-30" transform="translate(150.940671 0)scale(0.996264)"/>
     <use xlink:href="#CMSS17-32" transform="translate(197.784295 0)scale(0.996264)"/>
     <use xlink:href="#CMSS17-2e" transform="translate(244.627918 0)scale(0.996264)"/>
     <use xlink:href="#CMSS17-31" transform="translate(270.652123 0)scale(0.996264)"/>
     <use xlink:href="#CMSS17-37" transform="translate(317.495747 0)scale(0.996264)"/>
     <use xlink:href="#CMSS17-25" transform="translate(395.568483 0)scale(0.996264)"/>
    </g>
   </g>
   <g id="patch_81">
    <path d="M 476.229711 302.805608 
Q 476.229711 384.689046 476.229711 466.572483 
" style="fill: none; stroke: #000000; stroke-linecap: round"/>
    <path d="M 474.229711 306.805608 
L 476.229711 302.805608 
L 478.229711 306.805608 
" style="fill: none; stroke: #000000; stroke-linecap: round"/>
    <path d="M 478.229711 462.572483 
L 476.229711 466.572483 
L 474.229711 462.572483 
" style="fill: none; stroke: #000000; stroke-linecap: round"/>
   </g>
   <g id="text_22">
    <!-- + 287.13 \% -->
    <g transform="translate(431.744566 297.674004)scale(0.1 -0.1)">
     <use xlink:href="#CMSS17-2b" transform="scale(0.996264)"/>
     <use xlink:href="#CMSS17-32" transform="translate(104.097048 0)scale(0.996264)"/>
     <use xlink:href="#CMSS17-38" transform="translate(150.940671 0)scale(0.996264)"/>
     <use xlink:href="#CMSS17-37" transform="translate(197.784295 0)scale(0.996264)"/>
     <use xlink:href="#CMSS17-2e" transform="translate(244.627918 0)scale(0.996264)"/>
     <use xlink:href="#CMSS17-31" transform="translate(270.652123 0)scale(0.996264)"/>
     <use xlink:href="#CMSS17-33" transform="translate(317.495747 0)scale(0.996264)"/>
     <use xlink:href="#CMSS17-25" transform="translate(395.568483 0)scale(0.996264)"/>
    </g>
   </g>
   <g id="patch_82">
    <path d="M 550.371618 38.587123 
Q 550.371618 252.580048 550.371618 466.572973 
" style="fill: none; stroke: #000000; stroke-linecap: round"/>
    <path d="M 548.371618 42.587123 
L 550.371618 38.587123 
L 552.371618 42.587123 
" style="fill: none; stroke: #000000; stroke-linecap: round"/>
    <path d="M 552.371618 462.572973 
L 550.371618 466.572973 
L 548.371618 462.572973 
" style="fill: none; stroke: #000000; stroke-linecap: round"/>
   </g>
   <g id="text_23">
    <!-- + 733.39 \% -->
    <g transform="translate(505.886474 33.457903)scale(0.1 -0.1)">
     <use xlink:href="#CMSS17-2b" transform="scale(0.996264)"/>
     <use xlink:href="#CMSS17-37" transform="translate(104.097048 0)scale(0.996264)"/>
     <use xlink:href="#CMSS17-33" transform="translate(150.940671 0)scale(0.996264)"/>
     <use xlink:href="#CMSS17-33" transform="translate(197.784295 0)scale(0.996264)"/>
     <use xlink:href="#CMSS17-2e" transform="translate(244.627918 0)scale(0.996264)"/>
     <use xlink:href="#CMSS17-33" transform="translate(270.652123 0)scale(0.996264)"/>
     <use xlink:href="#CMSS17-39" transform="translate(317.495747 0)scale(0.996264)"/>
     <use xlink:href="#CMSS17-25" transform="translate(395.568483 0)scale(0.996264)"/>
    </g>
   </g>
   <g id="legend_1">
    <g id="patch_83">
     <path d="M 53.206646 158.171783 
L 156.979338 158.171783 
Q 158.979338 158.171783 158.979338 156.171783 
L 158.979338 17.8 
Q 158.979338 15.8 156.979338 15.8 
L 53.206646 15.8 
Q 51.206646 15.8 51.206646 17.8 
L 51.206646 156.171783 
Q 51.206646 158.171783 53.206646 158.171783 
z
" style="fill: #ffffff; opacity: 0.8; stroke: #cccccc; stroke-linejoin: miter"/>
    </g>
    <g id="patch_84">
     <path d="M 55.206646 26.8 
L 75.206646 26.8 
L 75.206646 19.8 
L 55.206646 19.8 
z
" style="fill: #0173b2"/>
    </g>
    <g id="text_24">
     <!-- Africa -->
     <g transform="translate(83.206646 26.8)scale(0.1 -0.1)">
      <defs>
       <path id="CMSS17-66" d="M 1075 2368 
L 1722 2368 
L 1722 2737 
L 1062 2737 
L 1062 3559 
C 1062 4014 1408 4092 1606 4092 
C 1670 4092 1850 4092 2080 4009 
L 2080 4429 
C 1933 4461 1754 4480 1613 4480 
C 1018 4480 602 3993 602 3359 
L 602 2737 
L 160 2737 
L 160 2368 
L 602 2368 
L 602 0 
L 1075 0 
L 1075 2368 
z
" transform="scale(0.015625)"/>
      </defs>
      <use xlink:href="#CMSS17-41" transform="scale(0.996264)"/>
      <use xlink:href="#CMSS17-66" transform="translate(62.217855 0)scale(0.996264)"/>
      <use xlink:href="#CMSS17-72" transform="translate(90.844514 0)scale(0.996264)"/>
      <use xlink:href="#CMSS17-69" transform="translate(122.754286 0)scale(0.996264)"/>
      <use xlink:href="#CMSS17-63" transform="translate(144.935009 0)scale(0.996264)"/>
      <use xlink:href="#CMSS17-61" transform="translate(186.573831 0)scale(0.996264)"/>
     </g>
    </g>
    <g id="patch_85">
     <path d="M 55.206646 40.737178 
L 75.206646 40.737178 
L 75.206646 33.737178 
L 55.206646 33.737178 
z
" style="fill: #de8f05"/>
    </g>
    <g id="text_25">
     <!-- Australia -->
     <g transform="translate(83.206646 40.737178)scale(0.1 -0.1)">
      <use xlink:href="#CMSS17-41" transform="scale(0.996264)"/>
      <use xlink:href="#CMSS17-75" transform="translate(62.217855 0)scale(0.996264)"/>
      <use xlink:href="#CMSS17-73" transform="translate(110.422798 0)scale(0.996264)"/>
      <use xlink:href="#CMSS17-74" transform="translate(146.33634 0)scale(0.996264)"/>
      <use xlink:href="#CMSS17-72" transform="translate(180.167907 0)scale(0.996264)"/>
      <use xlink:href="#CMSS17-61" transform="translate(212.077679 0)scale(0.996264)"/>
      <use xlink:href="#CMSS17-6c" transform="translate(256.9996 0)scale(0.996264)"/>
      <use xlink:href="#CMSS17-69" transform="translate(279.180323 0)scale(0.996264)"/>
      <use xlink:href="#CMSS17-61" transform="translate(301.361046 0)scale(0.996264)"/>
     </g>
    </g>
    <g id="patch_86">
     <path d="M 55.206646 54.674357 
L 75.206646 54.674357 
L 75.206646 47.674357 
L 55.206646 47.674357 
z
" style="fill: #029e73"/>
    </g>
    <g id="text_26">
     <!-- China -->
     <g transform="translate(83.206646 54.674357)scale(0.1 -0.1)">
      <defs>
       <path id="CMSS17-43" d="M 3501 714 
C 3072 427 2874 344 2355 344 
C 1459 344 934 1303 934 2179 
C 934 3112 1472 4032 2381 4032 
C 2790 4032 3059 3918 3386 3715 
L 3475 4217 
C 3168 4370 2778 4440 2387 4440 
C 1158 4440 397 3316 397 2179 
C 397 927 1299 -64 2323 -64 
C 2874 -64 3066 -19 3539 280 
L 3501 714 
z
" transform="scale(0.015625)"/>
      </defs>
      <use xlink:href="#CMSS17-43" transform="scale(0.996264)"/>
      <use xlink:href="#CMSS17-68" transform="translate(59.855772 0)scale(0.996264)"/>
      <use xlink:href="#CMSS17-69" transform="translate(108.060715 0)scale(0.996264)"/>
      <use xlink:href="#CMSS17-6e" transform="translate(130.241438 0)scale(0.996264)"/>
      <use xlink:href="#CMSS17-61" transform="translate(178.446381 0)scale(0.996264)"/>
     </g>
    </g>
    <g id="patch_87">
     <path d="M 55.206646 68.611535 
L 75.206646 68.611535 
L 75.206646 61.611535 
L 55.206646 61.611535 
z
" style="fill: #d55e00"/>
    </g>
    <g id="text_27">
     <!-- Europe -->
     <g transform="translate(83.206646 68.611535)scale(0.1 -0.1)">
      <defs>
       <path id="CMSS17-70" d="M 966 333 
C 1178 129 1466 -5 1773 -5 
C 2368 -5 2880 603 2880 1412 
C 2880 2159 2496 2816 1946 2816 
C 1626 2816 1242 2702 954 2472 
L 954 2765 
L 480 2765 
L 480 -1216 
L 966 -1216 
L 966 333 
z
M 966 2100 
C 1018 2176 1235 2415 1587 2415 
C 2035 2415 2394 1960 2394 1412 
C 2394 787 1958 384 1530 384 
C 1402 384 1267 415 1139 523 
C 966 674 966 768 966 857 
L 966 2100 
z
" transform="scale(0.015625)"/>
      </defs>
      <use xlink:href="#CMSS17-45" transform="scale(0.996264)"/>
      <use xlink:href="#CMSS17-75" transform="translate(55.892013 0)scale(0.996264)"/>
      <use xlink:href="#CMSS17-72" transform="translate(104.096956 0)scale(0.996264)"/>
      <use xlink:href="#CMSS17-6f" transform="translate(136.006729 0)scale(0.996264)"/>
      <use xlink:href="#CMSS17-70" transform="translate(182.850352 0)scale(0.996264)"/>
      <use xlink:href="#CMSS17-65" transform="translate(233.657734 0)scale(0.996264)"/>
     </g>
    </g>
    <g id="patch_88">
     <path d="M 55.206646 82.548713 
L 75.206646 82.548713 
L 75.206646 75.548713 
L 55.206646 75.548713 
z
" style="fill: #cc78bc"/>
    </g>
    <g id="text_28">
     <!-- India -->
     <g transform="translate(83.206646 82.548713)scale(0.1 -0.1)">
      <use xlink:href="#CMSS17-49" transform="scale(0.996264)"/>
      <use xlink:href="#CMSS17-6e" transform="translate(25.783926 0)scale(0.996264)"/>
      <use xlink:href="#CMSS17-64" transform="translate(73.988869 0)scale(0.996264)"/>
      <use xlink:href="#CMSS17-69" transform="translate(122.193812 0)scale(0.996264)"/>
      <use xlink:href="#CMSS17-61" transform="translate(144.374535 0)scale(0.996264)"/>
     </g>
    </g>
    <g id="patch_89">
     <path d="M 55.206646 96.485892 
L 75.206646 96.485892 
L 75.206646 89.485892 
L 55.206646 89.485892 
z
" style="fill: #ca9161"/>
    </g>
    <g id="text_29">
     <!-- Japan and Korea -->
     <g transform="translate(83.206646 96.485892)scale(0.1 -0.1)">
      <defs>
       <path id="CMSS17-4b" d="M 2234 2666 
L 3827 4416 
L 3213 4416 
L 1101 2106 
L 1101 4416 
L 563 4416 
L 563 0 
L 1101 0 
L 1101 1432 
L 1875 2278 
L 3315 0 
L 3910 0 
L 2234 2666 
z
" transform="scale(0.015625)"/>
      </defs>
      <use xlink:href="#CMSS17-4a" transform="scale(0.996264)"/>
      <use xlink:href="#CMSS17-61" transform="translate(44.121076 0)scale(0.996264)"/>
      <use xlink:href="#CMSS17-70" transform="translate(89.042996 0)scale(0.996264)"/>
      <use xlink:href="#CMSS17-61" transform="translate(137.247939 0)scale(0.996264)"/>
      <use xlink:href="#CMSS17-6e" transform="translate(182.16986 0)scale(0.996264)"/>
      <use xlink:href="#CMSS17-61" transform="translate(261.603916 0)scale(0.996264)"/>
      <use xlink:href="#CMSS17-6e" transform="translate(306.525836 0)scale(0.996264)"/>
      <use xlink:href="#CMSS17-64" transform="translate(354.730779 0)scale(0.996264)"/>
      <use xlink:href="#CMSS17-4b" transform="translate(434.164835 0)scale(0.996264)"/>
      <use xlink:href="#CMSS17-6f" transform="translate(498.985129 0)scale(0.996264)"/>
      <use xlink:href="#CMSS17-72" transform="translate(543.226299 0)scale(0.996264)"/>
      <use xlink:href="#CMSS17-65" transform="translate(575.136071 0)scale(0.996264)"/>
      <use xlink:href="#CMSS17-61" transform="translate(616.774893 0)scale(0.996264)"/>
     </g>
    </g>
    <g id="patch_90">
     <path d="M 55.206646 110.42307 
L 75.206646 110.42307 
L 75.206646 103.42307 
L 55.206646 103.42307 
z
" style="fill: #fbafe4"/>
    </g>
    <g id="text_30">
     <!-- Latin America -->
     <g transform="translate(83.206646 110.42307)scale(0.1 -0.1)">
      <defs>
       <path id="CMSS17-4c" d="M 1670 414 
C 1594 414 1517 414 1440 414 
L 1101 414 
L 1101 4416 
L 563 4416 
L 563 0 
L 3002 0 
L 3002 414 
L 1670 414 
z
" transform="scale(0.015625)"/>
      </defs>
      <use xlink:href="#CMSS17-4c" transform="scale(0.996264)"/>
      <use xlink:href="#CMSS17-61" transform="translate(50.687105 0)scale(0.996264)"/>
      <use xlink:href="#CMSS17-74" transform="translate(95.609026 0)scale(0.996264)"/>
      <use xlink:href="#CMSS17-69" transform="translate(129.440593 0)scale(0.996264)"/>
      <use xlink:href="#CMSS17-6e" transform="translate(151.621316 0)scale(0.996264)"/>
      <use xlink:href="#CMSS17-41" transform="translate(231.055372 0)scale(0.996264)"/>
      <use xlink:href="#CMSS17-6d" transform="translate(293.273226 0)scale(0.996264)"/>
      <use xlink:href="#CMSS17-65" transform="translate(367.502481 0)scale(0.996264)"/>
      <use xlink:href="#CMSS17-72" transform="translate(409.141303 0)scale(0.996264)"/>
      <use xlink:href="#CMSS17-69" transform="translate(441.051076 0)scale(0.996264)"/>
      <use xlink:href="#CMSS17-63" transform="translate(463.231799 0)scale(0.996264)"/>
      <use xlink:href="#CMSS17-61" transform="translate(504.870621 0)scale(0.996264)"/>
     </g>
    </g>
    <g id="patch_91">
     <path d="M 55.206646 124.360248 
L 75.206646 124.360248 
L 75.206646 117.360248 
L 55.206646 117.360248 
z
" style="fill: #949494"/>
    </g>
    <g id="text_31">
     <!-- Middle East -->
     <g transform="translate(83.206646 124.360248)scale(0.1 -0.1)">
      <defs>
       <path id="CMSS17-4d" d="M 3194 2371 
L 2886 1473 
C 2835 1307 2662 791 2624 587 
L 2618 587 
C 2598 715 2560 849 2458 1174 
C 2400 1365 2336 1562 2272 1741 
L 1325 4416 
L 576 4416 
L 576 0 
L 1075 0 
L 1075 3900 
L 1082 3900 
C 1082 3894 1139 3613 1530 2499 
L 2374 96 
L 2848 96 
L 3610 2231 
C 3661 2378 3821 2843 3891 3066 
C 3955 3257 4115 3728 4154 3913 
L 4160 3913 
L 4160 0 
L 4666 0 
L 4666 4416 
L 3923 4416 
L 3194 2371 
z
" transform="scale(0.015625)"/>
      </defs>
      <use xlink:href="#CMSS17-4d" transform="scale(0.996264)"/>
      <use xlink:href="#CMSS17-69" transform="translate(81.67603 0)scale(0.996264)"/>
      <use xlink:href="#CMSS17-64" transform="translate(103.856753 0)scale(0.996264)"/>
      <use xlink:href="#CMSS17-64" transform="translate(152.061696 0)scale(0.996264)"/>
      <use xlink:href="#CMSS17-6c" transform="translate(200.266639 0)scale(0.996264)"/>
      <use xlink:href="#CMSS17-65" transform="translate(222.447362 0)scale(0.996264)"/>
      <use xlink:href="#CMSS17-45" transform="translate(295.315297 0)scale(0.996264)"/>
      <use xlink:href="#CMSS17-61" transform="translate(351.20731 0)scale(0.996264)"/>
      <use xlink:href="#CMSS17-73" transform="translate(396.129231 0)scale(0.996264)"/>
      <use xlink:href="#CMSS17-74" transform="translate(432.042773 0)scale(0.996264)"/>
     </g>
    </g>
    <g id="patch_92">
     <path d="M 55.206646 138.297427 
L 75.206646 138.297427 
L 75.206646 131.297427 
L 55.206646 131.297427 
z
" style="fill: #ece133"/>
    </g>
    <g id="text_32">
     <!-- Rest of Asia -->
     <g transform="translate(83.206646 138.297427)scale(0.1 -0.1)">
      <defs>
       <path id="CMSS17-52" d="M 2522 2109 
L 2534 2115 
C 3533 2459 3539 3147 3539 3268 
C 3539 3873 2925 4453 2003 4453 
L 570 4453 
L 570 32 
L 1094 32 
L 1094 2048 
L 2035 2048 
L 3168 32 
L 3706 32 
L 2522 2109 
z
M 1094 2437 
L 1094 4096 
L 1933 4096 
C 2746 4096 3034 3637 3034 3267 
C 3034 2922 2778 2437 1933 2437 
L 1094 2437 
z
" transform="scale(0.015625)"/>
      </defs>
      <use xlink:href="#CMSS17-52" transform="scale(0.996264)"/>
      <use xlink:href="#CMSS17-65" transform="translate(60.416155 0)scale(0.996264)"/>
      <use xlink:href="#CMSS17-73" transform="translate(102.054977 0)scale(0.996264)"/>
      <use xlink:href="#CMSS17-74" transform="translate(137.968519 0)scale(0.996264)"/>
      <use xlink:href="#CMSS17-6f" transform="translate(203.029198 0)scale(0.996264)"/>
      <use xlink:href="#CMSS17-66" transform="translate(249.872822 0)scale(0.996264)"/>
      <use xlink:href="#CMSS17-41" transform="translate(309.728593 0)scale(0.996264)"/>
      <use xlink:href="#CMSS17-73" transform="translate(371.946448 0)scale(0.996264)"/>
      <use xlink:href="#CMSS17-69" transform="translate(407.85999 0)scale(0.996264)"/>
      <use xlink:href="#CMSS17-61" transform="translate(430.040713 0)scale(0.996264)"/>
     </g>
    </g>
    <g id="patch_93">
     <path d="M 55.206646 152.234605 
L 75.206646 152.234605 
L 75.206646 145.234605 
L 55.206646 145.234605 
z
" style="fill: #56b4e9"/>
    </g>
    <g id="text_33">
     <!-- USA and Canada -->
     <g transform="translate(83.206646 152.234605)scale(0.1 -0.1)">
      <defs>
       <path id="CMSS17-55" d="M 3552 4384 
L 3066 4384 
L 3066 1449 
C 3066 604 2547 229 2074 229 
C 1587 229 1101 623 1101 1443 
L 1101 4384 
L 563 4384 
L 563 1454 
C 563 539 1274 -128 2067 -128 
C 2861 -128 3552 539 3552 1454 
L 3552 4384 
z
" transform="scale(0.015625)"/>
       <path id="CMSS17-53" d="M 2797 4169 
C 2515 4334 2208 4480 1690 4480 
C 864 4480 333 3879 333 3266 
C 333 3025 403 2753 653 2475 
C 902 2196 1184 2121 1542 2033 
C 1690 1994 1939 1924 1984 1906 
C 2342 1767 2515 1444 2515 1140 
C 2515 742 2202 318 1645 318 
C 1453 318 890 318 358 819 
L 269 318 
C 794 -64 1363 -128 1651 -128 
C 2438 -128 3002 488 3002 1186 
C 3002 1440 2925 1763 2656 2061 
C 2394 2347 2163 2410 1638 2549 
C 1338 2626 1146 2677 986 2873 
C 877 3013 819 3146 819 3317 
C 819 3673 1126 4060 1690 4060 
C 1971 4060 2336 4002 2707 3660 
L 2797 4169 
z
" transform="scale(0.015625)"/>
      </defs>
      <use xlink:href="#CMSS17-55" transform="scale(0.996264)"/>
      <use xlink:href="#CMSS17-53" transform="translate(64.13974 0)scale(0.996264)"/>
      <use xlink:href="#CMSS17-41" transform="translate(116.188256 0)scale(0.996264)"/>
      <use xlink:href="#CMSS17-61" transform="translate(209.635224 0)scale(0.996264)"/>
      <use xlink:href="#CMSS17-6e" transform="translate(254.557145 0)scale(0.996264)"/>
      <use xlink:href="#CMSS17-64" transform="translate(302.762088 0)scale(0.996264)"/>
      <use xlink:href="#CMSS17-43" transform="translate(382.196144 0)scale(0.996264)"/>
      <use xlink:href="#CMSS17-61" transform="translate(442.051915 0)scale(0.996264)"/>
      <use xlink:href="#CMSS17-6e" transform="translate(486.973836 0)scale(0.996264)"/>
      <use xlink:href="#CMSS17-61" transform="translate(535.178779 0)scale(0.996264)"/>
      <use xlink:href="#CMSS17-64" transform="translate(580.1007 0)scale(0.996264)"/>
      <use xlink:href="#CMSS17-61" transform="translate(628.305643 0)scale(0.996264)"/>
     </g>
    </g>
   </g>
  </g>
 </g>
 <defs>
  <clipPath id="p36b77f426c">
   <rect x="46.206646" y="10.8" width="518.993354" height="518.100318"/>
  </clipPath>
 </defs>
</svg>
