<?xml version="1.0" encoding="utf-8" standalone="no"?>
<!DOCTYPE svg PUBLIC "-//W3C//DTD SVG 1.1//EN"
  "http://www.w3.org/Graphics/SVG/1.1/DTD/svg11.dtd">
<svg xmlns:xlink="http://www.w3.org/1999/xlink" width="720pt" height="360pt" viewBox="0 0 720 360" xmlns="http://www.w3.org/2000/svg" version="1.1">
 <metadata>
  <rdf:RDF xmlns:dc="http://purl.org/dc/elements/1.1/" xmlns:cc="http://creativecommons.org/ns#" xmlns:rdf="http://www.w3.org/1999/02/22-rdf-syntax-ns#">
   <cc:Work>
    <dc:type rdf:resource="http://purl.org/dc/dcmitype/StillImage"/>
    <dc:date>2023-04-16T17:48:04.829797</dc:date>
    <dc:format>image/svg+xml</dc:format>
    <dc:creator>
     <cc:Agent>
      <dc:title>Matplotlib v3.5.1, https://matplotlib.org/</dc:title>
     </cc:Agent>
    </dc:creator>
   </cc:Work>
  </rdf:RDF>
 </metadata>
 <defs>
  <style type="text/css">*{stroke-linejoin: round; stroke-linecap: butt}</style>
 </defs>
 <g id="figure_1">
  <g id="patch_1">
   <path d="M 0 360 
L 720 360 
L 720 0 
L 0 0 
z
" style="fill: #ffffff"/>
  </g>
  <g id="axes_1">
   <g id="matplotlib.axis_1"/>
   <g id="matplotlib.axis_2"/>
   <g id="patch_2">
    <path d="M 267.974562 181.260181 
C 267.974562 176.527956 267.675358 171.800461 267.078742 167.105996 
C 266.482125 162.411531 265.589289 157.759481 264.405578 153.177693 
L 155.706779 181.260181 
L 267.974562 181.260181 
z
" style="fill: #0173b2"/>
   </g>
   <g id="patch_3">
    <path d="M 264.405578 153.177693 
C 257.666752 127.09374 241.759128 104.287246 219.608601 88.953019 
C 197.458073 73.618791 170.511396 66.758379 143.724881 69.63362 
L 155.706779 181.260181 
L 264.405578 153.177693 
z
" style="fill: #de8f05"/>
   </g>
   <g id="patch_4">
    <path d="M 143.724881 69.63362 
C 121.346269 72.035721 100.198826 81.112817 83.04202 95.680465 
C 65.885214 110.248113 53.499227 129.643869 47.50027 151.336838 
C 41.501314 173.029806 42.162182 196.03353 49.39664 217.346319 
C 56.631098 238.659108 70.11017 257.311793 88.075009 270.87044 
L 155.706779 181.260181 
L 143.724881 69.63362 
z
" style="fill: #029e73"/>
   </g>
   <g id="patch_5">
    <path d="M 88.075009 270.87044 
C 92.556768 274.25297 97.28598 277.294513 102.222817 279.969455 
C 107.159653 282.644397 112.290218 284.945208 117.571303 286.852512 
L 155.706779 181.260181 
L 88.075009 270.87044 
z
" style="fill: #d55e00"/>
   </g>
   <g id="patch_6">
    <path d="M 117.571303 286.852512 
C 121.33107 288.210381 125.160679 289.366473 129.043763 290.315848 
C 132.926847 291.265223 136.857868 292.006527 140.820025 292.536591 
L 155.706779 181.260181 
L 117.571303 286.852512 
z
" style="fill: #cc78bc"/>
   </g>
   <g id="patch_7">
    <path d="M 140.820025 292.536591 
C 140.849224 292.540498 140.878425 292.544392 140.907628 292.548276 
C 140.93683 292.552159 140.966035 292.556031 140.99524 292.559892 
L 155.706779 181.260181 
L 140.820025 292.536591 
z
" style="fill: #ca9161"/>
   </g>
   <g id="patch_8">
    <path d="M 140.99524 292.559892 
C 158.83296 294.917672 176.978833 292.953055 193.898582 286.832152 
C 210.818332 280.71125 226.02126 270.611578 238.221925 257.387086 
L 155.706779 181.260181 
L 140.99524 292.559892 
z
" style="fill: #fbafe4"/>
   </g>
   <g id="patch_9">
    <path d="M 238.221925 257.387086 
C 239.826199 255.648188 241.375105 253.859013 242.866322 252.02224 
C 244.35754 250.185467 245.790323 248.302015 247.162526 246.374706 
L 155.706779 181.260181 
L 238.221925 257.387086 
z
" style="fill: #949494"/>
   </g>
   <g id="patch_10">
    <path d="M 247.162526 246.374706 
C 251.031487 240.940607 254.408438 235.172478 257.25328 229.13881 
C 260.098122 223.105141 262.399552 216.829909 264.13024 210.387627 
L 155.706779 181.260181 
L 247.162526 246.374706 
z
" style="fill: #ece133"/>
   </g>
   <g id="patch_11">
    <path d="M 264.13024 210.387627 
C 265.404774 205.643325 266.36654 200.820479 267.009333 195.950196 
C 267.652126 191.079913 267.974562 186.172686 267.974562 181.260167 
L 155.706779 181.260181 
L 264.13024 210.387627 
z
" style="fill: #56b4e9"/>
   </g>
   <g id="text_1">
    <!-- Africa -->
    <g transform="translate(278.215938 168.181238)scale(0.1 -0.1)">
     <defs>
      <path id="CMSS17-41" d="M 2272 4416 
L 1722 4416 
L 166 0 
L 653 0 
L 1101 1280 
L 2816 1280 
L 3270 0 
L 3827 0 
L 2272 4416 
z
M 2694 1637 
L 1222 1637 
C 1530 2528 1914 3638 1958 3925 
L 1965 3925 
C 2010 3663 2138 3281 2246 2956 
L 2694 1637 
z
" transform="scale(0.015625)"/>
      <path id="CMSS17-66" d="M 1075 2368 
L 1722 2368 
L 1722 2737 
L 1062 2737 
L 1062 3559 
C 1062 4014 1408 4092 1606 4092 
C 1670 4092 1850 4092 2080 4009 
L 2080 4429 
C 1933 4461 1754 4480 1613 4480 
C 1018 4480 602 3993 602 3359 
L 602 2737 
L 160 2737 
L 160 2368 
L 602 2368 
L 602 0 
L 1075 0 
L 1075 2368 
z
" transform="scale(0.015625)"/>
      <path id="CMSS17-72" d="M 954 1363 
C 954 1965 1395 2368 1958 2368 
L 1958 2789 
C 1549 2789 1165 2585 934 2253 
L 934 2758 
L 480 2758 
L 480 0 
L 954 0 
L 954 1363 
z
" transform="scale(0.015625)"/>
      <path id="CMSS17-69" d="M 979 4183 
L 442 4183 
L 442 3648 
L 979 3648 
L 979 4183 
z
M 947 2739 
L 474 2739 
L 474 0 
L 947 0 
L 947 2739 
z
" transform="scale(0.015625)"/>
      <path id="CMSS17-63" d="M 2464 2541 
C 2464 2585 2170 2714 2093 2739 
C 1882 2816 1613 2816 1542 2816 
C 710 2816 211 2093 211 1363 
C 211 595 768 -64 1517 -64 
C 1946 -64 2253 76 2502 242 
L 2464 664 
C 2189 453 1869 337 1523 337 
C 1024 337 698 774 698 1369 
C 698 1831 909 2414 1549 2414 
C 1901 2414 2099 2343 2394 2145 
L 2464 2541 
z
" transform="scale(0.015625)"/>
      <path id="CMSS17-61" d="M 2406 1791 
C 2406 2392 1978 2808 1402 2808 
C 1120 2808 813 2757 461 2553 
L 499 2135 
C 659 2248 934 2432 1395 2432 
C 1722 2432 1920 2180 1920 1782 
L 1920 1536 
C 896 1536 256 1238 256 726 
C 256 461 416 -64 947 -64 
C 1043 -64 1562 -64 1933 217 
L 1933 -19 
L 2406 -19 
L 2406 1791 
z
M 1920 816 
C 1920 701 1920 548 1728 434 
C 1562 325 1350 325 1261 325 
C 941 325 723 511 723 744 
C 723 1211 1722 1211 1920 1211 
L 1920 816 
z
" transform="scale(0.015625)"/>
     </defs>
     <use xlink:href="#CMSS17-41" transform="scale(0.996264)"/>
     <use xlink:href="#CMSS17-66" transform="translate(62.217855 0)scale(0.996264)"/>
     <use xlink:href="#CMSS17-72" transform="translate(90.844514 0)scale(0.996264)"/>
     <use xlink:href="#CMSS17-69" transform="translate(122.754286 0)scale(0.996264)"/>
     <use xlink:href="#CMSS17-63" transform="translate(144.935009 0)scale(0.996264)"/>
     <use xlink:href="#CMSS17-61" transform="translate(186.573831 0)scale(0.996264)"/>
    </g>
   </g>
   <g id="text_2">
    <!-- 4.0% -->
    <g transform="translate(216.164917 175.25833)scale(0.1 -0.1)">
     <defs>
      <path id="CMSS17-34" d="M 2253 1088 
L 2835 1088 
L 2835 1477 
L 2253 1477 
L 2253 4192 
L 1690 4192 
L 166 1477 
L 166 1088 
L 1747 1088 
L 1747 0 
L 2253 0 
L 2253 1088 
z
M 659 1477 
C 1030 2127 1766 3439 1766 3885 
L 1766 1477 
L 659 1477 
z
" transform="scale(0.015625)"/>
      <path id="CMSS17-2e" d="M 1088 510 
L 576 510 
L 576 0 
L 1088 0 
L 1088 510 
z
" transform="scale(0.015625)"/>
      <path id="CMSS17-30" d="M 2758 2044 
C 2758 2405 2752 3077 2490 3596 
C 2227 4096 1805 4229 1504 4229 
C 1069 4229 698 3975 506 3570 
C 301 3146 243 2709 243 2044 
C 243 1589 262 1031 493 543 
C 755 5 1197 -128 1498 -128 
C 1894 -128 2278 81 2496 518 
C 2720 974 2758 1474 2758 2044 
z
M 1498 261 
C 1011 261 864 811 819 995 
C 742 1310 730 1614 730 2114 
C 730 2506 730 2948 851 3297 
C 998 3701 1254 3840 1498 3840 
C 1971 3840 2125 3372 2176 3208 
C 2272 2873 2272 2481 2272 2114 
C 2272 1526 2272 261 1498 261 
z
" transform="scale(0.015625)"/>
     </defs>
     <use xlink:href="#CMSS17-34" transform="scale(0.996264)"/>
     <use xlink:href="#CMSS17-2e" transform="translate(46.843624 0)scale(0.996264)"/>
     <use xlink:href="#CMSS17-30" transform="translate(72.867828 0)scale(0.996264)"/>
    </g>
   </g>
   <g id="text_3">
    <!-- Australia -->
    <g transform="translate(225.998783 82.212962)scale(0.1 -0.1)">
     <defs>
      <path id="CMSS17-75" d="M 2618 2739 
L 2131 2739 
L 2131 972 
C 2131 498 1786 306 1421 306 
C 998 306 960 447 960 709 
L 960 2739 
L 474 2739 
L 474 678 
C 474 179 646 -64 1088 -64 
C 1306 -64 1798 -13 2144 306 
L 2144 0 
L 2618 0 
L 2618 2739 
z
" transform="scale(0.015625)"/>
      <path id="CMSS17-73" d="M 2061 2627 
C 1683 2807 1389 2807 1197 2807 
C 742 2807 198 2648 198 2003 
C 198 1359 902 1218 1094 1179 
C 1389 1122 1715 1058 1715 740 
C 1715 337 1254 337 1171 337 
C 915 337 563 407 243 638 
L 166 210 
C 531 0 883 -64 1178 -64 
C 1965 -64 2163 416 2163 781 
C 2163 1094 1984 1305 1862 1401 
C 1651 1568 1574 1587 1050 1696 
C 960 1709 646 1779 646 2066 
C 646 2432 1050 2432 1139 2432 
C 1555 2432 1811 2303 1984 2208 
L 2061 2627 
z
" transform="scale(0.015625)"/>
      <path id="CMSS17-74" d="M 1069 2368 
L 1901 2368 
L 1901 2737 
L 1069 2737 
L 1069 3520 
L 614 3520 
L 614 2737 
L 109 2737 
L 109 2368 
L 602 2368 
L 602 749 
C 602 384 685 -64 1107 -64 
C 1427 -64 1722 25 2003 172 
L 1901 548 
C 1747 414 1562 337 1363 337 
C 1082 337 1069 696 1069 856 
L 1069 2368 
z
" transform="scale(0.015625)"/>
      <path id="CMSS17-6c" d="M 947 4416 
L 474 4416 
L 474 0 
L 947 0 
L 947 4416 
z
" transform="scale(0.015625)"/>
     </defs>
     <use xlink:href="#CMSS17-41" transform="scale(0.996264)"/>
     <use xlink:href="#CMSS17-75" transform="translate(62.217855 0)scale(0.996264)"/>
     <use xlink:href="#CMSS17-73" transform="translate(110.422798 0)scale(0.996264)"/>
     <use xlink:href="#CMSS17-74" transform="translate(146.33634 0)scale(0.996264)"/>
     <use xlink:href="#CMSS17-72" transform="translate(180.167907 0)scale(0.996264)"/>
     <use xlink:href="#CMSS17-61" transform="translate(212.077679 0)scale(0.996264)"/>
     <use xlink:href="#CMSS17-6c" transform="translate(256.9996 0)scale(0.996264)"/>
     <use xlink:href="#CMSS17-69" transform="translate(279.180323 0)scale(0.996264)"/>
     <use xlink:href="#CMSS17-61" transform="translate(301.361046 0)scale(0.996264)"/>
    </g>
   </g>
   <g id="text_4">
    <!-- 22.7% -->
    <g transform="translate(185.192165 128.366543)scale(0.1 -0.1)">
     <defs>
      <path id="CMSS17-32" d="M 1651 1357 
C 1830 1541 2099 1764 2285 1987 
C 2464 2204 2701 2511 2701 2957 
C 2701 3657 2227 4288 1421 4288 
C 787 4288 422 3893 250 3274 
L 499 2929 
C 640 3510 838 3880 1338 3880 
C 1888 3880 2195 3433 2195 2942 
C 2195 2355 1747 1901 1408 1563 
C 1030 1187 659 804 301 408 
L 301 0 
L 2701 0 
L 2701 433 
L 1613 433 
C 1536 433 1459 433 1382 433 
L 742 433 
L 742 439 
L 1651 1357 
z
" transform="scale(0.015625)"/>
      <path id="CMSS17-37" d="M 1389 3776 
C 1466 3776 1542 3776 1619 3776 
L 2355 3776 
C 1440 2711 915 1365 915 -32 
L 1427 -32 
C 1427 1323 1875 2696 2752 3795 
L 2752 4209 
L 250 4209 
L 250 3776 
L 1389 3776 
z
" transform="scale(0.015625)"/>
     </defs>
     <use xlink:href="#CMSS17-32" transform="scale(0.996264)"/>
     <use xlink:href="#CMSS17-32" transform="translate(46.843624 0)scale(0.996264)"/>
     <use xlink:href="#CMSS17-2e" transform="translate(93.687247 0)scale(0.996264)"/>
     <use xlink:href="#CMSS17-37" transform="translate(119.711452 0)scale(0.996264)"/>
    </g>
   </g>
   <g id="text_5">
    <!-- China -->
    <g transform="translate(12.85227 150.835164)scale(0.1 -0.1)">
     <defs>
      <path id="CMSS17-43" d="M 3501 714 
C 3072 427 2874 344 2355 344 
C 1459 344 934 1303 934 2179 
C 934 3112 1472 4032 2381 4032 
C 2790 4032 3059 3918 3386 3715 
L 3475 4217 
C 3168 4370 2778 4440 2387 4440 
C 1158 4440 397 3316 397 2179 
C 397 927 1299 -64 2323 -64 
C 2874 -64 3066 -19 3539 280 
L 3501 714 
z
" transform="scale(0.015625)"/>
      <path id="CMSS17-68" d="M 2618 1891 
C 2618 2292 2522 2820 1798 2820 
C 1395 2820 1133 2623 947 2407 
L 947 4448 
L 474 4448 
L 474 32 
L 960 32 
L 960 1573 
C 960 1973 1114 2432 1549 2432 
C 2112 2432 2131 2056 2131 1839 
L 2131 32 
L 2618 32 
L 2618 1891 
z
" transform="scale(0.015625)"/>
      <path id="CMSS17-6e" d="M 2618 1877 
C 2618 2283 2522 2816 1798 2816 
C 1389 2816 1120 2606 941 2389 
L 941 2758 
L 474 2758 
L 474 0 
L 960 0 
L 960 1559 
C 960 1964 1114 2428 1549 2428 
C 2112 2428 2131 2048 2131 1829 
L 2131 0 
L 2618 0 
L 2618 1877 
z
" transform="scale(0.015625)"/>
     </defs>
     <use xlink:href="#CMSS17-43" transform="scale(0.996264)"/>
     <use xlink:href="#CMSS17-68" transform="translate(59.855772 0)scale(0.996264)"/>
     <use xlink:href="#CMSS17-69" transform="translate(108.060715 0)scale(0.996264)"/>
     <use xlink:href="#CMSS17-6e" transform="translate(130.241438 0)scale(0.996264)"/>
     <use xlink:href="#CMSS17-61" transform="translate(178.446381 0)scale(0.996264)"/>
    </g>
   </g>
   <g id="text_6">
    <!-- 38.0% -->
    <g transform="translate(81.927167 165.796835)scale(0.1 -0.1)">
     <defs>
      <path id="CMSS17-33" d="M 1005 2025 
L 1440 2025 
C 2042 2025 2214 1507 2214 1146 
C 2214 653 1933 267 1472 267 
C 1114 267 608 444 320 912 
C 275 691 275 678 250 526 
C 550 88 1037 -128 1485 -128 
C 2214 -128 2752 473 2752 1138 
C 2752 1638 2400 2057 1920 2215 
C 2304 2424 2586 2816 2586 3273 
C 2586 3805 2093 4229 1491 4229 
C 941 4229 512 3892 333 3530 
C 378 3468 493 3284 550 3189 
C 691 3562 1056 3840 1485 3840 
C 1843 3840 2080 3607 2080 3271 
C 2080 2923 1856 2543 1478 2455 
C 1453 2455 1056 2417 1005 2411 
L 1005 2025 
z
" transform="scale(0.015625)"/>
      <path id="CMSS17-38" d="M 1933 2222 
C 2419 2380 2669 2760 2669 3134 
C 2669 3722 2157 4229 1504 4229 
C 826 4229 333 3708 333 3144 
C 333 2780 576 2403 1069 2241 
C 442 1997 250 1512 250 1149 
C 250 446 819 -128 1498 -128 
C 2202 -128 2752 455 2752 1138 
C 2752 1557 2502 2000 1933 2222 
z
M 1504 2432 
C 1075 2432 787 2712 787 3136 
C 787 3566 1075 3840 1504 3840 
C 1901 3840 2214 3591 2214 3136 
C 2214 2687 1907 2432 1504 2432 
z
M 1504 267 
C 1139 267 749 517 749 1156 
C 749 1813 1184 2043 1498 2043 
C 1843 2043 2253 1800 2253 1156 
C 2253 491 1830 267 1504 267 
z
" transform="scale(0.015625)"/>
     </defs>
     <use xlink:href="#CMSS17-33" transform="scale(0.996264)"/>
     <use xlink:href="#CMSS17-38" transform="translate(46.843624 0)scale(0.996264)"/>
     <use xlink:href="#CMSS17-2e" transform="translate(93.687247 0)scale(0.996264)"/>
     <use xlink:href="#CMSS17-30" transform="translate(119.711452 0)scale(0.996264)"/>
    </g>
   </g>
   <g id="text_7">
    <!-- Europe -->
    <g transform="translate(67.539921 292.331042)scale(0.1 -0.1)">
     <defs>
      <path id="CMSS17-45" d="M 1958 433 
C 1446 433 1216 433 1101 433 
L 1101 2107 
L 3085 2107 
L 3085 2496 
L 1101 2496 
L 1101 4009 
L 1926 4009 
C 2003 4009 2080 4009 2157 4009 
L 3251 4009 
L 3251 4416 
L 563 4416 
L 563 0 
L 3334 0 
L 3334 433 
L 1958 433 
z
" transform="scale(0.015625)"/>
      <path id="CMSS17-6f" d="M 2829 1356 
C 2829 2176 2221 2816 1504 2816 
C 768 2816 173 2157 173 1356 
C 173 544 787 -64 1498 -64 
C 2227 -64 2829 563 2829 1356 
z
M 1504 337 
C 1050 337 659 709 659 1408 
C 659 2151 1114 2427 1498 2427 
C 1914 2427 2342 2126 2342 1408 
C 2342 683 1926 337 1504 337 
z
" transform="scale(0.015625)"/>
      <path id="CMSS17-70" d="M 966 333 
C 1178 129 1466 -5 1773 -5 
C 2368 -5 2880 603 2880 1412 
C 2880 2159 2496 2816 1946 2816 
C 1626 2816 1242 2702 954 2472 
L 954 2765 
L 480 2765 
L 480 -1216 
L 966 -1216 
L 966 333 
z
M 966 2100 
C 1018 2176 1235 2415 1587 2415 
C 2035 2415 2394 1960 2394 1412 
C 2394 787 1958 384 1530 384 
C 1402 384 1267 415 1139 523 
C 966 674 966 768 966 857 
L 966 2100 
z
" transform="scale(0.015625)"/>
      <path id="CMSS17-65" d="M 2502 1377 
C 2502 1590 2490 2003 2285 2345 
C 2061 2713 1696 2816 1421 2816 
C 755 2816 192 2188 192 1375 
C 192 582 774 -64 1510 -64 
C 1798 -64 2150 19 2470 248 
C 2470 274 2458 414 2451 420 
C 2451 433 2432 630 2432 656 
C 2125 407 1773 325 1517 325 
C 1107 325 666 667 646 1377 
L 2502 1377 
z
M 698 1728 
C 781 2084 1062 2421 1421 2421 
C 1517 2421 1965 2421 2080 1728 
L 698 1728 
z
" transform="scale(0.015625)"/>
     </defs>
     <use xlink:href="#CMSS17-45" transform="scale(0.996264)"/>
     <use xlink:href="#CMSS17-75" transform="translate(55.892013 0)scale(0.996264)"/>
     <use xlink:href="#CMSS17-72" transform="translate(104.096956 0)scale(0.996264)"/>
     <use xlink:href="#CMSS17-6f" transform="translate(136.006729 0)scale(0.996264)"/>
     <use xlink:href="#CMSS17-70" transform="translate(182.850352 0)scale(0.996264)"/>
     <use xlink:href="#CMSS17-65" transform="translate(233.657734 0)scale(0.996264)"/>
    </g>
   </g>
   <g id="text_8">
    <!-- 4.8% -->
    <g transform="translate(117.251362 242.976405)scale(0.1 -0.1)">
     <use xlink:href="#CMSS17-34" transform="scale(0.996264)"/>
     <use xlink:href="#CMSS17-2e" transform="translate(46.843624 0)scale(0.996264)"/>
     <use xlink:href="#CMSS17-38" transform="translate(72.867828 0)scale(0.996264)"/>
    </g>
   </g>
   <g id="text_9">
    <!-- India -->
    <g transform="translate(106.14772 303.712075)scale(0.1 -0.1)">
     <defs>
      <path id="CMSS17-49" d="M 1094 4416 
L 557 4416 
L 557 0 
L 1094 0 
L 1094 4416 
z
" transform="scale(0.015625)"/>
      <path id="CMSS17-64" d="M 2611 4416 
L 2138 4416 
L 2138 2438 
C 1939 2603 1613 2756 1254 2756 
C 672 2756 211 2131 211 1347 
C 211 562 666 -64 1235 -64 
C 1677 -64 1971 172 2125 306 
L 2125 -13 
L 2611 -13 
L 2611 4416 
z
M 2125 836 
C 2125 747 2125 653 1926 482 
C 1798 375 1645 325 1498 325 
C 1152 325 698 576 698 1340 
C 698 2134 1210 2368 1562 2368 
C 1798 2368 1990 2254 2125 2065 
L 2125 836 
z
" transform="scale(0.015625)"/>
     </defs>
     <use xlink:href="#CMSS17-49" transform="scale(0.996264)"/>
     <use xlink:href="#CMSS17-6e" transform="translate(25.783926 0)scale(0.996264)"/>
     <use xlink:href="#CMSS17-64" transform="translate(73.988869 0)scale(0.996264)"/>
     <use xlink:href="#CMSS17-69" transform="translate(122.193812 0)scale(0.996264)"/>
     <use xlink:href="#CMSS17-61" transform="translate(144.374535 0)scale(0.996264)"/>
    </g>
   </g>
   <g id="text_10">
    <!-- 3.4% -->
    <g transform="translate(133.34393 249.184241)scale(0.1 -0.1)">
     <use xlink:href="#CMSS17-33" transform="scale(0.996264)"/>
     <use xlink:href="#CMSS17-2e" transform="translate(46.843624 0)scale(0.996264)"/>
     <use xlink:href="#CMSS17-34" transform="translate(72.867828 0)scale(0.996264)"/>
    </g>
   </g>
   <g id="text_11">
    <!-- Japan and Korea -->
    <g transform="translate(68.886548 306.167745)scale(0.1 -0.1)">
     <defs>
      <path id="CMSS17-4a" d="M 2336 4384 
L 1811 4384 
L 1811 940 
C 1811 636 1683 261 1107 261 
C 781 261 506 414 333 604 
L 250 140 
C 646 -71 1011 -128 1280 -128 
C 1901 -128 2336 228 2336 920 
L 2336 4384 
z
" transform="scale(0.015625)"/>
      <path id="CMSS17-4b" d="M 2234 2666 
L 3827 4416 
L 3213 4416 
L 1101 2106 
L 1101 4416 
L 563 4416 
L 563 0 
L 1101 0 
L 1101 1432 
L 1875 2278 
L 3315 0 
L 3910 0 
L 2234 2666 
z
" transform="scale(0.015625)"/>
     </defs>
     <use xlink:href="#CMSS17-4a" transform="scale(0.996264)"/>
     <use xlink:href="#CMSS17-61" transform="translate(44.121076 0)scale(0.996264)"/>
     <use xlink:href="#CMSS17-70" transform="translate(89.042996 0)scale(0.996264)"/>
     <use xlink:href="#CMSS17-61" transform="translate(137.247939 0)scale(0.996264)"/>
     <use xlink:href="#CMSS17-6e" transform="translate(182.16986 0)scale(0.996264)"/>
     <use xlink:href="#CMSS17-61" transform="translate(261.603916 0)scale(0.996264)"/>
     <use xlink:href="#CMSS17-6e" transform="translate(306.525836 0)scale(0.996264)"/>
     <use xlink:href="#CMSS17-64" transform="translate(354.730779 0)scale(0.996264)"/>
     <use xlink:href="#CMSS17-4b" transform="translate(434.164835 0)scale(0.996264)"/>
     <use xlink:href="#CMSS17-6f" transform="translate(498.985129 0)scale(0.996264)"/>
     <use xlink:href="#CMSS17-72" transform="translate(543.226299 0)scale(0.996264)"/>
     <use xlink:href="#CMSS17-65" transform="translate(575.136071 0)scale(0.996264)"/>
     <use xlink:href="#CMSS17-61" transform="translate(616.774893 0)scale(0.996264)"/>
    </g>
   </g>
   <g id="text_12">
    <!-- 0.0% -->
    <g transform="translate(140.462249 250.523698)scale(0.1 -0.1)">
     <use xlink:href="#CMSS17-30" transform="scale(0.996264)"/>
     <use xlink:href="#CMSS17-2e" transform="translate(46.843624 0)scale(0.996264)"/>
     <use xlink:href="#CMSS17-30" transform="translate(72.867828 0)scale(0.996264)"/>
    </g>
   </g>
   <g id="text_13">
    <!-- Latin America -->
    <g transform="translate(197.717762 299.880009)scale(0.1 -0.1)">
     <defs>
      <path id="CMSS17-4c" d="M 1670 414 
C 1594 414 1517 414 1440 414 
L 1101 414 
L 1101 4416 
L 563 4416 
L 563 0 
L 3002 0 
L 3002 414 
L 1670 414 
z
" transform="scale(0.015625)"/>
      <path id="CMSS17-6d" d="M 4288 1877 
C 4288 2308 4179 2816 3462 2816 
C 2982 2816 2694 2516 2566 2331 
C 2451 2670 2182 2816 1798 2816 
C 1363 2816 1088 2568 941 2389 
L 941 2758 
L 474 2758 
L 474 0 
L 960 0 
L 960 1559 
C 960 1939 1101 2428 1555 2428 
C 2138 2428 2138 2016 2138 1829 
L 2138 0 
L 2624 0 
L 2624 1559 
C 2624 1939 2765 2428 3219 2428 
C 3802 2428 3802 2016 3802 1829 
L 3802 0 
L 4288 0 
L 4288 1877 
z
" transform="scale(0.015625)"/>
     </defs>
     <use xlink:href="#CMSS17-4c" transform="scale(0.996264)"/>
     <use xlink:href="#CMSS17-61" transform="translate(50.687105 0)scale(0.996264)"/>
     <use xlink:href="#CMSS17-74" transform="translate(95.609026 0)scale(0.996264)"/>
     <use xlink:href="#CMSS17-69" transform="translate(129.440593 0)scale(0.996264)"/>
     <use xlink:href="#CMSS17-6e" transform="translate(151.621316 0)scale(0.996264)"/>
     <use xlink:href="#CMSS17-41" transform="translate(231.055372 0)scale(0.996264)"/>
     <use xlink:href="#CMSS17-6d" transform="translate(293.273226 0)scale(0.996264)"/>
     <use xlink:href="#CMSS17-65" transform="translate(367.502481 0)scale(0.996264)"/>
     <use xlink:href="#CMSS17-72" transform="translate(409.141303 0)scale(0.996264)"/>
     <use xlink:href="#CMSS17-69" transform="translate(441.051076 0)scale(0.996264)"/>
     <use xlink:href="#CMSS17-63" transform="translate(463.231799 0)scale(0.996264)"/>
     <use xlink:href="#CMSS17-61" transform="translate(504.870621 0)scale(0.996264)"/>
    </g>
   </g>
   <g id="text_14">
    <!-- 15.2% -->
    <g transform="translate(169.766154 247.094024)scale(0.1 -0.1)">
     <defs>
      <path id="CMSS17-31" d="M 1818 4288 
L 1696 4288 
C 1350 3940 947 3890 538 3890 
L 538 3520 
C 723 3520 1024 3520 1325 3667 
L 1325 369 
L 570 369 
L 570 0 
L 2573 0 
L 2573 369 
L 1818 369 
L 1818 4288 
z
" transform="scale(0.015625)"/>
      <path id="CMSS17-35" d="M 934 3752 
L 2502 3752 
L 2502 4160 
L 467 4160 
L 467 1781 
L 896 1781 
C 1011 2046 1248 2240 1555 2240 
C 1843 2240 2163 1989 2163 1266 
C 2163 493 1709 267 1376 267 
C 966 267 589 512 422 851 
L 218 499 
C 512 49 992 -128 1376 -128 
C 2118 -128 2701 497 2701 1253 
C 2701 2030 2182 2629 1562 2629 
C 1338 2629 1120 2553 934 2399 
L 934 3752 
z
" transform="scale(0.015625)"/>
     </defs>
     <use xlink:href="#CMSS17-31" transform="scale(0.996264)"/>
     <use xlink:href="#CMSS17-35" transform="translate(46.843624 0)scale(0.996264)"/>
     <use xlink:href="#CMSS17-2e" transform="translate(93.687247 0)scale(0.996264)"/>
     <use xlink:href="#CMSS17-32" transform="translate(119.711452 0)scale(0.996264)"/>
    </g>
   </g>
   <g id="text_15">
    <!-- Middle East -->
    <g transform="translate(251.582277 261.589106)scale(0.1 -0.1)">
     <defs>
      <path id="CMSS17-4d" d="M 3194 2371 
L 2886 1473 
C 2835 1307 2662 791 2624 587 
L 2618 587 
C 2598 715 2560 849 2458 1174 
C 2400 1365 2336 1562 2272 1741 
L 1325 4416 
L 576 4416 
L 576 0 
L 1075 0 
L 1075 3900 
L 1082 3900 
C 1082 3894 1139 3613 1530 2499 
L 2374 96 
L 2848 96 
L 3610 2231 
C 3661 2378 3821 2843 3891 3066 
C 3955 3257 4115 3728 4154 3913 
L 4160 3913 
L 4160 0 
L 4666 0 
L 4666 4416 
L 3923 4416 
L 3194 2371 
z
" transform="scale(0.015625)"/>
     </defs>
     <use xlink:href="#CMSS17-4d" transform="scale(0.996264)"/>
     <use xlink:href="#CMSS17-69" transform="translate(81.67603 0)scale(0.996264)"/>
     <use xlink:href="#CMSS17-64" transform="translate(103.856753 0)scale(0.996264)"/>
     <use xlink:href="#CMSS17-64" transform="translate(152.061696 0)scale(0.996264)"/>
     <use xlink:href="#CMSS17-6c" transform="translate(200.266639 0)scale(0.996264)"/>
     <use xlink:href="#CMSS17-65" transform="translate(222.447362 0)scale(0.996264)"/>
     <use xlink:href="#CMSS17-45" transform="translate(295.315297 0)scale(0.996264)"/>
     <use xlink:href="#CMSS17-61" transform="translate(351.20731 0)scale(0.996264)"/>
     <use xlink:href="#CMSS17-73" transform="translate(396.129231 0)scale(0.996264)"/>
     <use xlink:href="#CMSS17-74" transform="translate(432.042773 0)scale(0.996264)"/>
    </g>
   </g>
   <g id="text_16">
    <!-- 2.0% -->
    <g transform="translate(201.637466 226.208076)scale(0.1 -0.1)">
     <use xlink:href="#CMSS17-32" transform="scale(0.996264)"/>
     <use xlink:href="#CMSS17-2e" transform="translate(46.843624 0)scale(0.996264)"/>
     <use xlink:href="#CMSS17-30" transform="translate(72.867828 0)scale(0.996264)"/>
    </g>
   </g>
   <g id="text_17">
    <!-- Rest of Asia -->
    <g transform="translate(267.40793 236.417333)scale(0.1 -0.1)">
     <defs>
      <path id="CMSS17-52" d="M 2522 2109 
L 2534 2115 
C 3533 2459 3539 3147 3539 3268 
C 3539 3873 2925 4453 2003 4453 
L 570 4453 
L 570 32 
L 1094 32 
L 1094 2048 
L 2035 2048 
L 3168 32 
L 3706 32 
L 2522 2109 
z
M 1094 2437 
L 1094 4096 
L 1933 4096 
C 2746 4096 3034 3637 3034 3267 
C 3034 2922 2778 2437 1933 2437 
L 1094 2437 
z
" transform="scale(0.015625)"/>
     </defs>
     <use xlink:href="#CMSS17-52" transform="scale(0.996264)"/>
     <use xlink:href="#CMSS17-65" transform="translate(60.416155 0)scale(0.996264)"/>
     <use xlink:href="#CMSS17-73" transform="translate(102.054977 0)scale(0.996264)"/>
     <use xlink:href="#CMSS17-74" transform="translate(137.968519 0)scale(0.996264)"/>
     <use xlink:href="#CMSS17-6f" transform="translate(203.029198 0)scale(0.996264)"/>
     <use xlink:href="#CMSS17-66" transform="translate(249.872822 0)scale(0.996264)"/>
     <use xlink:href="#CMSS17-41" transform="translate(309.728593 0)scale(0.996264)"/>
     <use xlink:href="#CMSS17-73" transform="translate(371.946448 0)scale(0.996264)"/>
     <use xlink:href="#CMSS17-69" transform="translate(407.85999 0)scale(0.996264)"/>
     <use xlink:href="#CMSS17-61" transform="translate(430.040713 0)scale(0.996264)"/>
    </g>
   </g>
   <g id="text_18">
    <!-- 5.7% -->
    <g transform="translate(210.26964 212.478018)scale(0.1 -0.1)">
     <use xlink:href="#CMSS17-35" transform="scale(0.996264)"/>
     <use xlink:href="#CMSS17-2e" transform="translate(46.843624 0)scale(0.996264)"/>
     <use xlink:href="#CMSS17-37" transform="translate(72.867828 0)scale(0.996264)"/>
    </g>
   </g>
   <g id="text_19">
    <!-- USA and Canada -->
    <g transform="translate(278.139588 199.909857)scale(0.1 -0.1)">
     <defs>
      <path id="CMSS17-55" d="M 3552 4384 
L 3066 4384 
L 3066 1449 
C 3066 604 2547 229 2074 229 
C 1587 229 1101 623 1101 1443 
L 1101 4384 
L 563 4384 
L 563 1454 
C 563 539 1274 -128 2067 -128 
C 2861 -128 3552 539 3552 1454 
L 3552 4384 
z
" transform="scale(0.015625)"/>
      <path id="CMSS17-53" d="M 2797 4169 
C 2515 4334 2208 4480 1690 4480 
C 864 4480 333 3879 333 3266 
C 333 3025 403 2753 653 2475 
C 902 2196 1184 2121 1542 2033 
C 1690 1994 1939 1924 1984 1906 
C 2342 1767 2515 1444 2515 1140 
C 2515 742 2202 318 1645 318 
C 1453 318 890 318 358 819 
L 269 318 
C 794 -64 1363 -128 1651 -128 
C 2438 -128 3002 488 3002 1186 
C 3002 1440 2925 1763 2656 2061 
C 2394 2347 2163 2410 1638 2549 
C 1338 2626 1146 2677 986 2873 
C 877 3013 819 3146 819 3317 
C 819 3673 1126 4060 1690 4060 
C 1971 4060 2336 4002 2707 3660 
L 2797 4169 
z
" transform="scale(0.015625)"/>
     </defs>
     <use xlink:href="#CMSS17-55" transform="scale(0.996264)"/>
     <use xlink:href="#CMSS17-53" transform="translate(64.13974 0)scale(0.996264)"/>
     <use xlink:href="#CMSS17-41" transform="translate(116.188256 0)scale(0.996264)"/>
     <use xlink:href="#CMSS17-61" transform="translate(209.635224 0)scale(0.996264)"/>
     <use xlink:href="#CMSS17-6e" transform="translate(254.557145 0)scale(0.996264)"/>
     <use xlink:href="#CMSS17-64" transform="translate(302.762088 0)scale(0.996264)"/>
     <use xlink:href="#CMSS17-43" transform="translate(382.196144 0)scale(0.996264)"/>
     <use xlink:href="#CMSS17-61" transform="translate(442.051915 0)scale(0.996264)"/>
     <use xlink:href="#CMSS17-6e" transform="translate(486.973836 0)scale(0.996264)"/>
     <use xlink:href="#CMSS17-61" transform="translate(535.178779 0)scale(0.996264)"/>
     <use xlink:href="#CMSS17-64" transform="translate(580.1007 0)scale(0.996264)"/>
     <use xlink:href="#CMSS17-61" transform="translate(628.305643 0)scale(0.996264)"/>
    </g>
   </g>
   <g id="text_20">
    <!-- 4.2% -->
    <g transform="translate(216.123272 192.56485)scale(0.1 -0.1)">
     <use xlink:href="#CMSS17-34" transform="scale(0.996264)"/>
     <use xlink:href="#CMSS17-2e" transform="translate(46.843624 0)scale(0.996264)"/>
     <use xlink:href="#CMSS17-32" transform="translate(72.867828 0)scale(0.996264)"/>
    </g>
   </g>
   <g id="text_21">
    <!-- Production iron ore -->
    <g transform="translate(108.329459 34.925453)scale(0.12 -0.12)">
     <defs>
      <path id="CMSS17-50" d="M 2106 1856 
C 2874 1856 3501 2453 3501 3158 
C 3501 3850 2899 4453 2067 4453 
L 570 4453 
L 570 0 
L 1107 0 
L 1107 1856 
L 2106 1856 
z
M 1926 4096 
C 2669 4096 2995 3627 2995 3157 
C 2995 2720 2694 2226 1926 2226 
L 1094 2226 
L 1094 4096 
L 1926 4096 
z
" transform="scale(0.015625)"/>
     </defs>
     <use xlink:href="#CMSS17-50" transform="scale(0.996264)"/>
     <use xlink:href="#CMSS17-72" transform="translate(59.735586 0)scale(0.996264)"/>
     <use xlink:href="#CMSS17-6f" transform="translate(91.645359 0)scale(0.996264)"/>
     <use xlink:href="#CMSS17-64" transform="translate(141.091421 0)scale(0.996264)"/>
     <use xlink:href="#CMSS17-75" transform="translate(189.296364 0)scale(0.996264)"/>
     <use xlink:href="#CMSS17-63" transform="translate(237.501307 0)scale(0.996264)"/>
     <use xlink:href="#CMSS17-74" transform="translate(279.140129 0)scale(0.996264)"/>
     <use xlink:href="#CMSS17-69" transform="translate(312.971696 0)scale(0.996264)"/>
     <use xlink:href="#CMSS17-6f" transform="translate(335.152419 0)scale(0.996264)"/>
     <use xlink:href="#CMSS17-6e" transform="translate(381.996043 0)scale(0.996264)"/>
     <use xlink:href="#CMSS17-69" transform="translate(461.430099 0)scale(0.996264)"/>
     <use xlink:href="#CMSS17-72" transform="translate(483.610822 0)scale(0.996264)"/>
     <use xlink:href="#CMSS17-6f" transform="translate(515.520594 0)scale(0.996264)"/>
     <use xlink:href="#CMSS17-6e" transform="translate(562.364218 0)scale(0.996264)"/>
     <use xlink:href="#CMSS17-6f" transform="translate(641.798274 0)scale(0.996264)"/>
     <use xlink:href="#CMSS17-72" transform="translate(686.039443 0)scale(0.996264)"/>
     <use xlink:href="#CMSS17-65" transform="translate(717.949216 0)scale(0.996264)"/>
    </g>
   </g>
  </g>
  <g id="axes_2">
   <g id="matplotlib.axis_3"/>
   <g id="matplotlib.axis_4"/>
   <g id="patch_12">
    <path d="M 650.326646 181.260181 
C 650.326646 178.395735 650.217019 175.532338 649.998006 172.676277 
C 649.778993 169.820216 649.450754 166.973584 649.014009 164.142629 
L 538.058864 181.260181 
L 650.326646 181.260181 
z
" style="fill: #0173b2"/>
   </g>
   <g id="patch_13">
    <path d="M 649.014009 164.142629 
C 648.509367 160.871563 647.86032 157.624412 647.068771 154.410693 
C 646.277222 151.196974 645.343944 148.01983 644.271674 144.888572 
L 538.058864 181.260181 
L 649.014009 164.142629 
z
" style="fill: #de8f05"/>
   </g>
   <g id="patch_14">
    <path d="M 644.271674 144.888572 
C 637.061556 123.833499 623.750934 105.390384 606.039466 91.914265 
C 588.327998 78.438145 567.003069 70.528117 544.787699 69.194228 
C 522.57233 67.860339 500.454131 73.161888 481.257418 84.42191 
C 462.060704 95.681932 446.638889 112.39985 436.961214 132.44092 
L 538.058864 181.260181 
L 644.271674 144.888572 
z
" style="fill: #029e73"/>
   </g>
   <g id="patch_15">
    <path d="M 436.961214 132.44092 
C 431.15488 144.465001 427.53997 157.429083 426.286696 170.722741 
C 425.033423 184.016399 426.161769 197.427657 429.618607 210.325033 
L 538.058864 181.260181 
L 436.961214 132.44092 
z
" style="fill: #d55e00"/>
   </g>
   <g id="patch_16">
    <path d="M 429.618607 210.325033 
C 430.029361 211.857549 430.472557 213.381185 430.947894 214.894914 
C 431.423232 216.408643 431.930605 217.912126 432.469672 219.404349 
L 538.058864 181.260181 
L 429.618607 210.325033 
z
" style="fill: #cc78bc"/>
   </g>
   <g id="patch_17">
    <path d="M 432.469672 219.404349 
C 435.804392 228.635391 440.335284 237.389401 445.946345 245.442257 
C 451.557406 253.495112 458.200339 260.777497 465.705068 267.102963 
L 538.058864 181.260181 
L 432.469672 219.404349 
z
" style="fill: #ca9161"/>
   </g>
   <g id="patch_18">
    <path d="M 465.705068 267.102963 
C 469.757073 270.518252 474.045813 273.642361 478.539109 276.45185 
C 483.032405 279.261338 487.718991 281.749161 492.563702 283.896652 
L 538.058864 181.260181 
L 465.705068 267.102963 
z
" style="fill: #fbafe4"/>
   </g>
   <g id="patch_19">
    <path d="M 492.563702 283.896652 
C 496.863344 285.802533 501.278502 287.436352 505.783071 288.788448 
C 510.287639 290.140544 514.872723 291.208247 519.511212 291.985244 
L 538.058864 181.260181 
L 492.563702 283.896652 
z
" style="fill: #949494"/>
   </g>
   <g id="patch_20">
    <path d="M 519.511212 291.985244 
C 525.985524 293.069762 532.542499 293.584344 539.106731 293.523073 
C 545.670963 293.461802 552.217191 292.824914 558.67013 291.619733 
L 538.058864 181.260181 
L 519.511212 291.985244 
z
" style="fill: #ece133"/>
   </g>
   <g id="patch_21">
    <path d="M 558.67013 291.619733 
C 584.418414 286.810863 607.689211 273.139281 624.424475 252.989088 
C 641.159739 232.838895 650.326649 207.453666 650.326646 181.260168 
L 538.058864 181.260181 
L 558.67013 291.619733 
z
" style="fill: #56b4e9"/>
   </g>
   <g id="text_22">
    <!-- Africa -->
    <g transform="translate(661.19192 174.308547)scale(0.1 -0.1)">
     <use xlink:href="#CMSS17-41" transform="scale(0.996264)"/>
     <use xlink:href="#CMSS17-66" transform="translate(62.217855 0)scale(0.996264)"/>
     <use xlink:href="#CMSS17-72" transform="translate(90.844514 0)scale(0.996264)"/>
     <use xlink:href="#CMSS17-69" transform="translate(122.754286 0)scale(0.996264)"/>
     <use xlink:href="#CMSS17-63" transform="translate(144.935009 0)scale(0.996264)"/>
     <use xlink:href="#CMSS17-61" transform="translate(186.573831 0)scale(0.996264)"/>
    </g>
   </g>
   <g id="text_23">
    <!-- 2.4% -->
    <g transform="translate(598.857309 178.600499)scale(0.1 -0.1)">
     <use xlink:href="#CMSS17-32" transform="scale(0.996264)"/>
     <use xlink:href="#CMSS17-2e" transform="translate(46.843624 0)scale(0.996264)"/>
     <use xlink:href="#CMSS17-34" transform="translate(72.867828 0)scale(0.996264)"/>
    </g>
   </g>
   <g id="text_24">
    <!-- Australia -->
    <g transform="translate(657.969762 154.216404)scale(0.1 -0.1)">
     <use xlink:href="#CMSS17-41" transform="scale(0.996264)"/>
     <use xlink:href="#CMSS17-75" transform="translate(62.217855 0)scale(0.996264)"/>
     <use xlink:href="#CMSS17-73" transform="translate(110.422798 0)scale(0.996264)"/>
     <use xlink:href="#CMSS17-74" transform="translate(146.33634 0)scale(0.996264)"/>
     <use xlink:href="#CMSS17-72" transform="translate(180.167907 0)scale(0.996264)"/>
     <use xlink:href="#CMSS17-61" transform="translate(212.077679 0)scale(0.996264)"/>
     <use xlink:href="#CMSS17-6c" transform="translate(256.9996 0)scale(0.996264)"/>
     <use xlink:href="#CMSS17-69" transform="translate(279.180323 0)scale(0.996264)"/>
     <use xlink:href="#CMSS17-61" transform="translate(301.361046 0)scale(0.996264)"/>
    </g>
   </g>
   <g id="text_25">
    <!-- 2.8% -->
    <g transform="translate(597.099769 167.641148)scale(0.1 -0.1)">
     <use xlink:href="#CMSS17-32" transform="scale(0.996264)"/>
     <use xlink:href="#CMSS17-2e" transform="translate(46.843624 0)scale(0.996264)"/>
     <use xlink:href="#CMSS17-38" transform="translate(72.867828 0)scale(0.996264)"/>
    </g>
   </g>
   <g id="text_26">
    <!-- China -->
    <g transform="translate(545.460583 60.478293)scale(0.1 -0.1)">
     <use xlink:href="#CMSS17-43" transform="scale(0.996264)"/>
     <use xlink:href="#CMSS17-68" transform="translate(59.855772 0)scale(0.996264)"/>
     <use xlink:href="#CMSS17-69" transform="translate(108.060715 0)scale(0.996264)"/>
     <use xlink:href="#CMSS17-6e" transform="translate(130.241438 0)scale(0.996264)"/>
     <use xlink:href="#CMSS17-61" transform="translate(178.446381 0)scale(0.996264)"/>
    </g>
   </g>
   <g id="text_27">
    <!-- 37.6% -->
    <g transform="translate(533.240458 116.511269)scale(0.1 -0.1)">
     <defs>
      <path id="CMSS17-36" d="M 2496 4101 
C 2227 4210 2035 4229 1856 4229 
C 1024 4229 250 3368 250 2006 
C 250 265 986 -128 1510 -128 
C 1798 -128 2086 -39 2362 280 
C 2643 617 2752 898 2752 1389 
C 2752 2179 2362 2880 1779 2880 
C 1357 2880 992 2657 768 2376 
C 832 3258 1254 3840 1862 3840 
C 2029 3840 2246 3816 2496 3710 
L 2496 4101 
z
M 774 1369 
C 774 1420 774 1452 781 1548 
C 781 2045 1069 2491 1536 2491 
C 1837 2491 1990 2332 2106 2135 
C 2240 1886 2246 1650 2246 1388 
C 2246 1140 2246 891 2099 637 
C 1978 439 1818 267 1510 267 
C 902 267 800 1114 774 1369 
z
" transform="scale(0.015625)"/>
     </defs>
     <use xlink:href="#CMSS17-33" transform="scale(0.996264)"/>
     <use xlink:href="#CMSS17-37" transform="translate(46.843624 0)scale(0.996264)"/>
     <use xlink:href="#CMSS17-2e" transform="translate(93.687247 0)scale(0.996264)"/>
     <use xlink:href="#CMSS17-36" transform="translate(119.711452 0)scale(0.996264)"/>
    </g>
   </g>
   <g id="text_28">
    <!-- Europe -->
    <g transform="translate(385.77498 172.159657)scale(0.1 -0.1)">
     <use xlink:href="#CMSS17-45" transform="scale(0.996264)"/>
     <use xlink:href="#CMSS17-75" transform="translate(55.892013 0)scale(0.996264)"/>
     <use xlink:href="#CMSS17-72" transform="translate(104.096956 0)scale(0.996264)"/>
     <use xlink:href="#CMSS17-6f" transform="translate(136.006729 0)scale(0.996264)"/>
     <use xlink:href="#CMSS17-70" transform="translate(182.850352 0)scale(0.996264)"/>
     <use xlink:href="#CMSS17-65" transform="translate(233.657734 0)scale(0.996264)"/>
    </g>
   </g>
   <g id="text_29">
    <!-- 11.3% -->
    <g transform="translate(462.139856 177.428377)scale(0.1 -0.1)">
     <use xlink:href="#CMSS17-31" transform="scale(0.996264)"/>
     <use xlink:href="#CMSS17-31" transform="translate(46.843624 0)scale(0.996264)"/>
     <use xlink:href="#CMSS17-2e" transform="translate(93.687247 0)scale(0.996264)"/>
     <use xlink:href="#CMSS17-33" transform="translate(119.711452 0)scale(0.996264)"/>
    </g>
   </g>
   <g id="text_30">
    <!-- India -->
    <g transform="translate(400.007056 220.749047)scale(0.1 -0.1)">
     <use xlink:href="#CMSS17-49" transform="scale(0.996264)"/>
     <use xlink:href="#CMSS17-6e" transform="translate(25.783926 0)scale(0.996264)"/>
     <use xlink:href="#CMSS17-64" transform="translate(73.988869 0)scale(0.996264)"/>
     <use xlink:href="#CMSS17-69" transform="translate(122.193812 0)scale(0.996264)"/>
     <use xlink:href="#CMSS17-61" transform="translate(144.374535 0)scale(0.996264)"/>
    </g>
   </g>
   <g id="text_31">
    <!-- 1.3% -->
    <g transform="translate(467.427243 203.931681)scale(0.1 -0.1)">
     <use xlink:href="#CMSS17-31" transform="scale(0.996264)"/>
     <use xlink:href="#CMSS17-2e" transform="translate(46.843624 0)scale(0.996264)"/>
     <use xlink:href="#CMSS17-33" transform="translate(72.867828 0)scale(0.996264)"/>
    </g>
   </g>
   <g id="text_32">
    <!-- Japan and Korea -->
    <g transform="translate(366.193928 254.351124)scale(0.1 -0.1)">
     <use xlink:href="#CMSS17-4a" transform="scale(0.996264)"/>
     <use xlink:href="#CMSS17-61" transform="translate(44.121076 0)scale(0.996264)"/>
     <use xlink:href="#CMSS17-70" transform="translate(89.042996 0)scale(0.996264)"/>
     <use xlink:href="#CMSS17-61" transform="translate(137.247939 0)scale(0.996264)"/>
     <use xlink:href="#CMSS17-6e" transform="translate(182.16986 0)scale(0.996264)"/>
     <use xlink:href="#CMSS17-61" transform="translate(261.603916 0)scale(0.996264)"/>
     <use xlink:href="#CMSS17-6e" transform="translate(306.525836 0)scale(0.996264)"/>
     <use xlink:href="#CMSS17-64" transform="translate(354.730779 0)scale(0.996264)"/>
     <use xlink:href="#CMSS17-4b" transform="translate(434.164835 0)scale(0.996264)"/>
     <use xlink:href="#CMSS17-6f" transform="translate(498.985129 0)scale(0.996264)"/>
     <use xlink:href="#CMSS17-72" transform="translate(543.226299 0)scale(0.996264)"/>
     <use xlink:href="#CMSS17-65" transform="translate(575.136071 0)scale(0.996264)"/>
     <use xlink:href="#CMSS17-61" transform="translate(616.774893 0)scale(0.996264)"/>
    </g>
   </g>
   <g id="text_33">
    <!-- 8.3% -->
    <g transform="translate(476.426313 222.260086)scale(0.1 -0.1)">
     <use xlink:href="#CMSS17-38" transform="scale(0.996264)"/>
     <use xlink:href="#CMSS17-2e" transform="translate(46.843624 0)scale(0.996264)"/>
     <use xlink:href="#CMSS17-33" transform="translate(72.867828 0)scale(0.996264)"/>
    </g>
   </g>
   <g id="text_34">
    <!-- Latin America -->
    <g transform="translate(413.9735 288.461677)scale(0.1 -0.1)">
     <use xlink:href="#CMSS17-4c" transform="scale(0.996264)"/>
     <use xlink:href="#CMSS17-61" transform="translate(50.687105 0)scale(0.996264)"/>
     <use xlink:href="#CMSS17-74" transform="translate(95.609026 0)scale(0.996264)"/>
     <use xlink:href="#CMSS17-69" transform="translate(129.440593 0)scale(0.996264)"/>
     <use xlink:href="#CMSS17-6e" transform="translate(151.621316 0)scale(0.996264)"/>
     <use xlink:href="#CMSS17-41" transform="translate(231.055372 0)scale(0.996264)"/>
     <use xlink:href="#CMSS17-6d" transform="translate(293.273226 0)scale(0.996264)"/>
     <use xlink:href="#CMSS17-65" transform="translate(367.502481 0)scale(0.996264)"/>
     <use xlink:href="#CMSS17-72" transform="translate(409.141303 0)scale(0.996264)"/>
     <use xlink:href="#CMSS17-69" transform="translate(441.051076 0)scale(0.996264)"/>
     <use xlink:href="#CMSS17-63" transform="translate(463.231799 0)scale(0.996264)"/>
     <use xlink:href="#CMSS17-61" transform="translate(504.870621 0)scale(0.996264)"/>
    </g>
   </g>
   <g id="text_35">
    <!-- 4.5% -->
    <g transform="translate(495.981971 240.865842)scale(0.1 -0.1)">
     <use xlink:href="#CMSS17-34" transform="scale(0.996264)"/>
     <use xlink:href="#CMSS17-2e" transform="translate(46.843624 0)scale(0.996264)"/>
     <use xlink:href="#CMSS17-35" transform="translate(72.867828 0)scale(0.996264)"/>
    </g>
   </g>
   <g id="text_36">
    <!-- Middle East -->
    <g transform="translate(452.880597 302.031934)scale(0.1 -0.1)">
     <use xlink:href="#CMSS17-4d" transform="scale(0.996264)"/>
     <use xlink:href="#CMSS17-69" transform="translate(81.67603 0)scale(0.996264)"/>
     <use xlink:href="#CMSS17-64" transform="translate(103.856753 0)scale(0.996264)"/>
     <use xlink:href="#CMSS17-64" transform="translate(152.061696 0)scale(0.996264)"/>
     <use xlink:href="#CMSS17-6c" transform="translate(200.266639 0)scale(0.996264)"/>
     <use xlink:href="#CMSS17-65" transform="translate(222.447362 0)scale(0.996264)"/>
     <use xlink:href="#CMSS17-45" transform="translate(295.315297 0)scale(0.996264)"/>
     <use xlink:href="#CMSS17-61" transform="translate(351.20731 0)scale(0.996264)"/>
     <use xlink:href="#CMSS17-73" transform="translate(396.129231 0)scale(0.996264)"/>
     <use xlink:href="#CMSS17-74" transform="translate(432.042773 0)scale(0.996264)"/>
    </g>
   </g>
   <g id="text_37">
    <!-- 4.0% -->
    <g transform="translate(512.328348 248.267801)scale(0.1 -0.1)">
     <use xlink:href="#CMSS17-34" transform="scale(0.996264)"/>
     <use xlink:href="#CMSS17-2e" transform="translate(46.843624 0)scale(0.996264)"/>
     <use xlink:href="#CMSS17-30" transform="translate(72.867828 0)scale(0.996264)"/>
    </g>
   </g>
   <g id="text_38">
    <!-- Rest of Asia -->
    <g transform="translate(539.211518 307.240022)scale(0.1 -0.1)">
     <use xlink:href="#CMSS17-52" transform="scale(0.996264)"/>
     <use xlink:href="#CMSS17-65" transform="translate(60.416155 0)scale(0.996264)"/>
     <use xlink:href="#CMSS17-73" transform="translate(102.054977 0)scale(0.996264)"/>
     <use xlink:href="#CMSS17-74" transform="translate(137.968519 0)scale(0.996264)"/>
     <use xlink:href="#CMSS17-6f" transform="translate(203.029198 0)scale(0.996264)"/>
     <use xlink:href="#CMSS17-66" transform="translate(249.872822 0)scale(0.996264)"/>
     <use xlink:href="#CMSS17-41" transform="translate(309.728593 0)scale(0.996264)"/>
     <use xlink:href="#CMSS17-73" transform="translate(371.946448 0)scale(0.996264)"/>
     <use xlink:href="#CMSS17-69" transform="translate(407.85999 0)scale(0.996264)"/>
     <use xlink:href="#CMSS17-61" transform="translate(430.040713 0)scale(0.996264)"/>
    </g>
   </g>
   <g id="text_39">
    <!-- 5.6% -->
    <g transform="translate(532.322545 251.108576)scale(0.1 -0.1)">
     <use xlink:href="#CMSS17-35" transform="scale(0.996264)"/>
     <use xlink:href="#CMSS17-2e" transform="translate(46.843624 0)scale(0.996264)"/>
     <use xlink:href="#CMSS17-36" transform="translate(72.867828 0)scale(0.996264)"/>
    </g>
   </g>
   <g id="text_40">
    <!-- USA and Canada -->
    <g transform="translate(633.061036 262.652639)scale(0.1 -0.1)">
     <use xlink:href="#CMSS17-55" transform="scale(0.996264)"/>
     <use xlink:href="#CMSS17-53" transform="translate(64.13974 0)scale(0.996264)"/>
     <use xlink:href="#CMSS17-41" transform="translate(116.188256 0)scale(0.996264)"/>
     <use xlink:href="#CMSS17-61" transform="translate(209.635224 0)scale(0.996264)"/>
     <use xlink:href="#CMSS17-6e" transform="translate(254.557145 0)scale(0.996264)"/>
     <use xlink:href="#CMSS17-64" transform="translate(302.762088 0)scale(0.996264)"/>
     <use xlink:href="#CMSS17-43" transform="translate(382.196144 0)scale(0.996264)"/>
     <use xlink:href="#CMSS17-61" transform="translate(442.051915 0)scale(0.996264)"/>
     <use xlink:href="#CMSS17-6e" transform="translate(486.973836 0)scale(0.996264)"/>
     <use xlink:href="#CMSS17-61" transform="translate(535.178779 0)scale(0.996264)"/>
     <use xlink:href="#CMSS17-64" transform="translate(580.1007 0)scale(0.996264)"/>
     <use xlink:href="#CMSS17-61" transform="translate(628.305643 0)scale(0.996264)"/>
    </g>
   </g>
   <g id="text_41">
    <!-- 22.1% -->
    <g transform="translate(581.022523 226.788185)scale(0.1 -0.1)">
     <use xlink:href="#CMSS17-32" transform="scale(0.996264)"/>
     <use xlink:href="#CMSS17-32" transform="translate(46.843624 0)scale(0.996264)"/>
     <use xlink:href="#CMSS17-2e" transform="translate(93.687247 0)scale(0.996264)"/>
     <use xlink:href="#CMSS17-31" transform="translate(119.711452 0)scale(0.996264)"/>
    </g>
   </g>
   <g id="text_42">
    <!-- Consumption iron ore -->
    <g transform="translate(485.542543 34.925453)scale(0.12 -0.12)">
     <use xlink:href="#CMSS17-43" transform="scale(0.996264)"/>
     <use xlink:href="#CMSS17-6f" transform="translate(59.855772 0)scale(0.996264)"/>
     <use xlink:href="#CMSS17-6e" transform="translate(106.699395 0)scale(0.996264)"/>
     <use xlink:href="#CMSS17-73" transform="translate(154.904338 0)scale(0.996264)"/>
     <use xlink:href="#CMSS17-75" transform="translate(190.81788 0)scale(0.996264)"/>
     <use xlink:href="#CMSS17-6d" transform="translate(239.022823 0)scale(0.996264)"/>
     <use xlink:href="#CMSS17-70" transform="translate(313.252078 0)scale(0.996264)"/>
     <use xlink:href="#CMSS17-74" transform="translate(361.457021 0)scale(0.996264)"/>
     <use xlink:href="#CMSS17-69" transform="translate(395.288588 0)scale(0.996264)"/>
     <use xlink:href="#CMSS17-6f" transform="translate(417.469311 0)scale(0.996264)"/>
     <use xlink:href="#CMSS17-6e" transform="translate(464.312934 0)scale(0.996264)"/>
     <use xlink:href="#CMSS17-69" transform="translate(543.74699 0)scale(0.996264)"/>
     <use xlink:href="#CMSS17-72" transform="translate(565.927713 0)scale(0.996264)"/>
     <use xlink:href="#CMSS17-6f" transform="translate(597.837486 0)scale(0.996264)"/>
     <use xlink:href="#CMSS17-6e" transform="translate(644.681109 0)scale(0.996264)"/>
     <use xlink:href="#CMSS17-6f" transform="translate(724.115165 0)scale(0.996264)"/>
     <use xlink:href="#CMSS17-72" transform="translate(768.356335 0)scale(0.996264)"/>
     <use xlink:href="#CMSS17-65" transform="translate(800.266107 0)scale(0.996264)"/>
    </g>
   </g>
  </g>
 </g>
</svg>
