<?xml version="1.0" encoding="utf-8" standalone="no"?>
<!DOCTYPE svg PUBLIC "-//W3C//DTD SVG 1.1//EN"
  "http://www.w3.org/Graphics/SVG/1.1/DTD/svg11.dtd">
<svg xmlns:xlink="http://www.w3.org/1999/xlink" width="720pt" height="360pt" viewBox="0 0 720 360" xmlns="http://www.w3.org/2000/svg" version="1.1">
 <metadata>
  <rdf:RDF xmlns:dc="http://purl.org/dc/elements/1.1/" xmlns:cc="http://creativecommons.org/ns#" xmlns:rdf="http://www.w3.org/1999/02/22-rdf-syntax-ns#">
   <cc:Work>
    <dc:type rdf:resource="http://purl.org/dc/dcmitype/StillImage"/>
    <dc:date>2022-04-26T15:27:19.055024</dc:date>
    <dc:format>image/svg+xml</dc:format>
    <dc:creator>
     <cc:Agent>
      <dc:title>Matplotlib v3.5.1, https://matplotlib.org/</dc:title>
     </cc:Agent>
    </dc:creator>
   </cc:Work>
  </rdf:RDF>
 </metadata>
 <defs>
  <style type="text/css">*{stroke-linejoin: round; stroke-linecap: butt}</style>
 </defs>
 <g id="figure_1">
  <g id="patch_1">
   <path d="M 0 360 
L 720 360 
L 720 0 
L 0 0 
z
" style="fill: #ffffff"/>
  </g>
  <g id="axes_1">
   <g id="matplotlib.axis_1"/>
   <g id="matplotlib.axis_2"/>
   <g id="patch_2">
    <path d="M 271.365656 264.157008 
C 276.908928 258.613736 281.882235 252.528401 286.210851 245.992437 
C 290.539467 239.456474 294.201603 232.502781 297.142235 225.235841 
L 188.468828 181.260181 
L 271.365656 264.157008 
z
" style="fill: #0173b2"/>
   </g>
   <g id="patch_3">
    <path d="M 297.142235 225.235841 
C 300.472894 217.005059 302.857714 208.422468 304.250784 199.653294 
C 305.643855 190.88412 306.036178 181.985001 305.420201 173.127257 
L 188.468828 181.260181 
L 297.142235 225.235841 
z
" style="fill: #de8f05"/>
   </g>
   <g id="patch_4">
    <path d="M 305.420201 173.127257 
C 304.825867 164.580742 303.296483 156.125069 300.859469 147.911841 
C 298.422456 139.698613 295.092465 131.777212 290.929202 124.289664 
L 188.468828 181.260181 
L 305.420201 173.127257 
z
" style="fill: #029e73"/>
   </g>
   <g id="patch_5">
    <path d="M 290.929202 124.289664 
C 289.144422 121.079771 287.209787 117.955521 285.131699 114.927253 
C 283.053612 111.898985 280.834367 108.970043 278.481309 106.150119 
L 188.468828 181.260181 
L 290.929202 124.289664 
z
" style="fill: #d55e00"/>
   </g>
   <g id="patch_6">
    <path d="M 278.481309 106.150119 
C 278.137508 105.738106 277.790883 105.328458 277.441457 104.921205 
C 277.092032 104.513951 276.739814 104.109102 276.384829 103.706685 
L 188.468828 181.260181 
L 278.481309 106.150119 
z
" style="fill: #cc78bc"/>
   </g>
   <g id="patch_7">
    <path d="M 276.384829 103.706685 
C 276.357576 103.675791 276.330308 103.644911 276.303022 103.614046 
C 276.275737 103.58318 276.248436 103.552329 276.221118 103.521493 
L 188.468828 181.260181 
L 276.384829 103.706685 
z
" style="fill: #ca9161"/>
   </g>
   <g id="patch_8">
    <path d="M 276.221118 103.521493 
C 262.350909 87.864648 244.539928 76.201534 224.643676 69.747184 
C 204.747424 63.292835 183.48167 62.279444 163.061824 66.812586 
C 142.641978 71.345727 123.802645 81.26232 108.506458 95.52928 
C 93.210272 109.79624 82.007512 127.900313 76.065253 147.955463 
L 188.468828 181.260181 
L 276.221118 103.521493 
z
" style="fill: #fbafe4"/>
   </g>
   <g id="patch_9">
    <path d="M 76.065253 147.955463 
C 75.586223 149.572193 75.142128 151.199071 74.733281 152.834959 
C 74.324433 154.470848 73.950928 156.115367 73.613024 157.767368 
L 188.468828 181.260181 
L 76.065253 147.955463 
z
" style="fill: #949494"/>
   </g>
   <g id="patch_10">
    <path d="M 73.613024 157.767368 
C 68.762503 181.48145 71.373307 206.125662 81.084926 228.297033 
C 90.796545 250.468404 107.140404 269.097192 127.859679 281.61106 
L 188.468828 181.260181 
L 73.613024 157.767368 
z
" style="fill: #ece133"/>
   </g>
   <g id="patch_11">
    <path d="M 127.859679 281.61106 
C 129.914061 282.85185 132.00606 284.029261 134.132719 285.141629 
C 136.259379 286.253997 138.419695 287.300797 140.610615 288.28055 
L 188.468828 181.260181 
L 127.859679 281.61106 
z
" style="fill: #56b4e9"/>
   </g>
   <g id="patch_12">
    <path d="M 140.610615 288.28055 
C 162.281681 297.971588 186.393568 300.855384 209.738815 296.548323 
C 233.084062 292.241261 254.579477 280.943186 271.365652 264.157012 
L 188.468828 181.260181 
L 140.610615 288.28055 
z
" style="fill: #808000"/>
   </g>
   <g id="text_1">
    <!-- Africa -->
    <g transform="translate(295.985053 254.956323)scale(0.1 -0.1)">
     <defs>
      <path id="CMSS17-41" d="M 2272 4416 
L 1722 4416 
L 166 0 
L 653 0 
L 1101 1280 
L 2816 1280 
L 3270 0 
L 3827 0 
L 2272 4416 
z
M 2694 1637 
L 1222 1637 
C 1530 2528 1914 3638 1958 3925 
L 1965 3925 
C 2010 3663 2138 3281 2246 2956 
L 2694 1637 
z
" transform="scale(0.015625)"/>
      <path id="CMSS17-66" d="M 1075 2368 
L 1722 2368 
L 1722 2737 
L 1062 2737 
L 1062 3559 
C 1062 4014 1408 4092 1606 4092 
C 1670 4092 1850 4092 2080 4009 
L 2080 4429 
C 1933 4461 1754 4480 1613 4480 
C 1018 4480 602 3993 602 3359 
L 602 2737 
L 160 2737 
L 160 2368 
L 602 2368 
L 602 0 
L 1075 0 
L 1075 2368 
z
" transform="scale(0.015625)"/>
      <path id="CMSS17-72" d="M 954 1363 
C 954 1965 1395 2368 1958 2368 
L 1958 2789 
C 1549 2789 1165 2585 934 2253 
L 934 2758 
L 480 2758 
L 480 0 
L 954 0 
L 954 1363 
z
" transform="scale(0.015625)"/>
      <path id="CMSS17-69" d="M 979 4183 
L 442 4183 
L 442 3648 
L 979 3648 
L 979 4183 
z
M 947 2739 
L 474 2739 
L 474 0 
L 947 0 
L 947 2739 
z
" transform="scale(0.015625)"/>
      <path id="CMSS17-63" d="M 2464 2541 
C 2464 2585 2170 2714 2093 2739 
C 1882 2816 1613 2816 1542 2816 
C 710 2816 211 2093 211 1363 
C 211 595 768 -64 1517 -64 
C 1946 -64 2253 76 2502 242 
L 2464 664 
C 2189 453 1869 337 1523 337 
C 1024 337 698 774 698 1369 
C 698 1831 909 2414 1549 2414 
C 1901 2414 2099 2343 2394 2145 
L 2464 2541 
z
" transform="scale(0.015625)"/>
      <path id="CMSS17-61" d="M 2406 1791 
C 2406 2392 1978 2808 1402 2808 
C 1120 2808 813 2757 461 2553 
L 499 2135 
C 659 2248 934 2432 1395 2432 
C 1722 2432 1920 2180 1920 1782 
L 1920 1536 
C 896 1536 256 1238 256 726 
C 256 461 416 -64 947 -64 
C 1043 -64 1562 -64 1933 217 
L 1933 -19 
L 2406 -19 
L 2406 1791 
z
M 1920 816 
C 1920 701 1920 548 1728 434 
C 1562 325 1350 325 1261 325 
C 941 325 723 511 723 744 
C 723 1211 1722 1211 1920 1211 
L 1920 816 
z
" transform="scale(0.015625)"/>
     </defs>
     <use xlink:href="#CMSS17-41" transform="scale(0.996264)"/>
     <use xlink:href="#CMSS17-66" transform="translate(62.217855 0)scale(0.996264)"/>
     <use xlink:href="#CMSS17-72" transform="translate(90.844514 0)scale(0.996264)"/>
     <use xlink:href="#CMSS17-69" transform="translate(122.754286 0)scale(0.996264)"/>
     <use xlink:href="#CMSS17-63" transform="translate(144.935009 0)scale(0.996264)"/>
     <use xlink:href="#CMSS17-61" transform="translate(186.573831 0)scale(0.996264)"/>
    </g>
   </g>
   <g id="text_2">
    <!-- 6.4% -->
    <g transform="translate(240.749002 222.590195)scale(0.1 -0.1)">
     <defs>
      <path id="CMSS17-36" d="M 2496 4101 
C 2227 4210 2035 4229 1856 4229 
C 1024 4229 250 3368 250 2006 
C 250 265 986 -128 1510 -128 
C 1798 -128 2086 -39 2362 280 
C 2643 617 2752 898 2752 1389 
C 2752 2179 2362 2880 1779 2880 
C 1357 2880 992 2657 768 2376 
C 832 3258 1254 3840 1862 3840 
C 2029 3840 2246 3816 2496 3710 
L 2496 4101 
z
M 774 1369 
C 774 1420 774 1452 781 1548 
C 781 2045 1069 2491 1536 2491 
C 1837 2491 1990 2332 2106 2135 
C 2240 1886 2246 1650 2246 1388 
C 2246 1140 2246 891 2099 637 
C 1978 439 1818 267 1510 267 
C 902 267 800 1114 774 1369 
z
" transform="scale(0.015625)"/>
      <path id="CMSS17-2e" d="M 1088 510 
L 576 510 
L 576 0 
L 1088 0 
L 1088 510 
z
" transform="scale(0.015625)"/>
      <path id="CMSS17-34" d="M 2253 1088 
L 2835 1088 
L 2835 1477 
L 2253 1477 
L 2253 4192 
L 1690 4192 
L 166 1477 
L 166 1088 
L 1747 1088 
L 1747 0 
L 2253 0 
L 2253 1088 
z
M 659 1477 
C 1030 2127 1766 3439 1766 3885 
L 1766 1477 
L 659 1477 
z
" transform="scale(0.015625)"/>
     </defs>
     <use xlink:href="#CMSS17-36" transform="scale(0.996264)"/>
     <use xlink:href="#CMSS17-2e" transform="translate(46.843624 0)scale(0.996264)"/>
     <use xlink:href="#CMSS17-34" transform="translate(72.867828 0)scale(0.996264)"/>
    </g>
   </g>
   <g id="text_3">
    <!-- Australia -->
    <g transform="translate(315.82898 203.983265)scale(0.1 -0.1)">
     <defs>
      <path id="CMSS17-75" d="M 2618 2739 
L 2131 2739 
L 2131 972 
C 2131 498 1786 306 1421 306 
C 998 306 960 447 960 709 
L 960 2739 
L 474 2739 
L 474 678 
C 474 179 646 -64 1088 -64 
C 1306 -64 1798 -13 2144 306 
L 2144 0 
L 2618 0 
L 2618 2739 
z
" transform="scale(0.015625)"/>
      <path id="CMSS17-73" d="M 2061 2627 
C 1683 2807 1389 2807 1197 2807 
C 742 2807 198 2648 198 2003 
C 198 1359 902 1218 1094 1179 
C 1389 1122 1715 1058 1715 740 
C 1715 337 1254 337 1171 337 
C 915 337 563 407 243 638 
L 166 210 
C 531 0 883 -64 1178 -64 
C 1965 -64 2163 416 2163 781 
C 2163 1094 1984 1305 1862 1401 
C 1651 1568 1574 1587 1050 1696 
C 960 1709 646 1779 646 2066 
C 646 2432 1050 2432 1139 2432 
C 1555 2432 1811 2303 1984 2208 
L 2061 2627 
z
" transform="scale(0.015625)"/>
      <path id="CMSS17-74" d="M 1069 2368 
L 1901 2368 
L 1901 2737 
L 1069 2737 
L 1069 3520 
L 614 3520 
L 614 2737 
L 109 2737 
L 109 2368 
L 602 2368 
L 602 749 
C 602 384 685 -64 1107 -64 
C 1427 -64 1722 25 2003 172 
L 1901 548 
C 1747 414 1562 337 1363 337 
C 1082 337 1069 696 1069 856 
L 1069 2368 
z
" transform="scale(0.015625)"/>
      <path id="CMSS17-6c" d="M 947 4416 
L 474 4416 
L 474 0 
L 947 0 
L 947 4416 
z
" transform="scale(0.015625)"/>
     </defs>
     <use xlink:href="#CMSS17-41" transform="scale(0.996264)"/>
     <use xlink:href="#CMSS17-75" transform="translate(62.217855 0)scale(0.996264)"/>
     <use xlink:href="#CMSS17-73" transform="translate(110.422798 0)scale(0.996264)"/>
     <use xlink:href="#CMSS17-74" transform="translate(146.33634 0)scale(0.996264)"/>
     <use xlink:href="#CMSS17-72" transform="translate(180.167907 0)scale(0.996264)"/>
     <use xlink:href="#CMSS17-61" transform="translate(212.077679 0)scale(0.996264)"/>
     <use xlink:href="#CMSS17-6c" transform="translate(256.9996 0)scale(0.996264)"/>
     <use xlink:href="#CMSS17-69" transform="translate(279.180323 0)scale(0.996264)"/>
     <use xlink:href="#CMSS17-61" transform="translate(301.361046 0)scale(0.996264)"/>
    </g>
   </g>
   <g id="text_4">
    <!-- 7.2% -->
    <g transform="translate(251.572963 194.786709)scale(0.1 -0.1)">
     <defs>
      <path id="CMSS17-37" d="M 1389 3776 
C 1466 3776 1542 3776 1619 3776 
L 2355 3776 
C 1440 2711 915 1365 915 -32 
L 1427 -32 
C 1427 1323 1875 2696 2752 3795 
L 2752 4209 
L 250 4209 
L 250 3776 
L 1389 3776 
z
" transform="scale(0.015625)"/>
      <path id="CMSS17-32" d="M 1651 1357 
C 1830 1541 2099 1764 2285 1987 
C 2464 2204 2701 2511 2701 2957 
C 2701 3657 2227 4288 1421 4288 
C 787 4288 422 3893 250 3274 
L 499 2929 
C 640 3510 838 3880 1338 3880 
C 1888 3880 2195 3433 2195 2942 
C 2195 2355 1747 1901 1408 1563 
C 1030 1187 659 804 301 408 
L 301 0 
L 2701 0 
L 2701 433 
L 1613 433 
C 1536 433 1459 433 1382 433 
L 742 433 
L 742 439 
L 1651 1357 
z
" transform="scale(0.015625)"/>
     </defs>
     <use xlink:href="#CMSS17-37" transform="scale(0.996264)"/>
     <use xlink:href="#CMSS17-2e" transform="translate(46.843624 0)scale(0.996264)"/>
     <use xlink:href="#CMSS17-32" transform="translate(72.867828 0)scale(0.996264)"/>
    </g>
   </g>
   <g id="text_5">
    <!-- China -->
    <g transform="translate(312.098534 147.067667)scale(0.1 -0.1)">
     <defs>
      <path id="CMSS17-43" d="M 3501 714 
C 3072 427 2874 344 2355 344 
C 1459 344 934 1303 934 2179 
C 934 3112 1472 4032 2381 4032 
C 2790 4032 3059 3918 3386 3715 
L 3475 4217 
C 3168 4370 2778 4440 2387 4440 
C 1158 4440 397 3316 397 2179 
C 397 927 1299 -64 2323 -64 
C 2874 -64 3066 -19 3539 280 
L 3501 714 
z
" transform="scale(0.015625)"/>
      <path id="CMSS17-68" d="M 2618 1891 
C 2618 2292 2522 2820 1798 2820 
C 1395 2820 1133 2623 947 2407 
L 947 4448 
L 474 4448 
L 474 32 
L 960 32 
L 960 1573 
C 960 1973 1114 2432 1549 2432 
C 2112 2432 2131 2056 2131 1839 
L 2131 32 
L 2618 32 
L 2618 1891 
z
" transform="scale(0.015625)"/>
      <path id="CMSS17-6e" d="M 2618 1877 
C 2618 2283 2522 2816 1798 2816 
C 1389 2816 1120 2606 941 2389 
L 941 2758 
L 474 2758 
L 474 0 
L 960 0 
L 960 1559 
C 960 1964 1114 2428 1549 2428 
C 2112 2428 2131 2048 2131 1829 
L 2131 0 
L 2618 0 
L 2618 1877 
z
" transform="scale(0.015625)"/>
     </defs>
     <use xlink:href="#CMSS17-43" transform="scale(0.996264)"/>
     <use xlink:href="#CMSS17-68" transform="translate(59.855772 0)scale(0.996264)"/>
     <use xlink:href="#CMSS17-69" transform="translate(108.060715 0)scale(0.996264)"/>
     <use xlink:href="#CMSS17-6e" transform="translate(130.241438 0)scale(0.996264)"/>
     <use xlink:href="#CMSS17-61" transform="translate(178.446381 0)scale(0.996264)"/>
    </g>
   </g>
   <g id="text_6">
    <!-- 7.0% -->
    <g transform="translate(249.538174 163.741837)scale(0.1 -0.1)">
     <defs>
      <path id="CMSS17-30" d="M 2758 2044 
C 2758 2405 2752 3077 2490 3596 
C 2227 4096 1805 4229 1504 4229 
C 1069 4229 698 3975 506 3570 
C 301 3146 243 2709 243 2044 
C 243 1589 262 1031 493 543 
C 755 5 1197 -128 1498 -128 
C 1894 -128 2278 81 2496 518 
C 2720 974 2758 1474 2758 2044 
z
M 1498 261 
C 1011 261 864 811 819 995 
C 742 1310 730 1614 730 2114 
C 730 2506 730 2948 851 3297 
C 998 3701 1254 3840 1498 3840 
C 1971 3840 2125 3372 2176 3208 
C 2272 2873 2272 2481 2272 2114 
C 2272 1526 2272 261 1498 261 
z
" transform="scale(0.015625)"/>
     </defs>
     <use xlink:href="#CMSS17-37" transform="scale(0.996264)"/>
     <use xlink:href="#CMSS17-2e" transform="translate(46.843624 0)scale(0.996264)"/>
     <use xlink:href="#CMSS17-30" transform="translate(72.867828 0)scale(0.996264)"/>
    </g>
   </g>
   <g id="text_7">
    <!-- Europe -->
    <g transform="translate(294.797987 110.78462)scale(0.1 -0.1)">
     <defs>
      <path id="CMSS17-45" d="M 1958 433 
C 1446 433 1216 433 1101 433 
L 1101 2107 
L 3085 2107 
L 3085 2496 
L 1101 2496 
L 1101 4009 
L 1926 4009 
C 2003 4009 2080 4009 2157 4009 
L 3251 4009 
L 3251 4416 
L 563 4416 
L 563 0 
L 3334 0 
L 3334 433 
L 1958 433 
z
" transform="scale(0.015625)"/>
      <path id="CMSS17-6f" d="M 2829 1356 
C 2829 2176 2221 2816 1504 2816 
C 768 2816 173 2157 173 1356 
C 173 544 787 -64 1498 -64 
C 2227 -64 2829 563 2829 1356 
z
M 1504 337 
C 1050 337 659 709 659 1408 
C 659 2151 1114 2427 1498 2427 
C 1914 2427 2342 2126 2342 1408 
C 2342 683 1926 337 1504 337 
z
" transform="scale(0.015625)"/>
      <path id="CMSS17-70" d="M 966 333 
C 1178 129 1466 -5 1773 -5 
C 2368 -5 2880 603 2880 1412 
C 2880 2159 2496 2816 1946 2816 
C 1626 2816 1242 2702 954 2472 
L 954 2765 
L 480 2765 
L 480 -1216 
L 966 -1216 
L 966 333 
z
M 966 2100 
C 1018 2176 1235 2415 1587 2415 
C 2035 2415 2394 1960 2394 1412 
C 2394 787 1958 384 1530 384 
C 1402 384 1267 415 1139 523 
C 966 674 966 768 966 857 
L 966 2100 
z
" transform="scale(0.015625)"/>
      <path id="CMSS17-65" d="M 2502 1377 
C 2502 1590 2490 2003 2285 2345 
C 2061 2713 1696 2816 1421 2816 
C 755 2816 192 2188 192 1375 
C 192 582 774 -64 1510 -64 
C 1798 -64 2150 19 2470 248 
C 2470 274 2458 414 2451 420 
C 2451 433 2432 630 2432 656 
C 2125 407 1773 325 1517 325 
C 1107 325 666 667 646 1377 
L 2502 1377 
z
M 698 1728 
C 781 2084 1062 2421 1421 2421 
C 1517 2421 1965 2421 2080 1728 
L 698 1728 
z
" transform="scale(0.015625)"/>
     </defs>
     <use xlink:href="#CMSS17-45" transform="scale(0.996264)"/>
     <use xlink:href="#CMSS17-75" transform="translate(55.892013 0)scale(0.996264)"/>
     <use xlink:href="#CMSS17-72" transform="translate(104.096956 0)scale(0.996264)"/>
     <use xlink:href="#CMSS17-6f" transform="translate(136.006729 0)scale(0.996264)"/>
     <use xlink:href="#CMSS17-70" transform="translate(182.850352 0)scale(0.996264)"/>
     <use xlink:href="#CMSS17-65" transform="translate(233.657734 0)scale(0.996264)"/>
    </g>
   </g>
   <g id="text_8">
    <!-- 3.0% -->
    <g transform="translate(240.101512 143.951084)scale(0.1 -0.1)">
     <defs>
      <path id="CMSS17-33" d="M 1005 2025 
L 1440 2025 
C 2042 2025 2214 1507 2214 1146 
C 2214 653 1933 267 1472 267 
C 1114 267 608 444 320 912 
C 275 691 275 678 250 526 
C 550 88 1037 -128 1485 -128 
C 2214 -128 2752 473 2752 1138 
C 2752 1638 2400 2057 1920 2215 
C 2304 2424 2586 2816 2586 3273 
C 2586 3805 2093 4229 1491 4229 
C 941 4229 512 3892 333 3530 
C 378 3468 493 3284 550 3189 
C 691 3562 1056 3840 1485 3840 
C 1843 3840 2080 3607 2080 3271 
C 2080 2923 1856 2543 1478 2455 
C 1453 2455 1056 2417 1005 2411 
L 1005 2025 
z
" transform="scale(0.015625)"/>
     </defs>
     <use xlink:href="#CMSS17-33" transform="scale(0.996264)"/>
     <use xlink:href="#CMSS17-2e" transform="translate(46.843624 0)scale(0.996264)"/>
     <use xlink:href="#CMSS17-30" transform="translate(72.867828 0)scale(0.996264)"/>
    </g>
   </g>
   <g id="text_9">
    <!-- India -->
    <g transform="translate(286.33872 99.777967)scale(0.1 -0.1)">
     <defs>
      <path id="CMSS17-49" d="M 1094 4416 
L 557 4416 
L 557 0 
L 1094 0 
L 1094 4416 
z
" transform="scale(0.015625)"/>
      <path id="CMSS17-64" d="M 2611 4416 
L 2138 4416 
L 2138 2438 
C 1939 2603 1613 2756 1254 2756 
C 672 2756 211 2131 211 1347 
C 211 562 666 -64 1235 -64 
C 1677 -64 1971 172 2125 306 
L 2125 -13 
L 2611 -13 
L 2611 4416 
z
M 2125 836 
C 2125 747 2125 653 1926 482 
C 1798 375 1645 325 1498 325 
C 1152 325 698 576 698 1340 
C 698 2134 1210 2368 1562 2368 
C 1798 2368 1990 2254 2125 2065 
L 2125 836 
z
" transform="scale(0.015625)"/>
     </defs>
     <use xlink:href="#CMSS17-49" transform="scale(0.996264)"/>
     <use xlink:href="#CMSS17-6e" transform="translate(25.783926 0)scale(0.996264)"/>
     <use xlink:href="#CMSS17-64" transform="translate(73.988869 0)scale(0.996264)"/>
     <use xlink:href="#CMSS17-69" transform="translate(122.193812 0)scale(0.996264)"/>
     <use xlink:href="#CMSS17-61" transform="translate(144.374535 0)scale(0.996264)"/>
    </g>
   </g>
   <g id="text_10">
    <!-- 0.4% -->
    <g transform="translate(235.487366 137.947455)scale(0.1 -0.1)">
     <use xlink:href="#CMSS17-30" transform="scale(0.996264)"/>
     <use xlink:href="#CMSS17-2e" transform="translate(46.843624 0)scale(0.996264)"/>
     <use xlink:href="#CMSS17-34" transform="translate(72.867828 0)scale(0.996264)"/>
    </g>
   </g>
   <g id="text_11">
    <!-- Japan and Korea -->
    <g transform="translate(285.086442 98.340092)scale(0.1 -0.1)">
     <defs>
      <path id="CMSS17-4a" d="M 2336 4384 
L 1811 4384 
L 1811 940 
C 1811 636 1683 261 1107 261 
C 781 261 506 414 333 604 
L 250 140 
C 646 -71 1011 -128 1280 -128 
C 1901 -128 2336 228 2336 920 
L 2336 4384 
z
" transform="scale(0.015625)"/>
      <path id="CMSS17-4b" d="M 2234 2666 
L 3827 4416 
L 3213 4416 
L 1101 2106 
L 1101 4416 
L 563 4416 
L 563 0 
L 1101 0 
L 1101 1432 
L 1875 2278 
L 3315 0 
L 3910 0 
L 2234 2666 
z
" transform="scale(0.015625)"/>
     </defs>
     <use xlink:href="#CMSS17-4a" transform="scale(0.996264)"/>
     <use xlink:href="#CMSS17-61" transform="translate(44.121076 0)scale(0.996264)"/>
     <use xlink:href="#CMSS17-70" transform="translate(89.042996 0)scale(0.996264)"/>
     <use xlink:href="#CMSS17-61" transform="translate(137.247939 0)scale(0.996264)"/>
     <use xlink:href="#CMSS17-6e" transform="translate(182.16986 0)scale(0.996264)"/>
     <use xlink:href="#CMSS17-61" transform="translate(261.603916 0)scale(0.996264)"/>
     <use xlink:href="#CMSS17-6e" transform="translate(306.525836 0)scale(0.996264)"/>
     <use xlink:href="#CMSS17-64" transform="translate(354.730779 0)scale(0.996264)"/>
     <use xlink:href="#CMSS17-4b" transform="translate(434.164835 0)scale(0.996264)"/>
     <use xlink:href="#CMSS17-6f" transform="translate(498.985129 0)scale(0.996264)"/>
     <use xlink:href="#CMSS17-72" transform="translate(543.226299 0)scale(0.996264)"/>
     <use xlink:href="#CMSS17-65" transform="translate(575.136071 0)scale(0.996264)"/>
     <use xlink:href="#CMSS17-61" transform="translate(616.774893 0)scale(0.996264)"/>
    </g>
   </g>
   <g id="text_12">
    <!-- 0.0% -->
    <g transform="translate(234.804305 137.16316)scale(0.1 -0.1)">
     <use xlink:href="#CMSS17-30" transform="scale(0.996264)"/>
     <use xlink:href="#CMSS17-2e" transform="translate(46.843624 0)scale(0.996264)"/>
     <use xlink:href="#CMSS17-30" transform="translate(72.867828 0)scale(0.996264)"/>
    </g>
   </g>
   <g id="text_13">
    <!-- Latin America -->
    <g transform="translate(101.907489 57.858486)scale(0.1 -0.1)">
     <defs>
      <path id="CMSS17-4c" d="M 1670 414 
C 1594 414 1517 414 1440 414 
L 1101 414 
L 1101 4416 
L 563 4416 
L 563 0 
L 3002 0 
L 3002 414 
L 1670 414 
z
" transform="scale(0.015625)"/>
      <path id="CMSS17-6d" d="M 4288 1877 
C 4288 2308 4179 2816 3462 2816 
C 2982 2816 2694 2516 2566 2331 
C 2451 2670 2182 2816 1798 2816 
C 1363 2816 1088 2568 941 2389 
L 941 2758 
L 474 2758 
L 474 0 
L 960 0 
L 960 1559 
C 960 1939 1101 2428 1555 2428 
C 2138 2428 2138 2016 2138 1829 
L 2138 0 
L 2624 0 
L 2624 1559 
C 2624 1939 2765 2428 3219 2428 
C 3802 2428 3802 2016 3802 1829 
L 3802 0 
L 4288 0 
L 4288 1877 
z
" transform="scale(0.015625)"/>
     </defs>
     <use xlink:href="#CMSS17-4c" transform="scale(0.996264)"/>
     <use xlink:href="#CMSS17-61" transform="translate(50.687105 0)scale(0.996264)"/>
     <use xlink:href="#CMSS17-74" transform="translate(95.609026 0)scale(0.996264)"/>
     <use xlink:href="#CMSS17-69" transform="translate(129.440593 0)scale(0.996264)"/>
     <use xlink:href="#CMSS17-6e" transform="translate(151.621316 0)scale(0.996264)"/>
     <use xlink:href="#CMSS17-41" transform="translate(231.055372 0)scale(0.996264)"/>
     <use xlink:href="#CMSS17-6d" transform="translate(293.273226 0)scale(0.996264)"/>
     <use xlink:href="#CMSS17-65" transform="translate(367.502481 0)scale(0.996264)"/>
     <use xlink:href="#CMSS17-72" transform="translate(409.141303 0)scale(0.996264)"/>
     <use xlink:href="#CMSS17-69" transform="translate(441.051076 0)scale(0.996264)"/>
     <use xlink:href="#CMSS17-63" transform="translate(463.231799 0)scale(0.996264)"/>
     <use xlink:href="#CMSS17-61" transform="translate(504.870621 0)scale(0.996264)"/>
    </g>
   </g>
   <g id="text_14">
    <!-- 33.9% -->
    <g transform="translate(164.368918 115.082284)scale(0.1 -0.1)">
     <defs>
      <path id="CMSS17-39" d="M 435 174 
C 614 21 845 -128 1235 -128 
C 2010 -128 2752 721 2752 2095 
C 2752 3932 1952 4229 1523 4229 
C 1094 4229 819 4041 582 3741 
C 301 3397 250 3090 250 2733 
C 250 2307 326 2045 506 1745 
C 749 1357 973 1275 1222 1275 
C 1600 1275 1978 1459 2234 1776 
C 2189 902 1798 267 1235 267 
C 1005 267 819 339 634 516 
L 435 174 
z
M 2214 2746 
C 2221 2703 2221 2622 2221 2596 
C 2221 2074 1914 1664 1466 1664 
C 1171 1664 1018 1813 902 2006 
C 762 2249 755 2485 755 2733 
C 755 2976 755 3244 934 3511 
C 1069 3703 1235 3840 1523 3840 
C 2112 3840 2208 3000 2214 2746 
z
" transform="scale(0.015625)"/>
     </defs>
     <use xlink:href="#CMSS17-33" transform="scale(0.996264)"/>
     <use xlink:href="#CMSS17-33" transform="translate(46.843624 0)scale(0.996264)"/>
     <use xlink:href="#CMSS17-2e" transform="translate(93.687247 0)scale(0.996264)"/>
     <use xlink:href="#CMSS17-39" transform="translate(119.711452 0)scale(0.996264)"/>
    </g>
   </g>
   <g id="text_15">
    <!-- Middle East -->
    <g transform="translate(13.684832 152.483097)scale(0.1 -0.1)">
     <defs>
      <path id="CMSS17-4d" d="M 3194 2371 
L 2886 1473 
C 2835 1307 2662 791 2624 587 
L 2618 587 
C 2598 715 2560 849 2458 1174 
C 2400 1365 2336 1562 2272 1741 
L 1325 4416 
L 576 4416 
L 576 0 
L 1075 0 
L 1075 3900 
L 1082 3900 
C 1082 3894 1139 3613 1530 2499 
L 2374 96 
L 2848 96 
L 3610 2231 
C 3661 2378 3821 2843 3891 3066 
C 3955 3257 4115 3728 4154 3913 
L 4160 3913 
L 4160 0 
L 4666 0 
L 4666 4416 
L 3923 4416 
L 3194 2371 
z
" transform="scale(0.015625)"/>
     </defs>
     <use xlink:href="#CMSS17-4d" transform="scale(0.996264)"/>
     <use xlink:href="#CMSS17-69" transform="translate(81.67603 0)scale(0.996264)"/>
     <use xlink:href="#CMSS17-64" transform="translate(103.856753 0)scale(0.996264)"/>
     <use xlink:href="#CMSS17-64" transform="translate(152.061696 0)scale(0.996264)"/>
     <use xlink:href="#CMSS17-6c" transform="translate(200.266639 0)scale(0.996264)"/>
     <use xlink:href="#CMSS17-65" transform="translate(222.447362 0)scale(0.996264)"/>
     <use xlink:href="#CMSS17-45" transform="translate(295.315297 0)scale(0.996264)"/>
     <use xlink:href="#CMSS17-61" transform="translate(351.20731 0)scale(0.996264)"/>
     <use xlink:href="#CMSS17-73" transform="translate(396.129231 0)scale(0.996264)"/>
     <use xlink:href="#CMSS17-74" transform="translate(432.042773 0)scale(0.996264)"/>
    </g>
   </g>
   <g id="text_16">
    <!-- 1.4% -->
    <g transform="translate(113.86246 166.695708)scale(0.1 -0.1)">
     <defs>
      <path id="CMSS17-31" d="M 1818 4288 
L 1696 4288 
C 1350 3940 947 3890 538 3890 
L 538 3520 
C 723 3520 1024 3520 1325 3667 
L 1325 369 
L 570 369 
L 570 0 
L 2573 0 
L 2573 369 
L 1818 369 
L 1818 4288 
z
" transform="scale(0.015625)"/>
     </defs>
     <use xlink:href="#CMSS17-31" transform="scale(0.996264)"/>
     <use xlink:href="#CMSS17-2e" transform="translate(46.843624 0)scale(0.996264)"/>
     <use xlink:href="#CMSS17-34" transform="translate(72.867828 0)scale(0.996264)"/>
    </g>
   </g>
   <g id="text_17">
    <!-- Rest of Asia -->
    <g transform="translate(19.772228 235.491378)scale(0.1 -0.1)">
     <defs>
      <path id="CMSS17-52" d="M 2522 2109 
L 2534 2115 
C 3533 2459 3539 3147 3539 3268 
C 3539 3873 2925 4453 2003 4453 
L 570 4453 
L 570 32 
L 1094 32 
L 1094 2048 
L 2035 2048 
L 3168 32 
L 3706 32 
L 2522 2109 
z
M 1094 2437 
L 1094 4096 
L 1933 4096 
C 2746 4096 3034 3637 3034 3267 
C 3034 2922 2778 2437 1933 2437 
L 1094 2437 
z
" transform="scale(0.015625)"/>
     </defs>
     <use xlink:href="#CMSS17-52" transform="scale(0.996264)"/>
     <use xlink:href="#CMSS17-65" transform="translate(60.416155 0)scale(0.996264)"/>
     <use xlink:href="#CMSS17-73" transform="translate(102.054977 0)scale(0.996264)"/>
     <use xlink:href="#CMSS17-74" transform="translate(137.968519 0)scale(0.996264)"/>
     <use xlink:href="#CMSS17-6f" transform="translate(203.029198 0)scale(0.996264)"/>
     <use xlink:href="#CMSS17-66" transform="translate(249.872822 0)scale(0.996264)"/>
     <use xlink:href="#CMSS17-41" transform="translate(309.728593 0)scale(0.996264)"/>
     <use xlink:href="#CMSS17-73" transform="translate(371.946448 0)scale(0.996264)"/>
     <use xlink:href="#CMSS17-69" transform="translate(407.85999 0)scale(0.996264)"/>
     <use xlink:href="#CMSS17-61" transform="translate(430.040713 0)scale(0.996264)"/>
    </g>
   </g>
   <g id="text_18">
    <!-- 19.6% -->
    <g transform="translate(115.18278 211.972952)scale(0.1 -0.1)">
     <use xlink:href="#CMSS17-31" transform="scale(0.996264)"/>
     <use xlink:href="#CMSS17-39" transform="translate(46.843624 0)scale(0.996264)"/>
     <use xlink:href="#CMSS17-2e" transform="translate(93.687247 0)scale(0.996264)"/>
     <use xlink:href="#CMSS17-36" transform="translate(119.711452 0)scale(0.996264)"/>
    </g>
   </g>
   <g id="text_19">
    <!-- Russia -->
    <g transform="translate(102.311915 298.020434)scale(0.1 -0.1)">
     <use xlink:href="#CMSS17-52" transform="scale(0.996264)"/>
     <use xlink:href="#CMSS17-75" transform="translate(60.416155 0)scale(0.996264)"/>
     <use xlink:href="#CMSS17-73" transform="translate(108.621098 0)scale(0.996264)"/>
     <use xlink:href="#CMSS17-73" transform="translate(144.53464 0)scale(0.996264)"/>
     <use xlink:href="#CMSS17-69" transform="translate(180.448182 0)scale(0.996264)"/>
     <use xlink:href="#CMSS17-61" transform="translate(202.628905 0)scale(0.996264)"/>
    </g>
   </g>
   <g id="text_20">
    <!-- 2.0% -->
    <g transform="translate(149.502124 246.07971)scale(0.1 -0.1)">
     <use xlink:href="#CMSS17-32" transform="scale(0.996264)"/>
     <use xlink:href="#CMSS17-2e" transform="translate(46.843624 0)scale(0.996264)"/>
     <use xlink:href="#CMSS17-30" transform="translate(72.867828 0)scale(0.996264)"/>
    </g>
   </g>
   <g id="text_21">
    <!-- USA and Canada -->
    <g transform="translate(211.865814 310.567797)scale(0.1 -0.1)">
     <defs>
      <path id="CMSS17-55" d="M 3552 4384 
L 3066 4384 
L 3066 1449 
C 3066 604 2547 229 2074 229 
C 1587 229 1101 623 1101 1443 
L 1101 4384 
L 563 4384 
L 563 1454 
C 563 539 1274 -128 2067 -128 
C 2861 -128 3552 539 3552 1454 
L 3552 4384 
z
" transform="scale(0.015625)"/>
      <path id="CMSS17-53" d="M 2797 4169 
C 2515 4334 2208 4480 1690 4480 
C 864 4480 333 3879 333 3266 
C 333 3025 403 2753 653 2475 
C 902 2196 1184 2121 1542 2033 
C 1690 1994 1939 1924 1984 1906 
C 2342 1767 2515 1444 2515 1140 
C 2515 742 2202 318 1645 318 
C 1453 318 890 318 358 819 
L 269 318 
C 794 -64 1363 -128 1651 -128 
C 2438 -128 3002 488 3002 1186 
C 3002 1440 2925 1763 2656 2061 
C 2394 2347 2163 2410 1638 2549 
C 1338 2626 1146 2677 986 2873 
C 877 3013 819 3146 819 3317 
C 819 3673 1126 4060 1690 4060 
C 1971 4060 2336 4002 2707 3660 
L 2797 4169 
z
" transform="scale(0.015625)"/>
     </defs>
     <use xlink:href="#CMSS17-55" transform="scale(0.996264)"/>
     <use xlink:href="#CMSS17-53" transform="translate(64.13974 0)scale(0.996264)"/>
     <use xlink:href="#CMSS17-41" transform="translate(116.188256 0)scale(0.996264)"/>
     <use xlink:href="#CMSS17-61" transform="translate(209.635224 0)scale(0.996264)"/>
     <use xlink:href="#CMSS17-6e" transform="translate(254.557145 0)scale(0.996264)"/>
     <use xlink:href="#CMSS17-64" transform="translate(302.762088 0)scale(0.996264)"/>
     <use xlink:href="#CMSS17-43" transform="translate(382.196144 0)scale(0.996264)"/>
     <use xlink:href="#CMSS17-61" transform="translate(442.051915 0)scale(0.996264)"/>
     <use xlink:href="#CMSS17-6e" transform="translate(486.973836 0)scale(0.996264)"/>
     <use xlink:href="#CMSS17-61" transform="translate(535.178779 0)scale(0.996264)"/>
     <use xlink:href="#CMSS17-64" transform="translate(580.1007 0)scale(0.996264)"/>
     <use xlink:href="#CMSS17-61" transform="translate(628.305643 0)scale(0.996264)"/>
    </g>
   </g>
   <g id="text_22">
    <!-- 19.2% -->
    <g transform="translate(192.375113 252.923726)scale(0.1 -0.1)">
     <use xlink:href="#CMSS17-31" transform="scale(0.996264)"/>
     <use xlink:href="#CMSS17-39" transform="translate(46.843624 0)scale(0.996264)"/>
     <use xlink:href="#CMSS17-2e" transform="translate(93.687247 0)scale(0.996264)"/>
     <use xlink:href="#CMSS17-32" transform="translate(119.711452 0)scale(0.996264)"/>
    </g>
   </g>
   <g id="text_23">
    <!-- Production non-ferous metal ores -->
    <g transform="translate(107.23552 28.717909)scale(0.12 -0.12)">
     <defs>
      <path id="CMSS17-50" d="M 2106 1856 
C 2874 1856 3501 2453 3501 3158 
C 3501 3850 2899 4453 2067 4453 
L 570 4453 
L 570 0 
L 1107 0 
L 1107 1856 
L 2106 1856 
z
M 1926 4096 
C 2669 4096 2995 3627 2995 3157 
C 2995 2720 2694 2226 1926 2226 
L 1094 2226 
L 1094 4096 
L 1926 4096 
z
" transform="scale(0.015625)"/>
      <path id="CMSS17-2d" d="M 1664 1216 
L 1664 1585 
L 64 1585 
L 64 1216 
L 1664 1216 
z
" transform="scale(0.015625)"/>
     </defs>
     <use xlink:href="#CMSS17-50" transform="scale(0.996264)"/>
     <use xlink:href="#CMSS17-72" transform="translate(59.735586 0)scale(0.996264)"/>
     <use xlink:href="#CMSS17-6f" transform="translate(91.645359 0)scale(0.996264)"/>
     <use xlink:href="#CMSS17-64" transform="translate(141.091421 0)scale(0.996264)"/>
     <use xlink:href="#CMSS17-75" transform="translate(189.296364 0)scale(0.996264)"/>
     <use xlink:href="#CMSS17-63" transform="translate(237.501307 0)scale(0.996264)"/>
     <use xlink:href="#CMSS17-74" transform="translate(279.140129 0)scale(0.996264)"/>
     <use xlink:href="#CMSS17-69" transform="translate(312.971696 0)scale(0.996264)"/>
     <use xlink:href="#CMSS17-6f" transform="translate(335.152419 0)scale(0.996264)"/>
     <use xlink:href="#CMSS17-6e" transform="translate(381.996043 0)scale(0.996264)"/>
     <use xlink:href="#CMSS17-6e" transform="translate(461.430099 0)scale(0.996264)"/>
     <use xlink:href="#CMSS17-6f" transform="translate(509.635042 0)scale(0.996264)"/>
     <use xlink:href="#CMSS17-6e" transform="translate(556.478665 0)scale(0.996264)"/>
     <use xlink:href="#CMSS17-2d" transform="translate(604.683608 0)scale(0.996264)"/>
     <use xlink:href="#CMSS17-66" transform="translate(635.912721 0)scale(0.996264)"/>
     <use xlink:href="#CMSS17-65" transform="translate(664.53938 0)scale(0.996264)"/>
     <use xlink:href="#CMSS17-72" transform="translate(706.178202 0)scale(0.996264)"/>
     <use xlink:href="#CMSS17-6f" transform="translate(738.087975 0)scale(0.996264)"/>
     <use xlink:href="#CMSS17-75" transform="translate(784.931598 0)scale(0.996264)"/>
     <use xlink:href="#CMSS17-73" transform="translate(833.136541 0)scale(0.996264)"/>
     <use xlink:href="#CMSS17-6d" transform="translate(900.279196 0)scale(0.996264)"/>
     <use xlink:href="#CMSS17-65" transform="translate(974.50845 0)scale(0.996264)"/>
     <use xlink:href="#CMSS17-74" transform="translate(1016.147272 0)scale(0.996264)"/>
     <use xlink:href="#CMSS17-61" transform="translate(1049.978839 0)scale(0.996264)"/>
     <use xlink:href="#CMSS17-6c" transform="translate(1094.90076 0)scale(0.996264)"/>
     <use xlink:href="#CMSS17-6f" transform="translate(1148.310596 0)scale(0.996264)"/>
     <use xlink:href="#CMSS17-72" transform="translate(1192.551765 0)scale(0.996264)"/>
     <use xlink:href="#CMSS17-65" transform="translate(1224.461538 0)scale(0.996264)"/>
     <use xlink:href="#CMSS17-73" transform="translate(1266.10036 0)scale(0.996264)"/>
    </g>
   </g>
  </g>
  <g id="axes_2">
   <g id="matplotlib.axis_3"/>
   <g id="matplotlib.axis_4"/>
   <g id="patch_13">
    <path d="M 637.76136 264.157008 
C 640.607682 261.310685 643.305522 258.319654 645.844155 255.195803 
C 648.382789 252.071951 650.758849 248.819423 652.962892 245.451144 
L 554.864532 181.260181 
L 637.76136 264.157008 
z
" style="fill: #0173b2"/>
   </g>
   <g id="patch_14">
    <path d="M 652.962892 245.451144 
C 654.554467 243.018856 656.055031 240.528216 657.461473 237.984389 
C 658.867914 235.440561 660.17926 232.845306 661.392792 230.204004 
L 554.864532 181.260181 
L 652.962892 245.451144 
z
" style="fill: #de8f05"/>
   </g>
   <g id="patch_15">
    <path d="M 661.392792 230.204004 
C 671.086943 209.104283 674.297244 185.592635 670.614434 162.666412 
C 666.931624 139.740189 656.519148 118.416869 640.704427 101.414828 
L 554.864532 181.260181 
L 661.392792 230.204004 
z
" style="fill: #029e73"/>
   </g>
   <g id="patch_16">
    <path d="M 640.704427 101.414828 
C 628.224723 87.998187 612.771601 77.692384 595.589244 71.327175 
C 578.406887 64.961966 559.969148 62.71289 541.760513 64.761028 
L 554.864532 181.260181 
L 640.704427 101.414828 
z
" style="fill: #d55e00"/>
   </g>
   <g id="patch_17">
    <path d="M 541.760513 64.761028 
C 540.63688 64.887416 539.515134 65.030054 538.395627 65.188896 
C 537.276121 65.347739 536.158971 65.522769 535.044529 65.713933 
L 554.864532 181.260181 
L 541.760513 64.761028 
z
" style="fill: #cc78bc"/>
   </g>
   <g id="patch_18">
    <path d="M 535.044529 65.713933 
C 522.707408 67.830157 510.788459 71.90868 499.741187 77.794318 
C 488.693914 83.679956 478.660232 91.297102 470.021911 100.355931 
L 554.864532 181.260181 
L 535.044529 65.713933 
z
" style="fill: #ca9161"/>
   </g>
   <g id="patch_19">
    <path d="M 470.021911 100.355931 
C 465.044254 105.575898 460.55894 111.244122 456.623061 117.288457 
C 452.687182 123.332793 449.317508 129.727485 446.556927 136.391142 
L 554.864532 181.260181 
L 470.021911 100.355931 
z
" style="fill: #fbafe4"/>
   </g>
   <g id="patch_20">
    <path d="M 446.556927 136.391142 
C 445.460228 139.038421 444.460956 141.725018 443.561124 144.44552 
C 442.661292 147.166023 441.861505 149.918602 441.163374 152.697711 
L 554.864532 181.260181 
L 446.556927 136.391142 
z
" style="fill: #949494"/>
   </g>
   <g id="patch_21">
    <path d="M 441.163374 152.697711 
C 439.361389 159.871033 438.24228 167.198816 437.821022 174.583005 
C 437.399764 181.967194 437.678244 189.374707 438.652736 196.706424 
L 554.864532 181.260181 
L 441.163374 152.697711 
z
" style="fill: #ece133"/>
   </g>
   <g id="patch_22">
    <path d="M 438.652736 196.706424 
C 438.739229 197.357163 438.831186 198.007165 438.928598 198.65636 
C 439.026009 199.305555 439.128872 199.95392 439.237175 200.601387 
L 554.864532 181.260181 
L 438.652736 196.706424 
z
" style="fill: #56b4e9"/>
   </g>
   <g id="patch_23">
    <path d="M 439.237175 200.601387 
C 442.789588 221.838747 452.125291 241.692468 466.215502 257.974699 
C 480.305713 274.256931 498.613123 286.346774 519.120283 292.911946 
C 539.627444 299.477118 561.552344 300.267266 582.478892 295.195316 
C 603.405441 290.123367 622.535635 279.382731 637.761356 264.157012 
L 554.864532 181.260181 
L 439.237175 200.601387 
z
" style="fill: #808000"/>
   </g>
   <g id="text_24">
    <!-- Africa -->
    <g transform="translate(654.942117 265.080025)scale(0.1 -0.1)">
     <use xlink:href="#CMSS17-41" transform="scale(0.996264)"/>
     <use xlink:href="#CMSS17-66" transform="translate(62.217855 0)scale(0.996264)"/>
     <use xlink:href="#CMSS17-72" transform="translate(90.844514 0)scale(0.996264)"/>
     <use xlink:href="#CMSS17-69" transform="translate(122.754286 0)scale(0.996264)"/>
     <use xlink:href="#CMSS17-63" transform="translate(144.935009 0)scale(0.996264)"/>
     <use xlink:href="#CMSS17-61" transform="translate(186.573831 0)scale(0.996264)"/>
    </g>
   </g>
   <g id="text_25">
    <!-- 3.3% -->
    <g transform="translate(603.087266 228.112214)scale(0.1 -0.1)">
     <use xlink:href="#CMSS17-33" transform="scale(0.996264)"/>
     <use xlink:href="#CMSS17-2e" transform="translate(46.843624 0)scale(0.996264)"/>
     <use xlink:href="#CMSS17-33" transform="translate(72.867828 0)scale(0.996264)"/>
    </g>
   </g>
   <g id="text_26">
    <!-- Australia -->
    <g transform="translate(667.721167 246.147469)scale(0.1 -0.1)">
     <use xlink:href="#CMSS17-41" transform="scale(0.996264)"/>
     <use xlink:href="#CMSS17-75" transform="translate(62.217855 0)scale(0.996264)"/>
     <use xlink:href="#CMSS17-73" transform="translate(110.422798 0)scale(0.996264)"/>
     <use xlink:href="#CMSS17-74" transform="translate(146.33634 0)scale(0.996264)"/>
     <use xlink:href="#CMSS17-72" transform="translate(180.167907 0)scale(0.996264)"/>
     <use xlink:href="#CMSS17-61" transform="translate(212.077679 0)scale(0.996264)"/>
     <use xlink:href="#CMSS17-6c" transform="translate(256.9996 0)scale(0.996264)"/>
     <use xlink:href="#CMSS17-69" transform="translate(279.180323 0)scale(0.996264)"/>
     <use xlink:href="#CMSS17-61" transform="translate(301.361046 0)scale(0.996264)"/>
    </g>
   </g>
   <g id="text_27">
    <!-- 2.4% -->
    <g transform="translate(610.057657 217.785366)scale(0.1 -0.1)">
     <use xlink:href="#CMSS17-32" transform="scale(0.996264)"/>
     <use xlink:href="#CMSS17-2e" transform="translate(46.843624 0)scale(0.996264)"/>
     <use xlink:href="#CMSS17-34" transform="translate(72.867828 0)scale(0.996264)"/>
    </g>
   </g>
   <g id="text_28">
    <!-- China -->
    <g transform="translate(682.189424 163.297695)scale(0.1 -0.1)">
     <use xlink:href="#CMSS17-43" transform="scale(0.996264)"/>
     <use xlink:href="#CMSS17-68" transform="translate(59.855772 0)scale(0.996264)"/>
     <use xlink:href="#CMSS17-69" transform="translate(108.060715 0)scale(0.996264)"/>
     <use xlink:href="#CMSS17-6e" transform="translate(130.241438 0)scale(0.996264)"/>
     <use xlink:href="#CMSS17-61" transform="translate(178.446381 0)scale(0.996264)"/>
    </g>
   </g>
   <g id="text_29">
    <!-- 18.8% -->
    <g transform="translate(615.458766 172.594579)scale(0.1 -0.1)">
     <defs>
      <path id="CMSS17-38" d="M 1933 2222 
C 2419 2380 2669 2760 2669 3134 
C 2669 3722 2157 4229 1504 4229 
C 826 4229 333 3708 333 3144 
C 333 2780 576 2403 1069 2241 
C 442 1997 250 1512 250 1149 
C 250 446 819 -128 1498 -128 
C 2202 -128 2752 455 2752 1138 
C 2752 1557 2502 2000 1933 2222 
z
M 1504 2432 
C 1075 2432 787 2712 787 3136 
C 787 3566 1075 3840 1504 3840 
C 1901 3840 2214 3591 2214 3136 
C 2214 2687 1907 2432 1504 2432 
z
M 1504 267 
C 1139 267 749 517 749 1156 
C 749 1813 1184 2043 1498 2043 
C 1843 2043 2253 1800 2253 1156 
C 2253 491 1830 267 1504 267 
z
" transform="scale(0.015625)"/>
     </defs>
     <use xlink:href="#CMSS17-31" transform="scale(0.996264)"/>
     <use xlink:href="#CMSS17-38" transform="translate(46.843624 0)scale(0.996264)"/>
     <use xlink:href="#CMSS17-2e" transform="translate(93.687247 0)scale(0.996264)"/>
     <use xlink:href="#CMSS17-38" transform="translate(119.711452 0)scale(0.996264)"/>
    </g>
   </g>
   <g id="text_30">
    <!-- Europe -->
    <g transform="translate(599.661716 62.824534)scale(0.1 -0.1)">
     <use xlink:href="#CMSS17-45" transform="scale(0.996264)"/>
     <use xlink:href="#CMSS17-75" transform="translate(55.892013 0)scale(0.996264)"/>
     <use xlink:href="#CMSS17-72" transform="translate(104.096956 0)scale(0.996264)"/>
     <use xlink:href="#CMSS17-6f" transform="translate(136.006729 0)scale(0.996264)"/>
     <use xlink:href="#CMSS17-70" transform="translate(182.850352 0)scale(0.996264)"/>
     <use xlink:href="#CMSS17-65" transform="translate(233.657734 0)scale(0.996264)"/>
    </g>
   </g>
   <g id="text_31">
    <!-- 14.9% -->
    <g transform="translate(570.443652 117.791037)scale(0.1 -0.1)">
     <use xlink:href="#CMSS17-31" transform="scale(0.996264)"/>
     <use xlink:href="#CMSS17-34" transform="translate(46.843624 0)scale(0.996264)"/>
     <use xlink:href="#CMSS17-2e" transform="translate(93.687247 0)scale(0.996264)"/>
     <use xlink:href="#CMSS17-39" transform="translate(119.711452 0)scale(0.996264)"/>
    </g>
   </g>
   <g id="text_32">
    <!-- India -->
    <g transform="translate(516.518995 56.072428)scale(0.1 -0.1)">
     <use xlink:href="#CMSS17-49" transform="scale(0.996264)"/>
     <use xlink:href="#CMSS17-6e" transform="translate(25.783926 0)scale(0.996264)"/>
     <use xlink:href="#CMSS17-64" transform="translate(73.988869 0)scale(0.996264)"/>
     <use xlink:href="#CMSS17-69" transform="translate(122.193812 0)scale(0.996264)"/>
     <use xlink:href="#CMSS17-61" transform="translate(144.374535 0)scale(0.996264)"/>
    </g>
   </g>
   <g id="text_33">
    <!-- 0.9% -->
    <g transform="translate(538.61815 114.10807)scale(0.1 -0.1)">
     <use xlink:href="#CMSS17-30" transform="scale(0.996264)"/>
     <use xlink:href="#CMSS17-2e" transform="translate(46.843624 0)scale(0.996264)"/>
     <use xlink:href="#CMSS17-39" transform="translate(72.867828 0)scale(0.996264)"/>
    </g>
   </g>
   <g id="text_34">
    <!-- Japan and Korea -->
    <g transform="translate(423.687687 69.938392)scale(0.1 -0.1)">
     <use xlink:href="#CMSS17-4a" transform="scale(0.996264)"/>
     <use xlink:href="#CMSS17-61" transform="translate(44.121076 0)scale(0.996264)"/>
     <use xlink:href="#CMSS17-70" transform="translate(89.042996 0)scale(0.996264)"/>
     <use xlink:href="#CMSS17-61" transform="translate(137.247939 0)scale(0.996264)"/>
     <use xlink:href="#CMSS17-6e" transform="translate(182.16986 0)scale(0.996264)"/>
     <use xlink:href="#CMSS17-61" transform="translate(261.603916 0)scale(0.996264)"/>
     <use xlink:href="#CMSS17-6e" transform="translate(306.525836 0)scale(0.996264)"/>
     <use xlink:href="#CMSS17-64" transform="translate(354.730779 0)scale(0.996264)"/>
     <use xlink:href="#CMSS17-4b" transform="translate(434.164835 0)scale(0.996264)"/>
     <use xlink:href="#CMSS17-6f" transform="translate(498.985129 0)scale(0.996264)"/>
     <use xlink:href="#CMSS17-72" transform="translate(543.226299 0)scale(0.996264)"/>
     <use xlink:href="#CMSS17-65" transform="translate(575.136071 0)scale(0.996264)"/>
     <use xlink:href="#CMSS17-61" transform="translate(616.774893 0)scale(0.996264)"/>
    </g>
   </g>
   <g id="text_35">
    <!-- 10.2% -->
    <g transform="translate(512.934818 121.671323)scale(0.1 -0.1)">
     <use xlink:href="#CMSS17-31" transform="scale(0.996264)"/>
     <use xlink:href="#CMSS17-30" transform="translate(46.843624 0)scale(0.996264)"/>
     <use xlink:href="#CMSS17-2e" transform="translate(93.687247 0)scale(0.996264)"/>
     <use xlink:href="#CMSS17-32" transform="translate(119.711452 0)scale(0.996264)"/>
    </g>
   </g>
   <g id="text_36">
    <!-- Latin America -->
    <g transform="translate(388.18528 113.381945)scale(0.1 -0.1)">
     <use xlink:href="#CMSS17-4c" transform="scale(0.996264)"/>
     <use xlink:href="#CMSS17-61" transform="translate(50.687105 0)scale(0.996264)"/>
     <use xlink:href="#CMSS17-74" transform="translate(95.609026 0)scale(0.996264)"/>
     <use xlink:href="#CMSS17-69" transform="translate(129.440593 0)scale(0.996264)"/>
     <use xlink:href="#CMSS17-6e" transform="translate(151.621316 0)scale(0.996264)"/>
     <use xlink:href="#CMSS17-41" transform="translate(231.055372 0)scale(0.996264)"/>
     <use xlink:href="#CMSS17-6d" transform="translate(293.273226 0)scale(0.996264)"/>
     <use xlink:href="#CMSS17-65" transform="translate(367.502481 0)scale(0.996264)"/>
     <use xlink:href="#CMSS17-72" transform="translate(409.141303 0)scale(0.996264)"/>
     <use xlink:href="#CMSS17-69" transform="translate(441.051076 0)scale(0.996264)"/>
     <use xlink:href="#CMSS17-63" transform="translate(463.231799 0)scale(0.996264)"/>
     <use xlink:href="#CMSS17-61" transform="translate(504.870621 0)scale(0.996264)"/>
    </g>
   </g>
   <g id="text_37">
    <!-- 5.9% -->
    <g transform="translate(489.55461 145.367807)scale(0.1 -0.1)">
     <defs>
      <path id="CMSS17-35" d="M 934 3752 
L 2502 3752 
L 2502 4160 
L 467 4160 
L 467 1781 
L 896 1781 
C 1011 2046 1248 2240 1555 2240 
C 1843 2240 2163 1989 2163 1266 
C 2163 493 1709 267 1376 267 
C 966 267 589 512 422 851 
L 218 499 
C 512 49 992 -128 1376 -128 
C 2118 -128 2701 497 2701 1253 
C 2701 2030 2182 2629 1562 2629 
C 1338 2629 1120 2553 934 2399 
L 934 3752 
z
" transform="scale(0.015625)"/>
     </defs>
     <use xlink:href="#CMSS17-35" transform="scale(0.996264)"/>
     <use xlink:href="#CMSS17-2e" transform="translate(46.843624 0)scale(0.996264)"/>
     <use xlink:href="#CMSS17-39" transform="translate(72.867828 0)scale(0.996264)"/>
    </g>
   </g>
   <g id="text_38">
    <!-- Middle East -->
    <g transform="translate(382.755888 143.254714)scale(0.1 -0.1)">
     <use xlink:href="#CMSS17-4d" transform="scale(0.996264)"/>
     <use xlink:href="#CMSS17-69" transform="translate(81.67603 0)scale(0.996264)"/>
     <use xlink:href="#CMSS17-64" transform="translate(103.856753 0)scale(0.996264)"/>
     <use xlink:href="#CMSS17-64" transform="translate(152.061696 0)scale(0.996264)"/>
     <use xlink:href="#CMSS17-6c" transform="translate(200.266639 0)scale(0.996264)"/>
     <use xlink:href="#CMSS17-65" transform="translate(222.447362 0)scale(0.996264)"/>
     <use xlink:href="#CMSS17-45" transform="translate(295.315297 0)scale(0.996264)"/>
     <use xlink:href="#CMSS17-61" transform="translate(351.20731 0)scale(0.996264)"/>
     <use xlink:href="#CMSS17-73" transform="translate(396.129231 0)scale(0.996264)"/>
     <use xlink:href="#CMSS17-74" transform="translate(432.042773 0)scale(0.996264)"/>
    </g>
   </g>
   <g id="text_39">
    <!-- 2.3% -->
    <g transform="translate(481.717448 161.662045)scale(0.1 -0.1)">
     <use xlink:href="#CMSS17-32" transform="scale(0.996264)"/>
     <use xlink:href="#CMSS17-2e" transform="translate(46.843624 0)scale(0.996264)"/>
     <use xlink:href="#CMSS17-33" transform="translate(72.867828 0)scale(0.996264)"/>
    </g>
   </g>
   <g id="text_40">
    <!-- Rest of Asia -->
    <g transform="translate(375.542363 176.405947)scale(0.1 -0.1)">
     <use xlink:href="#CMSS17-52" transform="scale(0.996264)"/>
     <use xlink:href="#CMSS17-65" transform="translate(60.416155 0)scale(0.996264)"/>
     <use xlink:href="#CMSS17-73" transform="translate(102.054977 0)scale(0.996264)"/>
     <use xlink:href="#CMSS17-74" transform="translate(137.968519 0)scale(0.996264)"/>
     <use xlink:href="#CMSS17-6f" transform="translate(203.029198 0)scale(0.996264)"/>
     <use xlink:href="#CMSS17-66" transform="translate(249.872822 0)scale(0.996264)"/>
     <use xlink:href="#CMSS17-41" transform="translate(309.728593 0)scale(0.996264)"/>
     <use xlink:href="#CMSS17-73" transform="translate(371.946448 0)scale(0.996264)"/>
     <use xlink:href="#CMSS17-69" transform="translate(407.85999 0)scale(0.996264)"/>
     <use xlink:href="#CMSS17-61" transform="translate(430.040713 0)scale(0.996264)"/>
    </g>
   </g>
   <g id="text_41">
    <!-- 6.0% -->
    <g transform="translate(478.273387 179.744535)scale(0.1 -0.1)">
     <use xlink:href="#CMSS17-36" transform="scale(0.996264)"/>
     <use xlink:href="#CMSS17-2e" transform="translate(46.843624 0)scale(0.996264)"/>
     <use xlink:href="#CMSS17-30" transform="translate(72.867828 0)scale(0.996264)"/>
    </g>
   </g>
   <g id="text_42">
    <!-- Russia -->
    <g transform="translate(400.947811 202.886638)scale(0.1 -0.1)">
     <use xlink:href="#CMSS17-52" transform="scale(0.996264)"/>
     <use xlink:href="#CMSS17-75" transform="translate(60.416155 0)scale(0.996264)"/>
     <use xlink:href="#CMSS17-73" transform="translate(108.621098 0)scale(0.996264)"/>
     <use xlink:href="#CMSS17-73" transform="translate(144.53464 0)scale(0.996264)"/>
     <use xlink:href="#CMSS17-69" transform="translate(180.448182 0)scale(0.996264)"/>
     <use xlink:href="#CMSS17-61" transform="translate(202.628905 0)scale(0.996264)"/>
    </g>
   </g>
   <g id="text_43">
    <!-- 0.5% -->
    <g transform="translate(478.937932 194.188548)scale(0.1 -0.1)">
     <use xlink:href="#CMSS17-30" transform="scale(0.996264)"/>
     <use xlink:href="#CMSS17-2e" transform="translate(46.843624 0)scale(0.996264)"/>
     <use xlink:href="#CMSS17-35" transform="translate(72.867828 0)scale(0.996264)"/>
    </g>
   </g>
   <g id="text_44">
    <!-- USA and Canada -->
    <g transform="translate(443.773166 306.567782)scale(0.1 -0.1)">
     <use xlink:href="#CMSS17-55" transform="scale(0.996264)"/>
     <use xlink:href="#CMSS17-53" transform="translate(64.13974 0)scale(0.996264)"/>
     <use xlink:href="#CMSS17-41" transform="translate(116.188256 0)scale(0.996264)"/>
     <use xlink:href="#CMSS17-61" transform="translate(209.635224 0)scale(0.996264)"/>
     <use xlink:href="#CMSS17-6e" transform="translate(254.557145 0)scale(0.996264)"/>
     <use xlink:href="#CMSS17-64" transform="translate(302.762088 0)scale(0.996264)"/>
     <use xlink:href="#CMSS17-43" transform="translate(382.196144 0)scale(0.996264)"/>
     <use xlink:href="#CMSS17-61" transform="translate(442.051915 0)scale(0.996264)"/>
     <use xlink:href="#CMSS17-6e" transform="translate(486.973836 0)scale(0.996264)"/>
     <use xlink:href="#CMSS17-61" transform="translate(535.178779 0)scale(0.996264)"/>
     <use xlink:href="#CMSS17-64" transform="translate(580.1007 0)scale(0.996264)"/>
     <use xlink:href="#CMSS17-61" transform="translate(628.305643 0)scale(0.996264)"/>
    </g>
   </g>
   <g id="text_45">
    <!-- 34.9% -->
    <g transform="translate(524.562276 250.7419)scale(0.1 -0.1)">
     <use xlink:href="#CMSS17-33" transform="scale(0.996264)"/>
     <use xlink:href="#CMSS17-34" transform="translate(46.843624 0)scale(0.996264)"/>
     <use xlink:href="#CMSS17-2e" transform="translate(93.687247 0)scale(0.996264)"/>
     <use xlink:href="#CMSS17-39" transform="translate(119.711452 0)scale(0.996264)"/>
    </g>
   </g>
   <g id="text_46">
    <!-- Consumption non-ferous metal ores -->
    <g transform="translate(468.492223 28.717909)scale(0.12 -0.12)">
     <use xlink:href="#CMSS17-43" transform="scale(0.996264)"/>
     <use xlink:href="#CMSS17-6f" transform="translate(59.855772 0)scale(0.996264)"/>
     <use xlink:href="#CMSS17-6e" transform="translate(106.699395 0)scale(0.996264)"/>
     <use xlink:href="#CMSS17-73" transform="translate(154.904338 0)scale(0.996264)"/>
     <use xlink:href="#CMSS17-75" transform="translate(190.81788 0)scale(0.996264)"/>
     <use xlink:href="#CMSS17-6d" transform="translate(239.022823 0)scale(0.996264)"/>
     <use xlink:href="#CMSS17-70" transform="translate(313.252078 0)scale(0.996264)"/>
     <use xlink:href="#CMSS17-74" transform="translate(361.457021 0)scale(0.996264)"/>
     <use xlink:href="#CMSS17-69" transform="translate(395.288588 0)scale(0.996264)"/>
     <use xlink:href="#CMSS17-6f" transform="translate(417.469311 0)scale(0.996264)"/>
     <use xlink:href="#CMSS17-6e" transform="translate(464.312934 0)scale(0.996264)"/>
     <use xlink:href="#CMSS17-6e" transform="translate(543.74699 0)scale(0.996264)"/>
     <use xlink:href="#CMSS17-6f" transform="translate(591.951933 0)scale(0.996264)"/>
     <use xlink:href="#CMSS17-6e" transform="translate(638.795557 0)scale(0.996264)"/>
     <use xlink:href="#CMSS17-2d" transform="translate(687.0005 0)scale(0.996264)"/>
     <use xlink:href="#CMSS17-66" transform="translate(718.229613 0)scale(0.996264)"/>
     <use xlink:href="#CMSS17-65" transform="translate(746.856271 0)scale(0.996264)"/>
     <use xlink:href="#CMSS17-72" transform="translate(788.495093 0)scale(0.996264)"/>
     <use xlink:href="#CMSS17-6f" transform="translate(820.404866 0)scale(0.996264)"/>
     <use xlink:href="#CMSS17-75" transform="translate(867.24849 0)scale(0.996264)"/>
     <use xlink:href="#CMSS17-73" transform="translate(915.453433 0)scale(0.996264)"/>
     <use xlink:href="#CMSS17-6d" transform="translate(982.596087 0)scale(0.996264)"/>
     <use xlink:href="#CMSS17-65" transform="translate(1056.825342 0)scale(0.996264)"/>
     <use xlink:href="#CMSS17-74" transform="translate(1098.464164 0)scale(0.996264)"/>
     <use xlink:href="#CMSS17-61" transform="translate(1132.295731 0)scale(0.996264)"/>
     <use xlink:href="#CMSS17-6c" transform="translate(1177.217651 0)scale(0.996264)"/>
     <use xlink:href="#CMSS17-6f" transform="translate(1230.627487 0)scale(0.996264)"/>
     <use xlink:href="#CMSS17-72" transform="translate(1274.868657 0)scale(0.996264)"/>
     <use xlink:href="#CMSS17-65" transform="translate(1306.778429 0)scale(0.996264)"/>
     <use xlink:href="#CMSS17-73" transform="translate(1348.417251 0)scale(0.996264)"/>
    </g>
   </g>
  </g>
 </g>
</svg>
