<?xml version="1.0" encoding="utf-8" standalone="no"?>
<!DOCTYPE svg PUBLIC "-//W3C//DTD SVG 1.1//EN"
  "http://www.w3.org/Graphics/SVG/1.1/DTD/svg11.dtd">
<svg xmlns:xlink="http://www.w3.org/1999/xlink" width="720pt" height="360pt" viewBox="0 0 720 360" xmlns="http://www.w3.org/2000/svg" version="1.1">
 <metadata>
  <rdf:RDF xmlns:dc="http://purl.org/dc/elements/1.1/" xmlns:cc="http://creativecommons.org/ns#" xmlns:rdf="http://www.w3.org/1999/02/22-rdf-syntax-ns#">
   <cc:Work>
    <dc:type rdf:resource="http://purl.org/dc/dcmitype/StillImage"/>
    <dc:date>2023-07-03T16:08:16.604559</dc:date>
    <dc:format>image/svg+xml</dc:format>
    <dc:creator>
     <cc:Agent>
      <dc:title>Matplotlib v3.5.1, https://matplotlib.org/</dc:title>
     </cc:Agent>
    </dc:creator>
   </cc:Work>
  </rdf:RDF>
 </metadata>
 <defs>
  <style type="text/css">*{stroke-linejoin: round; stroke-linecap: butt}</style>
 </defs>
 <g id="figure_1">
  <g id="patch_1">
   <path d="M 0 360 
L 720 360 
L 720 0 
L 0 0 
z
" style="fill: #ffffff"/>
  </g>
  <g id="axes_1">
   <g id="matplotlib.axis_1"/>
   <g id="matplotlib.axis_2"/>
   <g id="patch_2">
    <path d="M 89.664892 96.763163 
C 85.480641 100.947414 81.612967 105.436695 78.093801 110.193941 
C 74.574636 114.951187 71.41369 119.96327 68.637063 125.188809 
L 174.16191 181.260181 
L 89.664892 96.763163 
z
" style="fill: #0173b2"/>
   </g>
   <g id="patch_3">
    <path d="M 68.637063 125.188809 
C 66.507722 129.196173 64.608382 133.32158 62.948273 137.544979 
C 61.288164 141.768378 59.869981 146.082915 58.700617 150.467621 
L 174.16191 181.260181 
L 68.637063 125.188809 
z
" style="fill: #de8f05"/>
   </g>
   <g id="patch_4">
    <path d="M 58.700617 150.467621 
C 53.798057 168.850501 53.355827 188.141149 57.410842 206.729377 
C 61.465856 225.317605 69.902061 242.671427 82.015287 257.34232 
C 94.128514 272.013213 109.572087 283.581303 127.056934 291.081004 
C 144.54178 298.580704 163.567492 301.797377 182.545994 300.462526 
L 174.16191 181.260181 
L 58.700617 150.467621 
z
" style="fill: #029e73"/>
   </g>
   <g id="patch_5">
    <path d="M 182.545994 300.462526 
C 189.4561 299.976504 196.310877 298.890538 203.032837 297.216904 
C 209.754796 295.543269 216.318513 293.288296 222.649791 290.477475 
L 174.16191 181.260181 
L 182.545994 300.462526 
z
" style="fill: #d55e00"/>
   </g>
   <g id="patch_6">
    <path d="M 222.649791 290.477475 
C 224.890862 289.482534 227.100778 288.418851 229.276402 287.287936 
C 231.452025 286.157021 233.592324 284.95941 235.69426 283.696805 
L 174.16191 181.260181 
L 222.649791 290.477475 
z
" style="fill: #cc78bc"/>
   </g>
   <g id="patch_7">
    <path d="M 235.69426 283.696805 
C 235.748689 283.66411 235.803092 283.631372 235.857469 283.59859 
C 235.911846 283.565808 235.966196 283.532984 236.020521 283.500115 
L 174.16191 181.260181 
L 235.69426 283.696805 
z
" style="fill: #ca9161"/>
   </g>
   <g id="patch_8">
    <path d="M 236.020521 283.500115 
C 242.452139 279.608769 248.502243 275.119198 254.090341 270.091132 
C 259.678439 265.063066 264.779639 259.518902 269.326075 253.5324 
L 174.16191 181.260181 
L 236.020521 283.500115 
z
" style="fill: #fbafe4"/>
   </g>
   <g id="patch_9">
    <path d="M 269.326075 253.5324 
C 277.905367 242.23565 284.404998 229.500977 288.520078 215.925745 
C 292.635159 202.350514 294.300323 188.150361 293.43746 173.991397 
L 174.16191 181.260181 
L 269.326075 253.5324 
z
" style="fill: #949494"/>
   </g>
   <g id="patch_10">
    <path d="M 293.43746 173.991397 
C 292.298997 155.310038 286.787387 137.154816 277.348193 120.993415 
C 267.908998 104.832014 254.80362 91.111993 239.091508 80.942489 
L 174.16191 181.260181 
L 293.43746 173.991397 
z
" style="fill: #ece133"/>
   </g>
   <g id="patch_11">
    <path d="M 239.091508 80.942489 
C 216.139043 66.086741 188.769043 59.548914 161.580398 62.427536 
C 134.391754 65.306158 108.997621 77.430434 89.664891 96.763164 
L 174.16191 181.260181 
L 239.091508 80.942489 
z
" style="fill: #56b4e9"/>
   </g>
   <g id="text_1">
    <!-- Africa -->
    <g transform="translate(43.801713 105.577977)scale(0.1 -0.1)">
     <defs>
      <path id="CMSS17-41" d="M 2272 4416 
L 1722 4416 
L 166 0 
L 653 0 
L 1101 1280 
L 2816 1280 
L 3270 0 
L 3827 0 
L 2272 4416 
z
M 2694 1637 
L 1222 1637 
C 1530 2528 1914 3638 1958 3925 
L 1965 3925 
C 2010 3663 2138 3281 2246 2956 
L 2694 1637 
z
" transform="scale(0.015625)"/>
      <path id="CMSS17-66" d="M 1075 2368 
L 1722 2368 
L 1722 2737 
L 1062 2737 
L 1062 3559 
C 1062 4014 1408 4092 1606 4092 
C 1670 4092 1850 4092 2080 4009 
L 2080 4429 
C 1933 4461 1754 4480 1613 4480 
C 1018 4480 602 3993 602 3359 
L 602 2737 
L 160 2737 
L 160 2368 
L 602 2368 
L 602 0 
L 1075 0 
L 1075 2368 
z
" transform="scale(0.015625)"/>
      <path id="CMSS17-72" d="M 954 1363 
C 954 1965 1395 2368 1958 2368 
L 1958 2789 
C 1549 2789 1165 2585 934 2253 
L 934 2758 
L 480 2758 
L 480 0 
L 954 0 
L 954 1363 
z
" transform="scale(0.015625)"/>
      <path id="CMSS17-69" d="M 979 4183 
L 442 4183 
L 442 3648 
L 979 3648 
L 979 4183 
z
M 947 2739 
L 474 2739 
L 474 0 
L 947 0 
L 947 2739 
z
" transform="scale(0.015625)"/>
      <path id="CMSS17-63" d="M 2464 2541 
C 2464 2585 2170 2714 2093 2739 
C 1882 2816 1613 2816 1542 2816 
C 710 2816 211 2093 211 1363 
C 211 595 768 -64 1517 -64 
C 1946 -64 2253 76 2502 242 
L 2464 664 
C 2189 453 1869 337 1523 337 
C 1024 337 698 774 698 1369 
C 698 1831 909 2414 1549 2414 
C 1901 2414 2099 2343 2394 2145 
L 2464 2541 
z
" transform="scale(0.015625)"/>
      <path id="CMSS17-61" d="M 2406 1791 
C 2406 2392 1978 2808 1402 2808 
C 1120 2808 813 2757 461 2553 
L 499 2135 
C 659 2248 934 2432 1395 2432 
C 1722 2432 1920 2180 1920 1782 
L 1920 1536 
C 896 1536 256 1238 256 726 
C 256 461 416 -64 947 -64 
C 1043 -64 1562 -64 1933 217 
L 1933 -19 
L 2406 -19 
L 2406 1791 
z
M 1920 816 
C 1920 701 1920 548 1728 434 
C 1562 325 1350 325 1261 325 
C 941 325 723 511 723 744 
C 723 1211 1722 1211 1920 1211 
L 1920 816 
z
" transform="scale(0.015625)"/>
     </defs>
     <use xlink:href="#CMSS17-41" transform="scale(0.996264)"/>
     <use xlink:href="#CMSS17-66" transform="translate(62.217855 0)scale(0.996264)"/>
     <use xlink:href="#CMSS17-72" transform="translate(90.844514 0)scale(0.996264)"/>
     <use xlink:href="#CMSS17-69" transform="translate(122.754286 0)scale(0.996264)"/>
     <use xlink:href="#CMSS17-63" transform="translate(144.935009 0)scale(0.996264)"/>
     <use xlink:href="#CMSS17-61" transform="translate(186.573831 0)scale(0.996264)"/>
    </g>
   </g>
   <g id="text_2">
    <!-- 4.7% -->
    <g transform="translate(110.156005 141.111097)scale(0.1 -0.1)">
     <defs>
      <path id="CMSS17-34" d="M 2253 1088 
L 2835 1088 
L 2835 1477 
L 2253 1477 
L 2253 4192 
L 1690 4192 
L 166 1477 
L 166 1088 
L 1747 1088 
L 1747 0 
L 2253 0 
L 2253 1088 
z
M 659 1477 
C 1030 2127 1766 3439 1766 3885 
L 1766 1477 
L 659 1477 
z
" transform="scale(0.015625)"/>
      <path id="CMSS17-2e" d="M 1088 510 
L 576 510 
L 576 0 
L 1088 0 
L 1088 510 
z
" transform="scale(0.015625)"/>
      <path id="CMSS17-37" d="M 1389 3776 
C 1466 3776 1542 3776 1619 3776 
L 2355 3776 
C 1440 2711 915 1365 915 -32 
L 1427 -32 
C 1427 1323 1875 2696 2752 3795 
L 2752 4209 
L 250 4209 
L 250 3776 
L 1389 3776 
z
" transform="scale(0.015625)"/>
     </defs>
     <use xlink:href="#CMSS17-34" transform="scale(0.996264)"/>
     <use xlink:href="#CMSS17-2e" transform="translate(46.843624 0)scale(0.996264)"/>
     <use xlink:href="#CMSS17-37" transform="translate(72.867828 0)scale(0.996264)"/>
    </g>
   </g>
   <g id="text_3">
    <!-- Australia -->
    <g transform="translate(14.882048 135.664119)scale(0.1 -0.1)">
     <defs>
      <path id="CMSS17-75" d="M 2618 2739 
L 2131 2739 
L 2131 972 
C 2131 498 1786 306 1421 306 
C 998 306 960 447 960 709 
L 960 2739 
L 474 2739 
L 474 678 
C 474 179 646 -64 1088 -64 
C 1306 -64 1798 -13 2144 306 
L 2144 0 
L 2618 0 
L 2618 2739 
z
" transform="scale(0.015625)"/>
      <path id="CMSS17-73" d="M 2061 2627 
C 1683 2807 1389 2807 1197 2807 
C 742 2807 198 2648 198 2003 
C 198 1359 902 1218 1094 1179 
C 1389 1122 1715 1058 1715 740 
C 1715 337 1254 337 1171 337 
C 915 337 563 407 243 638 
L 166 210 
C 531 0 883 -64 1178 -64 
C 1965 -64 2163 416 2163 781 
C 2163 1094 1984 1305 1862 1401 
C 1651 1568 1574 1587 1050 1696 
C 960 1709 646 1779 646 2066 
C 646 2432 1050 2432 1139 2432 
C 1555 2432 1811 2303 1984 2208 
L 2061 2627 
z
" transform="scale(0.015625)"/>
      <path id="CMSS17-74" d="M 1069 2368 
L 1901 2368 
L 1901 2737 
L 1069 2737 
L 1069 3520 
L 614 3520 
L 614 2737 
L 109 2737 
L 109 2368 
L 602 2368 
L 602 749 
C 602 384 685 -64 1107 -64 
C 1427 -64 1722 25 2003 172 
L 1901 548 
C 1747 414 1562 337 1363 337 
C 1082 337 1069 696 1069 856 
L 1069 2368 
z
" transform="scale(0.015625)"/>
      <path id="CMSS17-6c" d="M 947 4416 
L 474 4416 
L 474 0 
L 947 0 
L 947 4416 
z
" transform="scale(0.015625)"/>
     </defs>
     <use xlink:href="#CMSS17-41" transform="scale(0.996264)"/>
     <use xlink:href="#CMSS17-75" transform="translate(62.217855 0)scale(0.996264)"/>
     <use xlink:href="#CMSS17-73" transform="translate(110.422798 0)scale(0.996264)"/>
     <use xlink:href="#CMSS17-74" transform="translate(146.33634 0)scale(0.996264)"/>
     <use xlink:href="#CMSS17-72" transform="translate(180.167907 0)scale(0.996264)"/>
     <use xlink:href="#CMSS17-61" transform="translate(212.077679 0)scale(0.996264)"/>
     <use xlink:href="#CMSS17-6c" transform="translate(256.9996 0)scale(0.996264)"/>
     <use xlink:href="#CMSS17-69" transform="translate(279.180323 0)scale(0.996264)"/>
     <use xlink:href="#CMSS17-61" transform="translate(301.361046 0)scale(0.996264)"/>
    </g>
   </g>
   <g id="text_4">
    <!-- 3.6% -->
    <g transform="translate(101.068688 157.52172)scale(0.1 -0.1)">
     <defs>
      <path id="CMSS17-33" d="M 1005 2025 
L 1440 2025 
C 2042 2025 2214 1507 2214 1146 
C 2214 653 1933 267 1472 267 
C 1114 267 608 444 320 912 
C 275 691 275 678 250 526 
C 550 88 1037 -128 1485 -128 
C 2214 -128 2752 473 2752 1138 
C 2752 1638 2400 2057 1920 2215 
C 2304 2424 2586 2816 2586 3273 
C 2586 3805 2093 4229 1491 4229 
C 941 4229 512 3892 333 3530 
C 378 3468 493 3284 550 3189 
C 691 3562 1056 3840 1485 3840 
C 1843 3840 2080 3607 2080 3271 
C 2080 2923 1856 2543 1478 2455 
C 1453 2455 1056 2417 1005 2411 
L 1005 2025 
z
" transform="scale(0.015625)"/>
      <path id="CMSS17-36" d="M 2496 4101 
C 2227 4210 2035 4229 1856 4229 
C 1024 4229 250 3368 250 2006 
C 250 265 986 -128 1510 -128 
C 1798 -128 2086 -39 2362 280 
C 2643 617 2752 898 2752 1389 
C 2752 2179 2362 2880 1779 2880 
C 1357 2880 992 2657 768 2376 
C 832 3258 1254 3840 1862 3840 
C 2029 3840 2246 3816 2496 3710 
L 2496 4101 
z
M 774 1369 
C 774 1420 774 1452 781 1548 
C 781 2045 1069 2491 1536 2491 
C 1837 2491 1990 2332 2106 2135 
C 2240 1886 2246 1650 2246 1388 
C 2246 1140 2246 891 2099 637 
C 1978 439 1818 267 1510 267 
C 902 267 800 1114 774 1369 
z
" transform="scale(0.015625)"/>
     </defs>
     <use xlink:href="#CMSS17-33" transform="scale(0.996264)"/>
     <use xlink:href="#CMSS17-2e" transform="translate(46.843624 0)scale(0.996264)"/>
     <use xlink:href="#CMSS17-36" transform="translate(72.867828 0)scale(0.996264)"/>
    </g>
   </g>
   <g id="text_5">
    <!-- China -->
    <g transform="translate(48.973275 267.441194)scale(0.1 -0.1)">
     <defs>
      <path id="CMSS17-43" d="M 3501 714 
C 3072 427 2874 344 2355 344 
C 1459 344 934 1303 934 2179 
C 934 3112 1472 4032 2381 4032 
C 2790 4032 3059 3918 3386 3715 
L 3475 4217 
C 3168 4370 2778 4440 2387 4440 
C 1158 4440 397 3316 397 2179 
C 397 927 1299 -64 2323 -64 
C 2874 -64 3066 -19 3539 280 
L 3501 714 
z
" transform="scale(0.015625)"/>
      <path id="CMSS17-68" d="M 2618 1891 
C 2618 2292 2522 2820 1798 2820 
C 1395 2820 1133 2623 947 2407 
L 947 4448 
L 474 4448 
L 474 32 
L 960 32 
L 960 1573 
C 960 1973 1114 2432 1549 2432 
C 2112 2432 2131 2056 2131 1839 
L 2131 32 
L 2618 32 
L 2618 1891 
z
" transform="scale(0.015625)"/>
      <path id="CMSS17-6e" d="M 2618 1877 
C 2618 2283 2522 2816 1798 2816 
C 1389 2816 1120 2606 941 2389 
L 941 2758 
L 474 2758 
L 474 0 
L 960 0 
L 960 1559 
C 960 1964 1114 2428 1549 2428 
C 2112 2428 2131 2048 2131 1829 
L 2131 0 
L 2618 0 
L 2618 1877 
z
" transform="scale(0.015625)"/>
     </defs>
     <use xlink:href="#CMSS17-43" transform="scale(0.996264)"/>
     <use xlink:href="#CMSS17-68" transform="translate(59.855772 0)scale(0.996264)"/>
     <use xlink:href="#CMSS17-69" transform="translate(108.060715 0)scale(0.996264)"/>
     <use xlink:href="#CMSS17-6e" transform="translate(130.241438 0)scale(0.996264)"/>
     <use xlink:href="#CMSS17-61" transform="translate(178.446381 0)scale(0.996264)"/>
    </g>
   </g>
   <g id="text_6">
    <!-- 30.3% -->
    <g transform="translate(110.018229 229.400124)scale(0.1 -0.1)">
     <defs>
      <path id="CMSS17-30" d="M 2758 2044 
C 2758 2405 2752 3077 2490 3596 
C 2227 4096 1805 4229 1504 4229 
C 1069 4229 698 3975 506 3570 
C 301 3146 243 2709 243 2044 
C 243 1589 262 1031 493 543 
C 755 5 1197 -128 1498 -128 
C 1894 -128 2278 81 2496 518 
C 2720 974 2758 1474 2758 2044 
z
M 1498 261 
C 1011 261 864 811 819 995 
C 742 1310 730 1614 730 2114 
C 730 2506 730 2948 851 3297 
C 998 3701 1254 3840 1498 3840 
C 1971 3840 2125 3372 2176 3208 
C 2272 2873 2272 2481 2272 2114 
C 2272 1526 2272 261 1498 261 
z
" transform="scale(0.015625)"/>
     </defs>
     <use xlink:href="#CMSS17-33" transform="scale(0.996264)"/>
     <use xlink:href="#CMSS17-30" transform="translate(46.843624 0)scale(0.996264)"/>
     <use xlink:href="#CMSS17-2e" transform="translate(93.687247 0)scale(0.996264)"/>
     <use xlink:href="#CMSS17-33" transform="translate(119.711452 0)scale(0.996264)"/>
    </g>
   </g>
   <g id="text_7">
    <!-- Europe -->
    <g transform="translate(205.919929 311.303236)scale(0.1 -0.1)">
     <defs>
      <path id="CMSS17-45" d="M 1958 433 
C 1446 433 1216 433 1101 433 
L 1101 2107 
L 3085 2107 
L 3085 2496 
L 1101 2496 
L 1101 4009 
L 1926 4009 
C 2003 4009 2080 4009 2157 4009 
L 3251 4009 
L 3251 4416 
L 563 4416 
L 563 0 
L 3334 0 
L 3334 433 
L 1958 433 
z
" transform="scale(0.015625)"/>
      <path id="CMSS17-6f" d="M 2829 1356 
C 2829 2176 2221 2816 1504 2816 
C 768 2816 173 2157 173 1356 
C 173 544 787 -64 1498 -64 
C 2227 -64 2829 563 2829 1356 
z
M 1504 337 
C 1050 337 659 709 659 1408 
C 659 2151 1114 2427 1498 2427 
C 1914 2427 2342 2126 2342 1408 
C 2342 683 1926 337 1504 337 
z
" transform="scale(0.015625)"/>
      <path id="CMSS17-70" d="M 966 333 
C 1178 129 1466 -5 1773 -5 
C 2368 -5 2880 603 2880 1412 
C 2880 2159 2496 2816 1946 2816 
C 1626 2816 1242 2702 954 2472 
L 954 2765 
L 480 2765 
L 480 -1216 
L 966 -1216 
L 966 333 
z
M 966 2100 
C 1018 2176 1235 2415 1587 2415 
C 2035 2415 2394 1960 2394 1412 
C 2394 787 1958 384 1530 384 
C 1402 384 1267 415 1139 523 
C 966 674 966 768 966 857 
L 966 2100 
z
" transform="scale(0.015625)"/>
      <path id="CMSS17-65" d="M 2502 1377 
C 2502 1590 2490 2003 2285 2345 
C 2061 2713 1696 2816 1421 2816 
C 755 2816 192 2188 192 1375 
C 192 582 774 -64 1510 -64 
C 1798 -64 2150 19 2470 248 
C 2470 274 2458 414 2451 420 
C 2451 433 2432 630 2432 656 
C 2125 407 1773 325 1517 325 
C 1107 325 666 667 646 1377 
L 2502 1377 
z
M 698 1728 
C 781 2084 1062 2421 1421 2421 
C 1517 2421 1965 2421 2080 1728 
L 698 1728 
z
" transform="scale(0.015625)"/>
     </defs>
     <use xlink:href="#CMSS17-45" transform="scale(0.996264)"/>
     <use xlink:href="#CMSS17-75" transform="translate(55.892013 0)scale(0.996264)"/>
     <use xlink:href="#CMSS17-72" transform="translate(104.096956 0)scale(0.996264)"/>
     <use xlink:href="#CMSS17-6f" transform="translate(136.006729 0)scale(0.996264)"/>
     <use xlink:href="#CMSS17-70" transform="translate(182.850352 0)scale(0.996264)"/>
     <use xlink:href="#CMSS17-65" transform="translate(233.657734 0)scale(0.996264)"/>
    </g>
   </g>
   <g id="text_8">
    <!-- 5.5% -->
    <g transform="translate(185.119427 253.324875)scale(0.1 -0.1)">
     <defs>
      <path id="CMSS17-35" d="M 934 3752 
L 2502 3752 
L 2502 4160 
L 467 4160 
L 467 1781 
L 896 1781 
C 1011 2046 1248 2240 1555 2240 
C 1843 2240 2163 1989 2163 1266 
C 2163 493 1709 267 1376 267 
C 966 267 589 512 422 851 
L 218 499 
C 512 49 992 -128 1376 -128 
C 2118 -128 2701 497 2701 1253 
C 2701 2030 2182 2629 1562 2629 
C 1338 2629 1120 2553 934 2399 
L 934 3752 
z
" transform="scale(0.015625)"/>
     </defs>
     <use xlink:href="#CMSS17-35" transform="scale(0.996264)"/>
     <use xlink:href="#CMSS17-2e" transform="translate(46.843624 0)scale(0.996264)"/>
     <use xlink:href="#CMSS17-35" transform="translate(72.867828 0)scale(0.996264)"/>
    </g>
   </g>
   <g id="text_9">
    <!-- India -->
    <g transform="translate(234.787851 300.381371)scale(0.1 -0.1)">
     <defs>
      <path id="CMSS17-49" d="M 1094 4416 
L 557 4416 
L 557 0 
L 1094 0 
L 1094 4416 
z
" transform="scale(0.015625)"/>
      <path id="CMSS17-64" d="M 2611 4416 
L 2138 4416 
L 2138 2438 
C 1939 2603 1613 2756 1254 2756 
C 672 2756 211 2131 211 1347 
C 211 562 666 -64 1235 -64 
C 1677 -64 1971 172 2125 306 
L 2125 -13 
L 2611 -13 
L 2611 4416 
z
M 2125 836 
C 2125 747 2125 653 1926 482 
C 1798 375 1645 325 1498 325 
C 1152 325 698 576 698 1340 
C 698 2134 1210 2368 1562 2368 
C 1798 2368 1990 2254 2125 2065 
L 2125 836 
z
" transform="scale(0.015625)"/>
     </defs>
     <use xlink:href="#CMSS17-49" transform="scale(0.996264)"/>
     <use xlink:href="#CMSS17-6e" transform="translate(25.783926 0)scale(0.996264)"/>
     <use xlink:href="#CMSS17-64" transform="translate(73.988869 0)scale(0.996264)"/>
     <use xlink:href="#CMSS17-69" transform="translate(122.193812 0)scale(0.996264)"/>
     <use xlink:href="#CMSS17-61" transform="translate(144.374535 0)scale(0.996264)"/>
    </g>
   </g>
   <g id="text_10">
    <!-- 2.0% -->
    <g transform="translate(200.865565 247.367494)scale(0.1 -0.1)">
     <defs>
      <path id="CMSS17-32" d="M 1651 1357 
C 1830 1541 2099 1764 2285 1987 
C 2464 2204 2701 2511 2701 2957 
C 2701 3657 2227 4288 1421 4288 
C 787 4288 422 3893 250 3274 
L 499 2929 
C 640 3510 838 3880 1338 3880 
C 1888 3880 2195 3433 2195 2942 
C 2195 2355 1747 1901 1408 1563 
C 1030 1187 659 804 301 408 
L 301 0 
L 2701 0 
L 2701 433 
L 1613 433 
C 1536 433 1459 433 1382 433 
L 742 433 
L 742 439 
L 1651 1357 
z
" transform="scale(0.015625)"/>
     </defs>
     <use xlink:href="#CMSS17-32" transform="scale(0.996264)"/>
     <use xlink:href="#CMSS17-2e" transform="translate(46.843624 0)scale(0.996264)"/>
     <use xlink:href="#CMSS17-30" transform="translate(72.867828 0)scale(0.996264)"/>
    </g>
   </g>
   <g id="text_11">
    <!-- Japan and Korea -->
    <g transform="translate(242.027025 296.323091)scale(0.1 -0.1)">
     <defs>
      <path id="CMSS17-4a" d="M 2336 4384 
L 1811 4384 
L 1811 940 
C 1811 636 1683 261 1107 261 
C 781 261 506 414 333 604 
L 250 140 
C 646 -71 1011 -128 1280 -128 
C 1901 -128 2336 228 2336 920 
L 2336 4384 
z
" transform="scale(0.015625)"/>
      <path id="CMSS17-4b" d="M 2234 2666 
L 3827 4416 
L 3213 4416 
L 1101 2106 
L 1101 4416 
L 563 4416 
L 563 0 
L 1101 0 
L 1101 1432 
L 1875 2278 
L 3315 0 
L 3910 0 
L 2234 2666 
z
" transform="scale(0.015625)"/>
     </defs>
     <use xlink:href="#CMSS17-4a" transform="scale(0.996264)"/>
     <use xlink:href="#CMSS17-61" transform="translate(44.121076 0)scale(0.996264)"/>
     <use xlink:href="#CMSS17-70" transform="translate(89.042996 0)scale(0.996264)"/>
     <use xlink:href="#CMSS17-61" transform="translate(137.247939 0)scale(0.996264)"/>
     <use xlink:href="#CMSS17-6e" transform="translate(182.16986 0)scale(0.996264)"/>
     <use xlink:href="#CMSS17-61" transform="translate(261.603916 0)scale(0.996264)"/>
     <use xlink:href="#CMSS17-6e" transform="translate(306.525836 0)scale(0.996264)"/>
     <use xlink:href="#CMSS17-64" transform="translate(354.730779 0)scale(0.996264)"/>
     <use xlink:href="#CMSS17-4b" transform="translate(434.164835 0)scale(0.996264)"/>
     <use xlink:href="#CMSS17-6f" transform="translate(498.985129 0)scale(0.996264)"/>
     <use xlink:href="#CMSS17-72" transform="translate(543.226299 0)scale(0.996264)"/>
     <use xlink:href="#CMSS17-65" transform="translate(575.136071 0)scale(0.996264)"/>
     <use xlink:href="#CMSS17-61" transform="translate(616.774893 0)scale(0.996264)"/>
    </g>
   </g>
   <g id="text_12">
    <!-- 0.1% -->
    <g transform="translate(204.814206 245.153886)scale(0.1 -0.1)">
     <defs>
      <path id="CMSS17-31" d="M 1818 4288 
L 1696 4288 
C 1350 3940 947 3890 538 3890 
L 538 3520 
C 723 3520 1024 3520 1325 3667 
L 1325 369 
L 570 369 
L 570 0 
L 2573 0 
L 2573 369 
L 1818 369 
L 1818 4288 
z
" transform="scale(0.015625)"/>
     </defs>
     <use xlink:href="#CMSS17-30" transform="scale(0.996264)"/>
     <use xlink:href="#CMSS17-2e" transform="translate(46.843624 0)scale(0.996264)"/>
     <use xlink:href="#CMSS17-31" transform="translate(72.867828 0)scale(0.996264)"/>
    </g>
   </g>
   <g id="text_13">
    <!-- Latin America -->
    <g transform="translate(262.083184 281.464887)scale(0.1 -0.1)">
     <defs>
      <path id="CMSS17-4c" d="M 1670 414 
C 1594 414 1517 414 1440 414 
L 1101 414 
L 1101 4416 
L 563 4416 
L 563 0 
L 3002 0 
L 3002 414 
L 1670 414 
z
" transform="scale(0.015625)"/>
      <path id="CMSS17-6d" d="M 4288 1877 
C 4288 2308 4179 2816 3462 2816 
C 2982 2816 2694 2516 2566 2331 
C 2451 2670 2182 2816 1798 2816 
C 1363 2816 1088 2568 941 2389 
L 941 2758 
L 474 2758 
L 474 0 
L 960 0 
L 960 1559 
C 960 1939 1101 2428 1555 2428 
C 2138 2428 2138 2016 2138 1829 
L 2138 0 
L 2624 0 
L 2624 1559 
C 2624 1939 2765 2428 3219 2428 
C 3802 2428 3802 2016 3802 1829 
L 3802 0 
L 4288 0 
L 4288 1877 
z
" transform="scale(0.015625)"/>
     </defs>
     <use xlink:href="#CMSS17-4c" transform="scale(0.996264)"/>
     <use xlink:href="#CMSS17-61" transform="translate(50.687105 0)scale(0.996264)"/>
     <use xlink:href="#CMSS17-74" transform="translate(95.609026 0)scale(0.996264)"/>
     <use xlink:href="#CMSS17-69" transform="translate(129.440593 0)scale(0.996264)"/>
     <use xlink:href="#CMSS17-6e" transform="translate(151.621316 0)scale(0.996264)"/>
     <use xlink:href="#CMSS17-41" transform="translate(231.055372 0)scale(0.996264)"/>
     <use xlink:href="#CMSS17-6d" transform="translate(293.273226 0)scale(0.996264)"/>
     <use xlink:href="#CMSS17-65" transform="translate(367.502481 0)scale(0.996264)"/>
     <use xlink:href="#CMSS17-72" transform="translate(409.141303 0)scale(0.996264)"/>
     <use xlink:href="#CMSS17-69" transform="translate(441.051076 0)scale(0.996264)"/>
     <use xlink:href="#CMSS17-63" transform="translate(463.231799 0)scale(0.996264)"/>
     <use xlink:href="#CMSS17-61" transform="translate(504.870621 0)scale(0.996264)"/>
    </g>
   </g>
   <g id="text_14">
    <!-- 6.0% -->
    <g transform="translate(215.753929 237.049412)scale(0.1 -0.1)">
     <use xlink:href="#CMSS17-36" transform="scale(0.996264)"/>
     <use xlink:href="#CMSS17-2e" transform="translate(46.843624 0)scale(0.996264)"/>
     <use xlink:href="#CMSS17-30" transform="translate(72.867828 0)scale(0.996264)"/>
    </g>
   </g>
   <g id="text_15">
    <!-- Middle East -->
    <g transform="translate(299.955895 221.882962)scale(0.1 -0.1)">
     <defs>
      <path id="CMSS17-4d" d="M 3194 2371 
L 2886 1473 
C 2835 1307 2662 791 2624 587 
L 2618 587 
C 2598 715 2560 849 2458 1174 
C 2400 1365 2336 1562 2272 1741 
L 1325 4416 
L 576 4416 
L 576 0 
L 1075 0 
L 1075 3900 
L 1082 3900 
C 1082 3894 1139 3613 1530 2499 
L 2374 96 
L 2848 96 
L 3610 2231 
C 3661 2378 3821 2843 3891 3066 
C 3955 3257 4115 3728 4154 3913 
L 4160 3913 
L 4160 0 
L 4666 0 
L 4666 4416 
L 3923 4416 
L 3194 2371 
z
" transform="scale(0.015625)"/>
     </defs>
     <use xlink:href="#CMSS17-4d" transform="scale(0.996264)"/>
     <use xlink:href="#CMSS17-69" transform="translate(81.67603 0)scale(0.996264)"/>
     <use xlink:href="#CMSS17-64" transform="translate(103.856753 0)scale(0.996264)"/>
     <use xlink:href="#CMSS17-64" transform="translate(152.061696 0)scale(0.996264)"/>
     <use xlink:href="#CMSS17-6c" transform="translate(200.266639 0)scale(0.996264)"/>
     <use xlink:href="#CMSS17-65" transform="translate(222.447362 0)scale(0.996264)"/>
     <use xlink:href="#CMSS17-45" transform="translate(295.315297 0)scale(0.996264)"/>
     <use xlink:href="#CMSS17-61" transform="translate(351.20731 0)scale(0.996264)"/>
     <use xlink:href="#CMSS17-73" transform="translate(396.129231 0)scale(0.996264)"/>
     <use xlink:href="#CMSS17-74" transform="translate(432.042773 0)scale(0.996264)"/>
    </g>
   </g>
   <g id="text_16">
    <!-- 11.3% -->
    <g transform="translate(233.921104 204.55018)scale(0.1 -0.1)">
     <use xlink:href="#CMSS17-31" transform="scale(0.996264)"/>
     <use xlink:href="#CMSS17-31" transform="translate(46.843624 0)scale(0.996264)"/>
     <use xlink:href="#CMSS17-2e" transform="translate(93.687247 0)scale(0.996264)"/>
     <use xlink:href="#CMSS17-33" transform="translate(119.711452 0)scale(0.996264)"/>
    </g>
   </g>
   <g id="text_17">
    <!-- Rest of Asia -->
    <g transform="translate(287.666821 117.457398)scale(0.1 -0.1)">
     <defs>
      <path id="CMSS17-52" d="M 2522 2109 
L 2534 2115 
C 3533 2459 3539 3147 3539 3268 
C 3539 3873 2925 4453 2003 4453 
L 570 4453 
L 570 32 
L 1094 32 
L 1094 2048 
L 2035 2048 
L 3168 32 
L 3706 32 
L 2522 2109 
z
M 1094 2437 
L 1094 4096 
L 1933 4096 
C 2746 4096 3034 3637 3034 3267 
C 3034 2922 2778 2437 1933 2437 
L 1094 2437 
z
" transform="scale(0.015625)"/>
     </defs>
     <use xlink:href="#CMSS17-52" transform="scale(0.996264)"/>
     <use xlink:href="#CMSS17-65" transform="translate(60.416155 0)scale(0.996264)"/>
     <use xlink:href="#CMSS17-73" transform="translate(102.054977 0)scale(0.996264)"/>
     <use xlink:href="#CMSS17-74" transform="translate(137.968519 0)scale(0.996264)"/>
     <use xlink:href="#CMSS17-6f" transform="translate(203.029198 0)scale(0.996264)"/>
     <use xlink:href="#CMSS17-66" transform="translate(249.872822 0)scale(0.996264)"/>
     <use xlink:href="#CMSS17-41" transform="translate(309.728593 0)scale(0.996264)"/>
     <use xlink:href="#CMSS17-73" transform="translate(371.946448 0)scale(0.996264)"/>
     <use xlink:href="#CMSS17-69" transform="translate(407.85999 0)scale(0.996264)"/>
     <use xlink:href="#CMSS17-61" transform="translate(430.040713 0)scale(0.996264)"/>
    </g>
   </g>
   <g id="text_18">
    <!-- 14.9% -->
    <g transform="translate(227.217972 147.590781)scale(0.1 -0.1)">
     <defs>
      <path id="CMSS17-39" d="M 435 174 
C 614 21 845 -128 1235 -128 
C 2010 -128 2752 721 2752 2095 
C 2752 3932 1952 4229 1523 4229 
C 1094 4229 819 4041 582 3741 
C 301 3397 250 3090 250 2733 
C 250 2307 326 2045 506 1745 
C 749 1357 973 1275 1222 1275 
C 1600 1275 1978 1459 2234 1776 
C 2189 902 1798 267 1235 267 
C 1005 267 819 339 634 516 
L 435 174 
z
M 2214 2746 
C 2221 2703 2221 2622 2221 2596 
C 2221 2074 1914 1664 1466 1664 
C 1171 1664 1018 1813 902 2006 
C 762 2249 755 2485 755 2733 
C 755 2976 755 3244 934 3511 
C 1069 3703 1235 3840 1523 3840 
C 2112 3840 2208 3000 2214 2746 
z
" transform="scale(0.015625)"/>
     </defs>
     <use xlink:href="#CMSS17-31" transform="scale(0.996264)"/>
     <use xlink:href="#CMSS17-34" transform="translate(46.843624 0)scale(0.996264)"/>
     <use xlink:href="#CMSS17-2e" transform="translate(93.687247 0)scale(0.996264)"/>
     <use xlink:href="#CMSS17-39" transform="translate(119.711452 0)scale(0.996264)"/>
    </g>
   </g>
   <g id="text_19">
    <!-- USA and Canada -->
    <g transform="translate(88.549555 53.034931)scale(0.1 -0.1)">
     <defs>
      <path id="CMSS17-55" d="M 3552 4384 
L 3066 4384 
L 3066 1449 
C 3066 604 2547 229 2074 229 
C 1587 229 1101 623 1101 1443 
L 1101 4384 
L 563 4384 
L 563 1454 
C 563 539 1274 -128 2067 -128 
C 2861 -128 3552 539 3552 1454 
L 3552 4384 
z
" transform="scale(0.015625)"/>
      <path id="CMSS17-53" d="M 2797 4169 
C 2515 4334 2208 4480 1690 4480 
C 864 4480 333 3879 333 3266 
C 333 3025 403 2753 653 2475 
C 902 2196 1184 2121 1542 2033 
C 1690 1994 1939 1924 1984 1906 
C 2342 1767 2515 1444 2515 1140 
C 2515 742 2202 318 1645 318 
C 1453 318 890 318 358 819 
L 269 318 
C 794 -64 1363 -128 1651 -128 
C 2438 -128 3002 488 3002 1186 
C 3002 1440 2925 1763 2656 2061 
C 2394 2347 2163 2410 1638 2549 
C 1338 2626 1146 2677 986 2873 
C 877 3013 819 3146 819 3317 
C 819 3673 1126 4060 1690 4060 
C 1971 4060 2336 4002 2707 3660 
L 2797 4169 
z
" transform="scale(0.015625)"/>
     </defs>
     <use xlink:href="#CMSS17-55" transform="scale(0.996264)"/>
     <use xlink:href="#CMSS17-53" transform="translate(64.13974 0)scale(0.996264)"/>
     <use xlink:href="#CMSS17-41" transform="translate(116.188256 0)scale(0.996264)"/>
     <use xlink:href="#CMSS17-61" transform="translate(209.635224 0)scale(0.996264)"/>
     <use xlink:href="#CMSS17-6e" transform="translate(254.557145 0)scale(0.996264)"/>
     <use xlink:href="#CMSS17-64" transform="translate(302.762088 0)scale(0.996264)"/>
     <use xlink:href="#CMSS17-43" transform="translate(382.196144 0)scale(0.996264)"/>
     <use xlink:href="#CMSS17-61" transform="translate(442.051915 0)scale(0.996264)"/>
     <use xlink:href="#CMSS17-6e" transform="translate(486.973836 0)scale(0.996264)"/>
     <use xlink:href="#CMSS17-61" transform="translate(535.178779 0)scale(0.996264)"/>
     <use xlink:href="#CMSS17-64" transform="translate(580.1007 0)scale(0.996264)"/>
     <use xlink:href="#CMSS17-61" transform="translate(628.305643 0)scale(0.996264)"/>
    </g>
   </g>
   <g id="text_20">
    <!-- 21.6% -->
    <g transform="translate(157.757296 112.451254)scale(0.1 -0.1)">
     <use xlink:href="#CMSS17-32" transform="scale(0.996264)"/>
     <use xlink:href="#CMSS17-31" transform="translate(46.843624 0)scale(0.996264)"/>
     <use xlink:href="#CMSS17-2e" transform="translate(93.687247 0)scale(0.996264)"/>
     <use xlink:href="#CMSS17-36" transform="translate(119.711452 0)scale(0.996264)"/>
    </g>
   </g>
   <g id="text_21">
    <!-- Production fossil fuels -->
    <g transform="translate(120.465315 25.889146)scale(0.12 -0.12)">
     <defs>
      <path id="CMSS17-50" d="M 2106 1856 
C 2874 1856 3501 2453 3501 3158 
C 3501 3850 2899 4453 2067 4453 
L 570 4453 
L 570 0 
L 1107 0 
L 1107 1856 
L 2106 1856 
z
M 1926 4096 
C 2669 4096 2995 3627 2995 3157 
C 2995 2720 2694 2226 1926 2226 
L 1094 2226 
L 1094 4096 
L 1926 4096 
z
" transform="scale(0.015625)"/>
     </defs>
     <use xlink:href="#CMSS17-50" transform="scale(0.996264)"/>
     <use xlink:href="#CMSS17-72" transform="translate(59.735586 0)scale(0.996264)"/>
     <use xlink:href="#CMSS17-6f" transform="translate(91.645359 0)scale(0.996264)"/>
     <use xlink:href="#CMSS17-64" transform="translate(141.091421 0)scale(0.996264)"/>
     <use xlink:href="#CMSS17-75" transform="translate(189.296364 0)scale(0.996264)"/>
     <use xlink:href="#CMSS17-63" transform="translate(237.501307 0)scale(0.996264)"/>
     <use xlink:href="#CMSS17-74" transform="translate(279.140129 0)scale(0.996264)"/>
     <use xlink:href="#CMSS17-69" transform="translate(312.971696 0)scale(0.996264)"/>
     <use xlink:href="#CMSS17-6f" transform="translate(335.152419 0)scale(0.996264)"/>
     <use xlink:href="#CMSS17-6e" transform="translate(381.996043 0)scale(0.996264)"/>
     <use xlink:href="#CMSS17-66" transform="translate(461.430099 0)scale(0.996264)"/>
     <use xlink:href="#CMSS17-6f" transform="translate(490.056757 0)scale(0.996264)"/>
     <use xlink:href="#CMSS17-73" transform="translate(536.900381 0)scale(0.996264)"/>
     <use xlink:href="#CMSS17-73" transform="translate(572.813923 0)scale(0.996264)"/>
     <use xlink:href="#CMSS17-69" transform="translate(608.727465 0)scale(0.996264)"/>
     <use xlink:href="#CMSS17-6c" transform="translate(630.908188 0)scale(0.996264)"/>
     <use xlink:href="#CMSS17-66" transform="translate(684.318024 0)scale(0.996264)"/>
     <use xlink:href="#CMSS17-75" transform="translate(712.944683 0)scale(0.996264)"/>
     <use xlink:href="#CMSS17-65" transform="translate(761.149626 0)scale(0.996264)"/>
     <use xlink:href="#CMSS17-6c" transform="translate(802.788448 0)scale(0.996264)"/>
     <use xlink:href="#CMSS17-73" transform="translate(824.969171 0)scale(0.996264)"/>
    </g>
   </g>
  </g>
  <g id="axes_2">
   <g id="matplotlib.axis_3"/>
   <g id="matplotlib.axis_4"/>
   <g id="patch_12">
    <path d="M 428.864599 96.763163 
C 427.633968 97.993794 426.430368 99.251163 425.254662 100.53437 
C 424.078955 101.817577 422.931422 103.126316 421.812884 104.45965 
L 513.361617 181.260181 
L 428.864599 96.763163 
z
" style="fill: #0173b2"/>
   </g>
   <g id="patch_13">
    <path d="M 421.812884 104.45965 
C 420.542096 105.97447 419.309102 107.520598 418.11504 109.096605 
C 416.920978 110.672613 415.766216 112.278014 414.651821 113.911326 
L 513.361617 181.260181 
L 421.812884 104.45965 
z
" style="fill: #de8f05"/>
   </g>
   <g id="patch_14">
    <path d="M 414.651821 113.911326 
C 403.230031 130.651663 396.252306 150.025625 394.37733 170.204343 
C 392.502355 190.383061 395.791044 210.710963 403.932951 229.269129 
C 412.074858 247.827296 424.805467 264.012803 440.92303 276.297769 
C 457.040592 288.582734 476.021476 296.568039 496.07392 299.499884 
L 513.361617 181.260181 
L 414.651821 113.911326 
z
" style="fill: #029e73"/>
   </g>
   <g id="patch_15">
    <path d="M 496.07392 299.499884 
C 515.586314 302.35277 535.504847 300.331764 554.046551 293.617771 
C 572.588256 286.903778 589.182877 275.70329 602.344983 261.018895 
L 513.361617 181.260181 
L 496.07392 299.499884 
z
" style="fill: #d55e00"/>
   </g>
   <g id="patch_16">
    <path d="M 602.344983 261.018895 
C 603.662459 259.549043 604.943314 258.046774 606.186368 256.51347 
C 607.429422 254.980166 608.634294 253.416297 609.799874 251.823304 
L 513.361617 181.260181 
L 602.344983 261.018895 
z
" style="fill: #cc78bc"/>
   </g>
   <g id="patch_17">
    <path d="M 609.799874 251.823304 
C 615.230364 244.401482 619.785979 236.377517 623.376184 227.910872 
C 626.966389 219.444226 629.567242 210.591362 631.127056 201.528214 
L 513.361617 181.260181 
L 609.799874 251.823304 
z
" style="fill: #ca9161"/>
   </g>
   <g id="patch_18">
    <path d="M 631.127056 201.528214 
C 631.920173 196.919884 632.442111 192.268971 632.690177 187.599473 
C 632.938243 182.929976 632.912008 178.249941 632.611609 173.583518 
L 513.361617 181.260181 
L 631.127056 201.528214 
z
" style="fill: #fbafe4"/>
   </g>
   <g id="patch_19">
    <path d="M 632.611609 173.583518 
C 632.495914 171.786298 632.339605 169.991923 632.142801 168.201769 
C 631.945998 166.411614 631.70875 164.626138 631.43124 162.846707 
L 513.361617 181.260181 
L 632.611609 173.583518 
z
" style="fill: #949494"/>
   </g>
   <g id="patch_20">
    <path d="M 631.43124 162.846707 
C 630.687382 158.076996 629.655182 153.356738 628.340314 148.711893 
C 627.025446 144.067047 625.430326 139.506141 623.563725 135.054257 
L 513.361617 181.260181 
L 631.43124 162.846707 
z
" style="fill: #ece133"/>
   </g>
   <g id="patch_21">
    <path d="M 623.563725 135.054257 
C 615.982431 116.972713 604.066253 101.031887 588.869938 88.642767 
C 573.673623 76.253647 555.659165 67.792883 536.421096 64.009371 
C 517.183027 60.225859 497.306216 61.234624 478.550039 66.946376 
C 459.793862 72.658128 442.728539 82.89922 428.86459 96.763173 
L 513.361617 181.260181 
L 623.563725 135.054257 
z
" style="fill: #56b4e9"/>
   </g>
   <g id="text_22">
    <!-- Africa -->
    <g transform="translate(391.758689 94.952449)scale(0.1 -0.1)">
     <use xlink:href="#CMSS17-41" transform="scale(0.996264)"/>
     <use xlink:href="#CMSS17-66" transform="translate(62.217855 0)scale(0.996264)"/>
     <use xlink:href="#CMSS17-72" transform="translate(90.844514 0)scale(0.996264)"/>
     <use xlink:href="#CMSS17-69" transform="translate(122.754286 0)scale(0.996264)"/>
     <use xlink:href="#CMSS17-63" transform="translate(144.935009 0)scale(0.996264)"/>
     <use xlink:href="#CMSS17-61" transform="translate(186.573831 0)scale(0.996264)"/>
    </g>
   </g>
   <g id="text_23">
    <!-- 1.4% -->
    <g transform="translate(454.132404 135.315355)scale(0.1 -0.1)">
     <use xlink:href="#CMSS17-31" transform="scale(0.996264)"/>
     <use xlink:href="#CMSS17-2e" transform="translate(46.843624 0)scale(0.996264)"/>
     <use xlink:href="#CMSS17-34" transform="translate(72.867828 0)scale(0.996264)"/>
    </g>
   </g>
   <g id="text_24">
    <!-- Australia -->
    <g transform="translate(371.645521 104.370908)scale(0.1 -0.1)">
     <use xlink:href="#CMSS17-41" transform="scale(0.996264)"/>
     <use xlink:href="#CMSS17-75" transform="translate(62.217855 0)scale(0.996264)"/>
     <use xlink:href="#CMSS17-73" transform="translate(110.422798 0)scale(0.996264)"/>
     <use xlink:href="#CMSS17-74" transform="translate(146.33634 0)scale(0.996264)"/>
     <use xlink:href="#CMSS17-72" transform="translate(180.167907 0)scale(0.996264)"/>
     <use xlink:href="#CMSS17-61" transform="translate(212.077679 0)scale(0.996264)"/>
     <use xlink:href="#CMSS17-6c" transform="translate(256.9996 0)scale(0.996264)"/>
     <use xlink:href="#CMSS17-69" transform="translate(279.180323 0)scale(0.996264)"/>
     <use xlink:href="#CMSS17-61" transform="translate(301.361046 0)scale(0.996264)"/>
    </g>
   </g>
   <g id="text_25">
    <!-- 1.6% -->
    <g transform="translate(449.848631 140.452696)scale(0.1 -0.1)">
     <use xlink:href="#CMSS17-31" transform="scale(0.996264)"/>
     <use xlink:href="#CMSS17-2e" transform="translate(46.843624 0)scale(0.996264)"/>
     <use xlink:href="#CMSS17-36" transform="translate(72.867828 0)scale(0.996264)"/>
    </g>
   </g>
   <g id="text_26">
    <!-- China -->
    <g transform="translate(369.162735 236.560684)scale(0.1 -0.1)">
     <use xlink:href="#CMSS17-43" transform="scale(0.996264)"/>
     <use xlink:href="#CMSS17-68" transform="translate(59.855772 0)scale(0.996264)"/>
     <use xlink:href="#CMSS17-69" transform="translate(108.060715 0)scale(0.996264)"/>
     <use xlink:href="#CMSS17-6e" transform="translate(130.241438 0)scale(0.996264)"/>
     <use xlink:href="#CMSS17-61" transform="translate(178.446381 0)scale(0.996264)"/>
    </g>
   </g>
   <g id="text_27">
    <!-- 32.2% -->
    <g transform="translate(438.84871 212.55621)scale(0.1 -0.1)">
     <use xlink:href="#CMSS17-33" transform="scale(0.996264)"/>
     <use xlink:href="#CMSS17-32" transform="translate(46.843624 0)scale(0.996264)"/>
     <use xlink:href="#CMSS17-2e" transform="translate(93.687247 0)scale(0.996264)"/>
     <use xlink:href="#CMSS17-32" transform="translate(119.711452 0)scale(0.996264)"/>
    </g>
   </g>
   <g id="text_28">
    <!-- Europe -->
    <g transform="translate(558.115045 307.34419)scale(0.1 -0.1)">
     <use xlink:href="#CMSS17-45" transform="scale(0.996264)"/>
     <use xlink:href="#CMSS17-75" transform="translate(55.892013 0)scale(0.996264)"/>
     <use xlink:href="#CMSS17-72" transform="translate(104.096956 0)scale(0.996264)"/>
     <use xlink:href="#CMSS17-6f" transform="translate(136.006729 0)scale(0.996264)"/>
     <use xlink:href="#CMSS17-70" transform="translate(182.850352 0)scale(0.996264)"/>
     <use xlink:href="#CMSS17-65" transform="translate(233.657734 0)scale(0.996264)"/>
    </g>
   </g>
   <g id="text_29">
    <!-- 15.7% -->
    <g transform="translate(528.91687 251.165395)scale(0.1 -0.1)">
     <use xlink:href="#CMSS17-31" transform="scale(0.996264)"/>
     <use xlink:href="#CMSS17-35" transform="translate(46.843624 0)scale(0.996264)"/>
     <use xlink:href="#CMSS17-2e" transform="translate(93.687247 0)scale(0.996264)"/>
     <use xlink:href="#CMSS17-37" transform="translate(119.711452 0)scale(0.996264)"/>
    </g>
   </g>
   <g id="text_30">
    <!-- India -->
    <g transform="translate(615.468843 266.529459)scale(0.1 -0.1)">
     <use xlink:href="#CMSS17-49" transform="scale(0.996264)"/>
     <use xlink:href="#CMSS17-6e" transform="translate(25.783926 0)scale(0.996264)"/>
     <use xlink:href="#CMSS17-64" transform="translate(73.988869 0)scale(0.996264)"/>
     <use xlink:href="#CMSS17-69" transform="translate(122.193812 0)scale(0.996264)"/>
     <use xlink:href="#CMSS17-61" transform="translate(144.374535 0)scale(0.996264)"/>
    </g>
   </g>
   <g id="text_31">
    <!-- 1.6% -->
    <g transform="translate(562.691428 228.902814)scale(0.1 -0.1)">
     <use xlink:href="#CMSS17-31" transform="scale(0.996264)"/>
     <use xlink:href="#CMSS17-2e" transform="translate(46.843624 0)scale(0.996264)"/>
     <use xlink:href="#CMSS17-36" transform="translate(72.867828 0)scale(0.996264)"/>
    </g>
   </g>
   <g id="text_32">
    <!-- Japan and Korea -->
    <g transform="translate(634.377641 235.066601)scale(0.1 -0.1)">
     <use xlink:href="#CMSS17-4a" transform="scale(0.996264)"/>
     <use xlink:href="#CMSS17-61" transform="translate(44.121076 0)scale(0.996264)"/>
     <use xlink:href="#CMSS17-70" transform="translate(89.042996 0)scale(0.996264)"/>
     <use xlink:href="#CMSS17-61" transform="translate(137.247939 0)scale(0.996264)"/>
     <use xlink:href="#CMSS17-6e" transform="translate(182.16986 0)scale(0.996264)"/>
     <use xlink:href="#CMSS17-61" transform="translate(261.603916 0)scale(0.996264)"/>
     <use xlink:href="#CMSS17-6e" transform="translate(306.525836 0)scale(0.996264)"/>
     <use xlink:href="#CMSS17-64" transform="translate(354.730779 0)scale(0.996264)"/>
     <use xlink:href="#CMSS17-4b" transform="translate(434.164835 0)scale(0.996264)"/>
     <use xlink:href="#CMSS17-6f" transform="translate(498.985129 0)scale(0.996264)"/>
     <use xlink:href="#CMSS17-72" transform="translate(543.226299 0)scale(0.996264)"/>
     <use xlink:href="#CMSS17-65" transform="translate(575.136071 0)scale(0.996264)"/>
     <use xlink:href="#CMSS17-61" transform="translate(616.774893 0)scale(0.996264)"/>
    </g>
   </g>
   <g id="text_33">
    <!-- 7.3% -->
    <g transform="translate(573.005317 211.741255)scale(0.1 -0.1)">
     <use xlink:href="#CMSS17-37" transform="scale(0.996264)"/>
     <use xlink:href="#CMSS17-2e" transform="translate(46.843624 0)scale(0.996264)"/>
     <use xlink:href="#CMSS17-33" transform="translate(72.867828 0)scale(0.996264)"/>
    </g>
   </g>
   <g id="text_34">
    <!-- Latin America -->
    <g transform="translate(644.623033 190.724063)scale(0.1 -0.1)">
     <use xlink:href="#CMSS17-4c" transform="scale(0.996264)"/>
     <use xlink:href="#CMSS17-61" transform="translate(50.687105 0)scale(0.996264)"/>
     <use xlink:href="#CMSS17-74" transform="translate(95.609026 0)scale(0.996264)"/>
     <use xlink:href="#CMSS17-69" transform="translate(129.440593 0)scale(0.996264)"/>
     <use xlink:href="#CMSS17-6e" transform="translate(151.621316 0)scale(0.996264)"/>
     <use xlink:href="#CMSS17-41" transform="translate(231.055372 0)scale(0.996264)"/>
     <use xlink:href="#CMSS17-6d" transform="translate(293.273226 0)scale(0.996264)"/>
     <use xlink:href="#CMSS17-65" transform="translate(367.502481 0)scale(0.996264)"/>
     <use xlink:href="#CMSS17-72" transform="translate(409.141303 0)scale(0.996264)"/>
     <use xlink:href="#CMSS17-69" transform="translate(441.051076 0)scale(0.996264)"/>
     <use xlink:href="#CMSS17-63" transform="translate(463.231799 0)scale(0.996264)"/>
     <use xlink:href="#CMSS17-61" transform="translate(504.870621 0)scale(0.996264)"/>
    </g>
   </g>
   <g id="text_35">
    <!-- 3.7% -->
    <g transform="translate(578.593713 187.554416)scale(0.1 -0.1)">
     <use xlink:href="#CMSS17-33" transform="scale(0.996264)"/>
     <use xlink:href="#CMSS17-2e" transform="translate(46.843624 0)scale(0.996264)"/>
     <use xlink:href="#CMSS17-37" transform="translate(72.867828 0)scale(0.996264)"/>
    </g>
   </g>
   <g id="text_36">
    <!-- Middle East -->
    <g transform="translate(644.02092 169.386588)scale(0.1 -0.1)">
     <use xlink:href="#CMSS17-4d" transform="scale(0.996264)"/>
     <use xlink:href="#CMSS17-69" transform="translate(81.67603 0)scale(0.996264)"/>
     <use xlink:href="#CMSS17-64" transform="translate(103.856753 0)scale(0.996264)"/>
     <use xlink:href="#CMSS17-64" transform="translate(152.061696 0)scale(0.996264)"/>
     <use xlink:href="#CMSS17-6c" transform="translate(200.266639 0)scale(0.996264)"/>
     <use xlink:href="#CMSS17-65" transform="translate(222.447362 0)scale(0.996264)"/>
     <use xlink:href="#CMSS17-45" transform="translate(295.315297 0)scale(0.996264)"/>
     <use xlink:href="#CMSS17-61" transform="translate(351.20731 0)scale(0.996264)"/>
     <use xlink:href="#CMSS17-73" transform="translate(396.129231 0)scale(0.996264)"/>
     <use xlink:href="#CMSS17-74" transform="translate(432.042773 0)scale(0.996264)"/>
    </g>
   </g>
   <g id="text_37">
    <!-- 1.4% -->
    <g transform="translate(578.265288 175.915794)scale(0.1 -0.1)">
     <use xlink:href="#CMSS17-31" transform="scale(0.996264)"/>
     <use xlink:href="#CMSS17-2e" transform="translate(46.843624 0)scale(0.996264)"/>
     <use xlink:href="#CMSS17-34" transform="translate(72.867828 0)scale(0.996264)"/>
    </g>
   </g>
   <g id="text_38">
    <!-- Rest of Asia -->
    <g transform="translate(639.838184 147.947724)scale(0.1 -0.1)">
     <use xlink:href="#CMSS17-52" transform="scale(0.996264)"/>
     <use xlink:href="#CMSS17-65" transform="translate(60.416155 0)scale(0.996264)"/>
     <use xlink:href="#CMSS17-73" transform="translate(102.054977 0)scale(0.996264)"/>
     <use xlink:href="#CMSS17-74" transform="translate(137.968519 0)scale(0.996264)"/>
     <use xlink:href="#CMSS17-6f" transform="translate(203.029198 0)scale(0.996264)"/>
     <use xlink:href="#CMSS17-66" transform="translate(249.872822 0)scale(0.996264)"/>
     <use xlink:href="#CMSS17-41" transform="translate(309.728593 0)scale(0.996264)"/>
     <use xlink:href="#CMSS17-73" transform="translate(371.946448 0)scale(0.996264)"/>
     <use xlink:href="#CMSS17-69" transform="translate(407.85999 0)scale(0.996264)"/>
     <use xlink:href="#CMSS17-61" transform="translate(430.040713 0)scale(0.996264)"/>
    </g>
   </g>
   <g id="text_39">
    <!-- 3.9% -->
    <g transform="translate(575.983796 164.221868)scale(0.1 -0.1)">
     <use xlink:href="#CMSS17-33" transform="scale(0.996264)"/>
     <use xlink:href="#CMSS17-2e" transform="translate(46.843624 0)scale(0.996264)"/>
     <use xlink:href="#CMSS17-39" transform="translate(72.867828 0)scale(0.996264)"/>
    </g>
   </g>
   <g id="text_40">
    <!-- USA and Canada -->
    <g transform="translate(538.727044 54.77495)scale(0.1 -0.1)">
     <use xlink:href="#CMSS17-55" transform="scale(0.996264)"/>
     <use xlink:href="#CMSS17-53" transform="translate(64.13974 0)scale(0.996264)"/>
     <use xlink:href="#CMSS17-41" transform="translate(116.188256 0)scale(0.996264)"/>
     <use xlink:href="#CMSS17-61" transform="translate(209.635224 0)scale(0.996264)"/>
     <use xlink:href="#CMSS17-6e" transform="translate(254.557145 0)scale(0.996264)"/>
     <use xlink:href="#CMSS17-64" transform="translate(302.762088 0)scale(0.996264)"/>
     <use xlink:href="#CMSS17-43" transform="translate(382.196144 0)scale(0.996264)"/>
     <use xlink:href="#CMSS17-61" transform="translate(442.051915 0)scale(0.996264)"/>
     <use xlink:href="#CMSS17-6e" transform="translate(486.973836 0)scale(0.996264)"/>
     <use xlink:href="#CMSS17-61" transform="translate(535.178779 0)scale(0.996264)"/>
     <use xlink:href="#CMSS17-64" transform="translate(580.1007 0)scale(0.996264)"/>
     <use xlink:href="#CMSS17-61" transform="translate(628.305643 0)scale(0.996264)"/>
    </g>
   </g>
   <g id="text_41">
    <!-- 31.2% -->
    <g transform="translate(518.341597 113.400355)scale(0.1 -0.1)">
     <use xlink:href="#CMSS17-33" transform="scale(0.996264)"/>
     <use xlink:href="#CMSS17-31" transform="translate(46.843624 0)scale(0.996264)"/>
     <use xlink:href="#CMSS17-2e" transform="translate(93.687247 0)scale(0.996264)"/>
     <use xlink:href="#CMSS17-32" transform="translate(119.711452 0)scale(0.996264)"/>
    </g>
   </g>
   <g id="text_42">
    <!-- Consumption fossil fuels -->
    <g transform="translate(454.526021 25.889146)scale(0.12 -0.12)">
     <use xlink:href="#CMSS17-43" transform="scale(0.996264)"/>
     <use xlink:href="#CMSS17-6f" transform="translate(59.855772 0)scale(0.996264)"/>
     <use xlink:href="#CMSS17-6e" transform="translate(106.699395 0)scale(0.996264)"/>
     <use xlink:href="#CMSS17-73" transform="translate(154.904338 0)scale(0.996264)"/>
     <use xlink:href="#CMSS17-75" transform="translate(190.81788 0)scale(0.996264)"/>
     <use xlink:href="#CMSS17-6d" transform="translate(239.022823 0)scale(0.996264)"/>
     <use xlink:href="#CMSS17-70" transform="translate(313.252078 0)scale(0.996264)"/>
     <use xlink:href="#CMSS17-74" transform="translate(361.457021 0)scale(0.996264)"/>
     <use xlink:href="#CMSS17-69" transform="translate(395.288588 0)scale(0.996264)"/>
     <use xlink:href="#CMSS17-6f" transform="translate(417.469311 0)scale(0.996264)"/>
     <use xlink:href="#CMSS17-6e" transform="translate(464.312934 0)scale(0.996264)"/>
     <use xlink:href="#CMSS17-66" transform="translate(543.74699 0)scale(0.996264)"/>
     <use xlink:href="#CMSS17-6f" transform="translate(572.373649 0)scale(0.996264)"/>
     <use xlink:href="#CMSS17-73" transform="translate(619.217272 0)scale(0.996264)"/>
     <use xlink:href="#CMSS17-73" transform="translate(655.130814 0)scale(0.996264)"/>
     <use xlink:href="#CMSS17-69" transform="translate(691.044356 0)scale(0.996264)"/>
     <use xlink:href="#CMSS17-6c" transform="translate(713.225079 0)scale(0.996264)"/>
     <use xlink:href="#CMSS17-66" transform="translate(766.634915 0)scale(0.996264)"/>
     <use xlink:href="#CMSS17-75" transform="translate(795.261574 0)scale(0.996264)"/>
     <use xlink:href="#CMSS17-65" transform="translate(843.466517 0)scale(0.996264)"/>
     <use xlink:href="#CMSS17-6c" transform="translate(885.105339 0)scale(0.996264)"/>
     <use xlink:href="#CMSS17-73" transform="translate(907.286062 0)scale(0.996264)"/>
    </g>
   </g>
  </g>
 </g>
</svg>
