<svg class="main-svg" xmlns="http://www.w3.org/2000/svg" xmlns:xlink="http://www.w3.org/1999/xlink" width="700" height="500" viewBox="0 0 700 500"><rect x="0" y="0" width="700" height="500" style="fill: rgb(255, 255, 255); fill-opacity: 1;"/><defs id="defs-61c590"><g class="clips"/><g class="gradients"/><g class="patterns"/></defs><g class="bglayer"/><g class="layer-below"><g class="imagelayer"/><g class="shapelayer"/></g><g class="cartesianlayer"/><g class="polarlayer"/><g class="smithlayer"/><g class="ternarylayer"/><g class="geolayer"/><g class="funnelarealayer"/><g class="pielayer"/><g class="iciclelayer"/><g class="treemaplayer"/><g class="sunburstlayer"/><g class="glimages"/><g class="sankey" transform="translate(80,100)matrix(1 0 0 1 0 0)" style="box-sizing: content-box; position: absolute; left: 0px; shape-rendering: geometricPrecision; pointer-events: auto;"><g class="sankey-links" style="fill: none;"><path class="sankey-link" d="M20,6.394884621840902e-14C270,6.394884621840902e-14 270,2.4868995751603507e-13 520,2.4868995751603507e-13L520,4.934410553363668C270,4.934410553363668 270,4.934410553363484 20,4.934410553363484Z" style="stroke: rgb(68, 68, 68); stroke-opacity: 1; fill: rgb(1, 115, 178); fill-opacity: 1; stroke-width: 0; opacity: 1;"/><path class="sankey-link" d="M20,4.934410553363484C270,4.934410553363484 270,21.064267269457986 520,21.064267269457986L520,21.1448485569561C270,21.1448485569561 270,5.014991840861595 20,5.014991840861595Z" style="stroke: rgb(1, 115, 178); stroke-opacity: 1; fill: rgb(1, 115, 178); fill-opacity: 1; stroke-width: 1; opacity: 1;"/><path class="sankey-link" d="M20,5.014991840861595C270,5.014991840861595 270,40.444136579729616 520,40.444136579729616L520,41.88704742905543C270,41.88704742905543 270,6.457902690187406 20,6.457902690187406Z" style="stroke: rgb(68, 68, 68); stroke-opacity: 1; fill: rgb(1, 115, 178); fill-opacity: 1; stroke-width: 0; opacity: 1;"/><path class="sankey-link" d="M20,7.434432419061392C270,7.434432419061392 270,167.83631365514282 520,167.83631365514282L520,169.8526492307672C270,169.8526492307672 270,9.450767994685782 20,9.450767994685782Z" style="stroke: rgb(68, 68, 68); stroke-opacity: 1; fill: rgb(1, 115, 178); fill-opacity: 1; stroke-width: 0; opacity: 1;"/><path class="sankey-link" d="M20,7.313263679149216C270,7.313263679149216 270,151.1324861506331 520,151.1324861506331L520,151.25365489054525C270,151.25365489054525 270,7.434432419061393 20,7.434432419061393Z" style="stroke: rgb(1, 115, 178); stroke-opacity: 1; fill: rgb(1, 115, 178); fill-opacity: 1; stroke-width: 1; opacity: 1;"/><path class="sankey-link" d="M20,6.805404496379669C270,6.805404496379669 270,117.30923621336885 520,117.30923621336885L520,117.8170953961384C270,117.8170953961384 270,7.313263679149216 20,7.313263679149216Z" style="stroke: rgb(1, 115, 178); stroke-opacity: 1; fill: rgb(1, 115, 178); fill-opacity: 1; stroke-width: 1; opacity: 1;"/><path class="sankey-link" d="M20,9.712706932889027C270,9.712706932889027 270,229.6412304566362 520,229.6412304566362L520,229.87224317359227C270,229.87224317359227 270,9.94371964984511 20,9.94371964984511Z" style="stroke: rgb(1, 115, 178); stroke-opacity: 1; fill: rgb(1, 115, 178); fill-opacity: 1; stroke-width: 1; opacity: 1;"/><path class="sankey-link" d="M20,9.450767994685783C270,9.450767994685783 270,210.32359061721917 520,210.32359061721917L520,210.5855295554224C270,210.5855295554224 270,9.712706932889027 20,9.712706932889027Z" style="stroke: rgb(1, 115, 178); stroke-opacity: 1; fill: rgb(1, 115, 178); fill-opacity: 1; stroke-width: 1; opacity: 1;"/><path class="sankey-link" d="M20,6.457902690187405C270,6.457902690187405 270,90.18246261251414 520,90.18246261251414L520,90.52996441870641C270,90.52996441870641 270,6.805404496379669 20,6.805404496379669Z" style="stroke: rgb(1, 115, 178); stroke-opacity: 1; fill: rgb(1, 115, 178); fill-opacity: 1; stroke-width: 1; opacity: 1;"/><path class="sankey-link" d="M20,9.943719649845109C270,9.943719649845109 270,255.50271420175582 520,255.50271420175582L520,257.36255201620986C270,257.36255201620986 270,11.803557464299141 20,11.803557464299141Z" style="stroke: rgb(68, 68, 68); stroke-opacity: 1; fill: rgb(1, 115, 178); fill-opacity: 1; stroke-width: 0; opacity: 1;"/><path class="sankey-link" d="M20,54.700395063112055C270,54.700395063112055 270,5.0104196890892 520,5.0104196890892L520,5.140115561247197C270,5.140115561247197 270,54.83009093527005 20,54.83009093527005Z" style="stroke: rgb(222, 143, 5); stroke-opacity: 1; fill: rgb(222, 143, 5); fill-opacity: 1; stroke-width: 1; opacity: 1;"/><path class="sankey-link" d="M20,54.83009093527005C270,54.83009093527005 270,21.27196802487129 520,21.27196802487129L520,23.852076739419243C270,23.852076739419243 270,57.41019964981801 20,57.41019964981801Z" style="stroke: rgb(68, 68, 68); stroke-opacity: 1; fill: rgb(222, 143, 5); fill-opacity: 1; stroke-width: 0; opacity: 1;"/><path class="sankey-link" d="M20,57.410199649818004C270,57.410199649818004 270,49.823635649680696 520,49.823635649680696L520,53.16081470903495C270,53.16081470903495 270,60.74737870917226 20,60.74737870917226Z" style="stroke: rgb(68, 68, 68); stroke-opacity: 1; fill: rgb(222, 143, 5); fill-opacity: 1; stroke-width: 0; opacity: 1;"/><path class="sankey-link" d="M20,63.26273892832393C270,63.26273892832393 270,170.92653706862438 520,170.92653706862438L520,172.68949140277448C270,172.68949140277448 270,65.025693262474 20,65.025693262474Z" style="stroke: rgb(68, 68, 68); stroke-opacity: 1; fill: rgb(222, 143, 5); fill-opacity: 1; stroke-width: 0; opacity: 1;"/><path class="sankey-link" d="M20,63.08005417060573C270,63.08005417060573 270,151.3355286678077 520,151.3355286678077L520,151.51821342552591C270,151.51821342552591 270,63.26273892832392 20,63.26273892832392Z" style="stroke: rgb(222, 143, 5); stroke-opacity: 1; fill: rgb(222, 143, 5); fill-opacity: 1; stroke-width: 1; opacity: 1;"/><path class="sankey-link" d="M20,61.756628584688514C270,61.756628584688514 270,118.45623468385415 520,118.45623468385415L520,119.77966026977137C270,119.77966026977137 270,63.080054170605734 20,63.080054170605734Z" style="stroke: rgb(68, 68, 68); stroke-opacity: 1; fill: rgb(222, 143, 5); fill-opacity: 1; stroke-width: 0; opacity: 1;"/><path class="sankey-link" d="M20,65.3012396488081C270,65.3012396488081 270,230.1434708905889 520,230.1434708905889L520,230.4258937891475C270,230.4258937891475 270,65.58366254736667 20,65.58366254736667Z" style="stroke: rgb(222, 143, 5); stroke-opacity: 1; fill: rgb(222, 143, 5); fill-opacity: 1; stroke-width: 1; opacity: 1;"/><path class="sankey-link" d="M20,65.025693262474C270,65.025693262474 270,210.7475818035751 520,210.7475818035751L520,211.0231281899092C270,211.0231281899092 270,65.30123964880812 20,65.30123964880812Z" style="stroke: rgb(222, 143, 5); stroke-opacity: 1; fill: rgb(222, 143, 5); fill-opacity: 1; stroke-width: 1; opacity: 1;"/><path class="sankey-link" d="M20,60.74737870917226C270,60.74737870917226 270,91.12207445886571 520,91.12207445886571L520,92.13132433438196C270,92.13132433438196 270,61.75662858468851 20,61.75662858468851Z" style="stroke: rgb(68, 68, 68); stroke-opacity: 1; fill: rgb(222, 143, 5); fill-opacity: 1; stroke-width: 0; opacity: 1;"/><path class="sankey-link" d="M20,65.58366254736667C270,65.58366254736667 270,259.2993818826128 520,259.2993818826128L520,261.7820802406951C270,261.7820802406951 270,68.06636090544895 20,68.06636090544895Z" style="stroke: rgb(68, 68, 68); stroke-opacity: 1; fill: rgb(222, 143, 5); fill-opacity: 1; stroke-width: 0; opacity: 1;"/><path class="sankey-link" d="M20,26.803557464299146C270,26.803557464299146 270,4.934410553363668 520,4.934410553363668L520,5.0104196890892C270,5.0104196890892 270,26.879566600024674 20,26.879566600024674Z" style="stroke: rgb(2, 158, 115); stroke-opacity: 1; fill: rgb(2, 158, 115); fill-opacity: 1; stroke-width: 1; opacity: 1;"/><path class="sankey-link" d="M20,26.879566600024678C270,26.879566600024678 270,21.1448485569561 520,21.1448485569561L520,21.271968024871292C270,21.271968024871292 270,27.00668606793987 20,27.00668606793987Z" style="stroke: rgb(2, 158, 115); stroke-opacity: 1; fill: rgb(2, 158, 115); fill-opacity: 1; stroke-width: 1; opacity: 1;"/><path class="sankey-link" d="M20,27.006686067939867C270,27.006686067939867 270,41.88704742905543 520,41.88704742905543L520,49.823635649680696C270,49.823635649680696 270,34.943274288565135 20,34.943274288565135Z" style="stroke: rgb(68, 68, 68); stroke-opacity: 1; fill: rgb(2, 158, 115); fill-opacity: 1; stroke-width: 0; opacity: 1;"/><path class="sankey-link" d="M20,36.256397393702606C270,36.256397393702606 270,169.8526492307672 520,169.8526492307672L520,170.92653706862438C270,170.92653706862438 270,37.33028523155978 20,37.33028523155978Z" style="stroke: rgb(68, 68, 68); stroke-opacity: 1; fill: rgb(2, 158, 115); fill-opacity: 1; stroke-width: 0; opacity: 1;"/><path class="sankey-link" d="M20,36.17452361644019C270,36.17452361644019 270,151.25365489054528 520,151.25365489054528L520,151.33552866780772C270,151.33552866780772 270,36.256397393702606 20,36.256397393702606Z" style="stroke: rgb(2, 158, 115); stroke-opacity: 1; fill: rgb(2, 158, 115); fill-opacity: 1; stroke-width: 1; opacity: 1;"/><path class="sankey-link" d="M20,35.53538432872444C270,35.53538432872444 270,117.8170953961384 520,117.8170953961384L520,118.45623468385415C270,118.45623468385415 270,36.17452361644019 20,36.17452361644019Z" style="stroke: rgb(2, 158, 115); stroke-opacity: 1; fill: rgb(2, 158, 115); fill-opacity: 1; stroke-width: 1; opacity: 1;"/><path class="sankey-link" d="M20,37.49233747971246C270,37.49233747971246 270,229.8722431735923 520,229.8722431735923L520,230.14347089058887C270,230.14347089058887 270,37.76356519670907 20,37.76356519670907Z" style="stroke: rgb(2, 158, 115); stroke-opacity: 1; fill: rgb(2, 158, 115); fill-opacity: 1; stroke-width: 1; opacity: 1;"/><path class="sankey-link" d="M20,37.33028523155977C270,37.33028523155977 270,210.5855295554224 520,210.5855295554224L520,210.7475818035751C270,210.7475818035751 270,37.49233747971246 20,37.49233747971246Z" style="stroke: rgb(2, 158, 115); stroke-opacity: 1; fill: rgb(2, 158, 115); fill-opacity: 1; stroke-width: 1; opacity: 1;"/><path class="sankey-link" d="M20,34.943274288565135C270,34.943274288565135 270,90.52996441870641 520,90.52996441870641L520,91.12207445886571C270,91.12207445886571 270,35.53538432872443 20,35.53538432872443Z" style="stroke: rgb(2, 158, 115); stroke-opacity: 1; fill: rgb(2, 158, 115); fill-opacity: 1; stroke-width: 1; opacity: 1;"/><path class="sankey-link" d="M20,37.76356519670907C270,37.76356519670907 270,257.3625520162098 520,257.3625520162098L520,259.29938188261275C270,259.29938188261275 270,39.70039506311204 20,39.70039506311204Z" style="stroke: rgb(68, 68, 68); stroke-opacity: 1; fill: rgb(2, 158, 115); fill-opacity: 1; stroke-width: 0; opacity: 1;"/><path class="sankey-link" d="M20,263.9626836806044C270,263.9626836806044 270,5.91427699523687 520,5.91427699523687L520,5.958195763635471C270,5.958195763635471 270,264.006602449003 20,264.006602449003Z" style="stroke: rgb(213, 94, 0); stroke-opacity: 1; fill: rgb(213, 94, 0); fill-opacity: 1; stroke-width: 1; opacity: 1;"/><path class="sankey-link" d="M20,264.006602449003C270,264.006602449003 270,25.202471206025432 520,25.202471206025432L520,25.243287886122314C270,25.243287886122314 270,264.0474191290999 20,264.0474191290999Z" style="stroke: rgb(213, 94, 0); stroke-opacity: 1; fill: rgb(213, 94, 0); fill-opacity: 1; stroke-width: 1; opacity: 1;"/><path class="sankey-link" d="M20,264.0474191290999C270,264.0474191290999 270,72.2888831688283 520,72.2888831688283L520,72.81763309622878C270,72.81763309622878 270,264.57616905650036 20,264.57616905650036Z" style="stroke: rgb(213, 94, 0); stroke-opacity: 1; fill: rgb(213, 94, 0); fill-opacity: 1; stroke-width: 1; opacity: 1;"/><path class="sankey-link" d="M20,264.9839772022237C270,264.9839772022237 270,189.23915909111363 520,189.23915909111363L520,192.51029841077727C270,192.51029841077727 270,268.25511652188726 20,268.25511652188726Z" style="stroke: rgb(68, 68, 68); stroke-opacity: 1; fill: rgb(213, 94, 0); fill-opacity: 1; stroke-width: 0; opacity: 1;"/><path class="sankey-link" d="M20,264.9550699710399C270,264.9550699710399 270,152.6714166676675 520,152.6714166676675L520,152.70032389885128C270,152.70032389885128 270,264.9839772022237 20,264.9839772022237Z" style="stroke: rgb(213, 94, 0); stroke-opacity: 1; fill: rgb(213, 94, 0); fill-opacity: 1; stroke-width: 1; opacity: 1;"/><path class="sankey-link" d="M20,264.77537893516455C270,264.77537893516455 270,134.780406720635 520,134.780406720635L520,134.96009775651035C270,134.96009775651035 270,264.95506997103985 20,264.95506997103985Z" style="stroke: rgb(213, 94, 0); stroke-opacity: 1; fill: rgb(213, 94, 0); fill-opacity: 1; stroke-width: 1; opacity: 1;"/><path class="sankey-link" d="M20,268.43541955324866C270,268.43541955324866 270,239.70783313384518 520,239.70783313384518L520,239.8107188900108C270,239.8107188900108 270,268.5383053094143 20,268.5383053094143Z" style="stroke: rgb(213, 94, 0); stroke-opacity: 1; fill: rgb(213, 94, 0); fill-opacity: 1; stroke-width: 1; opacity: 1;"/><path class="sankey-link" d="M20,268.2551165218873C270,268.2551165218873 270,214.0006928188037 520,214.0006928188037L520,214.18099585016506C270,214.18099585016506 270,268.4354195532486 20,268.4354195532486Z" style="stroke: rgb(213, 94, 0); stroke-opacity: 1; fill: rgb(213, 94, 0); fill-opacity: 1; stroke-width: 1; opacity: 1;"/><path class="sankey-link" d="M20,264.57616905650036C270,264.57616905650036 270,101.34366307254999 520,101.34366307254999L520,101.54287295121415C270,101.54287295121415 270,264.77537893516455 20,264.77537893516455Z" style="stroke: rgb(213, 94, 0); stroke-opacity: 1; fill: rgb(213, 94, 0); fill-opacity: 1; stroke-width: 1; opacity: 1;"/><path class="sankey-link" d="M20,268.5383053094143C270,268.5383053094143 270,292.25031856235654 520,292.25031856235654L520,293.2044738649561C270,293.2044738649561 270,269.4924606120139 20,269.4924606120139Z" style="stroke: rgb(213, 94, 0); stroke-opacity: 1; fill: rgb(213, 94, 0); fill-opacity: 1; stroke-width: 1; opacity: 1;"/><path class="sankey-link" d="M20,137.87676057565704C270,137.87676057565704 270,5.479358832167717 520,5.479358832167717L520,5.490885979212575C270,5.490885979212575 270,137.88828772270188 20,137.88828772270188Z" style="stroke: rgb(204, 120, 188); stroke-opacity: 1; fill: rgb(204, 120, 188); fill-opacity: 1; stroke-width: 1; opacity: 1;"/><path class="sankey-link" d="M20,137.8882877227019C270,137.8882877227019 270,24.498399528507168 520,24.498399528507168L520,24.504825014134372C270,24.504825014134372 270,137.89471320832908 20,137.89471320832908Z" style="stroke: rgb(204, 120, 188); stroke-opacity: 1; fill: rgb(204, 120, 188); fill-opacity: 1; stroke-width: 1; opacity: 1;"/><path class="sankey-link" d="M20,137.8947132083291C270,137.8947132083291 270,62.021267935450666 520,62.021267935450666L520,62.2416641575155C270,62.2416641575155 270,138.11510943039394 20,138.11510943039394Z" style="stroke: rgb(204, 120, 188); stroke-opacity: 1; fill: rgb(204, 120, 188); fill-opacity: 1; stroke-width: 1; opacity: 1;"/><path class="sankey-link" d="M20,138.34221440274092C270,138.34221440274092 270,178.5262021830329 520,178.5262021830329L520,178.62164961114772C270,178.62164961114772 270,138.43766183085575 20,138.43766183085575Z" style="stroke: rgb(204, 120, 188); stroke-opacity: 1; fill: rgb(204, 120, 188); fill-opacity: 1; stroke-width: 1; opacity: 1;"/><path class="sankey-link" d="M20,138.25774304101958C270,138.25774304101958 270,151.9356357674196 520,151.9356357674196L520,152.02010712914094C270,152.02010712914094 270,138.34221440274092 20,138.34221440274092Z" style="stroke: rgb(204, 120, 188); stroke-opacity: 1; fill: rgb(204, 120, 188); fill-opacity: 1; stroke-width: 1; opacity: 1;"/><path class="sankey-link" d="M20,138.15794797612165C270,138.15794797612165 270,127.73284595642174 520,127.73284595642174L520,127.83264102131967C270,127.83264102131967 270,138.25774304101958 20,138.25774304101958Z" style="stroke: rgb(204, 120, 188); stroke-opacity: 1; fill: rgb(204, 120, 188); fill-opacity: 1; stroke-width: 1; opacity: 1;"/><path class="sankey-link" d="M20,138.53140920514372C270,138.53140920514372 270,231.32642551636232 520,231.32642551636232L520,231.34619643271745C270,231.34619643271745 270,138.55118012149885 20,138.55118012149885Z" style="stroke: rgb(204, 120, 188); stroke-opacity: 1; fill: rgb(204, 120, 188); fill-opacity: 1; stroke-width: 1; opacity: 1;"/><path class="sankey-link" d="M20,138.43766183085575C270,138.43766183085575 270,211.90779728918886 520,211.90779728918886L520,212.00154466347686C270,212.00154466347686 270,138.53140920514375 20,138.53140920514375Z" style="stroke: rgb(204, 120, 188); stroke-opacity: 1; fill: rgb(204, 120, 188); fill-opacity: 1; stroke-width: 1; opacity: 1;"/><path class="sankey-link" d="M20,138.11510943039394C270,138.11510943039394 270,98.39636784044518 520,98.39636784044518L520,98.43920638617288C270,98.43920638617288 270,138.15794797612165 20,138.15794797612165Z" style="stroke: rgb(204, 120, 188); stroke-opacity: 1; fill: rgb(204, 120, 188); fill-opacity: 1; stroke-width: 1; opacity: 1;"/><path class="sankey-link" d="M20,138.55118012149882C270,138.55118012149882 270,269.48889748311876 520,269.48889748311876L520,269.6230985933555C270,269.6230985933555 270,138.68538123173562 20,138.68538123173562Z" style="stroke: rgb(204, 120, 188); stroke-opacity: 1; fill: rgb(204, 120, 188); fill-opacity: 1; stroke-width: 1; opacity: 1;"/><path class="sankey-link" d="M20,231.35972489502313C270,231.35972489502313 270,5.877864877144734 520,5.877864877144734L520,5.8783886695986425C270,5.8783886695986425 270,231.36024868747705 20,231.36024868747705Z" style="stroke: rgb(202, 145, 97); stroke-opacity: 1; fill: rgb(202, 145, 97); fill-opacity: 1; stroke-width: 1; opacity: 1;"/><path class="sankey-link" d="M20,231.36024868747705C270,231.36024868747705 270,25.184192978588833 520,25.184192978588833L520,25.185446165332728C270,25.185446165332728 270,231.36150187422095 20,231.36150187422095Z" style="stroke: rgb(202, 145, 97); stroke-opacity: 1; fill: rgb(202, 145, 97); fill-opacity: 1; stroke-width: 1; opacity: 1;"/><path class="sankey-link" d="M20,231.36150187422095C270,231.36150187422095 270,71.80110030892271 520,71.80110030892271L520,71.81141148514376C270,71.81141148514376 270,231.37181305044203 20,231.37181305044203Z" style="stroke: rgb(202, 145, 97); stroke-opacity: 1; fill: rgb(202, 145, 97); fill-opacity: 1; stroke-width: 1; opacity: 1;"/><path class="sankey-link" d="M20,231.3919342197076C270,231.3919342197076 270,188.68457886559656 520,188.68457886559656L520,188.69392793204344C270,188.69392793204344 270,231.40128328615447 20,231.40128328615447Z" style="stroke: rgb(202, 145, 97); stroke-opacity: 1; fill: rgb(202, 145, 97); fill-opacity: 1; stroke-width: 1; opacity: 1;"/><path class="sankey-link" d="M20,231.39130664973283C270,231.39130664973283 270,152.60152532373348 520,152.60152532373348L520,152.60215289370825C270,152.60215289370825 270,231.3919342197076 20,231.3919342197076Z" style="stroke: rgb(202, 145, 97); stroke-opacity: 1; fill: rgb(202, 145, 97); fill-opacity: 1; stroke-width: 1; opacity: 1;"/><path class="sankey-link" d="M20,231.37738019353267C270,231.37738019353267 270,134.60518409193708 520,134.60518409193708L520,134.61911054813726C270,134.61911054813726 270,231.39130664973285 20,231.39130664973285Z" style="stroke: rgb(202, 145, 97); stroke-opacity: 1; fill: rgb(202, 145, 97); fill-opacity: 1; stroke-width: 1; opacity: 1;"/><path class="sankey-link" d="M20,231.40302487707655C270,231.40302487707655 270,239.65617480113053 520,239.65617480113053L520,239.65797640318112C270,239.65797640318112 270,231.40482647912714 20,231.40482647912714Z" style="stroke: rgb(202, 145, 97); stroke-opacity: 1; fill: rgb(202, 145, 97); fill-opacity: 1; stroke-width: 1; opacity: 1;"/><path class="sankey-link" d="M20,231.40128328615447C270,231.40128328615447 270,213.4172194587936 520,213.4172194587936L520,213.4189610497157C270,213.4189610497157 270,231.40302487707658 20,231.40302487707658Z" style="stroke: rgb(202, 145, 97); stroke-opacity: 1; fill: rgb(202, 145, 97); fill-opacity: 1; stroke-width: 1; opacity: 1;"/><path class="sankey-link" d="M20,231.371813050442C270,231.371813050442 270,101.19426501118002 520,101.19426501118002L520,101.1998321542707C270,101.1998321542707 270,231.37738019353267 20,231.37738019353267Z" style="stroke: rgb(202, 145, 97); stroke-opacity: 1; fill: rgb(202, 145, 97); fill-opacity: 1; stroke-width: 1; opacity: 1;"/><path class="sankey-link" d="M20,231.40482647912714C270,231.40482647912714 270,291.7740569344533 520,291.7740569344533L520,291.7910370253457C270,291.7910370253457 270,231.42180657001953 20,231.42180657001953Z" style="stroke: rgb(202, 145, 97); stroke-opacity: 1; fill: rgb(202, 145, 97); fill-opacity: 1; stroke-width: 1; opacity: 1;"/><path class="sankey-link" d="M20,153.68538123173562C270,153.68538123173562 270,5.490885979212575 520,5.490885979212575L520,5.877864877144734C270,5.877864877144734 270,154.0723601296678 20,154.0723601296678Z" style="stroke: rgb(251, 175, 228); stroke-opacity: 1; fill: rgb(251, 175, 228); fill-opacity: 1; stroke-width: 1; opacity: 1;"/><path class="sankey-link" d="M20,154.07236012966777C270,154.07236012966777 270,24.50482501413437 520,24.50482501413437L520,25.184192978588833C270,25.184192978588833 270,154.75172809412223 20,154.75172809412223Z" style="stroke: rgb(251, 175, 228); stroke-opacity: 1; fill: rgb(251, 175, 228); fill-opacity: 1; stroke-width: 1; opacity: 1;"/><path class="sankey-link" d="M20,154.75172809412223C270,154.75172809412223 270,62.24166415751549 520,62.24166415751549L520,71.80110030892271C270,71.80110030892271 270,164.31116424552945 20,164.31116424552945Z" style="stroke: rgb(68, 68, 68); stroke-opacity: 1; fill: rgb(251, 175, 228); fill-opacity: 1; stroke-width: 0; opacity: 1;"/><path class="sankey-link" d="M20,174.42018413574652C270,174.42018413574652 270,178.62164961114772 520,178.62164961114772L520,188.6845788655966C270,188.6845788655966 270,184.4831133901954 20,184.4831133901954Z" style="stroke: rgb(68, 68, 68); stroke-opacity: 1; fill: rgb(251, 175, 228); fill-opacity: 1; stroke-width: 0; opacity: 1;"/><path class="sankey-link" d="M20,173.83876594115398C270,173.83876594115398 270,152.02010712914094 520,152.02010712914094L520,152.60152532373345C270,152.60152532373345 270,174.4201841357465 20,174.4201841357465Z" style="stroke: rgb(251, 175, 228); stroke-opacity: 1; fill: rgb(251, 175, 228); fill-opacity: 1; stroke-width: 1; opacity: 1;"/><path class="sankey-link" d="M20,167.0662228705366C270,167.0662228705366 270,127.83264102131967 520,127.83264102131967L520,134.60518409193708C270,134.60518409193708 270,173.838765941154 20,173.838765941154Z" style="stroke: rgb(68, 68, 68); stroke-opacity: 1; fill: rgb(251, 175, 228); fill-opacity: 1; stroke-width: 0; opacity: 1;"/><path class="sankey-link" d="M20,185.89878818551213C270,185.89878818551213 270,231.34619643271742 520,231.34619643271742L520,239.65617480113053C270,239.65617480113053 270,194.20876655392524 20,194.20876655392524Z" style="stroke: rgb(68, 68, 68); stroke-opacity: 1; fill: rgb(251, 175, 228); fill-opacity: 1; stroke-width: 0; opacity: 1;"/><path class="sankey-link" d="M20,184.48311339019537C270,184.48311339019537 270,212.00154466347684 520,212.00154466347684L520,213.4172194587936C270,213.4172194587936 270,185.89878818551213 20,185.89878818551213Z" style="stroke: rgb(68, 68, 68); stroke-opacity: 1; fill: rgb(251, 175, 228); fill-opacity: 1; stroke-width: 0; opacity: 1;"/><path class="sankey-link" d="M20,164.31116424552945C270,164.31116424552945 270,98.43920638617287 520,98.43920638617287L520,101.19426501118001C270,101.19426501118001 270,167.06622287053662 20,167.06622287053662Z" style="stroke: rgb(68, 68, 68); stroke-opacity: 1; fill: rgb(251, 175, 228); fill-opacity: 1; stroke-width: 0; opacity: 1;"/><path class="sankey-link" d="M20,194.20876655392527C270,194.20876655392527 270,269.62309859335556 520,269.62309859335556L520,291.7740569344533C270,291.7740569344533 270,216.35972489502302 20,216.35972489502302Z" style="stroke: rgb(68, 68, 68); stroke-opacity: 1; fill: rgb(251, 175, 228); fill-opacity: 1; stroke-width: 0; opacity: 1;"/><path class="sankey-link" d="M20,246.42180657001956C270,246.42180657001956 270,5.8783886695986425 520,5.8783886695986425L520,5.91427699523687C270,5.91427699523687 270,246.45769489565777 20,246.45769489565777Z" style="stroke: rgb(148, 148, 148); stroke-opacity: 1; fill: rgb(148, 148, 148); fill-opacity: 1; stroke-width: 1; opacity: 1;"/><path class="sankey-link" d="M20,246.4576948956578C270,246.4576948956578 270,25.185446165332728 520,25.185446165332728L520,25.20247120602543C270,25.20247120602543 270,246.4747199363505 20,246.4747199363505Z" style="stroke: rgb(148, 148, 148); stroke-opacity: 1; fill: rgb(148, 148, 148); fill-opacity: 1; stroke-width: 1; opacity: 1;"/><path class="sankey-link" d="M20,246.4747199363505C270,246.4747199363505 270,71.81141148514378 520,71.81141148514378L520,72.28888316882829C270,72.28888316882829 270,246.95219162003505 20,246.95219162003505Z" style="stroke: rgb(148, 148, 148); stroke-opacity: 1; fill: rgb(148, 148, 148); fill-opacity: 1; stroke-width: 1; opacity: 1;"/><path class="sankey-link" d="M20,247.32658248477134C270,247.32658248477134 270,188.69392793204344 520,188.69392793204344L520,189.2391590911136C270,189.2391590911136 270,247.8718136438415 20,247.8718136438415Z" style="stroke: rgb(148, 148, 148); stroke-opacity: 1; fill: rgb(148, 148, 148); fill-opacity: 1; stroke-width: 1; opacity: 1;"/><path class="sankey-link" d="M20,247.2573187108121C270,247.2573187108121 270,152.60215289370825 520,152.60215289370825L520,152.67141666766747C270,152.67141666766747 270,247.3265824847713 20,247.3265824847713Z" style="stroke: rgb(148, 148, 148); stroke-opacity: 1; fill: rgb(148, 148, 148); fill-opacity: 1; stroke-width: 1; opacity: 1;"/><path class="sankey-link" d="M20,247.09602253831432C270,247.09602253831432 270,134.61911054813723 520,134.61911054813723L520,134.780406720635C270,134.780406720635 270,247.2573187108121 20,247.2573187108121Z" style="stroke: rgb(148, 148, 148); stroke-opacity: 1; fill: rgb(148, 148, 148); fill-opacity: 1; stroke-width: 1; opacity: 1;"/><path class="sankey-link" d="M20,248.45354541292957C270,248.45354541292957 270,239.65797640318112 520,239.65797640318112L520,239.7078331338452C270,239.7078331338452 270,248.50340214359366 20,248.50340214359366Z" style="stroke: rgb(148, 148, 148); stroke-opacity: 1; fill: rgb(148, 148, 148); fill-opacity: 1; stroke-width: 1; opacity: 1;"/><path class="sankey-link" d="M20,247.87181364384153C270,247.87181364384153 270,213.41896104971568 520,213.41896104971568L520,214.0006928188037C270,214.0006928188037 270,248.45354541292957 20,248.45354541292957Z" style="stroke: rgb(148, 148, 148); stroke-opacity: 1; fill: rgb(148, 148, 148); fill-opacity: 1; stroke-width: 1; opacity: 1;"/><path class="sankey-link" d="M20,246.95219162003502C270,246.95219162003502 270,101.1998321542707 520,101.1998321542707L520,101.34366307254999C270,101.34366307254999 270,247.09602253831434 20,247.09602253831434Z" style="stroke: rgb(148, 148, 148); stroke-opacity: 1; fill: rgb(148, 148, 148); fill-opacity: 1; stroke-width: 1; opacity: 1;"/><path class="sankey-link" d="M20,248.50340214359363C270,248.50340214359363 270,291.7910370253457 520,291.7910370253457L520,292.25031856235654C270,292.25031856235654 270,248.96268368060447 20,248.96268368060447Z" style="stroke: rgb(148, 148, 148); stroke-opacity: 1; fill: rgb(148, 148, 148); fill-opacity: 1; stroke-width: 1; opacity: 1;"/><path class="sankey-link" d="M20,83.06636090544896C270,83.06636090544896 270,5.140115561247198 520,5.140115561247198L520,5.479358832167717C270,5.479358832167717 270,83.40560417636948 20,83.40560417636948Z" style="stroke: rgb(236, 225, 51); stroke-opacity: 1; fill: rgb(236, 225, 51); fill-opacity: 1; stroke-width: 1; opacity: 1;"/><path class="sankey-link" d="M20,83.40560417636948C270,83.40560417636948 270,23.852076739419243 520,23.852076739419243L520,24.498399528507168C270,24.498399528507168 270,84.0519269654574 20,84.0519269654574Z" style="stroke: rgb(236, 225, 51); stroke-opacity: 1; fill: rgb(236, 225, 51); fill-opacity: 1; stroke-width: 1; opacity: 1;"/><path class="sankey-link" d="M20,84.05192696545741C270,84.05192696545741 270,53.16081470903495 520,53.16081470903495L520,62.021267935450666C270,62.021267935450666 270,92.91238019187314 20,92.91238019187314Z" style="stroke: rgb(68, 68, 68); stroke-opacity: 1; fill: rgb(236, 225, 51); fill-opacity: 1; stroke-width: 0; opacity: 1;"/><path class="sankey-link" d="M20,107.54803172648043C270,107.54803172648043 270,172.68949140277445 520,172.68949140277445L520,178.5262021830329C270,178.5262021830329 270,113.38474250673887 20,113.38474250673887Z" style="stroke: rgb(68, 68, 68); stroke-opacity: 1; fill: rgb(236, 225, 51); fill-opacity: 1; stroke-width: 0; opacity: 1;"/><path class="sankey-link" d="M20,107.13060938458672C270,107.13060938458672 270,151.5182134255259 520,151.5182134255259L520,151.9356357674196C270,151.9356357674196 270,107.54803172648043 20,107.54803172648043Z" style="stroke: rgb(236, 225, 51); stroke-opacity: 1; fill: rgb(236, 225, 51); fill-opacity: 1; stroke-width: 1; opacity: 1;"/><path class="sankey-link" d="M20,99.17742369793635C270,99.17742369793635 270,119.77966026977137 520,119.77966026977137L520,127.73284595642173C270,127.73284595642173 270,107.1306093845867 20,107.1306093845867Z" style="stroke: rgb(68, 68, 68); stroke-opacity: 1; fill: rgb(236, 225, 51); fill-opacity: 1; stroke-width: 0; opacity: 1;"/><path class="sankey-link" d="M20,114.26941160601852C270,114.26941160601852 270,230.42589378914747 520,230.42589378914747L520,231.32642551636232C270,231.32642551636232 270,115.16994333323338 20,115.16994333323338Z" style="stroke: rgb(236, 225, 51); stroke-opacity: 1; fill: rgb(236, 225, 51); fill-opacity: 1; stroke-width: 1; opacity: 1;"/><path class="sankey-link" d="M20,113.38474250673887C270,113.38474250673887 270,211.02312818990922 520,211.02312818990922L520,211.90779728918884C270,211.90779728918884 270,114.26941160601852 20,114.26941160601852Z" style="stroke: rgb(236, 225, 51); stroke-opacity: 1; fill: rgb(236, 225, 51); fill-opacity: 1; stroke-width: 1; opacity: 1;"/><path class="sankey-link" d="M20,92.91238019187313C270,92.91238019187313 270,92.13132433438196 520,92.13132433438196L520,98.39636784044518C270,98.39636784044518 270,99.17742369793635 20,99.17742369793635Z" style="stroke: rgb(68, 68, 68); stroke-opacity: 1; fill: rgb(236, 225, 51); fill-opacity: 1; stroke-width: 0; opacity: 1;"/><path class="sankey-link" d="M20,115.16994333323338C270,115.16994333323338 270,261.7820802406951 520,261.7820802406951L520,269.48889748311876C270,269.48889748311876 270,122.87676057565703 20,122.87676057565703Z" style="stroke: rgb(68, 68, 68); stroke-opacity: 1; fill: rgb(236, 225, 51); fill-opacity: 1; stroke-width: 0; opacity: 1;"/><path class="sankey-link" d="M20,284.4924606120139C270,284.4924606120139 270,5.958195763635471 520,5.958195763635471L520,6.064267269457984C270,6.064267269457984 270,284.59853211783644 20,284.59853211783644Z" style="stroke: rgb(86, 180, 233); stroke-opacity: 1; fill: rgb(86, 180, 233); fill-opacity: 1; stroke-width: 1; opacity: 1;"/><path class="sankey-link" d="M20,284.5985321178364C270,284.5985321178364 270,25.24328788612231 520,25.24328788612231L520,25.444136579729616C270,25.444136579729616 270,284.7993808114437 20,284.7993808114437Z" style="stroke: rgb(86, 180, 233); stroke-opacity: 1; fill: rgb(86, 180, 233); fill-opacity: 1; stroke-width: 1; opacity: 1;"/><path class="sankey-link" d="M20,284.7993808114437C270,284.7993808114437 270,72.81763309622878 520,72.81763309622878L520,75.18246261251423C270,75.18246261251423 270,287.16421032772917 20,287.16421032772917Z" style="stroke: rgb(68, 68, 68); stroke-opacity: 1; fill: rgb(86, 180, 233); fill-opacity: 1; stroke-width: 0; opacity: 1;"/><path class="sankey-link" d="M20,289.23895174029826C270,289.23895174029826 270,192.51029841077724 520,192.51029841077724L520,195.32359061721917C270,195.32359061721917 270,292.0522439467402 20,292.0522439467402Z" style="stroke: rgb(68, 68, 68); stroke-opacity: 1; fill: rgb(86, 180, 233); fill-opacity: 1; stroke-width: 0; opacity: 1;"/><path class="sankey-link" d="M20,289.1029619840067C270,289.1029619840067 270,152.7003238988513 520,152.7003238988513L520,152.83631365514287C270,152.83631365514287 270,289.23895174029826 20,289.23895174029826Z" style="stroke: rgb(86, 180, 233); stroke-opacity: 1; fill: rgb(86, 180, 233); fill-opacity: 1; stroke-width: 1; opacity: 1;"/><path class="sankey-link" d="M20,287.93057358988375C270,287.93057358988375 270,134.96009775651035 520,134.96009775651035L520,136.1324861506333C270,136.1324861506333 270,289.10296198400664 20,289.10296198400664Z" style="stroke: rgb(68, 68, 68); stroke-opacity: 1; fill: rgb(86, 180, 233); fill-opacity: 1; stroke-width: 0; opacity: 1;"/><path class="sankey-link" d="M20,292.51247855321134C270,292.51247855321134 270,239.81071889001078 520,239.81071889001078L520,240.50271420175574C270,240.50271420175574 270,293.20447386495636 20,293.20447386495636Z" style="stroke: rgb(86, 180, 233); stroke-opacity: 1; fill: rgb(86, 180, 233); fill-opacity: 1; stroke-width: 1; opacity: 1;"/><path class="sankey-link" d="M20,292.0522439467402C270,292.0522439467402 270,214.18099585016503 520,214.18099585016503L520,214.64123045663618C270,214.64123045663618 270,292.5124785532113 20,292.5124785532113Z" style="stroke: rgb(86, 180, 233); stroke-opacity: 1; fill: rgb(86, 180, 233); fill-opacity: 1; stroke-width: 1; opacity: 1;"/><path class="sankey-link" d="M20,287.16421032772917C270,287.16421032772917 270,101.54287295121416 520,101.54287295121416L520,102.30923621336875C270,102.30923621336875 270,287.9305735898838 20,287.9305735898838Z" style="stroke: rgb(86, 180, 233); stroke-opacity: 1; fill: rgb(86, 180, 233); fill-opacity: 1; stroke-width: 1; opacity: 1;"/><path class="sankey-link" d="M20,293.2044738649563C270,293.2044738649563 270,293.2044738649561 520,293.2044738649561L520,319.99999999999994C270,319.99999999999994 270,320.0000000000001 20,320.0000000000001Z" style="stroke: rgb(68, 68, 68); stroke-opacity: 1; fill: rgb(86, 180, 233); fill-opacity: 1; stroke-width: 0; opacity: 1;"/></g><g class="sankey-node-set" style="cursor: move;"><g class="sankey-node" transform="translate(0.000,0.000)" style="opacity: 1;"><rect class="node-rect" width="20" height="11.803557464299082" style="stroke-width: 0.5; stroke: rgb(0, 0, 0); stroke-opacity: 1; fill: rgb(211, 211, 211); fill-opacity: 1;"/><text class="node-label" data-notex="1" x="0" y="0" text-anchor="start" transform="translate(23.25,10.10177873214954)" style="cursor: default; font-family: 'Open Sans', verdana, arial, sans-serif; font-size: 12px; fill: rgb(42, 63, 95); fill-opacity: 1; white-space: pre; text-shadow: white 1px 1px 1px, white -1px -1px 1px, white 1px -1px 1px, white -1px 1px 1px;">Africa (14 Mt)</text></g><g class="sankey-node" transform="translate(0.000,54.700)" style="opacity: 1;"><rect class="node-rect" width="20" height="13.365965842336891" style="stroke-width: 0.5; stroke: rgb(0, 0, 0); stroke-opacity: 1; fill: rgb(211, 211, 211); fill-opacity: 1;"/><text class="node-label" data-notex="1" x="0" y="0" text-anchor="start" transform="translate(23.25,10.882982921168445)" style="cursor: default; font-family: 'Open Sans', verdana, arial, sans-serif; font-size: 12px; fill: rgb(42, 63, 95); fill-opacity: 1; white-space: pre; text-shadow: white 1px 1px 1px, white -1px -1px 1px, white 1px -1px 1px, white -1px 1px 1px;">Australia (16 Mt)</text></g><g class="sankey-node" transform="translate(0.000,26.804)" style="opacity: 1;"><rect class="node-rect" width="20" height="12.896837598812908" style="stroke-width: 0.5; stroke: rgb(0, 0, 0); stroke-opacity: 1; fill: rgb(211, 211, 211); fill-opacity: 1;"/><text class="node-label" data-notex="1" x="0" y="0" text-anchor="start" transform="translate(23.25,10.648418799406453)" style="cursor: default; font-family: 'Open Sans', verdana, arial, sans-serif; font-size: 12px; fill: rgb(42, 63, 95); fill-opacity: 1; white-space: pre; text-shadow: white 1px 1px 1px, white -1px -1px 1px, white 1px -1px 1px, white -1px 1px 1px;">China (15 Mt)</text></g><g class="sankey-node" transform="translate(0.000,263.963)" style="opacity: 1;"><rect class="node-rect" width="20" height="5.529776931409458" style="stroke-width: 0.5; stroke: rgb(0, 0, 0); stroke-opacity: 1; fill: rgb(211, 211, 211); fill-opacity: 1;"/><text class="node-label" data-notex="1" x="0" y="0" text-anchor="start" transform="translate(23.25,6.964888465704728)" style="cursor: default; font-family: 'Open Sans', verdana, arial, sans-serif; font-size: 12px; fill: rgb(42, 63, 95); fill-opacity: 1; white-space: pre; text-shadow: white 1px 1px 1px, white -1px -1px 1px, white 1px -1px 1px, white -1px 1px 1px;">Europe (6 Mt)</text></g><g class="sankey-node" transform="translate(0.000,137.877)" style="opacity: 1;"><rect class="node-rect" width="20" height="0.808620656078574" style="stroke-width: 0.5; stroke: rgb(0, 0, 0); stroke-opacity: 1; fill: rgb(211, 211, 211); fill-opacity: 1;"/><text class="node-label" data-notex="1" x="0" y="0" text-anchor="start" transform="translate(23.25,4.604310328039286)" style="cursor: default; font-family: 'Open Sans', verdana, arial, sans-serif; font-size: 12px; fill: rgb(42, 63, 95); fill-opacity: 1; white-space: pre; text-shadow: white 1px 1px 1px, white -1px -1px 1px, white 1px -1px 1px, white -1px 1px 1px;">India (0 Mt)</text></g><g class="sankey-node" transform="translate(0.000,231.360)" style="opacity: 1;"><rect class="node-rect" width="20" height="0.5" style="stroke-width: 0.5; stroke: rgb(0, 0, 0); stroke-opacity: 1; fill: rgb(211, 211, 211); fill-opacity: 1;"/><text class="node-label" data-notex="1" x="0" y="0" text-anchor="start" transform="translate(23.25,4.449999999999999)" style="cursor: default; font-family: 'Open Sans', verdana, arial, sans-serif; font-size: 12px; fill: rgb(42, 63, 95); fill-opacity: 1; white-space: pre; text-shadow: white 1px 1px 1px, white -1px -1px 1px, white 1px -1px 1px, white -1px 1px 1px;">Japan and Korea (0 Mt)</text></g><g class="sankey-node" transform="translate(0.000,153.685)" style="opacity: 1;"><rect class="node-rect" width="20" height="62.674343663287516" style="stroke-width: 0.5; stroke: rgb(0, 0, 0); stroke-opacity: 1; fill: rgb(211, 211, 211); fill-opacity: 1;"/><text class="node-label" data-notex="1" x="0" y="0" text-anchor="start" transform="translate(23.25,35.53717183164376)" style="cursor: default; font-family: 'Open Sans', verdana, arial, sans-serif; font-size: 12px; fill: rgb(42, 63, 95); fill-opacity: 1; white-space: pre; text-shadow: white 1px 1px 1px, white -1px -1px 1px, white 1px -1px 1px, white -1px 1px 1px;">Latin America (76 Mt)</text></g><g class="sankey-node" transform="translate(0.000,246.422)" style="opacity: 1;"><rect class="node-rect" width="20" height="2.5408771105848587" style="stroke-width: 0.5; stroke: rgb(0, 0, 0); stroke-opacity: 1; fill: rgb(211, 211, 211); fill-opacity: 1;"/><text class="node-label" data-notex="1" x="0" y="0" text-anchor="start" transform="translate(23.25,5.470438555292429)" style="cursor: default; font-family: 'Open Sans', verdana, arial, sans-serif; font-size: 12px; fill: rgb(42, 63, 95); fill-opacity: 1; white-space: pre; text-shadow: white 1px 1px 1px, white -1px -1px 1px, white 1px -1px 1px, white -1px 1px 1px;">Middle East (3 Mt)</text></g><g class="sankey-node" transform="translate(0.000,83.066)" style="opacity: 1;"><rect class="node-rect" width="20" height="39.810399670208085" style="stroke-width: 0.5; stroke: rgb(0, 0, 0); stroke-opacity: 1; fill: rgb(211, 211, 211); fill-opacity: 1;"/><text class="node-label" data-notex="1" x="0" y="0" text-anchor="start" transform="translate(23.25,24.10519983510404)" style="cursor: default; font-family: 'Open Sans', verdana, arial, sans-serif; font-size: 12px; fill: rgb(42, 63, 95); fill-opacity: 1; white-space: pre; text-shadow: white 1px 1px 1px, white -1px -1px 1px, white 1px -1px 1px, white -1px 1px 1px;">Rest of Asia (48 Mt)</text></g><g class="sankey-node" transform="translate(0.000,284.492)" style="opacity: 1;"><rect class="node-rect" width="20" height="35.50753938798613" style="stroke-width: 0.5; stroke: rgb(0, 0, 0); stroke-opacity: 1; fill: rgb(211, 211, 211); fill-opacity: 1;"/><text class="node-label" data-notex="1" x="0" y="0" text-anchor="start" transform="translate(23.25,21.953769693993063)" style="cursor: default; font-family: 'Open Sans', verdana, arial, sans-serif; font-size: 12px; fill: rgb(42, 63, 95); fill-opacity: 1; white-space: pre; text-shadow: white 1px 1px 1px, white -1px -1px 1px, white 1px -1px 1px, white -1px 1px 1px;">USA and Canada (43 Mt)</text></g><g class="sankey-node" transform="translate(520.000,0.000)" style="opacity: 1;"><rect class="node-rect" width="20" height="6.064267269457741" style="stroke-width: 0.5; stroke: rgb(0, 0, 0); stroke-opacity: 1; fill: rgb(211, 211, 211); fill-opacity: 1;"/><text class="node-label" data-notex="1" x="0" y="0" text-anchor="end" transform="translate(-3.25,7.23213363472887)" style="cursor: default; font-family: 'Open Sans', verdana, arial, sans-serif; font-size: 12px; fill: rgb(42, 63, 95); fill-opacity: 1; white-space: pre; text-shadow: white 1px 1px 1px, white -1px -1px 1px, white 1px -1px 1px, white -1px 1px 1px;">Africa (7 Mt)</text></g><g class="sankey-node" transform="translate(520.000,21.064)" style="opacity: 1;"><rect class="node-rect" width="20" height="4.37986931027163" style="stroke-width: 0.5; stroke: rgb(0, 0, 0); stroke-opacity: 1; fill: rgb(211, 211, 211); fill-opacity: 1;"/><text class="node-label" data-notex="1" x="0" y="0" text-anchor="end" transform="translate(-3.25,6.389934655135814)" style="cursor: default; font-family: 'Open Sans', verdana, arial, sans-serif; font-size: 12px; fill: rgb(42, 63, 95); fill-opacity: 1; white-space: pre; text-shadow: white 1px 1px 1px, white -1px -1px 1px, white 1px -1px 1px, white -1px 1px 1px;">Australia (5 Mt)</text></g><g class="sankey-node" transform="translate(520.000,40.444)" style="opacity: 1;"><rect class="node-rect" width="20" height="34.73832603278453" style="stroke-width: 0.5; stroke: rgb(0, 0, 0); stroke-opacity: 1; fill: rgb(211, 211, 211); fill-opacity: 1;"/><text class="node-label" data-notex="1" x="0" y="0" text-anchor="end" transform="translate(-3.25,21.569163016392263)" style="cursor: default; font-family: 'Open Sans', verdana, arial, sans-serif; font-size: 12px; fill: rgb(42, 63, 95); fill-opacity: 1; white-space: pre; text-shadow: white 1px 1px 1px, white -1px -1px 1px, white 1px -1px 1px, white -1px 1px 1px;">China (42 Mt)</text></g><g class="sankey-node" transform="translate(520.000,167.836)" style="opacity: 1;"><rect class="node-rect" width="20" height="27.48727696207635" style="stroke-width: 0.5; stroke: rgb(0, 0, 0); stroke-opacity: 1; fill: rgb(211, 211, 211); fill-opacity: 1;"/><text class="node-label" data-notex="1" x="0" y="0" text-anchor="end" transform="translate(-3.25,17.943638481038175)" style="cursor: default; font-family: 'Open Sans', verdana, arial, sans-serif; font-size: 12px; fill: rgb(42, 63, 95); fill-opacity: 1; white-space: pre; text-shadow: white 1px 1px 1px, white -1px -1px 1px, white 1px -1px 1px, white -1px 1px 1px;">Europe (33 Mt)</text></g><g class="sankey-node" transform="translate(520.000,151.132)" style="opacity: 1;"><rect class="node-rect" width="20" height="1.703827504509718" style="stroke-width: 0.5; stroke: rgb(0, 0, 0); stroke-opacity: 1; fill: rgb(211, 211, 211); fill-opacity: 1;"/><text class="node-label" data-notex="1" x="0" y="0" text-anchor="end" transform="translate(-3.25,5.051913752254858)" style="cursor: default; font-family: 'Open Sans', verdana, arial, sans-serif; font-size: 12px; fill: rgb(42, 63, 95); fill-opacity: 1; white-space: pre; text-shadow: white 1px 1px 1px, white -1px -1px 1px, white 1px -1px 1px, white -1px 1px 1px;">India (2 Mt)</text></g><g class="sankey-node" transform="translate(520.000,117.309)" style="opacity: 1;"><rect class="node-rect" width="20" height="18.82324993726425" style="stroke-width: 0.5; stroke: rgb(0, 0, 0); stroke-opacity: 1; fill: rgb(211, 211, 211); fill-opacity: 1;"/><text class="node-label" data-notex="1" x="0" y="0" text-anchor="end" transform="translate(-3.25,13.611624968632125)" style="cursor: default; font-family: 'Open Sans', verdana, arial, sans-serif; font-size: 12px; fill: rgb(42, 63, 95); fill-opacity: 1; white-space: pre; text-shadow: white 1px 1px 1px, white -1px -1px 1px, white 1px -1px 1px, white -1px 1px 1px;">Japan and Korea (22 Mt)</text></g><g class="sankey-node" transform="translate(520.000,229.641)" style="opacity: 1;"><rect class="node-rect" width="20" height="10.861483745119585" style="stroke-width: 0.5; stroke: rgb(0, 0, 0); stroke-opacity: 1; fill: rgb(211, 211, 211); fill-opacity: 1;"/><text class="node-label" data-notex="1" x="0" y="0" text-anchor="end" transform="translate(-3.25,9.630741872559792)" style="cursor: default; font-family: 'Open Sans', verdana, arial, sans-serif; font-size: 12px; fill: rgb(42, 63, 95); fill-opacity: 1; white-space: pre; text-shadow: white 1px 1px 1px, white -1px -1px 1px, white 1px -1px 1px, white -1px 1px 1px;">Latin America (13 Mt)</text></g><g class="sankey-node" transform="translate(520.000,210.324)" style="opacity: 1;"><rect class="node-rect" width="20" height="4.3176398394170405" style="stroke-width: 0.5; stroke: rgb(0, 0, 0); stroke-opacity: 1; fill: rgb(211, 211, 211); fill-opacity: 1;"/><text class="node-label" data-notex="1" x="0" y="0" text-anchor="end" transform="translate(-3.25,6.35881991970852)" style="cursor: default; font-family: 'Open Sans', verdana, arial, sans-serif; font-size: 12px; fill: rgb(42, 63, 95); fill-opacity: 1; white-space: pre; text-shadow: white 1px 1px 1px, white -1px -1px 1px, white 1px -1px 1px, white -1px 1px 1px;">Middle East (5 Mt)</text></g><g class="sankey-node" transform="translate(520.000,90.182)" style="opacity: 1;"><rect class="node-rect" width="20" height="12.126773600854705" style="stroke-width: 0.5; stroke: rgb(0, 0, 0); stroke-opacity: 1; fill: rgb(211, 211, 211); fill-opacity: 1;"/><text class="node-label" data-notex="1" x="0" y="0" text-anchor="end" transform="translate(-3.25,10.263386800427352)" style="cursor: default; font-family: 'Open Sans', verdana, arial, sans-serif; font-size: 12px; fill: rgb(42, 63, 95); fill-opacity: 1; white-space: pre; text-shadow: white 1px 1px 1px, white -1px -1px 1px, white 1px -1px 1px, white -1px 1px 1px;">Rest of Asia (14 Mt)</text></g><g class="sankey-node" transform="translate(520.000,255.503)" style="opacity: 1;"><rect class="node-rect" width="20" height="64.4972857982442" style="stroke-width: 0.5; stroke: rgb(0, 0, 0); stroke-opacity: 1; fill: rgb(211, 211, 211); fill-opacity: 1;"/><text class="node-label" data-notex="1" x="0" y="0" text-anchor="end" transform="translate(-3.25,36.448642899122106)" style="cursor: default; font-family: 'Open Sans', verdana, arial, sans-serif; font-size: 12px; fill: rgb(42, 63, 95); fill-opacity: 1; white-space: pre; text-shadow: white 1px 1px 1px, white -1px -1px 1px, white 1px -1px 1px, white -1px 1px 1px;">USA and Canada (78 Mt)</text></g></g></g><defs id="topdefs-61c590"><g class="clips"/></defs><g class="layer-above"><g class="imagelayer"/><g class="shapelayer"/></g><g class="infolayer"><g class="g-gtitle"/><g class="first-render"/></g></svg>