<svg class="main-svg" xmlns="http://www.w3.org/2000/svg" xmlns:xlink="http://www.w3.org/1999/xlink" width="700" height="500" viewBox="0 0 700 500"><rect x="0" y="0" width="700" height="500" style="fill: rgb(255, 255, 255); fill-opacity: 1;"/><defs id="defs-e9ae81"><g class="clips"/><g class="gradients"/><g class="patterns"/></defs><g class="bglayer"/><g class="layer-below"><g class="imagelayer"/><g class="shapelayer"/></g><g class="cartesianlayer"/><g class="polarlayer"/><g class="smithlayer"/><g class="ternarylayer"/><g class="geolayer"/><g class="funnelarealayer"/><g class="pielayer"/><g class="iciclelayer"/><g class="treemaplayer"/><g class="sunburstlayer"/><g class="glimages"/><g class="sankey" transform="translate(80,100)matrix(1 0 0 1 0 0)" style="box-sizing: content-box; position: absolute; left: 0px; shape-rendering: geometricPrecision; pointer-events: auto;"><g class="sankey-links" style="fill: none;"><path class="sankey-link" d="M20,-2.8421709430404007e-13C270,-2.8421709430404007e-13 270,-4.369837824924616e-13 520,-4.369837824924616e-13L520,4.934608264035724C270,4.934608264035724 270,4.934608264035877 20,4.934608264035877Z" style="stroke: rgb(68, 68, 68); stroke-opacity: 1; fill: rgb(1, 115, 178); fill-opacity: 1; stroke-width: 0; opacity: 1;"/><path class="sankey-link" d="M20,4.934608264035877C270,4.934608264035877 270,21.06447820847079 520,21.06447820847079L520,21.1450567405871C270,21.1450567405871 270,5.015186796152191 20,5.015186796152191Z" style="stroke: rgb(1, 115, 178); stroke-opacity: 1; fill: rgb(1, 115, 178); fill-opacity: 1; stroke-width: 1; opacity: 1;"/><path class="sankey-link" d="M20,5.015186796152192C270,5.015186796152192 270,40.44419775429266 520,40.44419775429266L520,41.88723511101149C270,41.88723511101149 270,6.458224152871025 20,6.458224152871025Z" style="stroke: rgb(68, 68, 68); stroke-opacity: 1; fill: rgb(1, 115, 178); fill-opacity: 1; stroke-width: 0; opacity: 1;"/><path class="sankey-link" d="M20,7.2898529255597175C270,7.2898529255597175 270,150.144971950111 520,150.144971950111L520,152.18466371922196C270,152.18466371922196 270,9.329544694670663 20,9.329544694670663Z" style="stroke: rgb(68, 68, 68); stroke-opacity: 1; fill: rgb(1, 115, 178); fill-opacity: 1; stroke-width: 0; opacity: 1;"/><path class="sankey-link" d="M20,9.329544694670663C270,9.329544694670663 270,193.62203004878327 520,193.62203004878327L520,193.74320436620562C270,193.74320436620562 270,9.450719012092986 20,9.450719012092986Z" style="stroke: rgb(1, 115, 178); stroke-opacity: 1; fill: rgb(1, 115, 178); fill-opacity: 1; stroke-width: 1; opacity: 1;"/><path class="sankey-link" d="M20,6.78201110843411C270,6.78201110843411 270,116.32236565161216 520,116.32236565161216L520,116.83020746873777C270,116.83020746873777 270,7.289852925559716 20,7.289852925559716Z" style="stroke: rgb(1, 115, 178); stroke-opacity: 1; fill: rgb(1, 115, 178); fill-opacity: 1; stroke-width: 1; opacity: 1;"/><path class="sankey-link" d="M20,11.572416842276203C270,11.572416842276203 270,309.1385116243618 520,309.1385116243618L520,309.3695295804884C270,309.3695295804884 270,11.803434798402849 20,11.803434798402849Z" style="stroke: rgb(1, 115, 178); stroke-opacity: 1; fill: rgb(1, 115, 178); fill-opacity: 1; stroke-width: 1; opacity: 1;"/><path class="sankey-link" d="M20,9.450719012092984C270,9.450719012092984 270,210.3259034466294 520,210.3259034466294L520,210.58782705731238C270,210.58782705731238 270,9.712642622775983 20,9.712642622775983Z" style="stroke: rgb(1, 115, 178); stroke-opacity: 1; fill: rgb(1, 115, 178); fill-opacity: 1; stroke-width: 1; opacity: 1;"/><path class="sankey-link" d="M20,6.458224152871024C270,6.458224152871024 270,90.18518325442807 520,90.18518325442807L520,90.50897020999116C270,90.50897020999116 270,6.78201110843411 20,6.78201110843411Z" style="stroke: rgb(1, 115, 178); stroke-opacity: 1; fill: rgb(1, 115, 178); fill-opacity: 1; stroke-width: 1; opacity: 1;"/><path class="sankey-link" d="M20,9.712642622775983C270,9.712642622775983 270,229.64343123451408 520,229.64343123451408L520,231.50320545401428C270,231.50320545401428 270,11.572416842276203 20,11.572416842276203Z" style="stroke: rgb(68, 68, 68); stroke-opacity: 1; fill: rgb(1, 115, 178); fill-opacity: 1; stroke-width: 0; opacity: 1;"/><path class="sankey-link" d="M20,54.700577027775516C270,54.700577027775516 270,5.010618127825436 520,5.010618127825436L520,5.1403199181463135C270,5.1403199181463135 270,54.830278818096396 20,54.830278818096396Z" style="stroke: rgb(222, 143, 5); stroke-opacity: 1; fill: rgb(222, 143, 5); fill-opacity: 1; stroke-width: 1; opacity: 1;"/><path class="sankey-link" d="M20,54.830278818096396C270,54.830278818096396 270,21.27217186180246 520,21.27217186180246L520,23.852192352585096C270,23.852192352585096 270,57.410299308879026 20,57.410299308879026Z" style="stroke: rgb(68, 68, 68); stroke-opacity: 1; fill: rgb(222, 143, 5); fill-opacity: 1; stroke-width: 0; opacity: 1;"/><path class="sankey-link" d="M20,57.41029930887903C270,57.41029930887903 270,49.824406522136194 520,49.824406522136194L520,53.16192321607628C270,53.16192321607628 270,60.74781600281912 20,60.74781600281912Z" style="stroke: rgb(68, 68, 68); stroke-opacity: 1; fill: rgb(222, 143, 5); fill-opacity: 1; stroke-width: 0; opacity: 1;"/><path class="sankey-link" d="M20,63.05284229500903C270,63.05284229500903 270,153.27867483781748 520,153.27867483781748L520,155.0689614017151C270,155.0689614017151 270,64.84312885890664 20,64.84312885890664Z" style="stroke: rgb(68, 68, 68); stroke-opacity: 1; fill: rgb(222, 143, 5); fill-opacity: 1; stroke-width: 0; opacity: 1;"/><path class="sankey-link" d="M20,64.84312885890664C270,64.84312885890664 270,193.82508247361827 520,193.82508247361827L520,194.00777298500216C270,194.00777298500216 270,65.02581937029056 20,65.02581937029056Z" style="stroke: rgb(222, 143, 5); stroke-opacity: 1; fill: rgb(222, 143, 5); fill-opacity: 1; stroke-width: 1; opacity: 1;"/><path class="sankey-link" d="M20,61.729461962064164C270,61.729461962064164 270,117.46932490184159 520,117.46932490184159L520,118.79270523478644C270,118.79270523478644 270,63.05284229500903 20,63.05284229500903Z" style="stroke: rgb(68, 68, 68); stroke-opacity: 1; fill: rgb(222, 143, 5); fill-opacity: 1; stroke-width: 0; opacity: 1;"/><path class="sankey-link" d="M20,67.78396852628475C270,67.78396852628475 270,309.64075930056015 520,309.64075930056015L520,309.9231860856821C270,309.9231860856821 270,68.06639531140675 20,68.06639531140675Z" style="stroke: rgb(222, 143, 5); stroke-opacity: 1; fill: rgb(222, 143, 5); fill-opacity: 1; stroke-width: 1; opacity: 1;"/><path class="sankey-link" d="M20,65.02581937029055C270,65.02581937029055 270,210.74987457883125 520,210.74987457883125L520,211.02541026967643C270,211.02541026967643 270,65.30135506113572 20,65.30135506113572Z" style="stroke: rgb(222, 143, 5); stroke-opacity: 1; fill: rgb(222, 143, 5); fill-opacity: 1; stroke-width: 1; opacity: 1;"/><path class="sankey-link" d="M20,60.747816002819114C270,60.747816002819114 270,91.08076850373469 520,91.08076850373469L520,92.06241446297973C270,92.06241446297973 270,61.72946196206416 20,61.72946196206416Z" style="stroke: rgb(222, 143, 5); stroke-opacity: 1; fill: rgb(222, 143, 5); fill-opacity: 1; stroke-width: 1; opacity: 1;"/><path class="sankey-link" d="M20,65.30135506113572C270,65.30135506113572 270,233.4399690928111 520,233.4399690928111L520,235.92258255796014C270,235.92258255796014 270,67.78396852628475 20,67.78396852628475Z" style="stroke: rgb(68, 68, 68); stroke-opacity: 1; fill: rgb(222, 143, 5); fill-opacity: 1; stroke-width: 0; opacity: 1;"/><path class="sankey-link" d="M20,26.803434798402854C270,26.803434798402854 270,4.934608264035724 520,4.934608264035724L520,5.0106181278254365C270,5.0106181278254365 270,26.87944466219257 20,26.87944466219257Z" style="stroke: rgb(2, 158, 115); stroke-opacity: 1; fill: rgb(2, 158, 115); fill-opacity: 1; stroke-width: 1; opacity: 1;"/><path class="sankey-link" d="M20,26.879444662192565C270,26.879444662192565 270,21.145056740587105 520,21.145056740587105L520,21.27217186180246C270,21.27217186180246 270,27.00655978340792 20,27.00655978340792Z" style="stroke: rgb(2, 158, 115); stroke-opacity: 1; fill: rgb(2, 158, 115); fill-opacity: 1; stroke-width: 1; opacity: 1;"/><path class="sankey-link" d="M20,27.00655978340792C270,27.00655978340792 270,41.88723511101149 520,41.88723511101149L520,49.8244065221362C270,49.8244065221362 270,34.943731194532624 20,34.943731194532624Z" style="stroke: rgb(68, 68, 68); stroke-opacity: 1; fill: rgb(2, 158, 115); fill-opacity: 1; stroke-width: 0; opacity: 1;"/><path class="sankey-link" d="M20,36.15464692137998C270,36.15464692137998 270,152.18466371922196 520,152.18466371922196L520,153.27867483781748C270,153.27867483781748 270,37.24865803997551 20,37.24865803997551Z" style="stroke: rgb(68, 68, 68); stroke-opacity: 1; fill: rgb(2, 158, 115); fill-opacity: 1; stroke-width: 0; opacity: 1;"/><path class="sankey-link" d="M20,37.2486580399755C270,37.2486580399755 270,193.7432043662056 520,193.7432043662056L520,193.8250824736183C270,193.8250824736183 270,37.330536147388194 20,37.330536147388194Z" style="stroke: rgb(2, 158, 115); stroke-opacity: 1; fill: rgb(2, 158, 115); fill-opacity: 1; stroke-width: 1; opacity: 1;"/><path class="sankey-link" d="M20,35.515529488276165C270,35.515529488276165 270,116.83020746873777 520,116.83020746873777L520,117.46932490184159C270,117.46932490184159 270,36.154646921379985 20,36.154646921379985Z" style="stroke: rgb(2, 158, 115); stroke-opacity: 1; fill: rgb(2, 158, 115); fill-opacity: 1; stroke-width: 1; opacity: 1;"/><path class="sankey-link" d="M20,39.42934730770383C270,39.42934730770383 270,309.36952958048846 520,309.36952958048846L520,309.64075930056015C270,309.64075930056015 270,39.700577027775516 20,39.700577027775516Z" style="stroke: rgb(2, 158, 115); stroke-opacity: 1; fill: rgb(2, 158, 115); fill-opacity: 1; stroke-width: 1; opacity: 1;"/><path class="sankey-link" d="M20,37.33053614738819C270,37.33053614738819 270,210.5878270573124 520,210.5878270573124L520,210.74987457883125C270,210.74987457883125 270,37.49258366890702 20,37.49258366890702Z" style="stroke: rgb(2, 158, 115); stroke-opacity: 1; fill: rgb(2, 158, 115); fill-opacity: 1; stroke-width: 1; opacity: 1;"/><path class="sankey-link" d="M20,34.943731194532624C270,34.943731194532624 270,90.50897020999115 520,90.50897020999115L520,91.08076850373469C270,91.08076850373469 270,35.515529488276165 20,35.515529488276165Z" style="stroke: rgb(2, 158, 115); stroke-opacity: 1; fill: rgb(2, 158, 115); fill-opacity: 1; stroke-width: 1; opacity: 1;"/><path class="sankey-link" d="M20,37.492583668907024C270,37.492583668907024 270,231.5032054540143 520,231.5032054540143L520,233.43996909281114C270,233.43996909281114 270,39.42934730770383 20,39.42934730770383Z" style="stroke: rgb(68, 68, 68); stroke-opacity: 1; fill: rgb(2, 158, 115); fill-opacity: 1; stroke-width: 0; opacity: 1;"/><path class="sankey-link" d="M20,150.06776479715322C270,150.06776479715322 270,5.460275246540018 520,5.460275246540018L520,5.535011683043196C270,5.535011683043196 270,150.14250123365642 20,150.14250123365642Z" style="stroke: rgb(213, 94, 0); stroke-opacity: 1; fill: rgb(213, 94, 0); fill-opacity: 1; stroke-width: 1; opacity: 1;"/><path class="sankey-link" d="M20,150.1425012336564C270,150.1425012336564 270,24.46280045979066 520,24.46280045979066L520,24.545733591763966C270,24.545733591763966 270,150.22543436562967 20,150.22543436562967Z" style="stroke: rgb(213, 94, 0); stroke-opacity: 1; fill: rgb(213, 94, 0); fill-opacity: 1; stroke-width: 1; opacity: 1;"/><path class="sankey-link" d="M20,150.2254343656297C270,150.2254343656297 270,61.7652551294538 520,61.7652551294538L520,62.772237088764406C270,62.772237088764406 270,151.23241632494032 20,151.23241632494032Z" style="stroke: rgb(68, 68, 68); stroke-opacity: 1; fill: rgb(213, 94, 0); fill-opacity: 1; stroke-width: 0; opacity: 1;"/><path class="sankey-link" d="M20,152.10267252082596C270,152.10267252082596 270,160.07503413211666 520,160.07503413211666L520,164.92844349850904C270,164.92844349850904 270,156.95608188721835 20,156.95608188721835Z" style="stroke: rgb(68, 68, 68); stroke-opacity: 1; fill: rgb(213, 94, 0); fill-opacity: 1; stroke-width: 0; opacity: 1;"/><path class="sankey-link" d="M20,156.95608188721837C270,156.95608188721837 270,194.47313790754708 520,194.47313790754708L520,194.53858439793743C270,194.53858439793743 270,157.02152837760872 20,157.02152837760872Z" style="stroke: rgb(213, 94, 0); stroke-opacity: 1; fill: rgb(213, 94, 0); fill-opacity: 1; stroke-width: 1; opacity: 1;"/><path class="sankey-link" d="M20,151.6311344429316C270,151.6311344429316 270,126.5535574378415 520,126.5535574378415L520,127.02509551573587C270,127.02509551573587 270,152.10267252082596 20,152.10267252082596Z" style="stroke: rgb(213, 94, 0); stroke-opacity: 1; fill: rgb(213, 94, 0); fill-opacity: 1; stroke-width: 1; opacity: 1;"/><path class="sankey-link" d="M20,159.02702246877632C270,159.02702246877632 270,310.7558208346907 520,310.7558208346907L520,310.9463744303367C270,310.9463744303367 270,159.21757606442233 20,159.21757606442233Z" style="stroke: rgb(213, 94, 0); stroke-opacity: 1; fill: rgb(213, 94, 0); fill-opacity: 1; stroke-width: 1; opacity: 1;"/><path class="sankey-link" d="M20,157.02152837760872C270,157.02152837760872 270,211.85563100921712 520,211.85563100921712L520,212.1841199255639C270,212.1841199255639 270,157.3500172939555 20,157.3500172939555Z" style="stroke: rgb(213, 94, 0); stroke-opacity: 1; fill: rgb(213, 94, 0); fill-opacity: 1; stroke-width: 1; opacity: 1;"/><path class="sankey-link" d="M20,151.2324163249403C270,151.2324163249403 270,97.51687551531768 520,97.51687551531768L520,97.91559363330899C270,97.91559363330899 270,151.63113444293163 20,151.63113444293163Z" style="stroke: rgb(213, 94, 0); stroke-opacity: 1; fill: rgb(213, 94, 0); fill-opacity: 1; stroke-width: 1; opacity: 1;"/><path class="sankey-link" d="M20,157.3500172939555C270,157.3500172939555 270,243.04045029784095 520,243.04045029784095L520,244.7174554726618C270,244.7174554726618 270,159.02702246877635 20,159.02702246877635Z" style="stroke: rgb(68, 68, 68); stroke-opacity: 1; fill: rgb(213, 94, 0); fill-opacity: 1; stroke-width: 0; opacity: 1;"/><path class="sankey-link" d="M20,134.25913482278847C270,134.25913482278847 270,5.448748411992645 520,5.448748411992645L520,5.460275246540018C270,5.460275246540018 270,134.27066165733586 20,134.27066165733586Z" style="stroke: rgb(204, 120, 188); stroke-opacity: 1; fill: rgb(204, 120, 188); fill-opacity: 1; stroke-width: 1; opacity: 1;"/><path class="sankey-link" d="M20,134.27066165733584C270,134.27066165733584 270,24.45637519387534 520,24.45637519387534L520,24.462800459790664C270,24.462800459790664 270,134.27708692325115 20,134.27708692325115Z" style="stroke: rgb(204, 120, 188); stroke-opacity: 1; fill: rgb(204, 120, 188); fill-opacity: 1; stroke-width: 1; opacity: 1;"/><path class="sankey-link" d="M20,134.27708692325115C270,134.27708692325115 270,61.54483930135714 520,61.54483930135714L520,61.765255129453806C270,61.765255129453806 270,134.49750275134778 20,134.49750275134778Z" style="stroke: rgb(204, 120, 188); stroke-opacity: 1; fill: rgb(204, 120, 188); fill-opacity: 1; stroke-width: 1; opacity: 1;"/><path class="sankey-link" d="M20,134.6387783563437C270,134.6387783563437 270,159.97824379861456 520,159.97824379861456L520,160.07503413211666C270,160.07503413211666 270,134.7355686898458 20,134.7355686898458Z" style="stroke: rgb(204, 120, 188); stroke-opacity: 1; fill: rgb(204, 120, 188); fill-opacity: 1; stroke-width: 1; opacity: 1;"/><path class="sankey-link" d="M20,134.7355686898458C270,134.7355686898458 270,194.38866660840284 520,194.38866660840284L520,194.47313790754708C270,194.47313790754708 270,134.82003998899003 20,134.82003998899003Z" style="stroke: rgb(204, 120, 188); stroke-opacity: 1; fill: rgb(204, 120, 188); fill-opacity: 1; stroke-width: 1; opacity: 1;"/><path class="sankey-link" d="M20,134.53898670381994C270,134.53898670381994 270,126.45376578531776 520,126.45376578531776L520,126.5535574378415C270,126.5535574378415 270,134.63877835634366 20,134.63877835634366Z" style="stroke: rgb(204, 120, 188); stroke-opacity: 1; fill: rgb(204, 120, 188); fill-opacity: 1; stroke-width: 1; opacity: 1;"/><path class="sankey-link" d="M20,135.0479935523163C270,135.0479935523163 270,310.73604958985385 520,310.73604958985385L520,310.7558208346907C270,310.7558208346907 270,135.0677647971532 20,135.0677647971532Z" style="stroke: rgb(204, 120, 188); stroke-opacity: 1; fill: rgb(204, 120, 188); fill-opacity: 1; stroke-width: 1; opacity: 1;"/><path class="sankey-link" d="M20,134.82003998899003C270,134.82003998899003 270,211.76187396727943 520,211.76187396727943L520,211.85563100921712C270,211.85563100921712 270,134.91379703092773 20,134.91379703092773Z" style="stroke: rgb(204, 120, 188); stroke-opacity: 1; fill: rgb(204, 120, 188); fill-opacity: 1; stroke-width: 1; opacity: 1;"/><path class="sankey-link" d="M20,134.4975027513478C270,134.4975027513478 270,97.47539156284556 520,97.47539156284556L520,97.5168755153177C270,97.5168755153177 270,134.53898670381992 20,134.53898670381992Z" style="stroke: rgb(204, 120, 188); stroke-opacity: 1; fill: rgb(204, 120, 188); fill-opacity: 1; stroke-width: 1; opacity: 1;"/><path class="sankey-link" d="M20,134.91379703092773C270,134.91379703092773 270,242.90625377645236 520,242.90625377645236L520,243.04045029784098C270,243.04045029784098 270,135.04799355231634 20,135.04799355231634Z" style="stroke: rgb(204, 120, 188); stroke-opacity: 1; fill: rgb(204, 120, 188); fill-opacity: 1; stroke-width: 1; opacity: 1;"/><path class="sankey-link" d="M20,251.89060233351188C270,251.89060233351188 270,5.92199250524563 520,5.92199250524563L520,5.922516306610158C270,5.922516306610158 270,251.8911261348764 20,251.8911261348764Z" style="stroke: rgb(202, 145, 97); stroke-opacity: 1; fill: rgb(202, 145, 97); fill-opacity: 1; stroke-width: 1; opacity: 1;"/><path class="sankey-link" d="M20,251.8911261348764C270,251.8911261348764 270,25.2250783260346 520,25.2250783260346L520,25.226331469927253C270,25.226331469927253 270,251.89237927876906 20,251.89237927876906Z" style="stroke: rgb(202, 145, 97); stroke-opacity: 1; fill: rgb(202, 145, 97); fill-opacity: 1; stroke-width: 1; opacity: 1;"/><path class="sankey-link" d="M20,251.89237927876906C270,251.89237927876906 270,72.3323470826833 520,72.3323470826833L520,72.34265929246934C270,72.34265929246934 270,251.9026914885551 20,251.9026914885551Z" style="stroke: rgb(202, 145, 97); stroke-opacity: 1; fill: rgb(202, 145, 97); fill-opacity: 1; stroke-width: 1; opacity: 1;"/><path class="sankey-link" d="M20,251.9220290194592C270,251.9220290194592 270,175.22369516008285 520,175.22369516008285L520,175.2331979909543C270,175.2331979909543 270,251.93153185033063 20,251.93153185033063Z" style="stroke: rgb(202, 145, 97); stroke-opacity: 1; fill: rgb(202, 145, 97); fill-opacity: 1; stroke-width: 1; opacity: 1;"/><path class="sankey-link" d="M20,251.9315318503306C270,251.9315318503306 270,195.12001113934727 520,195.12001113934727L520,195.12063872818337C270,195.12063872818337 270,251.9321594391667 20,251.9321594391667Z" style="stroke: rgb(202, 145, 97); stroke-opacity: 1; fill: rgb(202, 145, 97); fill-opacity: 1; stroke-width: 1; opacity: 1;"/><path class="sankey-link" d="M20,251.90810303945773C270,251.90810303945773 270,133.79740700725472 520,133.79740700725472L520,133.8113329872562C270,133.8113329872562 270,251.92202901945922 20,251.92202901945922Z" style="stroke: rgb(202, 145, 97); stroke-opacity: 1; fill: rgb(202, 145, 97); fill-opacity: 1; stroke-width: 1; opacity: 1;"/><path class="sankey-link" d="M20,251.95088047217618C270,251.95088047217618 270,319.2563377742807 520,319.2563377742807L520,319.258139355161C270,319.258139355161 270,251.95268205305646 20,251.95268205305646Z" style="stroke: rgb(202, 145, 97); stroke-opacity: 1; fill: rgb(202, 145, 97); fill-opacity: 1; stroke-width: 1; opacity: 1;"/><path class="sankey-link" d="M20,251.9321594391667C270,251.9321594391667 270,213.59977178631402 520,213.59977178631402L520,213.60151330904517C270,213.60151330904517 270,251.93390096189785 20,251.93390096189785Z" style="stroke: rgb(202, 145, 97); stroke-opacity: 1; fill: rgb(202, 145, 97); fill-opacity: 1; stroke-width: 1; opacity: 1;"/><path class="sankey-link" d="M20,251.9026914885551C270,251.9026914885551 270,100.43737833752854 520,100.43737833752854L520,100.44278988843118C270,100.44278988843118 270,251.90810303945773 20,251.90810303945773Z" style="stroke: rgb(202, 145, 97); stroke-opacity: 1; fill: rgb(202, 145, 97); fill-opacity: 1; stroke-width: 1; opacity: 1;"/><path class="sankey-link" d="M20,251.93390096189788C270,251.93390096189788 270,266.86765638794327 520,266.86765638794327L520,266.8846358982215C270,266.8846358982215 270,251.95088047217618 20,251.95088047217618Z" style="stroke: rgb(202, 145, 97); stroke-opacity: 1; fill: rgb(202, 145, 97); fill-opacity: 1; stroke-width: 1; opacity: 1;"/><path class="sankey-link" d="M20,174.21757606442233C270,174.21757606442233 270,5.535011683043196 520,5.535011683043196L520,5.92199250524563C270,5.92199250524563 270,174.60455688662475 20,174.60455688662475Z" style="stroke: rgb(251, 175, 228); stroke-opacity: 1; fill: rgb(251, 175, 228); fill-opacity: 1; stroke-width: 1; opacity: 1;"/><path class="sankey-link" d="M20,174.60455688662478C270,174.60455688662478 270,24.545733591763966 520,24.545733591763966L520,25.225078326034595C270,25.225078326034595 270,175.2839016208954 20,175.2839016208954Z" style="stroke: rgb(251, 175, 228); stroke-opacity: 1; fill: rgb(251, 175, 228); fill-opacity: 1; stroke-width: 1; opacity: 1;"/><path class="sankey-link" d="M20,175.28390162089542C270,175.28390162089542 270,62.7722370887644 520,62.7722370887644L520,72.3323470826833C270,72.3323470826833 270,184.84401161481432 20,184.84401161481432Z" style="stroke: rgb(68, 68, 68); stroke-opacity: 1; fill: rgb(251, 175, 228); fill-opacity: 1; stroke-width: 0; opacity: 1;"/><path class="sankey-link" d="M20,194.1381078105527C270,194.1381078105527 270,164.92844349850907 520,164.92844349850907L520,175.22369516008285C270,175.22369516008285 270,204.43335947212648 20,204.43335947212648Z" style="stroke: rgb(68, 68, 68); stroke-opacity: 1; fill: rgb(251, 175, 228); fill-opacity: 1; stroke-width: 0; opacity: 1;"/><path class="sankey-link" d="M20,204.43335947212648C270,204.43335947212648 270,194.53858439793743 520,194.53858439793743L520,195.12001113934724C270,195.12001113934724 270,205.0147862135363 20,205.0147862135363Z" style="stroke: rgb(251, 175, 228); stroke-opacity: 1; fill: rgb(251, 175, 228); fill-opacity: 1; stroke-width: 1; opacity: 1;"/><path class="sankey-link" d="M20,187.36579631903385C270,187.36579631903385 270,127.02509551573587 520,127.02509551573587L520,133.79740700725472C270,133.79740700725472 270,194.1381078105527 20,194.1381078105527Z" style="stroke: rgb(68, 68, 68); stroke-opacity: 1; fill: rgb(251, 175, 228); fill-opacity: 1; stroke-width: 0; opacity: 1;"/><path class="sankey-link" d="M20,228.58063898956797C270,228.58063898956797 270,310.94637443033673 520,310.94637443033673L520,319.2563377742807C270,319.2563377742807 270,236.89060233351196 20,236.89060233351196Z" style="stroke: rgb(68, 68, 68); stroke-opacity: 1; fill: rgb(251, 175, 228); fill-opacity: 1; stroke-width: 0; opacity: 1;"/><path class="sankey-link" d="M20,205.01478621353633C270,205.01478621353633 270,212.1841199255639 520,212.1841199255639L520,213.59977178631402C270,213.59977178631402 270,206.43043807428646 20,206.43043807428646Z" style="stroke: rgb(68, 68, 68); stroke-opacity: 1; fill: rgb(251, 175, 228); fill-opacity: 1; stroke-width: 0; opacity: 1;"/><path class="sankey-link" d="M20,184.84401161481432C270,184.84401161481432 270,97.915593633309 520,97.915593633309L520,100.43737833752853C270,100.43737833752853 270,187.36579631903388 20,187.36579631903388Z" style="stroke: rgb(68, 68, 68); stroke-opacity: 1; fill: rgb(251, 175, 228); fill-opacity: 1; stroke-width: 0; opacity: 1;"/><path class="sankey-link" d="M20,206.43043807428646C270,206.43043807428646 270,244.71745547266178 520,244.71745547266178L520,266.86765638794327C270,266.86765638794327 270,228.58063898956797 20,228.58063898956797Z" style="stroke: rgb(68, 68, 68); stroke-opacity: 1; fill: rgb(251, 175, 228); fill-opacity: 1; stroke-width: 0; opacity: 1;"/><path class="sankey-link" d="M20,266.9526820530565C270,266.9526820530565 270,5.922516306610158 520,5.922516306610158L520,5.958405668659825C270,5.958405668659825 270,266.9885714151062 20,266.9885714151062Z" style="stroke: rgb(148, 148, 148); stroke-opacity: 1; fill: rgb(148, 148, 148); fill-opacity: 1; stroke-width: 1; opacity: 1;"/><path class="sankey-link" d="M20,266.98857141510615C270,266.98857141510615 270,25.226331469927256 520,25.226331469927256L520,25.243355928468834C270,25.243355928468834 270,267.0055958736477 20,267.0055958736477Z" style="stroke: rgb(148, 148, 148); stroke-opacity: 1; fill: rgb(148, 148, 148); fill-opacity: 1; stroke-width: 1; opacity: 1;"/><path class="sankey-link" d="M20,267.00559587364774C270,267.00559587364774 270,72.34265929246932 520,72.34265929246932L520,72.82019595604628C270,72.82019595604628 270,267.4831325372247 20,267.4831325372247Z" style="stroke: rgb(148, 148, 148); stroke-opacity: 1; fill: rgb(148, 148, 148); fill-opacity: 1; stroke-width: 1; opacity: 1;"/><path class="sankey-link" d="M20,267.78472441557903C270,267.78472441557903 270,175.23319799095427 520,175.23319799095427L520,175.7819369319715C270,175.7819369319715 270,268.3334633565962 20,268.3334633565962Z" style="stroke: rgb(148, 148, 148); stroke-opacity: 1; fill: rgb(148, 148, 148); fill-opacity: 1; stroke-width: 1; opacity: 1;"/><path class="sankey-link" d="M20,268.33346335659627C270,268.33346335659627 270,195.12063872818337 520,195.12063872818337L520,195.18990891771332C270,195.18990891771332 270,268.40273354612617 20,268.40273354612617Z" style="stroke: rgb(148, 148, 148); stroke-opacity: 1; fill: rgb(148, 148, 148); fill-opacity: 1; stroke-width: 1; opacity: 1;"/><path class="sankey-link" d="M20,267.62343375841306C270,267.62343375841306 270,133.81133298725618 520,133.81133298725618L520,133.97262364442216C270,133.97262364442216 270,267.78472441557903 20,267.78472441557903Z" style="stroke: rgb(148, 148, 148); stroke-opacity: 1; fill: rgb(148, 148, 148); fill-opacity: 1; stroke-width: 1; opacity: 1;"/><path class="sankey-link" d="M20,269.4437002424486C270,269.4437002424486 270,319.258139355161 520,319.258139355161L520,319.3079987425033C270,319.3079987425033 270,269.49355962979087 20,269.49355962979087Z" style="stroke: rgb(148, 148, 148); stroke-opacity: 1; fill: rgb(148, 148, 148); fill-opacity: 1; stroke-width: 1; opacity: 1;"/><path class="sankey-link" d="M20,268.4027335461262C270,268.4027335461262 270,213.6015133090452 520,213.6015133090452L520,214.18321417294558C270,214.18321417294558 270,268.98443441002655 20,268.98443441002655Z" style="stroke: rgb(148, 148, 148); stroke-opacity: 1; fill: rgb(148, 148, 148); fill-opacity: 1; stroke-width: 1; opacity: 1;"/><path class="sankey-link" d="M20,267.4831325372247C270,267.4831325372247 270,100.4427898884312 520,100.4427898884312L520,100.58309110961956C270,100.58309110961956 270,267.62343375841306 20,267.62343375841306Z" style="stroke: rgb(148, 148, 148); stroke-opacity: 1; fill: rgb(148, 148, 148); fill-opacity: 1; stroke-width: 1; opacity: 1;"/><path class="sankey-link" d="M20,268.9844344100266C270,268.9844344100266 270,266.8846358982216 520,266.8846358982216L520,267.3439017306436C270,267.3439017306436 270,269.44370024244864 20,269.44370024244864Z" style="stroke: rgb(148, 148, 148); stroke-opacity: 1; fill: rgb(148, 148, 148); fill-opacity: 1; stroke-width: 1; opacity: 1;"/><path class="sankey-link" d="M20,83.06639531140684C270,83.06639531140684 270,5.1403199181463135 520,5.1403199181463135L520,5.448748411992644C270,5.448748411992644 270,83.37482380525316 20,83.37482380525316Z" style="stroke: rgb(236, 225, 51); stroke-opacity: 1; fill: rgb(236, 225, 51); fill-opacity: 1; stroke-width: 1; opacity: 1;"/><path class="sankey-link" d="M20,83.37482380525317C270,83.37482380525317 270,23.852192352585092 520,23.852192352585092L520,24.45637519387534C270,24.45637519387534 270,83.97900664654343 20,83.97900664654343Z" style="stroke: rgb(236, 225, 51); stroke-opacity: 1; fill: rgb(236, 225, 51); fill-opacity: 1; stroke-width: 1; opacity: 1;"/><path class="sankey-link" d="M20,83.97900664654341C270,83.97900664654341 270,53.161923216076275 520,53.161923216076275L520,61.54483930135714C270,61.54483930135714 270,92.36192273182428 20,92.36192273182428Z" style="stroke: rgb(68, 68, 68); stroke-opacity: 1; fill: rgb(236, 225, 51); fill-opacity: 1; stroke-width: 0; opacity: 1;"/><path class="sankey-link" d="M20,105.43596038222141C270,105.43596038222141 270,155.0689614017151 520,155.0689614017151L520,159.97824379861456C270,159.97824379861456 270,110.34524277912088 20,110.34524277912088Z" style="stroke: rgb(68, 68, 68); stroke-opacity: 1; fill: rgb(236, 225, 51); fill-opacity: 1; stroke-width: 0; opacity: 1;"/><path class="sankey-link" d="M20,110.34524277912088C270,110.34524277912088 270,194.0077729850022 520,194.0077729850022L520,194.38866660840284C270,194.38866660840284 270,110.72613640252153 20,110.72613640252153Z" style="stroke: rgb(236, 225, 51); stroke-opacity: 1; fill: rgb(236, 225, 51); fill-opacity: 1; stroke-width: 1; opacity: 1;"/><path class="sankey-link" d="M20,97.7748998316901C270,97.7748998316901 270,118.79270523478645 520,118.79270523478645L520,126.45376578531774C270,126.45376578531774 270,105.4359603822214 20,105.4359603822214Z" style="stroke: rgb(68, 68, 68); stroke-opacity: 1; fill: rgb(236, 225, 51); fill-opacity: 1; stroke-width: 0; opacity: 1;"/><path class="sankey-link" d="M20,118.44627131861675C270,118.44627131861675 270,309.9231860856822 520,309.9231860856822L520,310.73604958985385C270,310.73604958985385 270,119.25913482278843 20,119.25913482278843Z" style="stroke: rgb(236, 225, 51); stroke-opacity: 1; fill: rgb(236, 225, 51); fill-opacity: 1; stroke-width: 1; opacity: 1;"/><path class="sankey-link" d="M20,110.72613640252153C270,110.72613640252153 270,211.02541026967643 520,211.02541026967643L520,211.7618739672794C270,211.7618739672794 270,111.46260010012453 20,111.46260010012453Z" style="stroke: rgb(236, 225, 51); stroke-opacity: 1; fill: rgb(236, 225, 51); fill-opacity: 1; stroke-width: 1; opacity: 1;"/><path class="sankey-link" d="M20,92.36192273182428C270,92.36192273182428 270,92.06241446297973 520,92.06241446297973L520,97.47539156284556C270,97.47539156284556 270,97.7748998316901 20,97.7748998316901Z" style="stroke: rgb(68, 68, 68); stroke-opacity: 1; fill: rgb(236, 225, 51); fill-opacity: 1; stroke-width: 0; opacity: 1;"/><path class="sankey-link" d="M20,111.46260010012452C270,111.46260010012452 270,235.92258255796014 520,235.92258255796014L520,242.9062537764524C270,242.9062537764524 270,118.44627131861674 20,118.44627131861674Z" style="stroke: rgb(68, 68, 68); stroke-opacity: 1; fill: rgb(236, 225, 51); fill-opacity: 1; stroke-width: 0; opacity: 1;"/><path class="sankey-link" d="M20,284.4935596297908C270,284.4935596297908 270,5.958405668659824 520,5.958405668659824L520,6.064478208470788C270,6.064478208470788 270,284.59963216960176 20,284.59963216960176Z" style="stroke: rgb(86, 180, 233); stroke-opacity: 1; fill: rgb(86, 180, 233); fill-opacity: 1; stroke-width: 1; opacity: 1;"/><path class="sankey-link" d="M20,284.59963216960176C270,284.59963216960176 270,25.243355928468834 520,25.243355928468834L520,25.44419775429267C270,25.44419775429267 270,284.80047399542565 20,284.80047399542565Z" style="stroke: rgb(86, 180, 233); stroke-opacity: 1; fill: rgb(86, 180, 233); fill-opacity: 1; stroke-width: 1; opacity: 1;"/><path class="sankey-link" d="M20,284.8004739954256C270,284.8004739954256 270,72.82019595604628 520,72.82019595604628L520,75.18518325442794C270,75.18518325442794 270,287.1654612938073 20,287.1654612938073Z" style="stroke: rgb(68, 68, 68); stroke-opacity: 1; fill: rgb(86, 180, 233); fill-opacity: 1; stroke-width: 0; opacity: 1;"/><path class="sankey-link" d="M20,289.0770841414886C270,289.0770841414886 270,175.78193693197147 520,175.78193693197147L520,178.62203004878324C270,178.62203004878324 270,291.9171772583004 20,291.9171772583004Z" style="stroke: rgb(68, 68, 68); stroke-opacity: 1; fill: rgb(86, 180, 233); fill-opacity: 1; stroke-width: 0; opacity: 1;"/><path class="sankey-link" d="M20,291.9171772583004C270,291.9171772583004 270,195.18990891771332 520,195.18990891771332L520,195.32590344662938C270,195.32590344662938 270,292.05317178721646 20,292.05317178721646Z" style="stroke: rgb(86, 180, 233); stroke-opacity: 1; fill: rgb(86, 180, 233); fill-opacity: 1; stroke-width: 1; opacity: 1;"/><path class="sankey-link" d="M20,287.90473583579984C270,287.90473583579984 270,133.97262364442213 520,133.97262364442213L520,135.14497195011091C270,135.14497195011091 270,289.07708414148857 20,289.07708414148857Z" style="stroke: rgb(68, 68, 68); stroke-opacity: 1; fill: rgb(86, 180, 233); fill-opacity: 1; stroke-width: 0; opacity: 1;"/><path class="sankey-link" d="M20,319.30799874250306C270,319.30799874250306 270,319.3079987425033 520,319.3079987425033L520,320C270,320 270,319.9999999999998 20,319.9999999999998Z" style="stroke: rgb(86, 180, 233); stroke-opacity: 1; fill: rgb(86, 180, 233); fill-opacity: 1; stroke-width: 1; opacity: 1;"/><path class="sankey-link" d="M20,292.05317178721646C270,292.05317178721646 270,214.18321417294555 520,214.18321417294555L520,214.64343123451414C270,214.64343123451414 270,292.513388848785 20,292.513388848785Z" style="stroke: rgb(86, 180, 233); stroke-opacity: 1; fill: rgb(86, 180, 233); fill-opacity: 1; stroke-width: 1; opacity: 1;"/><path class="sankey-link" d="M20,287.16546129380725C270,287.16546129380725 270,100.58309110961956 520,100.58309110961956L520,101.32236565161215C270,101.32236565161215 270,287.90473583579984 20,287.90473583579984Z" style="stroke: rgb(86, 180, 233); stroke-opacity: 1; fill: rgb(86, 180, 233); fill-opacity: 1; stroke-width: 1; opacity: 1;"/><path class="sankey-link" d="M20,292.51338884878504C270,292.51338884878504 270,267.34390173064355 520,267.34390173064355L520,294.1385116243616C270,294.1385116243616 270,319.3079987425031 20,319.3079987425031Z" style="stroke: rgb(68, 68, 68); stroke-opacity: 1; fill: rgb(86, 180, 233); fill-opacity: 1; stroke-width: 0; opacity: 1;"/></g><g class="sankey-node-set" style="cursor: move;"><g class="sankey-node" transform="translate(0.000,-0.000)" style="opacity: 1;"><rect class="node-rect" width="20" height="11.803434798403138" style="stroke-width: 0.5; stroke: rgb(0, 0, 0); stroke-opacity: 1; fill: rgb(211, 211, 211); fill-opacity: 1;"/><text class="node-label" data-notex="1" x="0" y="0" text-anchor="start" transform="translate(23.25,9.40171739920157)" style="cursor: default; font-family: 'Open Sans', verdana, arial, sans-serif; font-size: 10px; fill: rgb(42, 63, 95); fill-opacity: 1; white-space: pre; text-shadow: white 1px 1px 1px, white -1px -1px 1px, white 1px -1px 1px, white -1px 1px 1px;">Africa (14 Mt)</text></g><g class="sankey-node" transform="translate(0.000,54.701)" style="opacity: 1;"><rect class="node-rect" width="20" height="13.36581828363132" style="stroke-width: 0.5; stroke: rgb(0, 0, 0); stroke-opacity: 1; fill: rgb(211, 211, 211); fill-opacity: 1;"/><text class="node-label" data-notex="1" x="0" y="0" text-anchor="start" transform="translate(23.25,10.18290914181566)" style="cursor: default; font-family: 'Open Sans', verdana, arial, sans-serif; font-size: 10px; fill: rgb(42, 63, 95); fill-opacity: 1; white-space: pre; text-shadow: white 1px 1px 1px, white -1px -1px 1px, white 1px -1px 1px, white -1px 1px 1px;">Australia (16 Mt)</text></g><g class="sankey-node" transform="translate(0.000,26.803)" style="opacity: 1;"><rect class="node-rect" width="20" height="12.897142229372662" style="stroke-width: 0.5; stroke: rgb(0, 0, 0); stroke-opacity: 1; fill: rgb(211, 211, 211); fill-opacity: 1;"/><text class="node-label" data-notex="1" x="0" y="0" text-anchor="start" transform="translate(23.25,9.948571114686331)" style="cursor: default; font-family: 'Open Sans', verdana, arial, sans-serif; font-size: 10px; fill: rgb(42, 63, 95); fill-opacity: 1; white-space: pre; text-shadow: white 1px 1px 1px, white -1px -1px 1px, white 1px -1px 1px, white -1px 1px 1px;">China (15 Mt)</text></g><g class="sankey-node" transform="translate(0.000,150.068)" style="opacity: 1;"><rect class="node-rect" width="20" height="9.149811267269115" style="stroke-width: 0.5; stroke: rgb(0, 0, 0); stroke-opacity: 1; fill: rgb(211, 211, 211); fill-opacity: 1;"/><text class="node-label" data-notex="1" x="0" y="0" text-anchor="start" transform="translate(23.25,8.074905633634557)" style="cursor: default; font-family: 'Open Sans', verdana, arial, sans-serif; font-size: 10px; fill: rgb(42, 63, 95); fill-opacity: 1; white-space: pre; text-shadow: white 1px 1px 1px, white -1px -1px 1px, white 1px -1px 1px, white -1px 1px 1px;">Europe (11 Mt)</text></g><g class="sankey-node" transform="translate(0.000,134.259)" style="opacity: 1;"><rect class="node-rect" width="20" height="0.8086299743647487" style="stroke-width: 0.5; stroke: rgb(0, 0, 0); stroke-opacity: 1; fill: rgb(211, 211, 211); fill-opacity: 1;"/><text class="node-label" data-notex="1" x="0" y="0" text-anchor="start" transform="translate(23.25,3.9043149871823744)" style="cursor: default; font-family: 'Open Sans', verdana, arial, sans-serif; font-size: 10px; fill: rgb(42, 63, 95); fill-opacity: 1; white-space: pre; text-shadow: white 1px 1px 1px, white -1px -1px 1px, white 1px -1px 1px, white -1px 1px 1px;">India (0 Mt)</text></g><g class="sankey-node" transform="translate(0.000,251.891)" style="opacity: 1;"><rect class="node-rect" width="20" height="0.5" style="stroke-width: 0.5; stroke: rgb(0, 0, 0); stroke-opacity: 1; fill: rgb(211, 211, 211); fill-opacity: 1;"/><text class="node-label" data-notex="1" x="0" y="0" text-anchor="start" transform="translate(23.25,3.75)" style="cursor: default; font-family: 'Open Sans', verdana, arial, sans-serif; font-size: 10px; fill: rgb(42, 63, 95); fill-opacity: 1; white-space: pre; text-shadow: white 1px 1px 1px, white -1px -1px 1px, white 1px -1px 1px, white -1px 1px 1px;">Japan and Korea (0 Mt)</text></g><g class="sankey-node" transform="translate(0.000,174.218)" style="opacity: 1;"><rect class="node-rect" width="20" height="62.67302626908955" style="stroke-width: 0.5; stroke: rgb(0, 0, 0); stroke-opacity: 1; fill: rgb(211, 211, 211); fill-opacity: 1;"/><text class="node-label" data-notex="1" x="0" y="0" text-anchor="start" transform="translate(23.25,34.836513134544774)" style="cursor: default; font-family: 'Open Sans', verdana, arial, sans-serif; font-size: 10px; fill: rgb(42, 63, 95); fill-opacity: 1; white-space: pre; text-shadow: white 1px 1px 1px, white -1px -1px 1px, white 1px -1px 1px, white -1px 1px 1px;">Latin America (76 Mt)</text></g><g class="sankey-node" transform="translate(0.000,266.953)" style="opacity: 1;"><rect class="node-rect" width="20" height="2.5408775767343172" style="stroke-width: 0.5; stroke: rgb(0, 0, 0); stroke-opacity: 1; fill: rgb(211, 211, 211); fill-opacity: 1;"/><text class="node-label" data-notex="1" x="0" y="0" text-anchor="start" transform="translate(23.25,4.770438788367159)" style="cursor: default; font-family: 'Open Sans', verdana, arial, sans-serif; font-size: 10px; fill: rgb(42, 63, 95); fill-opacity: 1; white-space: pre; text-shadow: white 1px 1px 1px, white -1px -1px 1px, white 1px -1px 1px, white -1px 1px 1px;">Middle East (3 Mt)</text></g><g class="sankey-node" transform="translate(0.000,83.066)" style="opacity: 1;"><rect class="node-rect" width="20" height="36.19273951138163" style="stroke-width: 0.5; stroke: rgb(0, 0, 0); stroke-opacity: 1; fill: rgb(211, 211, 211); fill-opacity: 1;"/><text class="node-label" data-notex="1" x="0" y="0" text-anchor="start" transform="translate(23.25,21.596369755690816)" style="cursor: default; font-family: 'Open Sans', verdana, arial, sans-serif; font-size: 10px; fill: rgb(42, 63, 95); fill-opacity: 1; white-space: pre; text-shadow: white 1px 1px 1px, white -1px -1px 1px, white 1px -1px 1px, white -1px 1px 1px;">Rest of Asia (44 Mt)</text></g><g class="sankey-node" transform="translate(0.000,284.494)" style="opacity: 1;"><rect class="node-rect" width="20" height="35.50644037020919" style="stroke-width: 0.5; stroke: rgb(0, 0, 0); stroke-opacity: 1; fill: rgb(211, 211, 211); fill-opacity: 1;"/><text class="node-label" data-notex="1" x="0" y="0" text-anchor="start" transform="translate(23.25,21.253220185104595)" style="cursor: default; font-family: 'Open Sans', verdana, arial, sans-serif; font-size: 10px; fill: rgb(42, 63, 95); fill-opacity: 1; white-space: pre; text-shadow: white 1px 1px 1px, white -1px -1px 1px, white 1px -1px 1px, white -1px 1px 1px;">USA and Canada (43 Mt)</text></g><g class="sankey-node" transform="translate(520.000,-0.000)" style="opacity: 1;"><rect class="node-rect" width="20" height="6.064478208471225" style="stroke-width: 0.5; stroke: rgb(0, 0, 0); stroke-opacity: 1; fill: rgb(211, 211, 211); fill-opacity: 1;"/><text class="node-label" data-notex="1" x="0" y="0" text-anchor="end" transform="translate(-3.25,6.532239104235613)" style="cursor: default; font-family: 'Open Sans', verdana, arial, sans-serif; font-size: 10px; fill: rgb(42, 63, 95); fill-opacity: 1; white-space: pre; text-shadow: white 1px 1px 1px, white -1px -1px 1px, white 1px -1px 1px, white -1px 1px 1px;">Africa (7 Mt)</text></g><g class="sankey-node" transform="translate(520.000,21.064)" style="opacity: 1;"><rect class="node-rect" width="20" height="4.379719545821871" style="stroke-width: 0.5; stroke: rgb(0, 0, 0); stroke-opacity: 1; fill: rgb(211, 211, 211); fill-opacity: 1;"/><text class="node-label" data-notex="1" x="0" y="0" text-anchor="end" transform="translate(-3.25,5.6898597729109355)" style="cursor: default; font-family: 'Open Sans', verdana, arial, sans-serif; font-size: 10px; fill: rgb(42, 63, 95); fill-opacity: 1; white-space: pre; text-shadow: white 1px 1px 1px, white -1px -1px 1px, white 1px -1px 1px, white -1px 1px 1px;">Australia (5 Mt)</text></g><g class="sankey-node" transform="translate(520.000,40.444)" style="opacity: 1;"><rect class="node-rect" width="20" height="34.74098550013542" style="stroke-width: 0.5; stroke: rgb(0, 0, 0); stroke-opacity: 1; fill: rgb(211, 211, 211); fill-opacity: 1;"/><text class="node-label" data-notex="1" x="0" y="0" text-anchor="end" transform="translate(-3.25,20.87049275006771)" style="cursor: default; font-family: 'Open Sans', verdana, arial, sans-serif; font-size: 10px; fill: rgb(42, 63, 95); fill-opacity: 1; white-space: pre; text-shadow: white 1px 1px 1px, white -1px -1px 1px, white 1px -1px 1px, white -1px 1px 1px;">China (42 Mt)</text></g><g class="sankey-node" transform="translate(520.000,150.145)" style="opacity: 1;"><rect class="node-rect" width="20" height="28.477058098672273" style="stroke-width: 0.5; stroke: rgb(0, 0, 0); stroke-opacity: 1; fill: rgb(211, 211, 211); fill-opacity: 1;"/><text class="node-label" data-notex="1" x="0" y="0" text-anchor="end" transform="translate(-3.25,17.738529049336137)" style="cursor: default; font-family: 'Open Sans', verdana, arial, sans-serif; font-size: 10px; fill: rgb(42, 63, 95); fill-opacity: 1; white-space: pre; text-shadow: white 1px 1px 1px, white -1px -1px 1px, white 1px -1px 1px, white -1px 1px 1px;">Europe (34 Mt)</text></g><g class="sankey-node" transform="translate(520.000,193.622)" style="opacity: 1;"><rect class="node-rect" width="20" height="1.7038733978461096" style="stroke-width: 0.5; stroke: rgb(0, 0, 0); stroke-opacity: 1; fill: rgb(211, 211, 211); fill-opacity: 1;"/><text class="node-label" data-notex="1" x="0" y="0" text-anchor="end" transform="translate(-3.25,4.351936698923055)" style="cursor: default; font-family: 'Open Sans', verdana, arial, sans-serif; font-size: 10px; fill: rgb(42, 63, 95); fill-opacity: 1; white-space: pre; text-shadow: white 1px 1px 1px, white -1px -1px 1px, white 1px -1px 1px, white -1px 1px 1px;">India (2 Mt)</text></g><g class="sankey-node" transform="translate(520.000,116.322)" style="opacity: 1;"><rect class="node-rect" width="20" height="18.82260629849884" style="stroke-width: 0.5; stroke: rgb(0, 0, 0); stroke-opacity: 1; fill: rgb(211, 211, 211); fill-opacity: 1;"/><text class="node-label" data-notex="1" x="0" y="0" text-anchor="end" transform="translate(-3.25,12.91130314924942)" style="cursor: default; font-family: 'Open Sans', verdana, arial, sans-serif; font-size: 10px; fill: rgb(42, 63, 95); fill-opacity: 1; white-space: pre; text-shadow: white 1px 1px 1px, white -1px -1px 1px, white 1px -1px 1px, white -1px 1px 1px;">Japan and Korea (22 Mt)</text></g><g class="sankey-node" transform="translate(520.000,309.139)" style="opacity: 1;"><rect class="node-rect" width="20" height="10.861488375638203" style="stroke-width: 0.5; stroke: rgb(0, 0, 0); stroke-opacity: 1; fill: rgb(211, 211, 211); fill-opacity: 1;"/><text class="node-label" data-notex="1" x="0" y="0" text-anchor="end" transform="translate(-3.25,8.930744187819101)" style="cursor: default; font-family: 'Open Sans', verdana, arial, sans-serif; font-size: 10px; fill: rgb(42, 63, 95); fill-opacity: 1; white-space: pre; text-shadow: white 1px 1px 1px, white -1px -1px 1px, white 1px -1px 1px, white -1px 1px 1px;">Latin America (13 Mt)</text></g><g class="sankey-node" transform="translate(520.000,210.326)" style="opacity: 1;"><rect class="node-rect" width="20" height="4.317527787884671" style="stroke-width: 0.5; stroke: rgb(0, 0, 0); stroke-opacity: 1; fill: rgb(211, 211, 211); fill-opacity: 1;"/><text class="node-label" data-notex="1" x="0" y="0" text-anchor="end" transform="translate(-3.25,5.658763893942336)" style="cursor: default; font-family: 'Open Sans', verdana, arial, sans-serif; font-size: 10px; fill: rgb(42, 63, 95); fill-opacity: 1; white-space: pre; text-shadow: white 1px 1px 1px, white -1px -1px 1px, white 1px -1px 1px, white -1px 1px 1px;">Middle East (5 Mt)</text></g><g class="sankey-node" transform="translate(520.000,90.185)" style="opacity: 1;"><rect class="node-rect" width="20" height="11.137182397184091" style="stroke-width: 0.5; stroke: rgb(0, 0, 0); stroke-opacity: 1; fill: rgb(211, 211, 211); fill-opacity: 1;"/><text class="node-label" data-notex="1" x="0" y="0" text-anchor="end" transform="translate(-3.25,9.068591198592046)" style="cursor: default; font-family: 'Open Sans', verdana, arial, sans-serif; font-size: 10px; fill: rgb(42, 63, 95); fill-opacity: 1; white-space: pre; text-shadow: white 1px 1px 1px, white -1px -1px 1px, white 1px -1px 1px, white -1px 1px 1px;">Rest of Asia (13 Mt)</text></g><g class="sankey-node" transform="translate(520.000,229.643)" style="opacity: 1;"><rect class="node-rect" width="20" height="64.49508038984771" style="stroke-width: 0.5; stroke: rgb(0, 0, 0); stroke-opacity: 1; fill: rgb(211, 211, 211); fill-opacity: 1;"/><text class="node-label" data-notex="1" x="0" y="0" text-anchor="end" transform="translate(-3.25,35.74754019492386)" style="cursor: default; font-family: 'Open Sans', verdana, arial, sans-serif; font-size: 10px; fill: rgb(42, 63, 95); fill-opacity: 1; white-space: pre; text-shadow: white 1px 1px 1px, white -1px -1px 1px, white 1px -1px 1px, white -1px 1px 1px;">USA and Canada (78 Mt)</text></g></g></g><defs id="topdefs-e9ae81"><g class="clips"/></defs><g class="layer-above"><g class="imagelayer"/><g class="shapelayer"/></g><g class="infolayer"><g class="g-gtitle"><text class="gtitle" x="35" y="50" text-anchor="start" dy="0em" style="font-family: 'Open Sans', verdana, arial, sans-serif; font-size: 14px; fill: rgb(42, 63, 95); opacity: 1; font-weight: normal; white-space: pre;">Healthcare systems consumption of non-ferous metal ores in 2013</text></g><g class="first-render"/></g></svg>