<svg class="main-svg" xmlns="http://www.w3.org/2000/svg" xmlns:xlink="http://www.w3.org/1999/xlink" width="700" height="500" viewBox="0 0 700 500"><rect x="0" y="0" width="700" height="500" style="fill: rgb(255, 255, 255); fill-opacity: 1;"/><defs id="defs-67c872"><g class="clips"/><g class="gradients"/><g class="patterns"/></defs><g class="bglayer"/><g class="layer-below"><g class="imagelayer"/><g class="shapelayer"/></g><g class="cartesianlayer"/><g class="polarlayer"/><g class="smithlayer"/><g class="ternarylayer"/><g class="geolayer"/><g class="funnelarealayer"/><g class="pielayer"/><g class="iciclelayer"/><g class="treemaplayer"/><g class="sunburstlayer"/><g class="glimages"/><g class="sankey" transform="translate(80,100)matrix(1 0 0 1 0 0)" style="box-sizing: content-box; position: absolute; left: 0px; shape-rendering: geometricPrecision; pointer-events: auto;"><g class="sankey-links" style="fill: none;"><path class="sankey-link" d="M20,106.81506411281822C270,106.81506411281822 270,97.72922503375425 520,97.72922503375425L520,100.88457410459601C270,100.88457410459601 270,109.97041318365999 20,109.97041318365999Z" style="stroke: rgb(68, 68, 68); stroke-opacity: 1; fill: rgb(1, 115, 178); fill-opacity: 1; stroke-width: 0; opacity: 1;"/><path class="sankey-link" d="M20,109.97041318365999C270,109.97041318365999 270,116.97319396520443 520,116.97319396520443L520,116.99591154349598C270,116.99591154349598 270,109.99313076195153 20,109.99313076195153Z" style="stroke: rgb(1, 115, 178); stroke-opacity: 1; fill: rgb(1, 115, 178); fill-opacity: 1; stroke-width: 1; opacity: 1;"/><path class="sankey-link" d="M20,106.37254368947359C270,106.37254368947359 270,73.71686206691292 520,73.71686206691292L520,74.15938249025756C270,74.15938249025756 270,106.81506411281822 20,106.81506411281822Z" style="stroke: rgb(1, 115, 178); stroke-opacity: 1; fill: rgb(1, 115, 178); fill-opacity: 1; stroke-width: 1; opacity: 1;"/><path class="sankey-link" d="M20,109.99313076195153C270,109.99313076195153 270,136.43445737925526 520,136.43445737925526L520,137.29283338624873C270,137.29283338624873 270,110.851506768945 20,110.851506768945Z" style="stroke: rgb(1, 115, 178); stroke-opacity: 1; fill: rgb(1, 115, 178); fill-opacity: 1; stroke-width: 1; opacity: 1;"/><path class="sankey-link" d="M20,110.85150676894501C270,110.85150676894501 270,172.88155579617995 520,172.88155579617995L520,172.94878284650792C270,172.94878284650792 270,110.91873381927299 20,110.91873381927299Z" style="stroke: rgb(1, 115, 178); stroke-opacity: 1; fill: rgb(1, 115, 178); fill-opacity: 1; stroke-width: 1; opacity: 1;"/><path class="sankey-link" d="M20,110.91873381927299C270,110.91873381927299 270,191.55943930311685 520,191.55943930311685L520,191.6863687670563C270,191.6863687670563 270,111.04566328321242 20,111.04566328321242Z" style="stroke: rgb(1, 115, 178); stroke-opacity: 1; fill: rgb(1, 115, 178); fill-opacity: 1; stroke-width: 1; opacity: 1;"/><path class="sankey-link" d="M20,111.29774203982734C270,111.29774203982734 270,259.01618848495633 520,259.01618848495633L520,259.1300542411573C270,259.1300542411573 270,111.41160779602833 20,111.41160779602833Z" style="stroke: rgb(1, 115, 178); stroke-opacity: 1; fill: rgb(1, 115, 178); fill-opacity: 1; stroke-width: 1; opacity: 1;"/><path class="sankey-link" d="M20,111.04566328321243C270,111.04566328321243 270,212.82437843346082 520,212.82437843346082L520,212.9542429383955C270,212.9542429383955 270,111.17552778814712 20,111.17552778814712Z" style="stroke: rgb(1, 115, 178); stroke-opacity: 1; fill: rgb(1, 115, 178); fill-opacity: 1; stroke-width: 1; opacity: 1;"/><path class="sankey-link" d="M20,111.17552778814714C270,111.17552778814714 270,238.36043945197727 520,238.36043945197727L520,238.48265370365746C270,238.48265370365746 270,111.29774203982733 20,111.29774203982733Z" style="stroke: rgb(1, 115, 178); stroke-opacity: 1; fill: rgb(1, 115, 178); fill-opacity: 1; stroke-width: 1; opacity: 1;"/><path class="sankey-link" d="M20,111.41160779602835C270,111.41160779602835 270,286.08273953492034 520,286.08273953492034L520,286.74712026019034C270,286.74712026019034 270,112.07598852129836 20,112.07598852129836Z" style="stroke: rgb(1, 115, 178); stroke-opacity: 1; fill: rgb(1, 115, 178); fill-opacity: 1; stroke-width: 1; opacity: 1;"/><path class="sankey-link" d="M20,127.12918302430603C270,127.12918302430603 270,100.88457410459601 520,100.88457410459601L520,100.88715820849119C270,100.88715820849119 270,127.1317671282012 20,127.1317671282012Z" style="stroke: rgb(222, 143, 5); stroke-opacity: 1; fill: rgb(222, 143, 5); fill-opacity: 1; stroke-width: 1; opacity: 1;"/><path class="sankey-link" d="M20,127.13176712820122C270,127.13176712820122 270,116.99591154349598 520,116.99591154349598L520,117.18524518126846C270,117.18524518126846 270,127.3211007659737 20,127.3211007659737Z" style="stroke: rgb(222, 143, 5); stroke-opacity: 1; fill: rgb(222, 143, 5); fill-opacity: 1; stroke-width: 1; opacity: 1;"/><path class="sankey-link" d="M20,127.0759885212984C270,127.0759885212984 270,74.15938249025756 520,74.15938249025756L520,74.21257699326519C270,74.21257699326519 270,127.12918302430603 20,127.12918302430603Z" style="stroke: rgb(222, 143, 5); stroke-opacity: 1; fill: rgb(222, 143, 5); fill-opacity: 1; stroke-width: 1; opacity: 1;"/><path class="sankey-link" d="M20,127.3211007659737C270,127.3211007659737 270,137.29283338624873 520,137.29283338624873L520,137.33414419117247C270,137.33414419117247 270,127.36241157089741 20,127.36241157089741Z" style="stroke: rgb(222, 143, 5); stroke-opacity: 1; fill: rgb(222, 143, 5); fill-opacity: 1; stroke-width: 1; opacity: 1;"/><path class="sankey-link" d="M20,127.36241157089741C270,127.36241157089741 270,172.94878284650792 520,172.94878284650792L520,172.95123769908633C270,172.95123769908633 270,127.36486642347582 20,127.36486642347582Z" style="stroke: rgb(222, 143, 5); stroke-opacity: 1; fill: rgb(222, 143, 5); fill-opacity: 1; stroke-width: 1; opacity: 1;"/><path class="sankey-link" d="M20,127.36486642347583C270,127.36486642347583 270,191.68636876705628 520,191.68636876705628L520,191.72524596572404C270,191.72524596572404 270,127.4037436221436 20,127.4037436221436Z" style="stroke: rgb(222, 143, 5); stroke-opacity: 1; fill: rgb(222, 143, 5); fill-opacity: 1; stroke-width: 1; opacity: 1;"/><path class="sankey-link" d="M20,127.42755224629288C270,127.42755224629288 270,259.1300542411573 520,259.1300542411573L520,259.13523294394935C270,259.13523294394935 270,127.43273094908496 20,127.43273094908496Z" style="stroke: rgb(222, 143, 5); stroke-opacity: 1; fill: rgb(222, 143, 5); fill-opacity: 1; stroke-width: 1; opacity: 1;"/><path class="sankey-link" d="M20,127.40374362214358C270,127.40374362214358 270,212.9542429383955 520,212.9542429383955L520,212.9593363089487C270,212.9593363089487 270,127.4088369926968 20,127.4088369926968Z" style="stroke: rgb(222, 143, 5); stroke-opacity: 1; fill: rgb(222, 143, 5); fill-opacity: 1; stroke-width: 1; opacity: 1;"/><path class="sankey-link" d="M20,127.4088369926968C270,127.4088369926968 270,238.48265370365746 520,238.48265370365746L520,238.5013689572535C270,238.5013689572535 270,127.42755224629288 20,127.42755224629288Z" style="stroke: rgb(222, 143, 5); stroke-opacity: 1; fill: rgb(222, 143, 5); fill-opacity: 1; stroke-width: 1; opacity: 1;"/><path class="sankey-link" d="M20,127.43273094908494C270,127.43273094908494 270,286.74712026019034 520,286.74712026019034L520,286.78949316909353C270,286.78949316909353 270,127.47510385798807 20,127.47510385798807Z" style="stroke: rgb(222, 143, 5); stroke-opacity: 1; fill: rgb(222, 143, 5); fill-opacity: 1; stroke-width: 1; opacity: 1;"/><path class="sankey-link" d="M20,73.71686206691271C270,73.71686206691271 270,97.36440232027054 520,97.36440232027054L520,97.72922503375425C270,97.72922503375425 270,74.08168478039642 20,74.08168478039642Z" style="stroke: rgb(2, 158, 115); stroke-opacity: 1; fill: rgb(2, 158, 115); fill-opacity: 1; stroke-width: 1; opacity: 1;"/><path class="sankey-link" d="M20,74.08168478039642C270,74.08168478039642 270,116.57960024221319 520,116.57960024221319L520,116.97319396520444C270,116.97319396520444 270,74.47527850338767 20,74.47527850338767Z" style="stroke: rgb(2, 158, 115); stroke-opacity: 1; fill: rgb(2, 158, 115); fill-opacity: 1; stroke-width: 1; opacity: 1;"/><path class="sankey-link" d="M20,2.2737367544323206e-13C270,2.2737367544323206e-13 270,4.405364961712621e-13 520,4.405364961712621e-13L520,73.71686206691292C270,73.71686206691292 270,73.71686206691271 20,73.71686206691271Z" style="stroke: rgb(68, 68, 68); stroke-opacity: 1; fill: rgb(2, 158, 115); fill-opacity: 1; stroke-width: 0; opacity: 1;"/><path class="sankey-link" d="M20,74.47527850338766C270,74.47527850338766 270,132.52840009142054 520,132.52840009142054L520,136.43445737925524C270,136.43445737925524 270,78.38133579122238 20,78.38133579122238Z" style="stroke: rgb(68, 68, 68); stroke-opacity: 1; fill: rgb(2, 158, 115); fill-opacity: 1; stroke-width: 0; opacity: 1;"/><path class="sankey-link" d="M20,78.38133579122238C270,78.38133579122238 270,172.50817890049987 520,172.50817890049987L520,172.88155579617992C270,172.88155579617992 270,78.75471268690247 20,78.75471268690247Z" style="stroke: rgb(2, 158, 115); stroke-opacity: 1; fill: rgb(2, 158, 115); fill-opacity: 1; stroke-width: 1; opacity: 1;"/><path class="sankey-link" d="M20,78.75471268690245C270,78.75471268690245 270,189.03807565678804 520,189.03807565678804L520,191.55943930311682C270,191.55943930311682 270,81.27607633323126 20,81.27607633323126Z" style="stroke: rgb(68, 68, 68); stroke-opacity: 1; fill: rgb(2, 158, 115); fill-opacity: 1; stroke-width: 0; opacity: 1;"/><path class="sankey-link" d="M20,83.81907710967793C270,83.81907710967793 270,257.7706135227244 520,257.7706135227244L520,259.0161884849564C270,259.0161884849564 270,85.06465207190989 20,85.06465207190989Z" style="stroke: rgb(68, 68, 68); stroke-opacity: 1; fill: rgb(2, 158, 115); fill-opacity: 1; stroke-width: 0; opacity: 1;"/><path class="sankey-link" d="M20,81.27607633323125C270,81.27607633323125 270,212.00619004048625 520,212.00619004048625L520,212.82437843346085C270,212.82437843346085 270,82.09426472620582 20,82.09426472620582Z" style="stroke: rgb(2, 158, 115); stroke-opacity: 1; fill: rgb(2, 158, 115); fill-opacity: 1; stroke-width: 1; opacity: 1;"/><path class="sankey-link" d="M20,82.09426472620584C270,82.09426472620584 270,236.63562706850516 520,236.63562706850516L520,238.36043945197727C270,238.36043945197727 270,83.81907710967795 20,83.81907710967795Z" style="stroke: rgb(68, 68, 68); stroke-opacity: 1; fill: rgb(2, 158, 115); fill-opacity: 1; stroke-width: 0; opacity: 1;"/><path class="sankey-link" d="M20,85.0646520719099C270,85.0646520719099 270,279.77484791735657 520,279.77484791735657L520,286.08273953492034C270,286.08273953492034 270,91.37254368947364 20,91.37254368947364Z" style="stroke: rgb(68, 68, 68); stroke-opacity: 1; fill: rgb(2, 158, 115); fill-opacity: 1; stroke-width: 0; opacity: 1;"/><path class="sankey-link" d="M20,143.0655327892272C270,143.0655327892272 270,100.8871582084912 520,100.8871582084912L520,101.0885167523135C270,101.0885167523135 270,143.26689133304947 20,143.26689133304947Z" style="stroke: rgb(213, 94, 0); stroke-opacity: 1; fill: rgb(213, 94, 0); fill-opacity: 1; stroke-width: 1; opacity: 1;"/><path class="sankey-link" d="M20,143.2668913330495C270,143.2668913330495 270,117.18524518126846 520,117.18524518126846L520,117.23773195932084C270,117.23773195932084 270,143.31937811110186 20,143.31937811110186Z" style="stroke: rgb(213, 94, 0); stroke-opacity: 1; fill: rgb(213, 94, 0); fill-opacity: 1; stroke-width: 1; opacity: 1;"/><path class="sankey-link" d="M20,142.47510385798805C270,142.47510385798805 270,74.21257699326519 520,74.21257699326519L520,74.80300592450435C270,74.80300592450435 270,143.0655327892272 20,143.0655327892272Z" style="stroke: rgb(213, 94, 0); stroke-opacity: 1; fill: rgb(213, 94, 0); fill-opacity: 1; stroke-width: 1; opacity: 1;"/><path class="sankey-link" d="M20,143.31937811110188C270,143.31937811110188 270,137.33414419117244 520,137.33414419117244L520,151.88797295902228C270,151.88797295902228 270,157.87320687895172 20,157.87320687895172Z" style="stroke: rgb(68, 68, 68); stroke-opacity: 1; fill: rgb(213, 94, 0); fill-opacity: 1; stroke-width: 0; opacity: 1;"/><path class="sankey-link" d="M20,157.87320687895175C270,157.87320687895175 270,172.95123769908633 520,172.95123769908633L520,173.03034418457997C270,173.03034418457997 270,157.9523133644454 20,157.9523133644454Z" style="stroke: rgb(213, 94, 0); stroke-opacity: 1; fill: rgb(213, 94, 0); fill-opacity: 1; stroke-width: 1; opacity: 1;"/><path class="sankey-link" d="M20,157.95231336444536C270,157.95231336444536 270,191.72524596572404 520,191.72524596572404L520,191.9892324136762C270,191.9892324136762 270,158.21629981239752 20,158.21629981239752Z" style="stroke: rgb(213, 94, 0); stroke-opacity: 1; fill: rgb(213, 94, 0); fill-opacity: 1; stroke-width: 1; opacity: 1;"/><path class="sankey-link" d="M20,158.8360135029242C270,158.8360135029242 270,259.1352329439494 520,259.1352329439494L520,259.36627306989203C270,259.36627306989203 270,159.06705362886683 20,159.06705362886683Z" style="stroke: rgb(213, 94, 0); stroke-opacity: 1; fill: rgb(213, 94, 0); fill-opacity: 1; stroke-width: 1; opacity: 1;"/><path class="sankey-link" d="M20,158.21629981239755C270,158.21629981239755 270,212.95933630894874 520,212.95933630894874L520,213.3183945541284C270,213.3183945541284 270,158.5753580575772 20,158.5753580575772Z" style="stroke: rgb(213, 94, 0); stroke-opacity: 1; fill: rgb(213, 94, 0); fill-opacity: 1; stroke-width: 1; opacity: 1;"/><path class="sankey-link" d="M20,158.57535805757723C270,158.57535805757723 270,238.50136895725353 520,238.50136895725353L520,238.7620244026005C270,238.7620244026005 270,158.8360135029242 20,158.8360135029242Z" style="stroke: rgb(213, 94, 0); stroke-opacity: 1; fill: rgb(213, 94, 0); fill-opacity: 1; stroke-width: 1; opacity: 1;"/><path class="sankey-link" d="M20,159.06705362886683C270,159.06705362886683 270,286.7894931690935 520,286.7894931690935L520,288.13854988702315C270,288.13854988702315 270,160.41611034679644 20,160.41611034679644Z" style="stroke: rgb(68, 68, 68); stroke-opacity: 1; fill: rgb(213, 94, 0); fill-opacity: 1; stroke-width: 0; opacity: 1;"/><path class="sankey-link" d="M20,179.23690293081316C270,179.23690293081316 270,101.08851675231348 520,101.08851675231348L520,101.15507420712187C270,101.15507420712187 270,179.30346038562155 20,179.30346038562155Z" style="stroke: rgb(204, 120, 188); stroke-opacity: 1; fill: rgb(204, 120, 188); fill-opacity: 1; stroke-width: 1; opacity: 1;"/><path class="sankey-link" d="M20,179.30346038562155C270,179.30346038562155 270,117.23773195932083 520,117.23773195932083L520,117.29634832095309C270,117.29634832095309 270,179.36207674725384 20,179.36207674725384Z" style="stroke: rgb(204, 120, 188); stroke-opacity: 1; fill: rgb(204, 120, 188); fill-opacity: 1; stroke-width: 1; opacity: 1;"/><path class="sankey-link" d="M20,175.41611034679644C270,175.41611034679644 270,74.80300592450435 520,74.80300592450435L520,78.62379850852106C270,78.62379850852106 270,179.23690293081316 20,179.23690293081316Z" style="stroke: rgb(68, 68, 68); stroke-opacity: 1; fill: rgb(204, 120, 188); fill-opacity: 1; stroke-width: 0; opacity: 1;"/><path class="sankey-link" d="M20,179.3620767472538C270,179.3620767472538 270,151.8879729590223 520,151.8879729590223L520,152.88649981036735C270,152.88649981036735 270,180.36060359859886 20,180.36060359859886Z" style="stroke: rgb(204, 120, 188); stroke-opacity: 1; fill: rgb(204, 120, 188); fill-opacity: 1; stroke-width: 1; opacity: 1;"/><path class="sankey-link" d="M20,180.36060359859889C270,180.36060359859889 270,173.03034418457995 520,173.03034418457995L520,173.55590451290536C270,173.55590451290536 270,180.8861639269243 20,180.8861639269243Z" style="stroke: rgb(204, 120, 188); stroke-opacity: 1; fill: rgb(204, 120, 188); fill-opacity: 1; stroke-width: 1; opacity: 1;"/><path class="sankey-link" d="M20,180.8861639269243C270,180.8861639269243 270,191.98923241367623 520,191.98923241367623L520,192.4778565149913C270,192.4778565149913 270,181.37478802823935 20,181.37478802823935Z" style="stroke: rgb(204, 120, 188); stroke-opacity: 1; fill: rgb(204, 120, 188); fill-opacity: 1; stroke-width: 1; opacity: 1;"/><path class="sankey-link" d="M20,186.35147818128442C270,186.35147818128442 270,259.36627306989203 520,259.36627306989203L520,259.730925501941C270,259.730925501941 270,186.71613061333338 20,186.71613061333338Z" style="stroke: rgb(204, 120, 188); stroke-opacity: 1; fill: rgb(204, 120, 188); fill-opacity: 1; stroke-width: 1; opacity: 1;"/><path class="sankey-link" d="M20,181.37478802823932C270,181.37478802823932 270,213.31839455412842 520,213.31839455412842L520,217.99720413146622C270,217.99720413146622 270,186.05359760557712 20,186.05359760557712Z" style="stroke: rgb(68, 68, 68); stroke-opacity: 1; fill: rgb(204, 120, 188); fill-opacity: 1; stroke-width: 0; opacity: 1;"/><path class="sankey-link" d="M20,186.05359760557712C270,186.05359760557712 270,238.7620244026005 520,238.7620244026005L520,239.05990497830783C270,239.05990497830783 270,186.35147818128445 20,186.35147818128445Z" style="stroke: rgb(204, 120, 188); stroke-opacity: 1; fill: rgb(204, 120, 188); fill-opacity: 1; stroke-width: 1; opacity: 1;"/><path class="sankey-link" d="M20,186.71613061333338C270,186.71613061333338 270,288.1385498870231 520,288.1385498870231L520,289.24389978406504C270,289.24389978406504 270,187.82148051037527 20,187.82148051037527Z" style="stroke: rgb(68, 68, 68); stroke-opacity: 1; fill: rgb(204, 120, 188); fill-opacity: 1; stroke-width: 0; opacity: 1;"/><path class="sankey-link" d="M20,228.27525781702587C270,228.27525781702587 270,101.36495463302367 520,101.36495463302367L520,101.37840795444194C270,101.37840795444194 270,228.28871113844417 20,228.28871113844417Z" style="stroke: rgb(202, 145, 97); stroke-opacity: 1; fill: rgb(202, 145, 97); fill-opacity: 1; stroke-width: 1; opacity: 1;"/><path class="sankey-link" d="M20,228.28871113844414C270,228.28871113844414 270,117.35616567287695 520,117.35616567287695L520,117.3657716914579C270,117.3657716914579 270,228.29831715702508 20,228.29831715702508Z" style="stroke: rgb(202, 145, 97); stroke-opacity: 1; fill: rgb(202, 145, 97); fill-opacity: 1; stroke-width: 1; opacity: 1;"/><path class="sankey-link" d="M20,228.0448505258045C270,228.0448505258045 270,80.29725516387923 520,80.29725516387923L520,80.52766245510061C270,80.52766245510061 270,228.27525781702585 20,228.27525781702585Z" style="stroke: rgb(202, 145, 97); stroke-opacity: 1; fill: rgb(202, 145, 97); fill-opacity: 1; stroke-width: 1; opacity: 1;"/><path class="sankey-link" d="M20,228.29831715702508C270,228.29831715702508 270,154.89330637722068 520,154.89330637722068L520,155.02333867281007C270,155.02333867281007 270,228.42834945261447 20,228.42834945261447Z" style="stroke: rgb(202, 145, 97); stroke-opacity: 1; fill: rgb(202, 145, 97); fill-opacity: 1; stroke-width: 1; opacity: 1;"/><path class="sankey-link" d="M20,228.42834945261447C270,228.42834945261447 270,173.8249215291219 520,173.8249215291219L520,173.83771815228957C270,173.83771815228957 270,228.44114607578214 20,228.44114607578214Z" style="stroke: rgb(202, 145, 97); stroke-opacity: 1; fill: rgb(202, 145, 97); fill-opacity: 1; stroke-width: 1; opacity: 1;"/><path class="sankey-link" d="M20,228.44114607578211C270,228.44114607578211 270,193.03584584981874 520,193.03584584981874L520,195.78350950253295C270,195.78350950253295 270,231.18880972849632 20,231.18880972849632Z" style="stroke: rgb(68, 68, 68); stroke-opacity: 1; fill: rgb(202, 145, 97); fill-opacity: 1; stroke-width: 0; opacity: 1;"/><path class="sankey-link" d="M20,231.2819991719584C270,231.2819991719584 270,259.9123282856431 520,259.9123282856431L520,259.9458473142494C270,259.9458473142494 270,231.3155182005647 20,231.3155182005647Z" style="stroke: rgb(202, 145, 97); stroke-opacity: 1; fill: rgb(202, 145, 97); fill-opacity: 1; stroke-width: 1; opacity: 1;"/><path class="sankey-link" d="M20,231.18880972849632C270,231.18880972849632 270,221.1815482149169 520,221.1815482149169L520,221.21484066202262C270,221.21484066202262 270,231.22210217560206 20,231.22210217560206Z" style="stroke: rgb(202, 145, 97); stroke-opacity: 1; fill: rgb(202, 145, 97); fill-opacity: 1; stroke-width: 1; opacity: 1;"/><path class="sankey-link" d="M20,231.22210217560206C270,231.22210217560206 270,239.58070597889915 520,239.58070597889915L520,239.64060297525552C270,239.64060297525552 270,231.28199917195843 20,231.28199917195843Z" style="stroke: rgb(202, 145, 97); stroke-opacity: 1; fill: rgb(202, 145, 97); fill-opacity: 1; stroke-width: 1; opacity: 1;"/><path class="sankey-link" d="M20,231.3155182005647C270,231.3155182005647 270,290.8037545806688 520,290.8037545806688L520,291.06852284488076C270,291.06852284488076 270,231.58028646477672 20,231.58028646477672Z" style="stroke: rgb(202, 145, 97); stroke-opacity: 1; fill: rgb(202, 145, 97); fill-opacity: 1; stroke-width: 1; opacity: 1;"/><path class="sankey-link" d="M20,270.7069796693552C270,270.7069796693552 270,101.52815935533252 520,101.52815935533252L520,101.55116802894187C270,101.55116802894187 270,270.7299883429645 20,270.7299883429645Z" style="stroke: rgb(251, 175, 228); stroke-opacity: 1; fill: rgb(251, 175, 228); fill-opacity: 1; stroke-width: 1; opacity: 1;"/><path class="sankey-link" d="M20,270.72998834296453C270,270.72998834296453 270,117.48286533658565 520,117.48286533658565L520,117.4960919709887C270,117.4960919709887 270,270.7432149773676 20,270.7432149773676Z" style="stroke: rgb(251, 175, 228); stroke-opacity: 1; fill: rgb(251, 175, 228); fill-opacity: 1; stroke-width: 1; opacity: 1;"/><path class="sankey-link" d="M20,270.4945960778999C270,270.4945960778999 270,81.8160154336877 520,81.8160154336877L520,82.02839902514292C270,82.02839902514292 270,270.7069796693552 20,270.7069796693552Z" style="stroke: rgb(251, 175, 228); stroke-opacity: 1; fill: rgb(251, 175, 228); fill-opacity: 1; stroke-width: 1; opacity: 1;"/><path class="sankey-link" d="M20,270.7432149773676C270,270.7432149773676 270,156.52466957296477 520,156.52466957296477L520,156.81569715356605C270,156.81569715356605 270,271.03424255796887 20,271.03424255796887Z" style="stroke: rgb(251, 175, 228); stroke-opacity: 1; fill: rgb(251, 175, 228); fill-opacity: 1; stroke-width: 1; opacity: 1;"/><path class="sankey-link" d="M20,271.03424255796887C270,271.03424255796887 270,173.99128885537425 520,173.99128885537425L520,174.01081668082765C270,174.01081668082765 270,271.0537703834222 20,271.0537703834222Z" style="stroke: rgb(251, 175, 228); stroke-opacity: 1; fill: rgb(251, 175, 228); fill-opacity: 1; stroke-width: 1; opacity: 1;"/><path class="sankey-link" d="M20,271.05377038342226C270,271.05377038342226 270,196.66549814415652 520,196.66549814415652L520,196.75983483806942C270,196.75983483806942 270,271.1481070773352 20,271.1481070773352Z" style="stroke: rgb(251, 175, 228); stroke-opacity: 1; fill: rgb(251, 175, 228); fill-opacity: 1; stroke-width: 1; opacity: 1;"/><path class="sankey-link" d="M20,271.2432314273337C270,271.2432314273337 270,260.1448245500644 520,260.1448245500644L520,264.4727296259923C270,264.4727296259923 270,275.5711365032616 20,275.5711365032616Z" style="stroke: rgb(68, 68, 68); stroke-opacity: 1; fill: rgb(251, 175, 228); fill-opacity: 1; stroke-width: 0; opacity: 1;"/><path class="sankey-link" d="M20,271.14810707733517C270,271.14810707733517 270,221.51296649211105 520,221.51296649211105L520,221.5529129808151C270,221.5529129808151 270,271.1880535660393 20,271.1880535660393Z" style="stroke: rgb(251, 175, 228); stroke-opacity: 1; fill: rgb(251, 175, 228); fill-opacity: 1; stroke-width: 1; opacity: 1;"/><path class="sankey-link" d="M20,271.18805356603923C270,271.18805356603923 270,242.62660608054966 520,242.62660608054966L520,242.68178394184412C270,242.68178394184412 270,271.2432314273336 20,271.2432314273336Z" style="stroke: rgb(251, 175, 228); stroke-opacity: 1; fill: rgb(251, 175, 228); fill-opacity: 1; stroke-width: 1; opacity: 1;"/><path class="sankey-link" d="M20,275.5711365032616C270,275.5711365032616 270,292.4076380173381 520,292.4076380173381L520,293.7820504403588C270,293.7820504403588 270,276.94554892628224 20,276.94554892628224Z" style="stroke: rgb(68, 68, 68); stroke-opacity: 1; fill: rgb(251, 175, 228); fill-opacity: 1; stroke-width: 0; opacity: 1;"/><path class="sankey-link" d="M20,204.4949371657335C270,204.4949371657335 270,101.15507420712187 520,101.15507420712187L520,101.36495463302366C270,101.36495463302366 270,204.7048175916353 20,204.7048175916353Z" style="stroke: rgb(148, 148, 148); stroke-opacity: 1; fill: rgb(148, 148, 148); fill-opacity: 1; stroke-width: 1; opacity: 1;"/><path class="sankey-link" d="M20,204.70481759163528C270,204.70481759163528 270,117.29634832095309 520,117.29634832095309L520,117.35616567287695C270,117.35616567287695 270,204.76463494355914 20,204.76463494355914Z" style="stroke: rgb(148, 148, 148); stroke-opacity: 1; fill: rgb(148, 148, 148); fill-opacity: 1; stroke-width: 1; opacity: 1;"/><path class="sankey-link" d="M20,202.82148051037532C270,202.82148051037532 270,78.62379850852108 520,78.62379850852108L520,80.29725516387924C270,80.29725516387924 270,204.4949371657335 20,204.4949371657335Z" style="stroke: rgb(68, 68, 68); stroke-opacity: 1; fill: rgb(148, 148, 148); fill-opacity: 1; stroke-width: 0; opacity: 1;"/><path class="sankey-link" d="M20,204.76463494355914C270,204.76463494355914 270,152.88649981036738 520,152.88649981036738L520,154.89330637722068C270,154.89330637722068 270,206.77144151041244 20,206.77144151041244Z" style="stroke: rgb(68, 68, 68); stroke-opacity: 1; fill: rgb(148, 148, 148); fill-opacity: 1; stroke-width: 0; opacity: 1;"/><path class="sankey-link" d="M20,206.77144151041244C270,206.77144151041244 270,173.55590451290536 520,173.55590451290536L520,173.8249215291219C270,173.8249215291219 270,207.04045852662898 20,207.04045852662898Z" style="stroke: rgb(148, 148, 148); stroke-opacity: 1; fill: rgb(148, 148, 148); fill-opacity: 1; stroke-width: 1; opacity: 1;"/><path class="sankey-link" d="M20,207.04045852662898C270,207.04045852662898 270,192.47785651499126 520,192.47785651499126L520,193.03584584981874C270,193.03584584981874 270,207.59844786145646 20,207.59844786145646Z" style="stroke: rgb(148, 148, 148); stroke-opacity: 1; fill: rgb(148, 148, 148); fill-opacity: 1; stroke-width: 1; opacity: 1;"/><path class="sankey-link" d="M20,211.30359294549848C270,211.30359294549848 270,259.730925501941 520,259.730925501941L520,259.9123282856432C270,259.9123282856432 270,211.48499572920062 20,211.48499572920062Z" style="stroke: rgb(148, 148, 148); stroke-opacity: 1; fill: rgb(148, 148, 148); fill-opacity: 1; stroke-width: 1; opacity: 1;"/><path class="sankey-link" d="M20,207.59844786145646C270,207.59844786145646 270,217.99720413146622 520,217.99720413146622L520,221.18154821491686C270,221.18154821491686 270,210.7827919449071 20,210.7827919449071Z" style="stroke: rgb(68, 68, 68); stroke-opacity: 1; fill: rgb(148, 148, 148); fill-opacity: 1; stroke-width: 0; opacity: 1;"/><path class="sankey-link" d="M20,210.78279194490713C270,210.78279194490713 270,239.0599049783078 520,239.0599049783078L520,239.58070597889915C270,239.58070597889915 270,211.30359294549848 20,211.30359294549848Z" style="stroke: rgb(148, 148, 148); stroke-opacity: 1; fill: rgb(148, 148, 148); fill-opacity: 1; stroke-width: 1; opacity: 1;"/><path class="sankey-link" d="M20,211.48499572920065C270,211.48499572920065 270,289.243899784065 520,289.243899784065L520,290.80375458066874C270,290.80375458066874 270,213.04485052580446 20,213.04485052580446Z" style="stroke: rgb(68, 68, 68); stroke-opacity: 1; fill: rgb(148, 148, 148); fill-opacity: 1; stroke-width: 0; opacity: 1;"/><path class="sankey-link" d="M20,247.86863944336372C270,247.86863944336372 270,101.37840795444194 520,101.37840795444194L520,101.52815935533252C270,101.52815935533252 270,248.0183908442543 20,248.0183908442543Z" style="stroke: rgb(236, 225, 51); stroke-opacity: 1; fill: rgb(236, 225, 51); fill-opacity: 1; stroke-width: 1; opacity: 1;"/><path class="sankey-link" d="M20,248.0183908442543C270,248.0183908442543 270,117.3657716914579 520,117.3657716914579L520,117.48286533658566C270,117.48286533658566 270,248.13548448938204 20,248.13548448938204Z" style="stroke: rgb(236, 225, 51); stroke-opacity: 1; fill: rgb(236, 225, 51); fill-opacity: 1; stroke-width: 1; opacity: 1;"/><path class="sankey-link" d="M20,246.58028646477663C270,246.58028646477663 270,80.52766245510061 520,80.52766245510061L520,81.8160154336877C270,81.8160154336877 270,247.86863944336375 20,247.86863944336375Z" style="stroke: rgb(68, 68, 68); stroke-opacity: 1; fill: rgb(236, 225, 51); fill-opacity: 1; stroke-width: 0; opacity: 1;"/><path class="sankey-link" d="M20,248.13548448938207C270,248.13548448938207 270,155.02333867281007 520,155.02333867281007L520,156.52466957296477C270,156.52466957296477 270,249.63681538953676 20,249.63681538953676Z" style="stroke: rgb(68, 68, 68); stroke-opacity: 1; fill: rgb(236, 225, 51); fill-opacity: 1; stroke-width: 0; opacity: 1;"/><path class="sankey-link" d="M20,249.63681538953676C270,249.63681538953676 270,173.83771815228954 520,173.83771815228954L520,173.99128885537425C270,173.99128885537425 270,249.79038609262147 20,249.79038609262147Z" style="stroke: rgb(236, 225, 51); stroke-opacity: 1; fill: rgb(236, 225, 51); fill-opacity: 1; stroke-width: 1; opacity: 1;"/><path class="sankey-link" d="M20,249.79038609262147C270,249.79038609262147 270,195.78350950253295 520,195.78350950253295L520,196.6654981441565C270,196.6654981441565 270,250.672374734245 20,250.672374734245Z" style="stroke: rgb(236, 225, 51); stroke-opacity: 1; fill: rgb(236, 225, 51); fill-opacity: 1; stroke-width: 1; opacity: 1;"/><path class="sankey-link" d="M20,253.95650366962764C270,253.95650366962764 270,259.9458473142494 520,259.9458473142494L520,260.14482455006447C270,260.14482455006447 270,254.15548090544263 20,254.15548090544263Z" style="stroke: rgb(236, 225, 51); stroke-opacity: 1; fill: rgb(236, 225, 51); fill-opacity: 1; stroke-width: 1; opacity: 1;"/><path class="sankey-link" d="M20,250.67237473424504C270,250.67237473424504 270,221.21484066202262 520,221.21484066202262L520,221.51296649211108C270,221.51296649211108 270,250.9705005643335 20,250.9705005643335Z" style="stroke: rgb(236, 225, 51); stroke-opacity: 1; fill: rgb(236, 225, 51); fill-opacity: 1; stroke-width: 1; opacity: 1;"/><path class="sankey-link" d="M20,250.97050056433346C270,250.97050056433346 270,239.6406029752555 520,239.6406029752555L520,242.62660608054966C270,242.62660608054966 270,253.95650366962764 20,253.95650366962764Z" style="stroke: rgb(68, 68, 68); stroke-opacity: 1; fill: rgb(236, 225, 51); fill-opacity: 1; stroke-width: 0; opacity: 1;"/><path class="sankey-link" d="M20,254.15548090544266C270,254.15548090544266 270,291.0685228448808 520,291.0685228448808L520,292.4076380173382C270,292.4076380173382 270,255.49459607789996 20,255.49459607789996Z" style="stroke: rgb(68, 68, 68); stroke-opacity: 1; fill: rgb(236, 225, 51); fill-opacity: 1; stroke-width: 0; opacity: 1;"/><path class="sankey-link" d="M20,292.28155222140987C270,292.28155222140987 270,101.55116802894187 520,101.55116802894187L520,101.57960024221319C270,101.57960024221319 270,292.3099844346812 20,292.3099844346812Z" style="stroke: rgb(86, 180, 233); stroke-opacity: 1; fill: rgb(86, 180, 233); fill-opacity: 1; stroke-width: 1; opacity: 1;"/><path class="sankey-link" d="M20,292.30998443468116C270,292.30998443468116 270,117.4960919709887 520,117.4960919709887L520,117.52840009142052C270,117.52840009142052 270,292.342292555113 20,292.342292555113Z" style="stroke: rgb(86, 180, 233); stroke-opacity: 1; fill: rgb(86, 180, 233); fill-opacity: 1; stroke-width: 1; opacity: 1;"/><path class="sankey-link" d="M20,291.9455489262822C270,291.9455489262822 270,82.02839902514293 520,82.02839902514293L520,82.36440232027059C270,82.36440232027059 270,292.2815522214098 20,292.2815522214098Z" style="stroke: rgb(86, 180, 233); stroke-opacity: 1; fill: rgb(86, 180, 233); fill-opacity: 1; stroke-width: 1; opacity: 1;"/><path class="sankey-link" d="M20,292.342292555113C270,292.342292555113 270,156.81569715356608 520,156.81569715356608L520,157.50817890049984C270,157.50817890049984 270,293.0347743020468 20,293.0347743020468Z" style="stroke: rgb(86, 180, 233); stroke-opacity: 1; fill: rgb(86, 180, 233); fill-opacity: 1; stroke-width: 1; opacity: 1;"/><path class="sankey-link" d="M20,293.03477430204674C270,293.03477430204674 270,174.01081668082765 520,174.01081668082765L520,174.038075656788C270,174.038075656788 270,293.06203327800716 20,293.06203327800716Z" style="stroke: rgb(86, 180, 233); stroke-opacity: 1; fill: rgb(86, 180, 233); fill-opacity: 1; stroke-width: 1; opacity: 1;"/><path class="sankey-link" d="M20,293.0620332780071C270,293.0620332780071 270,196.75983483806945 520,196.75983483806945L520,197.0061900404863C270,197.0061900404863 270,293.3083884804239 20,293.3083884804239Z" style="stroke: rgb(86, 180, 233); stroke-opacity: 1; fill: rgb(86, 180, 233); fill-opacity: 1; stroke-width: 1; opacity: 1;"/><path class="sankey-link" d="M20,293.47993214899435C270,293.47993214899435 270,264.4727296259923 520,264.4727296259923L520,264.7748479173565C270,264.7748479173565 270,293.78205044035855 20,293.78205044035855Z" style="stroke: rgb(86, 180, 233); stroke-opacity: 1; fill: rgb(86, 180, 233); fill-opacity: 1; stroke-width: 1; opacity: 1;"/><path class="sankey-link" d="M20,293.30838848042396C270,293.30838848042396 270,221.55291298081514 520,221.55291298081514L520,221.63562706850516C270,221.63562706850516 270,293.39110256811404 20,293.39110256811404Z" style="stroke: rgb(86, 180, 233); stroke-opacity: 1; fill: rgb(86, 180, 233); fill-opacity: 1; stroke-width: 1; opacity: 1;"/><path class="sankey-link" d="M20,293.391102568114C270,293.391102568114 270,242.68178394184412 520,242.68178394184412L520,242.7706135227245C270,242.7706135227245 270,293.4799321489944 20,293.4799321489944Z" style="stroke: rgb(86, 180, 233); stroke-opacity: 1; fill: rgb(86, 180, 233); fill-opacity: 1; stroke-width: 1; opacity: 1;"/><path class="sankey-link" d="M20,293.78205044035855C270,293.78205044035855 270,293.7820504403587 520,293.7820504403587L520,320.0000000000002C270,320.0000000000002 270,320.00000000000006 20,320.00000000000006Z" style="stroke: rgb(68, 68, 68); stroke-opacity: 1; fill: rgb(86, 180, 233); fill-opacity: 1; stroke-width: 0; opacity: 1;"/></g><g class="sankey-node-set" style="cursor: move;"><g class="sankey-node" transform="translate(0.000,106.373)" style="opacity: 1;"><rect class="node-rect" width="20" height="5.703444831824811" style="stroke-width: 0.5; stroke: rgb(0, 0, 0); stroke-opacity: 1; fill: rgb(211, 211, 211); fill-opacity: 1;"/><text class="node-label" data-notex="1" x="0" y="0" text-anchor="start" transform="translate(23.25,6.3517224159124055)" style="cursor: default; font-family: 'Open Sans', verdana, arial, sans-serif; font-size: 10px; fill: rgb(42, 63, 95); fill-opacity: 1; white-space: pre; text-shadow: white 1px 1px 1px, white -1px -1px 1px, white 1px -1px 1px, white -1px 1px 1px;">Africa (85 Mt)</text></g><g class="sankey-node" transform="translate(0.000,127.076)" style="opacity: 1;"><rect class="node-rect" width="20" height="0.5" style="stroke-width: 0.5; stroke: rgb(0, 0, 0); stroke-opacity: 1; fill: rgb(211, 211, 211); fill-opacity: 1;"/><text class="node-label" data-notex="1" x="0" y="0" text-anchor="start" transform="translate(23.25,3.75)" style="cursor: default; font-family: 'Open Sans', verdana, arial, sans-serif; font-size: 10px; fill: rgb(42, 63, 95); fill-opacity: 1; white-space: pre; text-shadow: white 1px 1px 1px, white -1px -1px 1px, white 1px -1px 1px, white -1px 1px 1px;">Australia (5 Mt)</text></g><g class="sankey-node" transform="translate(0.000,0.000)" style="opacity: 1;"><rect class="node-rect" width="20" height="91.37254368947336" style="stroke-width: 0.5; stroke: rgb(0, 0, 0); stroke-opacity: 1; fill: rgb(211, 211, 211); fill-opacity: 1;"/><text class="node-label" data-notex="1" x="0" y="0" text-anchor="start" transform="translate(23.25,49.18627184473668)" style="cursor: default; font-family: 'Open Sans', verdana, arial, sans-serif; font-size: 10px; fill: rgb(42, 63, 95); fill-opacity: 1; white-space: pre; text-shadow: white 1px 1px 1px, white -1px -1px 1px, white 1px -1px 1px, white -1px 1px 1px;">China (1365 Mt)</text></g><g class="sankey-node" transform="translate(0.000,142.475)" style="opacity: 1;"><rect class="node-rect" width="20" height="17.941006488808398" style="stroke-width: 0.5; stroke: rgb(0, 0, 0); stroke-opacity: 1; fill: rgb(211, 211, 211); fill-opacity: 1;"/><text class="node-label" data-notex="1" x="0" y="0" text-anchor="start" transform="translate(23.25,12.470503244404199)" style="cursor: default; font-family: 'Open Sans', verdana, arial, sans-serif; font-size: 10px; fill: rgb(42, 63, 95); fill-opacity: 1; white-space: pre; text-shadow: white 1px 1px 1px, white -1px -1px 1px, white 1px -1px 1px, white -1px 1px 1px;">Europe (268 Mt)</text></g><g class="sankey-node" transform="translate(0.000,175.416)" style="opacity: 1;"><rect class="node-rect" width="20" height="12.40537016357888" style="stroke-width: 0.5; stroke: rgb(0, 0, 0); stroke-opacity: 1; fill: rgb(211, 211, 211); fill-opacity: 1;"/><text class="node-label" data-notex="1" x="0" y="0" text-anchor="start" transform="translate(23.25,9.70268508178944)" style="cursor: default; font-family: 'Open Sans', verdana, arial, sans-serif; font-size: 10px; fill: rgb(42, 63, 95); fill-opacity: 1; white-space: pre; text-shadow: white 1px 1px 1px, white -1px -1px 1px, white 1px -1px 1px, white -1px 1px 1px;">India (185 Mt)</text></g><g class="sankey-node" transform="translate(0.000,228.045)" style="opacity: 1;"><rect class="node-rect" width="20" height="3.535435938972114" style="stroke-width: 0.5; stroke: rgb(0, 0, 0); stroke-opacity: 1; fill: rgb(211, 211, 211); fill-opacity: 1;"/><text class="node-label" data-notex="1" x="0" y="0" text-anchor="start" transform="translate(23.25,5.267717969486057)" style="cursor: default; font-family: 'Open Sans', verdana, arial, sans-serif; font-size: 10px; fill: rgb(42, 63, 95); fill-opacity: 1; white-space: pre; text-shadow: white 1px 1px 1px, white -1px -1px 1px, white 1px -1px 1px, white -1px 1px 1px;">Japan and Korea (52 Mt)</text></g><g class="sankey-node" transform="translate(0.000,270.495)" style="opacity: 1;"><rect class="node-rect" width="20" height="6.450952848382258" style="stroke-width: 0.5; stroke: rgb(0, 0, 0); stroke-opacity: 1; fill: rgb(211, 211, 211); fill-opacity: 1;"/><text class="node-label" data-notex="1" x="0" y="0" text-anchor="start" transform="translate(23.25,6.725476424191129)" style="cursor: default; font-family: 'Open Sans', verdana, arial, sans-serif; font-size: 10px; fill: rgb(42, 63, 95); fill-opacity: 1; white-space: pre; text-shadow: white 1px 1px 1px, white -1px -1px 1px, white 1px -1px 1px, white -1px 1px 1px;">Latin America (96 Mt)</text></g><g class="sankey-node" transform="translate(0.000,202.821)" style="opacity: 1;"><rect class="node-rect" width="20" height="10.223370015429168" style="stroke-width: 0.5; stroke: rgb(0, 0, 0); stroke-opacity: 1; fill: rgb(211, 211, 211); fill-opacity: 1;"/><text class="node-label" data-notex="1" x="0" y="0" text-anchor="start" transform="translate(23.25,8.611685007714584)" style="cursor: default; font-family: 'Open Sans', verdana, arial, sans-serif; font-size: 10px; fill: rgb(42, 63, 95); fill-opacity: 1; white-space: pre; text-shadow: white 1px 1px 1px, white -1px -1px 1px, white 1px -1px 1px, white -1px 1px 1px;">Middle East (152 Mt)</text></g><g class="sankey-node" transform="translate(0.000,246.580)" style="opacity: 1;"><rect class="node-rect" width="20" height="8.914309613123294" style="stroke-width: 0.5; stroke: rgb(0, 0, 0); stroke-opacity: 1; fill: rgb(211, 211, 211); fill-opacity: 1;"/><text class="node-label" data-notex="1" x="0" y="0" text-anchor="start" transform="translate(23.25,7.957154806561647)" style="cursor: default; font-family: 'Open Sans', verdana, arial, sans-serif; font-size: 10px; fill: rgb(42, 63, 95); fill-opacity: 1; white-space: pre; text-shadow: white 1px 1px 1px, white -1px -1px 1px, white 1px -1px 1px, white -1px 1px 1px;">Rest of Asia (133 Mt)</text></g><g class="sankey-node" transform="translate(0.000,291.946)" style="opacity: 1;"><rect class="node-rect" width="20" height="28.054451073717814" style="stroke-width: 0.5; stroke: rgb(0, 0, 0); stroke-opacity: 1; fill: rgb(211, 211, 211); fill-opacity: 1;"/><text class="node-label" data-notex="1" x="0" y="0" text-anchor="start" transform="translate(23.25,17.527225536858907)" style="cursor: default; font-family: 'Open Sans', verdana, arial, sans-serif; font-size: 10px; fill: rgb(42, 63, 95); fill-opacity: 1; white-space: pre; text-shadow: white 1px 1px 1px, white -1px -1px 1px, white 1px -1px 1px, white -1px 1px 1px;">USA and Canada (419 Mt)</text></g><g class="sankey-node" transform="translate(520.000,97.364)" style="opacity: 1;"><rect class="node-rect" width="20" height="4.215197921942632" style="stroke-width: 0.5; stroke: rgb(0, 0, 0); stroke-opacity: 1; fill: rgb(211, 211, 211); fill-opacity: 1;"/><text class="node-label" data-notex="1" x="0" y="0" text-anchor="end" transform="translate(-3.25,5.607598960971316)" style="cursor: default; font-family: 'Open Sans', verdana, arial, sans-serif; font-size: 10px; fill: rgb(42, 63, 95); fill-opacity: 1; white-space: pre; text-shadow: white 1px 1px 1px, white -1px -1px 1px, white 1px -1px 1px, white -1px 1px 1px;">Africa (62 Mt)</text></g><g class="sankey-node" transform="translate(520.000,116.580)" style="opacity: 1;"><rect class="node-rect" width="20" height="0.9487998492073473" style="stroke-width: 0.5; stroke: rgb(0, 0, 0); stroke-opacity: 1; fill: rgb(211, 211, 211); fill-opacity: 1;"/><text class="node-label" data-notex="1" x="0" y="0" text-anchor="end" transform="translate(-3.25,3.9743999246036736)" style="cursor: default; font-family: 'Open Sans', verdana, arial, sans-serif; font-size: 10px; fill: rgb(42, 63, 95); fill-opacity: 1; white-space: pre; text-shadow: white 1px 1px 1px, white -1px -1px 1px, white 1px -1px 1px, white -1px 1px 1px;">Australia (14 Mt)</text></g><g class="sankey-node" transform="translate(520.000,0.000)" style="opacity: 1;"><rect class="node-rect" width="20" height="82.3644023202701" style="stroke-width: 0.5; stroke: rgb(0, 0, 0); stroke-opacity: 1; fill: rgb(211, 211, 211); fill-opacity: 1;"/><text class="node-label" data-notex="1" x="0" y="0" text-anchor="end" transform="translate(-3.25,44.68220116013505)" style="cursor: default; font-family: 'Open Sans', verdana, arial, sans-serif; font-size: 10px; fill: rgb(42, 63, 95); fill-opacity: 1; white-space: pre; text-shadow: white 1px 1px 1px, white -1px -1px 1px, white 1px -1px 1px, white -1px 1px 1px;">China (1230 Mt)</text></g><g class="sankey-node" transform="translate(520.000,132.528)" style="opacity: 1;"><rect class="node-rect" width="20" height="24.979778809079335" style="stroke-width: 0.5; stroke: rgb(0, 0, 0); stroke-opacity: 1; fill: rgb(211, 211, 211); fill-opacity: 1;"/><text class="node-label" data-notex="1" x="0" y="0" text-anchor="end" transform="translate(-3.25,15.989889404539667)" style="cursor: default; font-family: 'Open Sans', verdana, arial, sans-serif; font-size: 10px; fill: rgb(42, 63, 95); fill-opacity: 1; white-space: pre; text-shadow: white 1px 1px 1px, white -1px -1px 1px, white 1px -1px 1px, white -1px 1px 1px;">Europe (373 Mt)</text></g><g class="sankey-node" transform="translate(520.000,172.508)" style="opacity: 1;"><rect class="node-rect" width="20" height="1.5298967562881671" style="stroke-width: 0.5; stroke: rgb(0, 0, 0); stroke-opacity: 1; fill: rgb(211, 211, 211); fill-opacity: 1;"/><text class="node-label" data-notex="1" x="0" y="0" text-anchor="end" transform="translate(-3.25,4.264948378144084)" style="cursor: default; font-family: 'Open Sans', verdana, arial, sans-serif; font-size: 10px; fill: rgb(42, 63, 95); fill-opacity: 1; white-space: pre; text-shadow: white 1px 1px 1px, white -1px -1px 1px, white 1px -1px 1px, white -1px 1px 1px;">India (22 Mt)</text></g><g class="sankey-node" transform="translate(520.000,189.038)" style="opacity: 1;"><rect class="node-rect" width="20" height="7.968114383698207" style="stroke-width: 0.5; stroke: rgb(0, 0, 0); stroke-opacity: 1; fill: rgb(211, 211, 211); fill-opacity: 1;"/><text class="node-label" data-notex="1" x="0" y="0" text-anchor="end" transform="translate(-3.25,7.484057191849104)" style="cursor: default; font-family: 'Open Sans', verdana, arial, sans-serif; font-size: 10px; fill: rgb(42, 63, 95); fill-opacity: 1; white-space: pre; text-shadow: white 1px 1px 1px, white -1px -1px 1px, white 1px -1px 1px, white -1px 1px 1px;">Japan and Korea (119 Mt)</text></g><g class="sankey-node" transform="translate(520.000,257.771)" style="opacity: 1;"><rect class="node-rect" width="20" height="7.004234394632192" style="stroke-width: 0.5; stroke: rgb(0, 0, 0); stroke-opacity: 1; fill: rgb(211, 211, 211); fill-opacity: 1;"/><text class="node-label" data-notex="1" x="0" y="0" text-anchor="end" transform="translate(-3.25,7.002117197316096)" style="cursor: default; font-family: 'Open Sans', verdana, arial, sans-serif; font-size: 10px; fill: rgb(42, 63, 95); fill-opacity: 1; white-space: pre; text-shadow: white 1px 1px 1px, white -1px -1px 1px, white 1px -1px 1px, white -1px 1px 1px;">Latin America (104 Mt)</text></g><g class="sankey-node" transform="translate(520.000,212.006)" style="opacity: 1;"><rect class="node-rect" width="20" height="9.629437028018913" style="stroke-width: 0.5; stroke: rgb(0, 0, 0); stroke-opacity: 1; fill: rgb(211, 211, 211); fill-opacity: 1;"/><text class="node-label" data-notex="1" x="0" y="0" text-anchor="end" transform="translate(-3.25,8.314718514009456)" style="cursor: default; font-family: 'Open Sans', verdana, arial, sans-serif; font-size: 10px; fill: rgb(42, 63, 95); fill-opacity: 1; white-space: pre; text-shadow: white 1px 1px 1px, white -1px -1px 1px, white 1px -1px 1px, white -1px 1px 1px;">Middle East (143 Mt)</text></g><g class="sankey-node" transform="translate(520.000,236.636)" style="opacity: 1;"><rect class="node-rect" width="20" height="6.134986454219188" style="stroke-width: 0.5; stroke: rgb(0, 0, 0); stroke-opacity: 1; fill: rgb(211, 211, 211); fill-opacity: 1;"/><text class="node-label" data-notex="1" x="0" y="0" text-anchor="end" transform="translate(-3.25,6.567493227109594)" style="cursor: default; font-family: 'Open Sans', verdana, arial, sans-serif; font-size: 10px; fill: rgb(42, 63, 95); fill-opacity: 1; white-space: pre; text-shadow: white 1px 1px 1px, white -1px -1px 1px, white 1px -1px 1px, white -1px 1px 1px;">Rest of Asia (91 Mt)</text></g><g class="sankey-node" transform="translate(520.000,279.775)" style="opacity: 1;"><rect class="node-rect" width="20" height="40.22515208264343" style="stroke-width: 0.5; stroke: rgb(0, 0, 0); stroke-opacity: 1; fill: rgb(211, 211, 211); fill-opacity: 1;"/><text class="node-label" data-notex="1" x="0" y="0" text-anchor="end" transform="translate(-3.25,23.612576041321717)" style="cursor: default; font-family: 'Open Sans', verdana, arial, sans-serif; font-size: 10px; fill: rgb(42, 63, 95); fill-opacity: 1; white-space: pre; text-shadow: white 1px 1px 1px, white -1px -1px 1px, white 1px -1px 1px, white -1px 1px 1px;">USA and Canada (601 Mt)</text></g></g></g><defs id="topdefs-67c872"><g class="clips"/></defs><g class="layer-above"><g class="imagelayer"/><g class="shapelayer"/></g><g class="infolayer"><g class="g-gtitle"><text class="gtitle" x="35" y="50" text-anchor="start" dy="0em" style="font-family: 'Open Sans', verdana, arial, sans-serif; font-size: 14px; fill: rgb(42, 63, 95); opacity: 1; font-weight: normal; white-space: pre;">Healthcare systems consumption of non-metalic minerals in 2013</text></g><g class="first-render"/></g></svg>