<svg class="main-svg" xmlns="http://www.w3.org/2000/svg" xmlns:xlink="http://www.w3.org/1999/xlink" width="700" height="500" viewBox="0 0 700 500"><rect x="0" y="0" width="700" height="500" style="fill: rgb(255, 255, 255); fill-opacity: 1;"/><defs id="defs-e2601e"><g class="clips"/><g class="gradients"/><g class="patterns"/></defs><g class="bglayer"/><g class="layer-below"><g class="imagelayer"/><g class="shapelayer"/></g><g class="cartesianlayer"/><g class="polarlayer"/><g class="smithlayer"/><g class="ternarylayer"/><g class="geolayer"/><g class="funnelarealayer"/><g class="pielayer"/><g class="iciclelayer"/><g class="treemaplayer"/><g class="sunburstlayer"/><g class="glimages"/><g class="sankey" transform="translate(80,100)matrix(1 0 0 1 0 0)" style="box-sizing: content-box; position: absolute; left: 0px; shape-rendering: geometricPrecision; pointer-events: auto;"><g class="sankey-links" style="fill: none;"><path class="sankey-link" d="M20,-4.973799150320701e-14C270,-4.973799150320701e-14 270,-2.3803181647963356e-13 520,-2.3803181647963356e-13L520,4.534504891276234C270,4.534504891276234 270,4.5345048912764225 20,4.5345048912764225Z" style="stroke: rgb(68, 68, 68); stroke-opacity: 1; fill: rgb(1, 115, 178); fill-opacity: 1; stroke-width: 0; opacity: 1;"/><path class="sankey-link" d="M20,4.5345048912764225C270,4.5345048912764225 270,20.57276375913547 520,20.57276375913547L520,20.646808896755864C270,20.646808896755864 270,4.608550028896821 20,4.608550028896821Z" style="stroke: rgb(1, 115, 178); stroke-opacity: 1; fill: rgb(1, 115, 178); fill-opacity: 1; stroke-width: 1; opacity: 1;"/><path class="sankey-link" d="M20,4.60855002889682C270,4.60855002889682 270,39.597370909350175 520,39.597370909350175L520,40.92340523714586C270,40.92340523714586 270,5.934584356692504 20,5.934584356692504Z" style="stroke: rgb(68, 68, 68); stroke-opacity: 1; fill: rgb(1, 115, 178); fill-opacity: 1; stroke-width: 0; opacity: 1;"/><path class="sankey-link" d="M20,6.8101331421999225C270,6.8101331421999225 270,160.61785788731189 520,160.61785788731189L520,162.47038301025C270,162.47038301025 270,8.662658265138061 20,8.662658265138061Z" style="stroke: rgb(68, 68, 68); stroke-opacity: 1; fill: rgb(1, 115, 178); fill-opacity: 1; stroke-width: 0; opacity: 1;"/><path class="sankey-link" d="M20,6.698783769433465C270,6.698783769433465 270,144.05213638658844 520,144.05213638658844L520,144.16348575935493C270,144.16348575935493 270,6.810133142199923 20,6.810133142199923Z" style="stroke: rgb(1, 115, 178); stroke-opacity: 1; fill: rgb(1, 115, 178); fill-opacity: 1; stroke-width: 1; opacity: 1;"/><path class="sankey-link" d="M20,6.232118315858584C270,6.232118315858584 270,111.75568735553554 520,111.75568735553554L520,112.22235280911042C270,112.22235280911042 270,6.698783769433465 20,6.698783769433465Z" style="stroke: rgb(1, 115, 178); stroke-opacity: 1; fill: rgb(1, 115, 178); fill-opacity: 1; stroke-width: 1; opacity: 1;"/><path class="sankey-link" d="M20,8.662658265138061C270,8.662658265138061 270,200.87694252469598 520,200.87694252469598L520,201.08922929519073C270,201.08922929519073 270,8.874945035632818 20,8.874945035632818Z" style="stroke: rgb(1, 115, 178); stroke-opacity: 1; fill: rgb(1, 115, 178); fill-opacity: 1; stroke-width: 1; opacity: 1;"/><path class="sankey-link" d="M20,8.874945035632816C270,8.874945035632816 270,225.85776968068785 520,225.85776968068785L520,226.098456241856C270,226.098456241856 270,9.115631596800977 20,9.115631596800977Z" style="stroke: rgb(1, 115, 178); stroke-opacity: 1; fill: rgb(1, 115, 178); fill-opacity: 1; stroke-width: 1; opacity: 1;"/><path class="sankey-link" d="M20,5.934584356692504C270,5.934584356692504 270,86.52151974731237 520,86.52151974731237L520,86.81905370647846C270,86.81905370647846 270,6.232118315858584 20,6.232118315858584Z" style="stroke: rgb(1, 115, 178); stroke-opacity: 1; fill: rgb(1, 115, 178); fill-opacity: 1; stroke-width: 1; opacity: 1;"/><path class="sankey-link" d="M20,10.824613312017396C270,10.824613312017396 270,319.0909771953609 520,319.0909771953609L520,319.11276342782196C270,319.11276342782196 270,10.846399544478507 20,10.846399544478507Z" style="stroke: rgb(1, 115, 178); stroke-opacity: 1; fill: rgb(1, 115, 178); fill-opacity: 1; stroke-width: 1; opacity: 1;"/><path class="sankey-link" d="M20,9.115631596800977C270,9.115631596800977 270,244.82522764793327 520,244.82522764793327L520,246.53420936314967C270,246.53420936314967 270,10.824613312017394 20,10.824613312017394Z" style="stroke: rgb(68, 68, 68); stroke-opacity: 1; fill: rgb(1, 115, 178); fill-opacity: 1; stroke-width: 0; opacity: 1;"/><path class="sankey-link" d="M20,52.69782753903716C270,52.69782753903716 270,4.604351793137051 520,4.604351793137051L520,4.7235372220805605C270,4.7235372220805605 270,52.81701296798067 20,52.81701296798067Z" style="stroke: rgb(222, 143, 5); stroke-opacity: 1; fill: rgb(222, 143, 5); fill-opacity: 1; stroke-width: 1; opacity: 1;"/><path class="sankey-link" d="M20,52.81701296798067C270,52.81701296798067 270,20.76361738652133 520,20.76361738652133L520,23.134447026699963C270,23.134447026699963 270,55.187842608159315 20,55.187842608159315Z" style="stroke: rgb(68, 68, 68); stroke-opacity: 1; fill: rgb(222, 143, 5); fill-opacity: 1; stroke-width: 0; opacity: 1;"/><path class="sankey-link" d="M20,55.18784260815931C270,55.18784260815931 270,48.21702220953072 520,48.21702220953072L520,51.28392944179998C270,51.28392944179998 270,58.254749840428566 20,58.254749840428566Z" style="stroke: rgb(68, 68, 68); stroke-opacity: 1; fill: rgb(222, 143, 5); fill-opacity: 1; stroke-width: 0; opacity: 1;"/><path class="sankey-link" d="M20,60.54075987614506C270,60.54075987614506 270,163.4570415964109 520,163.4570415964109L520,165.07681519602082C270,165.07681519602082 270,62.16053347575496 20,62.16053347575496Z" style="stroke: rgb(68, 68, 68); stroke-opacity: 1; fill: rgb(222, 143, 5); fill-opacity: 1; stroke-width: 0; opacity: 1;"/><path class="sankey-link" d="M20,60.37288210892741C270,60.37288210892741 270,144.2387251013017 520,144.2387251013017L520,144.40660286851934C270,144.40660286851934 270,60.54075987614506 20,60.54075987614506Z" style="stroke: rgb(222, 143, 5); stroke-opacity: 1; fill: rgb(222, 143, 5); fill-opacity: 1; stroke-width: 1; opacity: 1;"/><path class="sankey-link" d="M20,59.15680288405916C270,59.15680288405916 270,112.80964990980041 520,112.80964990980041L520,114.02572913466867C270,114.02572913466867 270,60.37288210892741 20,60.37288210892741Z" style="stroke: rgb(68, 68, 68); stroke-opacity: 1; fill: rgb(222, 143, 5); fill-opacity: 1; stroke-width: 0; opacity: 1;"/><path class="sankey-link" d="M20,62.16053347575496C270,62.16053347575496 270,201.3384674163377 520,201.3384674163377L520,201.59799473239573C270,201.59799473239573 270,62.420060791813015 20,62.420060791813015Z" style="stroke: rgb(222, 143, 5); stroke-opacity: 1; fill: rgb(222, 143, 5); fill-opacity: 1; stroke-width: 1; opacity: 1;"/><path class="sankey-link" d="M20,62.420060791813015C270,62.420060791813015 270,226.24736477514358 520,226.24736477514358L520,226.50055973429863C270,226.50055973429863 270,62.67325575096804 20,62.67325575096804Z" style="stroke: rgb(222, 143, 5); stroke-opacity: 1; fill: rgb(222, 143, 5); fill-opacity: 1; stroke-width: 1; opacity: 1;"/><path class="sankey-link" d="M20,58.25474984042857C270,58.25474984042857 270,87.34448997640494 520,87.34448997640494L520,88.24654302003553C270,88.24654302003553 270,59.15680288405916 20,59.15680288405916Z" style="stroke: rgb(222, 143, 5); stroke-opacity: 1; fill: rgb(222, 143, 5); fill-opacity: 1; stroke-width: 1; opacity: 1;"/><path class="sankey-link" d="M20,64.95457623245635C270,64.95457623245635 270,319.1314123560462 520,319.1314123560462L520,319.1567669502882C270,319.1567669502882 270,64.97993082669832 20,64.97993082669832Z" style="stroke: rgb(222, 143, 5); stroke-opacity: 1; fill: rgb(222, 143, 5); fill-opacity: 1; stroke-width: 1; opacity: 1;"/><path class="sankey-link" d="M20,62.673255750968046C270,62.673255750968046 270,248.31393811231433 520,248.31393811231433L520,250.59525859380264C270,250.59525859380264 270,64.95457623245635 20,64.95457623245635Z" style="stroke: rgb(68, 68, 68); stroke-opacity: 1; fill: rgb(222, 143, 5); fill-opacity: 1; stroke-width: 0; opacity: 1;"/><path class="sankey-link" d="M20,25.8463995444785C270,25.8463995444785 270,4.534504891276234 520,4.534504891276234L520,4.60435179313705C270,4.60435179313705 270,25.916246446339315 20,25.916246446339315Z" style="stroke: rgb(2, 158, 115); stroke-opacity: 1; fill: rgb(2, 158, 115); fill-opacity: 1; stroke-width: 1; opacity: 1;"/><path class="sankey-link" d="M20,25.91624644633932C270,25.91624644633932 270,20.646808896755868 520,20.646808896755868L520,20.76361738652133C270,20.76361738652133 270,26.03305493610478 20,26.03305493610478Z" style="stroke: rgb(2, 158, 115); stroke-opacity: 1; fill: rgb(2, 158, 115); fill-opacity: 1; stroke-width: 1; opacity: 1;"/><path class="sankey-link" d="M20,26.03305493610478C270,26.03305493610478 270,40.92340523714586 520,40.92340523714586L520,48.217022209530725C270,48.217022209530725 270,33.326671908489644 20,33.326671908489644Z" style="stroke: rgb(68, 68, 68); stroke-opacity: 1; fill: rgb(2, 158, 115); fill-opacity: 1; stroke-width: 0; opacity: 1;"/><path class="sankey-link" d="M20,34.51464462105292C270,34.51464462105292 270,162.47038301025003 520,162.47038301025003L520,163.45704159641093C270,163.45704159641093 270,35.501303207213795 20,35.501303207213795Z" style="stroke: rgb(2, 158, 115); stroke-opacity: 1; fill: rgb(2, 158, 115); fill-opacity: 1; stroke-width: 1; opacity: 1;"/><path class="sankey-link" d="M20,34.43940527910613C270,34.43940527910613 270,144.1634857593549 520,144.1634857593549L520,144.23872510130167C270,144.23872510130167 270,34.51464462105293 20,34.51464462105293Z" style="stroke: rgb(2, 158, 115); stroke-opacity: 1; fill: rgb(2, 158, 115); fill-opacity: 1; stroke-width: 1; opacity: 1;"/><path class="sankey-link" d="M20,33.85210817841614C270,33.85210817841614 270,112.22235280911042 520,112.22235280911042L520,112.80964990980041C270,112.80964990980041 270,34.43940527910613 20,34.43940527910613Z" style="stroke: rgb(2, 158, 115); stroke-opacity: 1; fill: rgb(2, 158, 115); fill-opacity: 1; stroke-width: 1; opacity: 1;"/><path class="sankey-link" d="M20,35.5013032072138C270,35.5013032072138 270,201.08922929519073 520,201.08922929519073L520,201.3384674163377C270,201.3384674163377 270,35.75054132836076 20,35.75054132836076Z" style="stroke: rgb(2, 158, 115); stroke-opacity: 1; fill: rgb(2, 158, 115); fill-opacity: 1; stroke-width: 1; opacity: 1;"/><path class="sankey-link" d="M20,35.75054132836076C270,35.75054132836076 270,226.098456241856 520,226.098456241856L520,226.24736477514358C270,226.24736477514358 270,35.89944986164834 20,35.89944986164834Z" style="stroke: rgb(2, 158, 115); stroke-opacity: 1; fill: rgb(2, 158, 115); fill-opacity: 1; stroke-width: 1; opacity: 1;"/><path class="sankey-link" d="M20,33.326671908489644C270,33.326671908489644 270,86.81905370647844 520,86.81905370647844L520,87.34448997640494C270,87.34448997640494 270,33.852108178416145 20,33.852108178416145Z" style="stroke: rgb(2, 158, 115); stroke-opacity: 1; fill: rgb(2, 158, 115); fill-opacity: 1; stroke-width: 1; opacity: 1;"/><path class="sankey-link" d="M20,37.67917861081297C270,37.67917861081297 270,319.112763427822 520,319.112763427822L520,319.13141235604627C270,319.13141235604627 270,37.69782753903718 20,37.69782753903718Z" style="stroke: rgb(2, 158, 115); stroke-opacity: 1; fill: rgb(2, 158, 115); fill-opacity: 1; stroke-width: 1; opacity: 1;"/><path class="sankey-link" d="M20,35.899449861648336C270,35.899449861648336 270,246.5342093631497 520,246.5342093631497L520,248.31393811231433C270,248.31393811231433 270,37.67917861081297 20,37.67917861081297Z" style="stroke: rgb(68, 68, 68); stroke-opacity: 1; fill: rgb(2, 158, 115); fill-opacity: 1; stroke-width: 0; opacity: 1;"/><path class="sankey-link" d="M20,248.9645255223172C270,248.9645255223172 270,5.406614970090055 520,5.406614970090055L520,5.4469726050718075C270,5.4469726050718075 270,249.00488315729896 20,249.00488315729896Z" style="stroke: rgb(213, 94, 0); stroke-opacity: 1; fill: rgb(213, 94, 0); fill-opacity: 1; stroke-width: 1; opacity: 1;"/><path class="sankey-link" d="M20,249.00488315729893C270,249.00488315729893 270,24.336604731914964 520,24.336604731914964L520,24.374110668948443C270,24.374110668948443 270,249.0423890943324 20,249.0423890943324Z" style="stroke: rgb(213, 94, 0); stroke-opacity: 1; fill: rgb(213, 94, 0); fill-opacity: 1; stroke-width: 1; opacity: 1;"/><path class="sankey-link" d="M20,249.0423890943324C270,249.0423890943324 270,68.42295340240591 520,68.42295340240591L520,68.90886377350938C270,68.90886377350938 270,249.5282994654359 20,249.5282994654359Z" style="stroke: rgb(213, 94, 0); stroke-opacity: 1; fill: rgb(213, 94, 0); fill-opacity: 1; stroke-width: 1; opacity: 1;"/><path class="sankey-link" d="M20,249.87320202853326C270,249.87320202853326 270,179.20152446900065 520,179.20152446900065L520,182.21083702500945C270,182.21083702500945 270,252.88251458454206 20,252.88251458454206Z" style="stroke: rgb(68, 68, 68); stroke-opacity: 1; fill: rgb(213, 94, 0); fill-opacity: 1; stroke-width: 0; opacity: 1;"/><path class="sankey-link" d="M20,249.84663828325765C270,249.84663828325765 270,145.43274992362495 520,145.43274992362495L520,145.45931366890056C270,145.45931366890056 270,249.87320202853326 20,249.87320202853326Z" style="stroke: rgb(213, 94, 0); stroke-opacity: 1; fill: rgb(213, 94, 0); fill-opacity: 1; stroke-width: 1; opacity: 1;"/><path class="sankey-link" d="M20,249.68152243696574C270,249.68152243696574 270,127.5415380881607 520,127.5415380881607L520,127.70665393445262C270,127.70665393445262 270,249.84663828325762 20,249.84663828325762Z" style="stroke: rgb(213, 94, 0); stroke-opacity: 1; fill: rgb(213, 94, 0); fill-opacity: 1; stroke-width: 1; opacity: 1;"/><path class="sankey-link" d="M20,252.8825145845421C270,252.8825145845421 270,210.04677332915128 520,210.04677332915128L520,210.14131582791464C270,210.14131582791464 270,252.97705708330545 20,252.97705708330545Z" style="stroke: rgb(213, 94, 0); stroke-opacity: 1; fill: rgb(213, 94, 0); fill-opacity: 1; stroke-width: 1; opacity: 1;"/><path class="sankey-link" d="M20,252.97705708330543C270,252.97705708330543 270,229.1004708033624 520,229.1004708033624L520,229.26615971664037C270,229.26615971664037 270,253.1427459965834 20,253.1427459965834Z" style="stroke: rgb(213, 94, 0); stroke-opacity: 1; fill: rgb(213, 94, 0); fill-opacity: 1; stroke-width: 1; opacity: 1;"/><path class="sankey-link" d="M20,249.52829946543588C270,249.52829946543588 270,95.7099643706855 520,95.7099643706855L520,95.86318734221535C270,95.86318734221535 270,249.68152243696576 20,249.68152243696576Z" style="stroke: rgb(213, 94, 0); stroke-opacity: 1; fill: rgb(213, 94, 0); fill-opacity: 1; stroke-width: 1; opacity: 1;"/><path class="sankey-link" d="M20,254.0195073748857C270,254.0195073748857 270,319.60571307112923 520,319.60571307112923L520,319.63554492382605C270,319.63554492382605 270,254.04933922758258 20,254.04933922758258Z" style="stroke: rgb(213, 94, 0); stroke-opacity: 1; fill: rgb(213, 94, 0); fill-opacity: 1; stroke-width: 1; opacity: 1;"/><path class="sankey-link" d="M20,253.14274599658341C270,253.14274599658341 270,277.92787145670343 520,277.92787145670343L520,278.8046328350057C270,278.8046328350057 270,254.01950737488573 20,254.01950737488573Z" style="stroke: rgb(213, 94, 0); stroke-opacity: 1; fill: rgb(213, 94, 0); fill-opacity: 1; stroke-width: 1; opacity: 1;"/><path class="sankey-link" d="M20,128.238123891211C270,128.238123891211 270,5.006958000209621 520,5.006958000209621L520,5.01755022655045C270,5.01755022655045 270,128.2487161175518 20,128.2487161175518Z" style="stroke: rgb(204, 120, 188); stroke-opacity: 1; fill: rgb(204, 120, 188); fill-opacity: 1; stroke-width: 1; opacity: 1;"/><path class="sankey-link" d="M20,128.24871611755182C270,128.24871611755182 270,23.68964207004776 520,23.68964207004776L520,23.695546368456434C270,23.695546368456434 270,128.2546204159605 20,128.2546204159605Z" style="stroke: rgb(204, 120, 188); stroke-opacity: 1; fill: rgb(204, 120, 188); fill-opacity: 1; stroke-width: 1; opacity: 1;"/><path class="sankey-link" d="M20,128.2546204159605C270,128.2546204159605 270,58.987149628274295 520,58.987149628274295L520,59.189693902741496C270,59.189693902741496 270,128.45716469042767 20,128.45716469042767Z" style="stroke: rgb(204, 120, 188); stroke-opacity: 1; fill: rgb(204, 120, 188); fill-opacity: 1; stroke-width: 1; opacity: 1;"/><path class="sankey-link" d="M20,128.6646077915294C270,128.6646077915294 270,169.35803999955985 520,169.35803999955985L520,169.44573745621452C270,169.44573745621452 270,128.75230524818406 20,128.75230524818406Z" style="stroke: rgb(204, 120, 188); stroke-opacity: 1; fill: rgb(204, 120, 188); fill-opacity: 1; stroke-width: 1; opacity: 1;"/><path class="sankey-link" d="M20,128.58698551664008C270,128.58698551664008 270,144.7566132251578 520,144.7566132251578L520,144.83423550004713C270,144.83423550004713 270,128.66460779152942 20,128.66460779152942Z" style="stroke: rgb(204, 120, 188); stroke-opacity: 1; fill: rgb(204, 120, 188); fill-opacity: 1; stroke-width: 1; opacity: 1;"/><path class="sankey-link" d="M20,128.49528507918583C270,128.49528507918583 270,121.06562261353527 520,121.06562261353527L520,121.15732305098952C270,121.15732305098952 270,128.5869855166401 20,128.5869855166401Z" style="stroke: rgb(204, 120, 188); stroke-opacity: 1; fill: rgb(204, 120, 188); fill-opacity: 1; stroke-width: 1; opacity: 1;"/><path class="sankey-link" d="M20,128.75230524818406C270,128.75230524818406 270,202.34495038487785 520,202.34495038487785L520,202.36311855580902C270,202.36311855580902 270,128.77047341911523 20,128.77047341911523Z" style="stroke: rgb(204, 120, 188); stroke-opacity: 1; fill: rgb(204, 120, 188); fill-opacity: 1; stroke-width: 1; opacity: 1;"/><path class="sankey-link" d="M20,128.77047341911526C270,128.77047341911526 270,227.17731015912298 520,227.17731015912298L520,227.2634652787414C270,227.2634652787414 270,128.85662853873367 20,128.85662853873367Z" style="stroke: rgb(204, 120, 188); stroke-opacity: 1; fill: rgb(204, 120, 188); fill-opacity: 1; stroke-width: 1; opacity: 1;"/><path class="sankey-link" d="M20,128.45716469042767C270,128.45716469042767 270,93.2206300847771 520,93.2206300847771L520,93.25875047353526C270,93.25875047353526 270,128.49528507918583 20,128.49528507918583Z" style="stroke: rgb(204, 120, 188); stroke-opacity: 1; fill: rgb(204, 120, 188); fill-opacity: 1; stroke-width: 1; opacity: 1;"/><path class="sankey-link" d="M20,128.97994426109076C270,128.97994426109076 270,319.38677461957565 520,319.38677461957565L520,319.3880196315445C270,319.3880196315445 270,128.98118927305964 20,128.98118927305964Z" style="stroke: rgb(204, 120, 188); stroke-opacity: 1; fill: rgb(204, 120, 188); fill-opacity: 1; stroke-width: 1; opacity: 1;"/><path class="sankey-link" d="M20,128.85662853873367C270,128.85662853873367 270,257.01268619998467 520,257.01268619998467L520,257.1360019223418C270,257.1360019223418 270,128.97994426109074 20,128.97994426109074Z" style="stroke: rgb(204, 120, 188); stroke-opacity: 1; fill: rgb(204, 120, 188); fill-opacity: 1; stroke-width: 1; opacity: 1;"/><path class="sankey-link" d="M20,216.57261881762847C270,216.57261881762847 270,5.3731542253310645 520,5.3731542253310645L520,5.373635556314684C270,5.373635556314684 270,216.5731001486121 20,216.5731001486121Z" style="stroke: rgb(202, 145, 97); stroke-opacity: 1; fill: rgb(202, 145, 97); fill-opacity: 1; stroke-width: 1; opacity: 1;"/><path class="sankey-link" d="M20,216.5731001486121C270,216.5731001486121 270,24.319809097245667 520,24.319809097245667L520,24.320960634876755C270,24.320960634876755 270,216.57425168624317 20,216.57425168624317Z" style="stroke: rgb(202, 145, 97); stroke-opacity: 1; fill: rgb(202, 145, 97); fill-opacity: 1; stroke-width: 1; opacity: 1;"/><path class="sankey-link" d="M20,216.5742516862432C270,216.5742516862432 270,67.97465984309939 520,67.97465984309939L520,67.98413592776764C270,67.98413592776764 270,216.58372777091142 20,216.58372777091142Z" style="stroke: rgb(202, 145, 97); stroke-opacity: 1; fill: rgb(202, 145, 97); fill-opacity: 1; stroke-width: 1; opacity: 1;"/><path class="sankey-link" d="M20,216.60207409715923C270,216.60207409715923 270,178.69193441532178 520,178.69193441532178L520,178.70052390256325C270,178.70052390256325 270,216.6106635844007 20,216.6106635844007Z" style="stroke: rgb(202, 145, 97); stroke-opacity: 1; fill: rgb(202, 145, 97); fill-opacity: 1; stroke-width: 1; opacity: 1;"/><path class="sankey-link" d="M20,216.60149739390442C270,216.60149739390442 270,145.36851953269397 520,145.36851953269397L520,145.36909623594877C270,145.36909623594877 270,216.60207409715923 20,216.60207409715923Z" style="stroke: rgb(202, 145, 97); stroke-opacity: 1; fill: rgb(202, 145, 97); fill-opacity: 1; stroke-width: 1; opacity: 1;"/><path class="sankey-link" d="M20,216.58870054741658C270,216.58870054741658 270,127.3805282053582 520,127.3805282053582L520,127.39332505184605C270,127.39332505184605 270,216.60149739390442 20,216.60149739390442Z" style="stroke: rgb(202, 145, 97); stroke-opacity: 1; fill: rgb(202, 145, 97); fill-opacity: 1; stroke-width: 1; opacity: 1;"/><path class="sankey-link" d="M20,216.61066358440067C270,216.61066358440067 270,209.9993010880819 520,209.9993010880819L520,210.00095659483674C270,210.00095659483674 270,216.6123190911555 20,216.6123190911555Z" style="stroke: rgb(202, 145, 97); stroke-opacity: 1; fill: rgb(202, 145, 97); fill-opacity: 1; stroke-width: 1; opacity: 1;"/><path class="sankey-link" d="M20,216.61231909115554C270,216.61231909115554 270,228.56433455618748 520,228.56433455618748L520,228.56593487437289C270,228.56593487437289 270,216.61391940934095 20,216.61391940934095Z" style="stroke: rgb(202, 145, 97); stroke-opacity: 1; fill: rgb(202, 145, 97); fill-opacity: 1; stroke-width: 1; opacity: 1;"/><path class="sankey-link" d="M20,216.58372777091145C270,216.58372777091145 270,95.57606614768294 520,95.57606614768294L520,95.58103892418806C270,95.58103892418806 270,216.5887005474166 20,216.5887005474166Z" style="stroke: rgb(202, 145, 97); stroke-opacity: 1; fill: rgb(202, 145, 97); fill-opacity: 1; stroke-width: 1; opacity: 1;"/><path class="sankey-link" d="M20,216.62952220256966C270,216.62952220256966 270,319.60232419928883 520,319.60232419928883L520,319.60246704311845C270,319.60246704311845 270,216.62966504639923 20,216.62966504639923Z" style="stroke: rgb(202, 145, 97); stroke-opacity: 1; fill: rgb(202, 145, 97); fill-opacity: 1; stroke-width: 1; opacity: 1;"/><path class="sankey-link" d="M20,216.61391940934095C270,216.61391940934095 270,277.49024060124907 520,277.49024060124907L520,277.5058433944778C270,277.5058433944778 270,216.62952220256966 20,216.62952220256966Z" style="stroke: rgb(202, 145, 97); stroke-opacity: 1; fill: rgb(202, 145, 97); fill-opacity: 1; stroke-width: 1; opacity: 1;"/><path class="sankey-link" d="M20,143.98118927305967C270,143.98118927305967 270,5.01755022655045 520,5.01755022655045L520,5.3731542253310645C270,5.3731542253310645 270,144.3367932718403 20,144.3367932718403Z" style="stroke: rgb(251, 175, 228); stroke-opacity: 1; fill: rgb(251, 175, 228); fill-opacity: 1; stroke-width: 1; opacity: 1;"/><path class="sankey-link" d="M20,144.3367932718403C270,144.3367932718403 270,23.695546368456437 520,23.695546368456437L520,24.319809097245663C270,24.319809097245663 270,144.96105600062953 20,144.96105600062953Z" style="stroke: rgb(251, 175, 228); stroke-opacity: 1; fill: rgb(251, 175, 228); fill-opacity: 1; stroke-width: 1; opacity: 1;"/><path class="sankey-link" d="M20,144.96105600062953C270,144.96105600062953 270,59.18969390274149 520,59.18969390274149L520,67.97465984309939C270,67.97465984309939 270,153.74602194098742 20,153.74602194098742Z" style="stroke: rgb(68, 68, 68); stroke-opacity: 1; fill: rgb(251, 175, 228); fill-opacity: 1; stroke-width: 0; opacity: 1;"/><path class="sankey-link" d="M20,162.82082680215066C270,162.82082680215066 270,169.44573745621452 520,169.44573745621452L520,178.69193441532175C270,178.69193441532175 270,172.0670237612579 20,172.0670237612579Z" style="stroke: rgb(68, 68, 68); stroke-opacity: 1; fill: rgb(251, 175, 228); fill-opacity: 1; stroke-width: 0; opacity: 1;"/><path class="sankey-link" d="M20,162.2865427695038C270,162.2865427695038 270,144.8342355000471 520,144.8342355000471L520,145.368519532694C270,145.368519532694 270,162.8208268021507 20,162.8208268021507Z" style="stroke: rgb(251, 175, 228); stroke-opacity: 1; fill: rgb(251, 175, 228); fill-opacity: 1; stroke-width: 1; opacity: 1;"/><path class="sankey-link" d="M20,156.0633376151351C270,156.0633376151351 270,121.15732305098952 520,121.15732305098952L520,127.3805282053582C270,127.3805282053582 270,162.28654276950377 20,162.28654276950377Z" style="stroke: rgb(68, 68, 68); stroke-opacity: 1; fill: rgb(251, 175, 228); fill-opacity: 1; stroke-width: 0; opacity: 1;"/><path class="sankey-link" d="M20,172.06702376125793C270,172.06702376125793 270,202.36311855580905 520,202.36311855580905L520,209.99930108808186C270,209.99930108808186 270,179.70320629353074 20,179.70320629353074Z" style="stroke: rgb(68, 68, 68); stroke-opacity: 1; fill: rgb(251, 175, 228); fill-opacity: 1; stroke-width: 0; opacity: 1;"/><path class="sankey-link" d="M20,179.70320629353077C270,179.70320629353077 270,227.2634652787414 520,227.2634652787414L520,228.56433455618745C270,228.56433455618745 270,181.00407557097682 20,181.00407557097682Z" style="stroke: rgb(68, 68, 68); stroke-opacity: 1; fill: rgb(251, 175, 228); fill-opacity: 1; stroke-width: 0; opacity: 1;"/><path class="sankey-link" d="M20,153.74602194098742C270,153.74602194098742 270,93.25875047353526 520,93.25875047353526L520,95.57606614768295C270,95.57606614768295 270,156.06333761513508 20,156.06333761513508Z" style="stroke: rgb(68, 68, 68); stroke-opacity: 1; fill: rgb(251, 175, 228); fill-opacity: 1; stroke-width: 0; opacity: 1;"/><path class="sankey-link" d="M20,201.3583142498842C270,201.3583142498842 270,319.3880196315445 520,319.3880196315445L520,319.60232419928883C270,319.60232419928883 270,201.5726188176285 20,201.5726188176285Z" style="stroke: rgb(251, 175, 228); stroke-opacity: 1; fill: rgb(251, 175, 228); fill-opacity: 1; stroke-width: 1; opacity: 1;"/><path class="sankey-link" d="M20,181.00407557097685C270,181.00407557097685 270,257.13600192234173 520,257.13600192234173L520,277.49024060124907C270,277.49024060124907 270,201.3583142498842 20,201.3583142498842Z" style="stroke: rgb(68, 68, 68); stroke-opacity: 1; fill: rgb(251, 175, 228); fill-opacity: 1; stroke-width: 0; opacity: 1;"/><path class="sankey-link" d="M20,231.62966504639914C270,231.62966504639914 270,5.373635556314685 520,5.373635556314685L520,5.406614970090054C270,5.406614970090054 270,231.6626444601745 20,231.6626444601745Z" style="stroke: rgb(148, 148, 148); stroke-opacity: 1; fill: rgb(148, 148, 148); fill-opacity: 1; stroke-width: 1; opacity: 1;"/><path class="sankey-link" d="M20,231.6626444601745C270,231.6626444601745 270,24.320960634876755 520,24.320960634876755L520,24.33660473191496C270,24.33660473191496 270,231.6782885572127 20,231.6782885572127Z" style="stroke: rgb(148, 148, 148); stroke-opacity: 1; fill: rgb(148, 148, 148); fill-opacity: 1; stroke-width: 1; opacity: 1;"/><path class="sankey-link" d="M20,231.6782885572127C270,231.6782885572127 270,67.98413592776762 520,67.98413592776762L520,68.42295340240591C270,68.42295340240591 270,232.11710603185097 20,232.11710603185097Z" style="stroke: rgb(148, 148, 148); stroke-opacity: 1; fill: rgb(148, 148, 148); fill-opacity: 1; stroke-width: 1; opacity: 1;"/><path class="sankey-link" d="M20,232.45789820233927C270,232.45789820233927 270,178.70052390256322 520,178.70052390256322L520,179.20152446900065C270,179.20152446900065 270,232.9588987687767 20,232.9588987687767Z" style="stroke: rgb(148, 148, 148); stroke-opacity: 1; fill: rgb(148, 148, 148); fill-opacity: 1; stroke-width: 1; opacity: 1;"/><path class="sankey-link" d="M20,232.3942445146631C270,232.3942445146631 270,145.36909623594877 520,145.36909623594877L520,145.43274992362493C270,145.43274992362493 270,232.45789820233924 20,232.45789820233924Z" style="stroke: rgb(148, 148, 148); stroke-opacity: 1; fill: rgb(148, 148, 148); fill-opacity: 1; stroke-width: 1; opacity: 1;"/><path class="sankey-link" d="M20,232.2460314783484C270,232.2460314783484 270,127.39332505184605 520,127.39332505184605L520,127.54153808816072C270,127.54153808816072 270,232.39424451466306 20,232.39424451466306Z" style="stroke: rgb(148, 148, 148); stroke-opacity: 1; fill: rgb(148, 148, 148); fill-opacity: 1; stroke-width: 1; opacity: 1;"/><path class="sankey-link" d="M20,232.9588987687767C270,232.9588987687767 270,210.00095659483677 520,210.00095659483677L520,210.04677332915125C270,210.04677332915125 270,233.00471550309118 20,233.00471550309118Z" style="stroke: rgb(148, 148, 148); stroke-opacity: 1; fill: rgb(148, 148, 148); fill-opacity: 1; stroke-width: 1; opacity: 1;"/><path class="sankey-link" d="M20,233.0047155030912C270,233.0047155030912 270,228.56593487437289 520,228.56593487437289L520,229.10047080336238C270,229.10047080336238 270,233.5392514320807 20,233.5392514320807Z" style="stroke: rgb(148, 148, 148); stroke-opacity: 1; fill: rgb(148, 148, 148); fill-opacity: 1; stroke-width: 1; opacity: 1;"/><path class="sankey-link" d="M20,232.117106031851C270,232.117106031851 270,95.58103892418808 520,95.58103892418808L520,95.7099643706855C270,95.7099643706855 270,232.2460314783484 20,232.2460314783484Z" style="stroke: rgb(148, 148, 148); stroke-opacity: 1; fill: rgb(148, 148, 148); fill-opacity: 1; stroke-width: 1; opacity: 1;"/><path class="sankey-link" d="M20,233.96127949430635C270,233.96127949430635 270,319.6024670431184 520,319.6024670431184L520,319.60571307112923C270,319.60571307112923 270,233.9645255223172 20,233.9645255223172Z" style="stroke: rgb(148, 148, 148); stroke-opacity: 1; fill: rgb(148, 148, 148); fill-opacity: 1; stroke-width: 1; opacity: 1;"/><path class="sankey-link" d="M20,233.53925143208073C270,233.53925143208073 270,277.5058433944778 520,277.5058433944778L520,277.92787145670343C270,277.92787145670343 270,233.96127949430638 20,233.96127949430638Z" style="stroke: rgb(148, 148, 148); stroke-opacity: 1; fill: rgb(148, 148, 148); fill-opacity: 1; stroke-width: 1; opacity: 1;"/><path class="sankey-link" d="M20,79.97993082669832C270,79.97993082669832 270,4.7235372220805605 520,4.7235372220805605L520,5.006958000209622C270,5.006958000209622 270,80.26335160482738 20,80.26335160482738Z" style="stroke: rgb(236, 225, 51); stroke-opacity: 1; fill: rgb(236, 225, 51); fill-opacity: 1; stroke-width: 1; opacity: 1;"/><path class="sankey-link" d="M20,80.26335160482738C270,80.26335160482738 270,23.134447026699966 520,23.134447026699966L520,23.68964207004776C270,23.68964207004776 270,80.81854664817517 20,80.81854664817517Z" style="stroke: rgb(236, 225, 51); stroke-opacity: 1; fill: rgb(236, 225, 51); fill-opacity: 1; stroke-width: 1; opacity: 1;"/><path class="sankey-link" d="M20,80.81854664817517C270,80.81854664817517 270,51.283929441799984 520,51.283929441799984L520,58.987149628274295C270,58.987149628274295 270,88.52176683464948 20,88.52176683464948Z" style="stroke: rgb(68, 68, 68); stroke-opacity: 1; fill: rgb(236, 225, 51); fill-opacity: 1; stroke-width: 0; opacity: 1;"/><path class="sankey-link" d="M20,100.88575773489609C270,100.88575773489609 270,165.0768151960208 520,165.0768151960208L520,169.35803999955982C270,169.35803999955982 270,105.16698253843515 20,105.16698253843515Z" style="stroke: rgb(68, 68, 68); stroke-opacity: 1; fill: rgb(236, 225, 51); fill-opacity: 1; stroke-width: 0; opacity: 1;"/><path class="sankey-link" d="M20,100.53574737825765C270,100.53574737825765 270,144.40660286851934 520,144.40660286851934L520,144.7566132251578C270,144.7566132251578 270,100.8857577348961 20,100.8857577348961Z" style="stroke: rgb(236, 225, 51); stroke-opacity: 1; fill: rgb(236, 225, 51); fill-opacity: 1; stroke-width: 1; opacity: 1;"/><path class="sankey-link" d="M20,93.49585389939105C270,93.49585389939105 270,114.02572913466867 520,114.02572913466867L520,121.06562261353525C270,121.06562261353525 270,100.53574737825764 20,100.53574737825764Z" style="stroke: rgb(68, 68, 68); stroke-opacity: 1; fill: rgb(236, 225, 51); fill-opacity: 1; stroke-width: 0; opacity: 1;"/><path class="sankey-link" d="M20,105.16698253843514C270,105.16698253843514 270,201.59799473239576 520,201.59799473239576L520,202.34495038487785C270,202.34495038487785 270,105.91393819091722 20,105.91393819091722Z" style="stroke: rgb(236, 225, 51); stroke-opacity: 1; fill: rgb(236, 225, 51); fill-opacity: 1; stroke-width: 1; opacity: 1;"/><path class="sankey-link" d="M20,105.91393819091721C270,105.91393819091721 270,226.5005597342986 520,226.5005597342986L520,227.17731015912298C270,227.17731015912298 270,106.59068861574158 20,106.59068861574158Z" style="stroke: rgb(236, 225, 51); stroke-opacity: 1; fill: rgb(236, 225, 51); fill-opacity: 1; stroke-width: 1; opacity: 1;"/><path class="sankey-link" d="M20,88.52176683464947C270,88.52176683464947 270,88.24654302003552 520,88.24654302003552L520,93.2206300847771C270,93.2206300847771 270,93.49585389939105 20,93.49585389939105Z" style="stroke: rgb(68, 68, 68); stroke-opacity: 1; fill: rgb(236, 225, 51); fill-opacity: 1; stroke-width: 0; opacity: 1;"/><path class="sankey-link" d="M20,113.00811622192361C270,113.00811622192361 270,319.15676695028816 520,319.15676695028816L520,319.38677461957565C270,319.38677461957565 270,113.2381238912111 20,113.2381238912111Z" style="stroke: rgb(236, 225, 51); stroke-opacity: 1; fill: rgb(236, 225, 51); fill-opacity: 1; stroke-width: 1; opacity: 1;"/><path class="sankey-link" d="M20,106.59068861574157C270,106.59068861574157 270,250.59525859380264 520,250.59525859380264L520,257.01268619998467C270,257.01268619998467 270,113.00811622192363 20,113.00811622192363Z" style="stroke: rgb(68, 68, 68); stroke-opacity: 1; fill: rgb(236, 225, 51); fill-opacity: 1; stroke-width: 0; opacity: 1;"/><path class="sankey-link" d="M20,269.0493392275826C270,269.0493392275826 270,5.4469726050718075 520,5.4469726050718075L520,5.475291695525407C270,5.475291695525407 270,269.0776583180362 20,269.0776583180362Z" style="stroke: rgb(86, 180, 233); stroke-opacity: 1; fill: rgb(86, 180, 233); fill-opacity: 1; stroke-width: 1; opacity: 1;"/><path class="sankey-link" d="M20,269.0776583180362C270,269.0776583180362 270,24.374110668948447 520,24.374110668948447L520,24.412813555890438C270,24.412813555890438 270,269.1163612049782 20,269.1163612049782Z" style="stroke: rgb(86, 180, 233); stroke-opacity: 1; fill: rgb(86, 180, 233); fill-opacity: 1; stroke-width: 1; opacity: 1;"/><path class="sankey-link" d="M20,269.11636120497815C270,269.11636120497815 270,68.9088637735094 520,68.9088637735094L520,69.34828817582645C270,69.34828817582645 270,269.5557856072952 20,269.5557856072952Z" style="stroke: rgb(86, 180, 233); stroke-opacity: 1; fill: rgb(86, 180, 233); fill-opacity: 1; stroke-width: 1; opacity: 1;"/><path class="sankey-link" d="M20,270.0707179451001C270,270.0707179451001 270,182.21083702500948 520,182.21083702500948L520,183.2920031827545C270,183.2920031827545 270,271.1518841028451 20,271.1518841028451Z" style="stroke: rgb(68, 68, 68); stroke-opacity: 1; fill: rgb(86, 180, 233); fill-opacity: 1; stroke-width: 0; opacity: 1;"/><path class="sankey-link" d="M20,270.0371416721792C270,270.0371416721792 270,145.45931366890056 520,145.45931366890056L520,145.4928899418215C270,145.4928899418215 270,270.07071794510006 20,270.07071794510006Z" style="stroke: rgb(86, 180, 233); stroke-opacity: 1; fill: rgb(86, 180, 233); fill-opacity: 1; stroke-width: 1; opacity: 1;"/><path class="sankey-link" d="M20,269.7689522577033C270,269.7689522577033 270,127.7066539344526 520,127.7066539344526L520,127.97484334892847C270,127.97484334892847 270,270.03714167217913 20,270.03714167217913Z" style="stroke: rgb(86, 180, 233); stroke-opacity: 1; fill: rgb(86, 180, 233); fill-opacity: 1; stroke-width: 1; opacity: 1;"/><path class="sankey-link" d="M20,271.15188410284514C270,271.15188410284514 270,210.1413158279146 520,210.1413158279146L520,210.2218766332584C270,210.2218766332584 270,271.23244490818894 20,271.23244490818894Z" style="stroke: rgb(86, 180, 233); stroke-opacity: 1; fill: rgb(86, 180, 233); fill-opacity: 1; stroke-width: 1; opacity: 1;"/><path class="sankey-link" d="M20,271.23244490818894C270,271.23244490818894 270,229.2661597166404 520,229.2661597166404L520,229.40232548324866C270,229.40232548324866 270,271.36861067479714 20,271.36861067479714Z" style="stroke: rgb(86, 180, 233); stroke-opacity: 1; fill: rgb(86, 180, 233); fill-opacity: 1; stroke-width: 1; opacity: 1;"/><path class="sankey-link" d="M20,269.5557856072952C270,269.5557856072952 270,95.86318734221535 520,95.86318734221535L520,96.07635399262347C270,96.07635399262347 270,269.7689522577033 20,269.7689522577033Z" style="stroke: rgb(86, 180, 233); stroke-opacity: 1; fill: rgb(86, 180, 233); fill-opacity: 1; stroke-width: 1; opacity: 1;"/><path class="sankey-link" d="M20,272.03288107876267C270,272.03288107876267 270,319.6355449238261 520,319.6355449238261L520,319.97512404541163C270,319.97512404541163 270,272.3724602003482 20,272.3724602003482Z" style="stroke: rgb(86, 180, 233); stroke-opacity: 1; fill: rgb(86, 180, 233); fill-opacity: 1; stroke-width: 1; opacity: 1;"/><path class="sankey-link" d="M20,271.3686106747972C270,271.3686106747972 270,278.80463283500575 520,278.80463283500575L520,279.4689032389712C270,279.4689032389712 270,272.03288107876267 20,272.03288107876267Z" style="stroke: rgb(86, 180, 233); stroke-opacity: 1; fill: rgb(86, 180, 233); fill-opacity: 1; stroke-width: 1; opacity: 1;"/><path class="sankey-link" d="M20,287.37246020034826C270,287.37246020034826 270,5.475291695525407 520,5.475291695525407L520,5.572763759135483C270,5.572763759135483 270,287.46993226395836 20,287.46993226395836Z" style="stroke: rgb(128, 128, 0); stroke-opacity: 1; fill: rgb(128, 128, 0); fill-opacity: 1; stroke-width: 1; opacity: 1;"/><path class="sankey-link" d="M20,287.46993226395836C270,287.46993226395836 270,24.412813555890434 520,24.412813555890434L520,24.59737090935018C270,24.59737090935018 270,287.65448961741805 20,287.65448961741805Z" style="stroke: rgb(128, 128, 0); stroke-opacity: 1; fill: rgb(128, 128, 0); fill-opacity: 1; stroke-width: 1; opacity: 1;"/><path class="sankey-link" d="M20,287.6544896174181C270,287.6544896174181 270,69.34828817582647 520,69.34828817582647L520,71.52151974731231C270,71.52151974731231 270,289.827721188904 20,289.827721188904Z" style="stroke: rgb(68, 68, 68); stroke-opacity: 1; fill: rgb(128, 128, 0); fill-opacity: 1; stroke-width: 0; opacity: 1;"/><path class="sankey-link" d="M20,291.70931553496644C270,291.70931553496644 270,183.2920031827545 520,183.2920031827545L520,185.876942524696C270,185.876942524696 270,294.29425487690787 20,294.29425487690787Z" style="stroke: rgb(68, 68, 68); stroke-opacity: 1; fill: rgb(128, 128, 0); fill-opacity: 1; stroke-width: 0; opacity: 1;"/><path class="sankey-link" d="M20,291.584347589476C270,291.584347589476 270,145.49288994182146 520,145.49288994182146L520,145.61785788731189C270,145.61785788731189 270,291.70931553496644 20,291.70931553496644Z" style="stroke: rgb(128, 128, 0); stroke-opacity: 1; fill: rgb(128, 128, 0); fill-opacity: 1; stroke-width: 1; opacity: 1;"/><path class="sankey-link" d="M20,290.50705455181605C270,290.50705455181605 270,127.97484334892849 520,127.97484334892849L520,129.05213638658844C270,129.05213638658844 270,291.584347589476 20,291.584347589476Z" style="stroke: rgb(68, 68, 68); stroke-opacity: 1; fill: rgb(128, 128, 0); fill-opacity: 1; stroke-width: 0; opacity: 1;"/><path class="sankey-link" d="M20,294.2942548769079C270,294.2942548769079 270,210.2218766332584 520,210.2218766332584L520,210.85776968068788C270,210.85776968068788 270,294.9301479243374 20,294.9301479243374Z" style="stroke: rgb(128, 128, 0); stroke-opacity: 1; fill: rgb(128, 128, 0); fill-opacity: 1; stroke-width: 1; opacity: 1;"/><path class="sankey-link" d="M20,294.9301479243374C270,294.9301479243374 270,229.40232548324866 520,229.40232548324866L520,229.82522764793327C270,229.82522764793327 270,295.353050089022 20,295.353050089022Z" style="stroke: rgb(128, 128, 0); stroke-opacity: 1; fill: rgb(128, 128, 0); fill-opacity: 1; stroke-width: 1; opacity: 1;"/><path class="sankey-link" d="M20,289.827721188904C270,289.827721188904 270,96.07635399262347 520,96.07635399262347L520,96.75568735553557C270,96.75568735553557 270,290.50705455181605 20,290.50705455181605Z" style="stroke: rgb(128, 128, 0); stroke-opacity: 1; fill: rgb(128, 128, 0); fill-opacity: 1; stroke-width: 1; opacity: 1;"/><path class="sankey-link" d="M20,319.9751240454116C270,319.9751240454116 270,319.97512404541163 520,319.97512404541163L520,319.99999999999994C270,319.99999999999994 270,319.9999999999999 20,319.9999999999999Z" style="stroke: rgb(128, 128, 0); stroke-opacity: 1; fill: rgb(128, 128, 0); fill-opacity: 1; stroke-width: 1; opacity: 1;"/><path class="sankey-link" d="M20,295.353050089022C270,295.353050089022 270,279.4689032389712 520,279.4689032389712L520,304.0909771953607C270,304.0909771953607 270,319.9751240454115 20,319.9751240454115Z" style="stroke: rgb(68, 68, 68); stroke-opacity: 1; fill: rgb(128, 128, 0); fill-opacity: 1; stroke-width: 0; opacity: 1;"/></g><g class="sankey-node-set" style="cursor: move;"><g class="sankey-node" transform="translate(0.000,-0.000)" style="opacity: 1;"><rect class="node-rect" width="20" height="10.846399544478551" style="stroke-width: 0.5; stroke: rgb(0, 0, 0); stroke-opacity: 1; fill: rgb(211, 211, 211); fill-opacity: 1;"/><text class="node-label" data-notex="1" x="0" y="0" text-anchor="start" transform="translate(23.25,9.623199772239275)" style="cursor: default; font-family: 'Open Sans', verdana, arial, sans-serif; font-size: 12px; fill: rgb(42, 63, 95); fill-opacity: 1; white-space: pre; text-shadow: white 1px 1px 1px, white -1px -1px 1px, white 1px -1px 1px, white -1px 1px 1px;">Africa (14 Mt)</text></g><g class="sankey-node" transform="translate(0.000,52.698)" style="opacity: 1;"><rect class="node-rect" width="20" height="12.282103287661158" style="stroke-width: 0.5; stroke: rgb(0, 0, 0); stroke-opacity: 1; fill: rgb(211, 211, 211); fill-opacity: 1;"/><text class="node-label" data-notex="1" x="0" y="0" text-anchor="start" transform="translate(23.25,10.341051643830578)" style="cursor: default; font-family: 'Open Sans', verdana, arial, sans-serif; font-size: 12px; fill: rgb(42, 63, 95); fill-opacity: 1; white-space: pre; text-shadow: white 1px 1px 1px, white -1px -1px 1px, white 1px -1px 1px, white -1px 1px 1px;">Australia (16 Mt)</text></g><g class="sankey-node" transform="translate(0.000,25.846)" style="opacity: 1;"><rect class="node-rect" width="20" height="11.851427994558662" style="stroke-width: 0.5; stroke: rgb(0, 0, 0); stroke-opacity: 1; fill: rgb(211, 211, 211); fill-opacity: 1;"/><text class="node-label" data-notex="1" x="0" y="0" text-anchor="start" transform="translate(23.25,10.12571399727933)" style="cursor: default; font-family: 'Open Sans', verdana, arial, sans-serif; font-size: 12px; fill: rgb(42, 63, 95); fill-opacity: 1; white-space: pre; text-shadow: white 1px 1px 1px, white -1px -1px 1px, white 1px -1px 1px, white -1px 1px 1px;">China (15 Mt)</text></g><g class="sankey-node" transform="translate(0.000,248.965)" style="opacity: 1;"><rect class="node-rect" width="20" height="5.08481370526539" style="stroke-width: 0.5; stroke: rgb(0, 0, 0); stroke-opacity: 1; fill: rgb(211, 211, 211); fill-opacity: 1;"/><text class="node-label" data-notex="1" x="0" y="0" text-anchor="start" transform="translate(23.25,6.742406852632694)" style="cursor: default; font-family: 'Open Sans', verdana, arial, sans-serif; font-size: 12px; fill: rgb(42, 63, 95); fill-opacity: 1; white-space: pre; text-shadow: white 1px 1px 1px, white -1px -1px 1px, white 1px -1px 1px, white -1px 1px 1px;">Europe (6 Mt)</text></g><g class="sankey-node" transform="translate(0.000,128.238)" style="opacity: 1;"><rect class="node-rect" width="20" height="0.7430653818486803" style="stroke-width: 0.5; stroke: rgb(0, 0, 0); stroke-opacity: 1; fill: rgb(211, 211, 211); fill-opacity: 1;"/><text class="node-label" data-notex="1" x="0" y="0" text-anchor="start" transform="translate(23.25,4.5715326909243394)" style="cursor: default; font-family: 'Open Sans', verdana, arial, sans-serif; font-size: 12px; fill: rgb(42, 63, 95); fill-opacity: 1; white-space: pre; text-shadow: white 1px 1px 1px, white -1px -1px 1px, white 1px -1px 1px, white -1px 1px 1px;">India (0 Mt)</text></g><g class="sankey-node" transform="translate(0.000,216.573)" style="opacity: 1;"><rect class="node-rect" width="20" height="0.5" style="stroke-width: 0.5; stroke: rgb(0, 0, 0); stroke-opacity: 1; fill: rgb(211, 211, 211); fill-opacity: 1;"/><text class="node-label" data-notex="1" x="0" y="0" text-anchor="start" transform="translate(23.25,4.449999999999999)" style="cursor: default; font-family: 'Open Sans', verdana, arial, sans-serif; font-size: 12px; fill: rgb(42, 63, 95); fill-opacity: 1; white-space: pre; text-shadow: white 1px 1px 1px, white -1px -1px 1px, white 1px -1px 1px, white -1px 1px 1px;">Japan and Korea (0 Mt)</text></g><g class="sankey-node" transform="translate(0.000,143.981)" style="opacity: 1;"><rect class="node-rect" width="20" height="57.5914295445688" style="stroke-width: 0.5; stroke: rgb(0, 0, 0); stroke-opacity: 1; fill: rgb(211, 211, 211); fill-opacity: 1;"/><text class="node-label" data-notex="1" x="0" y="0" text-anchor="start" transform="translate(23.25,32.9957147722844)" style="cursor: default; font-family: 'Open Sans', verdana, arial, sans-serif; font-size: 12px; fill: rgb(42, 63, 95); fill-opacity: 1; white-space: pre; text-shadow: white 1px 1px 1px, white -1px -1px 1px, white 1px -1px 1px, white -1px 1px 1px;">Latin America (76 Mt)</text></g><g class="sankey-node" transform="translate(0.000,231.630)" style="opacity: 1;"><rect class="node-rect" width="20" height="2.334860475918049" style="stroke-width: 0.5; stroke: rgb(0, 0, 0); stroke-opacity: 1; fill: rgb(211, 211, 211); fill-opacity: 1;"/><text class="node-label" data-notex="1" x="0" y="0" text-anchor="start" transform="translate(23.25,5.367430237959024)" style="cursor: default; font-family: 'Open Sans', verdana, arial, sans-serif; font-size: 12px; fill: rgb(42, 63, 95); fill-opacity: 1; white-space: pre; text-shadow: white 1px 1px 1px, white -1px -1px 1px, white 1px -1px 1px, white -1px 1px 1px;">Middle East (3 Mt)</text></g><g class="sankey-node" transform="translate(0.000,79.980)" style="opacity: 1;"><rect class="node-rect" width="20" height="33.25819306451265" style="stroke-width: 0.5; stroke: rgb(0, 0, 0); stroke-opacity: 1; fill: rgb(211, 211, 211); fill-opacity: 1;"/><text class="node-label" data-notex="1" x="0" y="0" text-anchor="start" transform="translate(23.25,20.829096532256326)" style="cursor: default; font-family: 'Open Sans', verdana, arial, sans-serif; font-size: 12px; fill: rgb(42, 63, 95); fill-opacity: 1; white-space: pre; text-shadow: white 1px 1px 1px, white -1px -1px 1px, white 1px -1px 1px, white -1px 1px 1px;">Rest of Asia (44 Mt)</text></g><g class="sankey-node" transform="translate(0.000,269.049)" style="opacity: 1;"><rect class="node-rect" width="20" height="3.3231209727656505" style="stroke-width: 0.5; stroke: rgb(0, 0, 0); stroke-opacity: 1; fill: rgb(211, 211, 211); fill-opacity: 1;"/><text class="node-label" data-notex="1" x="0" y="0" text-anchor="start" transform="translate(23.25,5.861560486382825)" style="cursor: default; font-family: 'Open Sans', verdana, arial, sans-serif; font-size: 12px; fill: rgb(42, 63, 95); fill-opacity: 1; white-space: pre; text-shadow: white 1px 1px 1px, white -1px -1px 1px, white 1px -1px 1px, white -1px 1px 1px;">Russia (4 Mt)</text></g><g class="sankey-node" transform="translate(0.000,287.372)" style="opacity: 1;"><rect class="node-rect" width="20" height="32.62753979965174" style="stroke-width: 0.5; stroke: rgb(0, 0, 0); stroke-opacity: 1; fill: rgb(211, 211, 211); fill-opacity: 1;"/><text class="node-label" data-notex="1" x="0" y="0" text-anchor="start" transform="translate(23.25,20.51376989982587)" style="cursor: default; font-family: 'Open Sans', verdana, arial, sans-serif; font-size: 12px; fill: rgb(42, 63, 95); fill-opacity: 1; white-space: pre; text-shadow: white 1px 1px 1px, white -1px -1px 1px, white 1px -1px 1px, white -1px 1px 1px;">USA and Canada (43 Mt)</text></g><g class="sankey-node" transform="translate(520.000,-0.000)" style="opacity: 1;"><rect class="node-rect" width="20" height="5.572763759135707" style="stroke-width: 0.5; stroke: rgb(0, 0, 0); stroke-opacity: 1; fill: rgb(211, 211, 211); fill-opacity: 1;"/><text class="node-label" data-notex="1" x="0" y="0" text-anchor="end" transform="translate(-3.25,6.986381879567853)" style="cursor: default; font-family: 'Open Sans', verdana, arial, sans-serif; font-size: 12px; fill: rgb(42, 63, 95); fill-opacity: 1; white-space: pre; text-shadow: white 1px 1px 1px, white -1px -1px 1px, white 1px -1px 1px, white -1px 1px 1px;">Africa (7 Mt)</text></g><g class="sankey-node" transform="translate(520.000,20.573)" style="opacity: 1;"><rect class="node-rect" width="20" height="4.024607150214706" style="stroke-width: 0.5; stroke: rgb(0, 0, 0); stroke-opacity: 1; fill: rgb(211, 211, 211); fill-opacity: 1;"/><text class="node-label" data-notex="1" x="0" y="0" text-anchor="end" transform="translate(-3.25,6.212303575107352)" style="cursor: default; font-family: 'Open Sans', verdana, arial, sans-serif; font-size: 12px; fill: rgb(42, 63, 95); fill-opacity: 1; white-space: pre; text-shadow: white 1px 1px 1px, white -1px -1px 1px, white 1px -1px 1px, white -1px 1px 1px;">Australia (5 Mt)</text></g><g class="sankey-node" transform="translate(520.000,39.597)" style="opacity: 1;"><rect class="node-rect" width="20" height="31.924148837962207" style="stroke-width: 0.5; stroke: rgb(0, 0, 0); stroke-opacity: 1; fill: rgb(211, 211, 211); fill-opacity: 1;"/><text class="node-label" data-notex="1" x="0" y="0" text-anchor="end" transform="translate(-3.25,20.162074418981103)" style="cursor: default; font-family: 'Open Sans', verdana, arial, sans-serif; font-size: 12px; fill: rgb(42, 63, 95); fill-opacity: 1; white-space: pre; text-shadow: white 1px 1px 1px, white -1px -1px 1px, white 1px -1px 1px, white -1px 1px 1px;">China (42 Mt)</text></g><g class="sankey-node" transform="translate(520.000,160.618)" style="opacity: 1;"><rect class="node-rect" width="20" height="25.259084637384092" style="stroke-width: 0.5; stroke: rgb(0, 0, 0); stroke-opacity: 1; fill: rgb(211, 211, 211); fill-opacity: 1;"/><text class="node-label" data-notex="1" x="0" y="0" text-anchor="end" transform="translate(-3.25,16.829542318692045)" style="cursor: default; font-family: 'Open Sans', verdana, arial, sans-serif; font-size: 12px; fill: rgb(42, 63, 95); fill-opacity: 1; white-space: pre; text-shadow: white 1px 1px 1px, white -1px -1px 1px, white 1px -1px 1px, white -1px 1px 1px;">Europe (33 Mt)</text></g><g class="sankey-node" transform="translate(520.000,144.052)" style="opacity: 1;"><rect class="node-rect" width="20" height="1.5657215007234413" style="stroke-width: 0.5; stroke: rgb(0, 0, 0); stroke-opacity: 1; fill: rgb(211, 211, 211); fill-opacity: 1;"/><text class="node-label" data-notex="1" x="0" y="0" text-anchor="end" transform="translate(-3.25,4.98286075036172)" style="cursor: default; font-family: 'Open Sans', verdana, arial, sans-serif; font-size: 12px; fill: rgb(42, 63, 95); fill-opacity: 1; white-space: pre; text-shadow: white 1px 1px 1px, white -1px -1px 1px, white 1px -1px 1px, white -1px 1px 1px;">India (2 Mt)</text></g><g class="sankey-node" transform="translate(520.000,111.756)" style="opacity: 1;"><rect class="node-rect" width="20" height="17.2964490310529" style="stroke-width: 0.5; stroke: rgb(0, 0, 0); stroke-opacity: 1; fill: rgb(211, 211, 211); fill-opacity: 1;"/><text class="node-label" data-notex="1" x="0" y="0" text-anchor="end" transform="translate(-3.25,12.84822451552645)" style="cursor: default; font-family: 'Open Sans', verdana, arial, sans-serif; font-size: 12px; fill: rgb(42, 63, 95); fill-opacity: 1; white-space: pre; text-shadow: white 1px 1px 1px, white -1px -1px 1px, white 1px -1px 1px, white -1px 1px 1px;">Japan and Korea (22 Mt)</text></g><g class="sankey-node" transform="translate(520.000,200.877)" style="opacity: 1;"><rect class="node-rect" width="20" height="9.980827155991904" style="stroke-width: 0.5; stroke: rgb(0, 0, 0); stroke-opacity: 1; fill: rgb(211, 211, 211); fill-opacity: 1;"/><text class="node-label" data-notex="1" x="0" y="0" text-anchor="end" transform="translate(-3.25,9.190413577995951)" style="cursor: default; font-family: 'Open Sans', verdana, arial, sans-serif; font-size: 12px; fill: rgb(42, 63, 95); fill-opacity: 1; white-space: pre; text-shadow: white 1px 1px 1px, white -1px -1px 1px, white 1px -1px 1px, white -1px 1px 1px;">Latin America (13 Mt)</text></g><g class="sankey-node" transform="translate(520.000,225.858)" style="opacity: 1;"><rect class="node-rect" width="20" height="3.967457967245423" style="stroke-width: 0.5; stroke: rgb(0, 0, 0); stroke-opacity: 1; fill: rgb(211, 211, 211); fill-opacity: 1;"/><text class="node-label" data-notex="1" x="0" y="0" text-anchor="end" transform="translate(-3.25,6.183728983622711)" style="cursor: default; font-family: 'Open Sans', verdana, arial, sans-serif; font-size: 12px; fill: rgb(42, 63, 95); fill-opacity: 1; white-space: pre; text-shadow: white 1px 1px 1px, white -1px -1px 1px, white 1px -1px 1px, white -1px 1px 1px;">Middle East (5 Mt)</text></g><g class="sankey-node" transform="translate(520.000,86.522)" style="opacity: 1;"><rect class="node-rect" width="20" height="10.234167608223174" style="stroke-width: 0.5; stroke: rgb(0, 0, 0); stroke-opacity: 1; fill: rgb(211, 211, 211); fill-opacity: 1;"/><text class="node-label" data-notex="1" x="0" y="0" text-anchor="end" transform="translate(-3.25,9.317083804111586)" style="cursor: default; font-family: 'Open Sans', verdana, arial, sans-serif; font-size: 12px; fill: rgb(42, 63, 95); fill-opacity: 1; white-space: pre; text-shadow: white 1px 1px 1px, white -1px -1px 1px, white 1px -1px 1px, white -1px 1px 1px;">Rest of Asia (13 Mt)</text></g><g class="sankey-node" transform="translate(520.000,319.091)" style="opacity: 1;"><rect class="node-rect" width="20" height="0.9090228046391076" style="stroke-width: 0.5; stroke: rgb(0, 0, 0); stroke-opacity: 1; fill: rgb(211, 211, 211); fill-opacity: 1;"/><text class="node-label" data-notex="1" x="0" y="0" text-anchor="end" transform="translate(-3.25,4.654511402319553)" style="cursor: default; font-family: 'Open Sans', verdana, arial, sans-serif; font-size: 12px; fill: rgb(42, 63, 95); fill-opacity: 1; white-space: pre; text-shadow: white 1px 1px 1px, white -1px -1px 1px, white 1px -1px 1px, white -1px 1px 1px;">Russia (1 Mt)</text></g><g class="sankey-node" transform="translate(520.000,244.825)" style="opacity: 1;"><rect class="node-rect" width="20" height="59.26574954742762" style="stroke-width: 0.5; stroke: rgb(0, 0, 0); stroke-opacity: 1; fill: rgb(211, 211, 211); fill-opacity: 1;"/><text class="node-label" data-notex="1" x="0" y="0" text-anchor="end" transform="translate(-3.25,33.83287477371381)" style="cursor: default; font-family: 'Open Sans', verdana, arial, sans-serif; font-size: 12px; fill: rgb(42, 63, 95); fill-opacity: 1; white-space: pre; text-shadow: white 1px 1px 1px, white -1px -1px 1px, white 1px -1px 1px, white -1px 1px 1px;">USA and Canada (78 Mt)</text></g></g></g><defs id="topdefs-e2601e"><g class="clips"/></defs><g class="layer-above"><g class="imagelayer"/><g class="shapelayer"/></g><g class="infolayer"><g class="g-gtitle"/><g class="first-render"/></g></svg>