<svg class="main-svg" xmlns="http://www.w3.org/2000/svg" xmlns:xlink="http://www.w3.org/1999/xlink" width="700" height="500" viewBox="0 0 700 500"><rect x="0" y="0" width="700" height="500" style="fill: rgb(255, 255, 255); fill-opacity: 1;"/><defs id="defs-7fbd1d"><g class="clips"/><g class="gradients"/><g class="patterns"/></defs><g class="bglayer"/><g class="layer-below"><g class="imagelayer"/><g class="shapelayer"/></g><g class="cartesianlayer"/><g class="polarlayer"/><g class="smithlayer"/><g class="ternarylayer"/><g class="geolayer"/><g class="funnelarealayer"/><g class="pielayer"/><g class="iciclelayer"/><g class="treemaplayer"/><g class="sunburstlayer"/><g class="glimages"/><g class="sankey" transform="translate(80,100)matrix(1 0 0 1 0 0)" style="box-sizing: content-box; position: absolute; left: 0px; shape-rendering: geometricPrecision; pointer-events: auto;"><g class="sankey-links" style="fill: none;"><path class="sankey-link" d="M20,99.37059945502199C270,99.37059945502199 270,91.02145003101704 520,91.02145003101704L520,93.92095998800677C270,93.92095998800677 270,102.27010941201172 20,102.27010941201172Z" style="stroke: rgb(68, 68, 68); stroke-opacity: 1; fill: rgb(1, 115, 178); fill-opacity: 1; stroke-width: 0; opacity: 1;"/><path class="sankey-link" d="M20,102.27010941201172C270,102.27010941201172 270,109.92131337343069 520,109.92131337343069L520,109.94218898591483C270,109.94218898591483 270,102.29098502449585 20,102.29098502449585Z" style="stroke: rgb(1, 115, 178); stroke-opacity: 1; fill: rgb(1, 115, 178); fill-opacity: 1; stroke-width: 1; opacity: 1;"/><path class="sankey-link" d="M20,98.96395906600259C270,98.96395906600259 270,67.73981919662226 520,67.73981919662226L520,68.14645958564167C270,68.14645958564167 270,99.37059945502199 20,99.37059945502199Z" style="stroke: rgb(1, 115, 178); stroke-opacity: 1; fill: rgb(1, 115, 178); fill-opacity: 1; stroke-width: 1; opacity: 1;"/><path class="sankey-link" d="M20,102.29098502449585C270,102.29098502449585 270,128.96087062111022 520,128.96087062111022L520,129.74388553590953C270,129.74388553590953 270,103.07399993929513 20,103.07399993929513Z" style="stroke: rgb(1, 115, 178); stroke-opacity: 1; fill: rgb(1, 115, 178); fill-opacity: 1; stroke-width: 1; opacity: 1;"/><path class="sankey-link" d="M20,103.19063782507732C270,103.19063782507732 270,185.1323152056091 520,185.1323152056091L520,185.19409141401857C270,185.19409141401857 270,103.25241403348682 20,103.25241403348682Z" style="stroke: rgb(1, 115, 178); stroke-opacity: 1; fill: rgb(1, 115, 178); fill-opacity: 1; stroke-width: 1; opacity: 1;"/><path class="sankey-link" d="M20,103.07399993929513C270,103.07399993929513 270,164.78408981307712 520,164.78408981307712L520,164.90072769885933C270,164.90072769885933 270,103.19063782507732 20,103.19063782507732Z" style="stroke: rgb(1, 115, 178); stroke-opacity: 1; fill: rgb(1, 115, 178); fill-opacity: 1; stroke-width: 1; opacity: 1;"/><path class="sankey-link" d="M20,103.4840539719978C270,103.4840539719978 270,246.8258725670324 520,246.8258725670324L520,246.93050596462254C270,246.93050596462254 270,103.5886873695879 20,103.5886873695879Z" style="stroke: rgb(1, 115, 178); stroke-opacity: 1; fill: rgb(1, 115, 178); fill-opacity: 1; stroke-width: 1; opacity: 1;"/><path class="sankey-link" d="M20,103.36471902151726C270,103.36471902151726 270,222.58446709926503 520,222.58446709926503L520,222.70380204974558C270,222.70380204974558 270,103.48405397199778 20,103.48405397199778Z" style="stroke: rgb(1, 115, 178); stroke-opacity: 1; fill: rgb(1, 115, 178); fill-opacity: 1; stroke-width: 1; opacity: 1;"/><path class="sankey-link" d="M20,103.2524140334868C270,103.2524140334868 270,202.7800259163855 520,202.7800259163855L520,202.89233090441599C270,202.89233090441599 270,103.36471902151725 20,103.36471902151725Z" style="stroke: rgb(1, 115, 178); stroke-opacity: 1; fill: rgb(1, 115, 178); fill-opacity: 1; stroke-width: 1; opacity: 1;"/><path class="sankey-link" d="M20,104.19919938740358C270,104.19919938740358 270,319.1412490379805 520,319.1412490379805L520,319.14701207555356C270,319.14701207555356 270,104.20496242497669 20,104.20496242497669Z" style="stroke: rgb(1, 115, 178); stroke-opacity: 1; fill: rgb(1, 115, 178); fill-opacity: 1; stroke-width: 1; opacity: 1;"/><path class="sankey-link" d="M20,103.5886873695879C270,103.5886873695879 270,272.9140546129453 520,272.9140546129453L520,273.524566630761C270,273.524566630761 270,104.19919938740357 20,104.19919938740357Z" style="stroke: rgb(1, 115, 178); stroke-opacity: 1; fill: rgb(1, 115, 178); fill-opacity: 1; stroke-width: 1; opacity: 1;"/><path class="sankey-link" d="M20,119.25384386017284C270,119.25384386017284 270,93.92095998800677 520,93.92095998800677L520,93.92333456996452C270,93.92333456996452 270,119.25621844213059 20,119.25621844213059Z" style="stroke: rgb(222, 143, 5); stroke-opacity: 1; fill: rgb(222, 143, 5); fill-opacity: 1; stroke-width: 1; opacity: 1;"/><path class="sankey-link" d="M20,119.25621844213057C270,119.25621844213057 270,109.94218898591483 520,109.94218898591483L520,110.1161712476517C270,110.1161712476517 270,119.43020070386746 20,119.43020070386746Z" style="stroke: rgb(222, 143, 5); stroke-opacity: 1; fill: rgb(222, 143, 5); fill-opacity: 1; stroke-width: 1; opacity: 1;"/><path class="sankey-link" d="M20,119.20496242497663C270,119.20496242497663 270,68.14645958564167 520,68.14645958564167L520,68.19534102083786C270,68.19534102083786 270,119.25384386017282 20,119.25384386017282Z" style="stroke: rgb(222, 143, 5); stroke-opacity: 1; fill: rgb(222, 143, 5); fill-opacity: 1; stroke-width: 1; opacity: 1;"/><path class="sankey-link" d="M20,119.43020070386744C270,119.43020070386744 270,129.7438855359095 520,129.7438855359095L520,129.78144717998885C270,129.78144717998885 270,119.46776234794679 20,119.46776234794679Z" style="stroke: rgb(222, 143, 5); stroke-opacity: 1; fill: rgb(222, 143, 5); fill-opacity: 1; stroke-width: 1; opacity: 1;"/><path class="sankey-link" d="M20,119.50348734131715C270,119.50348734131715 270,185.1940914140186 520,185.1940914140186L520,185.1963472244961C270,185.1963472244961 270,119.50574315179462 20,119.50574315179462Z" style="stroke: rgb(222, 143, 5); stroke-opacity: 1; fill: rgb(222, 143, 5); fill-opacity: 1; stroke-width: 1; opacity: 1;"/><path class="sankey-link" d="M20,119.46776234794679C270,119.46776234794679 270,164.9007276988593 520,164.9007276988593L520,164.93645269222966C270,164.93645269222966 270,119.50348734131715 20,119.50348734131715Z" style="stroke: rgb(222, 143, 5); stroke-opacity: 1; fill: rgb(222, 143, 5); fill-opacity: 1; stroke-width: 1; opacity: 1;"/><path class="sankey-link" d="M20,119.52762134695882C270,119.52762134695882 270,246.9305059646225 520,246.9305059646225L520,246.9352647725936C270,246.9352647725936 270,119.53238015492991 20,119.53238015492991Z" style="stroke: rgb(222, 143, 5); stroke-opacity: 1; fill: rgb(222, 143, 5); fill-opacity: 1; stroke-width: 1; opacity: 1;"/><path class="sankey-link" d="M20,119.52294095239641C270,119.52294095239641 270,222.70380204974555 520,222.70380204974555L520,222.70848244430795C270,222.70848244430795 270,119.52762134695884 20,119.52762134695884Z" style="stroke: rgb(222, 143, 5); stroke-opacity: 1; fill: rgb(222, 143, 5); fill-opacity: 1; stroke-width: 1; opacity: 1;"/><path class="sankey-link" d="M20,119.50574315179462C270,119.50574315179462 270,202.89233090441596 520,202.89233090441596L520,202.90952870501772C270,202.90952870501772 270,119.52294095239641 20,119.52294095239641Z" style="stroke: rgb(222, 143, 5); stroke-opacity: 1; fill: rgb(222, 143, 5); fill-opacity: 1; stroke-width: 1; opacity: 1;"/><path class="sankey-link" d="M20,119.57131742257064C270,119.57131742257064 270,319.1470120755536 520,319.1470120755536L520,319.14741171167447C270,319.14741171167447 270,119.57171705869146 20,119.57171705869146Z" style="stroke: rgb(222, 143, 5); stroke-opacity: 1; fill: rgb(222, 143, 5); fill-opacity: 1; stroke-width: 1; opacity: 1;"/><path class="sankey-link" d="M20,119.53238015492991C270,119.53238015492991 270,273.52456663076094 520,273.52456663076094L520,273.5635038984016C270,273.5635038984016 270,119.57131742257064 20,119.57131742257064Z" style="stroke: rgb(222, 143, 5); stroke-opacity: 1; fill: rgb(222, 143, 5); fill-opacity: 1; stroke-width: 1; opacity: 1;"/><path class="sankey-link" d="M20,67.7398191966223C270,67.7398191966223 270,90.68620753754553 520,90.68620753754553L520,91.02145003101703C270,91.02145003101703 270,68.0750616900938 20,68.0750616900938Z" style="stroke: rgb(2, 158, 115); stroke-opacity: 1; fill: rgb(2, 158, 115); fill-opacity: 1; stroke-width: 1; opacity: 1;"/><path class="sankey-link" d="M20,68.07506169009382C270,68.07506169009382 270,109.55963265500631 520,109.55963265500631L520,109.9213133734307C270,109.9213133734307 270,68.43674240851821 20,68.43674240851821Z" style="stroke: rgb(2, 158, 115); stroke-opacity: 1; fill: rgb(2, 158, 115); fill-opacity: 1; stroke-width: 1; opacity: 1;"/><path class="sankey-link" d="M20,2.842170943040401e-14C270,2.842170943040401e-14 270,-1.4210854715202004e-14 520,-1.4210854715202004e-14L520,67.73981919662226C270,67.73981919662226 270,67.7398191966223 20,67.7398191966223Z" style="stroke: rgb(68, 68, 68); stroke-opacity: 1; fill: rgb(2, 158, 115); fill-opacity: 1; stroke-width: 0; opacity: 1;"/><path class="sankey-link" d="M20,68.4367424085182C270,68.4367424085182 270,125.43150278671038 520,125.43150278671038L520,128.96087062111022C270,128.96087062111022 270,71.96611024291803 20,71.96611024291803Z" style="stroke: rgb(68, 68, 68); stroke-opacity: 1; fill: rgb(2, 158, 115); fill-opacity: 1; stroke-width: 0; opacity: 1;"/><path class="sankey-link" d="M20,74.28303899900395C270,74.28303899900395 270,184.78921211228146 520,184.78921211228146L520,185.13231520560907C270,185.13231520560907 270,74.62614209233159 20,74.62614209233159Z" style="stroke: rgb(2, 158, 115); stroke-opacity: 1; fill: rgb(2, 158, 115); fill-opacity: 1; stroke-width: 1; opacity: 1;"/><path class="sankey-link" d="M20,71.96611024291803C270,71.96611024291803 270,162.4671610569912 520,162.4671610569912L520,164.78408981307712C270,164.78408981307712 270,74.28303899900396 20,74.28303899900396Z" style="stroke: rgb(68, 68, 68); stroke-opacity: 1; fill: rgb(2, 158, 115); fill-opacity: 1; stroke-width: 0; opacity: 1;"/><path class="sankey-link" d="M20,76.96295361663394C270,76.96295361663394 270,245.68129016930573 520,245.68129016930573L520,246.82587256703238C270,246.82587256703238 270,78.10753601436062 20,78.10753601436062Z" style="stroke: rgb(68, 68, 68); stroke-opacity: 1; fill: rgb(2, 158, 115); fill-opacity: 1; stroke-width: 0; opacity: 1;"/><path class="sankey-link" d="M20,76.21110482308973C270,76.21110482308973 270,221.8326183057208 520,221.8326183057208L520,222.58446709926505C270,222.58446709926505 270,76.96295361663394 20,76.96295361663394Z" style="stroke: rgb(2, 158, 115); stroke-opacity: 1; fill: rgb(2, 158, 115); fill-opacity: 1; stroke-width: 1; opacity: 1;"/><path class="sankey-link" d="M20,74.62614209233158C270,74.62614209233158 270,201.19506318562736 520,201.19506318562736L520,202.7800259163855C270,202.7800259163855 270,76.21110482308973 20,76.21110482308973Z" style="stroke: rgb(68, 68, 68); stroke-opacity: 1; fill: rgb(2, 158, 115); fill-opacity: 1; stroke-width: 0; opacity: 1;"/><path class="sankey-link" d="M20,83.90397696023C270,83.90397696023 270,319.0812669322079 520,319.0812669322079L520,319.1412490379805C270,319.1412490379805 270,83.9639590660026 20,83.9639590660026Z" style="stroke: rgb(2, 158, 115); stroke-opacity: 1; fill: rgb(2, 158, 115); fill-opacity: 1; stroke-width: 1; opacity: 1;"/><path class="sankey-link" d="M20,78.1075360143606C270,78.1075360143606 270,267.1176136670759 520,267.1176136670759L520,272.9140546129452C270,272.9140546129452 270,83.90397696023 20,83.90397696023Z" style="stroke: rgb(68, 68, 68); stroke-opacity: 1; fill: rgb(2, 158, 115); fill-opacity: 1; stroke-width: 0; opacity: 1;"/><path class="sankey-link" d="M20,135.0045957446926C270,135.0045957446926 270,93.92333456996451 520,93.92333456996451L520,94.0831903913732C270,94.0831903913732 270,135.16445156610126 20,135.16445156610126Z" style="stroke: rgb(213, 94, 0); stroke-opacity: 1; fill: rgb(213, 94, 0); fill-opacity: 1; stroke-width: 1; opacity: 1;"/><path class="sankey-link" d="M20,135.1644515661013C270,135.1644515661013 270,110.11617124765169 520,110.11617124765169L520,110.15962986476623C270,110.15962986476623 270,135.20791018321583 20,135.20791018321583Z" style="stroke: rgb(213, 94, 0); stroke-opacity: 1; fill: rgb(213, 94, 0); fill-opacity: 1; stroke-width: 1; opacity: 1;"/><path class="sankey-link" d="M20,134.57171705869152C270,134.57171705869152 270,68.19534102083787 520,68.19534102083787L520,68.62821970683896C270,68.62821970683896 270,135.00459574469264 20,135.00459574469264Z" style="stroke: rgb(213, 94, 0); stroke-opacity: 1; fill: rgb(213, 94, 0); fill-opacity: 1; stroke-width: 1; opacity: 1;"/><path class="sankey-link" d="M20,135.20791018321583C270,135.20791018321583 270,129.78144717998885 520,129.78144717998885L520,142.12342914343844C270,142.12342914343844 270,147.54989214666543 20,147.54989214666543Z" style="stroke: rgb(68, 68, 68); stroke-opacity: 1; fill: rgb(213, 94, 0); fill-opacity: 1; stroke-width: 0; opacity: 1;"/><path class="sankey-link" d="M20,147.75201354756547C270,147.75201354756547 270,185.19634722449607 520,185.19634722449607L520,185.24608575556655C270,185.24608575556655 270,147.80175207863596 20,147.80175207863596Z" style="stroke: rgb(213, 94, 0); stroke-opacity: 1; fill: rgb(213, 94, 0); fill-opacity: 1; stroke-width: 1; opacity: 1;"/><path class="sankey-link" d="M20,147.54989214666546C270,147.54989214666546 270,164.93645269222966 520,164.93645269222966L520,165.13857409312968C270,165.13857409312968 270,147.75201354756547 20,147.75201354756547Z" style="stroke: rgb(213, 94, 0); stroke-opacity: 1; fill: rgb(213, 94, 0); fill-opacity: 1; stroke-width: 1; opacity: 1;"/><path class="sankey-link" d="M20,148.29665686448783C270,148.29665686448783 270,246.9352647725936 520,246.9352647725936L520,247.1266391199265C270,247.1266391199265 270,148.48803121182073 20,148.48803121182073Z" style="stroke: rgb(213, 94, 0); stroke-opacity: 1; fill: rgb(213, 94, 0); fill-opacity: 1; stroke-width: 1; opacity: 1;"/><path class="sankey-link" d="M20,147.9938450563849C270,147.9938450563849 270,222.70848244430798 520,222.70848244430798L520,223.01129425241086C270,223.01129425241086 270,148.2966568644878 20,148.2966568644878Z" style="stroke: rgb(213, 94, 0); stroke-opacity: 1; fill: rgb(213, 94, 0); fill-opacity: 1; stroke-width: 1; opacity: 1;"/><path class="sankey-link" d="M20,147.80175207863596C270,147.80175207863596 270,202.90952870501775 520,202.90952870501775L520,203.10162168276673C270,203.10162168276673 270,147.99384505638494 20,147.99384505638494Z" style="stroke: rgb(213, 94, 0); stroke-opacity: 1; fill: rgb(213, 94, 0); fill-opacity: 1; stroke-width: 1; opacity: 1;"/><path class="sankey-link" d="M20,149.6149718257358C270,149.6149718257358 270,319.14741171167447 520,319.14741171167447L520,319.22301407548827C270,319.22301407548827 270,149.69057418954955 20,149.69057418954955Z" style="stroke: rgb(213, 94, 0); stroke-opacity: 1; fill: rgb(213, 94, 0); fill-opacity: 1; stroke-width: 1; opacity: 1;"/><path class="sankey-link" d="M20,148.48803121182073C270,148.48803121182073 270,273.5635038984017 520,273.5635038984017L520,274.69044451231673C270,274.69044451231673 270,149.61497182573578 20,149.61497182573578Z" style="stroke: rgb(68, 68, 68); stroke-opacity: 1; fill: rgb(213, 94, 0); fill-opacity: 1; stroke-width: 0; opacity: 1;"/><path class="sankey-link" d="M20,168.2015727802676C270,168.2015727802676 270,94.0831903913732 520,94.0831903913732L520,94.14435129579172C270,94.14435129579172 270,168.2627336846861 20,168.2627336846861Z" style="stroke: rgb(204, 120, 188); stroke-opacity: 1; fill: rgb(204, 120, 188); fill-opacity: 1; stroke-width: 1; opacity: 1;"/><path class="sankey-link" d="M20,168.26273368468614C270,168.26273368468614 270,110.15962986476623 520,110.15962986476623L520,110.21349354842832C270,110.21349354842832 270,168.31659736834823 20,168.31659736834823Z" style="stroke: rgb(204, 120, 188); stroke-opacity: 1; fill: rgb(204, 120, 188); fill-opacity: 1; stroke-width: 1; opacity: 1;"/><path class="sankey-link" d="M20,164.69057418954955C270,164.69057418954955 270,68.62821970683896 520,68.62821970683896L520,72.13921829755702C270,72.13921829755702 270,168.20157278026764 20,168.20157278026764Z" style="stroke: rgb(68, 68, 68); stroke-opacity: 1; fill: rgb(204, 120, 188); fill-opacity: 1; stroke-width: 0; opacity: 1;"/><path class="sankey-link" d="M20,168.31659736834823C270,168.31659736834823 270,142.12342914343847 520,142.12342914343847L520,143.03198634872766C270,143.03198634872766 270,169.2251545736374 20,169.2251545736374Z" style="stroke: rgb(204, 120, 188); stroke-opacity: 1; fill: rgb(204, 120, 188); fill-opacity: 1; stroke-width: 1; opacity: 1;"/><path class="sankey-link" d="M20,169.67416050457558C270,169.67416050457558 270,185.24608575556655 520,185.24608575556655L520,185.72903308429804C270,185.72903308429804 270,170.15710783330707 20,170.15710783330707Z" style="stroke: rgb(204, 120, 188); stroke-opacity: 1; fill: rgb(204, 120, 188); fill-opacity: 1; stroke-width: 1; opacity: 1;"/><path class="sankey-link" d="M20,169.22515457363744C270,169.22515457363744 270,165.13857409312968 520,165.13857409312968L520,165.58758002406782C270,165.58758002406782 270,169.67416050457558 20,169.67416050457558Z" style="stroke: rgb(204, 120, 188); stroke-opacity: 1; fill: rgb(204, 120, 188); fill-opacity: 1; stroke-width: 1; opacity: 1;"/><path class="sankey-link" d="M20,174.7302825685377C270,174.7302825685377 270,247.1266391199265 520,247.1266391199265L520,247.46172513856607C270,247.46172513856607 270,175.06536858717726 20,175.06536858717726Z" style="stroke: rgb(204, 120, 188); stroke-opacity: 1; fill: rgb(204, 120, 188); fill-opacity: 1; stroke-width: 1; opacity: 1;"/><path class="sankey-link" d="M20,170.43083592990297C270,170.43083592990297 270,223.0112942524109 520,223.0112942524109L520,227.3107408910456C270,227.3107408910456 270,174.7302825685377 20,174.7302825685377Z" style="stroke: rgb(68, 68, 68); stroke-opacity: 1; fill: rgb(204, 120, 188); fill-opacity: 1; stroke-width: 0; opacity: 1;"/><path class="sankey-link" d="M20,170.15710783330707C270,170.15710783330707 270,203.1016216827667 520,203.1016216827667L520,203.3753497793626C270,203.3753497793626 270,170.43083592990297 20,170.43083592990297Z" style="stroke: rgb(204, 120, 188); stroke-opacity: 1; fill: rgb(204, 120, 188); fill-opacity: 1; stroke-width: 1; opacity: 1;"/><path class="sankey-link" d="M20,176.08109551959416C270,176.08109551959416 270,319.2230140754882 520,319.2230140754882L520,319.23202208494854C270,319.23202208494854 270,176.0901035290545 20,176.0901035290545Z" style="stroke: rgb(204, 120, 188); stroke-opacity: 1; fill: rgb(204, 120, 188); fill-opacity: 1; stroke-width: 1; opacity: 1;"/><path class="sankey-link" d="M20,175.06536858717726C270,175.06536858717726 270,274.69044451231673 520,274.69044451231673L520,275.7061714447336C270,275.7061714447336 270,176.08109551959416 20,176.08109551959416Z" style="stroke: rgb(68, 68, 68); stroke-opacity: 1; fill: rgb(204, 120, 188); fill-opacity: 1; stroke-width: 0; opacity: 1;"/><path class="sankey-link" d="M20,191.30182914801463C270,191.30182914801463 270,94.14435129579172 520,94.14435129579172L520,94.15671380736526C270,94.15671380736526 270,191.31419165958818 20,191.31419165958818Z" style="stroke: rgb(202, 145, 97); stroke-opacity: 1; fill: rgb(202, 145, 97); fill-opacity: 1; stroke-width: 1; opacity: 1;"/><path class="sankey-link" d="M20,191.31419165958818C270,191.31419165958818 270,110.21349354842832 520,110.21349354842832L520,110.22232070063782C270,110.22232070063782 270,191.32301881179768 20,191.32301881179768Z" style="stroke: rgb(202, 145, 97); stroke-opacity: 1; fill: rgb(202, 145, 97); fill-opacity: 1; stroke-width: 1; opacity: 1;"/><path class="sankey-link" d="M20,191.09010352905446C270,191.09010352905446 270,72.13921829755704 520,72.13921829755704L520,72.35094391651721C270,72.35094391651721 270,191.30182914801466 20,191.30182914801466Z" style="stroke: rgb(202, 145, 97); stroke-opacity: 1; fill: rgb(202, 145, 97); fill-opacity: 1; stroke-width: 1; opacity: 1;"/><path class="sankey-link" d="M20,191.32301881179768C270,191.32301881179768 270,143.03198634872768 520,143.03198634872768L520,143.1486107389598C270,143.1486107389598 270,191.4396432020298 20,191.4396432020298Z" style="stroke: rgb(202, 145, 97); stroke-opacity: 1; fill: rgb(202, 145, 97); fill-opacity: 1; stroke-width: 1; opacity: 1;"/><path class="sankey-link" d="M20,193.96452331533476C270,193.96452331533476 270,185.72903308429804 520,185.72903308429804L520,185.74079214342507C270,185.74079214342507 270,193.9762823744618 20,193.9762823744618Z" style="stroke: rgb(202, 145, 97); stroke-opacity: 1; fill: rgb(202, 145, 97); fill-opacity: 1; stroke-width: 1; opacity: 1;"/><path class="sankey-link" d="M20,191.4396432020298C270,191.4396432020298 270,165.58758002406782 520,165.58758002406782L520,168.11246013737278C270,168.11246013737278 270,193.96452331533476 20,193.96452331533476Z" style="stroke: rgb(68, 68, 68); stroke-opacity: 1; fill: rgb(202, 145, 97); fill-opacity: 1; stroke-width: 0; opacity: 1;"/><path class="sankey-link" d="M20,194.06191591710262C270,194.06191591710262 270,247.46172513856607 520,247.46172513856607L520,247.49252640809618C270,247.49252640809618 270,194.09271718663274 20,194.09271718663274Z" style="stroke: rgb(202, 145, 97); stroke-opacity: 1; fill: rgb(202, 145, 97); fill-opacity: 1; stroke-width: 1; opacity: 1;"/><path class="sankey-link" d="M20,194.03132285760006C270,194.03132285760006 270,227.3107408910456 520,227.3107408910456L520,227.34133395054818C270,227.34133395054818 270,194.06191591710262 20,194.06191591710262Z" style="stroke: rgb(202, 145, 97); stroke-opacity: 1; fill: rgb(202, 145, 97); fill-opacity: 1; stroke-width: 1; opacity: 1;"/><path class="sankey-link" d="M20,193.9762823744618C270,193.9762823744618 270,203.3753497793626 520,203.3753497793626L520,203.43039026250088C270,203.43039026250088 270,194.03132285760006 20,194.03132285760006Z" style="stroke: rgb(202, 145, 97); stroke-opacity: 1; fill: rgb(202, 145, 97); fill-opacity: 1; stroke-width: 1; opacity: 1;"/><path class="sankey-link" d="M20,194.33601775374646C270,194.33601775374646 270,319.23202208494854 520,319.23202208494854L520,319.234886831204C270,319.234886831204 270,194.33888250000186 20,194.33888250000186Z" style="stroke: rgb(202, 145, 97); stroke-opacity: 1; fill: rgb(202, 145, 97); fill-opacity: 1; stroke-width: 1; opacity: 1;"/><path class="sankey-link" d="M20,194.09271718663274C270,194.09271718663274 270,275.7061714447336 520,275.7061714447336L520,275.9494720118473C270,275.9494720118473 270,194.3360177537465 20,194.3360177537465Z" style="stroke: rgb(202, 145, 97); stroke-opacity: 1; fill: rgb(202, 145, 97); fill-opacity: 1; stroke-width: 1; opacity: 1;"/><path class="sankey-link" d="M20,257.1200216751442C270,257.1200216751442 270,94.48718629685017 520,94.48718629685017L520,94.50832940232904C270,94.50832940232904 270,257.141164780623 20,257.141164780623Z" style="stroke: rgb(251, 175, 228); stroke-opacity: 1; fill: rgb(251, 175, 228); fill-opacity: 1; stroke-width: 1; opacity: 1;"/><path class="sankey-link" d="M20,257.14116478062306C270,257.14116478062306 270,110.3848875627934 520,110.3848875627934L520,110.39704176738C270,110.39704176738 270,257.1533189852097 20,257.1533189852097Z" style="stroke: rgb(251, 175, 228); stroke-opacity: 1; fill: rgb(251, 175, 228); fill-opacity: 1; stroke-width: 1; opacity: 1;"/><path class="sankey-link" d="M20,256.924858374888C270,256.924858374888 270,75.07260682338581 520,75.07260682338581L520,75.26777012364197C270,75.26777012364197 270,257.12002167514413 20,257.12002167514413Z" style="stroke: rgb(251, 175, 228); stroke-opacity: 1; fill: rgb(251, 175, 228); fill-opacity: 1; stroke-width: 1; opacity: 1;"/><path class="sankey-link" d="M20,257.15331898520964C270,257.15331898520964 270,146.31950880868908 520,146.31950880868908L520,146.58297180021458C270,146.58297180021458 270,257.4167819767351 20,257.4167819767351Z" style="stroke: rgb(251, 175, 228); stroke-opacity: 1; fill: rgb(251, 175, 228); fill-opacity: 1; stroke-width: 1; opacity: 1;"/><path class="sankey-link" d="M20,257.50346974952C270,257.50346974952 270,186.12911599359379 520,186.12911599359379L520,186.14706048184823C270,186.14706048184823 270,257.5214142377744 20,257.5214142377744Z" style="stroke: rgb(251, 175, 228); stroke-opacity: 1; fill: rgb(251, 175, 228); fill-opacity: 1; stroke-width: 1; opacity: 1;"/><path class="sankey-link" d="M20,257.41678197673514C270,257.41678197673514 270,169.43568314276024 520,169.43568314276024L520,169.52237091554508C270,169.52237091554508 270,257.50346974952004 20,257.50346974952004Z" style="stroke: rgb(251, 175, 228); stroke-opacity: 1; fill: rgb(251, 175, 228); fill-opacity: 1; stroke-width: 1; opacity: 1;"/><path class="sankey-link" d="M20,257.60882580263797C270,257.60882580263797 270,247.84206480440926 520,247.84206480440926L520,251.81905865796463C270,251.81905865796463 270,261.5858196561934 20,261.5858196561934Z" style="stroke: rgb(68, 68, 68); stroke-opacity: 1; fill: rgb(251, 175, 228); fill-opacity: 1; stroke-width: 0; opacity: 1;"/><path class="sankey-link" d="M20,257.5721182184234C270,257.5721182184234 270,230.54144143866517 520,230.54144143866517L520,230.57814902287976C270,230.57814902287976 270,257.60882580263797 20,257.60882580263797Z" style="stroke: rgb(251, 175, 228); stroke-opacity: 1; fill: rgb(251, 175, 228); fill-opacity: 1; stroke-width: 1; opacity: 1;"/><path class="sankey-link" d="M20,257.5214142377744C270,257.5214142377744 270,206.6528589003416 520,206.6528589003416L520,206.70356288099057C270,206.70356288099057 270,257.5721182184233 20,257.5721182184233Z" style="stroke: rgb(251, 175, 228); stroke-opacity: 1; fill: rgb(251, 175, 228); fill-opacity: 1; stroke-width: 1; opacity: 1;"/><path class="sankey-link" d="M20,262.84879323410416C270,262.84879323410416 270,319.28768265007665 520,319.28768265007665L520,319.2916504082929C270,319.2916504082929 270,262.85276099232044 20,262.85276099232044Z" style="stroke: rgb(251, 175, 228); stroke-opacity: 1; fill: rgb(251, 175, 228); fill-opacity: 1; stroke-width: 1; opacity: 1;"/><path class="sankey-link" d="M20,261.58581965619334C270,261.58581965619334 270,278.61339036179544 520,278.61339036179544L520,279.8763639397063C270,279.8763639397063 270,262.8487932341042 20,262.8487932341042Z" style="stroke: rgb(68, 68, 68); stroke-opacity: 1; fill: rgb(251, 175, 228); fill-opacity: 1; stroke-width: 0; opacity: 1;"/><path class="sankey-link" d="M20,234.0681812332012C270,234.0681812332012 270,94.29432320277824 520,94.29432320277824L520,94.48718629685017C270,94.48718629685017 270,234.2610443272731 20,234.2610443272731Z" style="stroke: rgb(148, 148, 148); stroke-opacity: 1; fill: rgb(148, 148, 148); fill-opacity: 1; stroke-width: 1; opacity: 1;"/><path class="sankey-link" d="M20,234.2610443272731C270,234.2610443272731 270,110.32992026643092 520,110.32992026643092L520,110.38488756279341C270,110.38488756279341 270,234.31601162363557 20,234.31601162363557Z" style="stroke: rgb(148, 148, 148); stroke-opacity: 1; fill: rgb(148, 148, 148); fill-opacity: 1; stroke-width: 1; opacity: 1;"/><path class="sankey-link" d="M20,232.5304102526018C270,232.5304102526018 270,73.53483584278644 520,73.53483584278644L520,75.07260682338583C270,75.07260682338583 270,234.06818123320116 20,234.06818123320116Z" style="stroke: rgb(68, 68, 68); stroke-opacity: 1; fill: rgb(148, 148, 148); fill-opacity: 1; stroke-width: 0; opacity: 1;"/><path class="sankey-link" d="M20,234.3160116236356C270,234.3160116236356 270,144.4876935437417 520,144.4876935437417L520,146.3195088086891C270,146.3195088086891 270,236.147826888583 20,236.147826888583Z" style="stroke: rgb(68, 68, 68); stroke-opacity: 1; fill: rgb(148, 148, 148); fill-opacity: 1; stroke-width: 0; opacity: 1;"/><path class="sankey-link" d="M20,236.6605738449109C270,236.6605738449109 270,185.88191116788127 520,185.88191116788127L520,186.12911599359379C270,186.12911599359379 270,236.90777867062343 20,236.90777867062343Z" style="stroke: rgb(148, 148, 148); stroke-opacity: 1; fill: rgb(148, 148, 148); fill-opacity: 1; stroke-width: 1; opacity: 1;"/><path class="sankey-link" d="M20,236.14782688858298C270,236.14782688858298 270,168.92293618643228 520,168.92293618643228L520,169.4356831427602C270,169.4356831427602 270,236.6605738449109 20,236.6605738449109Z" style="stroke: rgb(148, 148, 148); stroke-opacity: 1; fill: rgb(148, 148, 148); fill-opacity: 1; stroke-width: 1; opacity: 1;"/><path class="sankey-link" d="M20,240.31250658568905C270,240.31250658568905 270,247.6753703545208 520,247.6753703545208L520,247.8420648044093C270,247.8420648044093 270,240.47920103557755 20,240.47920103557755Z" style="stroke: rgb(148, 148, 148); stroke-opacity: 1; fill: rgb(148, 148, 148); fill-opacity: 1; stroke-width: 1; opacity: 1;"/><path class="sankey-link" d="M20,237.38635256305872C270,237.38635256305872 270,227.61528741603485 520,227.61528741603485L520,230.54144143866517C270,230.54144143866517 270,240.31250658568905 20,240.31250658568905Z" style="stroke: rgb(68, 68, 68); stroke-opacity: 1; fill: rgb(148, 148, 148); fill-opacity: 1; stroke-width: 0; opacity: 1;"/><path class="sankey-link" d="M20,236.90777867062343C270,236.90777867062343 270,206.17428500790632 520,206.17428500790632L520,206.6528589003416C270,206.6528589003416 270,237.38635256305872 20,237.38635256305872Z" style="stroke: rgb(148, 148, 148); stroke-opacity: 1; fill: rgb(148, 148, 148); fill-opacity: 1; stroke-width: 1; opacity: 1;"/><path class="sankey-link" d="M20,241.91258111894317C270,241.91258111894317 270,319.2754053941318 520,319.2754053941318L520,319.2876826500766C270,319.2876826500766 270,241.92485837488803 20,241.92485837488803Z" style="stroke: rgb(148, 148, 148); stroke-opacity: 1; fill: rgb(148, 148, 148); fill-opacity: 1; stroke-width: 1; opacity: 1;"/><path class="sankey-link" d="M20,240.47920103557752C270,240.47920103557752 270,277.1800102784298 520,277.1800102784298L520,278.6133903617955C270,278.6133903617955 270,241.91258111894317 20,241.91258111894317Z" style="stroke: rgb(68, 68, 68); stroke-opacity: 1; fill: rgb(148, 148, 148); fill-opacity: 1; stroke-width: 0; opacity: 1;"/><path class="sankey-link" d="M20,210.52277442627118C270,210.52277442627118 270,94.15671380736528 520,94.15671380736528L520,94.29432320277824C270,94.29432320277824 270,210.66038382168412 20,210.66038382168412Z" style="stroke: rgb(236, 225, 51); stroke-opacity: 1; fill: rgb(236, 225, 51); fill-opacity: 1; stroke-width: 1; opacity: 1;"/><path class="sankey-link" d="M20,210.66038382168415C270,210.66038382168415 270,110.22232070063784 520,110.22232070063784L520,110.3299202664309C270,110.3299202664309 270,210.76798338747722 20,210.76798338747722Z" style="stroke: rgb(236, 225, 51); stroke-opacity: 1; fill: rgb(236, 225, 51); fill-opacity: 1; stroke-width: 1; opacity: 1;"/><path class="sankey-link" d="M20,209.33888250000197C270,209.33888250000197 270,72.35094391651722 520,72.35094391651722L520,73.53483584278644C270,73.53483584278644 270,210.52277442627118 20,210.52277442627118Z" style="stroke: rgb(68, 68, 68); stroke-opacity: 1; fill: rgb(236, 225, 51); fill-opacity: 1; stroke-width: 0; opacity: 1;"/><path class="sankey-link" d="M20,210.76798338747722C270,210.76798338747722 270,143.1486107389598 520,143.1486107389598L520,144.48769354374167C270,144.48769354374167 270,212.10706619225908 20,212.10706619225908Z" style="stroke: rgb(68, 68, 68); stroke-opacity: 1; fill: rgb(236, 225, 51); fill-opacity: 1; stroke-width: 0; opacity: 1;"/><path class="sankey-link" d="M20,212.9175422413186C270,212.9175422413186 270,185.74079214342507 520,185.74079214342507L520,185.88191116788127C270,185.88191116788127 270,213.05866126577482 20,213.05866126577482Z" style="stroke: rgb(236, 225, 51); stroke-opacity: 1; fill: rgb(236, 225, 51); fill-opacity: 1; stroke-width: 1; opacity: 1;"/><path class="sankey-link" d="M20,212.1070661922591C270,212.1070661922591 270,168.11246013737278 520,168.11246013737278L520,168.92293618643228C270,168.92293618643228 270,212.9175422413186 20,212.9175422413186Z" style="stroke: rgb(236, 225, 51); stroke-opacity: 1; fill: rgb(236, 225, 51); fill-opacity: 1; stroke-width: 1; opacity: 1;"/><path class="sankey-link" d="M20,216.07650947666693C270,216.07650947666693 270,247.49252640809618 520,247.49252640809618L520,247.6753703545208C270,247.6753703545208 270,216.25935342309154 20,216.25935342309154Z" style="stroke: rgb(236, 225, 51); stroke-opacity: 1; fill: rgb(236, 225, 51); fill-opacity: 1; stroke-width: 1; opacity: 1;"/><path class="sankey-link" d="M20,215.80255601118026C270,215.80255601118026 270,227.34133395054818 520,227.34133395054818L520,227.61528741603485C270,227.61528741603485 270,216.07650947666693 20,216.07650947666693Z" style="stroke: rgb(236, 225, 51); stroke-opacity: 1; fill: rgb(236, 225, 51); fill-opacity: 1; stroke-width: 1; opacity: 1;"/><path class="sankey-link" d="M20,213.05866126577482C270,213.05866126577482 270,203.43039026250088 520,203.43039026250088L520,206.17428500790632C270,206.17428500790632 270,215.80255601118026 20,215.80255601118026Z" style="stroke: rgb(68, 68, 68); stroke-opacity: 1; fill: rgb(236, 225, 51); fill-opacity: 1; stroke-width: 0; opacity: 1;"/><path class="sankey-link" d="M20,217.48989168967395C270,217.48989168967395 270,319.23488683120394 520,319.23488683120394L520,319.2754053941317C270,319.2754053941317 270,217.5304102526018 20,217.5304102526018Z" style="stroke: rgb(236, 225, 51); stroke-opacity: 1; fill: rgb(236, 225, 51); fill-opacity: 1; stroke-width: 1; opacity: 1;"/><path class="sankey-link" d="M20,216.25935342309154C270,216.25935342309154 270,275.9494720118474 520,275.9494720118474L520,277.18001027842973C270,277.18001027842973 270,217.48989168967395 20,217.48989168967395Z" style="stroke: rgb(68, 68, 68); stroke-opacity: 1; fill: rgb(236, 225, 51); fill-opacity: 1; stroke-width: 0; opacity: 1;"/><path class="sankey-link" d="M20,277.96243862151204C270,277.96243862151204 270,94.50832940232903 520,94.50832940232903L520,94.53350575632462C270,94.53350575632462 270,277.9876149755076 20,277.9876149755076Z" style="stroke: rgb(86, 180, 233); stroke-opacity: 1; fill: rgb(86, 180, 233); fill-opacity: 1; stroke-width: 1; opacity: 1;"/><path class="sankey-link" d="M20,277.9876149755076C270,277.9876149755076 270,110.39704176737999 520,110.39704176737999L520,110.40181424361089C270,110.40181424361089 270,277.99238745173847 20,277.99238745173847Z" style="stroke: rgb(86, 180, 233); stroke-opacity: 1; fill: rgb(86, 180, 233); fill-opacity: 1; stroke-width: 1; opacity: 1;"/><path class="sankey-link" d="M20,277.8527609923204C270,277.8527609923204 270,75.26777012364197 520,75.26777012364197L520,75.37744775283362C270,75.37744775283362 270,277.96243862151204 20,277.96243862151204Z" style="stroke: rgb(86, 180, 233); stroke-opacity: 1; fill: rgb(86, 180, 233); fill-opacity: 1; stroke-width: 1; opacity: 1;"/><path class="sankey-link" d="M20,277.99238745173847C270,277.99238745173847 270,146.58297180021458 520,146.58297180021458L520,146.83672820014812C270,146.83672820014812 270,278.246143851672 20,278.246143851672Z" style="stroke: rgb(86, 180, 233); stroke-opacity: 1; fill: rgb(86, 180, 233); fill-opacity: 1; stroke-width: 1; opacity: 1;"/><path class="sankey-link" d="M20,278.2866045921335C270,278.2866045921335 270,186.14706048184826 520,186.14706048184826L520,186.17001439690705C270,186.17001439690705 270,278.30955850719226 20,278.30955850719226Z" style="stroke: rgb(86, 180, 233); stroke-opacity: 1; fill: rgb(86, 180, 233); fill-opacity: 1; stroke-width: 1; opacity: 1;"/><path class="sankey-link" d="M20,278.246143851672C270,278.246143851672 270,169.5223709155451 520,169.5223709155451L520,169.56283165600658C270,169.56283165600658 270,278.2866045921334 20,278.2866045921334Z" style="stroke: rgb(86, 180, 233); stroke-opacity: 1; fill: rgb(86, 180, 233); fill-opacity: 1; stroke-width: 1; opacity: 1;"/><path class="sankey-link" d="M20,278.3841203558784C270,278.3841203558784 270,251.81905865796463 520,251.81905865796463L520,251.83999145338984C270,251.83999145338984 270,278.4050531513036 20,278.4050531513036Z" style="stroke: rgb(86, 180, 233); stroke-opacity: 1; fill: rgb(86, 180, 233); fill-opacity: 1; stroke-width: 1; opacity: 1;"/><path class="sankey-link" d="M20,278.35698674949185C270,278.35698674949185 270,230.57814902287973 520,230.57814902287973L520,230.60528262926627C270,230.60528262926627 270,278.3841203558784 20,278.3841203558784Z" style="stroke: rgb(86, 180, 233); stroke-opacity: 1; fill: rgb(86, 180, 233); fill-opacity: 1; stroke-width: 1; opacity: 1;"/><path class="sankey-link" d="M20,278.30955850719226C270,278.30955850719226 270,206.70356288099055 520,206.70356288099055L520,206.75099112329013C270,206.75099112329013 270,278.35698674949185 20,278.35698674949185Z" style="stroke: rgb(86, 180, 233); stroke-opacity: 1; fill: rgb(86, 180, 233); fill-opacity: 1; stroke-width: 1; opacity: 1;"/><path class="sankey-link" d="M20,278.51778627818874C270,278.51778627818874 270,319.2916504082929 520,319.2916504082929L520,319.99409827857966C270,319.99409827857966 270,279.22023414847547 20,279.22023414847547Z" style="stroke: rgb(86, 180, 233); stroke-opacity: 1; fill: rgb(86, 180, 233); fill-opacity: 1; stroke-width: 1; opacity: 1;"/><path class="sankey-link" d="M20,278.4050531513036C270,278.4050531513036 270,279.87636393970627 520,279.87636393970627L520,279.9890970665914C270,279.9890970665914 270,278.51778627818874 20,278.51778627818874Z" style="stroke: rgb(86, 180, 233); stroke-opacity: 1; fill: rgb(86, 180, 233); fill-opacity: 1; stroke-width: 1; opacity: 1;"/><path class="sankey-link" d="M20,294.5289939331874C270,294.5289939331874 270,94.5335057563246 520,94.5335057563246L520,94.55963265500635C270,94.55963265500635 270,294.5551208318691 20,294.5551208318691Z" style="stroke: rgb(128, 128, 0); stroke-opacity: 1; fill: rgb(128, 128, 0); fill-opacity: 1; stroke-width: 1; opacity: 1;"/><path class="sankey-link" d="M20,294.55512083186915C270,294.55512083186915 270,110.40181424361087 520,110.40181424361087L520,110.43150278671037C270,110.43150278671037 270,294.58480937496864 20,294.58480937496864Z" style="stroke: rgb(128, 128, 0); stroke-opacity: 1; fill: rgb(128, 128, 0); fill-opacity: 1; stroke-width: 1; opacity: 1;"/><path class="sankey-link" d="M20,294.22023414847547C270,294.22023414847547 270,75.37744775283362 520,75.37744775283362L520,75.68620753754551C270,75.68620753754551 270,294.5289939331874 20,294.5289939331874Z" style="stroke: rgb(128, 128, 0); stroke-opacity: 1; fill: rgb(128, 128, 0); fill-opacity: 1; stroke-width: 1; opacity: 1;"/><path class="sankey-link" d="M20,294.58480937496864C270,294.58480937496864 270,146.83672820014812 520,146.83672820014812L520,147.4671610569912C270,147.4671610569912 270,295.2152422318117 20,295.2152422318117Z" style="stroke: rgb(128, 128, 0); stroke-opacity: 1; fill: rgb(128, 128, 0); fill-opacity: 1; stroke-width: 1; opacity: 1;"/><path class="sankey-link" d="M20,295.4416226880866C270,295.4416226880866 270,186.17001439690702 520,186.17001439690702L520,186.1950631856274C270,186.1950631856274 270,295.466671476807 20,295.466671476807Z" style="stroke: rgb(128, 128, 0); stroke-opacity: 1; fill: rgb(128, 128, 0); fill-opacity: 1; stroke-width: 1; opacity: 1;"/><path class="sankey-link" d="M20,295.2152422318117C270,295.2152422318117 270,169.56283165600658 520,169.56283165600658L520,169.7892121122815C270,169.7892121122815 270,295.4416226880866 20,295.4416226880866Z" style="stroke: rgb(128, 128, 0); stroke-opacity: 1; fill: rgb(128, 128, 0); fill-opacity: 1; stroke-width: 1; opacity: 1;"/><path class="sankey-link" d="M20,295.6243061992771C270,295.6243061992771 270,251.8399914533898 520,251.8399914533898L520,252.11761366707583C270,252.11761366707583 270,295.9019284129632 20,295.9019284129632Z" style="stroke: rgb(128, 128, 0); stroke-opacity: 1; fill: rgb(128, 128, 0); fill-opacity: 1; stroke-width: 1; opacity: 1;"/><path class="sankey-link" d="M20,295.5482986592376C270,295.5482986592376 270,230.60528262926627 520,230.60528262926627L520,230.68129016930575C270,230.68129016930575 270,295.62430619927716 20,295.62430619927716Z" style="stroke: rgb(128, 128, 0); stroke-opacity: 1; fill: rgb(128, 128, 0); fill-opacity: 1; stroke-width: 1; opacity: 1;"/><path class="sankey-link" d="M20,295.466671476807C270,295.466671476807 270,206.75099112329016 520,206.75099112329016L520,206.83261830572079C270,206.83261830572079 270,295.5482986592377 20,295.5482986592377Z" style="stroke: rgb(128, 128, 0); stroke-opacity: 1; fill: rgb(128, 128, 0); fill-opacity: 1; stroke-width: 1; opacity: 1;"/><path class="sankey-link" d="M20,319.9940982785796C270,319.9940982785796 270,319.99409827857966 520,319.99409827857966L520,320.00000000000006C270,320.00000000000006 270,320 20,320Z" style="stroke: rgb(128, 128, 0); stroke-opacity: 1; fill: rgb(128, 128, 0); fill-opacity: 1; stroke-width: 1; opacity: 1;"/><path class="sankey-link" d="M20,295.9019284129631C270,295.9019284129631 270,279.9890970665914 520,279.9890970665914L520,304.0812669322079C270,304.0812669322079 270,319.9940982785796 20,319.9940982785796Z" style="stroke: rgb(68, 68, 68); stroke-opacity: 1; fill: rgb(128, 128, 0); fill-opacity: 1; stroke-width: 0; opacity: 1;"/></g><g class="sankey-node-set" style="cursor: move;"><g class="sankey-node" transform="translate(0.000,98.964)" style="opacity: 1;"><rect class="node-rect" width="20" height="5.241003358974041" style="stroke-width: 0.5; stroke: rgb(0, 0, 0); stroke-opacity: 1; fill: rgb(211, 211, 211); fill-opacity: 1;"/><text class="node-label" data-notex="1" x="0" y="0" text-anchor="start" transform="translate(23.25,6.82050167948702)" style="cursor: default; font-family: 'Open Sans', verdana, arial, sans-serif; font-size: 12px; fill: rgb(42, 63, 95); fill-opacity: 1; white-space: pre; text-shadow: white 1px 1px 1px, white -1px -1px 1px, white 1px -1px 1px, white -1px 1px 1px;">Africa (85 Mt)</text></g><g class="sankey-node" transform="translate(0.000,119.205)" style="opacity: 1;"><rect class="node-rect" width="20" height="0.5" style="stroke-width: 0.5; stroke: rgb(0, 0, 0); stroke-opacity: 1; fill: rgb(211, 211, 211); fill-opacity: 1;"/><text class="node-label" data-notex="1" x="0" y="0" text-anchor="start" transform="translate(23.25,4.449999999999999)" style="cursor: default; font-family: 'Open Sans', verdana, arial, sans-serif; font-size: 12px; fill: rgb(42, 63, 95); fill-opacity: 1; white-space: pre; text-shadow: white 1px 1px 1px, white -1px -1px 1px, white 1px -1px 1px, white -1px 1px 1px;">Australia (5 Mt)</text></g><g class="sankey-node" transform="translate(0.000,0.000)" style="opacity: 1;"><rect class="node-rect" width="20" height="83.96395906600256" style="stroke-width: 0.5; stroke: rgb(0, 0, 0); stroke-opacity: 1; fill: rgb(211, 211, 211); fill-opacity: 1;"/><text class="node-label" data-notex="1" x="0" y="0" text-anchor="start" transform="translate(23.25,46.18197953300128)" style="cursor: default; font-family: 'Open Sans', verdana, arial, sans-serif; font-size: 12px; fill: rgb(42, 63, 95); fill-opacity: 1; white-space: pre; text-shadow: white 1px 1px 1px, white -1px -1px 1px, white 1px -1px 1px, white -1px 1px 1px;">China (1365 Mt)</text></g><g class="sankey-node" transform="translate(0.000,134.572)" style="opacity: 1;"><rect class="node-rect" width="20" height="15.118857130858032" style="stroke-width: 0.5; stroke: rgb(0, 0, 0); stroke-opacity: 1; fill: rgb(211, 211, 211); fill-opacity: 1;"/><text class="node-label" data-notex="1" x="0" y="0" text-anchor="start" transform="translate(23.25,11.759428565429015)" style="cursor: default; font-family: 'Open Sans', verdana, arial, sans-serif; font-size: 12px; fill: rgb(42, 63, 95); fill-opacity: 1; white-space: pre; text-shadow: white 1px 1px 1px, white -1px -1px 1px, white 1px -1px 1px, white -1px 1px 1px;">Europe (245 Mt)</text></g><g class="sankey-node" transform="translate(0.000,164.691)" style="opacity: 1;"><rect class="node-rect" width="20" height="11.399529339504909" style="stroke-width: 0.5; stroke: rgb(0, 0, 0); stroke-opacity: 1; fill: rgb(211, 211, 211); fill-opacity: 1;"/><text class="node-label" data-notex="1" x="0" y="0" text-anchor="start" transform="translate(23.25,9.899764669752454)" style="cursor: default; font-family: 'Open Sans', verdana, arial, sans-serif; font-size: 12px; fill: rgb(42, 63, 95); fill-opacity: 1; white-space: pre; text-shadow: white 1px 1px 1px, white -1px -1px 1px, white 1px -1px 1px, white -1px 1px 1px;">India (185 Mt)</text></g><g class="sankey-node" transform="translate(0.000,191.090)" style="opacity: 1;"><rect class="node-rect" width="20" height="3.2487789709475123" style="stroke-width: 0.5; stroke: rgb(0, 0, 0); stroke-opacity: 1; fill: rgb(211, 211, 211); fill-opacity: 1;"/><text class="node-label" data-notex="1" x="0" y="0" text-anchor="start" transform="translate(23.25,5.8243894854737555)" style="cursor: default; font-family: 'Open Sans', verdana, arial, sans-serif; font-size: 12px; fill: rgb(42, 63, 95); fill-opacity: 1; white-space: pre; text-shadow: white 1px 1px 1px, white -1px -1px 1px, white 1px -1px 1px, white -1px 1px 1px;">Japan and Korea (52 Mt)</text></g><g class="sankey-node" transform="translate(0.000,256.925)" style="opacity: 1;"><rect class="node-rect" width="20" height="5.92790261743238" style="stroke-width: 0.5; stroke: rgb(0, 0, 0); stroke-opacity: 1; fill: rgb(211, 211, 211); fill-opacity: 1;"/><text class="node-label" data-notex="1" x="0" y="0" text-anchor="start" transform="translate(23.25,7.1639513087161895)" style="cursor: default; font-family: 'Open Sans', verdana, arial, sans-serif; font-size: 12px; fill: rgb(42, 63, 95); fill-opacity: 1; white-space: pre; text-shadow: white 1px 1px 1px, white -1px -1px 1px, white 1px -1px 1px, white -1px 1px 1px;">Latin America (96 Mt)</text></g><g class="sankey-node" transform="translate(0.000,232.530)" style="opacity: 1;"><rect class="node-rect" width="20" height="9.394448122286207" style="stroke-width: 0.5; stroke: rgb(0, 0, 0); stroke-opacity: 1; fill: rgb(211, 211, 211); fill-opacity: 1;"/><text class="node-label" data-notex="1" x="0" y="0" text-anchor="start" transform="translate(23.25,8.897224061143103)" style="cursor: default; font-family: 'Open Sans', verdana, arial, sans-serif; font-size: 12px; fill: rgb(42, 63, 95); fill-opacity: 1; white-space: pre; text-shadow: white 1px 1px 1px, white -1px -1px 1px, white 1px -1px 1px, white -1px 1px 1px;">Middle East (152 Mt)</text></g><g class="sankey-node" transform="translate(0.000,209.339)" style="opacity: 1;"><rect class="node-rect" width="20" height="8.191527752599825" style="stroke-width: 0.5; stroke: rgb(0, 0, 0); stroke-opacity: 1; fill: rgb(211, 211, 211); fill-opacity: 1;"/><text class="node-label" data-notex="1" x="0" y="0" text-anchor="start" transform="translate(23.25,8.295763876299912)" style="cursor: default; font-family: 'Open Sans', verdana, arial, sans-serif; font-size: 12px; fill: rgb(42, 63, 95); fill-opacity: 1; white-space: pre; text-shadow: white 1px 1px 1px, white -1px -1px 1px, white 1px -1px 1px, white -1px 1px 1px;">Rest of Asia (133 Mt)</text></g><g class="sankey-node" transform="translate(0.000,277.853)" style="opacity: 1;"><rect class="node-rect" width="20" height="1.3674731561550857" style="stroke-width: 0.5; stroke: rgb(0, 0, 0); stroke-opacity: 1; fill: rgb(211, 211, 211); fill-opacity: 1;"/><text class="node-label" data-notex="1" x="0" y="0" text-anchor="start" transform="translate(23.25,4.883736578077542)" style="cursor: default; font-family: 'Open Sans', verdana, arial, sans-serif; font-size: 12px; fill: rgb(42, 63, 95); fill-opacity: 1; white-space: pre; text-shadow: white 1px 1px 1px, white -1px -1px 1px, white 1px -1px 1px, white -1px 1px 1px;">Russia (22 Mt)</text></g><g class="sankey-node" transform="translate(0.000,294.220)" style="opacity: 1;"><rect class="node-rect" width="20" height="25.77976585152453" style="stroke-width: 0.5; stroke: rgb(0, 0, 0); stroke-opacity: 1; fill: rgb(211, 211, 211); fill-opacity: 1;"/><text class="node-label" data-notex="1" x="0" y="0" text-anchor="start" transform="translate(23.25,17.089882925762264)" style="cursor: default; font-family: 'Open Sans', verdana, arial, sans-serif; font-size: 12px; fill: rgb(42, 63, 95); fill-opacity: 1; white-space: pre; text-shadow: white 1px 1px 1px, white -1px -1px 1px, white 1px -1px 1px, white -1px 1px 1px;">USA and Canada (419 Mt)</text></g><g class="sankey-node" transform="translate(520.000,90.686)" style="opacity: 1;"><rect class="node-rect" width="20" height="3.8734251174607834" style="stroke-width: 0.5; stroke: rgb(0, 0, 0); stroke-opacity: 1; fill: rgb(211, 211, 211); fill-opacity: 1;"/><text class="node-label" data-notex="1" x="0" y="0" text-anchor="end" transform="translate(-3.25,6.136712558730391)" style="cursor: default; font-family: 'Open Sans', verdana, arial, sans-serif; font-size: 12px; fill: rgb(42, 63, 95); fill-opacity: 1; white-space: pre; text-shadow: white 1px 1px 1px, white -1px -1px 1px, white 1px -1px 1px, white -1px 1px 1px;">Africa (62 Mt)</text></g><g class="sankey-node" transform="translate(520.000,109.560)" style="opacity: 1;"><rect class="node-rect" width="20" height="0.8718701317040569" style="stroke-width: 0.5; stroke: rgb(0, 0, 0); stroke-opacity: 1; fill: rgb(211, 211, 211); fill-opacity: 1;"/><text class="node-label" data-notex="1" x="0" y="0" text-anchor="end" transform="translate(-3.25,4.635935065852028)" style="cursor: default; font-family: 'Open Sans', verdana, arial, sans-serif; font-size: 12px; fill: rgb(42, 63, 95); fill-opacity: 1; white-space: pre; text-shadow: white 1px 1px 1px, white -1px -1px 1px, white 1px -1px 1px, white -1px 1px 1px;">Australia (14 Mt)</text></g><g class="sankey-node" transform="translate(520.000,-0.000)" style="opacity: 1;"><rect class="node-rect" width="20" height="75.68620753754554" style="stroke-width: 0.5; stroke: rgb(0, 0, 0); stroke-opacity: 1; fill: rgb(211, 211, 211); fill-opacity: 1;"/><text class="node-label" data-notex="1" x="0" y="0" text-anchor="end" transform="translate(-3.25,42.04310376877277)" style="cursor: default; font-family: 'Open Sans', verdana, arial, sans-serif; font-size: 12px; fill: rgb(42, 63, 95); fill-opacity: 1; white-space: pre; text-shadow: white 1px 1px 1px, white -1px -1px 1px, white 1px -1px 1px, white -1px 1px 1px;">China (1230 Mt)</text></g><g class="sankey-node" transform="translate(520.000,125.432)" style="opacity: 1;"><rect class="node-rect" width="20" height="22.035658270280805" style="stroke-width: 0.5; stroke: rgb(0, 0, 0); stroke-opacity: 1; fill: rgb(211, 211, 211); fill-opacity: 1;"/><text class="node-label" data-notex="1" x="0" y="0" text-anchor="end" transform="translate(-3.25,15.217829135140402)" style="cursor: default; font-family: 'Open Sans', verdana, arial, sans-serif; font-size: 12px; fill: rgb(42, 63, 95); fill-opacity: 1; white-space: pre; text-shadow: white 1px 1px 1px, white -1px -1px 1px, white 1px -1px 1px, white -1px 1px 1px;">Europe (358 Mt)</text></g><g class="sankey-node" transform="translate(520.000,184.789)" style="opacity: 1;"><rect class="node-rect" width="20" height="1.4058510733459002" style="stroke-width: 0.5; stroke: rgb(0, 0, 0); stroke-opacity: 1; fill: rgb(211, 211, 211); fill-opacity: 1;"/><text class="node-label" data-notex="1" x="0" y="0" text-anchor="end" transform="translate(-3.25,4.902925536672949)" style="cursor: default; font-family: 'Open Sans', verdana, arial, sans-serif; font-size: 12px; fill: rgb(42, 63, 95); fill-opacity: 1; white-space: pre; text-shadow: white 1px 1px 1px, white -1px -1px 1px, white 1px -1px 1px, white -1px 1px 1px;">India (22 Mt)</text></g><g class="sankey-node" transform="translate(520.000,162.467)" style="opacity: 1;"><rect class="node-rect" width="20" height="7.322051055290274" style="stroke-width: 0.5; stroke: rgb(0, 0, 0); stroke-opacity: 1; fill: rgb(211, 211, 211); fill-opacity: 1;"/><text class="node-label" data-notex="1" x="0" y="0" text-anchor="end" transform="translate(-3.25,7.861025527645136)" style="cursor: default; font-family: 'Open Sans', verdana, arial, sans-serif; font-size: 12px; fill: rgb(42, 63, 95); fill-opacity: 1; white-space: pre; text-shadow: white 1px 1px 1px, white -1px -1px 1px, white 1px -1px 1px, white -1px 1px 1px;">Japan and Korea (119 Mt)</text></g><g class="sankey-node" transform="translate(520.000,245.681)" style="opacity: 1;"><rect class="node-rect" width="20" height="6.436323497770161" style="stroke-width: 0.5; stroke: rgb(0, 0, 0); stroke-opacity: 1; fill: rgb(211, 211, 211); fill-opacity: 1;"/><text class="node-label" data-notex="1" x="0" y="0" text-anchor="end" transform="translate(-3.25,7.41816174888508)" style="cursor: default; font-family: 'Open Sans', verdana, arial, sans-serif; font-size: 12px; fill: rgb(42, 63, 95); fill-opacity: 1; white-space: pre; text-shadow: white 1px 1px 1px, white -1px -1px 1px, white 1px -1px 1px, white -1px 1px 1px;">Latin America (104 Mt)</text></g><g class="sankey-node" transform="translate(520.000,221.833)" style="opacity: 1;"><rect class="node-rect" width="20" height="8.848671863584912" style="stroke-width: 0.5; stroke: rgb(0, 0, 0); stroke-opacity: 1; fill: rgb(211, 211, 211); fill-opacity: 1;"/><text class="node-label" data-notex="1" x="0" y="0" text-anchor="end" transform="translate(-3.25,8.624335931792455)" style="cursor: default; font-family: 'Open Sans', verdana, arial, sans-serif; font-size: 12px; fill: rgb(42, 63, 95); fill-opacity: 1; white-space: pre; text-shadow: white 1px 1px 1px, white -1px -1px 1px, white 1px -1px 1px, white -1px 1px 1px;">Middle East (143 Mt)</text></g><g class="sankey-node" transform="translate(520.000,201.195)" style="opacity: 1;"><rect class="node-rect" width="20" height="5.637555120093452" style="stroke-width: 0.5; stroke: rgb(0, 0, 0); stroke-opacity: 1; fill: rgb(211, 211, 211); fill-opacity: 1;"/><text class="node-label" data-notex="1" x="0" y="0" text-anchor="end" transform="translate(-3.25,7.0187775600467255)" style="cursor: default; font-family: 'Open Sans', verdana, arial, sans-serif; font-size: 12px; fill: rgb(42, 63, 95); fill-opacity: 1; white-space: pre; text-shadow: white 1px 1px 1px, white -1px -1px 1px, white 1px -1px 1px, white -1px 1px 1px;">Rest of Asia (91 Mt)</text></g><g class="sankey-node" transform="translate(520.000,319.081)" style="opacity: 1;"><rect class="node-rect" width="20" height="0.9187330677921182" style="stroke-width: 0.5; stroke: rgb(0, 0, 0); stroke-opacity: 1; fill: rgb(211, 211, 211); fill-opacity: 1;"/><text class="node-label" data-notex="1" x="0" y="0" text-anchor="end" transform="translate(-3.25,4.659366533896058)" style="cursor: default; font-family: 'Open Sans', verdana, arial, sans-serif; font-size: 12px; fill: rgb(42, 63, 95); fill-opacity: 1; white-space: pre; text-shadow: white 1px 1px 1px, white -1px -1px 1px, white 1px -1px 1px, white -1px 1px 1px;">Russia (14 Mt)</text></g><g class="sankey-node" transform="translate(520.000,267.118)" style="opacity: 1;"><rect class="node-rect" width="20" height="36.963653265131995" style="stroke-width: 0.5; stroke: rgb(0, 0, 0); stroke-opacity: 1; fill: rgb(211, 211, 211); fill-opacity: 1;"/><text class="node-label" data-notex="1" x="0" y="0" text-anchor="end" transform="translate(-3.25,22.681826632565997)" style="cursor: default; font-family: 'Open Sans', verdana, arial, sans-serif; font-size: 12px; fill: rgb(42, 63, 95); fill-opacity: 1; white-space: pre; text-shadow: white 1px 1px 1px, white -1px -1px 1px, white 1px -1px 1px, white -1px 1px 1px;">USA and Canada (601 Mt)</text></g></g></g><defs id="topdefs-7fbd1d"><g class="clips"/></defs><g class="layer-above"><g class="imagelayer"/><g class="shapelayer"/></g><g class="infolayer"><g class="g-gtitle"/><g class="first-render"/></g></svg>