<svg class="main-svg" xmlns="http://www.w3.org/2000/svg" xmlns:xlink="http://www.w3.org/1999/xlink" width="700" height="500" viewBox="0 0 700 500"><rect x="0" y="0" width="700" height="500" style="fill: rgb(255, 255, 255); fill-opacity: 1;"/><defs id="defs-b76212"><g class="clips"/><g class="gradients"/><g class="patterns"/></defs><g class="bglayer"/><g class="layer-below"><g class="imagelayer"/><g class="shapelayer"/></g><g class="cartesianlayer"/><g class="polarlayer"/><g class="smithlayer"/><g class="ternarylayer"/><g class="geolayer"/><g class="funnelarealayer"/><g class="pielayer"/><g class="iciclelayer"/><g class="treemaplayer"/><g class="sunburstlayer"/><g class="glimages"/><g class="sankey" transform="translate(80,100)matrix(1 0 0 1 0 0)" style="box-sizing: content-box; position: absolute; left: 0px; shape-rendering: geometricPrecision; pointer-events: auto;"><g class="sankey-links" style="fill: none;"><path class="sankey-link" d="M20,201.4919078324262C270,201.4919078324262 270,206.0147368238888 520,206.0147368238888L520,207.14796616215554C270,207.14796616215554 270,202.62513717069294 20,202.62513717069294Z" style="stroke: rgb(68, 68, 68); stroke-opacity: 1; fill: rgb(1, 115, 178); fill-opacity: 1; stroke-width: 0; opacity: 1;"/><path class="sankey-link" d="M20,200.77857161271507C270,200.77857161271507 270,143.46455120346337 520,143.46455120346337L520,143.55043052882257C270,143.55043052882257 270,200.86445093807427 20,200.86445093807427Z" style="stroke: rgb(1, 115, 178); stroke-opacity: 1; fill: rgb(1, 115, 178); fill-opacity: 1; stroke-width: 1; opacity: 1;"/><path class="sankey-link" d="M20,196.39375537552115C270,196.39375537552115 270,55.863283187078274 520,55.863283187078274L520,57.69969954551677C270,57.69969954551677 270,198.23017173395965 20,198.23017173395965Z" style="stroke: rgb(68, 68, 68); stroke-opacity: 1; fill: rgb(1, 115, 178); fill-opacity: 1; stroke-width: 0; opacity: 1;"/><path class="sankey-link" d="M20,198.65016486296557C270,198.65016486296557 270,120.20418229920656 520,120.20418229920656L520,122.33258904895607C270,122.33258904895607 270,200.77857161271507 20,200.77857161271507Z" style="stroke: rgb(68, 68, 68); stroke-opacity: 1; fill: rgb(1, 115, 178); fill-opacity: 1; stroke-width: 0; opacity: 1;"/><path class="sankey-link" d="M20,202.62513717069294C270,202.62513717069294 270,223.8459824734487 520,223.8459824734487L520,224.07283521474224C270,224.07283521474224 270,202.8519899119865 20,202.8519899119865Z" style="stroke: rgb(1, 115, 178); stroke-opacity: 1; fill: rgb(1, 115, 178); fill-opacity: 1; stroke-width: 1; opacity: 1;"/><path class="sankey-link" d="M20,200.86445093807424C270,200.86445093807424 270,170.64085865803577 520,170.64085865803577L520,171.06297664937415C270,171.06297664937415 270,201.28656892941262 20,201.28656892941262Z" style="stroke: rgb(1, 115, 178); stroke-opacity: 1; fill: rgb(1, 115, 178); fill-opacity: 1; stroke-width: 1; opacity: 1;"/><path class="sankey-link" d="M20,202.8519899119865C270,202.8519899119865 270,242.6100370980473 520,242.6100370980473L520,243.02349981545964C270,243.02349981545964 270,203.26545262939885 20,203.26545262939885Z" style="stroke: rgb(1, 115, 178); stroke-opacity: 1; fill: rgb(1, 115, 178); fill-opacity: 1; stroke-width: 1; opacity: 1;"/><path class="sankey-link" d="M20,201.28656892941262C270,201.28656892941262 270,189.20142153275359 520,189.20142153275359L520,189.40676043576715C270,189.40676043576715 270,201.4919078324262 20,201.4919078324262Z" style="stroke: rgb(1, 115, 178); stroke-opacity: 1; fill: rgb(1, 115, 178); fill-opacity: 1; stroke-width: 1; opacity: 1;"/><path class="sankey-link" d="M20,198.23017173395965C270,198.23017173395965 270,80.60787140418087 520,80.60787140418087L520,81.02786453318679C270,81.02786453318679 270,198.65016486296554 20,198.65016486296554Z" style="stroke: rgb(1, 115, 178); stroke-opacity: 1; fill: rgb(1, 115, 178); fill-opacity: 1; stroke-width: 1; opacity: 1;"/><path class="sankey-link" d="M20,203.26545262939885C270,203.26545262939885 270,277.0678769709426 520,277.0678769709426L520,278.9403807562886C270,278.9403807562886 270,205.1379564147448 20,205.1379564147448Z" style="stroke: rgb(68, 68, 68); stroke-opacity: 1; fill: rgb(1, 115, 178); fill-opacity: 1; stroke-width: 0; opacity: 1;"/><path class="sankey-link" d="M20,144.5050616581439C270,144.5050616581439 270,205.56073427393622 520,205.56073427393622L520,205.60214770678053C270,205.60214770678053 270,144.5464750909882 20,144.5464750909882Z" style="stroke: rgb(222, 143, 5); stroke-opacity: 1; fill: rgb(222, 143, 5); fill-opacity: 1; stroke-width: 1; opacity: 1;"/><path class="sankey-link" d="M20,140.8045150966187C270,140.8045150966187 270,141.53578447350603 520,141.53578447350603L520,143.21519661455162C270,143.21519661455162 270,142.4839272376643 20,142.4839272376643Z" style="stroke: rgb(68, 68, 68); stroke-opacity: 1; fill: rgb(222, 143, 5); fill-opacity: 1; stroke-width: 0; opacity: 1;"/><path class="sankey-link" d="M20,138.77035937587152C270,138.77035937587152 270,50.005418849419684 520,50.005418849419684L520,51.20260046958154C270,51.20260046958154 270,139.9675409960334 20,139.9675409960334Z" style="stroke: rgb(68, 68, 68); stroke-opacity: 1; fill: rgb(222, 143, 5); fill-opacity: 1; stroke-width: 0; opacity: 1;"/><path class="sankey-link" d="M20,140.2488642806433C270,140.2488642806433 270,116.82943443833594 520,116.82943443833594L520,117.38508525431135C270,117.38508525431135 270,140.8045150966187 20,140.8045150966187Z" style="stroke: rgb(222, 143, 5); stroke-opacity: 1; fill: rgb(222, 143, 5); fill-opacity: 1; stroke-width: 1; opacity: 1;"/><path class="sankey-link" d="M20,144.5464750909882C270,144.5464750909882 270,223.05600703959072 520,223.05600703959072L520,223.167591347312C270,223.167591347312 270,144.65805939870947 20,144.65805939870947Z" style="stroke: rgb(222, 143, 5); stroke-opacity: 1; fill: rgb(222, 143, 5); fill-opacity: 1; stroke-width: 1; opacity: 1;"/><path class="sankey-link" d="M20,142.4839272376643C270,142.4839272376643 270,163.8637686545643 520,163.8637686545643L520,165.8069805849292C270,165.8069805849292 270,144.42713916802919 20,144.42713916802919Z" style="stroke: rgb(68, 68, 68); stroke-opacity: 1; fill: rgb(222, 143, 5); fill-opacity: 1; stroke-width: 0; opacity: 1;"/><path class="sankey-link" d="M20,144.6580593987095C270,144.6580593987095 270,241.8903459728107 520,241.8903459728107L520,242.01268248200378C270,242.01268248200378 270,144.78039590790257 20,144.78039590790257Z" style="stroke: rgb(222, 143, 5); stroke-opacity: 1; fill: rgb(222, 143, 5); fill-opacity: 1; stroke-width: 1; opacity: 1;"/><path class="sankey-link" d="M20,144.42713916802919C270,144.42713916802919 270,188.2347478370908 520,188.2347478370908L520,188.3126703272055C270,188.3126703272055 270,144.5050616581439 20,144.5050616581439Z" style="stroke: rgb(222, 143, 5); stroke-opacity: 1; fill: rgb(222, 143, 5); fill-opacity: 1; stroke-width: 1; opacity: 1;"/><path class="sankey-link" d="M20,139.96754099603336C270,139.96754099603336 270,79.30076332573572 520,79.30076332573572L520,79.58208661034564C270,79.58208661034564 270,140.2488642806433 20,140.2488642806433Z" style="stroke: rgb(222, 143, 5); stroke-opacity: 1; fill: rgb(222, 143, 5); fill-opacity: 1; stroke-width: 1; opacity: 1;"/><path class="sankey-link" d="M20,144.7803959079026C270,144.7803959079026 270,271.6204007864061 520,271.6204007864061L520,272.3173878477987C270,272.3173878477987 270,145.47738296929523 20,145.47738296929523Z" style="stroke: rgb(222, 143, 5); stroke-opacity: 1; fill: rgb(222, 143, 5); fill-opacity: 1; stroke-width: 1; opacity: 1;"/><path class="sankey-link" d="M20,49.75328569584692C270,49.75328569584692 270,204.91279123092178 520,204.91279123092178L520,205.1699932630469C270,205.1699932630469 270,50.01048772797207 20,50.01048772797207Z" style="stroke: rgb(2, 158, 115); stroke-opacity: 1; fill: rgb(2, 158, 115); fill-opacity: 1; stroke-width: 1; opacity: 1;"/><path class="sankey-link" d="M20,47.2372900416721C270,47.2372900416721 270,140.7466671927566 520,140.7466671927566L520,141.11819154526665C270,141.11819154526665 270,47.60881439418212 20,47.60881439418212Z" style="stroke: rgb(2, 158, 115); stroke-opacity: 1; fill: rgb(2, 158, 115); fill-opacity: 1; stroke-width: 1; opacity: 1;"/><path class="sankey-link" d="M20,1.6342482922482304e-13C270,1.6342482922482304e-13 270,1.9539925233402755e-13 520,1.9539925233402755e-13L520,43.33728182831206C270,43.33728182831206 270,43.33728182831202 20,43.33728182831202Z" style="stroke: rgb(68, 68, 68); stroke-opacity: 1; fill: rgb(2, 158, 115); fill-opacity: 1; stroke-width: 0; opacity: 1;"/><path class="sankey-link" d="M20,44.61849554234797C270,44.61849554234797 270,96.73902930799862 520,96.73902930799862L520,99.35782380732276C270,99.35782380732276 270,47.2372900416721 20,47.2372900416721Z" style="stroke: rgb(68, 68, 68); stroke-opacity: 1; fill: rgb(2, 158, 115); fill-opacity: 1; stroke-width: 0; opacity: 1;"/><path class="sankey-link" d="M20,50.01048772797207C270,50.01048772797207 270,222.48562868787454 520,222.48562868787454L520,222.71301551467465C270,222.71301551467465 270,50.23787455477217 20,50.23787455477217Z" style="stroke: rgb(2, 158, 115); stroke-opacity: 1; fill: rgb(2, 158, 115); fill-opacity: 1; stroke-width: 1; opacity: 1;"/><path class="sankey-link" d="M20,47.60881439418212C270,47.60881439418212 270,158.66967297490217 520,158.66967297490217L520,160.34830274218442C270,160.34830274218442 270,49.28744416146438 20,49.28744416146438Z" style="stroke: rgb(68, 68, 68); stroke-opacity: 1; fill: rgb(2, 158, 115); fill-opacity: 1; stroke-width: 0; opacity: 1;"/><path class="sankey-link" d="M20,50.23787455477217C270,50.23787455477217 270,240.40362974244624 520,240.40362974244624L520,241.22806769775082C270,241.22806769775082 270,51.062312510076744 20,51.062312510076744Z" style="stroke: rgb(2, 158, 115); stroke-opacity: 1; fill: rgb(2, 158, 115); fill-opacity: 1; stroke-width: 1; opacity: 1;"/><path class="sankey-link" d="M20,49.28744416146438C270,49.28744416146438 270,187.2504268410763 520,187.2504268410763L520,187.71626837545884C270,187.71626837545884 270,49.75328569584693 20,49.75328569584693Z" style="stroke: rgb(2, 158, 115); stroke-opacity: 1; fill: rgb(2, 158, 115); fill-opacity: 1; stroke-width: 1; opacity: 1;"/><path class="sankey-link" d="M20,43.33728182831202C270,43.33728182831202 270,74.60451715996997 520,74.60451715996997L520,75.88573087400592C270,75.88573087400592 270,44.61849554234798 20,44.61849554234798Z" style="stroke: rgb(68, 68, 68); stroke-opacity: 1; fill: rgb(2, 158, 115); fill-opacity: 1; stroke-width: 0; opacity: 1;"/><path class="sankey-link" d="M20,51.062312510076744C270,51.062312510076744 270,262.3146831375782 520,262.3146831375782L520,267.2436568909909C270,267.2436568909909 270,55.99128626348952 20,55.99128626348952Z" style="stroke: rgb(68, 68, 68); stroke-opacity: 1; fill: rgb(2, 158, 115); fill-opacity: 1; stroke-width: 0; opacity: 1;"/><path class="sankey-link" d="M20,122.47702697985217C270,122.47702697985217 270,205.47333642256044 520,205.47333642256044L520,205.56073427393622C270,205.56073427393622 270,122.56442483122795 20,122.56442483122795Z" style="stroke: rgb(213, 94, 0); stroke-opacity: 1; fill: rgb(213, 94, 0); fill-opacity: 1; stroke-width: 1; opacity: 1;"/><path class="sankey-link" d="M20,122.18402890808527C270,122.18402890808527 270,141.50291411183593 520,141.50291411183593L520,141.53578447350606C270,141.53578447350606 270,122.21689926975536 20,122.21689926975536Z" style="stroke: rgb(213, 94, 0); stroke-opacity: 1; fill: rgb(213, 94, 0); fill-opacity: 1; stroke-width: 1; opacity: 1;"/><path class="sankey-link" d="M20,113.53577932190206C270,113.53577932190206 270,49.73979185633175 520,49.73979185633175L520,50.005418849419684C270,50.005418849419684 270,113.80140631499 20,113.80140631499Z" style="stroke: rgb(213, 94, 0); stroke-opacity: 1; fill: rgb(213, 94, 0); fill-opacity: 1; stroke-width: 1; opacity: 1;"/><path class="sankey-link" d="M20,113.9960264579393C270,113.9960264579393 270,108.64143198818996 520,108.64143198818996L520,116.82943443833594C270,116.82943443833594 270,122.18402890808527 20,122.18402890808527Z" style="stroke: rgb(68, 68, 68); stroke-opacity: 1; fill: rgb(213, 94, 0); fill-opacity: 1; stroke-width: 0; opacity: 1;"/><path class="sankey-link" d="M20,122.56442483122795C270,122.56442483122795 270,223.02670172166975 520,223.02670172166975L520,223.0560070395907C270,223.0560070395907 270,122.59373014914893 20,122.59373014914893Z" style="stroke: rgb(213, 94, 0); stroke-opacity: 1; fill: rgb(213, 94, 0); fill-opacity: 1; stroke-width: 1; opacity: 1;"/><path class="sankey-link" d="M20,122.21689926975537C270,122.21689926975537 270,163.71245029878395 520,163.71245029878395L520,163.8637686545643C270,163.8637686545643 270,122.36821762553572 20,122.36821762553572Z" style="stroke: rgb(213, 94, 0); stroke-opacity: 1; fill: rgb(213, 94, 0); fill-opacity: 1; stroke-width: 1; opacity: 1;"/><path class="sankey-link" d="M20,122.59373014914891C270,122.59373014914891 270,241.7566282828567 520,241.7566282828567L520,241.89034597281068C270,241.89034597281068 270,122.72744783910292 20,122.72744783910292Z" style="stroke: rgb(213, 94, 0); stroke-opacity: 1; fill: rgb(213, 94, 0); fill-opacity: 1; stroke-width: 1; opacity: 1;"/><path class="sankey-link" d="M20,122.36821762553573C270,122.36821762553573 270,188.12593848277436 520,188.12593848277436L520,188.23474783709077C270,188.23474783709077 270,122.47702697985217 20,122.47702697985217Z" style="stroke: rgb(213, 94, 0); stroke-opacity: 1; fill: rgb(213, 94, 0); fill-opacity: 1; stroke-width: 1; opacity: 1;"/><path class="sankey-link" d="M20,113.80140631498999C270,113.80140631498999 270,79.10614318278641 520,79.10614318278641L520,79.30076332573572C270,79.30076332573572 270,113.9960264579393 20,113.9960264579393Z" style="stroke: rgb(213, 94, 0); stroke-opacity: 1; fill: rgb(213, 94, 0); fill-opacity: 1; stroke-width: 1; opacity: 1;"/><path class="sankey-link" d="M20,122.72744783910291C270,122.72744783910291 270,270.5774892496374 520,270.5774892496374L520,271.62040078640604C270,271.62040078640604 270,123.77035937587162 20,123.77035937587162Z" style="stroke: rgb(68, 68, 68); stroke-opacity: 1; fill: rgb(213, 94, 0); fill-opacity: 1; stroke-width: 0; opacity: 1;"/><path class="sankey-link" d="M20,236.79029352671662C270,236.79029352671662 270,207.14824779921128 520,207.14824779921128L520,207.2521784841333C270,207.2521784841333 270,236.89422421163866 20,236.89422421163866Z" style="stroke: rgb(204, 120, 188); stroke-opacity: 1; fill: rgb(204, 120, 188); fill-opacity: 1; stroke-width: 1; opacity: 1;"/><path class="sankey-link" d="M20,236.28031562852686C270,236.28031562852686 270,143.55101835085415 520,143.55101835085415L520,143.58869843164885C270,143.58869843164885 270,236.31799570932156 20,236.31799570932156Z" style="stroke: rgb(204, 120, 188); stroke-opacity: 1; fill: rgb(204, 120, 188); fill-opacity: 1; stroke-width: 1; opacity: 1;"/><path class="sankey-link" d="M20,235.23182466729116C270,235.23182466729116 270,57.70544001463265 520,57.70544001463265L520,57.992560564229116C270,57.992560564229116 270,235.51894521688763 20,235.51894521688763Z" style="stroke: rgb(204, 120, 188); stroke-opacity: 1; fill: rgb(204, 120, 188); fill-opacity: 1; stroke-width: 1; opacity: 1;"/><path class="sankey-link" d="M20,235.73889822231618C270,235.73889822231618 270,122.3368666193708 520,122.3368666193708L520,122.87828402558148C270,122.87828402558148 270,236.2803156285269 20,236.2803156285269Z" style="stroke: rgb(204, 120, 188); stroke-opacity: 1; fill: rgb(204, 120, 188); fill-opacity: 1; stroke-width: 1; opacity: 1;"/><path class="sankey-link" d="M20,236.89422421163863C270,236.89422421163863 270,224.07315657427702 520,224.07315657427702L520,225.13989318552436C270,225.13989318552436 270,237.96096082288597 20,237.96096082288597Z" style="stroke: rgb(68, 68, 68); stroke-opacity: 1; fill: rgb(204, 120, 188); fill-opacity: 1; stroke-width: 0; opacity: 1;"/><path class="sankey-link" d="M20,236.31799570932154C270,236.31799570932154 270,171.1288715196857 520,171.1288715196857L520,171.3015824918066C270,171.3015824918066 270,236.49070668144245 20,236.49070668144245Z" style="stroke: rgb(204, 120, 188); stroke-opacity: 1; fill: rgb(204, 120, 188); fill-opacity: 1; stroke-width: 1; opacity: 1;"/><path class="sankey-link" d="M20,237.960960822886C270,237.960960822886 270,243.02483918285128 520,243.02483918285128L520,243.13793973871952C270,243.13793973871952 270,238.07406137875424 20,238.07406137875424Z" style="stroke: rgb(204, 120, 188); stroke-opacity: 1; fill: rgb(204, 120, 188); fill-opacity: 1; stroke-width: 1; opacity: 1;"/><path class="sankey-link" d="M20,236.49070668144242C270,236.49070668144242 270,189.40771323711144 520,189.40771323711144L520,189.70730008238561C270,189.70730008238561 270,236.7902935267166 20,236.7902935267166Z" style="stroke: rgb(204, 120, 188); stroke-opacity: 1; fill: rgb(204, 120, 188); fill-opacity: 1; stroke-width: 1; opacity: 1;"/><path class="sankey-link" d="M20,235.51894521688763C270,235.51894521688763 270,81.03060905239197 520,81.03060905239197L520,81.25056205782052C270,81.25056205782052 270,235.73889822231615 20,235.73889822231615Z" style="stroke: rgb(204, 120, 188); stroke-opacity: 1; fill: rgb(204, 120, 188); fill-opacity: 1; stroke-width: 1; opacity: 1;"/><path class="sankey-link" d="M20,238.07406137875427C270,238.07406137875427 270,278.95210859242957 520,278.95210859242957L520,279.7345793122212C270,279.7345793122212 270,238.8565320985458 20,238.8565320985458Z" style="stroke: rgb(204, 120, 188); stroke-opacity: 1; fill: rgb(204, 120, 188); fill-opacity: 1; stroke-width: 1; opacity: 1;"/><path class="sankey-link" d="M20,220.21815446716803C270,220.21815446716803 270,207.14796616215554 520,207.14796616215554L520,207.1482477992113C270,207.1482477992113 270,220.2184361042238 20,220.2184361042238Z" style="stroke: rgb(202, 145, 97); stroke-opacity: 1; fill: rgb(202, 145, 97); fill-opacity: 1; stroke-width: 1; opacity: 1;"/><path class="sankey-link" d="M20,220.1507189734806C270,220.1507189734806 270,143.55043052882255 520,143.55043052882255L520,143.55101835085415C270,143.55101835085415 270,220.1513067955122 20,220.1513067955122Z" style="stroke: rgb(202, 145, 97); stroke-opacity: 1; fill: rgb(202, 145, 97); fill-opacity: 1; stroke-width: 1; opacity: 1;"/><path class="sankey-link" d="M20,220.1379564147448C270,220.1379564147448 270,57.69969954551677 520,57.69969954551677L520,57.70544001463265C270,57.70544001463265 270,220.14369688386068 20,220.14369688386068Z" style="stroke: rgb(202, 145, 97); stroke-opacity: 1; fill: rgb(202, 145, 97); fill-opacity: 1; stroke-width: 1; opacity: 1;"/><path class="sankey-link" d="M20,220.14644140306586C270,220.14644140306586 270,122.33258904895607 520,122.33258904895607L520,122.3368666193708C270,122.3368666193708 270,220.1507189734806 20,220.1507189734806Z" style="stroke: rgb(202, 145, 97); stroke-opacity: 1; fill: rgb(202, 145, 97); fill-opacity: 1; stroke-width: 1; opacity: 1;"/><path class="sankey-link" d="M20,220.21843610422377C270,220.21843610422377 270,224.07283521474224 520,224.07283521474224L520,224.07315657427702C270,224.07315657427702 270,220.21875746375855 20,220.21875746375855Z" style="stroke: rgb(202, 145, 97); stroke-opacity: 1; fill: rgb(202, 145, 97); fill-opacity: 1; stroke-width: 1; opacity: 1;"/><path class="sankey-link" d="M20,220.1513067955122C270,220.1513067955122 270,171.06297664937415 520,171.06297664937415L520,171.12887151968573C270,171.12887151968573 270,220.21720166582378 20,220.21720166582378Z" style="stroke: rgb(202, 145, 97); stroke-opacity: 1; fill: rgb(202, 145, 97); fill-opacity: 1; stroke-width: 1; opacity: 1;"/><path class="sankey-link" d="M20,220.21875746375855C270,220.21875746375855 270,243.02349981545964 520,243.02349981545964L520,243.02483918285125C270,243.02483918285125 270,220.22009683115016 20,220.22009683115016Z" style="stroke: rgb(202, 145, 97); stroke-opacity: 1; fill: rgb(202, 145, 97); fill-opacity: 1; stroke-width: 1; opacity: 1;"/><path class="sankey-link" d="M20,220.21720166582375C270,220.21720166582375 270,189.40676043576715 520,189.40676043576715L520,189.40771323711144C270,189.40771323711144 270,220.21815446716803 20,220.21815446716803Z" style="stroke: rgb(202, 145, 97); stroke-opacity: 1; fill: rgb(202, 145, 97); fill-opacity: 1; stroke-width: 1; opacity: 1;"/><path class="sankey-link" d="M20,220.14369688386068C270,220.14369688386068 270,81.02786453318677 520,81.02786453318677L520,81.03060905239195C270,81.03060905239195 270,220.14644140306586 20,220.14644140306586Z" style="stroke: rgb(202, 145, 97); stroke-opacity: 1; fill: rgb(202, 145, 97); fill-opacity: 1; stroke-width: 1; opacity: 1;"/><path class="sankey-link" d="M20,220.2200968311502C270,220.2200968311502 270,278.94038075628856 520,278.94038075628856L520,278.9521085924296C270,278.9521085924296 270,220.2318246672912 20,220.2318246672912Z" style="stroke: rgb(202, 145, 97); stroke-opacity: 1; fill: rgb(202, 145, 97); fill-opacity: 1; stroke-width: 1; opacity: 1;"/><path class="sankey-link" d="M20,256.5767293387874C270,256.5767293387874 270,207.25217848413328 520,207.25217848413328L520,207.32094254627785C270,207.32094254627785 270,256.6454934009319 20,256.6454934009319Z" style="stroke: rgb(251, 175, 228); stroke-opacity: 1; fill: rgb(251, 175, 228); fill-opacity: 1; stroke-width: 1; opacity: 1;"/><path class="sankey-link" d="M20,256.16591293944634C270,256.16591293944634 270,143.58869843164882 520,143.58869843164882L520,143.61850639876423C270,143.61850639876423 270,256.19572090656175 20,256.19572090656175Z" style="stroke: rgb(251, 175, 228); stroke-opacity: 1; fill: rgb(251, 175, 228); fill-opacity: 1; stroke-width: 1; opacity: 1;"/><path class="sankey-link" d="M20,253.85653209854587C270,253.85653209854587 270,57.99256056422912 520,57.99256056422912L520,58.91751099430428C270,58.91751099430428 270,254.78148252862104 20,254.78148252862104Z" style="stroke: rgb(251, 175, 228); stroke-opacity: 1; fill: rgb(251, 175, 228); fill-opacity: 1; stroke-width: 1; opacity: 1;"/><path class="sankey-link" d="M20,255.01358964539142C270,255.01358964539142 270,122.8782840255815 520,122.8782840255815L520,124.03060731963639C270,124.03060731963639 270,256.16591293944634 20,256.16591293944634Z" style="stroke: rgb(68, 68, 68); stroke-opacity: 1; fill: rgb(251, 175, 228); fill-opacity: 1; stroke-width: 0; opacity: 1;"/><path class="sankey-link" d="M20,256.64549340093197C270,256.64549340093197 270,225.1398931855244 520,225.1398931855244L520,225.31144856436248C270,225.31144856436248 270,256.81704877977006 20,256.81704877977006Z" style="stroke: rgb(251, 175, 228); stroke-opacity: 1; fill: rgb(251, 175, 228); fill-opacity: 1; stroke-width: 1; opacity: 1;"/><path class="sankey-link" d="M20,256.19572090656175C270,256.19572090656175 270,171.30158249180658 520,171.30158249180658L520,171.5844374319115C270,171.5844374319115 270,256.4785758466667 20,256.4785758466667Z" style="stroke: rgb(251, 175, 228); stroke-opacity: 1; fill: rgb(251, 175, 228); fill-opacity: 1; stroke-width: 1; opacity: 1;"/><path class="sankey-link" d="M20,256.81704877977006C270,256.81704877977006 270,243.13793973871955 520,243.13793973871955L520,246.1759058800222C270,246.1759058800222 270,259.85501492107267 20,259.85501492107267Z" style="stroke: rgb(68, 68, 68); stroke-opacity: 1; fill: rgb(251, 175, 228); fill-opacity: 1; stroke-width: 0; opacity: 1;"/><path class="sankey-link" d="M20,256.4785758466667C270,256.4785758466667 270,189.70730008238564 520,189.70730008238564L520,189.80545357450637C270,189.80545357450637 270,256.57672933878746 20,256.57672933878746Z" style="stroke: rgb(251, 175, 228); stroke-opacity: 1; fill: rgb(251, 175, 228); fill-opacity: 1; stroke-width: 1; opacity: 1;"/><path class="sankey-link" d="M20,254.78148252862104C270,254.78148252862104 270,81.2505620578205 520,81.2505620578205L520,81.48266917459088C270,81.48266917459088 270,255.01358964539145 20,255.01358964539145Z" style="stroke: rgb(251, 175, 228); stroke-opacity: 1; fill: rgb(251, 175, 228); fill-opacity: 1; stroke-width: 1; opacity: 1;"/><path class="sankey-link" d="M20,259.8550149210727C270,259.8550149210727 270,279.7345793122211 520,279.7345793122211L520,284.84116936152526C270,284.84116936152526 270,264.96160497037687 20,264.96160497037687Z" style="stroke: rgb(68, 68, 68); stroke-opacity: 1; fill: rgb(251, 175, 228); fill-opacity: 1; stroke-width: 0; opacity: 1;"/><path class="sankey-link" d="M20,174.95493139308886C270,174.95493139308886 270,205.60214770678053 520,205.60214770678053L520,206.0147368238888C270,206.0147368238888 270,175.36752051019712 20,175.36752051019712Z" style="stroke: rgb(148, 148, 148); stroke-opacity: 1; fill: rgb(148, 148, 148); fill-opacity: 1; stroke-width: 1; opacity: 1;"/><path class="sankey-link" d="M20,168.98294752552243C270,168.98294752552243 270,143.21519661455162 520,143.21519661455162L520,143.46455120346334C270,143.46455120346334 270,169.23230211443416 20,169.23230211443416Z" style="stroke: rgb(148, 148, 148); stroke-opacity: 1; fill: rgb(148, 148, 148); fill-opacity: 1; stroke-width: 1; opacity: 1;"/><path class="sankey-link" d="M20,160.47738296929526C270,160.47738296929526 270,51.20260046958154 520,51.20260046958154L520,55.86328318707827C270,55.86328318707827 270,165.138065686792 20,165.138065686792Z" style="stroke: rgb(68, 68, 68); stroke-opacity: 1; fill: rgb(148, 148, 148); fill-opacity: 1; stroke-width: 0; opacity: 1;"/><path class="sankey-link" d="M20,166.16385048062722C270,166.16385048062722 270,117.38508525431135 520,117.38508525431135L520,120.20418229920656C270,120.20418229920656 270,168.98294752552243 20,168.98294752552243Z" style="stroke: rgb(68, 68, 68); stroke-opacity: 1; fill: rgb(148, 148, 148); fill-opacity: 1; stroke-width: 0; opacity: 1;"/><path class="sankey-link" d="M20,175.36752051019712C270,175.36752051019712 270,223.16759134731203 520,223.16759134731203L520,223.8459824734487C270,223.8459824734487 270,176.04591163633378 20,176.04591163633378Z" style="stroke: rgb(148, 148, 148); stroke-opacity: 1; fill: rgb(148, 148, 148); fill-opacity: 1; stroke-width: 1; opacity: 1;"/><path class="sankey-link" d="M20,169.2323021144342C270,169.2323021144342 270,165.8069805849292 520,165.8069805849292L520,170.64085865803577C270,170.64085865803577 270,174.06618018754077 20,174.06618018754077Z" style="stroke: rgb(68, 68, 68); stroke-opacity: 1; fill: rgb(148, 148, 148); fill-opacity: 1; stroke-width: 0; opacity: 1;"/><path class="sankey-link" d="M20,176.04591163633378C270,176.04591163633378 270,242.0126824820038 520,242.0126824820038L520,242.61003709804726C270,242.61003709804726 270,176.64326625237723 20,176.64326625237723Z" style="stroke: rgb(148, 148, 148); stroke-opacity: 1; fill: rgb(148, 148, 148); fill-opacity: 1; stroke-width: 1; opacity: 1;"/><path class="sankey-link" d="M20,174.06618018754077C270,174.06618018754077 270,188.3126703272055 520,188.3126703272055L520,189.20142153275359C270,189.20142153275359 270,174.95493139308886 20,174.95493139308886Z" style="stroke: rgb(148, 148, 148); stroke-opacity: 1; fill: rgb(148, 148, 148); fill-opacity: 1; stroke-width: 1; opacity: 1;"/><path class="sankey-link" d="M20,165.138065686792C270,165.138065686792 270,79.58208661034566 520,79.58208661034566L520,80.60787140418087C270,80.60787140418087 270,166.16385048062722 20,166.16385048062722Z" style="stroke: rgb(68, 68, 68); stroke-opacity: 1; fill: rgb(148, 148, 148); fill-opacity: 1; stroke-width: 0; opacity: 1;"/><path class="sankey-link" d="M20,176.64326625237726C270,176.64326625237726 270,272.3173878477987 520,272.3173878477987L520,277.0678769709426C270,277.0678769709426 270,181.39375537552115 20,181.39375537552115Z" style="stroke: rgb(68, 68, 68); stroke-opacity: 1; fill: rgb(148, 148, 148); fill-opacity: 1; stroke-width: 0; opacity: 1;"/><path class="sankey-link" d="M20,94.05635701164121C270,94.05635701164121 270,205.16999326304693 520,205.16999326304693L520,205.4733364225604C270,205.4733364225604 270,94.35970017115471 20,94.35970017115471Z" style="stroke: rgb(236, 225, 51); stroke-opacity: 1; fill: rgb(236, 225, 51); fill-opacity: 1; stroke-width: 1; opacity: 1;"/><path class="sankey-link" d="M20,89.8978167811569C270,89.8978167811569 270,141.11819154526663 520,141.11819154526663L520,141.5029141118359C270,141.5029141118359 270,90.28253934772621 20,90.28253934772621Z" style="stroke: rgb(236, 225, 51); stroke-opacity: 1; fill: rgb(236, 225, 51); fill-opacity: 1; stroke-width: 1; opacity: 1;"/><path class="sankey-link" d="M20,70.9912862634895C270,70.9912862634895 270,43.33728182831206 520,43.33728182831206L520,49.73979185633175C270,49.73979185633175 270,77.39379629150919 20,77.39379629150919Z" style="stroke: rgb(68, 68, 68); stroke-opacity: 1; fill: rgb(236, 225, 51); fill-opacity: 1; stroke-width: 0; opacity: 1;"/><path class="sankey-link" d="M20,80.61420860028967C270,80.61420860028967 270,99.35782380732275 520,99.35782380732275L520,108.64143198818996C270,108.64143198818996 270,89.89781678115689 20,89.89781678115689Z" style="stroke: rgb(68, 68, 68); stroke-opacity: 1; fill: rgb(236, 225, 51); fill-opacity: 1; stroke-width: 0; opacity: 1;"/><path class="sankey-link" d="M20,94.3597001711547C270,94.3597001711547 270,222.71301551467465 520,222.71301551467465L520,223.02670172166975C270,223.02670172166975 270,94.6733863781498 20,94.6733863781498Z" style="stroke: rgb(236, 225, 51); stroke-opacity: 1; fill: rgb(236, 225, 51); fill-opacity: 1; stroke-width: 1; opacity: 1;"/><path class="sankey-link" d="M20,90.2825393477262C270,90.2825393477262 270,160.34830274218444 520,160.34830274218444L520,163.71245029878395C270,163.71245029878395 270,93.6466869043257 20,93.6466869043257Z" style="stroke: rgb(68, 68, 68); stroke-opacity: 1; fill: rgb(236, 225, 51); fill-opacity: 1; stroke-width: 0; opacity: 1;"/><path class="sankey-link" d="M20,94.6733863781498C270,94.6733863781498 270,241.22806769775082 520,241.22806769775082L520,241.7566282828567C270,241.7566282828567 270,95.20194696325568 20,95.20194696325568Z" style="stroke: rgb(236, 225, 51); stroke-opacity: 1; fill: rgb(236, 225, 51); fill-opacity: 1; stroke-width: 1; opacity: 1;"/><path class="sankey-link" d="M20,93.64668690432569C270,93.64668690432569 270,187.71626837545884 520,187.71626837545884L520,188.1259384827744C270,188.1259384827744 270,94.05635701164121 20,94.05635701164121Z" style="stroke: rgb(236, 225, 51); stroke-opacity: 1; fill: rgb(236, 225, 51); fill-opacity: 1; stroke-width: 1; opacity: 1;"/><path class="sankey-link" d="M20,77.39379629150919C270,77.39379629150919 270,75.88573087400593 520,75.88573087400593L520,79.10614318278641C270,79.10614318278641 270,80.61420860028967 20,80.61420860028967Z" style="stroke: rgb(68, 68, 68); stroke-opacity: 1; fill: rgb(236, 225, 51); fill-opacity: 1; stroke-width: 0; opacity: 1;"/><path class="sankey-link" d="M20,95.20194696325568C270,95.20194696325568 270,267.24365689099096 520,267.24365689099096L520,270.5774892496374C270,270.5774892496374 270,98.5357793219021 20,98.5357793219021Z" style="stroke: rgb(68, 68, 68); stroke-opacity: 1; fill: rgb(236, 225, 51); fill-opacity: 1; stroke-width: 0; opacity: 1;"/><path class="sankey-link" d="M20,283.4455247842886C270,283.4455247842886 270,207.32094254627785 520,207.32094254627785L520,207.48562868787454C270,207.48562868787454 270,283.61021092588527 20,283.61021092588527Z" style="stroke: rgb(86, 180, 233); stroke-opacity: 1; fill: rgb(86, 180, 233); fill-opacity: 1; stroke-width: 1; opacity: 1;"/><path class="sankey-link" d="M20,282.6210311425705C270,282.6210311425705 270,143.61850639876423 520,143.61850639876423L520,143.66967297490214C270,143.66967297490214 270,282.6721977187084 20,282.6721977187084Z" style="stroke: rgb(86, 180, 233); stroke-opacity: 1; fill: rgb(86, 180, 233); fill-opacity: 1; stroke-width: 1; opacity: 1;"/><path class="sankey-link" d="M20,279.9616049703768C270,279.9616049703768 270,58.91751099430428 520,58.91751099430428L520,59.60451715997003C270,59.60451715997003 270,280.6486111360425 20,280.6486111360425Z" style="stroke: rgb(86, 180, 233); stroke-opacity: 1; fill: rgb(86, 180, 233); fill-opacity: 1; stroke-width: 1; opacity: 1;"/><path class="sankey-link" d="M20,280.9049712694503C270,280.9049712694503 270,124.03060731963639 520,124.03060731963639L520,125.74666719275656C270,125.74666719275656 270,282.62103114257053 20,282.62103114257053Z" style="stroke: rgb(68, 68, 68); stroke-opacity: 1; fill: rgb(86, 180, 233); fill-opacity: 1; stroke-width: 0; opacity: 1;"/><path class="sankey-link" d="M20,283.61021092588527C270,283.61021092588527 270,225.31144856436245 520,225.31144856436245L520,225.40362974244633C270,225.40362974244633 270,283.7023921039692 20,283.7023921039692Z" style="stroke: rgb(86, 180, 233); stroke-opacity: 1; fill: rgb(86, 180, 233); fill-opacity: 1; stroke-width: 1; opacity: 1;"/><path class="sankey-link" d="M20,282.6721977187084C270,282.6721977187084 270,171.5844374319115 520,171.5844374319115L520,172.25042684107626C270,172.25042684107626 270,283.3381871278732 20,283.3381871278732Z" style="stroke: rgb(86, 180, 233); stroke-opacity: 1; fill: rgb(86, 180, 233); fill-opacity: 1; stroke-width: 1; opacity: 1;"/><path class="sankey-link" d="M20,283.70239210396915C270,283.70239210396915 270,246.1759058800222 520,246.1759058800222L520,247.31468313757827C270,247.31468313757827 270,284.8411693615252 20,284.8411693615252Z" style="stroke: rgb(68, 68, 68); stroke-opacity: 1; fill: rgb(86, 180, 233); fill-opacity: 1; stroke-width: 0; opacity: 1;"/><path class="sankey-link" d="M20,283.33818712787314C270,283.33818712787314 270,189.80545357450637 520,189.80545357450637L520,189.9127912309218C270,189.9127912309218 270,283.4455247842886 20,283.4455247842886Z" style="stroke: rgb(86, 180, 233); stroke-opacity: 1; fill: rgb(86, 180, 233); fill-opacity: 1; stroke-width: 1; opacity: 1;"/><path class="sankey-link" d="M20,280.6486111360426C270,280.6486111360426 270,81.4826691745909 520,81.4826691745909L520,81.73902930799862C270,81.73902930799862 270,280.9049712694503 20,280.9049712694503Z" style="stroke: rgb(86, 180, 233); stroke-opacity: 1; fill: rgb(86, 180, 233); fill-opacity: 1; stroke-width: 1; opacity: 1;"/><path class="sankey-link" d="M20,284.8411693615252C270,284.8411693615252 270,284.84116936152526 520,284.84116936152526L520,320.00000000000006C270,320.00000000000006 270,320 20,320Z" style="stroke: rgb(68, 68, 68); stroke-opacity: 1; fill: rgb(86, 180, 233); fill-opacity: 1; stroke-width: 0; opacity: 1;"/></g><g class="sankey-node-set" style="cursor: move;"><g class="sankey-node" transform="translate(0.000,196.394)" style="opacity: 1;"><rect class="node-rect" width="20" height="8.74420103922364" style="stroke-width: 0.5; stroke: rgb(0, 0, 0); stroke-opacity: 1; fill: rgb(211, 211, 211); fill-opacity: 1;"/><text class="node-label" data-notex="1" x="0" y="0" text-anchor="start" transform="translate(23.25,8.57210051961182)" style="cursor: default; font-family: 'Open Sans', verdana, arial, sans-serif; font-size: 12px; fill: rgb(42, 63, 95); fill-opacity: 1; white-space: pre; text-shadow: white 1px 1px 1px, white -1px -1px 1px, white 1px -1px 1px, white -1px 1px 1px;">Africa (31 Mt)</text></g><g class="sankey-node" transform="translate(0.000,138.770)" style="opacity: 1;"><rect class="node-rect" width="20" height="6.707023593423742" style="stroke-width: 0.5; stroke: rgb(0, 0, 0); stroke-opacity: 1; fill: rgb(211, 211, 211); fill-opacity: 1;"/><text class="node-label" data-notex="1" x="0" y="0" text-anchor="start" transform="translate(23.25,7.55351179671187)" style="cursor: default; font-family: 'Open Sans', verdana, arial, sans-serif; font-size: 12px; fill: rgb(42, 63, 95); fill-opacity: 1; white-space: pre; text-shadow: white 1px 1px 1px, white -1px -1px 1px, white 1px -1px 1px, white -1px 1px 1px;">Australia (24 Mt)</text></g><g class="sankey-node" transform="translate(0.000,0.000)" style="opacity: 1;"><rect class="node-rect" width="20" height="55.991286263489336" style="stroke-width: 0.5; stroke: rgb(0, 0, 0); stroke-opacity: 1; fill: rgb(211, 211, 211); fill-opacity: 1;"/><text class="node-label" data-notex="1" x="0" y="0" text-anchor="start" transform="translate(23.25,32.19564313174467)" style="cursor: default; font-family: 'Open Sans', verdana, arial, sans-serif; font-size: 12px; fill: rgb(42, 63, 95); fill-opacity: 1; white-space: pre; text-shadow: white 1px 1px 1px, white -1px -1px 1px, white 1px -1px 1px, white -1px 1px 1px;">China (200 Mt)</text></g><g class="sankey-node" transform="translate(0.000,113.536)" style="opacity: 1;"><rect class="node-rect" width="20" height="10.234580053969466" style="stroke-width: 0.5; stroke: rgb(0, 0, 0); stroke-opacity: 1; fill: rgb(211, 211, 211); fill-opacity: 1;"/><text class="node-label" data-notex="1" x="0" y="0" text-anchor="start" transform="translate(23.25,9.317290026984733)" style="cursor: default; font-family: 'Open Sans', verdana, arial, sans-serif; font-size: 12px; fill: rgb(42, 63, 95); fill-opacity: 1; white-space: pre; text-shadow: white 1px 1px 1px, white -1px -1px 1px, white 1px -1px 1px, white -1px 1px 1px;">Europe (36 Mt)</text></g><g class="sankey-node" transform="translate(0.000,235.232)" style="opacity: 1;"><rect class="node-rect" width="20" height="3.6247074312547056" style="stroke-width: 0.5; stroke: rgb(0, 0, 0); stroke-opacity: 1; fill: rgb(211, 211, 211); fill-opacity: 1;"/><text class="node-label" data-notex="1" x="0" y="0" text-anchor="start" transform="translate(23.25,6.012353715627352)" style="cursor: default; font-family: 'Open Sans', verdana, arial, sans-serif; font-size: 12px; fill: rgb(42, 63, 95); fill-opacity: 1; white-space: pre; text-shadow: white 1px 1px 1px, white -1px -1px 1px, white 1px -1px 1px, white -1px 1px 1px;">India (12 Mt)</text></g><g class="sankey-node" transform="translate(0.000,220.138)" style="opacity: 1;"><rect class="node-rect" width="20" height="0.5" style="stroke-width: 0.5; stroke: rgb(0, 0, 0); stroke-opacity: 1; fill: rgb(211, 211, 211); fill-opacity: 1;"/><text class="node-label" data-notex="1" x="0" y="0" text-anchor="start" transform="translate(23.25,4.449999999999999)" style="cursor: default; font-family: 'Open Sans', verdana, arial, sans-serif; font-size: 12px; fill: rgb(42, 63, 95); fill-opacity: 1; white-space: pre; text-shadow: white 1px 1px 1px, white -1px -1px 1px, white 1px -1px 1px, white -1px 1px 1px;">Japan and Korea (0 Mt)</text></g><g class="sankey-node" transform="translate(0.000,253.857)" style="opacity: 1;"><rect class="node-rect" width="20" height="11.105072871830941" style="stroke-width: 0.5; stroke: rgb(0, 0, 0); stroke-opacity: 1; fill: rgb(211, 211, 211); fill-opacity: 1;"/><text class="node-label" data-notex="1" x="0" y="0" text-anchor="start" transform="translate(23.25,9.75253643591547)" style="cursor: default; font-family: 'Open Sans', verdana, arial, sans-serif; font-size: 12px; fill: rgb(42, 63, 95); fill-opacity: 1; white-space: pre; text-shadow: white 1px 1px 1px, white -1px -1px 1px, white 1px -1px 1px, white -1px 1px 1px;">Latin America (39 Mt)</text></g><g class="sankey-node" transform="translate(0.000,160.477)" style="opacity: 1;"><rect class="node-rect" width="20" height="20.91637240622589" style="stroke-width: 0.5; stroke: rgb(0, 0, 0); stroke-opacity: 1; fill: rgb(211, 211, 211); fill-opacity: 1;"/><text class="node-label" data-notex="1" x="0" y="0" text-anchor="start" transform="translate(23.25,14.658186203112944)" style="cursor: default; font-family: 'Open Sans', verdana, arial, sans-serif; font-size: 12px; fill: rgb(42, 63, 95); fill-opacity: 1; white-space: pre; text-shadow: white 1px 1px 1px, white -1px -1px 1px, white 1px -1px 1px, white -1px 1px 1px;">Middle East (74 Mt)</text></g><g class="sankey-node" transform="translate(0.000,70.991)" style="opacity: 1;"><rect class="node-rect" width="20" height="27.54449305841254" style="stroke-width: 0.5; stroke: rgb(0, 0, 0); stroke-opacity: 1; fill: rgb(211, 211, 211); fill-opacity: 1;"/><text class="node-label" data-notex="1" x="0" y="0" text-anchor="start" transform="translate(23.25,17.97224652920627)" style="cursor: default; font-family: 'Open Sans', verdana, arial, sans-serif; font-size: 12px; fill: rgb(42, 63, 95); fill-opacity: 1; white-space: pre; text-shadow: white 1px 1px 1px, white -1px -1px 1px, white 1px -1px 1px, white -1px 1px 1px;">Rest of Asia (98 Mt)</text></g><g class="sankey-node" transform="translate(0.000,279.962)" style="opacity: 1;"><rect class="node-rect" width="20" height="40.03839502962319" style="stroke-width: 0.5; stroke: rgb(0, 0, 0); stroke-opacity: 1; fill: rgb(211, 211, 211); fill-opacity: 1;"/><text class="node-label" data-notex="1" x="0" y="0" text-anchor="start" transform="translate(23.25,24.219197514811594)" style="cursor: default; font-family: 'Open Sans', verdana, arial, sans-serif; font-size: 12px; fill: rgb(42, 63, 95); fill-opacity: 1; white-space: pre; text-shadow: white 1px 1px 1px, white -1px -1px 1px, white 1px -1px 1px, white -1px 1px 1px;">USA and Canada (143 Mt)</text></g><g class="sankey-node" transform="translate(520.000,204.913)" style="opacity: 1;"><rect class="node-rect" width="20" height="2.5728374569527546" style="stroke-width: 0.5; stroke: rgb(0, 0, 0); stroke-opacity: 1; fill: rgb(211, 211, 211); fill-opacity: 1;"/><text class="node-label" data-notex="1" x="0" y="0" text-anchor="end" transform="translate(-3.25,5.486418728476377)" style="cursor: default; font-family: 'Open Sans', verdana, arial, sans-serif; font-size: 12px; fill: rgb(42, 63, 95); fill-opacity: 1; white-space: pre; text-shadow: white 1px 1px 1px, white -1px -1px 1px, white 1px -1px 1px, white -1px 1px 1px;">Africa (9 Mt)</text></g><g class="sankey-node" transform="translate(520.000,140.747)" style="opacity: 1;"><rect class="node-rect" width="20" height="2.923005782145566" style="stroke-width: 0.5; stroke: rgb(0, 0, 0); stroke-opacity: 1; fill: rgb(211, 211, 211); fill-opacity: 1;"/><text class="node-label" data-notex="1" x="0" y="0" text-anchor="end" transform="translate(-3.25,5.661502891072782)" style="cursor: default; font-family: 'Open Sans', verdana, arial, sans-serif; font-size: 12px; fill: rgb(42, 63, 95); fill-opacity: 1; white-space: pre; text-shadow: white 1px 1px 1px, white -1px -1px 1px, white 1px -1px 1px, white -1px 1px 1px;">Australia (10 Mt)</text></g><g class="sankey-node" transform="translate(520.000,0.000)" style="opacity: 1;"><rect class="node-rect" width="20" height="59.604517159969774" style="stroke-width: 0.5; stroke: rgb(0, 0, 0); stroke-opacity: 1; fill: rgb(211, 211, 211); fill-opacity: 1;"/><text class="node-label" data-notex="1" x="0" y="0" text-anchor="end" transform="translate(-3.25,34.00225857998488)" style="cursor: default; font-family: 'Open Sans', verdana, arial, sans-serif; font-size: 12px; fill: rgb(42, 63, 95); fill-opacity: 1; white-space: pre; text-shadow: white 1px 1px 1px, white -1px -1px 1px, white 1px -1px 1px, white -1px 1px 1px;">China (213 Mt)</text></g><g class="sankey-node" transform="translate(520.000,96.739)" style="opacity: 1;"><rect class="node-rect" width="20" height="29.007637884757983" style="stroke-width: 0.5; stroke: rgb(0, 0, 0); stroke-opacity: 1; fill: rgb(211, 211, 211); fill-opacity: 1;"/><text class="node-label" data-notex="1" x="0" y="0" text-anchor="end" transform="translate(-3.25,18.70381894237899)" style="cursor: default; font-family: 'Open Sans', verdana, arial, sans-serif; font-size: 12px; fill: rgb(42, 63, 95); fill-opacity: 1; white-space: pre; text-shadow: white 1px 1px 1px, white -1px -1px 1px, white 1px -1px 1px, white -1px 1px 1px;">Europe (103 Mt)</text></g><g class="sankey-node" transform="translate(520.000,222.486)" style="opacity: 1;"><rect class="node-rect" width="20" height="2.9180010545717323" style="stroke-width: 0.5; stroke: rgb(0, 0, 0); stroke-opacity: 1; fill: rgb(211, 211, 211); fill-opacity: 1;"/><text class="node-label" data-notex="1" x="0" y="0" text-anchor="end" transform="translate(-3.25,5.6590005272858654)" style="cursor: default; font-family: 'Open Sans', verdana, arial, sans-serif; font-size: 12px; fill: rgb(42, 63, 95); fill-opacity: 1; white-space: pre; text-shadow: white 1px 1px 1px, white -1px -1px 1px, white 1px -1px 1px, white -1px 1px 1px;">India (10 Mt)</text></g><g class="sankey-node" transform="translate(520.000,158.670)" style="opacity: 1;"><rect class="node-rect" width="20" height="13.58075386617412" style="stroke-width: 0.5; stroke: rgb(0, 0, 0); stroke-opacity: 1; fill: rgb(211, 211, 211); fill-opacity: 1;"/><text class="node-label" data-notex="1" x="0" y="0" text-anchor="end" transform="translate(-3.25,10.99037693308706)" style="cursor: default; font-family: 'Open Sans', verdana, arial, sans-serif; font-size: 12px; fill: rgb(42, 63, 95); fill-opacity: 1; white-space: pre; text-shadow: white 1px 1px 1px, white -1px -1px 1px, white 1px -1px 1px, white -1px 1px 1px;">Japan and Korea (48 Mt)</text></g><g class="sankey-node" transform="translate(520.000,240.404)" style="opacity: 1;"><rect class="node-rect" width="20" height="6.911053395131944" style="stroke-width: 0.5; stroke: rgb(0, 0, 0); stroke-opacity: 1; fill: rgb(211, 211, 211); fill-opacity: 1;"/><text class="node-label" data-notex="1" x="0" y="0" text-anchor="end" transform="translate(-3.25,7.655526697565971)" style="cursor: default; font-family: 'Open Sans', verdana, arial, sans-serif; font-size: 12px; fill: rgb(42, 63, 95); fill-opacity: 1; white-space: pre; text-shadow: white 1px 1px 1px, white -1px -1px 1px, white 1px -1px 1px, white -1px 1px 1px;">Latin America (24 Mt)</text></g><g class="sankey-node" transform="translate(520.000,187.250)" style="opacity: 1;"><rect class="node-rect" width="20" height="2.662364389845493" style="stroke-width: 0.5; stroke: rgb(0, 0, 0); stroke-opacity: 1; fill: rgb(211, 211, 211); fill-opacity: 1;"/><text class="node-label" data-notex="1" x="0" y="0" text-anchor="end" transform="translate(-3.25,5.531182194922746)" style="cursor: default; font-family: 'Open Sans', verdana, arial, sans-serif; font-size: 12px; fill: rgb(42, 63, 95); fill-opacity: 1; white-space: pre; text-shadow: white 1px 1px 1px, white -1px -1px 1px, white 1px -1px 1px, white -1px 1px 1px;">Middle East (9 Mt)</text></g><g class="sankey-node" transform="translate(520.000,74.605)" style="opacity: 1;"><rect class="node-rect" width="20" height="7.134512148028648" style="stroke-width: 0.5; stroke: rgb(0, 0, 0); stroke-opacity: 1; fill: rgb(211, 211, 211); fill-opacity: 1;"/><text class="node-label" data-notex="1" x="0" y="0" text-anchor="end" transform="translate(-3.25,7.767256074014323)" style="cursor: default; font-family: 'Open Sans', verdana, arial, sans-serif; font-size: 12px; fill: rgb(42, 63, 95); fill-opacity: 1; white-space: pre; text-shadow: white 1px 1px 1px, white -1px -1px 1px, white 1px -1px 1px, white -1px 1px 1px;">Rest of Asia (25 Mt)</text></g><g class="sankey-node" transform="translate(520.000,262.315)" style="opacity: 1;"><rect class="node-rect" width="20" height="57.685316862421814" style="stroke-width: 0.5; stroke: rgb(0, 0, 0); stroke-opacity: 1; fill: rgb(211, 211, 211); fill-opacity: 1;"/><text class="node-label" data-notex="1" x="0" y="0" text-anchor="end" transform="translate(-3.25,33.04265843121091)" style="cursor: default; font-family: 'Open Sans', verdana, arial, sans-serif; font-size: 12px; fill: rgb(42, 63, 95); fill-opacity: 1; white-space: pre; text-shadow: white 1px 1px 1px, white -1px -1px 1px, white 1px -1px 1px, white -1px 1px 1px;">USA and Canada (206 Mt)</text></g></g></g><defs id="topdefs-b76212"><g class="clips"/></defs><g class="layer-above"><g class="imagelayer"/><g class="shapelayer"/></g><g class="infolayer"><g class="g-gtitle"/><g class="first-render"/></g></svg>