<svg class="main-svg" xmlns="http://www.w3.org/2000/svg" xmlns:xlink="http://www.w3.org/1999/xlink" width="700" height="500" viewBox="0 0 700 500"><rect x="0" y="0" width="700" height="500" style="fill: rgb(255, 255, 255); fill-opacity: 1;"/><defs id="defs-83e373"><g class="clips"/><g class="gradients"/><g class="patterns"/></defs><g class="bglayer"/><g class="layer-below"><g class="imagelayer"/><g class="shapelayer"/></g><g class="cartesianlayer"/><g class="polarlayer"/><g class="smithlayer"/><g class="ternarylayer"/><g class="geolayer"/><g class="funnelarealayer"/><g class="pielayer"/><g class="iciclelayer"/><g class="treemaplayer"/><g class="sunburstlayer"/><g class="glimages"/><g class="sankey" transform="translate(80,100)matrix(1 0 0 1 0 0)" style="box-sizing: content-box; position: absolute; left: 0px; shape-rendering: geometricPrecision; pointer-events: auto;"><g class="sankey-links" style="fill: none;"><path class="sankey-link" d="M20,201.49515414394915C270,201.49515414394915 270,206.01840039652433 520,206.01840039652433L520,207.15167840705993C270,207.15167840705993 270,202.62843215448476 20,202.62843215448476Z" style="stroke: rgb(68, 68, 68); stroke-opacity: 1; fill: rgb(1, 115, 178); fill-opacity: 1; stroke-width: 0; opacity: 1;"/><path class="sankey-link" d="M20,200.78187019520857C270,200.78187019520857 270,143.46920123594262 520,143.46920123594262L520,143.55507532278844C270,143.55507532278844 270,200.8677442820544 20,200.8677442820544Z" style="stroke: rgb(1, 115, 178); stroke-opacity: 1; fill: rgb(1, 115, 178); fill-opacity: 1; stroke-width: 1; opacity: 1;"/><path class="sankey-link" d="M20,196.39739830589895C270,196.39739830589895 270,55.86745806609401 520,55.86745806609401L520,57.704005288331565C270,57.704005288331565 270,198.23394552813653 20,198.23394552813653Z" style="stroke: rgb(68, 68, 68); stroke-opacity: 1; fill: rgb(1, 115, 178); fill-opacity: 1; stroke-width: 0; opacity: 1;"/><path class="sankey-link" d="M20,198.2339455281365C270,198.2339455281365 270,99.32161214137156 520,99.32161214137156L520,101.46225303910009C270,101.46225303910009 270,200.37458642586503 20,200.37458642586503Z" style="stroke: rgb(68, 68, 68); stroke-opacity: 1; fill: rgb(1, 115, 178); fill-opacity: 1; stroke-width: 0; opacity: 1;"/><path class="sankey-link" d="M20,202.62843215448476C270,202.62843215448476 270,223.84970223447897 520,223.84970223447897L520,224.07655490005294C270,224.07655490005294 270,202.85528482005873 20,202.85528482005873Z" style="stroke: rgb(1, 115, 178); stroke-opacity: 1; fill: rgb(1, 115, 178); fill-opacity: 1; stroke-width: 1; opacity: 1;"/><path class="sankey-link" d="M20,200.8677442820544C270,200.8677442820544 270,170.64476595355205 520,170.64476595355205L520,171.06685819630974C270,171.06685819630974 270,201.28983652481207 20,201.28983652481207Z" style="stroke: rgb(1, 115, 178); stroke-opacity: 1; fill: rgb(1, 115, 178); fill-opacity: 1; stroke-width: 1; opacity: 1;"/><path class="sankey-link" d="M20,202.85528482005873C270,202.85528482005873 270,242.61365885654897 520,242.61365885654897L520,243.0271234138644C270,243.0271234138644 270,203.26874937737415 20,203.26874937737415Z" style="stroke: rgb(1, 115, 178); stroke-opacity: 1; fill: rgb(1, 115, 178); fill-opacity: 1; stroke-width: 1; opacity: 1;"/><path class="sankey-link" d="M20,201.28983652481207C270,201.28983652481207 270,189.20516542739603 520,189.20516542739603L520,189.4104830465331C270,189.4104830465331 270,201.49515414394915 20,201.49515414394915Z" style="stroke: rgb(1, 115, 178); stroke-opacity: 1; fill: rgb(1, 115, 178); fill-opacity: 1; stroke-width: 1; opacity: 1;"/><path class="sankey-link" d="M20,200.37458642586503C270,200.37458642586503 270,124.66591641916229 520,124.66591641916229L520,125.07320018850582C270,125.07320018850582 270,200.78187019520854 20,200.78187019520854Z" style="stroke: rgb(1, 115, 178); stroke-opacity: 1; fill: rgb(1, 115, 178); fill-opacity: 1; stroke-width: 1; opacity: 1;"/><path class="sankey-link" d="M20,203.26874937737415C270,203.26874937737415 270,277.0704957677159 520,277.0704957677159L520,278.942885333067C270,278.942885333067 270,205.14113894272526 20,205.14113894272526Z" style="stroke: rgb(68, 68, 68); stroke-opacity: 1; fill: rgb(1, 115, 178); fill-opacity: 1; stroke-width: 0; opacity: 1;"/><path class="sankey-link" d="M20,144.51012382155375C270,144.51012382155375 270,205.56439507841952 520,205.56439507841952L520,205.60580816477278C270,205.60580816477278 270,144.551536907907 20,144.551536907907Z" style="stroke: rgb(222, 143, 5); stroke-opacity: 1; fill: rgb(222, 143, 5); fill-opacity: 1; stroke-width: 1; opacity: 1;"/><path class="sankey-link" d="M20,140.80980270693627C270,140.80980270693627 270,141.54055215793753 520,141.54055215793753L520,143.21986185729642C270,143.21986185729642 270,142.48911240629516 20,142.48911240629516Z" style="stroke: rgb(68, 68, 68); stroke-opacity: 1; fill: rgb(222, 143, 5); fill-opacity: 1; stroke-width: 0; opacity: 1;"/><path class="sankey-link" d="M20,138.7756239501569C270,138.7756239501569 270,50.00911329663183 520,50.00911329663183L520,51.20638937657451C270,51.20638937657451 270,139.9729000300996 20,139.9729000300996Z" style="stroke: rgb(68, 68, 68); stroke-opacity: 1; fill: rgb(222, 143, 5); fill-opacity: 1; stroke-width: 0; opacity: 1;"/><path class="sankey-link" d="M20,139.9729000300996C270,139.9729000300996 270,95.91903695854072 520,95.91903695854072L520,96.48276633158122C270,96.48276633158122 270,140.53662940314013 20,140.53662940314013Z" style="stroke: rgb(222, 143, 5); stroke-opacity: 1; fill: rgb(222, 143, 5); fill-opacity: 1; stroke-width: 1; opacity: 1;"/><path class="sankey-link" d="M20,144.55153690790698C270,144.55153690790698 270,223.05969982402655 520,223.05969982402655L520,223.17127619364976C270,223.17127619364976 270,144.6631132775302 20,144.6631132775302Z" style="stroke: rgb(222, 143, 5); stroke-opacity: 1; fill: rgb(222, 143, 5); fill-opacity: 1; stroke-width: 1; opacity: 1;"/><path class="sankey-link" d="M20,142.48911240629516C270,142.48911240629516 270,163.86808934266807 520,163.86808934266807L520,165.8111827399446C270,165.8111827399446 270,144.4322058035717 20,144.4322058035717Z" style="stroke: rgb(68, 68, 68); stroke-opacity: 1; fill: rgb(222, 143, 5); fill-opacity: 1; stroke-width: 0; opacity: 1;"/><path class="sankey-link" d="M20,144.66311327753021C270,144.66311327753021 270,241.89396410884265 520,241.89396410884265L520,242.0162980412127C270,242.0162980412127 270,144.78544720990027 20,144.78544720990027Z" style="stroke: rgb(222, 143, 5); stroke-opacity: 1; fill: rgb(222, 143, 5); fill-opacity: 1; stroke-width: 1; opacity: 1;"/><path class="sankey-link" d="M20,144.43220580357166C270,144.43220580357166 270,188.23852198413107 520,188.23852198413107L520,188.31644000211315C270,188.31644000211315 270,144.51012382155375 20,144.51012382155375Z" style="stroke: rgb(222, 143, 5); stroke-opacity: 1; fill: rgb(222, 143, 5); fill-opacity: 1; stroke-width: 1; opacity: 1;"/><path class="sankey-link" d="M20,140.5366294031401C270,140.5366294031401 270,123.38787752058006 520,123.38787752058006L520,123.66105082437623C270,123.66105082437623 270,140.80980270693627 20,140.80980270693627Z" style="stroke: rgb(222, 143, 5); stroke-opacity: 1; fill: rgb(222, 143, 5); fill-opacity: 1; stroke-width: 1; opacity: 1;"/><path class="sankey-link" d="M20,144.7854472099003C270,144.7854472099003 270,271.6233518712667 520,271.6233518712667L520,272.3202964174671C270,272.3202964174671 270,145.48239175610067 20,145.48239175610067Z" style="stroke: rgb(222, 143, 5); stroke-opacity: 1; fill: rgb(222, 143, 5); fill-opacity: 1; stroke-width: 1; opacity: 1;"/><path class="sankey-link" d="M20,49.755695971382885C270,49.755695971382885 270,204.91647801765913 520,204.91647801765913L520,205.17367556705227C270,205.17367556705227 270,50.01289352077604 20,50.01289352077604Z" style="stroke: rgb(2, 158, 115); stroke-opacity: 1; fill: rgb(2, 158, 115); fill-opacity: 1; stroke-width: 1; opacity: 1;"/><path class="sankey-link" d="M20,47.2398412217587C270,47.2398412217587 270,140.75148301218917 520,140.75148301218917L520,141.1229847022566C270,141.1229847022566 270,47.61134291182611 20,47.61134291182611Z" style="stroke: rgb(2, 158, 115); stroke-opacity: 1; fill: rgb(2, 158, 115); fill-opacity: 1; stroke-width: 1; opacity: 1;"/><path class="sankey-link" d="M20,-2.2737367544323206e-13C270,-2.2737367544323206e-13 270,-1.0658141036401503e-14 520,-1.0658141036401503e-14L520,43.34050066381012C270,43.34050066381012 270,43.3405006638099 20,43.3405006638099Z" style="stroke: rgb(68, 68, 68); stroke-opacity: 1; fill: rgb(2, 158, 115); fill-opacity: 1; stroke-width: 0; opacity: 1;"/><path class="sankey-link" d="M20,43.3405006638099C270,43.3405006638099 270,74.60893261077496 520,74.60893261077496L520,77.27765430511559C270,77.27765430511559 270,46.00922235815053 20,46.00922235815053Z" style="stroke: rgb(68, 68, 68); stroke-opacity: 1; fill: rgb(2, 158, 115); fill-opacity: 1; stroke-width: 0; opacity: 1;"/><path class="sankey-link" d="M20,50.01289352077604C270,50.01289352077604 270,222.4893157929584 520,222.4893157929584L520,222.71671278622557C270,222.71671278622557 270,50.24029051404323 20,50.24029051404323Z" style="stroke: rgb(2, 158, 115); stroke-opacity: 1; fill: rgb(2, 158, 115); fill-opacity: 1; stroke-width: 1; opacity: 1;"/><path class="sankey-link" d="M20,47.6113429118261C270,47.6113429118261 270,158.6743104952531 520,158.6743104952531L520,160.35283786857224C270,160.35283786857224 270,49.28987028514521 20,49.28987028514521Z" style="stroke: rgb(68, 68, 68); stroke-opacity: 1; fill: rgb(2, 158, 115); fill-opacity: 1; stroke-width: 0; opacity: 1;"/><path class="sankey-link" d="M20,50.24029051404323C270,50.24029051404323 270,240.4072560209185 520,240.4072560209185L520,241.23168971407745C270,241.23168971407745 270,51.06472420720218 20,51.06472420720218Z" style="stroke: rgb(2, 158, 115); stroke-opacity: 1; fill: rgb(2, 158, 115); fill-opacity: 1; stroke-width: 1; opacity: 1;"/><path class="sankey-link" d="M20,49.28987028514522C270,49.28987028514522 270,187.2542359552852 520,187.2542359552852L520,187.72006164152288C270,187.72006164152288 270,49.755695971382885 20,49.755695971382885Z" style="stroke: rgb(2, 158, 115); stroke-opacity: 1; fill: rgb(2, 158, 115); fill-opacity: 1; stroke-width: 1; opacity: 1;"/><path class="sankey-link" d="M20,46.00922235815053C270,46.00922235815053 270,119.90876443023103 520,119.90876443023103L520,121.13938329383922C270,121.13938329383922 270,47.2398412217587 20,47.2398412217587Z" style="stroke: rgb(68, 68, 68); stroke-opacity: 1; fill: rgb(2, 158, 115); fill-opacity: 1; stroke-width: 0; opacity: 1;"/><path class="sankey-link" d="M20,51.06472420720218C270,51.06472420720218 270,262.31820185761825 520,262.31820185761825L520,267.24687495083396C270,267.24687495083396 270,55.993397300417904 20,55.993397300417904Z" style="stroke: rgb(68, 68, 68); stroke-opacity: 1; fill: rgb(2, 158, 115); fill-opacity: 1; stroke-width: 0; opacity: 1;"/><path class="sankey-link" d="M20,91.75491931116738C270,91.75491931116738 270,205.1736755670523 520,205.1736755670523L520,205.40581192486903C270,205.40581192486903 270,91.98705566898414 20,91.98705566898414Z" style="stroke: rgb(213, 94, 0); stroke-opacity: 1; fill: rgb(213, 94, 0); fill-opacity: 1; stroke-width: 1; opacity: 1;"/><path class="sankey-link" d="M20,89.91582675993547C270,89.91582675993547 270,141.12298470225656 520,141.12298470225656L520,141.2410911877324C270,141.2410911877324 270,90.0339332454113 20,90.0339332454113Z" style="stroke: rgb(213, 94, 0); stroke-opacity: 1; fill: rgb(213, 94, 0); fill-opacity: 1; stroke-width: 1; opacity: 1;"/><path class="sankey-link" d="M20,70.99339730041793C270,70.99339730041793 270,43.34050066381012 520,43.34050066381012L520,45.45888356243266C270,45.45888356243266 270,73.11178019904047 20,73.11178019904047Z" style="stroke: rgb(68, 68, 68); stroke-opacity: 1; fill: rgb(213, 94, 0); fill-opacity: 1; stroke-width: 0; opacity: 1;"/><path class="sankey-link" d="M20,73.11178019904047C270,73.11178019904047 270,77.27765430511559 520,77.27765430511559L520,93.45253301032588C270,93.45253301032588 270,89.28665890425076 20,89.28665890425076Z" style="stroke: rgb(68, 68, 68); stroke-opacity: 1; fill: rgb(213, 94, 0); fill-opacity: 1; stroke-width: 0; opacity: 1;"/><path class="sankey-link" d="M20,91.98705566898414C270,91.98705566898414 270,222.7167127862256 520,222.7167127862256L520,222.8208678727402C270,222.8208678727402 270,92.09121075549871 20,92.09121075549871Z" style="stroke: rgb(213, 94, 0); stroke-opacity: 1; fill: rgb(213, 94, 0); fill-opacity: 1; stroke-width: 1; opacity: 1;"/><path class="sankey-link" d="M20,90.0339332454113C270,90.0339332454113 270,160.35283786857224 520,160.35283786857224L520,161.7794218832865C270,161.7794218832865 270,91.46051726012556 20,91.46051726012556Z" style="stroke: rgb(68, 68, 68); stroke-opacity: 1; fill: rgb(213, 94, 0); fill-opacity: 1; stroke-width: 0; opacity: 1;"/><path class="sankey-link" d="M20,92.09121075549871C270,92.09121075549871 270,241.23168971407748 520,241.23168971407748L520,241.6104599772144C270,241.6104599772144 270,92.46998101863562 20,92.46998101863562Z" style="stroke: rgb(213, 94, 0); stroke-opacity: 1; fill: rgb(213, 94, 0); fill-opacity: 1; stroke-width: 1; opacity: 1;"/><path class="sankey-link" d="M20,91.46051726012556C270,91.46051726012556 270,187.72006164152285 520,187.72006164152285L520,188.01446369256465C270,188.01446369256465 270,91.75491931116738 20,91.75491931116738Z" style="stroke: rgb(213, 94, 0); stroke-opacity: 1; fill: rgb(213, 94, 0); fill-opacity: 1; stroke-width: 1; opacity: 1;"/><path class="sankey-link" d="M20,89.28665890425074C270,89.28665890425074 270,121.1393832938392 520,121.1393832938392L520,121.76855114952393C270,121.76855114952393 270,89.91582675993547 20,89.91582675993547Z" style="stroke: rgb(213, 94, 0); stroke-opacity: 1; fill: rgb(213, 94, 0); fill-opacity: 1; stroke-width: 1; opacity: 1;"/><path class="sankey-link" d="M20,92.46998101863562C270,92.46998101863562 270,267.24687495083396 520,267.24687495083396L520,269.7028905456776C270,269.7028905456776 270,94.92599661347924 20,94.92599661347924Z" style="stroke: rgb(68, 68, 68); stroke-opacity: 1; fill: rgb(213, 94, 0); fill-opacity: 1; stroke-width: 0; opacity: 1;"/><path class="sankey-link" d="M20,236.7933114838959C270,236.7933114838959 270,207.15196003738828 520,207.15196003738828L520,207.2558822523486C270,207.2558822523486 270,236.89723369885624 20,236.89723369885624Z" style="stroke: rgb(204, 120, 188); stroke-opacity: 1; fill: rgb(204, 120, 188); fill-opacity: 1; stroke-width: 1; opacity: 1;"/><path class="sankey-link" d="M20,236.28337122519716C270,236.28337122519716 270,143.55566310896378 520,143.55566310896378L520,143.5933408913286C270,143.5933408913286 270,236.32104900756198 20,236.32104900756198Z" style="stroke: rgb(204, 120, 188); stroke-opacity: 1; fill: rgb(204, 120, 188); fill-opacity: 1; stroke-width: 1; opacity: 1;"/><path class="sankey-link" d="M20,235.23500129138597C270,235.23500129138597 270,57.70974618898457 520,57.70974618898457L520,57.996884265829905C270,57.996884265829905 270,235.5221393682313 20,235.5221393682313Z" style="stroke: rgb(204, 120, 188); stroke-opacity: 1; fill: rgb(204, 120, 188); fill-opacity: 1; stroke-width: 1; opacity: 1;"/><path class="sankey-link" d="M20,235.5221393682313C270,235.5221393682313 270,101.46662502703461 520,101.46662502703461L520,102.01707972844122C270,102.01707972844122 270,236.07259406963794 20,236.07259406963794Z" style="stroke: rgb(204, 120, 188); stroke-opacity: 1; fill: rgb(204, 120, 188); fill-opacity: 1; stroke-width: 1; opacity: 1;"/><path class="sankey-link" d="M20,236.89723369885624C270,236.89723369885624 270,224.0768762584287 520,224.0768762584287L520,225.14351789136535C270,225.14351789136535 270,237.96387533179288 20,237.96387533179288Z" style="stroke: rgb(68, 68, 68); stroke-opacity: 1; fill: rgb(204, 120, 188); fill-opacity: 1; stroke-width: 0; opacity: 1;"/><path class="sankey-link" d="M20,236.32104900756198C270,236.32104900756198 270,171.1327490471305 520,171.1327490471305L520,171.30544948413447C270,171.30544948413447 270,236.49374944456596 20,236.49374944456596Z" style="stroke: rgb(204, 120, 188); stroke-opacity: 1; fill: rgb(204, 120, 188); fill-opacity: 1; stroke-width: 1; opacity: 1;"/><path class="sankey-link" d="M20,237.96387533179288C270,237.96387533179288 270,243.02846271552838 520,243.02846271552838L520,243.14155954423305C270,243.14155954423305 270,238.07697216049755 20,238.07697216049755Z" style="stroke: rgb(204, 120, 188); stroke-opacity: 1; fill: rgb(204, 120, 188); fill-opacity: 1; stroke-width: 1; opacity: 1;"/><path class="sankey-link" d="M20,236.49374944456594C270,236.49374944456594 270,189.41143577717662 520,189.41143577717662L520,189.71099781650662C270,189.71099781650662 270,236.79331148389593 20,236.79331148389593Z" style="stroke: rgb(204, 120, 188); stroke-opacity: 1; fill: rgb(204, 120, 188); fill-opacity: 1; stroke-width: 1; opacity: 1;"/><path class="sankey-link" d="M20,236.07259406963792C270,236.07259406963792 270,125.07584886981114 520,125.07584886981114L520,125.28662602537038C270,125.28662602537038 270,236.28337122519716 20,236.28337122519716Z" style="stroke: rgb(204, 120, 188); stroke-opacity: 1; fill: rgb(204, 120, 188); fill-opacity: 1; stroke-width: 1; opacity: 1;"/><path class="sankey-link" d="M20,238.07697216049752C270,238.07697216049752 270,278.95461245382717 520,278.95461245382717L520,279.73703544404816C270,279.73703544404816 270,238.8593951507185 20,238.8593951507185Z" style="stroke: rgb(204, 120, 188); stroke-opacity: 1; fill: rgb(204, 120, 188); fill-opacity: 1; stroke-width: 1; opacity: 1;"/><path class="sankey-link" d="M20,220.2213318802577C270,220.2213318802577 270,207.15167840705993 520,207.15167840705993L520,207.15196003738828C270,207.15196003738828 270,220.22161351058605 20,220.22161351058605Z" style="stroke: rgb(202, 145, 97); stroke-opacity: 1; fill: rgb(202, 145, 97); fill-opacity: 1; stroke-width: 1; opacity: 1;"/><path class="sankey-link" d="M20,220.1539005126181C270,220.1539005126181 270,143.55507532278844 520,143.55507532278844L520,143.55566310896378C270,143.55566310896378 270,220.15448829879344 20,220.15448829879344Z" style="stroke: rgb(202, 145, 97); stroke-opacity: 1; fill: rgb(202, 145, 97); fill-opacity: 1; stroke-width: 1; opacity: 1;"/><path class="sankey-link" d="M20,220.14113894272526C270,220.14113894272526 270,57.70400528833157 520,57.70400528833157L520,57.70974618898457C270,57.70974618898457 270,220.14687984337826 20,220.14687984337826Z" style="stroke: rgb(202, 145, 97); stroke-opacity: 1; fill: rgb(202, 145, 97); fill-opacity: 1; stroke-width: 1; opacity: 1;"/><path class="sankey-link" d="M20,220.14687984337826C270,220.14687984337826 270,101.46225303910009 520,101.46225303910009L520,101.46662502703461C270,101.46662502703461 270,220.15125183131278 20,220.15125183131278Z" style="stroke: rgb(202, 145, 97); stroke-opacity: 1; fill: rgb(202, 145, 97); fill-opacity: 1; stroke-width: 1; opacity: 1;"/><path class="sankey-link" d="M20,220.22161351058605C270,220.22161351058605 270,224.07655490005294 520,224.07655490005294L520,224.07687625842874C270,224.07687625842874 270,220.22193486896185 20,220.22193486896185Z" style="stroke: rgb(202, 145, 97); stroke-opacity: 1; fill: rgb(202, 145, 97); fill-opacity: 1; stroke-width: 1; opacity: 1;"/><path class="sankey-link" d="M20,220.15448829879344C270,220.15448829879344 270,171.06685819630974 520,171.06685819630974L520,171.13274904713052C270,171.13274904713052 270,220.22037914961422 20,220.22037914961422Z" style="stroke: rgb(202, 145, 97); stroke-opacity: 1; fill: rgb(202, 145, 97); fill-opacity: 1; stroke-width: 1; opacity: 1;"/><path class="sankey-link" d="M20,220.22193486896182C270,220.22193486896182 270,243.0271234138644 520,243.0271234138644L520,243.02846271552835C270,243.02846271552835 270,220.22327417062579 20,220.22327417062579Z" style="stroke: rgb(202, 145, 97); stroke-opacity: 1; fill: rgb(202, 145, 97); fill-opacity: 1; stroke-width: 1; opacity: 1;"/><path class="sankey-link" d="M20,220.2203791496142C270,220.2203791496142 270,189.4104830465331 520,189.4104830465331L520,189.41143577717662C270,189.41143577717662 270,220.2213318802577 20,220.2213318802577Z" style="stroke: rgb(202, 145, 97); stroke-opacity: 1; fill: rgb(202, 145, 97); fill-opacity: 1; stroke-width: 1; opacity: 1;"/><path class="sankey-link" d="M20,220.15125183131278C270,220.15125183131278 270,125.07320018850582 520,125.07320018850582L520,125.07584886981114C270,125.07584886981114 270,220.15390051261812 20,220.15390051261812Z" style="stroke: rgb(202, 145, 97); stroke-opacity: 1; fill: rgb(202, 145, 97); fill-opacity: 1; stroke-width: 1; opacity: 1;"/><path class="sankey-link" d="M20,220.2232741706258C270,220.2232741706258 270,278.942885333067 520,278.942885333067L520,278.95461245382717C270,278.95461245382717 270,220.23500129138597 20,220.23500129138597Z" style="stroke: rgb(202, 145, 97); stroke-opacity: 1; fill: rgb(202, 145, 97); fill-opacity: 1; stroke-width: 1; opacity: 1;"/><path class="sankey-link" d="M20,256.57943947455453C270,256.57943947455453 270,207.2558822523486 520,207.2558822523486L520,207.32464099361698C270,207.32464099361698 270,256.64819821582284 20,256.64819821582284Z" style="stroke: rgb(251, 175, 228); stroke-opacity: 1; fill: rgb(251, 175, 228); fill-opacity: 1; stroke-width: 1; opacity: 1;"/><path class="sankey-link" d="M20,256.1686485897061C270,256.1686485897061 270,143.5933408913286 520,143.5933408913286L520,143.6231470402016C270,143.6231470402016 270,256.198454738579 20,256.198454738579Z" style="stroke: rgb(251, 175, 228); stroke-opacity: 1; fill: rgb(251, 175, 228); fill-opacity: 1; stroke-width: 1; opacity: 1;"/><path class="sankey-link" d="M20,253.8593951507185C270,253.8593951507185 270,57.996884265829905 520,57.996884265829905L520,58.92188845455895C270,58.92188845455895 270,254.78439933944753 20,254.78439933944753Z" style="stroke: rgb(251, 175, 228); stroke-opacity: 1; fill: rgb(251, 175, 228); fill-opacity: 1; stroke-width: 1; opacity: 1;"/><path class="sankey-link" d="M20,254.78439933944756C270,254.78439933944756 270,102.01707972844123 520,102.01707972844123L520,103.17757062474475C270,103.17757062474475 270,255.94489023575105 20,255.94489023575105Z" style="stroke: rgb(68, 68, 68); stroke-opacity: 1; fill: rgb(251, 175, 228); fill-opacity: 1; stroke-width: 0; opacity: 1;"/><path class="sankey-link" d="M20,256.6481982158229C270,256.6481982158229 270,225.14351789136535 520,225.14351789136535L520,225.31508027863688C270,225.31508027863688 270,256.8197606030945 20,256.8197606030945Z" style="stroke: rgb(251, 175, 228); stroke-opacity: 1; fill: rgb(251, 175, 228); fill-opacity: 1; stroke-width: 1; opacity: 1;"/><path class="sankey-link" d="M20,256.1984547385791C270,256.1984547385791 270,171.30544948413444 520,171.30544948413444L520,171.5882871705013C270,171.5882871705013 270,256.48129242494593 20,256.48129242494593Z" style="stroke: rgb(251, 175, 228); stroke-opacity: 1; fill: rgb(251, 175, 228); fill-opacity: 1; stroke-width: 1; opacity: 1;"/><path class="sankey-link" d="M20,256.81976060309444C270,256.81976060309444 270,243.14155954423302 520,243.14155954423302L520,246.17947207495786C270,246.17947207495786 270,259.8576731338193 20,259.8576731338193Z" style="stroke: rgb(68, 68, 68); stroke-opacity: 1; fill: rgb(251, 175, 228); fill-opacity: 1; stroke-width: 0; opacity: 1;"/><path class="sankey-link" d="M20,256.48129242494593C270,256.48129242494593 270,189.7109978165066 520,189.7109978165066L520,189.8091448661152C270,189.8091448661152 270,256.5794394745546 20,256.5794394745546Z" style="stroke: rgb(251, 175, 228); stroke-opacity: 1; fill: rgb(251, 175, 228); fill-opacity: 1; stroke-width: 1; opacity: 1;"/><path class="sankey-link" d="M20,255.9448902357511C270,255.9448902357511 270,125.28662602537038 520,125.28662602537038L520,125.5103843793254C270,125.5103843793254 270,256.16864858970615 20,256.16864858970615Z" style="stroke: rgb(251, 175, 228); stroke-opacity: 1; fill: rgb(251, 175, 228); fill-opacity: 1; stroke-width: 1; opacity: 1;"/><path class="sankey-link" d="M20,259.8576731338193C270,259.8576731338193 270,279.73703544404816 520,279.73703544404816L520,284.84331399882115C270,284.84331399882115 270,264.96395168859226 20,264.96395168859226Z" style="stroke: rgb(68, 68, 68); stroke-opacity: 1; fill: rgb(251, 175, 228); fill-opacity: 1; stroke-width: 0; opacity: 1;"/><path class="sankey-link" d="M20,174.9588198677331C270,174.9588198677331 270,205.60580816477275 520,205.60580816477275L520,206.01840039652436C270,206.01840039652436 270,175.3714120994847 20,175.3714120994847Z" style="stroke: rgb(148, 148, 148); stroke-opacity: 1; fill: rgb(148, 148, 148); fill-opacity: 1; stroke-width: 1; opacity: 1;"/><path class="sankey-link" d="M20,168.98717185019655C270,168.98717185019655 270,143.21986185729642 520,143.21986185729642L520,143.46920123594262C270,143.46920123594262 270,169.23651122884274 20,169.23651122884274Z" style="stroke: rgb(148, 148, 148); stroke-opacity: 1; fill: rgb(148, 148, 148); fill-opacity: 1; stroke-width: 1; opacity: 1;"/><path class="sankey-link" d="M20,160.4823917561007C270,160.4823917561007 270,51.20638937657451 520,51.20638937657451L520,55.86745806609401C270,55.86745806609401 270,165.14346044562018 20,165.14346044562018Z" style="stroke: rgb(68, 68, 68); stroke-opacity: 1; fill: rgb(148, 148, 148); fill-opacity: 1; stroke-width: 0; opacity: 1;"/><path class="sankey-link" d="M20,165.14346044562018C270,165.14346044562018 270,96.48276633158123 520,96.48276633158123L520,99.32161214137155C270,99.32161214137155 270,167.9823062554105 20,167.9823062554105Z" style="stroke: rgb(68, 68, 68); stroke-opacity: 1; fill: rgb(148, 148, 148); fill-opacity: 1; stroke-width: 0; opacity: 1;"/><path class="sankey-link" d="M20,175.37141209948467C270,175.37141209948467 270,223.1712761936498 520,223.1712761936498L520,223.84970223447894C270,223.84970223447894 270,176.04983814031382 20,176.04983814031382Z" style="stroke: rgb(148, 148, 148); stroke-opacity: 1; fill: rgb(148, 148, 148); fill-opacity: 1; stroke-width: 1; opacity: 1;"/><path class="sankey-link" d="M20,169.23651122884274C270,169.23651122884274 270,165.81118273994457 520,165.81118273994457L520,170.64476595355205C270,170.64476595355205 270,174.07009444245023 20,174.07009444245023Z" style="stroke: rgb(68, 68, 68); stroke-opacity: 1; fill: rgb(148, 148, 148); fill-opacity: 1; stroke-width: 0; opacity: 1;"/><path class="sankey-link" d="M20,176.04983814031385C270,176.04983814031385 270,242.01629804121274 520,242.01629804121274L520,242.61365885654897C270,242.61365885654897 270,176.64719895565008 20,176.64719895565008Z" style="stroke: rgb(148, 148, 148); stroke-opacity: 1; fill: rgb(148, 148, 148); fill-opacity: 1; stroke-width: 1; opacity: 1;"/><path class="sankey-link" d="M20,174.07009444245023C270,174.07009444245023 270,188.31644000211315 520,188.31644000211315L520,189.20516542739603C270,189.20516542739603 270,174.9588198677331 20,174.9588198677331Z" style="stroke: rgb(148, 148, 148); stroke-opacity: 1; fill: rgb(148, 148, 148); fill-opacity: 1; stroke-width: 1; opacity: 1;"/><path class="sankey-link" d="M20,167.9823062554105C270,167.9823062554105 270,123.66105082437623 520,123.66105082437623L520,124.66591641916229C270,124.66591641916229 270,168.98717185019655 20,168.98717185019655Z" style="stroke: rgb(68, 68, 68); stroke-opacity: 1; fill: rgb(148, 148, 148); fill-opacity: 1; stroke-width: 0; opacity: 1;"/><path class="sankey-link" d="M20,176.64719895565008C270,176.64719895565008 270,272.3202964174671 520,272.3202964174671L520,277.07049576771595C270,277.07049576771595 270,181.3973983058989 20,181.3973983058989Z" style="stroke: rgb(68, 68, 68); stroke-opacity: 1; fill: rgb(148, 148, 148); fill-opacity: 1; stroke-width: 0; opacity: 1;"/><path class="sankey-link" d="M20,121.17424338810255C270,121.17424338810255 270,205.40581192486906 520,205.40581192486906L520,205.56439507841952C270,205.56439507841952 270,121.33282654165302 20,121.33282654165302Z" style="stroke: rgb(236, 225, 51); stroke-opacity: 1; fill: rgb(236, 225, 51); fill-opacity: 1; stroke-width: 1; opacity: 1;"/><path class="sankey-link" d="M20,118.56205666694943C270,118.56205666694943 270,141.2410911877324 520,141.2410911877324L520,141.54055215793753C270,141.54055215793753 270,118.86151763715456 20,118.86151763715456Z" style="stroke: rgb(236, 225, 51); stroke-opacity: 1; fill: rgb(236, 225, 51); fill-opacity: 1; stroke-width: 1; opacity: 1;"/><path class="sankey-link" d="M20,109.92599661347928C270,109.92599661347928 270,45.45888356243266 520,45.45888356243266L520,50.009113296631824C270,50.009113296631824 270,114.47622634767846 20,114.47622634767846Z" style="stroke: rgb(68, 68, 68); stroke-opacity: 1; fill: rgb(236, 225, 51); fill-opacity: 1; stroke-width: 0; opacity: 1;"/><path class="sankey-link" d="M20,114.47622634767845C270,114.47622634767845 270,93.45253301032587 520,93.45253301032587L520,95.91903695854073C270,95.91903695854073 270,116.94273029589331 20,116.94273029589331Z" style="stroke: rgb(68, 68, 68); stroke-opacity: 1; fill: rgb(236, 225, 51); fill-opacity: 1; stroke-width: 0; opacity: 1;"/><path class="sankey-link" d="M20,121.33282654165302C270,121.33282654165302 270,222.82086787274017 520,222.82086787274017L520,223.05969982402655C270,223.05969982402655 270,121.5716584929394 20,121.5716584929394Z" style="stroke: rgb(236, 225, 51); stroke-opacity: 1; fill: rgb(236, 225, 51); fill-opacity: 1; stroke-width: 1; opacity: 1;"/><path class="sankey-link" d="M20,118.86151763715456C270,118.86151763715456 270,161.7794218832865 520,161.7794218832865L520,163.86808934266804C270,163.86808934266804 270,120.95018509653615 20,120.95018509653615Z" style="stroke: rgb(68, 68, 68); stroke-opacity: 1; fill: rgb(236, 225, 51); fill-opacity: 1; stroke-width: 0; opacity: 1;"/><path class="sankey-link" d="M20,121.57165849293942C270,121.57165849293942 270,241.6104599772144 520,241.6104599772144L520,241.89396410884265C270,241.89396410884265 270,121.85516262456768 20,121.85516262456768Z" style="stroke: rgb(236, 225, 51); stroke-opacity: 1; fill: rgb(236, 225, 51); fill-opacity: 1; stroke-width: 1; opacity: 1;"/><path class="sankey-link" d="M20,120.95018509653615C270,120.95018509653615 270,188.01446369256468 520,188.01446369256468L520,188.23852198413107C270,188.23852198413107 270,121.17424338810254 20,121.17424338810254Z" style="stroke: rgb(236, 225, 51); stroke-opacity: 1; fill: rgb(236, 225, 51); fill-opacity: 1; stroke-width: 1; opacity: 1;"/><path class="sankey-link" d="M20,116.9427302958933C270,116.9427302958933 270,121.76855114952393 520,121.76855114952393L520,123.38787752058006C270,123.38787752058006 270,118.56205666694943 20,118.56205666694943Z" style="stroke: rgb(68, 68, 68); stroke-opacity: 1; fill: rgb(236, 225, 51); fill-opacity: 1; stroke-width: 0; opacity: 1;"/><path class="sankey-link" d="M20,121.85516262456768C270,121.85516262456768 270,269.7028905456776 520,269.7028905456776L520,271.6233518712667C270,271.6233518712667 270,123.77562395015683 20,123.77562395015683Z" style="stroke: rgb(68, 68, 68); stroke-opacity: 1; fill: rgb(236, 225, 51); fill-opacity: 1; stroke-width: 0; opacity: 1;"/><path class="sankey-link" d="M20,283.44773367453746C270,283.44773367453746 270,207.32464099361695 520,207.32464099361695L520,207.48931579295842C270,207.48931579295842 270,283.61240847387893 20,283.61240847387893Z" style="stroke: rgb(86, 180, 233); stroke-opacity: 1; fill: rgb(86, 180, 233); fill-opacity: 1; stroke-width: 1; opacity: 1;"/><path class="sankey-link" d="M20,282.6232882831582C270,282.6232882831582 270,143.62314704020156 520,143.62314704020156L520,143.6743104952531C270,143.6743104952531 270,282.67445173820977 20,282.67445173820977Z" style="stroke: rgb(86, 180, 233); stroke-opacity: 1; fill: rgb(86, 180, 233); fill-opacity: 1; stroke-width: 1; opacity: 1;"/><path class="sankey-link" d="M20,279.96395168859215C270,279.96395168859215 270,58.92188845455895 520,58.92188845455895L520,59.608932610775014C270,59.608932610775014 270,280.6509958448082 20,280.6509958448082Z" style="stroke: rgb(86, 180, 233); stroke-opacity: 1; fill: rgb(86, 180, 233); fill-opacity: 1; stroke-width: 1; opacity: 1;"/><path class="sankey-link" d="M20,280.6509958448082C270,280.6509958448082 270,103.17757062474475 520,103.17757062474475L520,104.90876443023102C270,104.90876443023102 270,282.38218965029455 20,282.38218965029455Z" style="stroke: rgb(68, 68, 68); stroke-opacity: 1; fill: rgb(86, 180, 233); fill-opacity: 1; stroke-width: 0; opacity: 1;"/><path class="sankey-link" d="M20,283.61240847387893C270,283.61240847387893 270,225.3150802786369 520,225.3150802786369L520,225.40725602091857C270,225.40725602091857 270,283.70458421616064 20,283.70458421616064Z" style="stroke: rgb(86, 180, 233); stroke-opacity: 1; fill: rgb(86, 180, 233); fill-opacity: 1; stroke-width: 1; opacity: 1;"/><path class="sankey-link" d="M20,282.67445173820977C270,282.67445173820977 270,171.5882871705013 520,171.5882871705013L520,172.25423595528514C270,172.25423595528514 270,283.3404005229936 20,283.3404005229936Z" style="stroke: rgb(86, 180, 233); stroke-opacity: 1; fill: rgb(86, 180, 233); fill-opacity: 1; stroke-width: 1; opacity: 1;"/><path class="sankey-link" d="M20,283.7045842161606C270,283.7045842161606 270,246.17947207495783 520,246.17947207495783L520,247.31820185761828C270,247.31820185761828 270,284.84331399882103 20,284.84331399882103Z" style="stroke: rgb(68, 68, 68); stroke-opacity: 1; fill: rgb(86, 180, 233); fill-opacity: 1; stroke-width: 0; opacity: 1;"/><path class="sankey-link" d="M20,283.3404005229936C270,283.3404005229936 270,189.8091448661152 520,189.8091448661152L520,189.91647801765905C270,189.91647801765905 270,283.4477336745375 20,283.4477336745375Z" style="stroke: rgb(86, 180, 233); stroke-opacity: 1; fill: rgb(86, 180, 233); fill-opacity: 1; stroke-width: 1; opacity: 1;"/><path class="sankey-link" d="M20,282.3821896502945C270,282.3821896502945 270,125.5103843793254 520,125.5103843793254L520,125.75148301218913C270,125.75148301218913 270,282.62328828315816 20,282.62328828315816Z" style="stroke: rgb(86, 180, 233); stroke-opacity: 1; fill: rgb(86, 180, 233); fill-opacity: 1; stroke-width: 1; opacity: 1;"/><path class="sankey-link" d="M20,284.84331399882103C270,284.84331399882103 270,284.8433139988211 520,284.8433139988211L520,319.99999999999994C270,319.99999999999994 270,319.9999999999999 20,319.9999999999999Z" style="stroke: rgb(68, 68, 68); stroke-opacity: 1; fill: rgb(86, 180, 233); fill-opacity: 1; stroke-width: 0; opacity: 1;"/></g><g class="sankey-node-set" style="cursor: move;"><g class="sankey-node" transform="translate(0.000,196.397)" style="opacity: 1;"><rect class="node-rect" width="20" height="8.743740636826317" style="stroke-width: 0.5; stroke: rgb(0, 0, 0); stroke-opacity: 1; fill: rgb(211, 211, 211); fill-opacity: 1;"/><text class="node-label" data-notex="1" x="0" y="0" text-anchor="start" transform="translate(23.25,7.871870318413158)" style="cursor: default; font-family: 'Open Sans', verdana, arial, sans-serif; font-size: 10px; fill: rgb(42, 63, 95); fill-opacity: 1; white-space: pre; text-shadow: white 1px 1px 1px, white -1px -1px 1px, white 1px -1px 1px, white -1px 1px 1px;">Africa (31 Mt)</text></g><g class="sankey-node" transform="translate(0.000,138.776)" style="opacity: 1;"><rect class="node-rect" width="20" height="6.706767805943798" style="stroke-width: 0.5; stroke: rgb(0, 0, 0); stroke-opacity: 1; fill: rgb(211, 211, 211); fill-opacity: 1;"/><text class="node-label" data-notex="1" x="0" y="0" text-anchor="start" transform="translate(23.25,6.853383902971899)" style="cursor: default; font-family: 'Open Sans', verdana, arial, sans-serif; font-size: 10px; fill: rgb(42, 63, 95); fill-opacity: 1; white-space: pre; text-shadow: white 1px 1px 1px, white -1px -1px 1px, white 1px -1px 1px, white -1px 1px 1px;">Australia (24 Mt)</text></g><g class="sankey-node" transform="translate(0.000,-0.000)" style="opacity: 1;"><rect class="node-rect" width="20" height="55.99339730041815" style="stroke-width: 0.5; stroke: rgb(0, 0, 0); stroke-opacity: 1; fill: rgb(211, 211, 211); fill-opacity: 1;"/><text class="node-label" data-notex="1" x="0" y="0" text-anchor="start" transform="translate(23.25,31.496698650209076)" style="cursor: default; font-family: 'Open Sans', verdana, arial, sans-serif; font-size: 10px; fill: rgb(42, 63, 95); fill-opacity: 1; white-space: pre; text-shadow: white 1px 1px 1px, white -1px -1px 1px, white 1px -1px 1px, white -1px 1px 1px;">China (200 Mt)</text></g><g class="sankey-node" transform="translate(0.000,70.993)" style="opacity: 1;"><rect class="node-rect" width="20" height="23.93259931306136" style="stroke-width: 0.5; stroke: rgb(0, 0, 0); stroke-opacity: 1; fill: rgb(211, 211, 211); fill-opacity: 1;"/><text class="node-label" data-notex="1" x="0" y="0" text-anchor="start" transform="translate(23.25,15.46629965653068)" style="cursor: default; font-family: 'Open Sans', verdana, arial, sans-serif; font-size: 10px; fill: rgb(42, 63, 95); fill-opacity: 1; white-space: pre; text-shadow: white 1px 1px 1px, white -1px -1px 1px, white 1px -1px 1px, white -1px 1px 1px;">Europe (85 Mt)</text></g><g class="sankey-node" transform="translate(0.000,235.235)" style="opacity: 1;"><rect class="node-rect" width="20" height="3.6243938593325424" style="stroke-width: 0.5; stroke: rgb(0, 0, 0); stroke-opacity: 1; fill: rgb(211, 211, 211); fill-opacity: 1;"/><text class="node-label" data-notex="1" x="0" y="0" text-anchor="start" transform="translate(23.25,5.312196929666271)" style="cursor: default; font-family: 'Open Sans', verdana, arial, sans-serif; font-size: 10px; fill: rgb(42, 63, 95); fill-opacity: 1; white-space: pre; text-shadow: white 1px 1px 1px, white -1px -1px 1px, white 1px -1px 1px, white -1px 1px 1px;">India (12 Mt)</text></g><g class="sankey-node" transform="translate(0.000,220.141)" style="opacity: 1;"><rect class="node-rect" width="20" height="0.5" style="stroke-width: 0.5; stroke: rgb(0, 0, 0); stroke-opacity: 1; fill: rgb(211, 211, 211); fill-opacity: 1;"/><text class="node-label" data-notex="1" x="0" y="0" text-anchor="start" transform="translate(23.25,3.75)" style="cursor: default; font-family: 'Open Sans', verdana, arial, sans-serif; font-size: 10px; fill: rgb(42, 63, 95); fill-opacity: 1; white-space: pre; text-shadow: white 1px 1px 1px, white -1px -1px 1px, white 1px -1px 1px, white -1px 1px 1px;">Japan and Korea (0 Mt)</text></g><g class="sankey-node" transform="translate(0.000,253.859)" style="opacity: 1;"><rect class="node-rect" width="20" height="11.104556537873634" style="stroke-width: 0.5; stroke: rgb(0, 0, 0); stroke-opacity: 1; fill: rgb(211, 211, 211); fill-opacity: 1;"/><text class="node-label" data-notex="1" x="0" y="0" text-anchor="start" transform="translate(23.25,9.052278268936817)" style="cursor: default; font-family: 'Open Sans', verdana, arial, sans-serif; font-size: 10px; fill: rgb(42, 63, 95); fill-opacity: 1; white-space: pre; text-shadow: white 1px 1px 1px, white -1px -1px 1px, white 1px -1px 1px, white -1px 1px 1px;">Latin America (39 Mt)</text></g><g class="sankey-node" transform="translate(0.000,160.482)" style="opacity: 1;"><rect class="node-rect" width="20" height="20.91500654979825" style="stroke-width: 0.5; stroke: rgb(0, 0, 0); stroke-opacity: 1; fill: rgb(211, 211, 211); fill-opacity: 1;"/><text class="node-label" data-notex="1" x="0" y="0" text-anchor="start" transform="translate(23.25,13.957503274899125)" style="cursor: default; font-family: 'Open Sans', verdana, arial, sans-serif; font-size: 10px; fill: rgb(42, 63, 95); fill-opacity: 1; white-space: pre; text-shadow: white 1px 1px 1px, white -1px -1px 1px, white 1px -1px 1px, white -1px 1px 1px;">Middle East (74 Mt)</text></g><g class="sankey-node" transform="translate(0.000,109.926)" style="opacity: 1;"><rect class="node-rect" width="20" height="13.8496273366776" style="stroke-width: 0.5; stroke: rgb(0, 0, 0); stroke-opacity: 1; fill: rgb(211, 211, 211); fill-opacity: 1;"/><text class="node-label" data-notex="1" x="0" y="0" text-anchor="start" transform="translate(23.25,10.4248136683388)" style="cursor: default; font-family: 'Open Sans', verdana, arial, sans-serif; font-size: 10px; fill: rgb(42, 63, 95); fill-opacity: 1; white-space: pre; text-shadow: white 1px 1px 1px, white -1px -1px 1px, white 1px -1px 1px, white -1px 1px 1px;">Rest of Asia (49 Mt)</text></g><g class="sankey-node" transform="translate(0.000,279.964)" style="opacity: 1;"><rect class="node-rect" width="20" height="40.03604831140785" style="stroke-width: 0.5; stroke: rgb(0, 0, 0); stroke-opacity: 1; fill: rgb(211, 211, 211); fill-opacity: 1;"/><text class="node-label" data-notex="1" x="0" y="0" text-anchor="start" transform="translate(23.25,23.518024155703927)" style="cursor: default; font-family: 'Open Sans', verdana, arial, sans-serif; font-size: 10px; fill: rgb(42, 63, 95); fill-opacity: 1; white-space: pre; text-shadow: white 1px 1px 1px, white -1px -1px 1px, white 1px -1px 1px, white -1px 1px 1px;">USA and Canada (143 Mt)</text></g><g class="sankey-node" transform="translate(520.000,204.916)" style="opacity: 1;"><rect class="node-rect" width="20" height="2.572837775299263" style="stroke-width: 0.5; stroke: rgb(0, 0, 0); stroke-opacity: 1; fill: rgb(211, 211, 211); fill-opacity: 1;"/><text class="node-label" data-notex="1" x="0" y="0" text-anchor="end" transform="translate(-3.25,4.786418887649631)" style="cursor: default; font-family: 'Open Sans', verdana, arial, sans-serif; font-size: 10px; fill: rgb(42, 63, 95); fill-opacity: 1; white-space: pre; text-shadow: white 1px 1px 1px, white -1px -1px 1px, white 1px -1px 1px, white -1px 1px 1px;">Africa (9 Mt)</text></g><g class="sankey-node" transform="translate(520.000,140.751)" style="opacity: 1;"><rect class="node-rect" width="20" height="2.9228274830639407" style="stroke-width: 0.5; stroke: rgb(0, 0, 0); stroke-opacity: 1; fill: rgb(211, 211, 211); fill-opacity: 1;"/><text class="node-label" data-notex="1" x="0" y="0" text-anchor="end" transform="translate(-3.25,4.96141374153197)" style="cursor: default; font-family: 'Open Sans', verdana, arial, sans-serif; font-size: 10px; fill: rgb(42, 63, 95); fill-opacity: 1; white-space: pre; text-shadow: white 1px 1px 1px, white -1px -1px 1px, white 1px -1px 1px, white -1px 1px 1px;">Australia (10 Mt)</text></g><g class="sankey-node" transform="translate(520.000,-0.000)" style="opacity: 1;"><rect class="node-rect" width="20" height="59.60893261077497" style="stroke-width: 0.5; stroke: rgb(0, 0, 0); stroke-opacity: 1; fill: rgb(211, 211, 211); fill-opacity: 1;"/><text class="node-label" data-notex="1" x="0" y="0" text-anchor="end" transform="translate(-3.25,33.304466305387486)" style="cursor: default; font-family: 'Open Sans', verdana, arial, sans-serif; font-size: 10px; fill: rgb(42, 63, 95); fill-opacity: 1; white-space: pre; text-shadow: white 1px 1px 1px, white -1px -1px 1px, white 1px -1px 1px, white -1px 1px 1px;">China (213 Mt)</text></g><g class="sankey-node" transform="translate(520.000,74.609)" style="opacity: 1;"><rect class="node-rect" width="20" height="30.299831819456074" style="stroke-width: 0.5; stroke: rgb(0, 0, 0); stroke-opacity: 1; fill: rgb(211, 211, 211); fill-opacity: 1;"/><text class="node-label" data-notex="1" x="0" y="0" text-anchor="end" transform="translate(-3.25,18.649915909728037)" style="cursor: default; font-family: 'Open Sans', verdana, arial, sans-serif; font-size: 10px; fill: rgb(42, 63, 95); fill-opacity: 1; white-space: pre; text-shadow: white 1px 1px 1px, white -1px -1px 1px, white 1px -1px 1px, white -1px 1px 1px;">Europe (108 Mt)</text></g><g class="sankey-node" transform="translate(520.000,222.489)" style="opacity: 1;"><rect class="node-rect" width="20" height="2.9179402279601163" style="stroke-width: 0.5; stroke: rgb(0, 0, 0); stroke-opacity: 1; fill: rgb(211, 211, 211); fill-opacity: 1;"/><text class="node-label" data-notex="1" x="0" y="0" text-anchor="end" transform="translate(-3.25,4.958970113980058)" style="cursor: default; font-family: 'Open Sans', verdana, arial, sans-serif; font-size: 10px; fill: rgb(42, 63, 95); fill-opacity: 1; white-space: pre; text-shadow: white 1px 1px 1px, white -1px -1px 1px, white 1px -1px 1px, white -1px 1px 1px;">India (10 Mt)</text></g><g class="sankey-node" transform="translate(520.000,158.674)" style="opacity: 1;"><rect class="node-rect" width="20" height="13.579925460032086" style="stroke-width: 0.5; stroke: rgb(0, 0, 0); stroke-opacity: 1; fill: rgb(211, 211, 211); fill-opacity: 1;"/><text class="node-label" data-notex="1" x="0" y="0" text-anchor="end" transform="translate(-3.25,10.289962730016043)" style="cursor: default; font-family: 'Open Sans', verdana, arial, sans-serif; font-size: 10px; fill: rgb(42, 63, 95); fill-opacity: 1; white-space: pre; text-shadow: white 1px 1px 1px, white -1px -1px 1px, white 1px -1px 1px, white -1px 1px 1px;">Japan and Korea (48 Mt)</text></g><g class="sankey-node" transform="translate(520.000,240.407)" style="opacity: 1;"><rect class="node-rect" width="20" height="6.910945836699739" style="stroke-width: 0.5; stroke: rgb(0, 0, 0); stroke-opacity: 1; fill: rgb(211, 211, 211); fill-opacity: 1;"/><text class="node-label" data-notex="1" x="0" y="0" text-anchor="end" transform="translate(-3.25,6.955472918349869)" style="cursor: default; font-family: 'Open Sans', verdana, arial, sans-serif; font-size: 10px; fill: rgb(42, 63, 95); fill-opacity: 1; white-space: pre; text-shadow: white 1px 1px 1px, white -1px -1px 1px, white 1px -1px 1px, white -1px 1px 1px;">Latin America (24 Mt)</text></g><g class="sankey-node" transform="translate(520.000,187.254)" style="opacity: 1;"><rect class="node-rect" width="20" height="2.6622420623739345" style="stroke-width: 0.5; stroke: rgb(0, 0, 0); stroke-opacity: 1; fill: rgb(211, 211, 211); fill-opacity: 1;"/><text class="node-label" data-notex="1" x="0" y="0" text-anchor="end" transform="translate(-3.25,4.831121031186967)" style="cursor: default; font-family: 'Open Sans', verdana, arial, sans-serif; font-size: 10px; fill: rgb(42, 63, 95); fill-opacity: 1; white-space: pre; text-shadow: white 1px 1px 1px, white -1px -1px 1px, white 1px -1px 1px, white -1px 1px 1px;">Middle East (9 Mt)</text></g><g class="sankey-node" transform="translate(520.000,119.909)" style="opacity: 1;"><rect class="node-rect" width="20" height="5.842718581958138" style="stroke-width: 0.5; stroke: rgb(0, 0, 0); stroke-opacity: 1; fill: rgb(211, 211, 211); fill-opacity: 1;"/><text class="node-label" data-notex="1" x="0" y="0" text-anchor="end" transform="translate(-3.25,6.421359290979069)" style="cursor: default; font-family: 'Open Sans', verdana, arial, sans-serif; font-size: 10px; fill: rgb(42, 63, 95); fill-opacity: 1; white-space: pre; text-shadow: white 1px 1px 1px, white -1px -1px 1px, white 1px -1px 1px, white -1px 1px 1px;">Rest of Asia (20 Mt)</text></g><g class="sankey-node" transform="translate(520.000,262.318)" style="opacity: 1;"><rect class="node-rect" width="20" height="57.68179814238175" style="stroke-width: 0.5; stroke: rgb(0, 0, 0); stroke-opacity: 1; fill: rgb(211, 211, 211); fill-opacity: 1;"/><text class="node-label" data-notex="1" x="0" y="0" text-anchor="end" transform="translate(-3.25,32.340899071190876)" style="cursor: default; font-family: 'Open Sans', verdana, arial, sans-serif; font-size: 10px; fill: rgb(42, 63, 95); fill-opacity: 1; white-space: pre; text-shadow: white 1px 1px 1px, white -1px -1px 1px, white 1px -1px 1px, white -1px 1px 1px;">USA and Canada (206 Mt)</text></g></g></g><defs id="topdefs-83e373"><g class="clips"/></defs><g class="layer-above"><g class="imagelayer"/><g class="shapelayer"/></g><g class="infolayer"><g class="g-gtitle"><text class="gtitle" x="35" y="50" text-anchor="start" dy="0em" style="font-family: 'Open Sans', verdana, arial, sans-serif; font-size: 14px; fill: rgb(42, 63, 95); opacity: 1; font-weight: normal; white-space: pre;">Healthcare systems consumption of fossil fuels in 2013</text></g><g class="first-render"/></g></svg>