<svg class="main-svg" xmlns="http://www.w3.org/2000/svg" xmlns:xlink="http://www.w3.org/1999/xlink" width="700" height="500" viewBox="0 0 700 500"><rect x="0" y="0" width="700" height="500" style="fill: rgb(255, 255, 255); fill-opacity: 1;"/><defs id="defs-bd4f0d"><g class="clips"/><g class="gradients"/><g class="patterns"/></defs><g class="bglayer"/><g class="layer-below"><g class="imagelayer"/><g class="shapelayer"/></g><g class="cartesianlayer"/><g class="polarlayer"/><g class="smithlayer"/><g class="ternarylayer"/><g class="geolayer"/><g class="funnelarealayer"/><g class="pielayer"/><g class="iciclelayer"/><g class="treemaplayer"/><g class="sunburstlayer"/><g class="glimages"/><g class="sankey" transform="translate(80,100)matrix(1 0 0 1 0 0)" style="box-sizing: content-box; position: absolute; left: 0px; shape-rendering: geometricPrecision; pointer-events: auto;"><g class="sankey-links" style="fill: none;"><path class="sankey-link" d="M20,296.07795825648014C270,296.07795825648014 270,299.7515737648597 520,299.7515737648597L520,302.33654129220315C270,302.33654129220315 270,298.6629257838236 20,298.6629257838236Z" style="stroke: rgb(68, 68, 68); stroke-opacity: 1; fill: rgb(1, 115, 178); fill-opacity: 1; stroke-width: 0; opacity: 1;"/><path class="sankey-link" d="M20,292.8674786697774C270,292.8674786697774 270,89.59573220380425 520,89.59573220380425L520,89.67889487216188C270,89.67889487216188 270,292.9506413381351 20,292.9506413381351Z" style="stroke: rgb(1, 115, 178); stroke-opacity: 1; fill: rgb(1, 115, 178); fill-opacity: 1; stroke-width: 1; opacity: 1;"/><path class="sankey-link" d="M20,291.2671237997695C270,291.2671237997695 270,67.10107479525074 520,67.10107479525074L520,68.70142966525866C270,68.70142966525866 270,292.86747866977737 20,292.86747866977737Z" style="stroke: rgb(68, 68, 68); stroke-opacity: 1; fill: rgb(1, 115, 178); fill-opacity: 1; stroke-width: 0; opacity: 1;"/><path class="sankey-link" d="M20,294.8292943735711C270,294.8292943735711 270,235.38452129264113 520,235.38452129264113L520,236.31744891062203C270,236.31744891062203 270,295.762221991552 20,295.762221991552Z" style="stroke: rgb(1, 115, 178); stroke-opacity: 1; fill: rgb(1, 115, 178); fill-opacity: 1; stroke-width: 1; opacity: 1;"/><path class="sankey-link" d="M20,298.66292578382354C270,298.66292578382354 270,318.63185121991154 520,318.63185121991154L520,318.68031169174577C270,318.68031169174577 270,298.71138625565777 20,298.71138625565777Z" style="stroke: rgb(1, 115, 178); stroke-opacity: 1; fill: rgb(1, 115, 178); fill-opacity: 1; stroke-width: 1; opacity: 1;"/><path class="sankey-link" d="M20,292.9506413381351C270,292.9506413381351 270,119.48228817563428 520,119.48228817563428L520,119.78321119261118C270,119.78321119261118 270,293.25156435511195 20,293.25156435511195Z" style="stroke: rgb(1, 115, 178); stroke-opacity: 1; fill: rgb(1, 115, 178); fill-opacity: 1; stroke-width: 1; opacity: 1;"/><path class="sankey-link" d="M20,295.762221991552C270,295.762221991552 270,260.2195295642559 520,260.2195295642559L520,260.39022694061424C270,260.39022694061424 270,295.93291936791036 20,295.93291936791036Z" style="stroke: rgb(1, 115, 178); stroke-opacity: 1; fill: rgb(1, 115, 178); fill-opacity: 1; stroke-width: 1; opacity: 1;"/><path class="sankey-link" d="M20,295.93291936791036C270,295.93291936791036 270,282.46936866559497 520,282.46936866559497L520,282.6144075541647C270,282.6144075541647 270,296.0779582564801 20,296.0779582564801Z" style="stroke: rgb(1, 115, 178); stroke-opacity: 1; fill: rgb(1, 115, 178); fill-opacity: 1; stroke-width: 1; opacity: 1;"/><path class="sankey-link" d="M20,293.251564355112C270,293.251564355112 270,143.86090381205634 520,143.86090381205634L520,144.18533231869822C270,144.18533231869822 270,293.5759928617539 20,293.5759928617539Z" style="stroke: rgb(1, 115, 178); stroke-opacity: 1; fill: rgb(1, 115, 178); fill-opacity: 1; stroke-width: 1; opacity: 1;"/><path class="sankey-link" d="M20,293.5759928617539C270,293.5759928617539 270,197.5022741870874 520,197.5022741870874L520,198.7555756989046C270,198.7555756989046 270,294.8292943735711 20,294.8292943735711Z" style="stroke: rgb(68, 68, 68); stroke-opacity: 1; fill: rgb(1, 115, 178); fill-opacity: 1; stroke-width: 0; opacity: 1;"/><path class="sankey-link" d="M20,126.57531081210263C270,126.57531081210263 270,298.5982664053415 520,298.5982664053415L520,299.0178814526174C270,299.0178814526174 270,126.99492585937858 20,126.99492585937858Z" style="stroke: rgb(222, 143, 5); stroke-opacity: 1; fill: rgb(222, 143, 5); fill-opacity: 1; stroke-width: 1; opacity: 1;"/><path class="sankey-link" d="M20,96.96050634733709C270,96.96050634733709 270,85.30814264292563 520,85.30814264292563L520,88.9635452020794C270,88.9635452020794 270,100.61590890649086 20,100.61590890649086Z" style="stroke: rgb(68, 68, 68); stroke-opacity: 1; fill: rgb(222, 143, 5); fill-opacity: 1; stroke-width: 0; opacity: 1;"/><path class="sankey-link" d="M20,85.31720537357339C270,85.31720537357339 270,41.2990320697665 520,41.2990320697665L520,52.9423330435302C270,52.9423330435302 270,96.96050634733709 20,96.96050634733709Z" style="stroke: rgb(68, 68, 68); stroke-opacity: 1; fill: rgb(222, 143, 5); fill-opacity: 1; stroke-width: 0; opacity: 1;"/><path class="sankey-link" d="M20,120.46249556267799C270,120.46249556267799 270,221.26228320228984 520,221.26228320228984L520,225.2471440915773C270,225.2471440915773 270,124.44735645196542 20,124.44735645196542Z" style="stroke: rgb(68, 68, 68); stroke-opacity: 1; fill: rgb(222, 143, 5); fill-opacity: 1; stroke-width: 0; opacity: 1;"/><path class="sankey-link" d="M20,126.99492585937858C270,126.99492585937858 270,317.89824855116547 520,317.89824855116547L520,318.1746614767744C270,318.1746614767744 270,127.27133878498748 20,127.27133878498748Z" style="stroke: rgb(222, 143, 5); stroke-opacity: 1; fill: rgb(222, 143, 5); fill-opacity: 1; stroke-width: 1; opacity: 1;"/><path class="sankey-link" d="M20,100.61590890649086C270,100.61590890649086 270,107.82290435172202 520,107.82290435172202L520,115.4329652450581C270,115.4329652450581 270,108.22596979982694 20,108.22596979982694Z" style="stroke: rgb(68, 68, 68); stroke-opacity: 1; fill: rgb(222, 143, 5); fill-opacity: 1; stroke-width: 0; opacity: 1;"/><path class="sankey-link" d="M20,124.44735645196543C270,124.44735645196543 270,254.13399767585494 520,254.13399767585494L520,255.35045871216684C270,255.35045871216684 270,125.6638174882773 20,125.6638174882773Z" style="stroke: rgb(68, 68, 68); stroke-opacity: 1; fill: rgb(222, 143, 5); fill-opacity: 1; stroke-width: 0; opacity: 1;"/><path class="sankey-link" d="M20,125.6638174882773C270,125.6638174882773 270,276.8328921271935 520,276.8328921271935L520,277.7443854510188C270,277.7443854510188 270,126.57531081210264 20,126.57531081210264Z" style="stroke: rgb(222, 143, 5); stroke-opacity: 1; fill: rgb(222, 143, 5); fill-opacity: 1; stroke-width: 1; opacity: 1;"/><path class="sankey-link" d="M20,108.22596979982696C270,108.22596979982696 270,138.1211977669979 520,138.1211977669979L520,140.9610506948572C270,140.9610506948572 270,111.06582272768624 20,111.06582272768624Z" style="stroke: rgb(68, 68, 68); stroke-opacity: 1; fill: rgb(222, 143, 5); fill-opacity: 1; stroke-width: 0; opacity: 1;"/><path class="sankey-link" d="M20,111.06582272768622C270,111.06582272768622 270,171.77223446164288 520,171.77223446164288L520,181.16890729663464C270,181.16890729663464 270,120.46249556267799 20,120.46249556267799Z" style="stroke: rgb(68, 68, 68); stroke-opacity: 1; fill: rgb(222, 143, 5); fill-opacity: 1; stroke-width: 0; opacity: 1;"/><path class="sankey-link" d="M20,69.32040343245092C270,69.32040343245092 270,297.996268083556 520,297.996268083556L520,298.5982664053416C270,298.5982664053416 270,69.92240175423643 20,69.92240175423643Z" style="stroke: rgb(2, 158, 115); stroke-opacity: 1; fill: rgb(2, 158, 115); fill-opacity: 1; stroke-width: 1; opacity: 1;"/><path class="sankey-link" d="M20,41.299032069766774C270,41.299032069766774 270,84.54523861235046 520,84.54523861235046L520,85.30814264292565C270,85.30814264292565 270,42.061936100341946 20,42.061936100341946Z" style="stroke: rgb(2, 158, 115); stroke-opacity: 1; fill: rgb(2, 158, 115); fill-opacity: 1; stroke-width: 1; opacity: 1;"/><path class="sankey-link" d="M20,0C270,0 270,-2.7711166694643907e-13 520,-2.7711166694643907e-13L520,41.2990320697665C270,41.2990320697665 270,41.299032069766774 20,41.299032069766774Z" style="stroke: rgb(68, 68, 68); stroke-opacity: 1; fill: rgb(2, 158, 115); fill-opacity: 1; stroke-width: 0; opacity: 1;"/><path class="sankey-link" d="M20,60.308718315217675C270,60.308718315217675 270,215.35534072321505 520,215.35534072321505L520,221.2622832022898C270,221.2622832022898 270,66.21566079429245 20,66.21566079429245Z" style="stroke: rgb(68, 68, 68); stroke-opacity: 1; fill: rgb(2, 158, 115); fill-opacity: 1; stroke-width: 0; opacity: 1;"/><path class="sankey-link" d="M20,69.92240175423645C270,69.92240175423645 270,317.50344493182854 520,317.50344493182854L520,317.89824855116547C270,317.89824855116547 270,70.31720537357337 20,70.31720537357337Z" style="stroke: rgb(2, 158, 115); stroke-opacity: 1; fill: rgb(2, 158, 115); fill-opacity: 1; stroke-width: 1; opacity: 1;"/><path class="sankey-link" d="M20,42.061936100341946C270,42.061936100341946 270,104.75249590577263 520,104.75249590577263L520,107.82290435172203C270,107.82290435172203 270,45.13234454629133 20,45.13234454629133Z" style="stroke: rgb(68, 68, 68); stroke-opacity: 1; fill: rgb(2, 158, 115); fill-opacity: 1; stroke-width: 0; opacity: 1;"/><path class="sankey-link" d="M20,66.21566079429245C270,66.21566079429245 270,252.26337812400806 520,252.26337812400806L520,254.13399767585497C270,254.13399767585497 270,68.08628034613933 20,68.08628034613933Z" style="stroke: rgb(68, 68, 68); stroke-opacity: 1; fill: rgb(2, 158, 115); fill-opacity: 1; stroke-width: 0; opacity: 1;"/><path class="sankey-link" d="M20,68.08628034613935C270,68.08628034613935 270,275.5987690408819 520,275.5987690408819L520,276.8328921271935C270,276.8328921271935 270,69.32040343245092 20,69.32040343245092Z" style="stroke: rgb(68, 68, 68); stroke-opacity: 1; fill: rgb(2, 158, 115); fill-opacity: 1; stroke-width: 0; opacity: 1;"/><path class="sankey-link" d="M20,45.132344546291336C270,45.132344546291336 270,135.17482231136418 520,135.17482231136418L520,138.12119776699794C270,138.12119776699794 270,48.07872000192508 20,48.07872000192508Z" style="stroke: rgb(68, 68, 68); stroke-opacity: 1; fill: rgb(2, 158, 115); fill-opacity: 1; stroke-width: 0; opacity: 1;"/><path class="sankey-link" d="M20,48.07872000192508C270,48.07872000192508 270,159.54223614835027 520,159.54223614835027L520,171.77223446164285C270,171.77223446164285 270,60.308718315217675 20,60.308718315217675Z" style="stroke: rgb(68, 68, 68); stroke-opacity: 1; fill: rgb(2, 158, 115); fill-opacity: 1; stroke-width: 0; opacity: 1;"/><path class="sankey-link" d="M20,191.3347895634769C270,191.3347895634769 270,299.0811153689491 520,299.0811153689491L520,299.2809073037778C270,299.2809073037778 270,191.53458149830558 20,191.53458149830558Z" style="stroke: rgb(213, 94, 0); stroke-opacity: 1; fill: rgb(213, 94, 0); fill-opacity: 1; stroke-width: 1; opacity: 1;"/><path class="sankey-link" d="M20,181.5716825050864C270,181.5716825050864 270,89.0517119933869 520,89.0517119933869L520,89.21658396204091C270,89.21658396204091 270,181.73655447374037 20,181.73655447374037Z" style="stroke: rgb(213, 94, 0); stroke-opacity: 1; fill: rgb(213, 94, 0); fill-opacity: 1; stroke-width: 1; opacity: 1;"/><path class="sankey-link" d="M20,177.64387864935273C270,177.64387864935273 270,54.78375512906838 520,54.78375512906838L520,58.71155898480204C270,58.71155898480204 270,181.5716825050864 20,181.5716825050864Z" style="stroke: rgb(68, 68, 68); stroke-opacity: 1; fill: rgb(213, 94, 0); fill-opacity: 1; stroke-width: 0; opacity: 1;"/><path class="sankey-link" d="M20,186.33948759893227C270,186.33948759893227 270,226.33226851812987 520,226.33226851812987L520,229.6959999737859C270,229.6959999737859 270,189.7032190545883 20,189.7032190545883Z" style="stroke: rgb(68, 68, 68); stroke-opacity: 1; fill: rgb(213, 94, 0); fill-opacity: 1; stroke-width: 0; opacity: 1;"/><path class="sankey-link" d="M20,191.53458149830558C270,191.53458149830558 270,318.21456632613763 520,318.21456632613763L520,318.3183661264037C270,318.3183661264037 270,191.63838129857166 20,191.63838129857166Z" style="stroke: rgb(213, 94, 0); stroke-opacity: 1; fill: rgb(213, 94, 0); fill-opacity: 1; stroke-width: 1; opacity: 1;"/><path class="sankey-link" d="M20,181.7365544737404C270,181.7365544737404 270,115.87624923677566 520,115.87624923677566L520,116.53212762380508C270,116.53212762380508 270,182.39243286076982 20,182.39243286076982Z" style="stroke: rgb(213, 94, 0); stroke-opacity: 1; fill: rgb(213, 94, 0); fill-opacity: 1; stroke-width: 1; opacity: 1;"/><path class="sankey-link" d="M20,189.7032190545883C270,189.7032190545883 270,255.50759112739848 520,255.50759112739848L520,255.92516745349258C270,255.92516745349258 270,190.12079538068238 20,190.12079538068238Z" style="stroke: rgb(213, 94, 0); stroke-opacity: 1; fill: rgb(213, 94, 0); fill-opacity: 1; stroke-width: 1; opacity: 1;"/><path class="sankey-link" d="M20,190.12079538068238C270,190.12079538068238 270,277.8893931139742 520,277.8893931139742L520,279.10338729676874C270,279.10338729676874 270,191.3347895634769 20,191.3347895634769Z" style="stroke: rgb(68, 68, 68); stroke-opacity: 1; fill: rgb(213, 94, 0); fill-opacity: 1; stroke-width: 0; opacity: 1;"/><path class="sankey-link" d="M20,182.39243286076982C270,182.39243286076982 270,141.34129781412693 520,141.34129781412693L520,142.15148470096935C270,142.15148470096935 270,183.20261974761223 20,183.20261974761223Z" style="stroke: rgb(213, 94, 0); stroke-opacity: 1; fill: rgb(213, 94, 0); fill-opacity: 1; stroke-width: 1; opacity: 1;"/><path class="sankey-link" d="M20,183.20261974761226C270,183.20261974761226 270,182.29792390273226 520,182.29792390273226L520,185.43479175405227C270,185.43479175405227 270,186.33948759893227 20,186.33948759893227Z" style="stroke: rgb(68, 68, 68); stroke-opacity: 1; fill: rgb(213, 94, 0); fill-opacity: 1; stroke-width: 0; opacity: 1;"/><path class="sankey-link" d="M20,318.51340805212055C270,318.51340805212055 270,302.3365412922031 520,302.3365412922031L520,302.50344493182837C270,302.50344493182837 270,318.6803116917458 20,318.6803116917458Z" style="stroke: rgb(204, 120, 188); stroke-opacity: 1; fill: rgb(204, 120, 188); fill-opacity: 1; stroke-width: 1; opacity: 1;"/><path class="sankey-link" d="M20,314.5551952027496C270,314.5551952027496 270,89.67889487216189 520,89.67889487216189L520,89.7524959057726C270,89.7524959057726 270,314.62879623636036 20,314.62879623636036Z" style="stroke: rgb(204, 120, 188); stroke-opacity: 1; fill: rgb(204, 120, 188); fill-opacity: 1; stroke-width: 1; opacity: 1;"/><path class="sankey-link" d="M20,313.71138625565777C270,313.71138625565777 270,68.70142966525866 520,68.70142966525866L520,69.54523861235045C270,69.54523861235045 270,314.5551952027496 20,314.5551952027496Z" style="stroke: rgb(204, 120, 188); stroke-opacity: 1; fill: rgb(204, 120, 188); fill-opacity: 1; stroke-width: 1; opacity: 1;"/><path class="sankey-link" d="M20,316.97707620907573C270,316.97707620907573 270,236.31744891062206 520,236.31744891062206L520,237.26337812400797C270,237.26337812400797 270,317.9230054224617 20,317.9230054224617Z" style="stroke: rgb(204, 120, 188); stroke-opacity: 1; fill: rgb(204, 120, 188); fill-opacity: 1; stroke-width: 1; opacity: 1;"/><path class="sankey-link" d="M20,318.6803116917458C270,318.6803116917458 270,318.68031169174577 520,318.68031169174577L520,319.99999999999994C270,319.99999999999994 270,320 20,320Z" style="stroke: rgb(68, 68, 68); stroke-opacity: 1; fill: rgb(204, 120, 188); fill-opacity: 1; stroke-width: 0; opacity: 1;"/><path class="sankey-link" d="M20,314.6287962363603C270,314.6287962363603 270,119.78321119261119 520,119.78321119261119L520,120.17482231136418C270,120.17482231136418 270,315.02040735511326 20,315.02040735511326Z" style="stroke: rgb(204, 120, 188); stroke-opacity: 1; fill: rgb(204, 120, 188); fill-opacity: 1; stroke-width: 1; opacity: 1;"/><path class="sankey-link" d="M20,317.92300542246164C270,317.92300542246164 270,260.39022694061424 520,260.39022694061424L520,260.5987690408819C270,260.5987690408819 270,318.1315475227293 20,318.1315475227293Z" style="stroke: rgb(204, 120, 188); stroke-opacity: 1; fill: rgb(204, 120, 188); fill-opacity: 1; stroke-width: 1; opacity: 1;"/><path class="sankey-link" d="M20,318.13154752272925C270,318.13154752272925 270,282.61440755416476 520,282.61440755416476L520,282.9962680835561C270,282.9962680835561 270,318.5134080521206 20,318.5134080521206Z" style="stroke: rgb(204, 120, 188); stroke-opacity: 1; fill: rgb(204, 120, 188); fill-opacity: 1; stroke-width: 1; opacity: 1;"/><path class="sankey-link" d="M20,315.02040735511326C270,315.02040735511326 270,144.18533231869822 520,144.18533231869822L520,144.54223614835024C270,144.54223614835024 270,315.37731118476535 20,315.37731118476535Z" style="stroke: rgb(204, 120, 188); stroke-opacity: 1; fill: rgb(204, 120, 188); fill-opacity: 1; stroke-width: 1; opacity: 1;"/><path class="sankey-link" d="M20,315.3773111847653C270,315.3773111847653 270,198.7555756989046 520,198.7555756989046L520,200.35534072321505C270,200.35534072321505 270,316.9770762090757 20,316.9770762090757Z" style="stroke: rgb(68, 68, 68); stroke-opacity: 1; fill: rgb(204, 120, 188); fill-opacity: 1; stroke-width: 0; opacity: 1;"/><path class="sankey-link" d="M20,162.64301538397825C270,162.64301538397825 270,299.0806613183284 520,299.0806613183284L520,299.08111536894916C270,299.08111536894916 270,162.64346943459896 20,162.64346943459896Z" style="stroke: rgb(202, 145, 97); stroke-opacity: 1; fill: rgb(202, 145, 97); fill-opacity: 1; stroke-width: 1; opacity: 1;"/><path class="sankey-link" d="M20,162.60827311584558C270,162.60827311584558 270,89.05107253579197 520,89.05107253579197L520,89.0517119933869C270,89.0517119933869 270,162.60891257344053 20,162.60891257344053Z" style="stroke: rgb(202, 145, 97); stroke-opacity: 1; fill: rgb(202, 145, 97); fill-opacity: 1; stroke-width: 1; opacity: 1;"/><path class="sankey-link" d="M20,162.59752210547848C270,162.59752210547848 270,54.773004118701294 520,54.773004118701294L520,54.78375512906838C270,54.78375512906838 270,162.60827311584555 20,162.60827311584555Z" style="stroke: rgb(202, 145, 97); stroke-opacity: 1; fill: rgb(202, 145, 97); fill-opacity: 1; stroke-width: 1; opacity: 1;"/><path class="sankey-link" d="M20,162.63509785475435C270,162.63509785475435 270,226.32746692233238 520,226.32746692233238L520,226.3322685181299C270,226.3322685181299 270,162.63989945055187 20,162.63989945055187Z" style="stroke: rgb(202, 145, 97); stroke-opacity: 1; fill: rgb(202, 145, 97); fill-opacity: 1; stroke-width: 1; opacity: 1;"/><path class="sankey-link" d="M20,162.64346943459898C270,162.64346943459898 270,318.2141571113839 520,318.2141571113839L520,318.21456632613763C270,318.21456632613763 270,162.64387864935273 20,162.64387864935273Z" style="stroke: rgb(202, 145, 97); stroke-opacity: 1; fill: rgb(202, 145, 97); fill-opacity: 1; stroke-width: 1; opacity: 1;"/><path class="sankey-link" d="M20,162.6089125734405C270,162.6089125734405 270,115.86585107154193 520,115.86585107154193L520,115.87624923677566C270,115.87624923677566 270,162.61931073867422 20,162.61931073867422Z" style="stroke: rgb(202, 145, 97); stroke-opacity: 1; fill: rgb(202, 145, 97); fill-opacity: 1; stroke-width: 1; opacity: 1;"/><path class="sankey-link" d="M20,162.63989945055184C270,162.63989945055184 270,255.50592898018198 520,255.50592898018198L520,255.50759112739848C270,255.50759112739848 270,162.64156159776834 20,162.64156159776834Z" style="stroke: rgb(202, 145, 97); stroke-opacity: 1; fill: rgb(202, 145, 97); fill-opacity: 1; stroke-width: 1; opacity: 1;"/><path class="sankey-link" d="M20,162.64156159776834C270,162.64156159776834 270,277.8879393277643 520,277.8879393277643L520,277.8893931139742C270,277.8893931139742 270,162.64301538397828 20,162.64301538397828Z" style="stroke: rgb(202, 145, 97); stroke-opacity: 1; fill: rgb(202, 145, 97); fill-opacity: 1; stroke-width: 1; opacity: 1;"/><path class="sankey-link" d="M20,162.61931073867424C270,162.61931073867424 270,141.3382270614602 520,141.3382270614602L520,141.3412978141269C270,141.3412978141269 270,162.62238149134095 20,162.62238149134095Z" style="stroke: rgb(202, 145, 97); stroke-opacity: 1; fill: rgb(202, 145, 97); fill-opacity: 1; stroke-width: 1; opacity: 1;"/><path class="sankey-link" d="M20,162.62238149134097C270,162.62238149134097 270,182.2852075393189 520,182.2852075393189L520,182.29792390273224C270,182.29792390273224 270,162.63509785475432 20,162.63509785475432Z" style="stroke: rgb(202, 145, 97); stroke-opacity: 1; fill: rgb(202, 145, 97); fill-opacity: 1; stroke-width: 1; opacity: 1;"/><path class="sankey-link" d="M20,234.27324865280113C270,234.27324865280113 270,299.2809073037778 520,299.2809073037778L520,299.6334052339164C270,299.6334052339164 270,234.62574658293974 20,234.62574658293974Z" style="stroke: rgb(251, 175, 228); stroke-opacity: 1; fill: rgb(251, 175, 228); fill-opacity: 1; stroke-width: 1; opacity: 1;"/><path class="sankey-link" d="M20,213.1448041852694C270,213.1448041852694 270,89.21658396204091 520,89.21658396204091L520,89.50932285927229C270,89.50932285927229 270,213.43754308250075 20,213.43754308250075Z" style="stroke: rgb(251, 175, 228); stroke-opacity: 1; fill: rgb(251, 175, 228); fill-opacity: 1; stroke-width: 1; opacity: 1;"/><path class="sankey-link" d="M20,206.63838129857166C270,206.63838129857166 270,58.71155898480204 520,58.71155898480204L520,65.21798187149979C270,65.21798187149979 270,213.1448041852694 20,213.1448041852694Z" style="stroke: rgb(68, 68, 68); stroke-opacity: 1; fill: rgb(251, 175, 228); fill-opacity: 1; stroke-width: 0; opacity: 1;"/><path class="sankey-link" d="M20,223.62437361813107C270,223.62437361813107 270,229.6959999737859 520,229.6959999737859L520,233.76073550930613C270,233.76073550930613 270,227.68910915365132 20,227.68910915365132Z" style="stroke: rgb(68, 68, 68); stroke-opacity: 1; fill: rgb(251, 175, 228); fill-opacity: 1; stroke-width: 0; opacity: 1;"/><path class="sankey-link" d="M20,234.62574658293974C270,234.62574658293974 270,318.3183661264037 520,318.3183661264037L520,318.5097273484423C270,318.5097273484423 270,234.8171078049783 20,234.8171078049783Z" style="stroke: rgb(251, 175, 228); stroke-opacity: 1; fill: rgb(251, 175, 228); fill-opacity: 1; stroke-width: 1; opacity: 1;"/><path class="sankey-link" d="M20,213.43754308250078C270,213.43754308250078 270,116.53212762380508 520,116.53212762380508L520,118.9256746178049C270,118.9256746178049 270,215.83109007650057 20,215.83109007650057Z" style="stroke: rgb(68, 68, 68); stroke-opacity: 1; fill: rgb(251, 175, 228); fill-opacity: 1; stroke-width: 0; opacity: 1;"/><path class="sankey-link" d="M20,227.68910915365132C270,227.68910915365132 270,255.92516745349255 520,255.92516745349255L520,259.7738987448097C270,259.7738987448097 270,231.53784044496848 20,231.53784044496848Z" style="stroke: rgb(68, 68, 68); stroke-opacity: 1; fill: rgb(251, 175, 228); fill-opacity: 1; stroke-width: 0; opacity: 1;"/><path class="sankey-link" d="M20,231.53784044496848C270,231.53784044496848 270,279.10338729676874 520,279.10338729676874L520,281.83879550460136C270,281.83879550460136 270,234.27324865280116 20,234.27324865280116Z" style="stroke: rgb(68, 68, 68); stroke-opacity: 1; fill: rgb(251, 175, 228); fill-opacity: 1; stroke-width: 0; opacity: 1;"/><path class="sankey-link" d="M20,215.8310900765006C270,215.8310900765006 270,142.15148470096938 520,142.15148470096938L520,143.42364059688538C270,143.42364059688538 270,217.1032459724166 20,217.1032459724166Z" style="stroke: rgb(68, 68, 68); stroke-opacity: 1; fill: rgb(251, 175, 228); fill-opacity: 1; stroke-width: 0; opacity: 1;"/><path class="sankey-link" d="M20,217.1032459724166C270,217.1032459724166 270,185.43479175405227 520,185.43479175405227L520,191.9559193997667C270,191.9559193997667 270,223.62437361813105 20,223.62437361813105Z" style="stroke: rgb(68, 68, 68); stroke-opacity: 1; fill: rgb(251, 175, 228); fill-opacity: 1; stroke-width: 0; opacity: 1;"/><path class="sankey-link" d="M20,276.09994636321414C270,276.09994636321414 270,299.6809793618219 520,299.6809793618219L520,299.75157376485964C270,299.75157376485964 270,276.17054076625186 20,276.17054076625186Z" style="stroke: rgb(148, 148, 148); stroke-opacity: 1; fill: rgb(148, 148, 148); fill-opacity: 1; stroke-width: 1; opacity: 1;"/><path class="sankey-link" d="M20,273.4618436670393C270,273.4618436670393 270,89.55920344063466 520,89.55920344063466L520,89.59573220380426C270,89.59573220380426 270,273.4983724302089 20,273.4983724302089Z" style="stroke: rgb(148, 148, 148); stroke-opacity: 1; fill: rgb(148, 148, 148); fill-opacity: 1; stroke-width: 1; opacity: 1;"/><path class="sankey-link" d="M20,272.5444867640781C270,272.5444867640781 270,66.1837178922895 520,66.1837178922895L520,67.10107479525074C270,67.10107479525074 270,273.4618436670394 20,273.4618436670394Z" style="stroke: rgb(148, 148, 148); stroke-opacity: 1; fill: rgb(148, 148, 148); fill-opacity: 1; stroke-width: 1; opacity: 1;"/><path class="sankey-link" d="M20,274.7724734664966C270,274.7724734664966 270,234.64782840749334 520,234.64782840749334L520,235.38452129264115C270,235.38452129264115 270,275.5091663516444 20,275.5091663516444Z" style="stroke: rgb(148, 148, 148); stroke-opacity: 1; fill: rgb(148, 148, 148); fill-opacity: 1; stroke-width: 1; opacity: 1;"/><path class="sankey-link" d="M20,276.1705407662519C270,276.1705407662519 270,318.5352681863939 520,318.5352681863939L520,318.63185121991154C270,318.63185121991154 270,276.26712379976954 20,276.26712379976954Z" style="stroke: rgb(148, 148, 148); stroke-opacity: 1; fill: rgb(148, 148, 148); fill-opacity: 1; stroke-width: 1; opacity: 1;"/><path class="sankey-link" d="M20,273.4983724302089C270,273.4983724302089 270,119.27792267675774 520,119.27792267675774L520,119.48228817563428C270,119.48228817563428 270,273.70273792908546 20,273.70273792908546Z" style="stroke: rgb(148, 148, 148); stroke-opacity: 1; fill: rgb(148, 148, 148); fill-opacity: 1; stroke-width: 1; opacity: 1;"/><path class="sankey-link" d="M20,275.5091663516444C270,275.5091663516444 270,260.1320312122283 520,260.1320312122283L520,260.21952956425594C270,260.21952956425594 270,275.59666470367205 20,275.59666470367205Z" style="stroke: rgb(148, 148, 148); stroke-opacity: 1; fill: rgb(148, 148, 148); fill-opacity: 1; stroke-width: 1; opacity: 1;"/><path class="sankey-link" d="M20,275.596664703672C270,275.596664703672 270,281.9660870060528 520,281.9660870060528L520,282.46936866559497C270,282.46936866559497 270,276.09994636321414 20,276.09994636321414Z" style="stroke: rgb(148, 148, 148); stroke-opacity: 1; fill: rgb(148, 148, 148); fill-opacity: 1; stroke-width: 1; opacity: 1;"/><path class="sankey-link" d="M20,273.70273792908546C270,273.70273792908546 270,143.6169120228306 520,143.6169120228306L520,143.86090381205634C270,143.86090381205634 270,273.94672971831113 20,273.94672971831113Z" style="stroke: rgb(148, 148, 148); stroke-opacity: 1; fill: rgb(148, 148, 148); fill-opacity: 1; stroke-width: 1; opacity: 1;"/><path class="sankey-link" d="M20,273.9467297183112C270,273.9467297183112 270,196.67653043890198 520,196.67653043890198L520,197.50227418708738C270,197.50227418708738 270,274.77247346649665 20,274.77247346649665Z" style="stroke: rgb(148, 148, 148); stroke-opacity: 1; fill: rgb(148, 148, 148); fill-opacity: 1; stroke-width: 1; opacity: 1;"/><path class="sankey-link" d="M20,147.49524660515803C270,147.49524660515803 270,299.0178814526175 520,299.0178814526175L520,299.0806613183284C270,299.0806613183284 270,147.55802647086895 20,147.55802647086895Z" style="stroke: rgb(236, 225, 51); stroke-opacity: 1; fill: rgb(236, 225, 51); fill-opacity: 1; stroke-width: 1; opacity: 1;"/><path class="sankey-link" d="M20,144.10200986015863C270,144.10200986015863 270,88.9635452020794 520,88.9635452020794L520,89.05107253579196C270,89.05107253579196 270,144.1895371938712 20,144.1895371938712Z" style="stroke: rgb(236, 225, 51); stroke-opacity: 1; fill: rgb(236, 225, 51); fill-opacity: 1; stroke-width: 1; opacity: 1;"/><path class="sankey-link" d="M20,142.27133878498753C270,142.27133878498753 270,52.94233304353019 520,52.94233304353019L520,54.77300411870129C270,54.77300411870129 270,144.10200986015863 20,144.10200986015863Z" style="stroke: rgb(68, 68, 68); stroke-opacity: 1; fill: rgb(236, 225, 51); fill-opacity: 1; stroke-width: 0; opacity: 1;"/><path class="sankey-link" d="M20,146.11589962964226C270,146.11589962964226 270,225.24714409157727 520,225.24714409157727L520,226.32746692233238C270,226.32746692233238 270,147.19622246039737 20,147.19622246039737Z" style="stroke: rgb(68, 68, 68); stroke-opacity: 1; fill: rgb(236, 225, 51); fill-opacity: 1; stroke-width: 0; opacity: 1;"/><path class="sankey-link" d="M20,147.55802647086895C270,147.55802647086895 270,318.17466147677436 520,318.17466147677436L520,318.21415711138394C270,318.21415711138394 270,147.59752210547848 20,147.59752210547848Z" style="stroke: rgb(236, 225, 51); stroke-opacity: 1; fill: rgb(236, 225, 51); fill-opacity: 1; stroke-width: 1; opacity: 1;"/><path class="sankey-link" d="M20,144.1895371938712C270,144.1895371938712 270,115.43296524505811 520,115.43296524505811L520,115.86585107154193C270,115.86585107154193 270,144.622423020355 20,144.622423020355Z" style="stroke: rgb(236, 225, 51); stroke-opacity: 1; fill: rgb(236, 225, 51); fill-opacity: 1; stroke-width: 1; opacity: 1;"/><path class="sankey-link" d="M20,147.19622246039737C270,147.19622246039737 270,255.3504587121668 520,255.3504587121668L520,255.50592898018198C270,255.50592898018198 270,147.35169272841253 20,147.35169272841253Z" style="stroke: rgb(236, 225, 51); stroke-opacity: 1; fill: rgb(236, 225, 51); fill-opacity: 1; stroke-width: 1; opacity: 1;"/><path class="sankey-link" d="M20,147.35169272841253C270,147.35169272841253 270,277.7443854510188 520,277.7443854510188L520,277.8879393277643C270,277.8879393277643 270,147.49524660515803 20,147.49524660515803Z" style="stroke: rgb(236, 225, 51); stroke-opacity: 1; fill: rgb(236, 225, 51); fill-opacity: 1; stroke-width: 1; opacity: 1;"/><path class="sankey-link" d="M20,144.622423020355C270,144.622423020355 270,140.9610506948572 520,140.9610506948572L520,141.3382270614602C270,141.3382270614602 270,144.999599386958 20,144.999599386958Z" style="stroke: rgb(236, 225, 51); stroke-opacity: 1; fill: rgb(236, 225, 51); fill-opacity: 1; stroke-width: 1; opacity: 1;"/><path class="sankey-link" d="M20,144.999599386958C270,144.999599386958 270,181.16890729663464 520,181.16890729663464L520,182.2852075393189C270,182.2852075393189 270,146.11589962964226 20,146.11589962964226Z" style="stroke: rgb(68, 68, 68); stroke-opacity: 1; fill: rgb(236, 225, 51); fill-opacity: 1; stroke-width: 0; opacity: 1;"/><path class="sankey-link" d="M20,257.471371798221C270,257.471371798221 270,299.6334052339164 520,299.6334052339164L520,299.68097936182187C270,299.68097936182187 270,257.5189459261265 20,257.5189459261265Z" style="stroke: rgb(86, 180, 233); stroke-opacity: 1; fill: rgb(86, 180, 233); fill-opacity: 1; stroke-width: 1; opacity: 1;"/><path class="sankey-link" d="M20,250.78284382576817C270,250.78284382576817 270,89.50932285927227 520,89.50932285927227L520,89.55920344063468C270,89.55920344063468 270,250.83272440713057 20,250.83272440713057Z" style="stroke: rgb(86, 180, 233); stroke-opacity: 1; fill: rgb(86, 180, 233); fill-opacity: 1; stroke-width: 1; opacity: 1;"/><path class="sankey-link" d="M20,249.81710780497846C270,249.81710780497846 270,65.21798187149979 520,65.21798187149979L520,66.1837178922895C270,66.1837178922895 270,250.7828438257682 20,250.7828438257682Z" style="stroke: rgb(86, 180, 233); stroke-opacity: 1; fill: rgb(86, 180, 233); fill-opacity: 1; stroke-width: 1; opacity: 1;"/><path class="sankey-link" d="M20,256.0988549311639C270,256.0988549311639 270,233.76073550930613 520,233.76073550930613L520,234.6478284074933C270,234.6478284074933 270,256.9859478293511 20,256.9859478293511Z" style="stroke: rgb(86, 180, 233); stroke-opacity: 1; fill: rgb(86, 180, 233); fill-opacity: 1; stroke-width: 1; opacity: 1;"/><path class="sankey-link" d="M20,257.51894592612655C270,257.51894592612655 270,318.50972734844225 520,318.50972734844225L520,318.5352681863939C270,318.5352681863939 270,257.5444867640782 20,257.5444867640782Z" style="stroke: rgb(86, 180, 233); stroke-opacity: 1; fill: rgb(86, 180, 233); fill-opacity: 1; stroke-width: 1; opacity: 1;"/><path class="sankey-link" d="M20,250.83272440713057C270,250.83272440713057 270,118.9256746178049 520,118.9256746178049L520,119.27792267675773C270,119.27792267675773 270,251.18497246608342 20,251.18497246608342Z" style="stroke: rgb(86, 180, 233); stroke-opacity: 1; fill: rgb(86, 180, 233); fill-opacity: 1; stroke-width: 1; opacity: 1;"/><path class="sankey-link" d="M20,256.98594782935106C270,256.98594782935106 270,259.77389874480974 520,259.77389874480974L520,260.13203121222836C270,260.13203121222836 270,257.3440802967697 20,257.3440802967697Z" style="stroke: rgb(86, 180, 233); stroke-opacity: 1; fill: rgb(86, 180, 233); fill-opacity: 1; stroke-width: 1; opacity: 1;"/><path class="sankey-link" d="M20,257.3440802967696C270,257.3440802967696 270,281.8387955046014 520,281.8387955046014L520,281.9660870060528C270,281.9660870060528 270,257.471371798221 20,257.471371798221Z" style="stroke: rgb(86, 180, 233); stroke-opacity: 1; fill: rgb(86, 180, 233); fill-opacity: 1; stroke-width: 1; opacity: 1;"/><path class="sankey-link" d="M20,251.1849724660834C270,251.1849724660834 270,143.42364059688538 520,143.42364059688538L520,143.6169120228306C270,143.6169120228306 270,251.37824389202862 20,251.37824389202862Z" style="stroke: rgb(86, 180, 233); stroke-opacity: 1; fill: rgb(86, 180, 233); fill-opacity: 1; stroke-width: 1; opacity: 1;"/><path class="sankey-link" d="M20,251.37824389202862C270,251.37824389202862 270,191.95591939976674 520,191.95591939976674L520,196.67653043890198C270,196.67653043890198 270,256.0988549311639 20,256.0988549311639Z" style="stroke: rgb(68, 68, 68); stroke-opacity: 1; fill: rgb(86, 180, 233); fill-opacity: 1; stroke-width: 0; opacity: 1;"/></g><g class="sankey-node-set" style="cursor: move;"><g class="sankey-node" transform="translate(0.000,291.267)" style="opacity: 1;"><rect class="node-rect" width="20" height="7.444262455888293" style="stroke-width: 0.5; stroke: rgb(0, 0, 0); stroke-opacity: 1; fill: rgb(211, 211, 211); fill-opacity: 1;"/><text class="node-label" data-notex="1" x="0" y="0" text-anchor="start" transform="translate(23.25,7.222131227944146)" style="cursor: default; font-family: 'Open Sans', verdana, arial, sans-serif; font-size: 10px; fill: rgb(42, 63, 95); fill-opacity: 1; white-space: pre; text-shadow: white 1px 1px 1px, white -1px -1px 1px, white 1px -1px 1px, white -1px 1px 1px;">Africa (4 Mt)</text></g><g class="sankey-node" transform="translate(0.000,85.317)" style="opacity: 1;"><rect class="node-rect" width="20" height="41.95413341141415" style="stroke-width: 0.5; stroke: rgb(0, 0, 0); stroke-opacity: 1; fill: rgb(211, 211, 211); fill-opacity: 1;"/><text class="node-label" data-notex="1" x="0" y="0" text-anchor="start" transform="translate(23.25,24.477066705707074)" style="cursor: default; font-family: 'Open Sans', verdana, arial, sans-serif; font-size: 10px; fill: rgb(42, 63, 95); fill-opacity: 1; white-space: pre; text-shadow: white 1px 1px 1px, white -1px -1px 1px, white 1px -1px 1px, white -1px 1px 1px;">Australia (23 Mt)</text></g><g class="sankey-node" transform="translate(0.000,0.000)" style="opacity: 1;"><rect class="node-rect" width="20" height="70.31720537357339" style="stroke-width: 0.5; stroke: rgb(0, 0, 0); stroke-opacity: 1; fill: rgb(211, 211, 211); fill-opacity: 1;"/><text class="node-label" data-notex="1" x="0" y="0" text-anchor="start" transform="translate(23.25,38.65860268678669)" style="cursor: default; font-family: 'Open Sans', verdana, arial, sans-serif; font-size: 10px; fill: rgb(42, 63, 95); fill-opacity: 1; white-space: pre; text-shadow: white 1px 1px 1px, white -1px -1px 1px, white 1px -1px 1px, white -1px 1px 1px;">China (39 Mt)</text></g><g class="sankey-node" transform="translate(0.000,177.644)" style="opacity: 1;"><rect class="node-rect" width="20" height="13.99450264921893" style="stroke-width: 0.5; stroke: rgb(0, 0, 0); stroke-opacity: 1; fill: rgb(211, 211, 211); fill-opacity: 1;"/><text class="node-label" data-notex="1" x="0" y="0" text-anchor="start" transform="translate(23.25,10.497251324609465)" style="cursor: default; font-family: 'Open Sans', verdana, arial, sans-serif; font-size: 10px; fill: rgb(42, 63, 95); fill-opacity: 1; white-space: pre; text-shadow: white 1px 1px 1px, white -1px -1px 1px, white 1px -1px 1px, white -1px 1px 1px;">Europe (7 Mt)</text></g><g class="sankey-node" transform="translate(0.000,313.711)" style="opacity: 1;"><rect class="node-rect" width="20" height="6.2886137443422285" style="stroke-width: 0.5; stroke: rgb(0, 0, 0); stroke-opacity: 1; fill: rgb(211, 211, 211); fill-opacity: 1;"/><text class="node-label" data-notex="1" x="0" y="0" text-anchor="start" transform="translate(23.25,6.644306872171114)" style="cursor: default; font-family: 'Open Sans', verdana, arial, sans-serif; font-size: 10px; fill: rgb(42, 63, 95); fill-opacity: 1; white-space: pre; text-shadow: white 1px 1px 1px, white -1px -1px 1px, white 1px -1px 1px, white -1px 1px 1px;">India (3 Mt)</text></g><g class="sankey-node" transform="translate(0.000,162.598)" style="opacity: 1;"><rect class="node-rect" width="20" height="0.5" style="stroke-width: 0.5; stroke: rgb(0, 0, 0); stroke-opacity: 1; fill: rgb(211, 211, 211); fill-opacity: 1;"/><text class="node-label" data-notex="1" x="0" y="0" text-anchor="start" transform="translate(23.25,3.75)" style="cursor: default; font-family: 'Open Sans', verdana, arial, sans-serif; font-size: 10px; fill: rgb(42, 63, 95); fill-opacity: 1; white-space: pre; text-shadow: white 1px 1px 1px, white -1px -1px 1px, white 1px -1px 1px, white -1px 1px 1px;">Japan and Korea (0 Mt)</text></g><g class="sankey-node" transform="translate(0.000,206.638)" style="opacity: 1;"><rect class="node-rect" width="20" height="28.178726506406804" style="stroke-width: 0.5; stroke: rgb(0, 0, 0); stroke-opacity: 1; fill: rgb(211, 211, 211); fill-opacity: 1;"/><text class="node-label" data-notex="1" x="0" y="0" text-anchor="start" transform="translate(23.25,17.589363253203402)" style="cursor: default; font-family: 'Open Sans', verdana, arial, sans-serif; font-size: 10px; fill: rgb(42, 63, 95); fill-opacity: 1; white-space: pre; text-shadow: white 1px 1px 1px, white -1px -1px 1px, white 1px -1px 1px, white -1px 1px 1px;">Latin America (15 Mt)</text></g><g class="sankey-node" transform="translate(0.000,272.544)" style="opacity: 1;"><rect class="node-rect" width="20" height="3.7226370356913776" style="stroke-width: 0.5; stroke: rgb(0, 0, 0); stroke-opacity: 1; fill: rgb(211, 211, 211); fill-opacity: 1;"/><text class="node-label" data-notex="1" x="0" y="0" text-anchor="start" transform="translate(23.25,5.361318517845689)" style="cursor: default; font-family: 'Open Sans', verdana, arial, sans-serif; font-size: 10px; fill: rgb(42, 63, 95); fill-opacity: 1; white-space: pre; text-shadow: white 1px 1px 1px, white -1px -1px 1px, white 1px -1px 1px, white -1px 1px 1px;">Middle East (2 Mt)</text></g><g class="sankey-node" transform="translate(0.000,142.271)" style="opacity: 1;"><rect class="node-rect" width="20" height="5.326183320490941" style="stroke-width: 0.5; stroke: rgb(0, 0, 0); stroke-opacity: 1; fill: rgb(211, 211, 211); fill-opacity: 1;"/><text class="node-label" data-notex="1" x="0" y="0" text-anchor="start" transform="translate(23.25,6.16309166024547)" style="cursor: default; font-family: 'Open Sans', verdana, arial, sans-serif; font-size: 10px; fill: rgb(42, 63, 95); fill-opacity: 1; white-space: pre; text-shadow: white 1px 1px 1px, white -1px -1px 1px, white 1px -1px 1px, white -1px 1px 1px;">Rest of Asia (2 Mt)</text></g><g class="sankey-node" transform="translate(0.000,249.817)" style="opacity: 1;"><rect class="node-rect" width="20" height="7.727378959099639" style="stroke-width: 0.5; stroke: rgb(0, 0, 0); stroke-opacity: 1; fill: rgb(211, 211, 211); fill-opacity: 1;"/><text class="node-label" data-notex="1" x="0" y="0" text-anchor="start" transform="translate(23.25,7.363689479549819)" style="cursor: default; font-family: 'Open Sans', verdana, arial, sans-serif; font-size: 10px; fill: rgb(42, 63, 95); fill-opacity: 1; white-space: pre; text-shadow: white 1px 1px 1px, white -1px -1px 1px, white 1px -1px 1px, white -1px 1px 1px;">USA and Canada (4 Mt)</text></g><g class="sankey-node" transform="translate(520.000,297.996)" style="opacity: 1;"><rect class="node-rect" width="20" height="4.507176848272536" style="stroke-width: 0.5; stroke: rgb(0, 0, 0); stroke-opacity: 1; fill: rgb(211, 211, 211); fill-opacity: 1;"/><text class="node-label" data-notex="1" x="0" y="0" text-anchor="end" transform="translate(-3.25,5.753588424136268)" style="cursor: default; font-family: 'Open Sans', verdana, arial, sans-serif; font-size: 10px; fill: rgb(42, 63, 95); fill-opacity: 1; white-space: pre; text-shadow: white 1px 1px 1px, white -1px -1px 1px, white 1px -1px 1px, white -1px 1px 1px;">Africa (2 Mt)</text></g><g class="sankey-node" transform="translate(520.000,84.545)" style="opacity: 1;"><rect class="node-rect" width="20" height="5.207257293422174" style="stroke-width: 0.5; stroke: rgb(0, 0, 0); stroke-opacity: 1; fill: rgb(211, 211, 211); fill-opacity: 1;"/><text class="node-label" data-notex="1" x="0" y="0" text-anchor="end" transform="translate(-3.25,6.103628646711087)" style="cursor: default; font-family: 'Open Sans', verdana, arial, sans-serif; font-size: 10px; fill: rgb(42, 63, 95); fill-opacity: 1; white-space: pre; text-shadow: white 1px 1px 1px, white -1px -1px 1px, white 1px -1px 1px, white -1px 1px 1px;">Australia (2 Mt)</text></g><g class="sankey-node" transform="translate(520.000,-0.000)" style="opacity: 1;"><rect class="node-rect" width="20" height="69.54523861235074" style="stroke-width: 0.5; stroke: rgb(0, 0, 0); stroke-opacity: 1; fill: rgb(211, 211, 211); fill-opacity: 1;"/><text class="node-label" data-notex="1" x="0" y="0" text-anchor="end" transform="translate(-3.25,38.27261930617537)" style="cursor: default; font-family: 'Open Sans', verdana, arial, sans-serif; font-size: 10px; fill: rgb(42, 63, 95); fill-opacity: 1; white-space: pre; text-shadow: white 1px 1px 1px, white -1px -1px 1px, white 1px -1px 1px, white -1px 1px 1px;">China (38 Mt)</text></g><g class="sankey-node" transform="translate(520.000,215.355)" style="opacity: 1;"><rect class="node-rect" width="20" height="21.908037400793006" style="stroke-width: 0.5; stroke: rgb(0, 0, 0); stroke-opacity: 1; fill: rgb(211, 211, 211); fill-opacity: 1;"/><text class="node-label" data-notex="1" x="0" y="0" text-anchor="end" transform="translate(-3.25,14.454018700396503)" style="cursor: default; font-family: 'Open Sans', verdana, arial, sans-serif; font-size: 10px; fill: rgb(42, 63, 95); fill-opacity: 1; white-space: pre; text-shadow: white 1px 1px 1px, white -1px -1px 1px, white 1px -1px 1px, white -1px 1px 1px;">Europe (12 Mt)</text></g><g class="sankey-node" transform="translate(520.000,317.503)" style="opacity: 1;"><rect class="node-rect" width="20" height="2.4965550681714603" style="stroke-width: 0.5; stroke: rgb(0, 0, 0); stroke-opacity: 1; fill: rgb(211, 211, 211); fill-opacity: 1;"/><text class="node-label" data-notex="1" x="0" y="0" text-anchor="end" transform="translate(-3.25,4.74827753408573)" style="cursor: default; font-family: 'Open Sans', verdana, arial, sans-serif; font-size: 10px; fill: rgb(42, 63, 95); fill-opacity: 1; white-space: pre; text-shadow: white 1px 1px 1px, white -1px -1px 1px, white 1px -1px 1px, white -1px 1px 1px;">India (1 Mt)</text></g><g class="sankey-node" transform="translate(520.000,104.752)" style="opacity: 1;"><rect class="node-rect" width="20" height="15.422326405591548" style="stroke-width: 0.5; stroke: rgb(0, 0, 0); stroke-opacity: 1; fill: rgb(211, 211, 211); fill-opacity: 1;"/><text class="node-label" data-notex="1" x="0" y="0" text-anchor="end" transform="translate(-3.25,11.211163202795774)" style="cursor: default; font-family: 'Open Sans', verdana, arial, sans-serif; font-size: 10px; fill: rgb(42, 63, 95); fill-opacity: 1; white-space: pre; text-shadow: white 1px 1px 1px, white -1px -1px 1px, white 1px -1px 1px, white -1px 1px 1px;">Japan and Korea (8 Mt)</text></g><g class="sankey-node" transform="translate(520.000,252.263)" style="opacity: 1;"><rect class="node-rect" width="20" height="8.335390916873848" style="stroke-width: 0.5; stroke: rgb(0, 0, 0); stroke-opacity: 1; fill: rgb(211, 211, 211); fill-opacity: 1;"/><text class="node-label" data-notex="1" x="0" y="0" text-anchor="end" transform="translate(-3.25,7.667695458436924)" style="cursor: default; font-family: 'Open Sans', verdana, arial, sans-serif; font-size: 10px; fill: rgb(42, 63, 95); fill-opacity: 1; white-space: pre; text-shadow: white 1px 1px 1px, white -1px -1px 1px, white 1px -1px 1px, white -1px 1px 1px;">Latin America (4 Mt)</text></g><g class="sankey-node" transform="translate(520.000,275.599)" style="opacity: 1;"><rect class="node-rect" width="20" height="7.397499042674099" style="stroke-width: 0.5; stroke: rgb(0, 0, 0); stroke-opacity: 1; fill: rgb(211, 211, 211); fill-opacity: 1;"/><text class="node-label" data-notex="1" x="0" y="0" text-anchor="end" transform="translate(-3.25,7.198749521337049)" style="cursor: default; font-family: 'Open Sans', verdana, arial, sans-serif; font-size: 10px; fill: rgb(42, 63, 95); fill-opacity: 1; white-space: pre; text-shadow: white 1px 1px 1px, white -1px -1px 1px, white 1px -1px 1px, white -1px 1px 1px;">Middle East (4 Mt)</text></g><g class="sankey-node" transform="translate(520.000,135.175)" style="opacity: 1;"><rect class="node-rect" width="20" height="9.367413836986088" style="stroke-width: 0.5; stroke: rgb(0, 0, 0); stroke-opacity: 1; fill: rgb(211, 211, 211); fill-opacity: 1;"/><text class="node-label" data-notex="1" x="0" y="0" text-anchor="end" transform="translate(-3.25,8.183706918493044)" style="cursor: default; font-family: 'Open Sans', verdana, arial, sans-serif; font-size: 10px; fill: rgb(42, 63, 95); fill-opacity: 1; white-space: pre; text-shadow: white 1px 1px 1px, white -1px -1px 1px, white 1px -1px 1px, white -1px 1px 1px;">Rest of Asia (5 Mt)</text></g><g class="sankey-node" transform="translate(520.000,159.542)" style="opacity: 1;"><rect class="node-rect" width="20" height="40.81310457486478" style="stroke-width: 0.5; stroke: rgb(0, 0, 0); stroke-opacity: 1; fill: rgb(211, 211, 211); fill-opacity: 1;"/><text class="node-label" data-notex="1" x="0" y="0" text-anchor="end" transform="translate(-3.25,23.90655228743239)" style="cursor: default; font-family: 'Open Sans', verdana, arial, sans-serif; font-size: 10px; fill: rgb(42, 63, 95); fill-opacity: 1; white-space: pre; text-shadow: white 1px 1px 1px, white -1px -1px 1px, white 1px -1px 1px, white -1px 1px 1px;">USA and Canada (22 Mt)</text></g></g></g><defs id="topdefs-bd4f0d"><g class="clips"/></defs><g class="layer-above"><g class="imagelayer"/><g class="shapelayer"/></g><g class="infolayer"><g class="g-gtitle"><text class="gtitle" x="35" y="50" text-anchor="start" dy="0em" style="font-family: 'Open Sans', verdana, arial, sans-serif; font-size: 14px; fill: rgb(42, 63, 95); opacity: 1; font-weight: normal; white-space: pre;">Healthcare systems consumption of iron ore in 2013</text></g><g class="first-render"/></g></svg>