<svg class="main-svg" xmlns="http://www.w3.org/2000/svg" xmlns:xlink="http://www.w3.org/1999/xlink" width="700" height="500" viewBox="0 0 700 500"><rect x="0" y="0" width="700" height="500" style="fill: rgb(255, 255, 255); fill-opacity: 1;"/><defs id="defs-9cd314"><g class="clips"/><g class="gradients"/><g class="patterns"/></defs><g class="bglayer"/><g class="layer-below"><g class="imagelayer"/><g class="shapelayer"/></g><g class="cartesianlayer"/><g class="polarlayer"/><g class="smithlayer"/><g class="ternarylayer"/><g class="geolayer"/><g class="funnelarealayer"/><g class="pielayer"/><g class="iciclelayer"/><g class="treemaplayer"/><g class="sunburstlayer"/><g class="glimages"/><g class="sankey" transform="translate(80,100)matrix(1 0 0 1 0 0)" style="box-sizing: content-box; position: absolute; left: 0px; shape-rendering: geometricPrecision; pointer-events: auto;"><g class="sankey-links" style="fill: none;"><path class="sankey-link" d="M20,206.2387902944398C270,206.2387902944398 270,211.61150306707663 520,211.61150306707663L520,212.65289367135256C270,212.65289367135256 270,207.28018089871574 20,207.28018089871574Z" style="stroke: rgb(68, 68, 68); stroke-opacity: 1; fill: rgb(1, 115, 178); fill-opacity: 1; stroke-width: 0; opacity: 1;"/><path class="sankey-link" d="M20,205.5833401793809C270,205.5833401793809 270,150.48521194654225 520,150.48521194654225L520,150.56412326958977C270,150.56412326958977 270,205.66225150242843 20,205.66225150242843Z" style="stroke: rgb(1, 115, 178); stroke-opacity: 1; fill: rgb(1, 115, 178); fill-opacity: 1; stroke-width: 1; opacity: 1;"/><path class="sankey-link" d="M20,201.55436601082613C270,201.55436601082613 270,51.33766416884338 520,51.33766416884338L520,53.02530215684546C270,53.02530215684546 270,203.24200399882824 20,203.24200399882824Z" style="stroke: rgb(68, 68, 68); stroke-opacity: 1; fill: rgb(1, 115, 178); fill-opacity: 1; stroke-width: 0; opacity: 1;"/><path class="sankey-link" d="M20,203.25367270383617C270,203.25367270383617 270,107.52656971359411 520,107.52656971359411L520,109.48197642812045C270,109.48197642812045 270,205.20907941836253 20,205.20907941836253Z" style="stroke: rgb(68, 68, 68); stroke-opacity: 1; fill: rgb(1, 115, 178); fill-opacity: 1; stroke-width: 0; opacity: 1;"/><path class="sankey-link" d="M20,207.28018089871577C270,207.28018089871577 270,229.21323989114313 520,229.21323989114313L520,229.42169909734622C270,229.42169909734622 270,207.48864010491886 20,207.48864010491886Z" style="stroke: rgb(1, 115, 178); stroke-opacity: 1; fill: rgb(1, 115, 178); fill-opacity: 1; stroke-width: 1; opacity: 1;"/><path class="sankey-link" d="M20,205.6622515024284C270,205.6622515024284 270,176.6735687140752 520,176.6735687140752L520,177.06143726147417C270,177.06143726147417 270,206.05012004982737 20,206.05012004982737Z" style="stroke: rgb(1, 115, 178); stroke-opacity: 1; fill: rgb(1, 115, 178); fill-opacity: 1; stroke-width: 1; opacity: 1;"/><path class="sankey-link" d="M20,207.48864010491886C270,207.48864010491886 270,247.67201084115322 520,247.67201084115322L520,248.0519512451728C270,248.0519512451728 270,207.86858050893844 20,207.86858050893844Z" style="stroke: rgb(1, 115, 178); stroke-opacity: 1; fill: rgb(1, 115, 178); fill-opacity: 1; stroke-width: 1; opacity: 1;"/><path class="sankey-link" d="M20,206.05012004982737C270,206.05012004982737 270,194.9452871494994 520,194.9452871494994L520,195.13395739411186C270,195.13395739411186 270,206.23879029443984 20,206.23879029443984Z" style="stroke: rgb(1, 115, 178); stroke-opacity: 1; fill: rgb(1, 115, 178); fill-opacity: 1; stroke-width: 1; opacity: 1;"/><path class="sankey-link" d="M20,205.20907941836253C270,205.20907941836253 270,131.99030157436576 520,131.99030157436576L520,132.36456233538414C270,132.36456233538414 270,205.5833401793809 20,205.5833401793809Z" style="stroke: rgb(1, 115, 178); stroke-opacity: 1; fill: rgb(1, 115, 178); fill-opacity: 1; stroke-width: 1; opacity: 1;"/><path class="sankey-link" d="M20,203.2420039988282C270,203.2420039988282 270,70.92067095558252 520,70.92067095558252L520,70.93233966059051C270,70.93233966059051 270,203.2536727038362 20,203.2536727038362Z" style="stroke: rgb(1, 115, 178); stroke-opacity: 1; fill: rgb(1, 115, 178); fill-opacity: 1; stroke-width: 1; opacity: 1;"/><path class="sankey-link" d="M20,207.86858050893844C270,207.86858050893844 270,280.55126638114456 520,280.55126638114456L520,282.27184057633207C270,282.27184057633207 270,209.58915470412595 20,209.58915470412595Z" style="stroke: rgb(68, 68, 68); stroke-opacity: 1; fill: rgb(1, 115, 178); fill-opacity: 1; stroke-width: 0; opacity: 1;"/><path class="sankey-link" d="M20,151.44173540359003C270,151.44173540359003 270,211.19430899098032 520,211.19430899098032L520,211.23236425952112C270,211.23236425952112 270,151.47979067213083 20,151.47979067213083Z" style="stroke: rgb(222, 143, 5); stroke-opacity: 1; fill: rgb(222, 143, 5); fill-opacity: 1; stroke-width: 1; opacity: 1;"/><path class="sankey-link" d="M20,148.04144032529288C270,148.04144032529288 270,148.71293982080783 520,148.71293982080783L520,150.25608927427277C270,150.25608927427277 270,149.58458977875782 20,149.58458977875782Z" style="stroke: rgb(68, 68, 68); stroke-opacity: 1; fill: rgb(222, 143, 5); fill-opacity: 1; stroke-width: 0; opacity: 1;"/><path class="sankey-link" d="M20,146.17219498122535C270,146.17219498122535 270,45.95432032663489 520,45.95432032663489L520,47.0545199676633C270,47.0545199676633 270,147.27239462225378 20,147.27239462225378Z" style="stroke: rgb(68, 68, 68); stroke-opacity: 1; fill: rgb(222, 143, 5); fill-opacity: 1; stroke-width: 0; opacity: 1;"/><path class="sankey-link" d="M20,147.27987541817C270,147.27987541817 270,104.42656429152196 520,104.42656429152196L520,104.93710508164294C270,104.93710508164294 270,147.79041620829096 20,147.79041620829096Z" style="stroke: rgb(222, 143, 5); stroke-opacity: 1; fill: rgb(222, 143, 5); fill-opacity: 1; stroke-width: 1; opacity: 1;"/><path class="sankey-link" d="M20,151.47979067213083C270,151.47979067213083 270,228.48729173018685 520,228.48729173018685L520,228.58982136713794C270,228.58982136713794 270,151.58232030908192 20,151.58232030908192Z" style="stroke: rgb(222, 143, 5); stroke-opacity: 1; fill: rgb(222, 143, 5); fill-opacity: 1; stroke-width: 1; opacity: 1;"/><path class="sankey-link" d="M20,149.58458977875782C270,149.58458977875782 270,170.44635236893853 520,170.44635236893853L520,172.23189765292236C270,172.23189765292236 270,151.37013506274164 20,151.37013506274164Z" style="stroke: rgb(68, 68, 68); stroke-opacity: 1; fill: rgb(222, 143, 5); fill-opacity: 1; stroke-width: 0; opacity: 1;"/><path class="sankey-link" d="M20,151.58232030908192C270,151.58232030908192 270,247.01066972163935 520,247.01066972163935L520,247.12308468651995C270,247.12308468651995 270,151.69473527396252 20,151.69473527396252Z" style="stroke: rgb(222, 143, 5); stroke-opacity: 1; fill: rgb(222, 143, 5); fill-opacity: 1; stroke-width: 1; opacity: 1;"/><path class="sankey-link" d="M20,151.37013506274164C270,151.37013506274164 270,194.05702020163432 520,194.05702020163432L520,194.12862054248274C270,194.12862054248274 270,151.44173540359006 20,151.44173540359006Z" style="stroke: rgb(222, 143, 5); stroke-opacity: 1; fill: rgb(222, 143, 5); fill-opacity: 1; stroke-width: 1; opacity: 1;"/><path class="sankey-link" d="M20,147.790416208291C270,147.790416208291 270,130.81588745134425 520,130.81588745134425L520,131.06691156834617C270,131.06691156834617 270,148.0414403252929 20,148.0414403252929Z" style="stroke: rgb(222, 143, 5); stroke-opacity: 1; fill: rgb(222, 143, 5); fill-opacity: 1; stroke-width: 1; opacity: 1;"/><path class="sankey-link" d="M20,147.27239462225376C270,147.27239462225376 270,70.89398566910744 520,70.89398566910744L520,70.90146646502369C270,70.90146646502369 270,147.27987541817 20,147.27987541817Z" style="stroke: rgb(222, 143, 5); stroke-opacity: 1; fill: rgb(222, 143, 5); fill-opacity: 1; stroke-width: 1; opacity: 1;"/><path class="sankey-link" d="M20,151.69473527396252C270,151.69473527396252 270,275.54578280062367 520,275.54578280062367L520,276.18621832956455C270,276.18621832956455 270,152.3351708029034 20,152.3351708029034Z" style="stroke: rgb(222, 143, 5); stroke-opacity: 1; fill: rgb(222, 143, 5); fill-opacity: 1; stroke-width: 1; opacity: 1;"/><path class="sankey-link" d="M20,45.72145035208193C270,45.72145035208193 270,210.59892574595727 520,210.59892574595727L520,210.83526943999425C270,210.83526943999425 270,45.95779404611889 20,45.95779404611889Z" style="stroke: rgb(2, 158, 115); stroke-opacity: 1; fill: rgb(2, 158, 115); fill-opacity: 1; stroke-width: 1; opacity: 1;"/><path class="sankey-link" d="M20,43.409583825400254C270,43.409583825400254 270,147.98784925444448 520,147.98784925444448L520,148.32922918585774C270,148.32922918585774 270,43.75096375681354 20,43.75096375681354Z" style="stroke: rgb(2, 158, 115); stroke-opacity: 1; fill: rgb(2, 158, 115); fill-opacity: 1; stroke-width: 1; opacity: 1;"/><path class="sankey-link" d="M20,1.5276668818842154e-13C270,1.5276668818842154e-13 270,2.2737367544323206e-13 520,2.2737367544323206e-13L520,39.82640601539332C270,39.82640601539332 270,39.826406015393246 20,39.826406015393246Z" style="stroke: rgb(68, 68, 68); stroke-opacity: 1; fill: rgb(2, 158, 115); fill-opacity: 1; stroke-width: 0; opacity: 1;"/><path class="sankey-link" d="M20,39.87283578359122C270,39.87283578359122 270,85.96251599872683 520,85.96251599872683L520,88.3684250847878C270,88.3684250847878 270,42.27874486965221 20,42.27874486965221Z" style="stroke: rgb(68, 68, 68); stroke-opacity: 1; fill: rgb(2, 158, 115); fill-opacity: 1; stroke-width: 0; opacity: 1;"/><path class="sankey-link" d="M20,45.957794046118885C270,45.957794046118885 270,227.96315505298907 520,227.96315505298907L520,228.17211445220755C270,228.17211445220755 270,46.166753445337385 20,46.166753445337385Z" style="stroke: rgb(2, 158, 115); stroke-opacity: 1; fill: rgb(2, 158, 115); fill-opacity: 1; stroke-width: 1; opacity: 1;"/><path class="sankey-link" d="M20,43.75096375681354C270,43.75096375681354 270,165.67369072536803 520,165.67369072536803L520,167.21612128463426C270,167.21612128463426 270,45.29339431607976 20,45.29339431607976Z" style="stroke: rgb(68, 68, 68); stroke-opacity: 1; fill: rgb(2, 158, 115); fill-opacity: 1; stroke-width: 0; opacity: 1;"/><path class="sankey-link" d="M20,46.166753445337385C270,46.166753445337385 270,245.6445055327361 520,245.6445055327361L520,246.40209325077404C270,246.40209325077404 270,46.92434116337534 20,46.92434116337534Z" style="stroke: rgb(2, 158, 115); stroke-opacity: 1; fill: rgb(2, 158, 115); fill-opacity: 1; stroke-width: 1; opacity: 1;"/><path class="sankey-link" d="M20,45.293394316079755C270,45.293394316079755 270,193.15254114810023 520,193.15254114810023L520,193.58059718410237C270,193.58059718410237 270,45.72145035208193 20,45.72145035208193Z" style="stroke: rgb(2, 158, 115); stroke-opacity: 1; fill: rgb(2, 158, 115); fill-opacity: 1; stroke-width: 1; opacity: 1;"/><path class="sankey-link" d="M20,42.2787448696522C270,42.2787448696522 270,127.61886461156405 520,127.61886461156405L520,128.7497035673121C270,128.7497035673121 270,43.40958382540025 20,43.40958382540025Z" style="stroke: rgb(68, 68, 68); stroke-opacity: 1; fill: rgb(2, 158, 115); fill-opacity: 1; stroke-width: 0; opacity: 1;"/><path class="sankey-link" d="M20,39.826406015393246C270,39.826406015393246 270,69.77577591260429 520,69.77577591260429L520,69.82220568080227C270,69.82220568080227 270,39.87283578359123 20,39.87283578359123Z" style="stroke: rgb(2, 158, 115); stroke-opacity: 1; fill: rgb(2, 158, 115); fill-opacity: 1; stroke-width: 1; opacity: 1;"/><path class="sankey-link" d="M20,46.924341163375345C270,46.924341163375345 270,266.9951044097034 520,266.9951044097034L520,271.52415536022596C270,271.52415536022596 270,51.45339211389789 20,51.45339211389789Z" style="stroke: rgb(68, 68, 68); stroke-opacity: 1; fill: rgb(2, 158, 115); fill-opacity: 1; stroke-width: 0; opacity: 1;"/><path class="sankey-link" d="M20,102.25711042306095C270,102.25711042306095 270,210.96827748993195 520,210.96827748993195L520,211.048583930961C270,211.048583930961 270,102.33741686408997 20,102.33741686408997Z" style="stroke: rgb(213, 94, 0); stroke-opacity: 1; fill: rgb(213, 94, 0); fill-opacity: 1; stroke-width: 1; opacity: 1;"/><path class="sankey-link" d="M20,101.98788250262916C270,101.98788250262916 270,148.40755611507106 520,148.40755611507106L520,148.43775946980853C270,148.43775946980853 270,102.01808585736663 20,102.01808585736663Z" style="stroke: rgb(213, 94, 0); stroke-opacity: 1; fill: rgb(213, 94, 0); fill-opacity: 1; stroke-width: 1; opacity: 1;"/><path class="sankey-link" d="M20,94.0246400427724C270,94.0246400427724 270,41.52893158346238 520,41.52893158346238L520,41.77302813845188C270,41.77302813845188 270,94.26873659776189 20,94.26873659776189Z" style="stroke: rgb(213, 94, 0); stroke-opacity: 1; fill: rgb(213, 94, 0); fill-opacity: 1; stroke-width: 1; opacity: 1;"/><path class="sankey-link" d="M20,94.30605268111995C270,94.30605268111995 270,94.69323452986073 520,94.69323452986073L520,102.23354998154433C270,102.23354998154433 270,101.84636813280355 20,101.84636813280355Z" style="stroke: rgb(68, 68, 68); stroke-opacity: 1; fill: rgb(213, 94, 0); fill-opacity: 1; stroke-width: 0; opacity: 1;"/><path class="sankey-link" d="M20,102.33741686408997C270,102.33741686408997 270,228.24089595696915 520,228.24089595696915L520,228.26782453170745C270,228.26782453170745 270,102.3643454388283 20,102.3643454388283Z" style="stroke: rgb(213, 94, 0); stroke-opacity: 1; fill: rgb(213, 94, 0); fill-opacity: 1; stroke-width: 1; opacity: 1;"/><path class="sankey-link" d="M20,102.01808585736663C270,102.01808585736663 270,168.38799550708032 520,168.38799550708032L520,168.52703632518248C270,168.52703632518248 270,102.15712667546879 20,102.15712667546879Z" style="stroke: rgb(213, 94, 0); stroke-opacity: 1; fill: rgb(213, 94, 0); fill-opacity: 1; stroke-width: 1; opacity: 1;"/><path class="sankey-link" d="M20,102.36434543882828C270,102.36434543882828 270,246.6272801326232 520,246.6272801326232L520,246.7501524114945C270,246.7501524114945 270,102.48721771769954 20,102.48721771769954Z" style="stroke: rgb(213, 94, 0); stroke-opacity: 1; fill: rgb(213, 94, 0); fill-opacity: 1; stroke-width: 1; opacity: 1;"/><path class="sankey-link" d="M20,102.15712667546879C270,102.15712667546879 270,193.7511450509811 520,193.7511450509811L520,193.85112879857326C270,193.85112879857326 270,102.25711042306096 20,102.25711042306096Z" style="stroke: rgb(213, 94, 0); stroke-opacity: 1; fill: rgb(213, 94, 0); fill-opacity: 1; stroke-width: 1; opacity: 1;"/><path class="sankey-link" d="M20,101.84636813280355C270,101.84636813280355 270,129.18634344325085 520,129.18634344325085L520,129.32785781307643C270,129.32785781307643 270,101.98788250262916 20,101.98788250262916Z" style="stroke: rgb(213, 94, 0); stroke-opacity: 1; fill: rgb(213, 94, 0); fill-opacity: 1; stroke-width: 1; opacity: 1;"/><path class="sankey-link" d="M20,94.2687365977619C270,94.2687365977619 270,70.78316675412417 520,70.78316675412417L520,70.82048283748223C270,70.82048283748223 270,94.30605268111997 20,94.30605268111997Z" style="stroke: rgb(213, 94, 0); stroke-opacity: 1; fill: rgb(213, 94, 0); fill-opacity: 1; stroke-width: 1; opacity: 1;"/><path class="sankey-link" d="M20,102.48721771769954C270,102.48721771769954 270,272.8227418716114 520,272.8227418716114L520,273.7810345554877C270,273.7810345554877 270,103.44551040157577 20,103.44551040157577Z" style="stroke: rgb(213, 94, 0); stroke-opacity: 1; fill: rgb(213, 94, 0); fill-opacity: 1; stroke-width: 1; opacity: 1;"/><path class="sankey-link" d="M20,241.1073673095261C270,241.1073673095261 270,212.65315246678946 520,212.65315246678946L520,212.7486485562125C270,212.7486485562125 270,241.20286339894912 20,241.20286339894912Z" style="stroke: rgb(204, 120, 188); stroke-opacity: 1; fill: rgb(204, 120, 188); fill-opacity: 1; stroke-width: 1; opacity: 1;"/><path class="sankey-link" d="M20,240.6387735582894C270,240.6387735582894 270,150.56466339742653 520,150.56466339742653L520,150.59928622446446C270,150.59928622446446 270,240.67339638532732 20,240.67339638532732Z" style="stroke: rgb(204, 120, 188); stroke-opacity: 1; fill: rgb(204, 120, 188); fill-opacity: 1; stroke-width: 1; opacity: 1;"/><path class="sankey-link" d="M20,239.67540659208447C270,239.67540659208447 270,53.030577579067135 520,53.030577579067135L520,53.29443419022231C270,53.29443419022231 270,239.93926320323965 20,239.93926320323965Z" style="stroke: rgb(204, 120, 188); stroke-opacity: 1; fill: rgb(204, 120, 188); fill-opacity: 1; stroke-width: 1; opacity: 1;"/><path class="sankey-link" d="M20,239.94768438505415C270,239.94768438505415 270,109.48590594943893 520,109.48590594943893L520,109.98330800675485C270,109.98330800675485 270,240.44508644237007 20,240.44508644237007Z" style="stroke: rgb(204, 120, 188); stroke-opacity: 1; fill: rgb(204, 120, 188); fill-opacity: 1; stroke-width: 1; opacity: 1;"/><path class="sankey-link" d="M20,241.2028633989491C270,241.2028633989491 270,229.42199439963747 520,229.42199439963747L520,230.40215157584953C270,230.40215157584953 270,242.18302057516115 20,242.18302057516115Z" style="stroke: rgb(204, 120, 188); stroke-opacity: 1; fill: rgb(204, 120, 188); fill-opacity: 1; stroke-width: 1; opacity: 1;"/><path class="sankey-link" d="M20,240.67339638532732C270,240.67339638532732 270,177.12198561087703 520,177.12198561087703L520,177.2806833097455C270,177.2806833097455 270,240.8320940841958 20,240.8320940841958Z" style="stroke: rgb(204, 120, 188); stroke-opacity: 1; fill: rgb(204, 120, 188); fill-opacity: 1; stroke-width: 1; opacity: 1;"/><path class="sankey-link" d="M20,242.18302057516112C270,242.18302057516112 270,248.05318195480996 520,248.05318195480996L520,248.15710877037637C270,248.15710877037637 270,242.28694739072753 20,242.28694739072753Z" style="stroke: rgb(204, 120, 188); stroke-opacity: 1; fill: rgb(204, 120, 188); fill-opacity: 1; stroke-width: 1; opacity: 1;"/><path class="sankey-link" d="M20,240.83209408419583C270,240.83209408419583 270,195.1348328763248 520,195.1348328763248L520,195.41010610165503C270,195.41010610165503 270,241.10736730952607 20,241.10736730952607Z" style="stroke: rgb(204, 120, 188); stroke-opacity: 1; fill: rgb(204, 120, 188); fill-opacity: 1; stroke-width: 1; opacity: 1;"/><path class="sankey-link" d="M20,240.44508644237007C270,240.44508644237007 270,132.3669962587458 520,132.3669962587458L520,132.5606833746651C270,132.5606833746651 270,240.6387735582894 20,240.6387735582894Z" style="stroke: rgb(204, 120, 188); stroke-opacity: 1; fill: rgb(204, 120, 188); fill-opacity: 1; stroke-width: 1; opacity: 1;"/><path class="sankey-link" d="M20,239.93926320323965C270,239.93926320323965 270,70.93242764169834 520,70.93242764169834L520,70.94084882351284C270,70.94084882351284 270,239.94768438505412 20,239.94768438505412Z" style="stroke: rgb(204, 120, 188); stroke-opacity: 1; fill: rgb(204, 120, 188); fill-opacity: 1; stroke-width: 1; opacity: 1;"/><path class="sankey-link" d="M20,242.28694739072756C270,242.28694739072756 270,282.282616849463 520,282.282616849463L520,283.0016001377742C270,283.0016001377742 270,243.00593067903873 20,243.00593067903873Z" style="stroke: rgb(204, 120, 188); stroke-opacity: 1; fill: rgb(204, 120, 188); fill-opacity: 1; stroke-width: 1; opacity: 1;"/><path class="sankey-link" d="M20,224.66284551158822C270,224.66284551158822 270,212.6528936713526 520,212.6528936713526L520,212.65315246678946C270,212.65315246678946 270,224.6631043070251 20,224.6631043070251Z" style="stroke: rgb(202, 145, 97); stroke-opacity: 1; fill: rgb(202, 145, 97); fill-opacity: 1; stroke-width: 1; opacity: 1;"/><path class="sankey-link" d="M20,224.6008815521356C270,224.6008815521356 270,150.56412326958974 520,150.56412326958974L520,150.56466339742656C270,150.56466339742656 270,224.60142167997242 20,224.60142167997242Z" style="stroke: rgb(202, 145, 97); stroke-opacity: 1; fill: rgb(202, 145, 97); fill-opacity: 1; stroke-width: 1; opacity: 1;"/><path class="sankey-link" d="M20,224.58915470412597C270,224.58915470412597 270,53.02530215684546 520,53.02530215684546L520,53.030577579067135C270,53.030577579067135 270,224.59443012634762 20,224.59443012634762Z" style="stroke: rgb(202, 145, 97); stroke-opacity: 1; fill: rgb(202, 145, 97); fill-opacity: 1; stroke-width: 1; opacity: 1;"/><path class="sankey-link" d="M20,224.59451810745546C270,224.59451810745546 270,109.48197642812045 520,109.48197642812045L520,109.48590594943894C270,109.48590594943894 270,224.59844762877393 20,224.59844762877393Z" style="stroke: rgb(202, 145, 97); stroke-opacity: 1; fill: rgb(202, 145, 97); fill-opacity: 1; stroke-width: 1; opacity: 1;"/><path class="sankey-link" d="M20,224.6631043070251C270,224.6631043070251 270,229.42169909734622 520,229.42169909734622L520,229.42199439963747C270,229.42199439963747 270,224.66339960931634 20,224.66339960931634Z" style="stroke: rgb(202, 145, 97); stroke-opacity: 1; fill: rgb(202, 145, 97); fill-opacity: 1; stroke-width: 1; opacity: 1;"/><path class="sankey-link" d="M20,224.6014216799724C270,224.6014216799724 270,177.06143726147417 520,177.06143726147417L520,177.121985610877C270,177.121985610877 270,224.66197002937523 20,224.66197002937523Z" style="stroke: rgb(202, 145, 97); stroke-opacity: 1; fill: rgb(202, 145, 97); fill-opacity: 1; stroke-width: 1; opacity: 1;"/><path class="sankey-link" d="M20,224.66339960931634C270,224.66339960931634 270,248.0519512451728 520,248.0519512451728L520,248.05318195481C270,248.05318195481 270,224.66463031895353 20,224.66463031895353Z" style="stroke: rgb(202, 145, 97); stroke-opacity: 1; fill: rgb(202, 145, 97); fill-opacity: 1; stroke-width: 1; opacity: 1;"/><path class="sankey-link" d="M20,224.66197002937525C270,224.66197002937525 270,195.13395739411183 520,195.13395739411183L520,195.1348328763248C270,195.1348328763248 270,224.66284551158822 20,224.66284551158822Z" style="stroke: rgb(202, 145, 97); stroke-opacity: 1; fill: rgb(202, 145, 97); fill-opacity: 1; stroke-width: 1; opacity: 1;"/><path class="sankey-link" d="M20,224.59844762877395C270,224.59844762877395 270,132.36456233538414 520,132.36456233538414L520,132.3669962587458C270,132.3669962587458 270,224.6008815521356 20,224.6008815521356Z" style="stroke: rgb(202, 145, 97); stroke-opacity: 1; fill: rgb(202, 145, 97); fill-opacity: 1; stroke-width: 1; opacity: 1;"/><path class="sankey-link" d="M20,224.59443012634765C270,224.59443012634765 270,70.93233966059051 520,70.93233966059051L520,70.93242764169833C270,70.93242764169833 270,224.59451810745546 20,224.59451810745546Z" style="stroke: rgb(202, 145, 97); stroke-opacity: 1; fill: rgb(202, 145, 97); fill-opacity: 1; stroke-width: 1; opacity: 1;"/><path class="sankey-link" d="M20,224.6646303189535C270,224.6646303189535 270,282.27184057633207 520,282.27184057633207L520,282.28261684946307C270,282.28261684946307 270,224.67540659208444 20,224.67540659208444Z" style="stroke: rgb(202, 145, 97); stroke-opacity: 1; fill: rgb(202, 145, 97); fill-opacity: 1; stroke-width: 1; opacity: 1;"/><path class="sankey-link" d="M20,260.50543086850956C270,260.50543086850956 270,212.74864855621246 520,212.74864855621246L520,212.81183226440498C270,212.81183226440498 270,260.56861457670215 20,260.56861457670215Z" style="stroke: rgb(251, 175, 228); stroke-opacity: 1; fill: rgb(251, 175, 228); fill-opacity: 1; stroke-width: 1; opacity: 1;"/><path class="sankey-link" d="M20,260.1279473527029C270,260.1279473527029 270,150.59928622446446 520,150.59928622446446L520,150.62667565856393C270,150.62667565856393 270,260.1553367868024 20,260.1553367868024Z" style="stroke: rgb(251, 175, 228); stroke-opacity: 1; fill: rgb(251, 175, 228); fill-opacity: 1; stroke-width: 1; opacity: 1;"/><path class="sankey-link" d="M20,258.00593067903867C270,258.00593067903867 270,53.29443419022231 520,53.29443419022231L520,54.144438039324676C270,54.144438039324676 270,258.855934528141 20,258.855934528141Z" style="stroke: rgb(251, 175, 228); stroke-opacity: 1; fill: rgb(251, 175, 228); fill-opacity: 1; stroke-width: 1; opacity: 1;"/><path class="sankey-link" d="M20,258.86359647392885C270,258.86359647392885 270,109.98330800675484 520,109.98330800675484L520,111.04204310081352C270,111.04204310081352 270,259.9223315679875 20,259.9223315679875Z" style="stroke: rgb(68, 68, 68); stroke-opacity: 1; fill: rgb(251, 175, 228); fill-opacity: 1; stroke-width: 0; opacity: 1;"/><path class="sankey-link" d="M20,260.5686145767021C270,260.5686145767021 270,230.4021515758495 520,230.4021515758495L520,230.55980349928822C270,230.55980349928822 270,260.7262665001408 20,260.7262665001408Z" style="stroke: rgb(251, 175, 228); stroke-opacity: 1; fill: rgb(251, 175, 228); fill-opacity: 1; stroke-width: 1; opacity: 1;"/><path class="sankey-link" d="M20,260.15533678680237C270,260.15533678680237 270,177.28068330974554 520,177.28068330974554L520,177.5405882107313C270,177.5405882107313 270,260.4152416877882 20,260.4152416877882Z" style="stroke: rgb(251, 175, 228); stroke-opacity: 1; fill: rgb(251, 175, 228); fill-opacity: 1; stroke-width: 1; opacity: 1;"/><path class="sankey-link" d="M20,260.7262665001408C270,260.7262665001408 270,248.1571087703764 520,248.1571087703764L520,250.94870406888026C270,250.94870406888026 270,263.51786179864473 20,263.51786179864473Z" style="stroke: rgb(68, 68, 68); stroke-opacity: 1; fill: rgb(251, 175, 228); fill-opacity: 1; stroke-width: 0; opacity: 1;"/><path class="sankey-link" d="M20,260.4152416877881C270,260.4152416877881 270,195.41010610165506 520,195.41010610165506L520,195.5002952823765C270,195.5002952823765 270,260.5054308685095 20,260.5054308685095Z" style="stroke: rgb(251, 175, 228); stroke-opacity: 1; fill: rgb(251, 175, 228); fill-opacity: 1; stroke-width: 1; opacity: 1;"/><path class="sankey-link" d="M20,259.9223315679875C270,259.9223315679875 270,132.5606833746651 520,132.5606833746651L520,132.7662991593805C270,132.7662991593805 270,260.1279473527029 20,260.1279473527029Z" style="stroke: rgb(251, 175, 228); stroke-opacity: 1; fill: rgb(251, 175, 228); fill-opacity: 1; stroke-width: 1; opacity: 1;"/><path class="sankey-link" d="M20,258.85593452814106C270,258.85593452814106 270,70.94084882351282 520,70.94084882351282L520,70.94851076930061C270,70.94851076930061 270,258.8635964739289 20,258.8635964739289Z" style="stroke: rgb(251, 175, 228); stroke-opacity: 1; fill: rgb(251, 175, 228); fill-opacity: 1; stroke-width: 1; opacity: 1;"/><path class="sankey-link" d="M20,263.5178617986447C270,263.5178617986447 270,283.0016001377742 520,283.0016001377742L520,287.693856107025C270,287.693856107025 270,268.2101177678955 20,268.2101177678955Z" style="stroke: rgb(68, 68, 68); stroke-opacity: 1; fill: rgb(251, 175, 228); fill-opacity: 1; stroke-width: 0; opacity: 1;"/><path class="sankey-link" d="M20,180.63783447305215C270,180.63783447305215 270,211.23236425952112 520,211.23236425952112L520,211.61150306707665C270,211.61150306707665 270,181.0169732806077 20,181.0169732806077Z" style="stroke: rgb(148, 148, 148); stroke-opacity: 1; fill: rgb(148, 148, 148); fill-opacity: 1; stroke-width: 1; opacity: 1;"/><path class="sankey-link" d="M20,175.15037413261314C270,175.15037413261314 270,150.25608927427277 520,150.25608927427277L520,150.48521194654222C270,150.48521194654222 270,175.3794968048826 20,175.3794968048826Z" style="stroke: rgb(148, 148, 148); stroke-opacity: 1; fill: rgb(148, 148, 148); fill-opacity: 1; stroke-width: 1; opacity: 1;"/><path class="sankey-link" d="M20,167.3351708029034C270,167.3351708029034 270,47.0545199676633 520,47.0545199676633L520,51.33766416884338C270,51.33766416884338 270,171.61831500408346 20,171.61831500408346Z" style="stroke: rgb(68, 68, 68); stroke-opacity: 1; fill: rgb(148, 148, 148); fill-opacity: 1; stroke-width: 0; opacity: 1;"/><path class="sankey-link" d="M20,171.63751949464233C270,171.63751949464233 270,104.93710508164293 520,104.93710508164293L520,107.52656971359411C270,107.52656971359411 270,174.2269841265935 20,174.2269841265935Z" style="stroke: rgb(68, 68, 68); stroke-opacity: 1; fill: rgb(148, 148, 148); fill-opacity: 1; stroke-width: 0; opacity: 1;"/><path class="sankey-link" d="M20,181.01697328060766C270,181.01697328060766 270,228.58982136713794 520,228.58982136713794L520,229.2132398911431C270,229.2132398911431 270,181.64039180461282 20,181.64039180461282Z" style="stroke: rgb(148, 148, 148); stroke-opacity: 1; fill: rgb(148, 148, 148); fill-opacity: 1; stroke-width: 1; opacity: 1;"/><path class="sankey-link" d="M20,175.37949680488262C270,175.37949680488262 270,172.23189765292236 520,172.23189765292236L520,176.67356871407517C270,176.67356871407517 270,179.82116786603544 20,179.82116786603544Z" style="stroke: rgb(68, 68, 68); stroke-opacity: 1; fill: rgb(148, 148, 148); fill-opacity: 1; stroke-width: 0; opacity: 1;"/><path class="sankey-link" d="M20,181.64039180461285C270,181.64039180461285 270,247.12308468651995 520,247.12308468651995L520,247.67201084115325C270,247.67201084115325 270,182.18931795924615 20,182.18931795924615Z" style="stroke: rgb(148, 148, 148); stroke-opacity: 1; fill: rgb(148, 148, 148); fill-opacity: 1; stroke-width: 1; opacity: 1;"/><path class="sankey-link" d="M20,179.82116786603547C270,179.82116786603547 270,194.1286205424827 520,194.1286205424827L520,194.94528714949942C270,194.94528714949942 270,180.63783447305218 20,180.63783447305218Z" style="stroke: rgb(148, 148, 148); stroke-opacity: 1; fill: rgb(148, 148, 148); fill-opacity: 1; stroke-width: 1; opacity: 1;"/><path class="sankey-link" d="M20,174.22698412659352C270,174.22698412659352 270,131.06691156834614 520,131.06691156834614L520,131.99030157436573C270,131.99030157436573 270,175.1503741326131 20,175.1503741326131Z" style="stroke: rgb(148, 148, 148); stroke-opacity: 1; fill: rgb(148, 148, 148); fill-opacity: 1; stroke-width: 1; opacity: 1;"/><path class="sankey-link" d="M20,171.61831500408348C270,171.61831500408348 270,70.90146646502369 520,70.90146646502369L520,70.92067095558254C270,70.92067095558254 270,171.6375194946423 20,171.6375194946423Z" style="stroke: rgb(148, 148, 148); stroke-opacity: 1; fill: rgb(148, 148, 148); fill-opacity: 1; stroke-width: 1; opacity: 1;"/><path class="sankey-link" d="M20,182.18931795924613C270,182.18931795924613 270,276.18621832956455 520,276.18621832956455L520,280.5512663811446C270,280.5512663811446 270,186.55436601082613 20,186.55436601082613Z" style="stroke: rgb(68, 68, 68); stroke-opacity: 1; fill: rgb(148, 148, 148); fill-opacity: 1; stroke-width: 0; opacity: 1;"/><path class="sankey-link" d="M20,128.7817371674458C270,128.7817371674458 270,211.04858393096097 520,211.04858393096097L520,211.19430899098032C270,211.19430899098032 270,128.92746222746516 20,128.92746222746516Z" style="stroke: rgb(236, 225, 51); stroke-opacity: 1; fill: rgb(236, 225, 51); fill-opacity: 1; stroke-width: 1; opacity: 1;"/><path class="sankey-link" d="M20,126.38134936962942C270,126.38134936962942 270,148.43775946980853 520,148.43775946980853L520,148.7129398208078C270,148.7129398208078 270,126.65652972062873 20,126.65652972062873Z" style="stroke: rgb(236, 225, 51); stroke-opacity: 1; fill: rgb(236, 225, 51); fill-opacity: 1; stroke-width: 1; opacity: 1;"/><path class="sankey-link" d="M20,118.44551040157575C270,118.44551040157575 270,41.77302813845187 520,41.77302813845187L520,45.95432032663489C270,45.95432032663489 270,122.62680258975877 20,122.62680258975877Z" style="stroke: rgb(68, 68, 68); stroke-opacity: 1; fill: rgb(236, 225, 51); fill-opacity: 1; stroke-width: 0; opacity: 1;"/><path class="sankey-link" d="M20,122.70030542138399C270,122.70030542138399 270,102.23354998154433 520,102.23354998154433L520,104.42656429152196C270,104.42656429152196 270,124.89331973136161 20,124.89331973136161Z" style="stroke: rgb(68, 68, 68); stroke-opacity: 1; fill: rgb(236, 225, 51); fill-opacity: 1; stroke-width: 0; opacity: 1;"/><path class="sankey-link" d="M20,128.92746222746516C270,128.92746222746516 270,228.26782453170748 520,228.26782453170748L520,228.48729173018685C270,228.48729173018685 270,129.14692942594453 20,129.14692942594453Z" style="stroke: rgb(236, 225, 51); stroke-opacity: 1; fill: rgb(236, 225, 51); fill-opacity: 1; stroke-width: 1; opacity: 1;"/><path class="sankey-link" d="M20,126.65652972062873C270,126.65652972062873 270,168.52703632518248 520,168.52703632518248L520,170.44635236893853C270,170.44635236893853 270,128.57584576438478 20,128.57584576438478Z" style="stroke: rgb(68, 68, 68); stroke-opacity: 1; fill: rgb(236, 225, 51); fill-opacity: 1; stroke-width: 0; opacity: 1;"/><path class="sankey-link" d="M20,129.14692942594453C270,129.14692942594453 270,246.75015241149447 520,246.75015241149447L520,247.01066972163937C270,247.01066972163937 270,129.40744673608944 20,129.40744673608944Z" style="stroke: rgb(236, 225, 51); stroke-opacity: 1; fill: rgb(236, 225, 51); fill-opacity: 1; stroke-width: 1; opacity: 1;"/><path class="sankey-link" d="M20,128.57584576438478C270,128.57584576438478 270,193.85112879857328 520,193.85112879857328L520,194.0570202016343C270,194.0570202016343 270,128.78173716744578 20,128.78173716744578Z" style="stroke: rgb(236, 225, 51); stroke-opacity: 1; fill: rgb(236, 225, 51); fill-opacity: 1; stroke-width: 1; opacity: 1;"/><path class="sankey-link" d="M20,124.89331973136161C270,124.89331973136161 270,129.32785781307646 520,129.32785781307646L520,130.81588745134425C270,130.81588745134425 270,126.3813493696294 20,126.3813493696294Z" style="stroke: rgb(68, 68, 68); stroke-opacity: 1; fill: rgb(236, 225, 51); fill-opacity: 1; stroke-width: 0; opacity: 1;"/><path class="sankey-link" d="M20,122.62680258975877C270,122.62680258975877 270,70.82048283748222 520,70.82048283748222L520,70.89398566910742C270,70.89398566910742 270,122.70030542138397 20,122.70030542138397Z" style="stroke: rgb(236, 225, 51); stroke-opacity: 1; fill: rgb(236, 225, 51); fill-opacity: 1; stroke-width: 1; opacity: 1;"/><path class="sankey-link" d="M20,129.4074467360894C270,129.4074467360894 270,273.7810345554877 520,273.7810345554877L520,275.5457828006236C270,275.5457828006236 270,131.1721949812254 20,131.1721949812254Z" style="stroke: rgb(68, 68, 68); stroke-opacity: 1; fill: rgb(236, 225, 51); fill-opacity: 1; stroke-width: 0; opacity: 1;"/><path class="sankey-link" d="M20,77.2990770948385C270,77.2990770948385 270,210.83526943999422 520,210.83526943999422L520,210.96827748993192C270,210.96827748993192 270,77.43208514477622 20,77.43208514477622Z" style="stroke: rgb(86, 180, 233); stroke-opacity: 1; fill: rgb(86, 180, 233); fill-opacity: 1; stroke-width: 1; opacity: 1;"/><path class="sankey-link" d="M20,75.87832807630043C270,75.87832807630043 270,148.32922918585777 520,148.32922918585777L520,148.40755611507106C270,148.40755611507106 270,75.95665500551372 20,75.95665500551372Z" style="stroke: rgb(86, 180, 233); stroke-opacity: 1; fill: rgb(86, 180, 233); fill-opacity: 1; stroke-width: 1; opacity: 1;"/><path class="sankey-link" d="M20,66.45339211389782C270,66.45339211389782 270,39.82640601539332 520,39.82640601539332L520,41.52893158346238C270,41.52893158346238 270,68.15591768196688 20,68.15591768196688Z" style="stroke: rgb(68, 68, 68); stroke-opacity: 1; fill: rgb(86, 180, 233); fill-opacity: 1; stroke-width: 0; opacity: 1;"/><path class="sankey-link" d="M20,69.11687875528878C270,69.11687875528878 270,88.36842508478782 520,88.36842508478782L520,94.69323452986072C270,94.69323452986072 270,75.44168820036168 20,75.44168820036168Z" style="stroke: rgb(68, 68, 68); stroke-opacity: 1; fill: rgb(86, 180, 233); fill-opacity: 1; stroke-width: 0; opacity: 1;"/><path class="sankey-link" d="M20,77.43208514477622C270,77.43208514477622 270,228.17211445220758 520,228.17211445220758L520,228.24089595696913C270,228.24089595696913 270,77.5008666495378 20,77.5008666495378Z" style="stroke: rgb(86, 180, 233); stroke-opacity: 1; fill: rgb(86, 180, 233); fill-opacity: 1; stroke-width: 1; opacity: 1;"/><path class="sankey-link" d="M20,75.95665500551372C270,75.95665500551372 270,167.21612128463426 520,167.21612128463426L520,168.38799550708035C270,168.38799550708035 270,77.12852922795979 20,77.12852922795979Z" style="stroke: rgb(68, 68, 68); stroke-opacity: 1; fill: rgb(86, 180, 233); fill-opacity: 1; stroke-width: 0; opacity: 1;"/><path class="sankey-link" d="M20,77.50086664953778C270,77.50086664953778 270,246.40209325077407 520,246.40209325077407L520,246.6272801326232C270,246.6272801326232 270,77.72605353138692 20,77.72605353138692Z" style="stroke: rgb(86, 180, 233); stroke-opacity: 1; fill: rgb(86, 180, 233); fill-opacity: 1; stroke-width: 1; opacity: 1;"/><path class="sankey-link" d="M20,77.12852922795979C270,77.12852922795979 270,193.5805971841024 520,193.5805971841024L520,193.75114505098108C270,193.75114505098108 270,77.2990770948385 20,77.2990770948385Z" style="stroke: rgb(86, 180, 233); stroke-opacity: 1; fill: rgb(86, 180, 233); fill-opacity: 1; stroke-width: 1; opacity: 1;"/><path class="sankey-link" d="M20,75.4416882003617C270,75.4416882003617 270,128.7497035673121 520,128.7497035673121L520,129.18634344325085C270,129.18634344325085 270,75.87832807630043 20,75.87832807630043Z" style="stroke: rgb(86, 180, 233); stroke-opacity: 1; fill: rgb(86, 180, 233); fill-opacity: 1; stroke-width: 1; opacity: 1;"/><path class="sankey-link" d="M20,68.15591768196688C270,68.15591768196688 270,69.82220568080227 520,69.82220568080227L520,70.78316675412417C270,70.78316675412417 270,69.11687875528878 20,69.11687875528878Z" style="stroke: rgb(86, 180, 233); stroke-opacity: 1; fill: rgb(86, 180, 233); fill-opacity: 1; stroke-width: 1; opacity: 1;"/><path class="sankey-link" d="M20,77.72605353138692C270,77.72605353138692 270,271.52415536022596 520,271.52415536022596L520,272.8227418716114C270,272.8227418716114 270,79.02464004277238 20,79.02464004277238Z" style="stroke: rgb(68, 68, 68); stroke-opacity: 1; fill: rgb(86, 180, 233); fill-opacity: 1; stroke-width: 0; opacity: 1;"/><path class="sankey-link" d="M20,286.41143094416964C270,286.41143094416964 270,212.81183226440498 520,212.81183226440498L520,212.96315505298907C270,212.96315505298907 270,286.56275373275366 20,286.56275373275366Z" style="stroke: rgb(128, 128, 0); stroke-opacity: 1; fill: rgb(128, 128, 0); fill-opacity: 1; stroke-width: 1; opacity: 1;"/><path class="sankey-link" d="M20,285.6538324764157C270,285.6538324764157 270,150.62667565856393 520,150.62667565856393L520,150.67369072536806C270,150.67369072536806 270,285.70084754321977 20,285.70084754321977Z" style="stroke: rgb(128, 128, 0); stroke-opacity: 1; fill: rgb(128, 128, 0); fill-opacity: 1; stroke-width: 1; opacity: 1;"/><path class="sankey-link" d="M20,283.21011776789555C270,283.21011776789555 270,54.144438039324676 520,54.144438039324676L520,54.775775912604296C270,54.775775912604296 270,283.84145564117523 20,283.84145564117523Z" style="stroke: rgb(128, 128, 0); stroke-opacity: 1; fill: rgb(128, 128, 0); fill-opacity: 1; stroke-width: 1; opacity: 1;"/><path class="sankey-link" d="M20,283.85546087060135C270,283.85546087060135 270,111.04204310081352 520,111.04204310081352L520,112.61886461156391C270,112.61886461156391 270,285.43228238135174 20,285.43228238135174Z" style="stroke: rgb(68, 68, 68); stroke-opacity: 1; fill: rgb(128, 128, 0); fill-opacity: 1; stroke-width: 0; opacity: 1;"/><path class="sankey-link" d="M20,286.5627537327537C270,286.5627537327537 270,230.55980349928822 520,230.55980349928822L520,230.64450553273625C270,230.64450553273625 270,286.64745576620174 20,286.64745576620174Z" style="stroke: rgb(128, 128, 0); stroke-opacity: 1; fill: rgb(128, 128, 0); fill-opacity: 1; stroke-width: 1; opacity: 1;"/><path class="sankey-link" d="M20,285.7008475432198C270,285.7008475432198 270,177.54058821073133 520,177.54058821073133L520,178.15254114810025C270,178.15254114810025 270,286.3128004805888 20,286.3128004805888Z" style="stroke: rgb(128, 128, 0); stroke-opacity: 1; fill: rgb(128, 128, 0); fill-opacity: 1; stroke-width: 1; opacity: 1;"/><path class="sankey-link" d="M20,286.64745576620174C270,286.64745576620174 270,250.9487040688803 520,250.9487040688803L520,251.99510440970343C270,251.99510440970343 270,287.6938561070248 20,287.6938561070248Z" style="stroke: rgb(68, 68, 68); stroke-opacity: 1; fill: rgb(128, 128, 0); fill-opacity: 1; stroke-width: 0; opacity: 1;"/><path class="sankey-link" d="M20,286.31280048058875C270,286.31280048058875 270,195.50029528237647 520,195.50029528237647L520,195.59892574595736C270,195.59892574595736 270,286.41143094416964 20,286.41143094416964Z" style="stroke: rgb(128, 128, 0); stroke-opacity: 1; fill: rgb(128, 128, 0); fill-opacity: 1; stroke-width: 1; opacity: 1;"/><path class="sankey-link" d="M20,285.43228238135174C270,285.43228238135174 270,132.76629915938054 520,132.76629915938054L520,132.98784925444448C270,132.98784925444448 270,285.65383247641574 20,285.65383247641574Z" style="stroke: rgb(128, 128, 0); stroke-opacity: 1; fill: rgb(128, 128, 0); fill-opacity: 1; stroke-width: 1; opacity: 1;"/><path class="sankey-link" d="M20,283.8414556411752C270,283.8414556411752 270,70.94851076930063 520,70.94851076930063L520,70.9625159987268C270,70.9625159987268 270,283.85546087060135 20,283.85546087060135Z" style="stroke: rgb(128, 128, 0); stroke-opacity: 1; fill: rgb(128, 128, 0); fill-opacity: 1; stroke-width: 1; opacity: 1;"/><path class="sankey-link" d="M20,287.6938561070249C270,287.6938561070249 270,287.693856107025 520,287.693856107025L520,320.0000000000001C270,320.0000000000001 270,320 20,320Z" style="stroke: rgb(68, 68, 68); stroke-opacity: 1; fill: rgb(128, 128, 0); fill-opacity: 1; stroke-width: 0; opacity: 1;"/></g><g class="sankey-node-set" style="cursor: move;"><g class="sankey-node" transform="translate(0.000,201.554)" style="opacity: 1;"><rect class="node-rect" width="20" height="8.034788693299845" style="stroke-width: 0.5; stroke: rgb(0, 0, 0); stroke-opacity: 1; fill: rgb(211, 211, 211); fill-opacity: 1;"/><text class="node-label" data-notex="1" x="0" y="0" text-anchor="start" transform="translate(23.25,8.217394346649922)" style="cursor: default; font-family: 'Open Sans', verdana, arial, sans-serif; font-size: 12px; fill: rgb(42, 63, 95); fill-opacity: 1; white-space: pre; text-shadow: white 1px 1px 1px, white -1px -1px 1px, white 1px -1px 1px, white -1px 1px 1px;">Africa (31 Mt)</text></g><g class="sankey-node" transform="translate(0.000,146.172)" style="opacity: 1;"><rect class="node-rect" width="20" height="6.16297582167806" style="stroke-width: 0.5; stroke: rgb(0, 0, 0); stroke-opacity: 1; fill: rgb(211, 211, 211); fill-opacity: 1;"/><text class="node-label" data-notex="1" x="0" y="0" text-anchor="start" transform="translate(23.25,7.281487910839029)" style="cursor: default; font-family: 'Open Sans', verdana, arial, sans-serif; font-size: 12px; fill: rgb(42, 63, 95); fill-opacity: 1; white-space: pre; text-shadow: white 1px 1px 1px, white -1px -1px 1px, white 1px -1px 1px, white -1px 1px 1px;">Australia (24 Mt)</text></g><g class="sankey-node" transform="translate(0.000,0.000)" style="opacity: 1;"><rect class="node-rect" width="20" height="51.453392113897664" style="stroke-width: 0.5; stroke: rgb(0, 0, 0); stroke-opacity: 1; fill: rgb(211, 211, 211); fill-opacity: 1;"/><text class="node-label" data-notex="1" x="0" y="0" text-anchor="start" transform="translate(23.25,29.92669605694883)" style="cursor: default; font-family: 'Open Sans', verdana, arial, sans-serif; font-size: 12px; fill: rgb(42, 63, 95); fill-opacity: 1; white-space: pre; text-shadow: white 1px 1px 1px, white -1px -1px 1px, white 1px -1px 1px, white -1px 1px 1px;">China (200 Mt)</text></g><g class="sankey-node" transform="translate(0.000,94.025)" style="opacity: 1;"><rect class="node-rect" width="20" height="9.420870358803342" style="stroke-width: 0.5; stroke: rgb(0, 0, 0); stroke-opacity: 1; fill: rgb(211, 211, 211); fill-opacity: 1;"/><text class="node-label" data-notex="1" x="0" y="0" text-anchor="start" transform="translate(23.25,8.91043517940167)" style="cursor: default; font-family: 'Open Sans', verdana, arial, sans-serif; font-size: 12px; fill: rgb(42, 63, 95); fill-opacity: 1; white-space: pre; text-shadow: white 1px 1px 1px, white -1px -1px 1px, white 1px -1px 1px, white -1px 1px 1px;">Europe (36 Mt)</text></g><g class="sankey-node" transform="translate(0.000,239.675)" style="opacity: 1;"><rect class="node-rect" width="20" height="3.330524086954199" style="stroke-width: 0.5; stroke: rgb(0, 0, 0); stroke-opacity: 1; fill: rgb(211, 211, 211); fill-opacity: 1;"/><text class="node-label" data-notex="1" x="0" y="0" text-anchor="start" transform="translate(23.25,5.865262043477099)" style="cursor: default; font-family: 'Open Sans', verdana, arial, sans-serif; font-size: 12px; fill: rgb(42, 63, 95); fill-opacity: 1; white-space: pre; text-shadow: white 1px 1px 1px, white -1px -1px 1px, white 1px -1px 1px, white -1px 1px 1px;">India (12 Mt)</text></g><g class="sankey-node" transform="translate(0.000,224.589)" style="opacity: 1;"><rect class="node-rect" width="20" height="0.5" style="stroke-width: 0.5; stroke: rgb(0, 0, 0); stroke-opacity: 1; fill: rgb(211, 211, 211); fill-opacity: 1;"/><text class="node-label" data-notex="1" x="0" y="0" text-anchor="start" transform="translate(23.25,4.449999999999999)" style="cursor: default; font-family: 'Open Sans', verdana, arial, sans-serif; font-size: 12px; fill: rgb(42, 63, 95); fill-opacity: 1; white-space: pre; text-shadow: white 1px 1px 1px, white -1px -1px 1px, white 1px -1px 1px, white -1px 1px 1px;">Japan and Korea (0 Mt)</text></g><g class="sankey-node" transform="translate(0.000,258.006)" style="opacity: 1;"><rect class="node-rect" width="20" height="10.204187088856884" style="stroke-width: 0.5; stroke: rgb(0, 0, 0); stroke-opacity: 1; fill: rgb(211, 211, 211); fill-opacity: 1;"/><text class="node-label" data-notex="1" x="0" y="0" text-anchor="start" transform="translate(23.25,9.302093544428441)" style="cursor: default; font-family: 'Open Sans', verdana, arial, sans-serif; font-size: 12px; fill: rgb(42, 63, 95); fill-opacity: 1; white-space: pre; text-shadow: white 1px 1px 1px, white -1px -1px 1px, white 1px -1px 1px, white -1px 1px 1px;">Latin America (39 Mt)</text></g><g class="sankey-node" transform="translate(0.000,167.335)" style="opacity: 1;"><rect class="node-rect" width="20" height="19.219195207922724" style="stroke-width: 0.5; stroke: rgb(0, 0, 0); stroke-opacity: 1; fill: rgb(211, 211, 211); fill-opacity: 1;"/><text class="node-label" data-notex="1" x="0" y="0" text-anchor="start" transform="translate(23.25,13.809597603961361)" style="cursor: default; font-family: 'Open Sans', verdana, arial, sans-serif; font-size: 12px; fill: rgb(42, 63, 95); fill-opacity: 1; white-space: pre; text-shadow: white 1px 1px 1px, white -1px -1px 1px, white 1px -1px 1px, white -1px 1px 1px;">Middle East (74 Mt)</text></g><g class="sankey-node" transform="translate(0.000,118.446)" style="opacity: 1;"><rect class="node-rect" width="20" height="12.7266845796496" style="stroke-width: 0.5; stroke: rgb(0, 0, 0); stroke-opacity: 1; fill: rgb(211, 211, 211); fill-opacity: 1;"/><text class="node-label" data-notex="1" x="0" y="0" text-anchor="start" transform="translate(23.25,10.5633422898248)" style="cursor: default; font-family: 'Open Sans', verdana, arial, sans-serif; font-size: 12px; fill: rgb(42, 63, 95); fill-opacity: 1; white-space: pre; text-shadow: white 1px 1px 1px, white -1px -1px 1px, white 1px -1px 1px, white -1px 1px 1px;">Rest of Asia (49 Mt)</text></g><g class="sankey-node" transform="translate(0.000,66.453)" style="opacity: 1;"><rect class="node-rect" width="20" height="12.571247928874584" style="stroke-width: 0.5; stroke: rgb(0, 0, 0); stroke-opacity: 1; fill: rgb(211, 211, 211); fill-opacity: 1;"/><text class="node-label" data-notex="1" x="0" y="0" text-anchor="start" transform="translate(23.25,10.485623964437291)" style="cursor: default; font-family: 'Open Sans', verdana, arial, sans-serif; font-size: 12px; fill: rgb(42, 63, 95); fill-opacity: 1; white-space: pre; text-shadow: white 1px 1px 1px, white -1px -1px 1px, white 1px -1px 1px, white -1px 1px 1px;">Russia (48 Mt)</text></g><g class="sankey-node" transform="translate(0.000,283.210)" style="opacity: 1;"><rect class="node-rect" width="20" height="36.789882232104446" style="stroke-width: 0.5; stroke: rgb(0, 0, 0); stroke-opacity: 1; fill: rgb(211, 211, 211); fill-opacity: 1;"/><text class="node-label" data-notex="1" x="0" y="0" text-anchor="start" transform="translate(23.25,22.594941116052222)" style="cursor: default; font-family: 'Open Sans', verdana, arial, sans-serif; font-size: 12px; fill: rgb(42, 63, 95); fill-opacity: 1; white-space: pre; text-shadow: white 1px 1px 1px, white -1px -1px 1px, white 1px -1px 1px, white -1px 1px 1px;">USA and Canada (143 Mt)</text></g><g class="sankey-node" transform="translate(520.000,210.599)" style="opacity: 1;"><rect class="node-rect" width="20" height="2.364229307031792" style="stroke-width: 0.5; stroke: rgb(0, 0, 0); stroke-opacity: 1; fill: rgb(211, 211, 211); fill-opacity: 1;"/><text class="node-label" data-notex="1" x="0" y="0" text-anchor="end" transform="translate(-3.25,5.382114653515895)" style="cursor: default; font-family: 'Open Sans', verdana, arial, sans-serif; font-size: 12px; fill: rgb(42, 63, 95); fill-opacity: 1; white-space: pre; text-shadow: white 1px 1px 1px, white -1px -1px 1px, white 1px -1px 1px, white -1px 1px 1px;">Africa (9 Mt)</text></g><g class="sankey-node" transform="translate(520.000,147.988)" style="opacity: 1;"><rect class="node-rect" width="20" height="2.685841470923549" style="stroke-width: 0.5; stroke: rgb(0, 0, 0); stroke-opacity: 1; fill: rgb(211, 211, 211); fill-opacity: 1;"/><text class="node-label" data-notex="1" x="0" y="0" text-anchor="end" transform="translate(-3.25,5.542920735461774)" style="cursor: default; font-family: 'Open Sans', verdana, arial, sans-serif; font-size: 12px; fill: rgb(42, 63, 95); fill-opacity: 1; white-space: pre; text-shadow: white 1px 1px 1px, white -1px -1px 1px, white 1px -1px 1px, white -1px 1px 1px;">Australia (10 Mt)</text></g><g class="sankey-node" transform="translate(520.000,0.000)" style="opacity: 1;"><rect class="node-rect" width="20" height="54.77577591260406" style="stroke-width: 0.5; stroke: rgb(0, 0, 0); stroke-opacity: 1; fill: rgb(211, 211, 211); fill-opacity: 1;"/><text class="node-label" data-notex="1" x="0" y="0" text-anchor="end" transform="translate(-3.25,31.58788795630203)" style="cursor: default; font-family: 'Open Sans', verdana, arial, sans-serif; font-size: 12px; fill: rgb(42, 63, 95); fill-opacity: 1; white-space: pre; text-shadow: white 1px 1px 1px, white -1px -1px 1px, white 1px -1px 1px, white -1px 1px 1px;">China (213 Mt)</text></g><g class="sankey-node" transform="translate(520.000,85.963)" style="opacity: 1;"><rect class="node-rect" width="20" height="26.65634861283722" style="stroke-width: 0.5; stroke: rgb(0, 0, 0); stroke-opacity: 1; fill: rgb(211, 211, 211); fill-opacity: 1;"/><text class="node-label" data-notex="1" x="0" y="0" text-anchor="end" transform="translate(-3.25,17.52817430641861)" style="cursor: default; font-family: 'Open Sans', verdana, arial, sans-serif; font-size: 12px; fill: rgb(42, 63, 95); fill-opacity: 1; white-space: pre; text-shadow: white 1px 1px 1px, white -1px -1px 1px, white 1px -1px 1px, white -1px 1px 1px;">Europe (103 Mt)</text></g><g class="sankey-node" transform="translate(520.000,227.963)" style="opacity: 1;"><rect class="node-rect" width="20" height="2.6813504797470387" style="stroke-width: 0.5; stroke: rgb(0, 0, 0); stroke-opacity: 1; fill: rgb(211, 211, 211); fill-opacity: 1;"/><text class="node-label" data-notex="1" x="0" y="0" text-anchor="end" transform="translate(-3.25,5.540675239873519)" style="cursor: default; font-family: 'Open Sans', verdana, arial, sans-serif; font-size: 12px; fill: rgb(42, 63, 95); fill-opacity: 1; white-space: pre; text-shadow: white 1px 1px 1px, white -1px -1px 1px, white 1px -1px 1px, white -1px 1px 1px;">India (10 Mt)</text></g><g class="sankey-node" transform="translate(520.000,165.674)" style="opacity: 1;"><rect class="node-rect" width="20" height="12.478850422732194" style="stroke-width: 0.5; stroke: rgb(0, 0, 0); stroke-opacity: 1; fill: rgb(211, 211, 211); fill-opacity: 1;"/><text class="node-label" data-notex="1" x="0" y="0" text-anchor="end" transform="translate(-3.25,10.439425211366096)" style="cursor: default; font-family: 'Open Sans', verdana, arial, sans-serif; font-size: 12px; fill: rgb(42, 63, 95); fill-opacity: 1; white-space: pre; text-shadow: white 1px 1px 1px, white -1px -1px 1px, white 1px -1px 1px, white -1px 1px 1px;">Japan and Korea (48 Mt)</text></g><g class="sankey-node" transform="translate(520.000,245.645)" style="opacity: 1;"><rect class="node-rect" width="20" height="6.350598876967297" style="stroke-width: 0.5; stroke: rgb(0, 0, 0); stroke-opacity: 1; fill: rgb(211, 211, 211); fill-opacity: 1;"/><text class="node-label" data-notex="1" x="0" y="0" text-anchor="end" transform="translate(-3.25,7.375299438483648)" style="cursor: default; font-family: 'Open Sans', verdana, arial, sans-serif; font-size: 12px; fill: rgb(42, 63, 95); fill-opacity: 1; white-space: pre; text-shadow: white 1px 1px 1px, white -1px -1px 1px, white 1px -1px 1px, white -1px 1px 1px;">Latin America (24 Mt)</text></g><g class="sankey-node" transform="translate(520.000,193.153)" style="opacity: 1;"><rect class="node-rect" width="20" height="2.4463845978570475" style="stroke-width: 0.5; stroke: rgb(0, 0, 0); stroke-opacity: 1; fill: rgb(211, 211, 211); fill-opacity: 1;"/><text class="node-label" data-notex="1" x="0" y="0" text-anchor="end" transform="translate(-3.25,5.423192298928523)" style="cursor: default; font-family: 'Open Sans', verdana, arial, sans-serif; font-size: 12px; fill: rgb(42, 63, 95); fill-opacity: 1; white-space: pre; text-shadow: white 1px 1px 1px, white -1px -1px 1px, white 1px -1px 1px, white -1px 1px 1px;">Middle East (9 Mt)</text></g><g class="sankey-node" transform="translate(520.000,127.619)" style="opacity: 1;"><rect class="node-rect" width="20" height="5.368984642880434" style="stroke-width: 0.5; stroke: rgb(0, 0, 0); stroke-opacity: 1; fill: rgb(211, 211, 211); fill-opacity: 1;"/><text class="node-label" data-notex="1" x="0" y="0" text-anchor="end" transform="translate(-3.25,6.8844923214402165)" style="cursor: default; font-family: 'Open Sans', verdana, arial, sans-serif; font-size: 12px; fill: rgb(42, 63, 95); fill-opacity: 1; white-space: pre; text-shadow: white 1px 1px 1px, white -1px -1px 1px, white 1px -1px 1px, white -1px 1px 1px;">Rest of Asia (20 Mt)</text></g><g class="sankey-node" transform="translate(520.000,69.776)" style="opacity: 1;"><rect class="node-rect" width="20" height="1.1867400861225406" style="stroke-width: 0.5; stroke: rgb(0, 0, 0); stroke-opacity: 1; fill: rgb(211, 211, 211); fill-opacity: 1;"/><text class="node-label" data-notex="1" x="0" y="0" text-anchor="end" transform="translate(-3.25,4.79337004306127)" style="cursor: default; font-family: 'Open Sans', verdana, arial, sans-serif; font-size: 12px; fill: rgb(42, 63, 95); fill-opacity: 1; white-space: pre; text-shadow: white 1px 1px 1px, white -1px -1px 1px, white 1px -1px 1px, white -1px 1px 1px;">Russia (4 Mt)</text></g><g class="sankey-node" transform="translate(520.000,266.995)" style="opacity: 1;"><rect class="node-rect" width="20" height="53.0048955902966" style="stroke-width: 0.5; stroke: rgb(0, 0, 0); stroke-opacity: 1; fill: rgb(211, 211, 211); fill-opacity: 1;"/><text class="node-label" data-notex="1" x="0" y="0" text-anchor="end" transform="translate(-3.25,30.7024477951483)" style="cursor: default; font-family: 'Open Sans', verdana, arial, sans-serif; font-size: 12px; fill: rgb(42, 63, 95); fill-opacity: 1; white-space: pre; text-shadow: white 1px 1px 1px, white -1px -1px 1px, white 1px -1px 1px, white -1px 1px 1px;">USA and Canada (206 Mt)</text></g></g></g><defs id="topdefs-9cd314"><g class="clips"/></defs><g class="layer-above"><g class="imagelayer"/><g class="shapelayer"/></g><g class="infolayer"><g class="g-gtitle"/><g class="first-render"/></g></svg>