<svg class="main-svg" xmlns="http://www.w3.org/2000/svg" xmlns:xlink="http://www.w3.org/1999/xlink" width="700" height="500" viewBox="0 0 700 500"><rect x="0" y="0" width="700" height="500" style="fill: rgb(255, 255, 255); fill-opacity: 1;"/><defs id="defs-e58d48"><g class="clips"/><g class="gradients"/><g class="patterns"/></defs><g class="bglayer"/><g class="layer-below"><g class="imagelayer"/><g class="shapelayer"/></g><g class="cartesianlayer"/><g class="polarlayer"/><g class="smithlayer"/><g class="ternarylayer"/><g class="geolayer"/><g class="funnelarealayer"/><g class="pielayer"/><g class="iciclelayer"/><g class="treemaplayer"/><g class="sunburstlayer"/><g class="glimages"/><g class="sankey" transform="translate(80,100)matrix(1 0 0 1 0 0)" style="box-sizing: content-box; position: absolute; left: 0px; shape-rendering: geometricPrecision; pointer-events: auto;"><g class="sankey-links" style="fill: none;"><path class="sankey-link" d="M20,296.8013670464952C270,296.8013670464952 270,300.1771218379795 520,300.1771218379795L520,302.5524974036464C270,302.5524974036464 270,299.1767426121621 20,299.1767426121621Z" style="stroke: rgb(68, 68, 68); stroke-opacity: 1; fill: rgb(1, 115, 178); fill-opacity: 1; stroke-width: 0; opacity: 1;"/><path class="sankey-link" d="M20,293.8511966154711C270,293.8511966154711 270,83.54742959268553 520,83.54742959268553L520,83.62384934198714C270,83.62384934198714 270,293.92761636477275 20,293.92761636477275Z" style="stroke: rgb(1, 115, 178); stroke-opacity: 1; fill: rgb(1, 115, 178); fill-opacity: 1; stroke-width: 1; opacity: 1;"/><path class="sankey-link" d="M20,292.3806002484368C270,292.3806002484368 270,61.66044710914981 520,61.66044710914981L520,63.13104347618411C270,63.13104347618411 270,293.8511966154711 20,293.8511966154711Z" style="stroke: rgb(68, 68, 68); stroke-opacity: 1; fill: rgb(1, 115, 178); fill-opacity: 1; stroke-width: 0; opacity: 1;"/><path class="sankey-link" d="M20,295.6539461811193C270,295.6539461811193 270,221.54266128873033 520,221.54266128873033L520,222.3794635923821C270,222.3794635923821 270,296.4907484847711 20,296.4907484847711Z" style="stroke: rgb(1, 115, 178); stroke-opacity: 1; fill: rgb(1, 115, 178); fill-opacity: 1; stroke-width: 1; opacity: 1;"/><path class="sankey-link" d="M20,299.1767426121621C270,299.1767426121621 270,318.74278220208095 520,318.74278220208095L520,318.7873134464692C270,318.7873134464692 270,299.2212738565504 20,299.2212738565504Z" style="stroke: rgb(1, 115, 178); stroke-opacity: 1; fill: rgb(1, 115, 178); fill-opacity: 1; stroke-width: 1; opacity: 1;"/><path class="sankey-link" d="M20,293.92761636477275C270,293.92761636477275 270,112.22696751274546 520,112.22696751274546L520,112.50349136618371C270,112.50349136618371 270,294.20414021821097 20,294.20414021821097Z" style="stroke: rgb(1, 115, 178); stroke-opacity: 1; fill: rgb(1, 115, 178); fill-opacity: 1; stroke-width: 1; opacity: 1;"/><path class="sankey-link" d="M20,296.51123101926396C270,296.51123101926396 270,261.41794608607336 520,261.41794608607336L520,261.57480313461883C270,261.57480313461883 270,296.66808806780944 20,296.66808806780944Z" style="stroke: rgb(1, 115, 178); stroke-opacity: 1; fill: rgb(1, 115, 178); fill-opacity: 1; stroke-width: 1; opacity: 1;"/><path class="sankey-link" d="M20,296.6680880678095C270,296.6680880678095 270,283.0799603954117 520,283.0799603954117L520,283.2132393740975C270,283.2132393740975 270,296.8013670464953 20,296.8013670464953Z" style="stroke: rgb(1, 115, 178); stroke-opacity: 1; fill: rgb(1, 115, 178); fill-opacity: 1; stroke-width: 1; opacity: 1;"/><path class="sankey-link" d="M20,294.20414021821097C270,294.20414021821097 270,135.84515485432252 520,135.84515485432252L520,136.14327834691233C270,136.14327834691233 270,294.50226371080083 20,294.50226371080083Z" style="stroke: rgb(1, 115, 178); stroke-opacity: 1; fill: rgb(1, 115, 178); fill-opacity: 1; stroke-width: 1; opacity: 1;"/><path class="sankey-link" d="M20,296.4907484847711C270,296.4907484847711 270,239.06639025489 520,239.06639025489L520,239.08687278938288C270,239.08687278938288 270,296.51123101926396 20,296.51123101926396Z" style="stroke: rgb(1, 115, 178); stroke-opacity: 1; fill: rgb(1, 115, 178); fill-opacity: 1; stroke-width: 1; opacity: 1;"/><path class="sankey-link" d="M20,294.5022637108008C270,294.5022637108008 270,186.35344114489143 520,186.35344114489143L520,187.50512361520995C270,187.50512361520995 270,295.6539461811193 20,295.6539461811193Z" style="stroke: rgb(68, 68, 68); stroke-opacity: 1; fill: rgb(1, 115, 178); fill-opacity: 1; stroke-width: 0; opacity: 1;"/><path class="sankey-link" d="M20,117.52866398949978C270,117.52866398949978 270,299.11732588598977 520,299.11732588598977L520,299.50291809159467C270,299.50291809159467 270,117.9142561951047 20,117.9142561951047Z" style="stroke: rgb(222, 143, 5); stroke-opacity: 1; fill: rgb(222, 143, 5); fill-opacity: 1; stroke-width: 1; opacity: 1;"/><path class="sankey-link" d="M20,90.31505988674225C270,90.31505988674225 270,79.60748242863492 520,79.60748242863492L520,82.96650099650596C270,82.96650099650596 270,93.67407845461328 20,93.67407845461328Z" style="stroke: rgb(68, 68, 68); stroke-opacity: 1; fill: rgb(222, 143, 5); fill-opacity: 1; stroke-width: 0; opacity: 1;"/><path class="sankey-link" d="M20,79.61581034328371C270,79.61581034328371 270,37.950461901948074 520,37.950461901948074L520,48.64971144540661C270,48.64971144540661 270,90.31505988674225 20,90.31505988674225Z" style="stroke: rgb(68, 68, 68); stroke-opacity: 1; fill: rgb(222, 143, 5); fill-opacity: 1; stroke-width: 0; opacity: 1;"/><path class="sankey-link" d="M20,111.9114824089474C270,111.9114824089474 270,209.2576553909243 520,209.2576553909243L520,212.8116197745283C270,212.8116197745283 270,115.46544679255142 20,115.46544679255142Z" style="stroke: rgb(68, 68, 68); stroke-opacity: 1; fill: rgb(222, 143, 5); fill-opacity: 1; stroke-width: 0; opacity: 1;"/><path class="sankey-link" d="M20,117.91425619510471C270,117.91425619510471 270,318.06866083080075 520,318.06866083080075L520,318.32266189757655C270,318.32266189757655 270,118.16825726188046 20,118.16825726188046Z" style="stroke: rgb(222, 143, 5); stroke-opacity: 1; fill: rgb(222, 143, 5); fill-opacity: 1; stroke-width: 1; opacity: 1;"/><path class="sankey-link" d="M20,93.67407845461328C270,93.67407845461328 270,101.51293913401528 520,101.51293913401528L520,108.50596806302684C270,108.50596806302684 270,100.66710738362484 20,100.66710738362484Z" style="stroke: rgb(68, 68, 68); stroke-opacity: 1; fill: rgb(222, 143, 5); fill-opacity: 1; stroke-width: 0; opacity: 1;"/><path class="sankey-link" d="M20,115.5732464693737C270,115.5732464693737 270,255.82583570213728 520,255.82583570213728L520,256.94366476253197C270,256.94366476253197 270,116.69107552976838 20,116.69107552976838Z" style="stroke: rgb(68, 68, 68); stroke-opacity: 1; fill: rgb(222, 143, 5); fill-opacity: 1; stroke-width: 0; opacity: 1;"/><path class="sankey-link" d="M20,116.6910755297684C270,116.6910755297684 270,277.90049546823207 520,277.90049546823207L520,278.73808392796343C270,278.73808392796343 270,117.52866398949979 20,117.52866398949979Z" style="stroke: rgb(222, 143, 5); stroke-opacity: 1; fill: rgb(222, 143, 5); fill-opacity: 1; stroke-width: 1; opacity: 1;"/><path class="sankey-link" d="M20,100.66710738362482C270,100.66710738362482 270,130.57083038048506 520,130.57083038048506L520,133.1804249628422C270,133.1804249628422 270,103.276701965982 20,103.276701965982Z" style="stroke: rgb(68, 68, 68); stroke-opacity: 1; fill: rgb(222, 143, 5); fill-opacity: 1; stroke-width: 0; opacity: 1;"/><path class="sankey-link" d="M20,115.4654467925514C270,115.4654467925514 270,238.3742043939948 520,238.3742043939948L520,238.4820040708171C270,238.4820040708171 270,115.57324646937371 20,115.57324646937371Z" style="stroke: rgb(222, 143, 5); stroke-opacity: 1; fill: rgb(222, 143, 5); fill-opacity: 1; stroke-width: 1; opacity: 1;"/><path class="sankey-link" d="M20,103.276701965982C270,103.276701965982 270,162.70962085664513 520,162.70962085664513L520,171.34440129961052C270,171.34440129961052 270,111.91148240894742 20,111.91148240894742Z" style="stroke: rgb(68, 68, 68); stroke-opacity: 1; fill: rgb(222, 143, 5); fill-opacity: 1; stroke-width: 0; opacity: 1;"/><path class="sankey-link" d="M20,63.69983018117113C270,63.69983018117113 270,298.5641382389436 520,298.5641382389436L520,299.1173258859897C270,299.1173258859897 270,64.2530178282173 20,64.2530178282173Z" style="stroke: rgb(2, 158, 115); stroke-opacity: 1; fill: rgb(2, 158, 115); fill-opacity: 1; stroke-width: 1; opacity: 1;"/><path class="sankey-link" d="M20,37.950461901947854C270,37.950461901947854 270,78.9064354816199 520,78.9064354816199L520,79.60748242863491C270,79.60748242863491 270,38.651508848962884 20,38.651508848962884Z" style="stroke: rgb(2, 158, 115); stroke-opacity: 1; fill: rgb(2, 158, 115); fill-opacity: 1; stroke-width: 1; opacity: 1;"/><path class="sankey-link" d="M20,0C270,0 270,2.2026824808563106e-13 520,2.2026824808563106e-13L520,37.950461901948074C270,37.950461901948074 270,37.950461901947854 20,37.950461901947854Z" style="stroke: rgb(68, 68, 68); stroke-opacity: 1; fill: rgb(2, 158, 115); fill-opacity: 1; stroke-width: 0; opacity: 1;"/><path class="sankey-link" d="M20,55.41882223560544C270,55.41882223560544 270,203.9751779618737 520,203.9751779618737L520,209.25765539092427C270,209.25765539092427 270,60.70129966465604 20,60.70129966465604Z" style="stroke: rgb(68, 68, 68); stroke-opacity: 1; fill: rgb(2, 158, 115); fill-opacity: 1; stroke-width: 0; opacity: 1;"/><path class="sankey-link" d="M20,64.2530178282173C270,64.2530178282173 270,317.7058683157344 520,317.7058683157344L520,318.0686608308007C270,318.0686608308007 270,64.61581034328366 20,64.61581034328366Z" style="stroke: rgb(2, 158, 115); stroke-opacity: 1; fill: rgb(2, 158, 115); fill-opacity: 1; stroke-width: 1; opacity: 1;"/><path class="sankey-link" d="M20,38.65150884896288C270,38.65150884896288 270,98.69148272422396 520,98.69148272422396L520,101.51293913401528C270,101.51293913401528 270,41.4729652587542 20,41.4729652587542Z" style="stroke: rgb(68, 68, 68); stroke-opacity: 1; fill: rgb(2, 158, 115); fill-opacity: 1; stroke-width: 0; opacity: 1;"/><path class="sankey-link" d="M20,60.84682343259308C270,60.84682343259308 270,254.10688800584552 520,254.10688800584552L520,255.82583570213728C270,255.82583570213728 270,62.56577112888481 20,62.56577112888481Z" style="stroke: rgb(68, 68, 68); stroke-opacity: 1; fill: rgb(2, 158, 115); fill-opacity: 1; stroke-width: 0; opacity: 1;"/><path class="sankey-link" d="M20,62.56577112888482C270,62.56577112888482 270,276.76643641594575 520,276.76643641594575L520,277.900495468232C270,277.900495468232 270,63.69983018117114 20,63.69983018117114Z" style="stroke: rgb(68, 68, 68); stroke-opacity: 1; fill: rgb(2, 158, 115); fill-opacity: 1; stroke-width: 0; opacity: 1;"/><path class="sankey-link" d="M20,41.47296525875421C270,41.47296525875421 270,127.86335023206487 520,127.86335023206487L520,130.57083038048506C270,130.57083038048506 270,44.180445407174396 20,44.180445407174396Z" style="stroke: rgb(68, 68, 68); stroke-opacity: 1; fill: rgb(2, 158, 115); fill-opacity: 1; stroke-width: 0; opacity: 1;"/><path class="sankey-link" d="M20,60.70129966465604C270,60.70129966465604 270,238.22868062605778 520,238.22868062605778L520,238.37420439399483C270,238.37420439399483 270,60.84682343259308 20,60.84682343259308Z" style="stroke: rgb(2, 158, 115); stroke-opacity: 1; fill: rgb(2, 158, 115); fill-opacity: 1; stroke-width: 1; opacity: 1;"/><path class="sankey-link" d="M20,44.1804454071744C270,44.1804454071744 270,151.4712440282141 520,151.4712440282141L520,162.70962085664516C270,162.70962085664516 270,55.41882223560545 20,55.41882223560545Z" style="stroke: rgb(68, 68, 68); stroke-opacity: 1; fill: rgb(2, 158, 115); fill-opacity: 1; stroke-width: 0; opacity: 1;"/><path class="sankey-link" d="M20,277.19902637161454C270,277.19902637161454 270,300.05670910899215 520,300.05670910899215L520,300.17712183797954C270,300.17712183797954 270,277.3194391006019 20,277.3194391006019Z" style="stroke: rgb(213, 94, 0); stroke-opacity: 1; fill: rgb(213, 94, 0); fill-opacity: 1; stroke-width: 1; opacity: 1;"/><path class="sankey-link" d="M20,270.9336931901592C270,270.9336931901592 270,83.45362401447758 520,83.45362401447758L520,83.54742959268555C270,83.54742959268555 270,271.02749876836714 20,271.02749876836714Z" style="stroke: rgb(213, 94, 0); stroke-opacity: 1; fill: rgb(213, 94, 0); fill-opacity: 1; stroke-width: 1; opacity: 1;"/><path class="sankey-link" d="M20,269.2656415209014C270,269.2656415209014 270,59.99239543989201 520,59.99239543989201L520,61.660447109149814C270,61.660447109149814 270,270.9336931901592 20,270.9336931901592Z" style="stroke: rgb(68, 68, 68); stroke-opacity: 1; fill: rgb(213, 94, 0); fill-opacity: 1; stroke-width: 0; opacity: 1;"/><path class="sankey-link" d="M20,273.6596031535829C270,273.6596031535829 270,219.27795087617844 520,219.27795087617844L520,221.54266128873033C270,221.54266128873033 270,275.92431356613474 20,275.92431356613474Z" style="stroke: rgb(68, 68, 68); stroke-opacity: 1; fill: rgb(213, 94, 0); fill-opacity: 1; stroke-width: 0; opacity: 1;"/><path class="sankey-link" d="M20,277.31943910060187C270,277.31943910060187 270,318.68162105424597 520,318.68162105424597L520,318.7427822020809C270,318.7427822020809 270,277.3806002484368 20,277.3806002484368Z" style="stroke: rgb(213, 94, 0); stroke-opacity: 1; fill: rgb(213, 94, 0); fill-opacity: 1; stroke-width: 1; opacity: 1;"/><path class="sankey-link" d="M20,271.02749876836714C270,271.02749876836714 270,111.87466784828625 520,111.87466784828625L520,112.22696751274545C270,112.22696751274545 270,271.37979843282636 20,271.37979843282636Z" style="stroke: rgb(213, 94, 0); stroke-opacity: 1; fill: rgb(213, 94, 0); fill-opacity: 1; stroke-width: 1; opacity: 1;"/><path class="sankey-link" d="M20,275.98586225118595C270,275.98586225118595 270,261.1843058507187 520,261.1843058507187L520,261.41794608607336C270,261.41794608607336 270,276.2195024865406 20,276.2195024865406Z" style="stroke: rgb(213, 94, 0); stroke-opacity: 1; fill: rgb(213, 94, 0); fill-opacity: 1; stroke-width: 1; opacity: 1;"/><path class="sankey-link" d="M20,276.2195024865406C270,276.2195024865406 270,282.1004365103378 520,282.1004365103378L520,283.0799603954117C270,283.0799603954117 270,277.19902637161454 20,277.19902637161454Z" style="stroke: rgb(213, 94, 0); stroke-opacity: 1; fill: rgb(213, 94, 0); fill-opacity: 1; stroke-width: 1; opacity: 1;"/><path class="sankey-link" d="M20,271.37979843282636C270,271.37979843282636 270,135.41909175929112 520,135.41909175929112L520,135.84515485432252C270,135.84515485432252 270,271.80586152785776 20,271.80586152785776Z" style="stroke: rgb(213, 94, 0); stroke-opacity: 1; fill: rgb(213, 94, 0); fill-opacity: 1; stroke-width: 1; opacity: 1;"/><path class="sankey-link" d="M20,275.9243135661348C270,275.9243135661348 270,239.00484156983887 520,239.00484156983887L520,239.06639025489002C270,239.06639025489002 270,275.9858622511859 20,275.9858622511859Z" style="stroke: rgb(213, 94, 0); stroke-opacity: 1; fill: rgb(213, 94, 0); fill-opacity: 1; stroke-width: 1; opacity: 1;"/><path class="sankey-link" d="M20,271.80586152785776C270,271.80586152785776 270,184.49969951916628 520,184.49969951916628L520,186.35344114489143C270,186.35344114489143 270,273.65960315358296 20,273.65960315358296Z" style="stroke: rgb(68, 68, 68); stroke-opacity: 1; fill: rgb(213, 94, 0); fill-opacity: 1; stroke-width: 0; opacity: 1;"/><path class="sankey-link" d="M20,318.63394253438094C270,318.63394253438094 270,302.5524974036464 520,302.5524974036464L520,302.7058683157345C270,302.7058683157345 270,318.78731344646906 20,318.78731344646906Z" style="stroke: rgb(204, 120, 188); stroke-opacity: 1; fill: rgb(204, 120, 188); fill-opacity: 1; stroke-width: 1; opacity: 1;"/><path class="sankey-link" d="M20,314.99666586198606C270,314.99666586198606 270,83.62384934198714 520,83.62384934198714L520,83.691482724224C270,83.691482724224 270,315.0642992442229 20,315.0642992442229Z" style="stroke: rgb(204, 120, 188); stroke-opacity: 1; fill: rgb(204, 120, 188); fill-opacity: 1; stroke-width: 1; opacity: 1;"/><path class="sankey-link" d="M20,314.22127385655034C270,314.22127385655034 270,63.13104347618412 520,63.13104347618412L520,63.90643548161982C270,63.90643548161982 270,314.99666586198606 20,314.99666586198606Z" style="stroke: rgb(204, 120, 188); stroke-opacity: 1; fill: rgb(204, 120, 188); fill-opacity: 1; stroke-width: 1; opacity: 1;"/><path class="sankey-link" d="M20,317.2221781380695C270,317.2221781380695 270,222.3794635923821 520,222.3794635923821L520,223.22868062605787C270,223.22868062605787 270,318.0713951717452 20,318.0713951717452Z" style="stroke: rgb(204, 120, 188); stroke-opacity: 1; fill: rgb(204, 120, 188); fill-opacity: 1; stroke-width: 1; opacity: 1;"/><path class="sankey-link" d="M20,318.78731344646906C270,318.78731344646906 270,318.78731344646917 520,318.78731344646917L520,320C270,320 270,319.9999999999999 20,319.9999999999999Z" style="stroke: rgb(68, 68, 68); stroke-opacity: 1; fill: rgb(204, 120, 188); fill-opacity: 1; stroke-width: 0; opacity: 1;"/><path class="sankey-link" d="M20,315.0642992442229C270,315.0642992442229 270,112.5034913661837 520,112.5034913661837L520,112.8633502320648C270,112.8633502320648 270,315.4241581101041 20,315.4241581101041Z" style="stroke: rgb(204, 120, 188); stroke-opacity: 1; fill: rgb(204, 120, 188); fill-opacity: 1; stroke-width: 1; opacity: 1;"/><path class="sankey-link" d="M20,318.0914103882079C270,318.0914103882079 270,261.5748031346189 520,261.5748031346189L520,261.76643641594586C270,261.76643641594586 270,318.2830436695349 20,318.2830436695349Z" style="stroke: rgb(204, 120, 188); stroke-opacity: 1; fill: rgb(204, 120, 188); fill-opacity: 1; stroke-width: 1; opacity: 1;"/><path class="sankey-link" d="M20,318.2830436695349C270,318.2830436695349 270,283.21323937409744 520,283.21323937409744L520,283.5641382389435C270,283.5641382389435 270,318.63394253438094 20,318.63394253438094Z" style="stroke: rgb(204, 120, 188); stroke-opacity: 1; fill: rgb(204, 120, 188); fill-opacity: 1; stroke-width: 1; opacity: 1;"/><path class="sankey-link" d="M20,315.42415811010403C270,315.42415811010403 270,136.14327834691233 520,136.14327834691233L520,136.4712440282142C270,136.4712440282142 270,315.7521237914059 20,315.7521237914059Z" style="stroke: rgb(204, 120, 188); stroke-opacity: 1; fill: rgb(204, 120, 188); fill-opacity: 1; stroke-width: 1; opacity: 1;"/><path class="sankey-link" d="M20,318.0713951717453C270,318.0713951717453 270,239.08687278938285 520,239.08687278938285L520,239.1068880058455C270,239.1068880058455 270,318.0914103882079 20,318.0914103882079Z" style="stroke: rgb(204, 120, 188); stroke-opacity: 1; fill: rgb(204, 120, 188); fill-opacity: 1; stroke-width: 1; opacity: 1;"/><path class="sankey-link" d="M20,315.7521237914059C270,315.7521237914059 270,187.50512361520995 520,187.50512361520995L520,188.97517796187358C270,188.97517796187358 270,317.2221781380696 20,317.2221781380696Z" style="stroke: rgb(68, 68, 68); stroke-opacity: 1; fill: rgb(204, 120, 188); fill-opacity: 1; stroke-width: 0; opacity: 1;"/><path class="sankey-link" d="M20,172.84924703270005C270,172.84924703270005 270,299.6237875576978 520,299.6237875576978L520,299.62420479340335C270,299.62420479340335 270,172.84966426840558 20,172.84966426840558Z" style="stroke: rgb(202, 145, 97); stroke-opacity: 1; fill: rgb(202, 145, 97); fill-opacity: 1; stroke-width: 1; opacity: 1;"/><path class="sankey-link" d="M20,172.8173217052268C270,172.8173217052268 270,83.10462991236459 520,83.10462991236459L520,83.1052175220464C270,83.1052175220464 270,172.8179093149086 20,172.8179093149086Z" style="stroke: rgb(202, 145, 97); stroke-opacity: 1; fill: rgb(202, 145, 97); fill-opacity: 1; stroke-width: 1; opacity: 1;"/><path class="sankey-link" d="M20,172.80744239840297C270,172.80744239840297 270,52.273231334277504 520,52.273231334277504L520,52.283110641101324C270,52.283110641101324 270,172.81732170522676 20,172.81732170522676Z" style="stroke: rgb(202, 145, 97); stroke-opacity: 1; fill: rgb(202, 145, 97); fill-opacity: 1; stroke-width: 1; opacity: 1;"/><path class="sankey-link" d="M20,172.84197146530508C270,172.84197146530508 270,214.13814848473686 520,214.13814848473686L520,214.1424134749646C270,214.1424134749646 270,172.84623645553282 20,172.84623645553282Z" style="stroke: rgb(202, 145, 97); stroke-opacity: 1; fill: rgb(202, 145, 97); fill-opacity: 1; stroke-width: 1; opacity: 1;"/><path class="sankey-link" d="M20,172.84966426840558C270,172.84966426840558 270,318.3931776358435 520,318.3931776358435L520,318.3935536710226C270,318.3935536710226 270,172.85004030358468 20,172.85004030358468Z" style="stroke: rgb(202, 145, 97); stroke-opacity: 1; fill: rgb(202, 145, 97); fill-opacity: 1; stroke-width: 1; opacity: 1;"/><path class="sankey-link" d="M20,172.8179093149086C270,172.8179093149086 270,109.1541544326068 520,109.1541544326068L520,109.16370950336211C270,109.16370950336211 270,172.82746438566392 20,172.82746438566392Z" style="stroke: rgb(202, 145, 97); stroke-opacity: 1; fill: rgb(202, 145, 97); fill-opacity: 1; stroke-width: 1; opacity: 1;"/><path class="sankey-link" d="M20,172.8463837425244C270,172.8463837425244 270,257.2366078839264 520,257.2366078839264L520,257.2381352624497C270,257.2381352624497 270,172.8479111210477 20,172.8479111210477Z" style="stroke: rgb(202, 145, 97); stroke-opacity: 1; fill: rgb(202, 145, 97); fill-opacity: 1; stroke-width: 1; opacity: 1;"/><path class="sankey-link" d="M20,172.8479111210477C270,172.8479111210477 270,279.00603663814246 520,279.00603663814246L520,279.00737254979487C270,279.00737254979487 270,172.84924703270005 20,172.84924703270005Z" style="stroke: rgb(202, 145, 97); stroke-opacity: 1; fill: rgb(202, 145, 97); fill-opacity: 1; stroke-width: 1; opacity: 1;"/><path class="sankey-link" d="M20,172.82746438566392C270,172.82746438566392 270,133.84545242503097 520,133.84545242503097L520,133.84827419775175C270,133.84827419775175 270,172.8302861583847 20,172.8302861583847Z" style="stroke: rgb(202, 145, 97); stroke-opacity: 1; fill: rgb(202, 145, 97); fill-opacity: 1; stroke-width: 1; opacity: 1;"/><path class="sankey-link" d="M20,172.84623645553282C270,172.84623645553282 270,238.91294182349145 520,238.91294182349145L520,238.91308911048304C270,238.91308911048304 270,172.8463837425244 20,172.8463837425244Z" style="stroke: rgb(202, 145, 97); stroke-opacity: 1; fill: rgb(202, 145, 97); fill-opacity: 1; stroke-width: 1; opacity: 1;"/><path class="sankey-link" d="M20,172.8302861583847C270,172.8302861583847 270,173.39897630080822 520,173.39897630080822L520,173.41066160772863C270,173.41066160772863 270,172.8419714653051 20,172.8419714653051Z" style="stroke: rgb(202, 145, 97); stroke-opacity: 1; fill: rgb(202, 145, 97); fill-opacity: 1; stroke-width: 1; opacity: 1;"/><path class="sankey-link" d="M20,213.24424273720092C270,213.24424273720092 270,299.62420479340335 520,299.62420479340335L520,299.9481218102875C270,299.9481218102875 270,213.56815975408506 20,213.56815975408506Z" style="stroke: rgb(251, 175, 228); stroke-opacity: 1; fill: rgb(251, 175, 228); fill-opacity: 1; stroke-width: 1; opacity: 1;"/><path class="sankey-link" d="M20,193.8289153886583C270,193.8289153886583 270,83.10521752204642 520,83.10521752204642L520,83.37422083301578C270,83.37422083301578 270,194.09791869962766 20,194.09791869962766Z" style="stroke: rgb(251, 175, 228); stroke-opacity: 1; fill: rgb(251, 175, 228); fill-opacity: 1; stroke-width: 1; opacity: 1;"/><path class="sankey-link" d="M20,187.85004030358468C270,187.85004030358468 270,52.28311064110132 520,52.28311064110132L520,58.26198572617493C270,58.26198572617493 270,193.82891538865826 20,193.82891538865826Z" style="stroke: rgb(68, 68, 68); stroke-opacity: 1; fill: rgb(251, 175, 228); fill-opacity: 1; stroke-width: 0; opacity: 1;"/><path class="sankey-link" d="M20,203.45879000263926C270,203.45879000263926 270,214.1424134749646 520,214.1424134749646L520,217.80407730110227C270,217.80407730110227 270,207.12045382877693 20,207.12045382877693Z" style="stroke: rgb(68, 68, 68); stroke-opacity: 1; fill: rgb(251, 175, 228); fill-opacity: 1; stroke-width: 0; opacity: 1;"/><path class="sankey-link" d="M20,213.56815975408506C270,213.56815975408506 270,318.3935536710226 520,318.3935536710226L520,318.56939911830125C270,318.56939911830125 270,213.74400520136373 20,213.74400520136373Z" style="stroke: rgb(251, 175, 228); stroke-opacity: 1; fill: rgb(251, 175, 228); fill-opacity: 1; stroke-width: 1; opacity: 1;"/><path class="sankey-link" d="M20,194.09791869962766C270,194.09791869962766 270,109.16370950336213 520,109.16370950336213L520,111.36318511947007C270,111.36318511947007 270,196.29739431573557 20,196.29739431573557Z" style="stroke: rgb(68, 68, 68); stroke-opacity: 1; fill: rgb(251, 175, 228); fill-opacity: 1; stroke-width: 0; opacity: 1;"/><path class="sankey-link" d="M20,207.19395238663083C270,207.19395238663083 270,257.2381352624497 520,257.2381352624497L520,260.77480725987624C270,260.77480725987624 270,210.73062438405742 20,210.73062438405742Z" style="stroke: rgb(68, 68, 68); stroke-opacity: 1; fill: rgb(251, 175, 228); fill-opacity: 1; stroke-width: 0; opacity: 1;"/><path class="sankey-link" d="M20,210.7306243840574C270,210.7306243840574 270,279.0073725497948 520,279.0073725497948L520,281.52099090293837C270,281.52099090293837 270,213.2442427372009 20,213.2442427372009Z" style="stroke: rgb(68, 68, 68); stroke-opacity: 1; fill: rgb(251, 175, 228); fill-opacity: 1; stroke-width: 0; opacity: 1;"/><path class="sankey-link" d="M20,196.2973943157356C270,196.2973943157356 270,133.84827419775175 520,133.84827419775175L520,135.0172823183232C270,135.0172823183232 270,197.46640243630705 20,197.46640243630705Z" style="stroke: rgb(68, 68, 68); stroke-opacity: 1; fill: rgb(251, 175, 228); fill-opacity: 1; stroke-width: 0; opacity: 1;"/><path class="sankey-link" d="M20,207.1204538287769C270,207.1204538287769 270,238.91308911048304 520,238.91308911048304L520,238.986587668337C270,238.986587668337 270,207.19395238663085 20,207.19395238663085Z" style="stroke: rgb(251, 175, 228); stroke-opacity: 1; fill: rgb(251, 175, 228); fill-opacity: 1; stroke-width: 1; opacity: 1;"/><path class="sankey-link" d="M20,197.46640243630705C270,197.46640243630705 270,173.4106616077286 520,173.4106616077286L520,179.40304917406084C270,179.40304917406084 270,203.4587900026393 20,203.4587900026393Z" style="stroke: rgb(68, 68, 68); stroke-opacity: 1; fill: rgb(251, 175, 228); fill-opacity: 1; stroke-width: 0; opacity: 1;"/><path class="sankey-link" d="M20,254.11201901163435C270,254.11201901163435 270,299.99183857647097 520,299.99183857647097L520,300.0567091089922C270,300.0567091089922 270,254.17688954415553 20,254.17688954415553Z" style="stroke: rgb(148, 148, 148); stroke-opacity: 1; fill: rgb(148, 148, 148); fill-opacity: 1; stroke-width: 1; opacity: 1;"/><path class="sankey-link" d="M20,251.68781653406828C270,251.68781653406828 270,83.42005704291634 520,83.42005704291634L520,83.45362401447758C270,83.45362401447758 270,251.72138350562952 20,251.72138350562952Z" style="stroke: rgb(148, 148, 148); stroke-opacity: 1; fill: rgb(148, 148, 148); fill-opacity: 1; stroke-width: 1; opacity: 1;"/><path class="sankey-link" d="M20,250.84483992053632C270,250.84483992053632 270,59.149418826360055 520,59.149418826360055L520,59.992395439892C270,59.992395439892 270,251.68781653406828 20,251.68781653406828Z" style="stroke: rgb(148, 148, 148); stroke-opacity: 1; fill: rgb(148, 148, 148); fill-opacity: 1; stroke-width: 1; opacity: 1;"/><path class="sankey-link" d="M20,252.8921790524885C270,252.8921790524885 270,218.60804568668337 520,218.60804568668337L520,219.27795087617844C270,219.27795087617844 270,253.56208424198357 20,253.56208424198357Z" style="stroke: rgb(148, 148, 148); stroke-opacity: 1; fill: rgb(148, 148, 148); fill-opacity: 1; stroke-width: 1; opacity: 1;"/><path class="sankey-link" d="M20,254.17688954415553C270,254.17688954415553 270,318.5928690775001 520,318.5928690775001L520,318.681621054246C270,318.681621054246 270,254.2656415209014 20,254.2656415209014Z" style="stroke: rgb(148, 148, 148); stroke-opacity: 1; fill: rgb(148, 148, 148); fill-opacity: 1; stroke-width: 1; opacity: 1;"/><path class="sankey-link" d="M20,251.72138350562952C270,251.72138350562952 270,111.6868725249943 520,111.6868725249943L520,111.87466784828626C270,111.87466784828626 270,251.90917882892145 20,251.90917882892145Z" style="stroke: rgb(148, 148, 148); stroke-opacity: 1; fill: rgb(148, 148, 148); fill-opacity: 1; stroke-width: 1; opacity: 1;"/><path class="sankey-link" d="M20,253.56914008208378C270,253.56914008208378 270,261.1039019596663 520,261.1039019596663L520,261.18430585071866C270,261.18430585071866 270,253.6495439731362 20,253.6495439731362Z" style="stroke: rgb(148, 148, 148); stroke-opacity: 1; fill: rgb(148, 148, 148); fill-opacity: 1; stroke-width: 1; opacity: 1;"/><path class="sankey-link" d="M20,253.64954397313616C270,253.64954397313616 270,281.6379614718396 520,281.6379614718396L520,282.1004365103378C270,282.1004365103378 270,254.11201901163432 20,254.11201901163432Z" style="stroke: rgb(148, 148, 148); stroke-opacity: 1; fill: rgb(148, 148, 148); fill-opacity: 1; stroke-width: 1; opacity: 1;"/><path class="sankey-link" d="M20,251.90917882892148C270,251.90917882892148 270,135.1948830881107 520,135.1948830881107L520,135.41909175929112C270,135.41909175929112 270,252.1333875001019 20,252.1333875001019Z" style="stroke: rgb(148, 148, 148); stroke-opacity: 1; fill: rgb(148, 148, 148); fill-opacity: 1; stroke-width: 1; opacity: 1;"/><path class="sankey-link" d="M20,253.56208424198357C270,253.56208424198357 270,238.99778572973867 520,238.99778572973867L520,239.00484156983885C270,239.00484156983885 270,253.56914008208375 20,253.56914008208375Z" style="stroke: rgb(148, 148, 148); stroke-opacity: 1; fill: rgb(148, 148, 148); fill-opacity: 1; stroke-width: 1; opacity: 1;"/><path class="sankey-link" d="M20,252.1333875001019C270,252.1333875001019 270,183.74090796677967 520,183.74090796677967L520,184.4996995191663C270,184.4996995191663 270,252.89217905248853 20,252.89217905248853Z" style="stroke: rgb(148, 148, 148); stroke-opacity: 1; fill: rgb(148, 148, 148); fill-opacity: 1; stroke-width: 1; opacity: 1;"/><path class="sankey-link" d="M20,157.71345950621665C270,157.71345950621665 270,299.5660979513689 520,299.5660979513689L520,299.6237875576978C270,299.6237875576978 270,157.7711491125456 20,157.7711491125456Z" style="stroke: rgb(236, 225, 51); stroke-opacity: 1; fill: rgb(236, 225, 51); fill-opacity: 1; stroke-width: 1; opacity: 1;"/><path class="sankey-link" d="M20,154.59535006486584C270,154.59535006486584 270,83.02419938949357 520,83.02419938949357L520,83.10462991236459C270,83.10462991236459 270,154.67578058773682 20,154.67578058773682Z" style="stroke: rgb(236, 225, 51); stroke-opacity: 1; fill: rgb(236, 225, 51); fill-opacity: 1; stroke-width: 1; opacity: 1;"/><path class="sankey-link" d="M20,152.91311177957348C270,152.91311177957348 270,50.59099304898514 520,50.59099304898514L520,52.2732313342775C270,52.2732313342775 270,154.59535006486587 20,154.59535006486587Z" style="stroke: rgb(68, 68, 68); stroke-opacity: 1; fill: rgb(236, 225, 51); fill-opacity: 1; stroke-width: 0; opacity: 1;"/><path class="sankey-link" d="M20,156.4459514746616C270,156.4459514746616 270,213.47510008214428 520,213.47510008214428L520,214.13814848473683C270,214.13814848473683 270,157.10899987725415 20,157.10899987725415Z" style="stroke: rgb(236, 225, 51); stroke-opacity: 1; fill: rgb(236, 225, 51); fill-opacity: 1; stroke-width: 1; opacity: 1;"/><path class="sankey-link" d="M20,157.7711491125456C270,157.7711491125456 270,318.35688434998605 520,318.35688434998605L520,318.3931776358434C270,318.3931776358434 270,157.80744239840303 20,157.80744239840303Z" style="stroke: rgb(236, 225, 51); stroke-opacity: 1; fill: rgb(236, 225, 51); fill-opacity: 1; stroke-width: 1; opacity: 1;"/><path class="sankey-link" d="M20,154.67578058773685C270,154.67578058773685 270,108.75636745691898 520,108.75636745691898L520,109.15415443260679C270,109.15415443260679 270,155.0735675634247 20,155.0735675634247Z" style="stroke: rgb(236, 225, 51); stroke-opacity: 1; fill: rgb(236, 225, 51); fill-opacity: 1; stroke-width: 1; opacity: 1;"/><path class="sankey-link" d="M20,157.4386805623825C270,157.4386805623825 270,257.0937433133179 520,257.0937433133179L520,257.23660788392635C270,257.23660788392635 270,157.58154513299104 20,157.58154513299104Z" style="stroke: rgb(236, 225, 51); stroke-opacity: 1; fill: rgb(236, 225, 51); fill-opacity: 1; stroke-width: 1; opacity: 1;"/><path class="sankey-link" d="M20,157.58154513299104C270,157.58154513299104 270,278.8741222649169 520,278.8741222649169L520,279.0060366381425C270,279.0060366381425 270,157.71345950621662 20,157.71345950621662Z" style="stroke: rgb(236, 225, 51); stroke-opacity: 1; fill: rgb(236, 225, 51); fill-opacity: 1; stroke-width: 1; opacity: 1;"/><path class="sankey-link" d="M20,155.07356756342466C270,155.07356756342466 270,133.49885792599036 520,133.49885792599036L520,133.84545242503094C270,133.84545242503094 270,155.42016206246524 20,155.42016206246524Z" style="stroke: rgb(236, 225, 51); stroke-opacity: 1; fill: rgb(236, 225, 51); fill-opacity: 1; stroke-width: 1; opacity: 1;"/><path class="sankey-link" d="M20,157.10899987725418C270,157.10899987725418 270,238.58326113836313 520,238.58326113836313L520,238.91294182349145C270,238.91294182349145 270,157.4386805623825 20,157.4386805623825Z" style="stroke: rgb(236, 225, 51); stroke-opacity: 1; fill: rgb(236, 225, 51); fill-opacity: 1; stroke-width: 1; opacity: 1;"/><path class="sankey-link" d="M20,155.42016206246527C270,155.42016206246527 270,172.37318688861188 520,172.37318688861188L520,173.39897630080822C270,173.39897630080822 270,156.4459514746616 20,156.4459514746616Z" style="stroke: rgb(68, 68, 68); stroke-opacity: 1; fill: rgb(236, 225, 51); fill-opacity: 1; stroke-width: 0; opacity: 1;"/><path class="sankey-link" d="M20,137.81570946738964C270,137.81570946738964 270,299.5029180915947 520,299.5029180915947L520,299.5660979513688C270,299.5660979513688 270,137.8788893271638 20,137.8788893271638Z" style="stroke: rgb(86, 180, 233); stroke-opacity: 1; fill: rgb(86, 180, 233); fill-opacity: 1; stroke-width: 1; opacity: 1;"/><path class="sankey-link" d="M20,135.10953886545911C270,135.10953886545911 270,82.96650099650596 520,82.96650099650596L520,83.02419938949357C270,83.02419938949357 270,135.16723725844673 20,135.16723725844673Z" style="stroke: rgb(86, 180, 233); stroke-opacity: 1; fill: rgb(86, 180, 233); fill-opacity: 1; stroke-width: 1; opacity: 1;"/><path class="sankey-link" d="M20,133.16825726188057C270,133.16825726188057 270,48.64971144540661 520,48.64971144540661L520,50.59099304898514C270,50.59099304898514 270,135.10953886545911 20,135.10953886545911Z" style="stroke: rgb(68, 68, 68); stroke-opacity: 1; fill: rgb(86, 180, 233); fill-opacity: 1; stroke-width: 0; opacity: 1;"/><path class="sankey-link" d="M20,136.76485520448833C270,136.76485520448833 270,212.8116197745283 520,212.8116197745283L520,213.4751000821443C270,213.4751000821443 270,137.42833551210433 20,137.42833551210433Z" style="stroke: rgb(86, 180, 233); stroke-opacity: 1; fill: rgb(86, 180, 233); fill-opacity: 1; stroke-width: 1; opacity: 1;"/><path class="sankey-link" d="M20,137.8788893271638C270,137.8788893271638 270,318.3226618975765 520,318.3226618975765L520,318.3568843499861C270,318.3568843499861 270,137.91311177957334 20,137.91311177957334Z" style="stroke: rgb(86, 180, 233); stroke-opacity: 1; fill: rgb(86, 180, 233); fill-opacity: 1; stroke-width: 1; opacity: 1;"/><path class="sankey-link" d="M20,135.16723725844673C270,135.16723725844673 270,108.50596806302683 520,108.50596806302683L520,108.75636745691897C270,108.75636745691897 270,135.4176366523389 20,135.4176366523389Z" style="stroke: rgb(86, 180, 233); stroke-opacity: 1; fill: rgb(86, 180, 233); fill-opacity: 1; stroke-width: 1; opacity: 1;"/><path class="sankey-link" d="M20,137.5295925796503C270,137.5295925796503 270,256.94366476253197 520,256.94366476253197L520,257.0937433133179C270,257.0937433133179 270,137.67967113043622 20,137.67967113043622Z" style="stroke: rgb(86, 180, 233); stroke-opacity: 1; fill: rgb(86, 180, 233); fill-opacity: 1; stroke-width: 1; opacity: 1;"/><path class="sankey-link" d="M20,137.6796711304362C270,137.6796711304362 270,278.73808392796343 520,278.73808392796343L520,278.8741222649169C270,278.8741222649169 270,137.81570946738964 20,137.81570946738964Z" style="stroke: rgb(86, 180, 233); stroke-opacity: 1; fill: rgb(86, 180, 233); fill-opacity: 1; stroke-width: 1; opacity: 1;"/><path class="sankey-link" d="M20,135.41763665233887C270,135.41763665233887 270,133.18042496284224 520,133.18042496284224L520,133.4988579259904C270,133.4988579259904 270,135.73606961548703 20,135.73606961548703Z" style="stroke: rgb(86, 180, 233); stroke-opacity: 1; fill: rgb(86, 180, 233); fill-opacity: 1; stroke-width: 1; opacity: 1;"/><path class="sankey-link" d="M20,137.4283355121043C270,137.4283355121043 270,238.4820040708171 520,238.4820040708171L520,238.5832611383631C270,238.5832611383631 270,137.52959257965028 20,137.52959257965028Z" style="stroke: rgb(86, 180, 233); stroke-opacity: 1; fill: rgb(86, 180, 233); fill-opacity: 1; stroke-width: 1; opacity: 1;"/><path class="sankey-link" d="M20,135.736069615487C270,135.736069615487 270,171.34440129961055 520,171.34440129961055L520,172.3731868886119C270,172.3731868886119 270,136.76485520448836 20,136.76485520448836Z" style="stroke: rgb(68, 68, 68); stroke-opacity: 1; fill: rgb(86, 180, 233); fill-opacity: 1; stroke-width: 0; opacity: 1;"/><path class="sankey-link" d="M20,235.77765319515402C270,235.77765319515402 270,299.9481218102875 520,299.9481218102875L520,299.99183857647097C270,299.99183857647097 270,235.8213699613375 20,235.8213699613375Z" style="stroke: rgb(128, 128, 0); stroke-opacity: 1; fill: rgb(128, 128, 0); fill-opacity: 1; stroke-width: 1; opacity: 1;"/><path class="sankey-link" d="M20,229.63143830154868C270,229.63143830154868 270,83.37422083301577 520,83.37422083301577L520,83.42005704291635C270,83.42005704291635 270,229.67727451144927 20,229.67727451144927Z" style="stroke: rgb(128, 128, 0); stroke-opacity: 1; fill: rgb(128, 128, 0); fill-opacity: 1; stroke-width: 1; opacity: 1;"/><path class="sankey-link" d="M20,228.74400520136354C270,228.74400520136354 270,58.26198572617492 520,58.26198572617492L520,59.149418826360055C270,59.149418826360055 270,229.63143830154868 20,229.63143830154868Z" style="stroke: rgb(128, 128, 0); stroke-opacity: 1; fill: rgb(128, 128, 0); fill-opacity: 1; stroke-width: 1; opacity: 1;"/><path class="sankey-link" d="M20,234.51642147947987C270,234.51642147947987 270,217.80407730110224 520,217.80407730110224L520,218.60804568668337C270,218.60804568668337 270,235.320389865061 20,235.320389865061Z" style="stroke: rgb(128, 128, 0); stroke-opacity: 1; fill: rgb(128, 128, 0); fill-opacity: 1; stroke-width: 1; opacity: 1;"/><path class="sankey-link" d="M20,235.82136996133747C270,235.82136996133747 270,318.56939911830125 520,318.56939911830125L520,318.59286907750004C270,318.59286907750004 270,235.84483992053632 20,235.84483992053632Z" style="stroke: rgb(128, 128, 0); stroke-opacity: 1; fill: rgb(128, 128, 0); fill-opacity: 1; stroke-width: 1; opacity: 1;"/><path class="sankey-link" d="M20,229.67727451144927C270,229.67727451144927 270,111.36318511947007 520,111.36318511947007L520,111.6868725249943C270,111.6868725249943 270,230.00096191697352 20,230.00096191697352Z" style="stroke: rgb(128, 128, 0); stroke-opacity: 1; fill: rgb(128, 128, 0); fill-opacity: 1; stroke-width: 1; opacity: 1;"/><path class="sankey-link" d="M20,235.3315879264627C270,235.3315879264627 270,260.7748072598763 520,260.7748072598763L520,261.10390195966636C270,261.10390195966636 270,235.6606826262527 20,235.6606826262527Z" style="stroke: rgb(128, 128, 0); stroke-opacity: 1; fill: rgb(128, 128, 0); fill-opacity: 1; stroke-width: 1; opacity: 1;"/><path class="sankey-link" d="M20,235.66068262625274C270,235.66068262625274 270,281.5209909029383 520,281.5209909029383L520,281.63796147183956C270,281.63796147183956 270,235.77765319515404 20,235.77765319515404Z" style="stroke: rgb(128, 128, 0); stroke-opacity: 1; fill: rgb(128, 128, 0); fill-opacity: 1; stroke-width: 1; opacity: 1;"/><path class="sankey-link" d="M20,230.0009619169735C270,230.0009619169735 270,135.0172823183232 520,135.0172823183232L520,135.19488308811069C270,135.19488308811069 270,230.17856268676098 20,230.17856268676098Z" style="stroke: rgb(128, 128, 0); stroke-opacity: 1; fill: rgb(128, 128, 0); fill-opacity: 1; stroke-width: 1; opacity: 1;"/><path class="sankey-link" d="M20,235.320389865061C270,235.320389865061 270,238.98658766833697 520,238.98658766833697L520,238.99778572973864C270,238.99778572973864 270,235.33158792646267 20,235.33158792646267Z" style="stroke: rgb(128, 128, 0); stroke-opacity: 1; fill: rgb(128, 128, 0); fill-opacity: 1; stroke-width: 1; opacity: 1;"/><path class="sankey-link" d="M20,230.178562686761C270,230.178562686761 270,179.4030491740608 520,179.4030491740608L520,183.74090796677967C270,183.74090796677967 270,234.51642147947987 20,234.51642147947987Z" style="stroke: rgb(68, 68, 68); stroke-opacity: 1; fill: rgb(128, 128, 0); fill-opacity: 1; stroke-width: 0; opacity: 1;"/></g><g class="sankey-node-set" style="cursor: move;"><g class="sankey-node" transform="translate(0.000,292.381)" style="opacity: 1;"><rect class="node-rect" width="20" height="6.840673608113548" style="stroke-width: 0.5; stroke: rgb(0, 0, 0); stroke-opacity: 1; fill: rgb(211, 211, 211); fill-opacity: 1;"/><text class="node-label" data-notex="1" x="0" y="0" text-anchor="start" transform="translate(23.25,7.620336804056773)" style="cursor: default; font-family: 'Open Sans', verdana, arial, sans-serif; font-size: 12px; fill: rgb(42, 63, 95); fill-opacity: 1; white-space: pre; text-shadow: white 1px 1px 1px, white -1px -1px 1px, white 1px -1px 1px, white -1px 1px 1px;">Africa (4 Mt)</text></g><g class="sankey-node" transform="translate(0.000,79.616)" style="opacity: 1;"><rect class="node-rect" width="20" height="38.55244691859686" style="stroke-width: 0.5; stroke: rgb(0, 0, 0); stroke-opacity: 1; fill: rgb(211, 211, 211); fill-opacity: 1;"/><text class="node-label" data-notex="1" x="0" y="0" text-anchor="start" transform="translate(23.25,23.476223459298428)" style="cursor: default; font-family: 'Open Sans', verdana, arial, sans-serif; font-size: 12px; fill: rgb(42, 63, 95); fill-opacity: 1; white-space: pre; text-shadow: white 1px 1px 1px, white -1px -1px 1px, white 1px -1px 1px, white -1px 1px 1px;">Australia (23 Mt)</text></g><g class="sankey-node" transform="translate(0.000,0.000)" style="opacity: 1;"><rect class="node-rect" width="20" height="64.61581034328371" style="stroke-width: 0.5; stroke: rgb(0, 0, 0); stroke-opacity: 1; fill: rgb(211, 211, 211); fill-opacity: 1;"/><text class="node-label" data-notex="1" x="0" y="0" text-anchor="start" transform="translate(23.25,36.50790517164185)" style="cursor: default; font-family: 'Open Sans', verdana, arial, sans-serif; font-size: 12px; fill: rgb(42, 63, 95); fill-opacity: 1; white-space: pre; text-shadow: white 1px 1px 1px, white -1px -1px 1px, white 1px -1px 1px, white -1px 1px 1px;">China (39 Mt)</text></g><g class="sankey-node" transform="translate(0.000,269.266)" style="opacity: 1;"><rect class="node-rect" width="20" height="8.114958727535395" style="stroke-width: 0.5; stroke: rgb(0, 0, 0); stroke-opacity: 1; fill: rgb(211, 211, 211); fill-opacity: 1;"/><text class="node-label" data-notex="1" x="0" y="0" text-anchor="start" transform="translate(23.25,8.257479363767697)" style="cursor: default; font-family: 'Open Sans', verdana, arial, sans-serif; font-size: 12px; fill: rgb(42, 63, 95); fill-opacity: 1; white-space: pre; text-shadow: white 1px 1px 1px, white -1px -1px 1px, white 1px -1px 1px, white -1px 1px 1px;">Europe (4 Mt)</text></g><g class="sankey-node" transform="translate(0.000,314.221)" style="opacity: 1;"><rect class="node-rect" width="20" height="5.77872614344966" style="stroke-width: 0.5; stroke: rgb(0, 0, 0); stroke-opacity: 1; fill: rgb(211, 211, 211); fill-opacity: 1;"/><text class="node-label" data-notex="1" x="0" y="0" text-anchor="start" transform="translate(23.25,7.089363071724829)" style="cursor: default; font-family: 'Open Sans', verdana, arial, sans-serif; font-size: 12px; fill: rgb(42, 63, 95); fill-opacity: 1; white-space: pre; text-shadow: white 1px 1px 1px, white -1px -1px 1px, white 1px -1px 1px, white -1px 1px 1px;">India (3 Mt)</text></g><g class="sankey-node" transform="translate(0.000,172.807)" style="opacity: 1;"><rect class="node-rect" width="20" height="0.5" style="stroke-width: 0.5; stroke: rgb(0, 0, 0); stroke-opacity: 1; fill: rgb(211, 211, 211); fill-opacity: 1;"/><text class="node-label" data-notex="1" x="0" y="0" text-anchor="start" transform="translate(23.25,4.449999999999999)" style="cursor: default; font-family: 'Open Sans', verdana, arial, sans-serif; font-size: 12px; fill: rgb(42, 63, 95); fill-opacity: 1; white-space: pre; text-shadow: white 1px 1px 1px, white -1px -1px 1px, white 1px -1px 1px, white -1px 1px 1px;">Japan and Korea (0 Mt)</text></g><g class="sankey-node" transform="translate(0.000,187.850)" style="opacity: 1;"><rect class="node-rect" width="20" height="25.893964897778858" style="stroke-width: 0.5; stroke: rgb(0, 0, 0); stroke-opacity: 1; fill: rgb(211, 211, 211); fill-opacity: 1;"/><text class="node-label" data-notex="1" x="0" y="0" text-anchor="start" transform="translate(23.25,17.14698244888943)" style="cursor: default; font-family: 'Open Sans', verdana, arial, sans-serif; font-size: 12px; fill: rgb(42, 63, 95); fill-opacity: 1; white-space: pre; text-shadow: white 1px 1px 1px, white -1px -1px 1px, white 1px -1px 1px, white -1px 1px 1px;">Latin America (15 Mt)</text></g><g class="sankey-node" transform="translate(0.000,250.845)" style="opacity: 1;"><rect class="node-rect" width="20" height="3.4208016003650528" style="stroke-width: 0.5; stroke: rgb(0, 0, 0); stroke-opacity: 1; fill: rgb(211, 211, 211); fill-opacity: 1;"/><text class="node-label" data-notex="1" x="0" y="0" text-anchor="start" transform="translate(23.25,5.910400800182526)" style="cursor: default; font-family: 'Open Sans', verdana, arial, sans-serif; font-size: 12px; fill: rgb(42, 63, 95); fill-opacity: 1; white-space: pre; text-shadow: white 1px 1px 1px, white -1px -1px 1px, white 1px -1px 1px, white -1px 1px 1px;">Middle East (2 Mt)</text></g><g class="sankey-node" transform="translate(0.000,152.913)" style="opacity: 1;"><rect class="node-rect" width="20" height="4.8943306188294855" style="stroke-width: 0.5; stroke: rgb(0, 0, 0); stroke-opacity: 1; fill: rgb(211, 211, 211); fill-opacity: 1;"/><text class="node-label" data-notex="1" x="0" y="0" text-anchor="start" transform="translate(23.25,6.647165309414742)" style="cursor: default; font-family: 'Open Sans', verdana, arial, sans-serif; font-size: 12px; fill: rgb(42, 63, 95); fill-opacity: 1; white-space: pre; text-shadow: white 1px 1px 1px, white -1px -1px 1px, white 1px -1px 1px, white -1px 1px 1px;">Rest of Asia (2 Mt)</text></g><g class="sankey-node" transform="translate(0.000,133.168)" style="opacity: 1;"><rect class="node-rect" width="20" height="4.744854517692914" style="stroke-width: 0.5; stroke: rgb(0, 0, 0); stroke-opacity: 1; fill: rgb(211, 211, 211); fill-opacity: 1;"/><text class="node-label" data-notex="1" x="0" y="0" text-anchor="start" transform="translate(23.25,6.5724272588464565)" style="cursor: default; font-family: 'Open Sans', verdana, arial, sans-serif; font-size: 12px; fill: rgb(42, 63, 95); fill-opacity: 1; white-space: pre; text-shadow: white 1px 1px 1px, white -1px -1px 1px, white 1px -1px 1px, white -1px 1px 1px;">Russia (2 Mt)</text></g><g class="sankey-node" transform="translate(0.000,228.744)" style="opacity: 1;"><rect class="node-rect" width="20" height="7.100834719172781" style="stroke-width: 0.5; stroke: rgb(0, 0, 0); stroke-opacity: 1; fill: rgb(211, 211, 211); fill-opacity: 1;"/><text class="node-label" data-notex="1" x="0" y="0" text-anchor="start" transform="translate(23.25,7.75041735958639)" style="cursor: default; font-family: 'Open Sans', verdana, arial, sans-serif; font-size: 12px; fill: rgb(42, 63, 95); fill-opacity: 1; white-space: pre; text-shadow: white 1px 1px 1px, white -1px -1px 1px, white 1px -1px 1px, white -1px 1px 1px;">USA and Canada (4 Mt)</text></g><g class="sankey-node" transform="translate(520.000,298.564)" style="opacity: 1;"><rect class="node-rect" width="20" height="4.141730076790793" style="stroke-width: 0.5; stroke: rgb(0, 0, 0); stroke-opacity: 1; fill: rgb(211, 211, 211); fill-opacity: 1;"/><text class="node-label" data-notex="1" x="0" y="0" text-anchor="end" transform="translate(-3.25,6.270865038395396)" style="cursor: default; font-family: 'Open Sans', verdana, arial, sans-serif; font-size: 12px; fill: rgb(42, 63, 95); fill-opacity: 1; white-space: pre; text-shadow: white 1px 1px 1px, white -1px -1px 1px, white 1px -1px 1px, white -1px 1px 1px;">Africa (2 Mt)</text></g><g class="sankey-node" transform="translate(520.000,78.906)" style="opacity: 1;"><rect class="node-rect" width="20" height="4.785047242604065" style="stroke-width: 0.5; stroke: rgb(0, 0, 0); stroke-opacity: 1; fill: rgb(211, 211, 211); fill-opacity: 1;"/><text class="node-label" data-notex="1" x="0" y="0" text-anchor="end" transform="translate(-3.25,6.592523621302032)" style="cursor: default; font-family: 'Open Sans', verdana, arial, sans-serif; font-size: 12px; fill: rgb(42, 63, 95); fill-opacity: 1; white-space: pre; text-shadow: white 1px 1px 1px, white -1px -1px 1px, white 1px -1px 1px, white -1px 1px 1px;">Australia (2 Mt)</text></g><g class="sankey-node" transform="translate(520.000,0.000)" style="opacity: 1;"><rect class="node-rect" width="20" height="63.906435481619674" style="stroke-width: 0.5; stroke: rgb(0, 0, 0); stroke-opacity: 1; fill: rgb(211, 211, 211); fill-opacity: 1;"/><text class="node-label" data-notex="1" x="0" y="0" text-anchor="end" transform="translate(-3.25,36.153217740809836)" style="cursor: default; font-family: 'Open Sans', verdana, arial, sans-serif; font-size: 12px; fill: rgb(42, 63, 95); fill-opacity: 1; white-space: pre; text-shadow: white 1px 1px 1px, white -1px -1px 1px, white 1px -1px 1px, white -1px 1px 1px;">China (38 Mt)</text></g><g class="sankey-node" transform="translate(520.000,203.975)" style="opacity: 1;"><rect class="node-rect" width="20" height="19.253502664184083" style="stroke-width: 0.5; stroke: rgb(0, 0, 0); stroke-opacity: 1; fill: rgb(211, 211, 211); fill-opacity: 1;"/><text class="node-label" data-notex="1" x="0" y="0" text-anchor="end" transform="translate(-3.25,13.82675133209204)" style="cursor: default; font-family: 'Open Sans', verdana, arial, sans-serif; font-size: 12px; fill: rgb(42, 63, 95); fill-opacity: 1; white-space: pre; text-shadow: white 1px 1px 1px, white -1px -1px 1px, white 1px -1px 1px, white -1px 1px 1px;">Europe (11 Mt)</text></g><g class="sankey-node" transform="translate(520.000,317.706)" style="opacity: 1;"><rect class="node-rect" width="20" height="2.294131684265608" style="stroke-width: 0.5; stroke: rgb(0, 0, 0); stroke-opacity: 1; fill: rgb(211, 211, 211); fill-opacity: 1;"/><text class="node-label" data-notex="1" x="0" y="0" text-anchor="end" transform="translate(-3.25,5.347065842132803)" style="cursor: default; font-family: 'Open Sans', verdana, arial, sans-serif; font-size: 12px; fill: rgb(42, 63, 95); fill-opacity: 1; white-space: pre; text-shadow: white 1px 1px 1px, white -1px -1px 1px, white 1px -1px 1px, white -1px 1px 1px;">India (1 Mt)</text></g><g class="sankey-node" transform="translate(520.000,98.691)" style="opacity: 1;"><rect class="node-rect" width="20" height="14.171867507840915" style="stroke-width: 0.5; stroke: rgb(0, 0, 0); stroke-opacity: 1; fill: rgb(211, 211, 211); fill-opacity: 1;"/><text class="node-label" data-notex="1" x="0" y="0" text-anchor="end" transform="translate(-3.25,11.285933753920457)" style="cursor: default; font-family: 'Open Sans', verdana, arial, sans-serif; font-size: 12px; fill: rgb(42, 63, 95); fill-opacity: 1; white-space: pre; text-shadow: white 1px 1px 1px, white -1px -1px 1px, white 1px -1px 1px, white -1px 1px 1px;">Japan and Korea (8 Mt)</text></g><g class="sankey-node" transform="translate(520.000,254.107)" style="opacity: 1;"><rect class="node-rect" width="20" height="7.6595484101002285" style="stroke-width: 0.5; stroke: rgb(0, 0, 0); stroke-opacity: 1; fill: rgb(211, 211, 211); fill-opacity: 1;"/><text class="node-label" data-notex="1" x="0" y="0" text-anchor="end" transform="translate(-3.25,8.029774205050114)" style="cursor: default; font-family: 'Open Sans', verdana, arial, sans-serif; font-size: 12px; fill: rgb(42, 63, 95); fill-opacity: 1; white-space: pre; text-shadow: white 1px 1px 1px, white -1px -1px 1px, white 1px -1px 1px, white -1px 1px 1px;">Latin America (4 Mt)</text></g><g class="sankey-node" transform="translate(520.000,276.766)" style="opacity: 1;"><rect class="node-rect" width="20" height="6.797701822997851" style="stroke-width: 0.5; stroke: rgb(0, 0, 0); stroke-opacity: 1; fill: rgb(211, 211, 211); fill-opacity: 1;"/><text class="node-label" data-notex="1" x="0" y="0" text-anchor="end" transform="translate(-3.25,7.598850911498925)" style="cursor: default; font-family: 'Open Sans', verdana, arial, sans-serif; font-size: 12px; fill: rgb(42, 63, 95); fill-opacity: 1; white-space: pre; text-shadow: white 1px 1px 1px, white -1px -1px 1px, white 1px -1px 1px, white -1px 1px 1px;">Middle East (4 Mt)</text></g><g class="sankey-node" transform="translate(520.000,127.863)" style="opacity: 1;"><rect class="node-rect" width="20" height="8.607893796149227" style="stroke-width: 0.5; stroke: rgb(0, 0, 0); stroke-opacity: 1; fill: rgb(211, 211, 211); fill-opacity: 1;"/><text class="node-label" data-notex="1" x="0" y="0" text-anchor="end" transform="translate(-3.25,8.503946898074613)" style="cursor: default; font-family: 'Open Sans', verdana, arial, sans-serif; font-size: 12px; fill: rgb(42, 63, 95); fill-opacity: 1; white-space: pre; text-shadow: white 1px 1px 1px, white -1px -1px 1px, white 1px -1px 1px, white -1px 1px 1px;">Rest of Asia (5 Mt)</text></g><g class="sankey-node" transform="translate(520.000,238.229)" style="opacity: 1;"><rect class="node-rect" width="20" height="0.8782073797877388" style="stroke-width: 0.5; stroke: rgb(0, 0, 0); stroke-opacity: 1; fill: rgb(211, 211, 211); fill-opacity: 1;"/><text class="node-label" data-notex="1" x="0" y="0" text-anchor="end" transform="translate(-3.25,4.639103689893869)" style="cursor: default; font-family: 'Open Sans', verdana, arial, sans-serif; font-size: 12px; fill: rgb(42, 63, 95); fill-opacity: 1; white-space: pre; text-shadow: white 1px 1px 1px, white -1px -1px 1px, white 1px -1px 1px, white -1px 1px 1px;">Russia (0 Mt)</text></g><g class="sankey-node" transform="translate(520.000,151.471)" style="opacity: 1;"><rect class="node-rect" width="20" height="37.503933933659596" style="stroke-width: 0.5; stroke: rgb(0, 0, 0); stroke-opacity: 1; fill: rgb(211, 211, 211); fill-opacity: 1;"/><text class="node-label" data-notex="1" x="0" y="0" text-anchor="end" transform="translate(-3.25,22.951966966829797)" style="cursor: default; font-family: 'Open Sans', verdana, arial, sans-serif; font-size: 12px; fill: rgb(42, 63, 95); fill-opacity: 1; white-space: pre; text-shadow: white 1px 1px 1px, white -1px -1px 1px, white 1px -1px 1px, white -1px 1px 1px;">USA and Canada (22 Mt)</text></g></g></g><defs id="topdefs-e58d48"><g class="clips"/></defs><g class="layer-above"><g class="imagelayer"/><g class="shapelayer"/></g><g class="infolayer"><g class="g-gtitle"/><g class="first-render"/></g></svg>