<svg class="main-svg" xmlns="http://www.w3.org/2000/svg" xmlns:xlink="http://www.w3.org/1999/xlink" width="700" height="500" viewBox="0 0 700 500"><rect x="0" y="0" width="700" height="500" style="fill: rgb(255, 255, 255); fill-opacity: 1;"/><defs id="defs-69986a"><g class="clips"/><g class="gradients"/><g class="patterns"/></defs><g class="bglayer"/><g class="layer-below"><g class="imagelayer"/><g class="shapelayer"/></g><g class="cartesianlayer"/><g class="polarlayer"/><g class="smithlayer"/><g class="ternarylayer"/><g class="geolayer"/><g class="funnelarealayer"/><g class="pielayer"/><g class="iciclelayer"/><g class="treemaplayer"/><g class="sunburstlayer"/><g class="glimages"/><g class="sankey" transform="translate(80,100)matrix(1 0 0 1 0 0)" style="box-sizing: content-box; position: absolute; left: 0px; shape-rendering: geometricPrecision; pointer-events: auto;"><g class="sankey-links" style="fill: none;"><path class="sankey-link" d="M20,106.8104802485652C270,106.8104802485652 270,97.72247824828635 520,97.72247824828635L520,100.87833377763137C270,100.87833377763137 270,109.96633577791022 20,109.96633577791022Z" style="stroke: rgb(68, 68, 68); stroke-opacity: 1; fill: rgb(1, 115, 178); fill-opacity: 1; stroke-width: 0; opacity: 1;"/><path class="sankey-link" d="M20,109.96633577791022C270,109.96633577791022 270,116.96702566936057 520,116.96702566936057L520,116.9897452483635C270,116.9897452483635 270,109.98905535691316 20,109.98905535691316Z" style="stroke: rgb(1, 115, 178); stroke-opacity: 1; fill: rgb(1, 115, 178); fill-opacity: 1; stroke-width: 1; opacity: 1;"/><path class="sankey-link" d="M20,106.36798607663661C270,106.36798607663661 270,73.71071322610094 520,73.71071322610094L520,74.15320739802952C270,74.15320739802952 270,106.8104802485652 20,106.8104802485652Z" style="stroke: rgb(1, 115, 178); stroke-opacity: 1; fill: rgb(1, 115, 178); fill-opacity: 1; stroke-width: 1; opacity: 1;"/><path class="sankey-link" d="M20,109.98905535691317C270,109.98905535691317 270,136.36373592309556 520,136.36373592309556L520,137.21609607254604C270,137.21609607254604 270,110.84141550636362 20,110.84141550636362Z" style="stroke: rgb(1, 115, 178); stroke-opacity: 1; fill: rgb(1, 115, 178); fill-opacity: 1; stroke-width: 1; opacity: 1;"/><path class="sankey-link" d="M20,110.84141550636362C270,110.84141550636362 270,171.87635819583838 520,171.87635819583838L520,171.9435838261687C270,171.9435838261687 270,110.9086411366939 20,110.9086411366939Z" style="stroke: rgb(1, 115, 178); stroke-opacity: 1; fill: rgb(1, 115, 178); fill-opacity: 1; stroke-width: 1; opacity: 1;"/><path class="sankey-link" d="M20,110.9086411366939C270,110.9086411366939 270,190.55452942007753 520,190.55452942007753L520,190.6814700625511C270,190.6814700625511 270,111.03558177916752 20,111.03558177916752Z" style="stroke: rgb(1, 115, 178); stroke-opacity: 1; fill: rgb(1, 115, 178); fill-opacity: 1; stroke-width: 1; opacity: 1;"/><path class="sankey-link" d="M20,111.2939627804913C270,111.2939627804913 270,259.0121410609947 520,259.0121410609947L520,259.1260076842287C270,259.1260076842287 270,111.40782940372527 20,111.40782940372527Z" style="stroke: rgb(1, 115, 178); stroke-opacity: 1; fill: rgb(1, 115, 178); fill-opacity: 1; stroke-width: 1; opacity: 1;"/><path class="sankey-link" d="M20,111.0355817791675C270,111.0355817791675 270,211.81995934026077 520,211.81995934026077L520,211.94984681656285C270,211.94984681656285 270,111.16546925546956 20,111.16546925546956Z" style="stroke: rgb(1, 115, 178); stroke-opacity: 1; fill: rgb(1, 115, 178); fill-opacity: 1; stroke-width: 1; opacity: 1;"/><path class="sankey-link" d="M20,111.16546925546956C270,111.16546925546956 270,237.42150199853413 520,237.42150199853413L520,237.54999552355585C270,237.54999552355585 270,111.29396278049128 20,111.29396278049128Z" style="stroke: rgb(1, 115, 178); stroke-opacity: 1; fill: rgb(1, 115, 178); fill-opacity: 1; stroke-width: 1; opacity: 1;"/><path class="sankey-link" d="M20,111.40782940372527C270,111.40782940372527 270,286.07975248019613 520,286.07975248019613L520,286.74419171672434C270,286.74419171672434 270,112.07226864025343 20,112.07226864025343Z" style="stroke: rgb(1, 115, 178); stroke-opacity: 1; fill: rgb(1, 115, 178); fill-opacity: 1; stroke-width: 1; opacity: 1;"/><path class="sankey-link" d="M20,127.1254592242368C270,127.1254592242368 270,100.87833377763137 520,100.87833377763137L520,100.88091792372644C270,100.88091792372644 270,127.12804337033188 20,127.12804337033188Z" style="stroke: rgb(222, 143, 5); stroke-opacity: 1; fill: rgb(222, 143, 5); fill-opacity: 1; stroke-width: 1; opacity: 1;"/><path class="sankey-link" d="M20,127.12804337033188C270,127.12804337033188 270,116.98974524836352 520,116.98974524836352L520,117.17909556053509C270,117.17909556053509 270,127.31739368250345 20,127.31739368250345Z" style="stroke: rgb(222, 143, 5); stroke-opacity: 1; fill: rgb(222, 143, 5); fill-opacity: 1; stroke-width: 1; opacity: 1;"/><path class="sankey-link" d="M20,127.07226864025351C270,127.07226864025351 270,74.15320739802952 520,74.15320739802952L520,74.20639798201283C270,74.20639798201283 270,127.12545922423682 20,127.12545922423682Z" style="stroke: rgb(222, 143, 5); stroke-opacity: 1; fill: rgb(222, 143, 5); fill-opacity: 1; stroke-width: 1; opacity: 1;"/><path class="sankey-link" d="M20,127.31739368250345C270,127.31739368250345 270,137.216096072546 520,137.216096072546L520,137.2569788423125C270,137.2569788423125 270,127.35827645226996 20,127.35827645226996Z" style="stroke: rgb(222, 143, 5); stroke-opacity: 1; fill: rgb(222, 143, 5); fill-opacity: 1; stroke-width: 1; opacity: 1;"/><path class="sankey-link" d="M20,127.35827645226996C270,127.35827645226996 270,171.94358382616866 520,171.94358382616866L520,171.94603872072787C270,171.94603872072787 270,127.36073134682914 20,127.36073134682914Z" style="stroke: rgb(222, 143, 5); stroke-opacity: 1; fill: rgb(222, 143, 5); fill-opacity: 1; stroke-width: 1; opacity: 1;"/><path class="sankey-link" d="M20,127.36073134682914C270,127.36073134682914 270,190.68147006255114 520,190.68147006255114L520,190.72035068508976C270,190.72035068508976 270,127.39961196936775 20,127.39961196936775Z" style="stroke: rgb(222, 143, 5); stroke-opacity: 1; fill: rgb(222, 143, 5); fill-opacity: 1; stroke-width: 1; opacity: 1;"/><path class="sankey-link" d="M20,127.42385620968467C270,127.42385620968467 270,259.1260076842287 520,259.1260076842287L520,259.1311865502042C270,259.1311865502042 270,127.42903507566014 20,127.42903507566014Z" style="stroke: rgb(222, 143, 5); stroke-opacity: 1; fill: rgb(222, 143, 5); fill-opacity: 1; stroke-width: 1; opacity: 1;"/><path class="sankey-link" d="M20,127.39961196936775C270,127.39961196936775 270,211.94984681656283 520,211.94984681656283L520,211.9549405621373C270,211.9549405621373 270,127.40470571494222 20,127.40470571494222Z" style="stroke: rgb(222, 143, 5); stroke-opacity: 1; fill: rgb(222, 143, 5); fill-opacity: 1; stroke-width: 1; opacity: 1;"/><path class="sankey-link" d="M20,127.40470571494222C270,127.40470571494222 270,237.54999552355585 520,237.54999552355585L520,237.5691460182983C270,237.5691460182983 270,127.42385620968466 20,127.42385620968466Z" style="stroke: rgb(222, 143, 5); stroke-opacity: 1; fill: rgb(222, 143, 5); fill-opacity: 1; stroke-width: 1; opacity: 1;"/><path class="sankey-link" d="M20,127.42903507566014C270,127.42903507566014 270,286.7441917167243 520,286.7441917167243L520,286.78656835736155C270,286.78656835736155 270,127.4714117162974 20,127.4714117162974Z" style="stroke: rgb(222, 143, 5); stroke-opacity: 1; fill: rgb(222, 143, 5); fill-opacity: 1; stroke-width: 1; opacity: 1;"/><path class="sankey-link" d="M20,73.71071322610112C270,73.71071322610112 270,97.3576445326183 520,97.3576445326183L520,97.72247824828635C270,97.72247824828635 270,74.07554694176918 20,74.07554694176918Z" style="stroke: rgb(2, 158, 115); stroke-opacity: 1; fill: rgb(2, 158, 115); fill-opacity: 1; stroke-width: 1; opacity: 1;"/><path class="sankey-link" d="M20,74.07554694176918C270,74.07554694176918 270,116.57339728301577 520,116.57339728301577L520,116.96702566936057C270,116.96702566936057 270,74.46917532811398 20,74.46917532811398Z" style="stroke: rgb(2, 158, 115); stroke-opacity: 1; fill: rgb(2, 158, 115); fill-opacity: 1; stroke-width: 1; opacity: 1;"/><path class="sankey-link" d="M20,-5.684341886080802e-14C270,-5.684341886080802e-14 270,-2.4158453015843406e-13 520,-2.4158453015843406e-13L520,73.71071322610094C270,73.71071322610094 270,73.71071322610112 20,73.71071322610112Z" style="stroke: rgb(68, 68, 68); stroke-opacity: 1; fill: rgb(2, 158, 115); fill-opacity: 1; stroke-width: 0; opacity: 1;"/><path class="sankey-link" d="M20,74.46917532811398C270,74.46917532811398 270,132.52228069195138 520,132.52228069195138L520,136.3637359230956C270,136.3637359230956 270,78.31063055925816 20,78.31063055925816Z" style="stroke: rgb(68, 68, 68); stroke-opacity: 1; fill: rgb(2, 158, 115); fill-opacity: 1; stroke-width: 0; opacity: 1;"/><path class="sankey-link" d="M20,78.31063055925817C270,78.31063055925817 270,171.50300201824365 520,171.50300201824365L520,171.8763581958384C270,171.8763581958384 270,78.6839867368529 20,78.6839867368529Z" style="stroke: rgb(2, 158, 115); stroke-opacity: 1; fill: rgb(2, 158, 115); fill-opacity: 1; stroke-width: 1; opacity: 1;"/><path class="sankey-link" d="M20,78.68398673685292C270,78.68398673685292 270,188.0329437201073 520,188.0329437201073L520,190.55452942007753C270,190.55452942007753 270,81.20557243682313 20,81.20557243682313Z" style="stroke: rgb(68, 68, 68); stroke-opacity: 1; fill: rgb(2, 158, 115); fill-opacity: 1; stroke-width: 0; opacity: 1;"/><path class="sankey-link" d="M20,83.81397231682614C270,83.81397231682614 270,257.7665744476201 520,257.7665744476201L520,259.0121410609946C270,259.0121410609946 270,85.0595389302007 20,85.0595389302007Z" style="stroke: rgb(68, 68, 68); stroke-opacity: 1; fill: rgb(2, 158, 115); fill-opacity: 1; stroke-width: 0; opacity: 1;"/><path class="sankey-link" d="M20,81.20557243682315C270,81.20557243682315 270,211.00175984661496 520,211.00175984661496L520,211.81995934026077C270,211.81995934026077 270,82.02377193046895 20,82.02377193046895Z" style="stroke: rgb(2, 158, 115); stroke-opacity: 1; fill: rgb(2, 158, 115); fill-opacity: 1; stroke-width: 1; opacity: 1;"/><path class="sankey-link" d="M20,82.02377193046897C270,82.02377193046897 270,235.63130161217697 520,235.63130161217697L520,237.42150199853415C270,237.42150199853415 270,83.81397231682612 20,83.81397231682612Z" style="stroke: rgb(68, 68, 68); stroke-opacity: 1; fill: rgb(2, 158, 115); fill-opacity: 1; stroke-width: 0; opacity: 1;"/><path class="sankey-link" d="M20,85.05953893020072C270,85.05953893020072 270,279.7713053337602 520,279.7713053337602L520,286.07975248019613C270,286.07975248019613 270,91.36798607663661 20,91.36798607663661Z" style="stroke: rgb(68, 68, 68); stroke-opacity: 1; fill: rgb(2, 158, 115); fill-opacity: 1; stroke-width: 0; opacity: 1;"/><path class="sankey-link" d="M20,142.94248432487274C270,142.94248432487274 270,100.88091792372644 520,100.88091792372644L520,101.0548921265458C270,101.0548921265458 270,143.1164585276921 20,143.1164585276921Z" style="stroke: rgb(213, 94, 0); stroke-opacity: 1; fill: rgb(213, 94, 0); fill-opacity: 1; stroke-width: 1; opacity: 1;"/><path class="sankey-link" d="M20,143.1164585276921C270,143.1164585276921 270,117.17909556053509 520,117.17909556053509L520,117.22639292657134C270,117.22639292657134 270,143.1637558937283 20,143.1637558937283Z" style="stroke: rgb(213, 94, 0); stroke-opacity: 1; fill: rgb(213, 94, 0); fill-opacity: 1; stroke-width: 1; opacity: 1;"/><path class="sankey-link" d="M20,142.47141171629744C270,142.47141171629744 270,74.20639798201282 520,74.20639798201282L520,74.67747059058811C270,74.67747059058811 270,142.94248432487274 20,142.94248432487274Z" style="stroke: rgb(213, 94, 0); stroke-opacity: 1; fill: rgb(213, 94, 0); fill-opacity: 1; stroke-width: 1; opacity: 1;"/><path class="sankey-link" d="M20,143.16375589372834C270,143.16375589372834 270,137.25697884231252 520,137.25697884231252L520,150.6863116409772C270,150.6863116409772 270,156.59308869239302 20,156.59308869239302Z" style="stroke: rgb(68, 68, 68); stroke-opacity: 1; fill: rgb(213, 94, 0); fill-opacity: 1; stroke-width: 0; opacity: 1;"/><path class="sankey-link" d="M20,156.59308869239302C270,156.59308869239302 270,171.94603872072784 520,171.94603872072784L520,172.0001680561658C270,172.0001680561658 270,156.64721802783097 20,156.64721802783097Z" style="stroke: rgb(213, 94, 0); stroke-opacity: 1; fill: rgb(213, 94, 0); fill-opacity: 1; stroke-width: 1; opacity: 1;"/><path class="sankey-link" d="M20,156.647218027831C270,156.647218027831 270,190.72035068508976 520,190.72035068508976L520,190.94032569849C270,190.94032569849 270,156.86719304123125 20,156.86719304123125Z" style="stroke: rgb(213, 94, 0); stroke-opacity: 1; fill: rgb(213, 94, 0); fill-opacity: 1; stroke-width: 1; opacity: 1;"/><path class="sankey-link" d="M20,157.48805463440243C270,157.48805463440243 270,259.1311865502042 520,259.1311865502042L520,259.3394550221719C270,259.3394550221719 270,157.69632310637013 20,157.69632310637013Z" style="stroke: rgb(213, 94, 0); stroke-opacity: 1; fill: rgb(213, 94, 0); fill-opacity: 1; stroke-width: 1; opacity: 1;"/><path class="sankey-link" d="M20,156.86719304123125C270,156.86719304123125 270,211.9549405621373 520,211.9549405621373L520,212.2844655394222C270,212.2844655394222 270,157.19671801851615 20,157.19671801851615Z" style="stroke: rgb(213, 94, 0); stroke-opacity: 1; fill: rgb(213, 94, 0); fill-opacity: 1; stroke-width: 1; opacity: 1;"/><path class="sankey-link" d="M20,157.19671801851615C270,157.19671801851615 270,237.56914601829828 520,237.56914601829828L520,237.86048263418456C270,237.86048263418456 270,157.48805463440243 20,157.48805463440243Z" style="stroke: rgb(213, 94, 0); stroke-opacity: 1; fill: rgb(213, 94, 0); fill-opacity: 1; stroke-width: 1; opacity: 1;"/><path class="sankey-link" d="M20,157.69632310637016C270,157.69632310637016 270,286.78656835736155 520,286.78656835736155L520,288.01305291339264C270,288.01305291339264 270,158.92280766240125 20,158.92280766240125Z" style="stroke: rgb(68, 68, 68); stroke-opacity: 1; fill: rgb(213, 94, 0); fill-opacity: 1; stroke-width: 0; opacity: 1;"/><path class="sankey-link" d="M20,177.7432539097985C270,177.7432539097985 270,101.05489212654581 520,101.05489212654581L520,101.12145202993412C270,101.12145202993412 270,177.80981381318685 20,177.80981381318685Z" style="stroke: rgb(204, 120, 188); stroke-opacity: 1; fill: rgb(204, 120, 188); fill-opacity: 1; stroke-width: 1; opacity: 1;"/><path class="sankey-link" d="M20,177.80981381318682C270,177.80981381318682 270,117.22639292657134 520,117.22639292657134L520,117.2850144504802C270,117.2850144504802 270,177.8684353370957 20,177.8684353370957Z" style="stroke: rgb(204, 120, 188); stroke-opacity: 1; fill: rgb(204, 120, 188); fill-opacity: 1; stroke-width: 1; opacity: 1;"/><path class="sankey-link" d="M20,173.92280766240123C270,173.92280766240123 270,74.6774705905881 520,74.6774705905881L520,78.49791683798539C270,78.49791683798539 270,177.7432539097985 20,177.7432539097985Z" style="stroke: rgb(68, 68, 68); stroke-opacity: 1; fill: rgb(204, 120, 188); fill-opacity: 1; stroke-width: 0; opacity: 1;"/><path class="sankey-link" d="M20,177.8684353370957C270,177.8684353370957 270,150.6863116409772 520,150.6863116409772L520,151.67514780184823C270,151.67514780184823 270,178.8572714979667 20,178.8572714979667Z" style="stroke: rgb(204, 120, 188); stroke-opacity: 1; fill: rgb(204, 120, 188); fill-opacity: 1; stroke-width: 1; opacity: 1;"/><path class="sankey-link" d="M20,178.8572714979667C270,178.8572714979667 270,172.00016805616582 520,172.00016805616582L520,172.52580423056241C270,172.52580423056241 270,179.3829076723633 20,179.3829076723633Z" style="stroke: rgb(204, 120, 188); stroke-opacity: 1; fill: rgb(204, 120, 188); fill-opacity: 1; stroke-width: 1; opacity: 1;"/><path class="sankey-link" d="M20,179.38290767236327C270,179.38290767236327 270,190.94032569849 520,190.94032569849L520,191.42899283237617C270,191.42899283237617 270,179.87157480624944 20,179.87157480624944Z" style="stroke: rgb(204, 120, 188); stroke-opacity: 1; fill: rgb(204, 120, 188); fill-opacity: 1; stroke-width: 1; opacity: 1;"/><path class="sankey-link" d="M20,184.85761657940265C270,184.85761657940265 270,259.3394550221719 520,259.3394550221719L520,259.7040879435031C270,259.7040879435031 270,185.22224950073388 20,185.22224950073388Z" style="stroke: rgb(204, 120, 188); stroke-opacity: 1; fill: rgb(204, 120, 188); fill-opacity: 1; stroke-width: 1; opacity: 1;"/><path class="sankey-link" d="M20,179.87157480624944C270,179.87157480624944 270,212.2844655394222 520,212.2844655394222L520,216.96280354816847C270,216.96280354816847 270,184.5499128149957 20,184.5499128149957Z" style="stroke: rgb(68, 68, 68); stroke-opacity: 1; fill: rgb(204, 120, 188); fill-opacity: 1; stroke-width: 0; opacity: 1;"/><path class="sankey-link" d="M20,184.5499128149957C270,184.5499128149957 270,237.86048263418456 520,237.86048263418456L520,238.1681863985915C270,238.1681863985915 270,184.85761657940265 20,184.85761657940265Z" style="stroke: rgb(204, 120, 188); stroke-opacity: 1; fill: rgb(204, 120, 188); fill-opacity: 1; stroke-width: 1; opacity: 1;"/><path class="sankey-link" d="M20,185.22224950073388C270,185.22224950073388 270,288.01305291339264 520,288.01305291339264L520,289.11850015734746C270,289.11850015734746 270,186.32769674468864 20,186.32769674468864Z" style="stroke: rgb(68, 68, 68); stroke-opacity: 1; fill: rgb(204, 120, 188); fill-opacity: 1; stroke-width: 0; opacity: 1;"/><path class="sankey-link" d="M20,226.78225003480108C270,226.78225003480108 270,101.33134279302973 520,101.33134279302973L520,101.34479739708368C270,101.34479739708368 270,226.79570463885503 20,226.79570463885503Z" style="stroke: rgb(202, 145, 97); stroke-opacity: 1; fill: rgb(202, 145, 97); fill-opacity: 1; stroke-width: 1; opacity: 1;"/><path class="sankey-link" d="M20,226.79570463885503C270,226.79570463885503 270,117.34483707045052 520,117.34483707045052L520,117.35444393502263C270,117.35444393502263 270,226.80531150342713 20,226.80531150342713Z" style="stroke: rgb(202, 145, 97); stroke-opacity: 1; fill: rgb(202, 145, 97); fill-opacity: 1; stroke-width: 1; opacity: 1;"/><path class="sankey-link" d="M20,226.55186003366487C270,226.55186003366487 270,80.1712089644373 520,80.1712089644373L520,80.40159896557351C270,80.40159896557351 270,226.7822500348011 20,226.7822500348011Z" style="stroke: rgb(202, 145, 97); stroke-opacity: 1; fill: rgb(202, 145, 97); fill-opacity: 1; stroke-width: 1; opacity: 1;"/><path class="sankey-link" d="M20,226.80531150342713C270,226.80531150342713 270,153.66881929877627 520,153.66881929877627L520,153.79576471389612C270,153.79576471389612 270,226.93225691854698 20,226.93225691854698Z" style="stroke: rgb(202, 145, 97); stroke-opacity: 1; fill: rgb(202, 145, 97); fill-opacity: 1; stroke-width: 1; opacity: 1;"/><path class="sankey-link" d="M20,226.93225691854695C270,226.93225691854695 270,172.79480611125396 520,172.79480611125396L520,172.807602866675C270,172.807602866675 270,226.945053673968 20,226.945053673968Z" style="stroke: rgb(202, 145, 97); stroke-opacity: 1; fill: rgb(202, 145, 97); fill-opacity: 1; stroke-width: 1; opacity: 1;"/><path class="sankey-link" d="M20,226.94505367396803C270,226.94505367396803 270,191.98703130869262 520,191.98703130869262L520,194.73493694503378C270,194.73493694503378 270,229.6929593103092 20,229.6929593103092Z" style="stroke: rgb(68, 68, 68); stroke-opacity: 1; fill: rgb(202, 145, 97); fill-opacity: 1; stroke-width: 0; opacity: 1;"/><path class="sankey-link" d="M20,229.78927068304887C270,229.78927068304887 270,259.88548724414335 520,259.88548724414335L520,259.9190089467574C270,259.9190089467574 270,229.82279238566292 20,229.82279238566292Z" style="stroke: rgb(202, 145, 97); stroke-opacity: 1; fill: rgb(202, 145, 97); fill-opacity: 1; stroke-width: 1; opacity: 1;"/><path class="sankey-link" d="M20,229.69295931030916C270,229.69295931030916 270,220.14768188000957 520,220.14768188000957L520,220.18097469501393C270,220.18097469501393 270,229.72625212531352 20,229.72625212531352Z" style="stroke: rgb(202, 145, 97); stroke-opacity: 1; fill: rgb(202, 145, 97); fill-opacity: 1; stroke-width: 1; opacity: 1;"/><path class="sankey-link" d="M20,229.7262521253135C270,229.7262521253135 270,238.70236252038265 520,238.70236252038265L520,238.76538107811805C270,238.76538107811805 270,229.7892706830489 20,229.7892706830489Z" style="stroke: rgb(202, 145, 97); stroke-opacity: 1; fill: rgb(202, 145, 97); fill-opacity: 1; stroke-width: 1; opacity: 1;"/><path class="sankey-link" d="M20,229.82279238566292C270,229.82279238566292 270,290.67849232859714 520,290.67849232859714L520,290.9432839106504C270,290.9432839106504 270,230.08758396771617 20,230.08758396771617Z" style="stroke: rgb(202, 145, 97); stroke-opacity: 1; fill: rgb(202, 145, 97); fill-opacity: 1; stroke-width: 1; opacity: 1;"/><path class="sankey-link" d="M20,270.70377389627896C270,270.70377389627896 270,101.52195293775965 520,101.52195293775965L520,101.54496311499612C270,101.54496311499612 270,270.7267840735154 20,270.7267840735154Z" style="stroke: rgb(251, 175, 228); stroke-opacity: 1; fill: rgb(251, 175, 228); fill-opacity: 1; stroke-width: 1; opacity: 1;"/><path class="sankey-link" d="M20,270.72678407351543C270,270.72678407351543 270,117.47674192692219 520,117.47674192692219L520,117.48996972617996C270,117.48996972617996 270,270.74001187277315 20,270.74001187277315Z" style="stroke: rgb(251, 175, 228); stroke-opacity: 1; fill: rgb(251, 175, 228); fill-opacity: 1; stroke-width: 1; opacity: 1;"/><path class="sankey-link" d="M20,270.4913799726106C270,270.4913799726106 270,81.80924641050538 520,81.80924641050538L520,82.02164033417372C270,82.02164033417372 270,270.703773896279 20,270.703773896279Z" style="stroke: rgb(251, 175, 228); stroke-opacity: 1; fill: rgb(251, 175, 228); fill-opacity: 1; stroke-width: 1; opacity: 1;"/><path class="sankey-link" d="M20,270.7400118727732C270,270.7400118727732 270,155.53002238487156 520,155.53002238487156L520,155.81683886740117C270,155.81683886740117 270,271.0268283553028 20,271.0268283553028Z" style="stroke: rgb(251, 175, 228); stroke-opacity: 1; fill: rgb(251, 175, 228); fill-opacity: 1; stroke-width: 1; opacity: 1;"/><path class="sankey-link" d="M20,271.0268283553028C270,271.0268283553028 270,172.9861565193347 520,172.9861565193347L520,173.00568493714633C270,173.00568493714633 270,271.0463567731145 20,271.0463567731145Z" style="stroke: rgb(251, 175, 228); stroke-opacity: 1; fill: rgb(251, 175, 228); fill-opacity: 1; stroke-width: 1; opacity: 1;"/><path class="sankey-link" d="M20,271.04635677311444C270,271.04635677311444 270,195.66103794593567 520,195.66103794593567L520,195.7553829479744C270,195.7553829479744 270,271.14070177515316 20,271.14070177515316Z" style="stroke: rgb(251, 175, 228); stroke-opacity: 1; fill: rgb(251, 175, 228); fill-opacity: 1; stroke-width: 1; opacity: 1;"/><path class="sankey-link" d="M20,271.24015152673775C270,271.24015152673775 270,260.1407707649078 520,260.1407707649078L520,264.4691812304599C270,264.4691812304599 270,275.56856199228986 20,275.56856199228986Z" style="stroke: rgb(68, 68, 68); stroke-opacity: 1; fill: rgb(251, 175, 228); fill-opacity: 1; stroke-width: 0; opacity: 1;"/><path class="sankey-link" d="M20,271.14070177515316C270,271.14070177515316 270,220.50863702618548 520,220.50863702618548L520,220.54858632090023C270,220.54858632090023 270,271.18065106986785 20,271.18065106986785Z" style="stroke: rgb(251, 175, 228); stroke-opacity: 1; fill: rgb(251, 175, 228); fill-opacity: 1; stroke-width: 1; opacity: 1;"/><path class="sankey-link" d="M20,271.1806510698679C270,271.1806510698679 270,242.6118155530351 520,242.6118155530351L520,242.67131600990493C270,242.67131600990493 270,271.24015152673775 20,271.24015152673775Z" style="stroke: rgb(251, 175, 228); stroke-opacity: 1; fill: rgb(251, 175, 228); fill-opacity: 1; stroke-width: 1; opacity: 1;"/><path class="sankey-link" d="M20,275.56856199228986C270,275.56856199228986 270,292.4052079892614 520,292.4052079892614L520,293.77974145522774C270,293.77974145522774 270,276.9430954582562 20,276.9430954582562Z" style="stroke: rgb(68, 68, 68); stroke-opacity: 1; fill: rgb(251, 175, 228); fill-opacity: 1; stroke-width: 0; opacity: 1;"/><path class="sankey-link" d="M20,203.00098887114058C270,203.00098887114058 270,101.12145202993413 520,101.12145202993413L520,101.33134279302972C270,101.33134279302972 270,203.21087963423616 20,203.21087963423616Z" style="stroke: rgb(148, 148, 148); stroke-opacity: 1; fill: rgb(148, 148, 148); fill-opacity: 1; stroke-width: 1; opacity: 1;"/><path class="sankey-link" d="M20,203.21087963423616C270,203.21087963423616 270,117.2850144504802 520,117.2850144504802L520,117.34483707045054C270,117.34483707045054 270,203.27070225420647 20,203.27070225420647Z" style="stroke: rgb(148, 148, 148); stroke-opacity: 1; fill: rgb(148, 148, 148); fill-opacity: 1; stroke-width: 1; opacity: 1;"/><path class="sankey-link" d="M20,201.3276967446887C270,201.3276967446887 270,78.4979168379854 520,78.4979168379854L520,80.17120896443728C270,80.17120896443728 270,203.00098887114058 20,203.00098887114058Z" style="stroke: rgb(68, 68, 68); stroke-opacity: 1; fill: rgb(148, 148, 148); fill-opacity: 1; stroke-width: 0; opacity: 1;"/><path class="sankey-link" d="M20,203.2707022542065C270,203.2707022542065 270,151.67514780184823 520,151.67514780184823L520,153.66881929877624C270,153.66881929877624 270,205.2643737511345 20,205.2643737511345Z" style="stroke: rgb(68, 68, 68); stroke-opacity: 1; fill: rgb(148, 148, 148); fill-opacity: 1; stroke-width: 0; opacity: 1;"/><path class="sankey-link" d="M20,205.26437375113454C270,205.26437375113454 270,172.5258042305624 520,172.5258042305624L520,172.79480611125396C270,172.79480611125396 270,205.53337563182612 20,205.53337563182612Z" style="stroke: rgb(148, 148, 148); stroke-opacity: 1; fill: rgb(148, 148, 148); fill-opacity: 1; stroke-width: 1; opacity: 1;"/><path class="sankey-link" d="M20,205.53337563182612C270,205.53337563182612 270,191.42899283237617 520,191.42899283237617L520,191.9870313086926C270,191.9870313086926 270,206.09141410814254 20,206.09141410814254Z" style="stroke: rgb(148, 148, 148); stroke-opacity: 1; fill: rgb(148, 148, 148); fill-opacity: 1; stroke-width: 1; opacity: 1;"/><path class="sankey-link" d="M20,209.81046856177483C270,209.81046856177483 270,259.7040879435031 520,259.7040879435031L520,259.88548724414335C270,259.88548724414335 270,209.99186786241506 20,209.99186786241506Z" style="stroke: rgb(148, 148, 148); stroke-opacity: 1; fill: rgb(148, 148, 148); fill-opacity: 1; stroke-width: 1; opacity: 1;"/><path class="sankey-link" d="M20,206.09141410814257C270,206.09141410814257 270,216.96280354816847 520,216.96280354816847L520,220.14768188000957C270,220.14768188000957 270,209.27629243998368 20,209.27629243998368Z" style="stroke: rgb(68, 68, 68); stroke-opacity: 1; fill: rgb(148, 148, 148); fill-opacity: 1; stroke-width: 0; opacity: 1;"/><path class="sankey-link" d="M20,209.27629243998368C270,209.27629243998368 270,238.1681863985915 520,238.1681863985915L520,238.70236252038262C270,238.70236252038262 270,209.8104685617748 20,209.8104685617748Z" style="stroke: rgb(148, 148, 148); stroke-opacity: 1; fill: rgb(148, 148, 148); fill-opacity: 1; stroke-width: 1; opacity: 1;"/><path class="sankey-link" d="M20,209.9918678624151C270,209.9918678624151 270,289.1185001573474 520,289.1185001573474L520,290.67849232859714C270,290.67849232859714 270,211.55186003366484 20,211.55186003366484Z" style="stroke: rgb(68, 68, 68); stroke-opacity: 1; fill: rgb(148, 148, 148); fill-opacity: 1; stroke-width: 0; opacity: 1;"/><path class="sankey-link" d="M20,246.49523141264802C270,246.49523141264802 270,101.3447973970837 520,101.3447973970837L520,101.52195293775965C270,101.52195293775965 270,246.67238695332395 20,246.67238695332395Z" style="stroke: rgb(236, 225, 51); stroke-opacity: 1; fill: rgb(236, 225, 51); fill-opacity: 1; stroke-width: 1; opacity: 1;"/><path class="sankey-link" d="M20,246.67238695332398C270,246.67238695332398 270,117.35444393502264 520,117.35444393502264L520,117.4767419269222C270,117.4767419269222 270,246.7946849452235 20,246.7946849452235Z" style="stroke: rgb(236, 225, 51); stroke-opacity: 1; fill: rgb(236, 225, 51); fill-opacity: 1; stroke-width: 1; opacity: 1;"/><path class="sankey-link" d="M20,245.08758396771617C270,245.08758396771617 270,80.40159896557353 520,80.40159896557353L520,81.80924641050538C270,81.80924641050538 270,246.49523141264802 20,246.49523141264802Z" style="stroke: rgb(68, 68, 68); stroke-opacity: 1; fill: rgb(236, 225, 51); fill-opacity: 1; stroke-width: 0; opacity: 1;"/><path class="sankey-link" d="M20,246.79468494522354C270,246.79468494522354 270,153.7957647138961 520,153.7957647138961L520,155.53002238487156C270,155.53002238487156 270,248.528942616199 20,248.528942616199Z" style="stroke: rgb(68, 68, 68); stroke-opacity: 1; fill: rgb(236, 225, 51); fill-opacity: 1; stroke-width: 0; opacity: 1;"/><path class="sankey-link" d="M20,248.528942616199C270,248.528942616199 270,172.80760286667504 520,172.80760286667504L520,172.9861565193347C270,172.9861565193347 270,248.70749626885868 20,248.70749626885868Z" style="stroke: rgb(236, 225, 51); stroke-opacity: 1; fill: rgb(236, 225, 51); fill-opacity: 1; stroke-width: 1; opacity: 1;"/><path class="sankey-link" d="M20,248.70749626885868C270,248.70749626885868 270,194.73493694503375 520,194.73493694503375L520,195.66103794593565C270,195.66103794593565 270,249.63359726976057 20,249.63359726976057Z" style="stroke: rgb(236, 225, 51); stroke-opacity: 1; fill: rgb(236, 225, 51); fill-opacity: 1; stroke-width: 1; opacity: 1;"/><path class="sankey-link" d="M20,253.80769407584924C270,253.80769407584924 270,259.9190089467574 520,259.9190089467574L520,260.1407707649078C270,260.1407707649078 270,254.02945589399965 20,254.02945589399965Z" style="stroke: rgb(236, 225, 51); stroke-opacity: 1; fill: rgb(236, 225, 51); fill-opacity: 1; stroke-width: 1; opacity: 1;"/><path class="sankey-link" d="M20,249.6335972697606C270,249.6335972697606 270,220.1809746950139 520,220.1809746950139L520,220.5086370261855C270,220.5086370261855 270,249.9612596009322 20,249.9612596009322Z" style="stroke: rgb(236, 225, 51); stroke-opacity: 1; fill: rgb(236, 225, 51); fill-opacity: 1; stroke-width: 1; opacity: 1;"/><path class="sankey-link" d="M20,249.96125960093218C270,249.96125960093218 270,238.76538107811803 520,238.76538107811803L520,242.61181555303511C270,242.61181555303511 270,253.80769407584927 20,253.80769407584927Z" style="stroke: rgb(68, 68, 68); stroke-opacity: 1; fill: rgb(236, 225, 51); fill-opacity: 1; stroke-width: 0; opacity: 1;"/><path class="sankey-link" d="M20,254.02945589399963C270,254.02945589399963 270,290.9432839106504 520,290.9432839106504L520,292.4052079892614C270,292.4052079892614 270,255.49137997261062 20,255.49137997261062Z" style="stroke: rgb(68, 68, 68); stroke-opacity: 1; fill: rgb(236, 225, 51); fill-opacity: 1; stroke-width: 0; opacity: 1;"/><path class="sankey-link" d="M20,292.2790996567007C270,292.2790996567007 270,101.54496311499611 520,101.54496311499611L520,101.57339728301577C270,101.57339728301577 270,292.30753382472034 20,292.30753382472034Z" style="stroke: rgb(86, 180, 233); stroke-opacity: 1; fill: rgb(86, 180, 233); fill-opacity: 1; stroke-width: 1; opacity: 1;"/><path class="sankey-link" d="M20,292.30753382472034C270,292.30753382472034 270,117.48996972617996 520,117.48996972617996L520,117.52228069195135C270,117.52228069195135 270,292.3398447904918 20,292.3398447904918Z" style="stroke: rgb(86, 180, 233); stroke-opacity: 1; fill: rgb(86, 180, 233); fill-opacity: 1; stroke-width: 1; opacity: 1;"/><path class="sankey-link" d="M20,291.94309545825615C270,291.94309545825615 270,82.02164033417374 520,82.02164033417374L520,82.3576445326183C270,82.3576445326183 270,292.27909965670074 20,292.27909965670074Z" style="stroke: rgb(86, 180, 233); stroke-opacity: 1; fill: rgb(86, 180, 233); fill-opacity: 1; stroke-width: 1; opacity: 1;"/><path class="sankey-link" d="M20,292.3398447904917C270,292.3398447904917 270,155.81683886740117 520,155.81683886740117L520,156.50300201824362C270,156.50300201824362 270,293.0260079413342 20,293.0260079413342Z" style="stroke: rgb(86, 180, 233); stroke-opacity: 1; fill: rgb(86, 180, 233); fill-opacity: 1; stroke-width: 1; opacity: 1;"/><path class="sankey-link" d="M20,293.02600794133417C270,293.02600794133417 270,173.00568493714633 520,173.00568493714633L520,173.0329437201073C270,173.0329437201073 270,293.05326672429516 20,293.05326672429516Z" style="stroke: rgb(86, 180, 233); stroke-opacity: 1; fill: rgb(86, 180, 233); fill-opacity: 1; stroke-width: 1; opacity: 1;"/><path class="sankey-link" d="M20,293.05326672429516C270,293.05326672429516 270,195.75538294797443 520,195.75538294797443L520,196.001759846615C270,196.001759846615 270,293.29964362293566 20,293.29964362293566Z" style="stroke: rgb(86, 180, 233); stroke-opacity: 1; fill: rgb(86, 180, 233); fill-opacity: 1; stroke-width: 1; opacity: 1;"/><path class="sankey-link" d="M20,293.47761735192756C270,293.47761735192756 270,264.4691812304599 520,264.4691812304599L520,264.77130533376027C270,264.77130533376027 270,293.7797414552279 20,293.7797414552279Z" style="stroke: rgb(86, 180, 233); stroke-opacity: 1; fill: rgb(86, 180, 233); fill-opacity: 1; stroke-width: 1; opacity: 1;"/><path class="sankey-link" d="M20,293.2996436229357C270,293.2996436229357 270,220.5485863209002 520,220.5485863209002L520,220.6313016121769C270,220.6313016121769 270,293.38235891421243 20,293.38235891421243Z" style="stroke: rgb(86, 180, 233); stroke-opacity: 1; fill: rgb(86, 180, 233); fill-opacity: 1; stroke-width: 1; opacity: 1;"/><path class="sankey-link" d="M20,293.38235891421243C270,293.38235891421243 270,242.6713160099049 520,242.6713160099049L520,242.76657444762003C270,242.76657444762003 270,293.4776173519276 20,293.4776173519276Z" style="stroke: rgb(86, 180, 233); stroke-opacity: 1; fill: rgb(86, 180, 233); fill-opacity: 1; stroke-width: 1; opacity: 1;"/><path class="sankey-link" d="M20,293.7797414552279C270,293.7797414552279 270,293.7797414552278 520,293.7797414552278L520,319.99999999999983C270,319.99999999999983 270,319.99999999999994 20,319.99999999999994Z" style="stroke: rgb(68, 68, 68); stroke-opacity: 1; fill: rgb(86, 180, 233); fill-opacity: 1; stroke-width: 0; opacity: 1;"/></g><g class="sankey-node-set" style="cursor: move;"><g class="sankey-node" transform="translate(0.000,106.368)" style="opacity: 1;"><rect class="node-rect" width="20" height="5.7042825636169" style="stroke-width: 0.5; stroke: rgb(0, 0, 0); stroke-opacity: 1; fill: rgb(211, 211, 211); fill-opacity: 1;"/><text class="node-label" data-notex="1" x="0" y="0" text-anchor="start" transform="translate(23.25,7.052141281808449)" style="cursor: default; font-family: 'Open Sans', verdana, arial, sans-serif; font-size: 12px; fill: rgb(42, 63, 95); fill-opacity: 1; white-space: pre; text-shadow: white 1px 1px 1px, white -1px -1px 1px, white 1px -1px 1px, white -1px 1px 1px;">Africa (85 Mt)</text></g><g class="sankey-node" transform="translate(0.000,127.072)" style="opacity: 1;"><rect class="node-rect" width="20" height="0.5" style="stroke-width: 0.5; stroke: rgb(0, 0, 0); stroke-opacity: 1; fill: rgb(211, 211, 211); fill-opacity: 1;"/><text class="node-label" data-notex="1" x="0" y="0" text-anchor="start" transform="translate(23.25,4.449999999999999)" style="cursor: default; font-family: 'Open Sans', verdana, arial, sans-serif; font-size: 12px; fill: rgb(42, 63, 95); fill-opacity: 1; white-space: pre; text-shadow: white 1px 1px 1px, white -1px -1px 1px, white 1px -1px 1px, white -1px 1px 1px;">Australia (5 Mt)</text></g><g class="sankey-node" transform="translate(0.000,-0.000)" style="opacity: 1;"><rect class="node-rect" width="20" height="91.36798607663667" style="stroke-width: 0.5; stroke: rgb(0, 0, 0); stroke-opacity: 1; fill: rgb(211, 211, 211); fill-opacity: 1;"/><text class="node-label" data-notex="1" x="0" y="0" text-anchor="start" transform="translate(23.25,49.88399303831834)" style="cursor: default; font-family: 'Open Sans', verdana, arial, sans-serif; font-size: 12px; fill: rgb(42, 63, 95); fill-opacity: 1; white-space: pre; text-shadow: white 1px 1px 1px, white -1px -1px 1px, white 1px -1px 1px, white -1px 1px 1px;">China (1365 Mt)</text></g><g class="sankey-node" transform="translate(0.000,142.471)" style="opacity: 1;"><rect class="node-rect" width="20" height="16.451395946103787" style="stroke-width: 0.5; stroke: rgb(0, 0, 0); stroke-opacity: 1; fill: rgb(211, 211, 211); fill-opacity: 1;"/><text class="node-label" data-notex="1" x="0" y="0" text-anchor="start" transform="translate(23.25,12.425697973051893)" style="cursor: default; font-family: 'Open Sans', verdana, arial, sans-serif; font-size: 12px; fill: rgb(42, 63, 95); fill-opacity: 1; white-space: pre; text-shadow: white 1px 1px 1px, white -1px -1px 1px, white 1px -1px 1px, white -1px 1px 1px;">Europe (245 Mt)</text></g><g class="sankey-node" transform="translate(0.000,173.923)" style="opacity: 1;"><rect class="node-rect" width="20" height="12.404889082287468" style="stroke-width: 0.5; stroke: rgb(0, 0, 0); stroke-opacity: 1; fill: rgb(211, 211, 211); fill-opacity: 1;"/><text class="node-label" data-notex="1" x="0" y="0" text-anchor="start" transform="translate(23.25,10.402444541143733)" style="cursor: default; font-family: 'Open Sans', verdana, arial, sans-serif; font-size: 12px; fill: rgb(42, 63, 95); fill-opacity: 1; white-space: pre; text-shadow: white 1px 1px 1px, white -1px -1px 1px, white 1px -1px 1px, white -1px 1px 1px;">India (185 Mt)</text></g><g class="sankey-node" transform="translate(0.000,226.552)" style="opacity: 1;"><rect class="node-rect" width="20" height="3.5357239340513047" style="stroke-width: 0.5; stroke: rgb(0, 0, 0); stroke-opacity: 1; fill: rgb(211, 211, 211); fill-opacity: 1;"/><text class="node-label" data-notex="1" x="0" y="0" text-anchor="start" transform="translate(23.25,5.967861967025652)" style="cursor: default; font-family: 'Open Sans', verdana, arial, sans-serif; font-size: 12px; fill: rgb(42, 63, 95); fill-opacity: 1; white-space: pre; text-shadow: white 1px 1px 1px, white -1px -1px 1px, white 1px -1px 1px, white -1px 1px 1px;">Japan and Korea (52 Mt)</text></g><g class="sankey-node" transform="translate(0.000,270.491)" style="opacity: 1;"><rect class="node-rect" width="20" height="6.451715485645536" style="stroke-width: 0.5; stroke: rgb(0, 0, 0); stroke-opacity: 1; fill: rgb(211, 211, 211); fill-opacity: 1;"/><text class="node-label" data-notex="1" x="0" y="0" text-anchor="start" transform="translate(23.25,7.4258577428227674)" style="cursor: default; font-family: 'Open Sans', verdana, arial, sans-serif; font-size: 12px; fill: rgb(42, 63, 95); fill-opacity: 1; white-space: pre; text-shadow: white 1px 1px 1px, white -1px -1px 1px, white 1px -1px 1px, white -1px 1px 1px;">Latin America (96 Mt)</text></g><g class="sankey-node" transform="translate(0.000,201.328)" style="opacity: 1;"><rect class="node-rect" width="20" height="10.224163288976172" style="stroke-width: 0.5; stroke: rgb(0, 0, 0); stroke-opacity: 1; fill: rgb(211, 211, 211); fill-opacity: 1;"/><text class="node-label" data-notex="1" x="0" y="0" text-anchor="start" transform="translate(23.25,9.312081644488085)" style="cursor: default; font-family: 'Open Sans', verdana, arial, sans-serif; font-size: 12px; fill: rgb(42, 63, 95); fill-opacity: 1; white-space: pre; text-shadow: white 1px 1px 1px, white -1px -1px 1px, white 1px -1px 1px, white -1px 1px 1px;">Middle East (152 Mt)</text></g><g class="sankey-node" transform="translate(0.000,245.088)" style="opacity: 1;"><rect class="node-rect" width="20" height="10.403796004894446" style="stroke-width: 0.5; stroke: rgb(0, 0, 0); stroke-opacity: 1; fill: rgb(211, 211, 211); fill-opacity: 1;"/><text class="node-label" data-notex="1" x="0" y="0" text-anchor="start" transform="translate(23.25,9.401898002447222)" style="cursor: default; font-family: 'Open Sans', verdana, arial, sans-serif; font-size: 12px; fill: rgb(42, 63, 95); fill-opacity: 1; white-space: pre; text-shadow: white 1px 1px 1px, white -1px -1px 1px, white 1px -1px 1px, white -1px 1px 1px;">Rest of Asia (155 Mt)</text></g><g class="sankey-node" transform="translate(0.000,291.943)" style="opacity: 1;"><rect class="node-rect" width="20" height="28.056904541743847" style="stroke-width: 0.5; stroke: rgb(0, 0, 0); stroke-opacity: 1; fill: rgb(211, 211, 211); fill-opacity: 1;"/><text class="node-label" data-notex="1" x="0" y="0" text-anchor="start" transform="translate(23.25,18.228452270871923)" style="cursor: default; font-family: 'Open Sans', verdana, arial, sans-serif; font-size: 12px; fill: rgb(42, 63, 95); fill-opacity: 1; white-space: pre; text-shadow: white 1px 1px 1px, white -1px -1px 1px, white 1px -1px 1px, white -1px 1px 1px;">USA and Canada (419 Mt)</text></g><g class="sankey-node" transform="translate(520.000,97.358)" style="opacity: 1;"><rect class="node-rect" width="20" height="4.215752750397456" style="stroke-width: 0.5; stroke: rgb(0, 0, 0); stroke-opacity: 1; fill: rgb(211, 211, 211); fill-opacity: 1;"/><text class="node-label" data-notex="1" x="0" y="0" text-anchor="end" transform="translate(-3.25,6.3078763751987275)" style="cursor: default; font-family: 'Open Sans', verdana, arial, sans-serif; font-size: 12px; fill: rgb(42, 63, 95); fill-opacity: 1; white-space: pre; text-shadow: white 1px 1px 1px, white -1px -1px 1px, white 1px -1px 1px, white -1px 1px 1px;">Africa (62 Mt)</text></g><g class="sankey-node" transform="translate(520.000,116.573)" style="opacity: 1;"><rect class="node-rect" width="20" height="0.9488834089356146" style="stroke-width: 0.5; stroke: rgb(0, 0, 0); stroke-opacity: 1; fill: rgb(211, 211, 211); fill-opacity: 1;"/><text class="node-label" data-notex="1" x="0" y="0" text-anchor="end" transform="translate(-3.25,4.674441704467807)" style="cursor: default; font-family: 'Open Sans', verdana, arial, sans-serif; font-size: 12px; fill: rgb(42, 63, 95); fill-opacity: 1; white-space: pre; text-shadow: white 1px 1px 1px, white -1px -1px 1px, white 1px -1px 1px, white -1px 1px 1px;">Australia (14 Mt)</text></g><g class="sankey-node" transform="translate(520.000,-0.000)" style="opacity: 1;"><rect class="node-rect" width="20" height="82.35764453261854" style="stroke-width: 0.5; stroke: rgb(0, 0, 0); stroke-opacity: 1; fill: rgb(211, 211, 211); fill-opacity: 1;"/><text class="node-label" data-notex="1" x="0" y="0" text-anchor="end" transform="translate(-3.25,45.37882226630927)" style="cursor: default; font-family: 'Open Sans', verdana, arial, sans-serif; font-size: 12px; fill: rgb(42, 63, 95); fill-opacity: 1; white-space: pre; text-shadow: white 1px 1px 1px, white -1px -1px 1px, white 1px -1px 1px, white -1px 1px 1px;">China (1230 Mt)</text></g><g class="sankey-node" transform="translate(520.000,132.522)" style="opacity: 1;"><rect class="node-rect" width="20" height="23.98072132629227" style="stroke-width: 0.5; stroke: rgb(0, 0, 0); stroke-opacity: 1; fill: rgb(211, 211, 211); fill-opacity: 1;"/><text class="node-label" data-notex="1" x="0" y="0" text-anchor="end" transform="translate(-3.25,16.190360663146134)" style="cursor: default; font-family: 'Open Sans', verdana, arial, sans-serif; font-size: 12px; fill: rgb(42, 63, 95); fill-opacity: 1; white-space: pre; text-shadow: white 1px 1px 1px, white -1px -1px 1px, white 1px -1px 1px, white -1px 1px 1px;">Europe (358 Mt)</text></g><g class="sankey-node" transform="translate(520.000,171.503)" style="opacity: 1;"><rect class="node-rect" width="20" height="1.5299417018636632" style="stroke-width: 0.5; stroke: rgb(0, 0, 0); stroke-opacity: 1; fill: rgb(211, 211, 211); fill-opacity: 1;"/><text class="node-label" data-notex="1" x="0" y="0" text-anchor="end" transform="translate(-3.25,4.964970850931831)" style="cursor: default; font-family: 'Open Sans', verdana, arial, sans-serif; font-size: 12px; fill: rgb(42, 63, 95); fill-opacity: 1; white-space: pre; text-shadow: white 1px 1px 1px, white -1px -1px 1px, white 1px -1px 1px, white -1px 1px 1px;">India (22 Mt)</text></g><g class="sankey-node" transform="translate(520.000,188.033)" style="opacity: 1;"><rect class="node-rect" width="20" height="7.968816126507647" style="stroke-width: 0.5; stroke: rgb(0, 0, 0); stroke-opacity: 1; fill: rgb(211, 211, 211); fill-opacity: 1;"/><text class="node-label" data-notex="1" x="0" y="0" text-anchor="end" transform="translate(-3.25,8.184408063253823)" style="cursor: default; font-family: 'Open Sans', verdana, arial, sans-serif; font-size: 12px; fill: rgb(42, 63, 95); fill-opacity: 1; white-space: pre; text-shadow: white 1px 1px 1px, white -1px -1px 1px, white 1px -1px 1px, white -1px 1px 1px;">Japan and Korea (119 Mt)</text></g><g class="sankey-node" transform="translate(520.000,257.767)" style="opacity: 1;"><rect class="node-rect" width="20" height="7.004730886140123" style="stroke-width: 0.5; stroke: rgb(0, 0, 0); stroke-opacity: 1; fill: rgb(211, 211, 211); fill-opacity: 1;"/><text class="node-label" data-notex="1" x="0" y="0" text-anchor="end" transform="translate(-3.25,7.702365443070061)" style="cursor: default; font-family: 'Open Sans', verdana, arial, sans-serif; font-size: 12px; fill: rgb(42, 63, 95); fill-opacity: 1; white-space: pre; text-shadow: white 1px 1px 1px, white -1px -1px 1px, white 1px -1px 1px, white -1px 1px 1px;">Latin America (104 Mt)</text></g><g class="sankey-node" transform="translate(520.000,211.002)" style="opacity: 1;"><rect class="node-rect" width="20" height="9.62954176556201" style="stroke-width: 0.5; stroke: rgb(0, 0, 0); stroke-opacity: 1; fill: rgb(211, 211, 211); fill-opacity: 1;"/><text class="node-label" data-notex="1" x="0" y="0" text-anchor="end" transform="translate(-3.25,9.014770882781004)" style="cursor: default; font-family: 'Open Sans', verdana, arial, sans-serif; font-size: 12px; fill: rgb(42, 63, 95); fill-opacity: 1; white-space: pre; text-shadow: white 1px 1px 1px, white -1px -1px 1px, white 1px -1px 1px, white -1px 1px 1px;">Middle East (143 Mt)</text></g><g class="sankey-node" transform="translate(520.000,235.631)" style="opacity: 1;"><rect class="node-rect" width="20" height="7.135272835443118" style="stroke-width: 0.5; stroke: rgb(0, 0, 0); stroke-opacity: 1; fill: rgb(211, 211, 211); fill-opacity: 1;"/><text class="node-label" data-notex="1" x="0" y="0" text-anchor="end" transform="translate(-3.25,7.767636417721558)" style="cursor: default; font-family: 'Open Sans', verdana, arial, sans-serif; font-size: 12px; fill: rgb(42, 63, 95); fill-opacity: 1; white-space: pre; text-shadow: white 1px 1px 1px, white -1px -1px 1px, white 1px -1px 1px, white -1px 1px 1px;">Rest of Asia (106 Mt)</text></g><g class="sankey-node" transform="translate(520.000,279.771)" style="opacity: 1;"><rect class="node-rect" width="20" height="40.22869466623979" style="stroke-width: 0.5; stroke: rgb(0, 0, 0); stroke-opacity: 1; fill: rgb(211, 211, 211); fill-opacity: 1;"/><text class="node-label" data-notex="1" x="0" y="0" text-anchor="end" transform="translate(-3.25,24.314347333119894)" style="cursor: default; font-family: 'Open Sans', verdana, arial, sans-serif; font-size: 12px; fill: rgb(42, 63, 95); fill-opacity: 1; white-space: pre; text-shadow: white 1px 1px 1px, white -1px -1px 1px, white 1px -1px 1px, white -1px 1px 1px;">USA and Canada (601 Mt)</text></g></g></g><defs id="topdefs-69986a"><g class="clips"/></defs><g class="layer-above"><g class="imagelayer"/><g class="shapelayer"/></g><g class="infolayer"><g class="g-gtitle"/><g class="first-render"/></g></svg>