<svg class="main-svg" xmlns="http://www.w3.org/2000/svg" xmlns:xlink="http://www.w3.org/1999/xlink" width="700" height="500" viewBox="0 0 700 500"><rect x="0" y="0" width="700" height="500" style="fill: rgb(255, 255, 255); fill-opacity: 1;"/><defs id="defs-ccc33c"><g class="clips"/><g class="gradients"/><g class="patterns"/></defs><g class="bglayer"/><g class="layer-below"><g class="imagelayer"/><g class="shapelayer"/></g><g class="cartesianlayer"/><g class="polarlayer"/><g class="smithlayer"/><g class="ternarylayer"/><g class="geolayer"/><g class="funnelarealayer"/><g class="pielayer"/><g class="iciclelayer"/><g class="treemaplayer"/><g class="sunburstlayer"/><g class="glimages"/><g class="sankey" transform="translate(80,100)matrix(1 0 0 1 0 0)" style="box-sizing: content-box; position: absolute; left: 0px; shape-rendering: geometricPrecision; pointer-events: auto;"><g class="sankey-links" style="fill: none;"><path class="sankey-link" d="M20,296.07805240306556C270,296.07805240306556 270,299.7518652385165 520,299.7518652385165L520,302.3365429006221C270,302.3365429006221 270,298.66273006517116 20,298.66273006517116Z" style="stroke: rgb(68, 68, 68); stroke-opacity: 1; fill: rgb(1, 115, 178); fill-opacity: 1; stroke-width: 0; opacity: 1;"/><path class="sankey-link" d="M20,292.86738038819453C270,292.86738038819453 270,89.59059704563171 520,89.59059704563171L520,89.67376071929877C270,89.67376071929877 270,292.9505440618616 20,292.9505440618616Z" style="stroke: rgb(1, 115, 178); stroke-opacity: 1; fill: rgb(1, 115, 178); fill-opacity: 1; stroke-width: 1; opacity: 1;"/><path class="sankey-link" d="M20,291.26714668233166C270,291.26714668233166 270,67.09606901654213 520,67.09606901654213L520,68.69630272240501C270,68.69630272240501 270,292.8673803881946 20,292.8673803881946Z" style="stroke: rgb(68, 68, 68); stroke-opacity: 1; fill: rgb(1, 115, 178); fill-opacity: 1; stroke-width: 0; opacity: 1;"/><path class="sankey-link" d="M20,294.8515080936103C270,294.8515080936103 270,235.4277383295872 520,235.4277383295872L520,236.33853724300474C270,236.33853724300474 270,295.76230700702786 20,295.76230700702786Z" style="stroke: rgb(1, 115, 178); stroke-opacity: 1; fill: rgb(1, 115, 178); fill-opacity: 1; stroke-width: 1; opacity: 1;"/><path class="sankey-link" d="M20,298.66273006517116C270,298.66273006517116 270,318.63180727176467 520,318.63180727176467L520,318.6802662387004C270,318.6802662387004 270,298.7111890321069 20,298.7111890321069Z" style="stroke: rgb(1, 115, 178); stroke-opacity: 1; fill: rgb(1, 115, 178); fill-opacity: 1; stroke-width: 1; opacity: 1;"/><path class="sankey-link" d="M20,292.9505440618616C270,292.9505440618616 270,119.47733297314984 520,119.47733297314984L520,119.77825962782565C270,119.77825962782565 270,293.25147071653737 20,293.25147071653737Z" style="stroke: rgb(1, 115, 178); stroke-opacity: 1; fill: rgb(1, 115, 178); fill-opacity: 1; stroke-width: 1; opacity: 1;"/><path class="sankey-link" d="M20,295.7623070070278C270,295.7623070070278 270,260.21904296380495 520,260.21904296380495L520,260.38974158166064C270,260.38974158166064 270,295.9330056248835 20,295.9330056248835Z" style="stroke: rgb(1, 115, 178); stroke-opacity: 1; fill: rgb(1, 115, 178); fill-opacity: 1; stroke-width: 1; opacity: 1;"/><path class="sankey-link" d="M20,295.93300562488355C270,295.93300562488355 270,282.46963979640617 520,282.46963979640617L520,282.6146865745881C270,282.6146865745881 270,296.0780524030655 20,296.0780524030655Z" style="stroke: rgb(1, 115, 178); stroke-opacity: 1; fill: rgb(1, 115, 178); fill-opacity: 1; stroke-width: 1; opacity: 1;"/><path class="sankey-link" d="M20,294.5047873788524C270,294.5047873788524 270,200.58123304558018 520,200.58123304558018L520,200.92795376033803C270,200.92795376033803 270,294.8515080936102 20,294.8515080936102Z" style="stroke: rgb(1, 115, 178); stroke-opacity: 1; fill: rgb(1, 115, 178); fill-opacity: 1; stroke-width: 1; opacity: 1;"/><path class="sankey-link" d="M20,293.25147071653737C270,293.25147071653737 270,173.13037239808068 520,173.13037239808068L520,174.38368906039574C270,174.38368906039574 270,294.5047873788525 20,294.5047873788525Z" style="stroke: rgb(68, 68, 68); stroke-opacity: 1; fill: rgb(1, 115, 178); fill-opacity: 1; stroke-width: 0; opacity: 1;"/><path class="sankey-link" d="M20,126.57393440527606C270,126.57393440527606 270,298.59855657867274 520,298.59855657867274L520,299.01816360921737C270,299.01816360921737 270,126.99354143582066 20,126.99354143582066Z" style="stroke: rgb(222, 143, 5); stroke-opacity: 1; fill: rgb(222, 143, 5); fill-opacity: 1; stroke-width: 1; opacity: 1;"/><path class="sankey-link" d="M20,96.95799588046137C270,96.95799588046137 270,85.30295565435443 520,85.30295565435443L520,88.95840240173311C270,88.95840240173311 270,100.61344262784004 20,100.61344262784004Z" style="stroke: rgb(68, 68, 68); stroke-opacity: 1; fill: rgb(222, 143, 5); fill-opacity: 1; stroke-width: 0; opacity: 1;"/><path class="sankey-link" d="M20,85.31558861183524C270,85.31558861183524 270,41.296041253654174 520,41.296041253654174L520,52.938448522280304C270,52.938448522280304 270,96.95799588046137 20,96.95799588046137Z" style="stroke: rgb(68, 68, 68); stroke-opacity: 1; fill: rgb(222, 143, 5); fill-opacity: 1; stroke-width: 0; opacity: 1;"/><path class="sankey-link" d="M20,120.5775649900198C270,120.5775649900198 270,222.0563348865334 520,222.0563348865334L520,225.92468824024186C270,225.92468824024186 270,124.44591834372824 20,124.44591834372824Z" style="stroke: rgb(68, 68, 68); stroke-opacity: 1; fill: rgb(222, 143, 5); fill-opacity: 1; stroke-width: 0; opacity: 1;"/><path class="sankey-link" d="M20,126.99354143582065C270,126.99354143582065 270,317.8982325748966 520,317.8982325748966L520,318.1746387528261C270,318.1746387528261 270,127.26994761375013 20,127.26994761375013Z" style="stroke: rgb(222, 143, 5); stroke-opacity: 1; fill: rgb(222, 143, 5); fill-opacity: 1; stroke-width: 1; opacity: 1;"/><path class="sankey-link" d="M20,100.61344262784004C270,100.61344262784004 270,107.81780820512348 520,107.81780820512348L520,115.4279610924542C270,115.4279610924542 270,108.22359551517076 20,108.22359551517076Z" style="stroke: rgb(68, 68, 68); stroke-opacity: 1; fill: rgb(222, 143, 5); fill-opacity: 1; stroke-width: 0; opacity: 1;"/><path class="sankey-link" d="M20,124.44591834372824C270,124.44591834372824 270,254.1334955981324 520,254.1334955981324L520,255.34998087134062C270,255.34998087134062 270,125.66240361693644 20,125.66240361693644Z" style="stroke: rgb(68, 68, 68); stroke-opacity: 1; fill: rgb(222, 143, 5); fill-opacity: 1; stroke-width: 0; opacity: 1;"/><path class="sankey-link" d="M20,125.66240361693646C270,125.66240361693646 270,276.8324481276469 520,276.8324481276469L520,277.74397891598653C270,277.74397891598653 270,126.57393440527606 20,126.57393440527606Z" style="stroke: rgb(222, 143, 5); stroke-opacity: 1; fill: rgb(222, 143, 5); fill-opacity: 1; stroke-width: 1; opacity: 1;"/><path class="sankey-link" d="M20,117.62038194156159C270,117.62038194156159 270,194.08824549373418 520,194.08824549373418L520,197.04542854219238C270,197.04542854219238 270,120.5775649900198 20,120.5775649900198Z" style="stroke: rgb(68, 68, 68); stroke-opacity: 1; fill: rgb(222, 143, 5); fill-opacity: 1; stroke-width: 0; opacity: 1;"/><path class="sankey-link" d="M20,108.22359551517076C270,108.22359551517076 270,147.40002163581948 520,147.40002163581948L520,156.79680806221035C270,156.79680806221035 270,117.62038194156159 20,117.62038194156159Z" style="stroke: rgb(68, 68, 68); stroke-opacity: 1; fill: rgb(222, 143, 5); fill-opacity: 1; stroke-width: 0; opacity: 1;"/><path class="sankey-link" d="M20,69.3188134445348C270,69.3188134445348 270,297.99656898751374 520,297.99656898751374L520,298.5985565786727C270,298.5985565786727 270,69.9208010356938 20,69.9208010356938Z" style="stroke: rgb(2, 158, 115); stroke-opacity: 1; fill: rgb(2, 158, 115); fill-opacity: 1; stroke-width: 1; opacity: 1;"/><path class="sankey-link" d="M20,41.296041253654096C270,41.296041253654096 270,84.5400424014367 520,84.5400424014367L520,85.30295565435443C270,85.30295565435443 270,42.05895450657184 20,42.05895450657184Z" style="stroke: rgb(2, 158, 115); stroke-opacity: 1; fill: rgb(2, 158, 115); fill-opacity: 1; stroke-width: 1; opacity: 1;"/><path class="sankey-link" d="M20,-1.1368683772161603e-13C270,-1.1368683772161603e-13 270,-3.552713678800501e-14 520,-3.552713678800501e-14L520,41.296041253654174C270,41.296041253654174 270,41.296041253654096 20,41.296041253654096Z" style="stroke: rgb(68, 68, 68); stroke-opacity: 1; fill: rgb(2, 158, 115); fill-opacity: 1; stroke-width: 0; opacity: 1;"/><path class="sankey-link" d="M20,60.46431829463993C270,60.46431829463993 270,216.30664188733618 520,216.30664188733618L520,222.05633488653342C270,222.05633488653342 270,66.21401129383715 20,66.21401129383715Z" style="stroke: rgb(68, 68, 68); stroke-opacity: 1; fill: rgb(2, 158, 115); fill-opacity: 1; stroke-width: 0; opacity: 1;"/><path class="sankey-link" d="M20,69.9208010356938C270,69.9208010356938 270,317.5034449987552 520,317.5034449987552L520,317.8982325748966C270,317.8982325748966 270,70.31558861183522 20,70.31558861183522Z" style="stroke: rgb(2, 158, 115); stroke-opacity: 1; fill: rgb(2, 158, 115); fill-opacity: 1; stroke-width: 1; opacity: 1;"/><path class="sankey-link" d="M20,42.05895450657184C270,42.05895450657184 270,104.74736264263336 520,104.74736264263336L520,107.81780820512347C270,107.81780820512347 270,45.12940006906196 20,45.12940006906196Z" style="stroke: rgb(68, 68, 68); stroke-opacity: 1; fill: rgb(2, 158, 115); fill-opacity: 1; stroke-width: 0; opacity: 1;"/><path class="sankey-link" d="M20,66.21401129383715C270,66.21401129383715 270,252.26285536178818 520,252.26285536178818L520,254.1334955981324C270,254.1334955981324 270,68.08465153018138 20,68.08465153018138Z" style="stroke: rgb(68, 68, 68); stroke-opacity: 1; fill: rgb(2, 158, 115); fill-opacity: 1; stroke-width: 0; opacity: 1;"/><path class="sankey-link" d="M20,68.08465153018139C270,68.08465153018139 270,275.5982862132935 520,275.5982862132935L520,276.8324481276469C270,276.8324481276469 270,69.31881344453478 20,69.31881344453478Z" style="stroke: rgb(68, 68, 68); stroke-opacity: 1; fill: rgb(2, 158, 115); fill-opacity: 1; stroke-width: 0; opacity: 1;"/><path class="sankey-link" d="M20,57.3595462243235C270,57.3595462243235 270,190.98347342341776 520,190.98347342341776L520,194.08824549373418C270,194.08824549373418 270,60.46431829463993 20,60.46431829463993Z" style="stroke: rgb(68, 68, 68); stroke-opacity: 1; fill: rgb(2, 158, 115); fill-opacity: 1; stroke-width: 0; opacity: 1;"/><path class="sankey-link" d="M20,45.12940006906196C270,45.12940006906196 270,135.16987548055795 520,135.16987548055795L520,147.40002163581948C270,147.40002163581948 270,57.359546224323495 20,57.359546224323495Z" style="stroke: rgb(68, 68, 68); stroke-opacity: 1; fill: rgb(2, 158, 115); fill-opacity: 1; stroke-width: 0; opacity: 1;"/><path class="sankey-link" d="M20,276.069554543625C270,276.069554543625 270,299.62082918615425 520,299.62082918615425L520,299.7518652385165C270,299.7518652385165 270,276.2005905959872 20,276.2005905959872Z" style="stroke: rgb(213, 94, 0); stroke-opacity: 1; fill: rgb(213, 94, 0); fill-opacity: 1; stroke-width: 1; opacity: 1;"/><path class="sankey-link" d="M20,269.25082032734C270,269.25082032734 270,89.48851327061895 520,89.48851327061895L520,89.59059704563172C270,89.59059704563172 270,269.35290410235274 20,269.35290410235274Z" style="stroke: rgb(213, 94, 0); stroke-opacity: 1; fill: rgb(213, 94, 0); fill-opacity: 1; stroke-width: 1; opacity: 1;"/><path class="sankey-link" d="M20,267.43572620932576C270,267.43572620932576 270,65.28097489852786 520,65.28097489852786L520,67.09606901654215C270,67.09606901654215 270,269.25082032734 20,269.25082032734Z" style="stroke: rgb(68, 68, 68); stroke-opacity: 1; fill: rgb(213, 94, 0); fill-opacity: 1; stroke-width: 0; opacity: 1;"/><path class="sankey-link" d="M20,272.2842595723268C270,272.2842595723268 270,232.96281992949574 520,232.96281992949574L520,235.42773832958724C270,235.42773832958724 270,274.7491779724183 20,274.7491779724183Z" style="stroke: rgb(68, 68, 68); stroke-opacity: 1; fill: rgb(213, 94, 0); fill-opacity: 1; stroke-width: 0; opacity: 1;"/><path class="sankey-link" d="M20,276.2005905959872C270,276.2005905959872 270,318.5652511854202 520,318.5652511854202L520,318.63180727176467C270,318.63180727176467 270,276.26714668233166 20,276.26714668233166Z" style="stroke: rgb(213, 94, 0); stroke-opacity: 1; fill: rgb(213, 94, 0); fill-opacity: 1; stroke-width: 1; opacity: 1;"/><path class="sankey-link" d="M20,269.3529041023528C270,269.3529041023528 270,119.09394340964232 520,119.09394340964232L520,119.47733297314986C270,119.47733297314986 270,269.73629366586033 20,269.73629366586033Z" style="stroke: rgb(213, 94, 0); stroke-opacity: 1; fill: rgb(213, 94, 0); fill-opacity: 1; stroke-width: 1; opacity: 1;"/><path class="sankey-link" d="M20,274.7491779724183C270,274.7491779724183 270,259.9647843697408 520,259.9647843697408L520,260.21904296380495C270,260.21904296380495 270,275.00343656648243 20,275.00343656648243Z" style="stroke: rgb(213, 94, 0); stroke-opacity: 1; fill: rgb(213, 94, 0); fill-opacity: 1; stroke-width: 1; opacity: 1;"/><path class="sankey-link" d="M20,275.00343656648243C270,275.00343656648243 270,281.40352181926363 520,281.40352181926363L520,282.46963979640617C270,282.46963979640617 270,276.069554543625 20,276.069554543625Z" style="stroke: rgb(68, 68, 68); stroke-opacity: 1; fill: rgb(213, 94, 0); fill-opacity: 1; stroke-width: 0; opacity: 1;"/><path class="sankey-link" d="M20,271.75362511530545C270,271.75362511530545 270,200.05059858855887 520,200.05059858855887L520,200.5812330455802C270,200.5812330455802 270,272.28425957232673 20,272.28425957232673Z" style="stroke: rgb(213, 94, 0); stroke-opacity: 1; fill: rgb(213, 94, 0); fill-opacity: 1; stroke-width: 1; opacity: 1;"/><path class="sankey-link" d="M20,269.73629366586033C270,269.73629366586033 270,171.11304094863556 520,171.11304094863556L520,173.13037239808068C270,173.13037239808068 270,271.75362511530545 20,271.75362511530545Z" style="stroke: rgb(68, 68, 68); stroke-opacity: 1; fill: rgb(213, 94, 0); fill-opacity: 1; stroke-width: 0; opacity: 1;"/><path class="sankey-link" d="M20,318.51336414056755C270,318.51336414056755 270,302.3365429006221 520,302.3365429006221L520,302.5034449987551C270,302.5034449987551 270,318.6802662387006 20,318.6802662387006Z" style="stroke: rgb(204, 120, 188); stroke-opacity: 1; fill: rgb(204, 120, 188); fill-opacity: 1; stroke-width: 1; opacity: 1;"/><path class="sankey-link" d="M20,314.5549287111386C270,314.5549287111386 270,89.67376071929878 520,89.67376071929878L520,89.7473626426334C270,89.7473626426334 270,314.62853063447324 20,314.62853063447324Z" style="stroke: rgb(204, 120, 188); stroke-opacity: 1; fill: rgb(204, 120, 188); fill-opacity: 1; stroke-width: 1; opacity: 1;"/><path class="sankey-link" d="M20,313.711189032107C270,313.711189032107 270,68.69630272240501 520,68.69630272240501L520,69.54004240143662C270,69.54004240143662 270,314.5549287111386 20,314.5549287111386Z" style="stroke: rgb(204, 120, 188); stroke-opacity: 1; fill: rgb(204, 120, 188); fill-opacity: 1; stroke-width: 1; opacity: 1;"/><path class="sankey-link" d="M20,316.9986189772257C270,316.9986189772257 270,236.33853724300477 520,236.33853724300477L520,237.26285536178827C270,237.26285536178827 270,317.9229370960092 20,317.9229370960092Z" style="stroke: rgb(204, 120, 188); stroke-opacity: 1; fill: rgb(204, 120, 188); fill-opacity: 1; stroke-width: 1; opacity: 1;"/><path class="sankey-link" d="M20,318.6802662387006C270,318.6802662387006 270,318.6802662387004 520,318.6802662387004L520,319.99999999999994C270,319.99999999999994 270,320.0000000000001 20,320.0000000000001Z" style="stroke: rgb(68, 68, 68); stroke-opacity: 1; fill: rgb(204, 120, 188); fill-opacity: 1; stroke-width: 0; opacity: 1;"/><path class="sankey-link" d="M20,314.6285306344732C270,314.6285306344732 270,119.77825962782563 520,119.77825962782563L520,120.16987548055792C270,120.16987548055792 270,315.0201464872055 20,315.0201464872055Z" style="stroke: rgb(204, 120, 188); stroke-opacity: 1; fill: rgb(204, 120, 188); fill-opacity: 1; stroke-width: 1; opacity: 1;"/><path class="sankey-link" d="M20,317.9229370960092C270,317.9229370960092 270,260.3897415816607 520,260.3897415816607L520,260.59828621329336C270,260.59828621329336 270,318.13148172764187 20,318.13148172764187Z" style="stroke: rgb(204, 120, 188); stroke-opacity: 1; fill: rgb(204, 120, 188); fill-opacity: 1; stroke-width: 1; opacity: 1;"/><path class="sankey-link" d="M20,318.1314817276419C270,318.1314817276419 270,282.6146865745882 520,282.6146865745882L520,282.9965689875138C270,282.9965689875138 270,318.51336414056755 20,318.51336414056755Z" style="stroke: rgb(204, 120, 188); stroke-opacity: 1; fill: rgb(204, 120, 188); fill-opacity: 1; stroke-width: 1; opacity: 1;"/><path class="sankey-link" d="M20,316.61993085022755C270,316.61993085022755 270,200.92795376033803 520,200.92795376033803L520,201.30664188733618C270,201.30664188733618 270,316.99861897722565 20,316.99861897722565Z" style="stroke: rgb(204, 120, 188); stroke-opacity: 1; fill: rgb(204, 120, 188); fill-opacity: 1; stroke-width: 1; opacity: 1;"/><path class="sankey-link" d="M20,315.02014648720547C270,315.02014648720547 270,174.38368906039574 520,174.38368906039574L520,175.98347342341782C270,175.98347342341782 270,316.61993085022755 20,316.61993085022755Z" style="stroke: rgb(68, 68, 68); stroke-opacity: 1; fill: rgb(204, 120, 188); fill-opacity: 1; stroke-width: 0; opacity: 1;"/><path class="sankey-link" d="M20,167.8053760863489C270,167.8053760863489 270,299.1496962173242 520,299.1496962173242L520,299.15015025955364C270,299.15015025955364 270,167.80583012857826 20,167.80583012857826Z" style="stroke: rgb(202, 145, 97); stroke-opacity: 1; fill: rgb(202, 145, 97); fill-opacity: 1; stroke-width: 1; opacity: 1;"/><path class="sankey-link" d="M20,167.77063237161832C270,167.77063237161832 270,89.10872098020836 520,89.10872098020836L520,89.10936044553334C270,89.10936044553334 270,167.7712718369433 20,167.7712718369433Z" style="stroke: rgb(202, 145, 97); stroke-opacity: 1; fill: rgb(202, 145, 97); fill-opacity: 1; stroke-width: 1; opacity: 1;"/><path class="sankey-link" d="M20,167.7598823207689C270,167.7598823207689 270,56.88139505260096 520,56.88139505260096L520,56.89214510345038C270,56.89214510345038 270,167.77063237161832 20,167.77063237161832Z" style="stroke: rgb(202, 145, 97); stroke-opacity: 1; fill: rgb(202, 145, 97); fill-opacity: 1; stroke-width: 1; opacity: 1;"/><path class="sankey-link" d="M20,167.7976176951768C270,167.7976176951768 270,227.36873954990418 520,227.36873954990418L520,227.37338190065546C270,227.37338190065546 270,167.80226004592808 20,167.80226004592808Z" style="stroke: rgb(202, 145, 97); stroke-opacity: 1; fill: rgb(202, 145, 97); fill-opacity: 1; stroke-width: 1; opacity: 1;"/><path class="sankey-link" d="M20,167.8058301285783C270,167.8058301285783 270,318.25137337224226 520,318.25137337224226L520,318.2517825809223C270,318.2517825809223 270,167.80623933725832 20,167.80623933725832Z" style="stroke: rgb(202, 145, 97); stroke-opacity: 1; fill: rgb(202, 145, 97); fill-opacity: 1; stroke-width: 1; opacity: 1;"/><path class="sankey-link" d="M20,167.7712718369433C270,167.7712718369433 270,116.1333489039535 520,116.1333489039535L520,116.14374719488515C270,116.14374719488515 270,167.78167012787492 20,167.78167012787492Z" style="stroke: rgb(202, 145, 97); stroke-opacity: 1; fill: rgb(202, 145, 97); fill-opacity: 1; stroke-width: 1; opacity: 1;"/><path class="sankey-link" d="M20,167.80226004592805C270,167.80226004592805 270,255.66877528667433 520,255.66877528667433L520,255.67043747387882C270,255.67043747387882 270,167.80392223313254 20,167.80392223313254Z" style="stroke: rgb(202, 145, 97); stroke-opacity: 1; fill: rgb(202, 145, 97); fill-opacity: 1; stroke-width: 1; opacity: 1;"/><path class="sankey-link" d="M20,167.80392223313254C270,167.80392223313254 270,278.0355891244363 520,278.0355891244363L520,278.0370429776527C270,278.0370429776527 270,167.80537608634893 20,167.80537608634893Z" style="stroke: rgb(202, 145, 97); stroke-opacity: 1; fill: rgb(202, 145, 97); fill-opacity: 1; stroke-width: 1; opacity: 1;"/><path class="sankey-link" d="M20,167.7943866450097C270,167.7943866450097 270,198.23809910909264 520,198.23809910909264L520,198.24133015925977C270,198.24133015925977 270,167.79761769517683 20,167.79761769517683Z" style="stroke: rgb(202, 145, 97); stroke-opacity: 1; fill: rgb(202, 145, 97); fill-opacity: 1; stroke-width: 1; opacity: 1;"/><path class="sankey-link" d="M20,167.78167012787495C270,167.78167012787495 270,159.03269612106465 520,159.03269612106465L520,159.04541263819942C270,159.04541263819942 270,167.79438664500972 20,167.79438664500972Z" style="stroke: rgb(202, 145, 97); stroke-opacity: 1; fill: rgb(202, 145, 97); fill-opacity: 1; stroke-width: 1; opacity: 1;"/><path class="sankey-link" d="M20,210.44179655325706C270,210.44179655325706 270,299.1501502595536 520,299.1501502595536L520,299.50266273915656C270,299.50266273915656 270,210.79430903286004 20,210.79430903286004Z" style="stroke: rgb(251, 175, 228); stroke-opacity: 1; fill: rgb(251, 175, 228); fill-opacity: 1; stroke-width: 1; opacity: 1;"/><path class="sankey-link" d="M20,189.31216173337089C270,189.31216173337089 270,89.10936044553335 520,89.10936044553335L520,89.4021028815302C270,89.4021028815302 270,189.60490416936773 20,189.60490416936773Z" style="stroke: rgb(251, 175, 228); stroke-opacity: 1; fill: rgb(251, 175, 228); fill-opacity: 1; stroke-width: 1; opacity: 1;"/><path class="sankey-link" d="M20,182.80623933725832C270,182.80623933725832 270,56.89214510345038 520,56.89214510345038L520,63.39806749956295C270,63.39806749956295 270,189.31216173337089 20,189.31216173337089Z" style="stroke: rgb(68, 68, 68); stroke-opacity: 1; fill: rgb(251, 175, 228); fill-opacity: 1; stroke-width: 0; opacity: 1;"/><path class="sankey-link" d="M20,199.87183329081256C270,199.87183329081256 270,227.37338190065543 520,227.37338190065543L520,231.3587529810937C270,231.3587529810937 270,203.85720437125082 20,203.85720437125082Z" style="stroke: rgb(68, 68, 68); stroke-opacity: 1; fill: rgb(251, 175, 228); fill-opacity: 1; stroke-width: 0; opacity: 1;"/><path class="sankey-link" d="M20,210.79430903286004C270,210.79430903286004 270,318.2517825809223 520,318.2517825809223L520,318.44313565235586C270,318.44313565235586 270,210.98566210429362 20,210.98566210429362Z" style="stroke: rgb(251, 175, 228); stroke-opacity: 1; fill: rgb(251, 175, 228); fill-opacity: 1; stroke-width: 1; opacity: 1;"/><path class="sankey-link" d="M20,189.60490416936773C270,189.60490416936773 270,116.14374719488515 520,116.14374719488515L520,118.53732312320656C270,118.53732312320656 270,191.99848009768914 20,191.99848009768914Z" style="stroke: rgb(68, 68, 68); stroke-opacity: 1; fill: rgb(251, 175, 228); fill-opacity: 1; stroke-width: 0; opacity: 1;"/><path class="sankey-link" d="M20,203.85720437125082C270,203.85720437125082 270,255.67043747387882 520,255.67043747387882L520,259.5191791854968C270,259.5191791854968 270,207.70594608286876 20,207.70594608286876Z" style="stroke: rgb(68, 68, 68); stroke-opacity: 1; fill: rgb(251, 175, 228); fill-opacity: 1; stroke-width: 0; opacity: 1;"/><path class="sankey-link" d="M20,207.7059460828688C270,207.7059460828688 270,278.0370429776527 520,278.0370429776527L520,280.772893448041C270,280.772893448041 270,210.44179655325703 20,210.44179655325703Z" style="stroke: rgb(68, 68, 68); stroke-opacity: 1; fill: rgb(251, 175, 228); fill-opacity: 1; stroke-width: 0; opacity: 1;"/><path class="sankey-link" d="M20,198.51968657386044C270,198.51968657386044 270,198.24133015925975 520,198.24133015925975L520,199.59347687621187C270,199.59347687621187 270,199.87183329081256 20,199.87183329081256Z" style="stroke: rgb(68, 68, 68); stroke-opacity: 1; fill: rgb(251, 175, 228); fill-opacity: 1; stroke-width: 0; opacity: 1;"/><path class="sankey-link" d="M20,191.99848009768914C270,191.99848009768914 270,159.0454126381994 520,159.0454126381994L520,165.5666191143707C270,165.5666191143707 270,198.51968657386044 20,198.51968657386044Z" style="stroke: rgb(68, 68, 68); stroke-opacity: 1; fill: rgb(251, 175, 228); fill-opacity: 1; stroke-width: 0; opacity: 1;"/><path class="sankey-link" d="M20,252.2685577609314C270,252.2685577609314 270,299.55023643656 520,299.55023643656L520,299.6208291861543C270,299.6208291861543 270,252.33915051052566 20,252.33915051052566Z" style="stroke: rgb(148, 148, 148); stroke-opacity: 1; fill: rgb(148, 148, 148); fill-opacity: 1; stroke-width: 1; opacity: 1;"/><path class="sankey-link" d="M20,249.630362401329C270,249.630362401329 270,89.45198406587251 520,89.45198406587251L520,89.48851327061895C270,89.48851327061895 270,249.66689160607544 20,249.66689160607544Z" style="stroke: rgb(148, 148, 148); stroke-opacity: 1; fill: rgb(148, 148, 148); fill-opacity: 1; stroke-width: 1; opacity: 1;"/><path class="sankey-link" d="M20,248.71311718788644C270,248.71311718788644 270,64.3637296850853 520,64.3637296850853L520,65.28097489852786C270,65.28097489852786 270,249.63036240132897 20,249.63036240132897Z" style="stroke: rgb(148, 148, 148); stroke-opacity: 1; fill: rgb(148, 148, 148); fill-opacity: 1; stroke-width: 1; opacity: 1;"/><path class="sankey-link" d="M20,250.94867769442124C270,250.94867769442124 270,232.23376287389277 520,232.23376287389277L520,232.9628199294957C270,232.9628199294957 270,251.67773475002417 20,251.67773475002417Z" style="stroke: rgb(148, 148, 148); stroke-opacity: 1; fill: rgb(148, 148, 148); fill-opacity: 1; stroke-width: 1; opacity: 1;"/><path class="sankey-link" d="M20,252.33915051052568C270,252.33915051052568 270,318.46867548662016 520,318.46867548662016L520,318.5652511854202C270,318.5652511854202 270,252.43572620932574 20,252.43572620932574Z" style="stroke: rgb(148, 148, 148); stroke-opacity: 1; fill: rgb(148, 148, 148); fill-opacity: 1; stroke-width: 1; opacity: 1;"/><path class="sankey-link" d="M20,249.66689160607544C270,249.66689160607544 270,118.88957544029954 520,118.88957544029954L520,119.0939434096423C270,119.0939434096423 270,249.87125957541824 20,249.87125957541824Z" style="stroke: rgb(148, 148, 148); stroke-opacity: 1; fill: rgb(148, 148, 148); fill-opacity: 1; stroke-width: 1; opacity: 1;"/><path class="sankey-link" d="M20,251.6777347500242C270,251.6777347500242 270,259.8772891468488 520,259.8772891468488L520,259.9647843697408C270,259.9647843697408 270,251.76522997291622 20,251.76522997291622Z" style="stroke: rgb(148, 148, 148); stroke-opacity: 1; fill: rgb(148, 148, 148); fill-opacity: 1; stroke-width: 1; opacity: 1;"/><path class="sankey-link" d="M20,251.76522997291622C270,251.76522997291622 270,280.9001940312485 520,280.9001940312485L520,281.4035218192637C270,281.4035218192637 270,252.26855776093137 20,252.26855776093137Z" style="stroke: rgb(148, 148, 148); stroke-opacity: 1; fill: rgb(148, 148, 148); fill-opacity: 1; stroke-width: 1; opacity: 1;"/><path class="sankey-link" d="M20,250.69701330558226C270,250.69701330558226 270,199.7989341997199 520,199.7989341997199L520,200.0505985885589C270,200.0505985885589 270,250.94867769442126 20,250.94867769442126Z" style="stroke: rgb(148, 148, 148); stroke-opacity: 1; fill: rgb(148, 148, 148); fill-opacity: 1; stroke-width: 1; opacity: 1;"/><path class="sankey-link" d="M20,249.8712595754182C270,249.8712595754182 270,170.2872872184715 520,170.2872872184715L520,171.11304094863553C270,171.11304094863553 270,250.69701330558223 20,250.69701330558223Z" style="stroke: rgb(148, 148, 148); stroke-opacity: 1; fill: rgb(148, 148, 148); fill-opacity: 1; stroke-width: 1; opacity: 1;"/><path class="sankey-link" d="M20,152.5516150932458C270,152.5516150932458 270,299.0181636092173 520,299.0181636092173L520,299.1496962173242C270,299.1496962173242 270,152.6831477013527 20,152.6831477013527Z" style="stroke: rgb(236, 225, 51); stroke-opacity: 1; fill: rgb(236, 225, 51); fill-opacity: 1; stroke-width: 1; opacity: 1;"/><path class="sankey-link" d="M20,146.21289414407082C270,146.21289414407082 270,88.95840240173311 520,88.95840240173311L520,89.10872098020835C270,89.10872098020835 270,146.36321272254608 20,146.36321272254608Z" style="stroke: rgb(236, 225, 51); stroke-opacity: 1; fill: rgb(236, 225, 51); fill-opacity: 1; stroke-width: 1; opacity: 1;"/><path class="sankey-link" d="M20,142.26994761375016C270,142.26994761375016 270,52.9384485222803 520,52.9384485222803L520,56.881395052600965C270,56.881395052600965 270,146.21289414407084 20,146.21289414407084Z" style="stroke: rgb(68, 68, 68); stroke-opacity: 1; fill: rgb(236, 225, 51); fill-opacity: 1; stroke-width: 0; opacity: 1;"/><path class="sankey-link" d="M20,150.49715915979993C270,150.49715915979993 270,225.92468824024184 520,225.92468824024184L520,227.36873954990415C270,227.36873954990415 270,151.94121046946225 20,151.94121046946225Z" style="stroke: rgb(68, 68, 68); stroke-opacity: 1; fill: rgb(236, 225, 51); fill-opacity: 1; stroke-width: 0; opacity: 1;"/><path class="sankey-link" d="M20,152.68314770135274C270,152.68314770135274 270,318.1746387528261 520,318.1746387528261L520,318.25137337224226C270,318.25137337224226 270,152.75988232076887 20,152.75988232076887Z" style="stroke: rgb(236, 225, 51); stroke-opacity: 1; fill: rgb(236, 225, 51); fill-opacity: 1; stroke-width: 1; opacity: 1;"/><path class="sankey-link" d="M20,146.36321272254605C270,146.36321272254605 270,115.4279610924542 520,115.4279610924542L520,116.13334890395349C270,116.13334890395349 270,147.06860053404534 20,147.06860053404534Z" style="stroke: rgb(236, 225, 51); stroke-opacity: 1; fill: rgb(236, 225, 51); fill-opacity: 1; stroke-width: 1; opacity: 1;"/><path class="sankey-link" d="M20,151.94121046946228C270,151.94121046946228 270,255.34998087134062 520,255.34998087134062L520,255.6687752866743C270,255.6687752866743 270,152.26000488479596 20,152.26000488479596Z" style="stroke: rgb(236, 225, 51); stroke-opacity: 1; fill: rgb(236, 225, 51); fill-opacity: 1; stroke-width: 1; opacity: 1;"/><path class="sankey-link" d="M20,152.260004884796C270,152.260004884796 270,277.7439789159865 520,277.7439789159865L520,278.0355891244363C270,278.0355891244363 270,152.5516150932458 20,152.5516150932458Z" style="stroke: rgb(236, 225, 51); stroke-opacity: 1; fill: rgb(236, 225, 51); fill-opacity: 1; stroke-width: 1; opacity: 1;"/><path class="sankey-link" d="M20,149.30448859289967C270,149.30448859289967 270,197.04542854219238 520,197.04542854219238L520,198.23809910909267C270,198.23809910909267 270,150.49715915979996 20,150.49715915979996Z" style="stroke: rgb(68, 68, 68); stroke-opacity: 1; fill: rgb(236, 225, 51); fill-opacity: 1; stroke-width: 0; opacity: 1;"/><path class="sankey-link" d="M20,147.06860053404534C270,147.06860053404534 270,156.79680806221032 520,156.79680806221032L520,159.03269612106467C270,159.03269612106467 270,149.3044885928997 20,149.3044885928997Z" style="stroke: rgb(68, 68, 68); stroke-opacity: 1; fill: rgb(236, 225, 51); fill-opacity: 1; stroke-width: 0; opacity: 1;"/><path class="sankey-link" d="M20,233.6400036562188C270,233.6400036562188 270,299.50266273915656 520,299.50266273915656L520,299.55023643656C270,299.55023643656 270,233.68757735362223 20,233.68757735362223Z" style="stroke: rgb(86, 180, 233); stroke-opacity: 1; fill: rgb(86, 180, 233); fill-opacity: 1; stroke-width: 1; opacity: 1;"/><path class="sankey-link" d="M20,226.95132428981606C270,226.95132428981606 270,89.4021028815302 520,89.4021028815302L520,89.4519840658725C270,89.4519840658725 270,227.00120547415838 20,227.00120547415838Z" style="stroke: rgb(86, 180, 233); stroke-opacity: 1; fill: rgb(86, 180, 233); fill-opacity: 1; stroke-width: 1; opacity: 1;"/><path class="sankey-link" d="M20,225.98566210429368C270,225.98566210429368 270,63.39806749956294 520,63.39806749956294L520,64.3637296850853C270,64.3637296850853 270,226.95132428981606 20,226.95132428981606Z" style="stroke: rgb(86, 180, 233); stroke-opacity: 1; fill: rgb(86, 180, 233); fill-opacity: 1; stroke-width: 1; opacity: 1;"/><path class="sankey-link" d="M20,232.27958321886015C270,232.27958321886015 270,231.3587529810937 520,231.3587529810937L520,232.23376287389277C270,232.23376287389277 270,233.15459311165924 20,233.15459311165924Z" style="stroke: rgb(86, 180, 233); stroke-opacity: 1; fill: rgb(86, 180, 233); fill-opacity: 1; stroke-width: 1; opacity: 1;"/><path class="sankey-link" d="M20,233.6875773536222C270,233.6875773536222 270,318.44313565235586 520,318.44313565235586L520,318.4686754866201C270,318.4686754866201 270,233.7131171878865 20,233.7131171878865Z" style="stroke: rgb(86, 180, 233); stroke-opacity: 1; fill: rgb(86, 180, 233); fill-opacity: 1; stroke-width: 1; opacity: 1;"/><path class="sankey-link" d="M20,227.00120547415835C270,227.00120547415835 270,118.53732312320658 520,118.53732312320658L520,118.88957544029954C270,118.88957544029954 270,227.35345779125132 20,227.35345779125132Z" style="stroke: rgb(86, 180, 233); stroke-opacity: 1; fill: rgb(86, 180, 233); fill-opacity: 1; stroke-width: 1; opacity: 1;"/><path class="sankey-link" d="M20,233.15459311165924C270,233.15459311165924 270,259.5191791854968 520,259.5191791854968L520,259.87728914684885C270,259.87728914684885 270,233.51270307301124 20,233.51270307301124Z" style="stroke: rgb(86, 180, 233); stroke-opacity: 1; fill: rgb(86, 180, 233); fill-opacity: 1; stroke-width: 1; opacity: 1;"/><path class="sankey-link" d="M20,233.51270307301127C270,233.51270307301127 270,280.7728934480409 520,280.7728934480409L520,280.9001940312485C270,280.9001940312485 270,233.64000365621882 20,233.64000365621882Z" style="stroke: rgb(86, 180, 233); stroke-opacity: 1; fill: rgb(86, 180, 233); fill-opacity: 1; stroke-width: 1; opacity: 1;"/><path class="sankey-link" d="M20,232.07412589535213C270,232.07412589535213 270,199.59347687621187 520,199.59347687621187L520,199.7989341997199C270,199.7989341997199 270,232.27958321886015 20,232.27958321886015Z" style="stroke: rgb(86, 180, 233); stroke-opacity: 1; fill: rgb(86, 180, 233); fill-opacity: 1; stroke-width: 1; opacity: 1;"/><path class="sankey-link" d="M20,227.35345779125132C270,227.35345779125132 270,165.5666191143707 520,165.5666191143707L520,170.2872872184715C270,170.2872872184715 270,232.07412589535213 20,232.07412589535213Z" style="stroke: rgb(68, 68, 68); stroke-opacity: 1; fill: rgb(86, 180, 233); fill-opacity: 1; stroke-width: 0; opacity: 1;"/></g><g class="sankey-node-set" style="cursor: move;"><g class="sankey-node" transform="translate(0.000,291.267)" style="opacity: 1;"><rect class="node-rect" width="20" height="7.444042349775316" style="stroke-width: 0.5; stroke: rgb(0, 0, 0); stroke-opacity: 1; fill: rgb(211, 211, 211); fill-opacity: 1;"/><text class="node-label" data-notex="1" x="0" y="0" text-anchor="start" transform="translate(23.25,7.922021174887657)" style="cursor: default; font-family: 'Open Sans', verdana, arial, sans-serif; font-size: 12px; fill: rgb(42, 63, 95); fill-opacity: 1; white-space: pre; text-shadow: white 1px 1px 1px, white -1px -1px 1px, white 1px -1px 1px, white -1px 1px 1px;">Africa (4 Mt)</text></g><g class="sankey-node" transform="translate(0.000,85.316)" style="opacity: 1;"><rect class="node-rect" width="20" height="41.95435900191492" style="stroke-width: 0.5; stroke: rgb(0, 0, 0); stroke-opacity: 1; fill: rgb(211, 211, 211); fill-opacity: 1;"/><text class="node-label" data-notex="1" x="0" y="0" text-anchor="start" transform="translate(23.25,25.17717950095746)" style="cursor: default; font-family: 'Open Sans', verdana, arial, sans-serif; font-size: 12px; fill: rgb(42, 63, 95); fill-opacity: 1; white-space: pre; text-shadow: white 1px 1px 1px, white -1px -1px 1px, white 1px -1px 1px, white -1px 1px 1px;">Australia (23 Mt)</text></g><g class="sankey-node" transform="translate(0.000,-0.000)" style="opacity: 1;"><rect class="node-rect" width="20" height="70.31558861183535" style="stroke-width: 0.5; stroke: rgb(0, 0, 0); stroke-opacity: 1; fill: rgb(211, 211, 211); fill-opacity: 1;"/><text class="node-label" data-notex="1" x="0" y="0" text-anchor="start" transform="translate(23.25,39.35779430591768)" style="cursor: default; font-family: 'Open Sans', verdana, arial, sans-serif; font-size: 12px; fill: rgb(42, 63, 95); fill-opacity: 1; white-space: pre; text-shadow: white 1px 1px 1px, white -1px -1px 1px, white 1px -1px 1px, white -1px 1px 1px;">China (39 Mt)</text></g><g class="sankey-node" transform="translate(0.000,267.436)" style="opacity: 1;"><rect class="node-rect" width="20" height="8.831420473005892" style="stroke-width: 0.5; stroke: rgb(0, 0, 0); stroke-opacity: 1; fill: rgb(211, 211, 211); fill-opacity: 1;"/><text class="node-label" data-notex="1" x="0" y="0" text-anchor="start" transform="translate(23.25,8.615710236502945)" style="cursor: default; font-family: 'Open Sans', verdana, arial, sans-serif; font-size: 12px; fill: rgb(42, 63, 95); fill-opacity: 1; white-space: pre; text-shadow: white 1px 1px 1px, white -1px -1px 1px, white 1px -1px 1px, white -1px 1px 1px;">Europe (4 Mt)</text></g><g class="sankey-node" transform="translate(0.000,313.711)" style="opacity: 1;"><rect class="node-rect" width="20" height="6.288810967893028" style="stroke-width: 0.5; stroke: rgb(0, 0, 0); stroke-opacity: 1; fill: rgb(211, 211, 211); fill-opacity: 1;"/><text class="node-label" data-notex="1" x="0" y="0" text-anchor="start" transform="translate(23.25,7.344405483946513)" style="cursor: default; font-family: 'Open Sans', verdana, arial, sans-serif; font-size: 12px; fill: rgb(42, 63, 95); fill-opacity: 1; white-space: pre; text-shadow: white 1px 1px 1px, white -1px -1px 1px, white 1px -1px 1px, white -1px 1px 1px;">India (3 Mt)</text></g><g class="sankey-node" transform="translate(0.000,167.760)" style="opacity: 1;"><rect class="node-rect" width="20" height="0.5" style="stroke-width: 0.5; stroke: rgb(0, 0, 0); stroke-opacity: 1; fill: rgb(211, 211, 211); fill-opacity: 1;"/><text class="node-label" data-notex="1" x="0" y="0" text-anchor="start" transform="translate(23.25,4.449999999999999)" style="cursor: default; font-family: 'Open Sans', verdana, arial, sans-serif; font-size: 12px; fill: rgb(42, 63, 95); fill-opacity: 1; white-space: pre; text-shadow: white 1px 1px 1px, white -1px -1px 1px, white 1px -1px 1px, white -1px 1px 1px;">Japan and Korea (0 Mt)</text></g><g class="sankey-node" transform="translate(0.000,182.806)" style="opacity: 1;"><rect class="node-rect" width="20" height="28.179422767035362" style="stroke-width: 0.5; stroke: rgb(0, 0, 0); stroke-opacity: 1; fill: rgb(211, 211, 211); fill-opacity: 1;"/><text class="node-label" data-notex="1" x="0" y="0" text-anchor="start" transform="translate(23.25,18.28971138351768)" style="cursor: default; font-family: 'Open Sans', verdana, arial, sans-serif; font-size: 12px; fill: rgb(42, 63, 95); fill-opacity: 1; white-space: pre; text-shadow: white 1px 1px 1px, white -1px -1px 1px, white 1px -1px 1px, white -1px 1px 1px;">Latin America (15 Mt)</text></g><g class="sankey-node" transform="translate(0.000,248.713)" style="opacity: 1;"><rect class="node-rect" width="20" height="3.7226090214393253" style="stroke-width: 0.5; stroke: rgb(0, 0, 0); stroke-opacity: 1; fill: rgb(211, 211, 211); fill-opacity: 1;"/><text class="node-label" data-notex="1" x="0" y="0" text-anchor="start" transform="translate(23.25,6.061304510719662)" style="cursor: default; font-family: 'Open Sans', verdana, arial, sans-serif; font-size: 12px; fill: rgb(42, 63, 95); fill-opacity: 1; white-space: pre; text-shadow: white 1px 1px 1px, white -1px -1px 1px, white 1px -1px 1px, white -1px 1px 1px;">Middle East (2 Mt)</text></g><g class="sankey-node" transform="translate(0.000,142.270)" style="opacity: 1;"><rect class="node-rect" width="20" height="10.489934707018733" style="stroke-width: 0.5; stroke: rgb(0, 0, 0); stroke-opacity: 1; fill: rgb(211, 211, 211); fill-opacity: 1;"/><text class="node-label" data-notex="1" x="0" y="0" text-anchor="start" transform="translate(23.25,9.444967353509366)" style="cursor: default; font-family: 'Open Sans', verdana, arial, sans-serif; font-size: 12px; fill: rgb(42, 63, 95); fill-opacity: 1; white-space: pre; text-shadow: white 1px 1px 1px, white -1px -1px 1px, white 1px -1px 1px, white -1px 1px 1px;">Rest of Asia (5 Mt)</text></g><g class="sankey-node" transform="translate(0.000,225.986)" style="opacity: 1;"><rect class="node-rect" width="20" height="7.7274550835927585" style="stroke-width: 0.5; stroke: rgb(0, 0, 0); stroke-opacity: 1; fill: rgb(211, 211, 211); fill-opacity: 1;"/><text class="node-label" data-notex="1" x="0" y="0" text-anchor="start" transform="translate(23.25,8.063727541796379)" style="cursor: default; font-family: 'Open Sans', verdana, arial, sans-serif; font-size: 12px; fill: rgb(42, 63, 95); fill-opacity: 1; white-space: pre; text-shadow: white 1px 1px 1px, white -1px -1px 1px, white 1px -1px 1px, white -1px 1px 1px;">USA and Canada (4 Mt)</text></g><g class="sankey-node" transform="translate(520.000,297.997)" style="opacity: 1;"><rect class="node-rect" width="20" height="4.506876011241445" style="stroke-width: 0.5; stroke: rgb(0, 0, 0); stroke-opacity: 1; fill: rgb(211, 211, 211); fill-opacity: 1;"/><text class="node-label" data-notex="1" x="0" y="0" text-anchor="end" transform="translate(-3.25,6.453438005620722)" style="cursor: default; font-family: 'Open Sans', verdana, arial, sans-serif; font-size: 12px; fill: rgb(42, 63, 95); fill-opacity: 1; white-space: pre; text-shadow: white 1px 1px 1px, white -1px -1px 1px, white 1px -1px 1px, white -1px 1px 1px;">Africa (2 Mt)</text></g><g class="sankey-node" transform="translate(520.000,84.540)" style="opacity: 1;"><rect class="node-rect" width="20" height="5.207320241196669" style="stroke-width: 0.5; stroke: rgb(0, 0, 0); stroke-opacity: 1; fill: rgb(211, 211, 211); fill-opacity: 1;"/><text class="node-label" data-notex="1" x="0" y="0" text-anchor="end" transform="translate(-3.25,6.803660120598334)" style="cursor: default; font-family: 'Open Sans', verdana, arial, sans-serif; font-size: 12px; fill: rgb(42, 63, 95); fill-opacity: 1; white-space: pre; text-shadow: white 1px 1px 1px, white -1px -1px 1px, white 1px -1px 1px, white -1px 1px 1px;">Australia (2 Mt)</text></g><g class="sankey-node" transform="translate(520.000,-0.000)" style="opacity: 1;"><rect class="node-rect" width="20" height="69.54004240143672" style="stroke-width: 0.5; stroke: rgb(0, 0, 0); stroke-opacity: 1; fill: rgb(211, 211, 211); fill-opacity: 1;"/><text class="node-label" data-notex="1" x="0" y="0" text-anchor="end" transform="translate(-3.25,38.970021200718364)" style="cursor: default; font-family: 'Open Sans', verdana, arial, sans-serif; font-size: 12px; fill: rgb(42, 63, 95); fill-opacity: 1; white-space: pre; text-shadow: white 1px 1px 1px, white -1px -1px 1px, white 1px -1px 1px, white -1px 1px 1px;">China (38 Mt)</text></g><g class="sankey-node" transform="translate(520.000,216.307)" style="opacity: 1;"><rect class="node-rect" width="20" height="20.956213474452" style="stroke-width: 0.5; stroke: rgb(0, 0, 0); stroke-opacity: 1; fill: rgb(211, 211, 211); fill-opacity: 1;"/><text class="node-label" data-notex="1" x="0" y="0" text-anchor="end" transform="translate(-3.25,14.678106737225999)" style="cursor: default; font-family: 'Open Sans', verdana, arial, sans-serif; font-size: 12px; fill: rgb(42, 63, 95); fill-opacity: 1; white-space: pre; text-shadow: white 1px 1px 1px, white -1px -1px 1px, white 1px -1px 1px, white -1px 1px 1px;">Europe (11 Mt)</text></g><g class="sankey-node" transform="translate(520.000,317.503)" style="opacity: 1;"><rect class="node-rect" width="20" height="2.4965550012448148" style="stroke-width: 0.5; stroke: rgb(0, 0, 0); stroke-opacity: 1; fill: rgb(211, 211, 211); fill-opacity: 1;"/><text class="node-label" data-notex="1" x="0" y="0" text-anchor="end" transform="translate(-3.25,5.448277500622407)" style="cursor: default; font-family: 'Open Sans', verdana, arial, sans-serif; font-size: 12px; fill: rgb(42, 63, 95); fill-opacity: 1; white-space: pre; text-shadow: white 1px 1px 1px, white -1px -1px 1px, white 1px -1px 1px, white -1px 1px 1px;">India (1 Mt)</text></g><g class="sankey-node" transform="translate(520.000,104.747)" style="opacity: 1;"><rect class="node-rect" width="20" height="15.422512837924586" style="stroke-width: 0.5; stroke: rgb(0, 0, 0); stroke-opacity: 1; fill: rgb(211, 211, 211); fill-opacity: 1;"/><text class="node-label" data-notex="1" x="0" y="0" text-anchor="end" transform="translate(-3.25,11.911256418962292)" style="cursor: default; font-family: 'Open Sans', verdana, arial, sans-serif; font-size: 12px; fill: rgb(42, 63, 95); fill-opacity: 1; white-space: pre; text-shadow: white 1px 1px 1px, white -1px -1px 1px, white 1px -1px 1px, white -1px 1px 1px;">Japan and Korea (8 Mt)</text></g><g class="sankey-node" transform="translate(520.000,252.263)" style="opacity: 1;"><rect class="node-rect" width="20" height="8.335430851505294" style="stroke-width: 0.5; stroke: rgb(0, 0, 0); stroke-opacity: 1; fill: rgb(211, 211, 211); fill-opacity: 1;"/><text class="node-label" data-notex="1" x="0" y="0" text-anchor="end" transform="translate(-3.25,8.367715425752646)" style="cursor: default; font-family: 'Open Sans', verdana, arial, sans-serif; font-size: 12px; fill: rgb(42, 63, 95); fill-opacity: 1; white-space: pre; text-shadow: white 1px 1px 1px, white -1px -1px 1px, white 1px -1px 1px, white -1px 1px 1px;">Latin America (4 Mt)</text></g><g class="sankey-node" transform="translate(520.000,275.598)" style="opacity: 1;"><rect class="node-rect" width="20" height="7.398282774220263" style="stroke-width: 0.5; stroke: rgb(0, 0, 0); stroke-opacity: 1; fill: rgb(211, 211, 211); fill-opacity: 1;"/><text class="node-label" data-notex="1" x="0" y="0" text-anchor="end" transform="translate(-3.25,7.899141387110131)" style="cursor: default; font-family: 'Open Sans', verdana, arial, sans-serif; font-size: 12px; fill: rgb(42, 63, 95); fill-opacity: 1; white-space: pre; text-shadow: white 1px 1px 1px, white -1px -1px 1px, white 1px -1px 1px, white -1px 1px 1px;">Middle East (4 Mt)</text></g><g class="sankey-node" transform="translate(520.000,190.983)" style="opacity: 1;"><rect class="node-rect" width="20" height="10.323168463918421" style="stroke-width: 0.5; stroke: rgb(0, 0, 0); stroke-opacity: 1; fill: rgb(211, 211, 211); fill-opacity: 1;"/><text class="node-label" data-notex="1" x="0" y="0" text-anchor="end" transform="translate(-3.25,9.36158423195921)" style="cursor: default; font-family: 'Open Sans', verdana, arial, sans-serif; font-size: 12px; fill: rgb(42, 63, 95); fill-opacity: 1; white-space: pre; text-shadow: white 1px 1px 1px, white -1px -1px 1px, white 1px -1px 1px, white -1px 1px 1px;">Rest of Asia (5 Mt)</text></g><g class="sankey-node" transform="translate(520.000,135.170)" style="opacity: 1;"><rect class="node-rect" width="20" height="40.813597942859815" style="stroke-width: 0.5; stroke: rgb(0, 0, 0); stroke-opacity: 1; fill: rgb(211, 211, 211); fill-opacity: 1;"/><text class="node-label" data-notex="1" x="0" y="0" text-anchor="end" transform="translate(-3.25,24.606798971429907)" style="cursor: default; font-family: 'Open Sans', verdana, arial, sans-serif; font-size: 12px; fill: rgb(42, 63, 95); fill-opacity: 1; white-space: pre; text-shadow: white 1px 1px 1px, white -1px -1px 1px, white 1px -1px 1px, white -1px 1px 1px;">USA and Canada (22 Mt)</text></g></g></g><defs id="topdefs-ccc33c"><g class="clips"/></defs><g class="layer-above"><g class="imagelayer"/><g class="shapelayer"/></g><g class="infolayer"><g class="g-gtitle"/><g class="first-render"/></g></svg>